<svg version="1.1" xmlns="http://www.w3.org/2000/svg" xmlns:xlink="http://www.w3.org/1999/xlink" width="49.43886" height="74.97003" viewBox="-0.75,-0.65916,49.43886,74.97003"><g transform="translate(-216.75,-143.78021)"><g data-paper-data="{&quot;isPaintingLayer&quot;:true}" fill="#000000" fill-rule="evenodd" stroke="#000000" stroke-width="5" stroke-linecap="round" stroke-linejoin="miter" stroke-miterlimit="10" stroke-dasharray="" stroke-dashoffset="0" style="mix-blend-mode: normal"><path d="M248.7,213.65424v-16.8h-28.2c-1.33333,0 -2,-0.46667 -2,-1.4c0,-0.63 0.172,-1.30933 0.516,-2.038c0.05817,-0.12225 0.11953,-0.24296 0.184,-0.362l29.3,-46.6c0.16567,-0.27656 0.37389,-0.52528 0.617,-0.737c0.44083,-0.37534 1.00417,-0.57569 1.583,-0.563c0.24013,-0.00719 0.47787,0.0494 0.689,0.164c0.474,0.27333 0.711,0.88533 0.711,1.836v46.2h8.9c1.16867,0 1.82533,0.43533 1.97,1.306c0.02076,0.13029 0.0308,0.26207 0.03,0.394c0,1.178 -0.64267,1.77767 -1.928,1.799c-0.024,0.00053 -0.048,0.00087 -0.072,0.001h-8.9v16.8c0,1.16867 -0.43533,1.825 -1.306,1.969c-0.13026,0.0211 -0.26204,0.03147 -0.394,0.031c-1.06533,0 -1.63,-0.58933 -1.694,-1.768c-0.00409,-0.07727 -0.00609,-0.15463 -0.006,-0.232zM248.7,152.35424l-25.6,41h25.6z"/></g></g></svg>