<svg version="1.1" xmlns="http://www.w3.org/2000/svg" xmlns:xlink="http://www.w3.org/1999/xlink" width="42.23537" height="75.505" viewBox="0,0,42.23537,75.505"><g transform="translate(-218.841,-142.15)"><g data-paper-data="{&quot;isPaintingLayer&quot;:true}" fill="#000000" fill-rule="evenodd" stroke="#000000" stroke-width="5" stroke-linecap="round" stroke-linejoin="miter" stroke-miterlimit="10" stroke-dasharray="" stroke-dashoffset="0" style="mix-blend-mode: normal"><path d="M224.941,182.15v-35.5c-0.00384,-0.26698 0.02948,-0.5332 0.099,-0.791c0.23067,-0.806 0.86433,-1.209 1.901,-1.209h28c1.16867,0 1.825,0.43533 1.969,1.306c0.0211,0.13026 0.03147,0.26204 0.031,0.394c0,1.178 -0.64267,1.778 -1.928,1.8c-0.024,0.0002 -0.048,0.0002 -0.072,0h-26.4v30c1.55911,-1.5486 3.40069,-2.78391 5.425,-3.639c0.00833,-0.00367 0.01666,-0.00734 0.025,-0.011c2.1,-0.9 4.28333,-1.35 6.55,-1.35c1.85103,-0.01308 3.69473,0.234 5.477,0.734c1.48689,0.42452 2.908,1.05246 4.223,1.866c2.73358,1.70188 4.96036,4.10617 6.448,6.962c0.0514,0.09561 0.10207,0.19162 0.152,0.288c1.6,3.1 2.4,6.71667 2.4,10.85c0.01563,2.11666 -0.19015,4.22915 -0.614,6.303c-0.838,3.94533 -2.53333,7.161 -5.086,9.647c-3.10652,3.01565 -7.13533,4.90135 -11.441,5.355c-1.08128,0.13207 -2.16969,0.19719 -3.259,0.195c-3.4,0 -6.66667,-0.78333 -9.8,-2.35c-3.13333,-1.56667 -5.7,-3.75 -7.7,-6.55c-0.86667,-1.06667 -0.76667,-1.93333 0.3,-2.6c0.13308,-0.0865 0.27444,-0.15953 0.422,-0.218c0.774,-0.302 1.5,-0.02933 2.178,0.818c1.41405,1.81464 3.11513,3.38602 5.036,4.652c2.84934,1.83451 6.17543,2.79019 9.564,2.748c1.74801,0.01459 3.49137,-0.18251 5.192,-0.587c2.79036,-0.644 5.33096,-2.09125 7.308,-4.163c2.76267,-2.916 4.25333,-6.89233 4.472,-11.929c0.01888,-0.44008 0.02821,-0.88052 0.028,-1.321c0.01226,-2.06638 -0.27437,-4.12367 -0.851,-6.108c-0.25652,-0.86848 -0.57363,-1.71789 -0.949,-2.542c-1.2,-2.63333 -2.93333,-4.73333 -5.2,-6.3c-2.26667,-1.56667 -5.03333,-2.35 -8.3,-2.35c-1.91763,0.00853 -3.81237,0.41725 -5.563,1.2c-0.3858,0.16892 -0.76508,0.35238 -1.137,0.55c-0.89427,0.46765 -1.73919,1.02412 -2.522,1.661c-0.93641,0.75815 -1.74006,1.66691 -2.378,2.689c-0.6,1 -1.36667,1.5 -2.3,1.5c-1.06533,0 -1.63,-0.589 -1.694,-1.767c-0.0041,-0.0776 -0.00611,-0.15529 -0.006,-0.233z"/></g></g></svg>