<svg version="1.1" xmlns="http://www.w3.org/2000/svg" xmlns:xlink="http://www.w3.org/1999/xlink" width="33.16671" height="33.16669" viewBox="0,0,33.16671,33.16669"><g transform="translate(-223.41665,-163.41665)"><g data-paper-data="{&quot;isPaintingLayer&quot;:true}" fill-rule="nonzero" stroke-linecap="butt" stroke-linejoin="miter" stroke-miterlimit="10" stroke-dasharray="" stroke-dashoffset="0" style="mix-blend-mode: normal"><g><path d="M224.66665,189.22945c0,-7.78097 0,-14.86472 0,-19.05394c0,-2.58374 2.71714,-5.50886 5.1675,-5.50886c4.2215,0 12.01346,0 19.84315,0c3.36644,0 5.65606,3.27389 5.65606,6.07258c0,4.29453 0,11.1398 0,18.7157c0,3.48094 -2.94622,5.87841 -5.54331,5.87841c-4.28219,0 -11.79942,0 -19.50492,0c-3.34339,0 -5.61848,-2.49694 -5.61848,-6.1039z" fill="#f0f6ff" stroke-opacity="0.25482" stroke="#2e4770" stroke-width="2.5"/><path d="M224.66665,189.22945c0,-7.78097 0,-14.86472 0,-19.05394c0,-2.58374 2.71714,-5.50886 5.1675,-5.50886c4.2215,0 12.01346,0 19.84315,0c3.36644,0 5.65606,3.27389 5.65606,6.07258c0,4.29453 0,11.1398 0,18.7157c0,3.48094 -2.94622,5.87841 -5.54331,5.87841c-4.28219,0 -11.79942,0 -19.50492,0c-3.34339,0 -5.61848,-2.49694 -5.61848,-6.1039z" fill="#f0f6ff" stroke="#2e4770" stroke-width="1"/><path d="M229.7105,172.53508c0,-1.67139 1.35493,-3.02632 3.02632,-3.02632c1.67139,0 3.02632,1.35493 3.02632,3.02632c0,1.67139 -1.35493,3.02632 -3.02632,3.02632c-1.67139,0 -3.02632,-1.35493 -3.02632,-3.02632z" fill="#1c2f5a" stroke="#ffffff" stroke-width="0"/><path d="M244.03508,187.86842c0,-1.67139 1.35493,-3.02632 3.02632,-3.02632c1.67139,0 3.02632,1.35493 3.02632,3.02632c0,1.67139 -1.35493,3.02632 -3.02632,3.02632c-1.67139,0 -3.02632,-1.35493 -3.02632,-3.02632z" fill="#1c2f5a" stroke="#ffffff" stroke-width="0"/><path d="M236.97366,180c0,-1.67139 1.35493,-3.02632 3.02632,-3.02632c1.67139,0 3.02632,1.35493 3.02632,3.02632c0,1.67139 -1.35493,3.02632 -3.02632,3.02632c-1.67139,0 -3.02632,-1.35493 -3.02632,-3.02632z" fill="#1c2f5a" stroke="#ffffff" stroke-width="0"/></g></g></g></svg>