<svg version="1.1" xmlns="http://www.w3.org/2000/svg" xmlns:xlink="http://www.w3.org/1999/xlink" width="33.1667" height="33.1667" viewBox="0,0,33.1667,33.1667"><g transform="translate(-223.41665,-163.41665)"><g data-paper-data="{&quot;isPaintingLayer&quot;:true}" fill-rule="nonzero" stroke-linecap="butt" stroke-linejoin="miter" stroke-miterlimit="10" stroke-dasharray="" stroke-dashoffset="0" style="mix-blend-mode: normal"><g><path d="M224.66667,189.22944c0,-7.78096 0,-14.86472 0,-19.05394c0,-2.58375 2.71713,-5.50885 5.16748,-5.50885c4.22151,0 12.01347,0 19.84314,0c3.36643,0 5.65605,3.27388 5.65605,6.07259c0,4.29454 0,11.13979 0,18.71571c0,3.48095 -2.94623,5.8784 -5.5433,5.8784c-4.28218,0 -11.79943,0 -19.50491,0c-3.34341,0 -5.61848,-2.49694 -5.61848,-6.10389z" fill="#f0f6ff" stroke-opacity="0.25482" stroke="#2e4770" stroke-width="2.5"/><path d="M224.66667,189.22944c0,-7.78096 0,-14.86472 0,-19.05394c0,-2.58375 2.71713,-5.50885 5.16748,-5.50885c4.22151,0 12.01347,0 19.84314,0c3.36643,0 5.65605,3.27388 5.65605,6.07259c0,4.29454 0,11.13979 0,18.71571c0,3.48095 -2.94623,5.8784 -5.5433,5.8784c-4.28218,0 -11.79943,0 -19.50491,0c-3.34341,0 -5.61848,-2.49694 -5.61848,-6.10389z" fill="#f0f6ff" stroke="#2e4770" stroke-width="1"/><path d="M229.71053,172.53508c0,-1.6714 1.35492,-3.02632 3.02632,-3.02632c1.6714,0 3.02632,1.35492 3.02632,3.02632c0,1.6714 -1.35492,3.02632 -3.02632,3.02632c-1.6714,0 -3.02632,-1.35492 -3.02632,-3.02632z" fill="#1c2f5a" stroke="#ffffff" stroke-width="0"/><path d="M244.0351,187.86843c0,-1.6714 1.35492,-3.02632 3.02632,-3.02632c1.6714,0 3.02632,1.35492 3.02632,3.02632c0,1.6714 -1.35492,3.02632 -3.02632,3.02632c-1.6714,0 -3.02632,-1.35492 -3.02632,-3.02632z" fill="#1c2f5a" stroke="#ffffff" stroke-width="0"/><path d="M244.0351,172.73684c0,-1.6714 1.35492,-3.02632 3.02632,-3.02632c1.6714,0 3.02632,1.35492 3.02632,3.02632c0,1.6714 -1.35492,3.02632 -3.02632,3.02632c-1.6714,0 -3.02632,-1.35492 -3.02632,-3.02632z" fill="#1c2f5a" stroke="#ffffff" stroke-width="0"/><path d="M229.91229,187.66666c0,-1.6714 1.35492,-3.02632 3.02632,-3.02632c1.6714,0 3.02632,1.35492 3.02632,3.02632c0,1.6714 -1.35492,3.02632 -3.02632,3.02632c-1.6714,0 -3.02632,-1.35492 -3.02632,-3.02632z" fill="#1c2f5a" stroke="#ffffff" stroke-width="0"/><path d="M236.9737,180c0,-1.6714 1.35492,-3.02632 3.02632,-3.02632c1.6714,0 3.02632,1.35492 3.02632,3.02632c0,1.6714 -1.35492,3.02632 -3.02632,3.02632c-1.6714,0 -3.02632,-1.35492 -3.02632,-3.02632z" fill="#1c2f5a" stroke="#ffffff" stroke-width="0"/></g></g></g></svg>