<svg version="1.1" xmlns="http://www.w3.org/2000/svg" xmlns:xlink="http://www.w3.org/1999/xlink" width="248.01152" height="54.63595" viewBox="0,0,248.01152,54.63595"><g transform="translate(-115.545,-137.97906)"><g data-paper-data="{&quot;isPaintingLayer&quot;:true}" fill="#000000" fill-rule="evenodd" stroke="#000000" stroke-width="1.5" stroke-linecap="round" stroke-linejoin="miter" stroke-miterlimit="10" stroke-dasharray="" stroke-dashoffset="0" style="mix-blend-mode: normal"><path d="M130.845,176.325l0.27,-0.96c0.0189,-0.08637 0.05238,-0.16888 0.099,-0.244c0.114,-0.17733 0.301,-0.266 0.561,-0.266c0.04142,-0.00048 0.08274,0.00423 0.123,0.014c0.09072,0.02085 0.16694,0.08198 0.207,0.166c0.06,0.12 0.06,0.28 0,0.48l-1.68,6.33c-0.02531,0.09185 -0.04732,0.18458 -0.066,0.278c-0.08533,0.436 -0.06033,0.76367 0.075,0.983c0.02328,0.03741 0.05043,0.07227 0.081,0.104c0.08242,0.08184 0.18033,0.14643 0.288,0.19c0.28533,0.12333 0.70933,0.185 1.272,0.185c0.49163,0.00395 0.98212,-0.04806 1.462,-0.155c0.706,-0.16333 1.311,-0.456 1.815,-0.878c0.10765,-0.09017 0.21046,-0.18597 0.308,-0.287c0.52718,-0.55388 0.89931,-1.23675 1.079,-1.98c0.11467,-0.444 0.179,-0.92833 0.193,-1.453c0.00203,-0.07565 0.00303,-0.15132 0.003,-0.227c0,-1.26 -0.25,-2.435 -0.75,-3.525c-0.5,-1.09 -1.18,-2.045 -2.04,-2.865c-0.86,-0.82 -1.84,-1.46 -2.94,-1.92c-1.1,-0.46 -2.25,-0.69 -3.45,-0.69c-1.42,0 -2.76,0.245 -4.02,0.735c-1.26,0.49 -2.37,1.19 -3.33,2.1c-0.96,0.91 -1.715,1.995 -2.265,3.255c-0.41902,0.9733 -0.67965,2.00737 -0.772,3.063c-0.03548,0.37796 -0.05316,0.75738 -0.053,1.137c-0.00587,0.87236 0.09693,1.74205 0.306,2.589c0.20952,0.83843 0.54644,1.63975 0.999,2.376c0.87,1.41 2.085,2.5 3.645,3.27c1.06154,0.51699 2.19888,0.86099 3.369,1.019c0.66297,0.09239 1.33163,0.13784 2.001,0.136c0.96723,0.00494 1.93055,-0.12292 2.863,-0.38c0.30026,-0.08393 0.59628,-0.18238 0.887,-0.295c1.16,-0.45 2.18,-1.075 3.06,-1.875c0.04057,-0.04104 0.08401,-0.07914 0.13,-0.114c0.24,-0.17933 0.45967,-0.16867 0.659,0.032c0.00713,0.00721 0.01413,0.01454 0.021,0.022c0.03653,0.03333 0.06969,0.07017 0.099,0.11c0.12867,0.17667 0.11767,0.364 -0.033,0.562c-0.02957,0.03809 -0.06164,0.07417 -0.096,0.108c-0.98,0.92 -2.12,1.625 -3.42,2.115c-1.24507,0.46411 -2.5604,0.71168 -3.889,0.732c-0.09365,0.00199 -0.18733,0.00299 -0.281,0.003c-1.12496,0.00638 -2.24673,-0.12017 -3.342,-0.377c-0.85113,-0.20234 -1.67718,-0.49849 -2.463,-0.883c-1.71,-0.84 -3.06,-2.035 -4.05,-3.585c-0.99,-1.55 -1.485,-3.405 -1.485,-5.565c-0.00583,-1.09381 0.13646,-2.18337 0.423,-3.239c0.11814,-0.42875 0.26241,-0.84987 0.432,-1.261c0.57,-1.38 1.375,-2.58 2.415,-3.6c1.04,-1.02 2.255,-1.815 3.645,-2.385c1.39,-0.57 2.905,-0.855 4.545,-0.855c1.38,0 2.685,0.26 3.915,0.78c1.23,0.52 2.32,1.245 3.27,2.175c0.95,0.93 1.695,2 2.235,3.21c0.54,1.21 0.81,2.505 0.81,3.885c0.00579,0.67131 -0.07897,1.34034 -0.252,1.989c-0.23467,0.87198 -0.67264,1.67595 -1.278,2.346c-0.68491,0.75087 -1.58427,1.27282 -2.576,1.495c-0.54067,0.13133 -1.13167,0.198 -1.773,0.2c-0.01033,0.00002 -0.02067,0.00002 -0.031,0c-0.30837,0.0021 -0.61639,-0.02098 -0.921,-0.069c-0.32467,-0.05333 -0.60867,-0.13833 -0.852,-0.255c-0.47537,-0.21113 -0.83556,-0.61839 -0.987,-1.116c-0.76333,0.93933 -1.9,1.419 -3.41,1.439c-0.03333,0.00056 -0.06666,0.00089 -0.1,0.001c-0.40448,0.00302 -0.80771,-0.04537 -1.2,-0.144c-0.4784,-0.12078 -0.92741,-0.33712 -1.32,-0.636c-0.5427,-0.41776 -0.94014,-0.99573 -1.136,-1.652c-0.05878,-0.18607 -0.10521,-0.37581 -0.139,-0.568c-0.04081,-0.23484 -0.06222,-0.47265 -0.064,-0.711c-0.00733,-0.67133 0.12467,-1.41333 0.396,-2.226c0.05095,-0.1522 0.1053,-0.30323 0.163,-0.453c0.20125,-0.5166 0.46272,-1.00766 0.779,-1.463c0.33252,-0.47747 0.73776,-0.89992 1.201,-1.252c0.86,-0.65 1.83,-0.975 2.91,-0.975c0.37082,-0.00218 0.74075,0.03672 1.103,0.116c0.33596,0.07442 0.66095,0.19171 0.967,0.349c0.6,0.31 1.06,0.745 1.38,1.305zM285.015,189.465l-4.29,-13.17c-0.11867,-0.38933 -0.058,-0.614 0.182,-0.674c0.0485,-0.01132 0.0982,-0.01669 0.148,-0.016h0.03c0.09231,-0.00143 0.18411,0.01381 0.271,0.045c0.142,0.05333 0.25033,0.154 0.325,0.302c0.02626,0.05227 0.04768,0.10683 0.064,0.163l3.75,11.82l3.66,-11.82c0.02092,-0.07295 0.04906,-0.14363 0.084,-0.211c0.03933,-0.07467 0.085,-0.13533 0.137,-0.182c0.08766,-0.07802 0.20168,-0.11984 0.319,-0.117c0.16683,-0.0027 0.32285,0.08233 0.411,0.224c0.03867,0.05533 0.072,0.12167 0.1,0.199c0.01064,0.02866 0.02032,0.05768 0.029,0.087l3.69,11.82l3.75,-11.82c0.1,-0.34 0.32,-0.51 0.66,-0.51c0.05553,-0.00082 0.11095,0.00522 0.165,0.018c0.22133,0.056 0.29667,0.24133 0.226,0.556c-0.00889,0.03904 -0.01923,0.07773 -0.031,0.116l-4.29,13.17c-0.02085,0.06882 -0.04831,0.13547 -0.082,0.199c-0.03733,0.06867 -0.08,0.12467 -0.128,0.168c-0.08181,0.07475 -0.18921,0.1152 -0.3,0.113c-0.14627,0.00081 -0.28311,-0.07212 -0.364,-0.194c-0.03667,-0.05 -0.06933,-0.11 -0.098,-0.18c-0.01837,-0.04446 -0.0344,-0.08986 -0.048,-0.136l-3.66,-11.82l-3.69,11.82c-0.1,0.34 -0.27,0.51 -0.51,0.51c-0.09499,0.00258 -0.18851,-0.02393 -0.268,-0.076c-0.11333,-0.07667 -0.194,-0.21133 -0.242,-0.404zM218.895,189.945h-0.06c-0.06414,0.00086 -0.12809,-0.00722 -0.19,-0.024c-0.142,-0.04067 -0.23167,-0.13333 -0.269,-0.278c-0.01452,-0.0582 -0.02158,-0.11802 -0.021,-0.178v-20.04c-0.00086,-0.06414 0.00722,-0.12809 0.024,-0.19c0.04067,-0.142 0.13333,-0.23167 0.278,-0.269c0.0582,-0.01452 0.11802,-0.02158 0.178,-0.021h0.06c0.06414,-0.00086 0.12809,0.00722 0.19,0.024c0.142,0.04067 0.232,0.13333 0.27,0.278c0.01419,0.05825 0.02091,0.11806 0.02,0.178v9.06h12.84v-9.06c-0.00086,-0.06414 0.00722,-0.12809 0.024,-0.19c0.04067,-0.142 0.13333,-0.23167 0.278,-0.269c0.0582,-0.01452 0.11802,-0.02158 0.178,-0.021h0.09c0.06414,-0.00086 0.12809,0.00722 0.19,0.024c0.142,0.04067 0.232,0.13333 0.27,0.278c0.01419,0.05825 0.02091,0.11806 0.02,0.178v20.04c0.00086,0.06414 -0.00722,0.12809 -0.024,0.19c-0.04067,0.142 -0.13333,0.232 -0.278,0.27c-0.05825,0.01419 -0.11806,0.02091 -0.178,0.02h-0.09c-0.06414,0.00086 -0.12809,-0.00722 -0.19,-0.024c-0.142,-0.04067 -0.23167,-0.13333 -0.269,-0.278c-0.01452,-0.0582 -0.02158,-0.11802 -0.021,-0.178v-9.96h-12.84v9.96c0.00086,0.06414 -0.00722,0.12809 -0.024,0.19c-0.04067,0.142 -0.13333,0.232 -0.278,0.27c-0.05825,0.01419 -0.11806,0.02091 -0.178,0.02zM333.315,189.345v-13.14c-0.00087,-0.07601 0.00718,-0.15187 0.024,-0.226c0.06,-0.24933 0.232,-0.374 0.516,-0.374c0.07385,-0.00146 0.14736,0.0104 0.217,0.035c0.19533,0.07333 0.293,0.26167 0.293,0.565v1.62c0.38184,-0.60749 0.88171,-1.13218 1.47,-1.543c0.15066,-0.1072 0.3058,-0.20796 0.465,-0.302c0.75814,-0.44381 1.61415,-0.69354 2.492,-0.727c0.10425,-0.00521 0.20862,-0.00788 0.313,-0.008c0.57454,-0.00545 1.14672,0.07408 1.698,0.236c0.77228,0.2309 1.46983,0.66178 2.022,1.249c0.54245,0.58138 0.93391,1.28703 1.14,2.055c0.14333,0.504 0.22967,1.05733 0.259,1.66c0.00745,0.15656 0.01112,0.31327 0.011,0.47v8.43c0.00095,0.07558 -0.00643,0.15104 -0.022,0.225c-0.04733,0.21133 -0.17067,0.33333 -0.37,0.366c-0.03902,0.00622 -0.07849,0.00923 -0.118,0.009c-0.07385,0.00146 -0.14736,-0.0104 -0.217,-0.035c-0.19533,-0.07333 -0.293,-0.26167 -0.293,-0.565v-8.43c0.00274,-0.42474 -0.03072,-0.84894 -0.1,-1.268c-0.07933,-0.46 -0.20567,-0.872 -0.379,-1.236c-0.16451,-0.35087 -0.3881,-0.67087 -0.661,-0.946c-0.62067,-0.61899 -1.43435,-1.00713 -2.306,-1.1c-0.22028,-0.02721 -0.44205,-0.04057 -0.664,-0.04c-0.47856,-0.00297 -0.9555,0.05585 -1.419,0.175c-0.36217,0.09447 -0.71168,0.23212 -1.041,0.41c-0.72,0.39 -1.28,0.895 -1.68,1.515c-0.27708,0.42099 -0.46463,0.89446 -0.551,1.391c-0.03272,0.19462 -0.04911,0.39164 -0.049,0.589v8.94c0.00095,0.07558 -0.00643,0.15104 -0.022,0.225c-0.04733,0.21133 -0.17067,0.33333 -0.37,0.366c-0.03902,0.00622 -0.07849,0.00923 -0.118,0.009c-0.36,0 -0.54,-0.2 -0.54,-0.6zM155.835,186.825v2.52c0.00095,0.07558 -0.00643,0.15104 -0.022,0.225c-0.04733,0.21133 -0.17067,0.33333 -0.37,0.366c-0.03902,0.00622 -0.07849,0.00923 -0.118,0.009c-0.36,0 -0.54,-0.2 -0.54,-0.6v-20.61c-0.00087,-0.07601 0.00718,-0.15187 0.024,-0.226c0.06,-0.24933 0.232,-0.374 0.516,-0.374c0.07385,-0.00146 0.14736,0.0104 0.217,0.035c0.19533,0.07333 0.293,0.26167 0.293,0.565v9.99c0.52,-1.06 1.255,-1.9 2.205,-2.52c0.82987,-0.53708 1.78432,-0.85087 2.771,-0.911c0.17105,-0.01254 0.34249,-0.01888 0.514,-0.019c0.693,-0.00561 1.38221,0.10284 2.04,0.321c0.46067,0.15599 0.89929,0.37077 1.305,0.639c0.86034,0.57216 1.57198,1.34105 2.076,2.243c0.07706,0.13514 0.15009,0.27253 0.219,0.412c0.38484,0.78714 0.63819,1.63198 0.75,2.501c0.06115,0.45878 0.09122,0.92117 0.09,1.384c0,1.46 -0.28,2.755 -0.84,3.885c-0.32475,0.66767 -0.75379,1.27933 -1.271,1.812c-0.31061,0.31637 -0.65386,0.59895 -1.024,0.843c-0.87549,0.57388 -1.88925,0.90167 -2.935,0.949c-0.13653,0.00757 -0.27326,0.01124 -0.41,0.011c-0.66307,0.00535 -1.32283,-0.09387 -1.955,-0.294c-0.46962,-0.15197 -0.91689,-0.36585 -1.33,-0.636c-0.95,-0.62 -1.685,-1.46 -2.205,-2.52zM192.645,183.075v-3.03c0.0009,-0.27268 -0.01011,-0.54528 -0.033,-0.817c-0.05667,-0.644 -0.18567,-1.15667 -0.387,-1.538c-0.2697,-0.51557 -0.73119,-0.90452 -1.285,-1.083c-0.01164,-0.00408 -0.02331,-0.00808 -0.035,-0.012c-0.42,-0.14 -0.93267,-0.231 -1.538,-0.273c-0.27694,-0.01858 -0.55444,-0.02759 -0.832,-0.027c-0.72,0 -1.515,0.115 -2.385,0.345c-0.87,0.23 -1.655,0.525 -2.355,0.885c-0.04235,0.01913 -0.08575,0.03582 -0.13,0.05c-0.29333,0.092 -0.51,0.01533 -0.65,-0.23c-0.198,-0.29667 -0.11167,-0.53467 0.259,-0.714c0.00366,-0.00202 0.00732,-0.00402 0.011,-0.006c0.47279,-0.24672 0.96232,-0.45991 1.465,-0.638c0.3717,-0.13273 0.74868,-0.25017 1.13,-0.352c0.40332,-0.10899 0.81183,-0.19776 1.224,-0.266c0.44133,-0.072 0.86167,-0.11267 1.261,-0.122c0.05666,-0.0013 0.11333,-0.00197 0.17,-0.002c0.46391,-0.00208 0.92748,0.02498 1.388,0.081c0.982,0.124 1.761,0.392 2.337,0.804c0.05992,0.0429 0.11829,0.08793 0.175,0.135c0.3372,0.28865 0.60196,0.6524 0.773,1.062c0.30467,0.69067 0.457,1.59667 0.457,2.718v8.58c0,0.24267 0.04333,0.41633 0.13,0.521c0.02616,0.03233 0.05844,0.05917 0.095,0.079c0.12933,0.06867 0.36533,0.08567 0.708,0.051c0.05912,-0.00597 0.11813,-0.01297 0.177,-0.021c0.02926,-0.00396 0.0586,-0.00729 0.088,-0.01c0.40133,-0.03467 0.602,0.07867 0.602,0.34c0.00135,0.07931 -0.01152,0.15823 -0.038,0.233c-0.048,0.12867 -0.14133,0.22267 -0.28,0.282c-0.06169,0.02559 -0.12611,0.04405 -0.192,0.055c-0.3,0.06 -0.59,0.09 -0.87,0.09c-0.11145,0.00039 -0.22287,-0.00361 -0.334,-0.012c-0.30733,-0.02467 -0.536,-0.08567 -0.686,-0.183c-0.10615,-0.07085 -0.19088,-0.16941 -0.245,-0.285c-0.03733,-0.07467 -0.06633,-0.15967 -0.087,-0.255c-0.0121,-0.0545 -0.02144,-0.10957 -0.028,-0.165c-0.04,-0.34 -0.06,-0.81 -0.06,-1.41c-0.38524,0.44815 -0.845,0.82638 -1.359,1.118c-0.12458,0.0718 -0.25166,0.13918 -0.381,0.202c-0.7,0.34 -1.445,0.59 -2.235,0.75c-0.79,0.16 -1.545,0.24 -2.265,0.24c-0.44351,0.00285 -0.88625,-0.03734 -1.322,-0.12c-0.522,-0.10267 -0.98867,-0.271 -1.4,-0.505c-0.15972,-0.09066 -0.31277,-0.19259 -0.458,-0.305c-0.60926,-0.47188 -1.0144,-1.1594 -1.132,-1.921c-0.0466,-0.26712 -0.06936,-0.53785 -0.068,-0.809c-0.00346,-0.89761 0.34014,-1.76182 0.959,-2.412c0.01028,-0.01105 0.02061,-0.02205 0.031,-0.033c0.66,-0.71 1.505,-1.27 2.535,-1.68c1.03,-0.41 2.095,-0.615 3.195,-0.615c0.49617,-0.00299 0.99167,0.03683 1.481,0.119c0.53067,0.09267 1.00567,0.23933 1.425,0.44c0.36355,0.17177 0.69875,0.39804 0.994,0.671zM248.055,183.075v-3.03c0.0009,-0.27268 -0.01011,-0.54528 -0.033,-0.817c-0.05667,-0.644 -0.18567,-1.15667 -0.387,-1.538c-0.2697,-0.51557 -0.73119,-0.90452 -1.285,-1.083c-0.01164,-0.00408 -0.02331,-0.00808 -0.035,-0.012c-0.42,-0.14 -0.93267,-0.231 -1.538,-0.273c-0.27694,-0.01858 -0.55444,-0.02759 -0.832,-0.027c-0.72,0 -1.515,0.115 -2.385,0.345c-0.87,0.23 -1.655,0.525 -2.355,0.885c-0.04235,0.01913 -0.08575,0.03582 -0.13,0.05c-0.29333,0.092 -0.51,0.01533 -0.65,-0.23c-0.198,-0.29667 -0.11167,-0.53467 0.259,-0.714c0.00366,-0.00202 0.00732,-0.00402 0.011,-0.006c0.47279,-0.24672 0.96232,-0.45991 1.465,-0.638c0.3717,-0.13273 0.74868,-0.25017 1.13,-0.352c0.40332,-0.10899 0.81183,-0.19776 1.224,-0.266c0.44133,-0.072 0.86167,-0.11267 1.261,-0.122c0.05666,-0.0013 0.11333,-0.00197 0.17,-0.002c0.46391,-0.00208 0.92748,0.02498 1.388,0.081c0.982,0.124 1.761,0.392 2.337,0.804c0.05992,0.0429 0.11829,0.08793 0.175,0.135c0.3372,0.28865 0.60196,0.6524 0.773,1.062c0.30467,0.69067 0.457,1.59667 0.457,2.718v8.58c0,0.24267 0.04333,0.41633 0.13,0.521c0.02616,0.03233 0.05844,0.05917 0.095,0.079c0.12933,0.06867 0.36533,0.08567 0.708,0.051c0.05912,-0.00597 0.11813,-0.01297 0.177,-0.021c0.02926,-0.00396 0.0586,-0.00729 0.088,-0.01c0.40133,-0.03467 0.602,0.07867 0.602,0.34c0.00135,0.07931 -0.01152,0.15823 -0.038,0.233c-0.048,0.12867 -0.14133,0.22267 -0.28,0.282c-0.06169,0.02559 -0.12611,0.04405 -0.192,0.055c-0.3,0.06 -0.59,0.09 -0.87,0.09c-0.11145,0.00039 -0.22287,-0.00361 -0.334,-0.012c-0.30733,-0.02467 -0.536,-0.08567 -0.686,-0.183c-0.10615,-0.07085 -0.19088,-0.16941 -0.245,-0.285c-0.03733,-0.07467 -0.06633,-0.15967 -0.087,-0.255c-0.0121,-0.0545 -0.02144,-0.10957 -0.028,-0.165c-0.04,-0.34 -0.06,-0.81 -0.06,-1.41c-0.38524,0.44815 -0.845,0.82638 -1.359,1.118c-0.12458,0.0718 -0.25166,0.13918 -0.381,0.202c-0.7,0.34 -1.445,0.59 -2.235,0.75c-0.79,0.16 -1.545,0.24 -2.265,0.24c-0.44351,0.00285 -0.88625,-0.03734 -1.322,-0.12c-0.522,-0.10267 -0.98867,-0.271 -1.4,-0.505c-0.15972,-0.09066 -0.31277,-0.19259 -0.458,-0.305c-0.60926,-0.47188 -1.0144,-1.1594 -1.132,-1.921c-0.0466,-0.26712 -0.06936,-0.53785 -0.068,-0.809c-0.00346,-0.89761 0.34014,-1.76182 0.959,-2.412c0.01028,-0.01105 0.02061,-0.02205 0.031,-0.033c0.66,-0.71 1.505,-1.27 2.535,-1.68c1.03,-0.41 2.095,-0.615 3.195,-0.615c0.49617,-0.00299 0.99167,0.03683 1.481,0.119c0.53067,0.09267 1.00567,0.23933 1.425,0.44c0.36355,0.17177 0.69875,0.39804 0.994,0.671zM312.825,182.235h-10.86c-0.00737,0.1629 -0.01104,0.32594 -0.011,0.489c0,1.12667 0.18367,2.15367 0.551,3.081c0.23286,0.60152 0.56255,1.16091 0.976,1.656c0.27403,0.32408 0.58592,0.61415 0.929,0.864c0.72747,0.52688 1.58721,0.84093 2.483,0.907c0.17692,0.01537 0.35442,0.02304 0.532,0.023c0.78311,0.01305 1.55969,-0.14425 2.276,-0.461c1.09133,-0.5 1.95267,-1.40633 2.584,-2.719c0.17867,-0.35667 0.426,-0.46767 0.742,-0.333c0.00267,0.00099 0.00534,0.00199 0.008,0.003c0.29333,0.14667 0.37667,0.38567 0.25,0.717c-0.01213,0.0315 -0.02547,0.06253 -0.04,0.093c-0.35341,0.75637 -0.83368,1.44667 -1.42,2.041c-1.13267,1.11933 -2.59933,1.679 -4.4,1.679c-0.72194,0.00609 -1.43961,-0.11126 -2.122,-0.347c-0.43576,-0.15395 -0.85141,-0.35976 -1.238,-0.613c-0.89643,-0.58999 -1.63271,-1.39292 -2.143,-2.337c-0.0581,-0.10471 -0.11378,-0.21073 -0.167,-0.318c-0.38449,-0.7872 -0.63751,-1.63204 -0.749,-2.501c-0.06149,-0.45876 -0.09189,-0.92114 -0.091,-1.384c0,-1.46 0.28,-2.755 0.84,-3.885c0.33618,-0.69151 0.78572,-1.32189 1.33,-1.865c0.29941,-0.29546 0.62772,-0.56012 0.98,-0.79c0.89861,-0.58314 1.93848,-0.91179 3.009,-0.951c0.11691,-0.00585 0.23394,-0.00885 0.351,-0.009c0.55818,-0.00431 1.11432,0.06769 1.653,0.214c0.57006,0.15723 1.10749,0.41494 1.587,0.761c0.9,0.65 1.585,1.465 2.055,2.445c0.35431,0.72575 0.58063,1.50723 0.669,2.31c0.02407,0.22921 0.03608,0.45953 0.036,0.69c0,0.36 -0.2,0.54 -0.6,0.54zM328.605,182.235h-10.86c-0.00737,0.1629 -0.01104,0.32594 -0.011,0.489c0,1.12667 0.18367,2.15367 0.551,3.081c0.23286,0.60152 0.56255,1.16091 0.976,1.656c0.27403,0.32408 0.58592,0.61415 0.929,0.864c0.72747,0.52688 1.58721,0.84093 2.483,0.907c0.17692,0.01537 0.35442,0.02304 0.532,0.023c0.78311,0.01305 1.55969,-0.14425 2.276,-0.461c1.09133,-0.5 1.95267,-1.40633 2.584,-2.719c0.17867,-0.35667 0.426,-0.46767 0.742,-0.333c0.00267,0.00099 0.00534,0.00199 0.008,0.003c0.29333,0.14667 0.37667,0.38567 0.25,0.717c-0.01213,0.0315 -0.02547,0.06253 -0.04,0.093c-0.35341,0.75637 -0.83368,1.44667 -1.42,2.041c-1.13267,1.11933 -2.59933,1.679 -4.4,1.679c-0.72194,0.00609 -1.43961,-0.11126 -2.122,-0.347c-0.43576,-0.15395 -0.85141,-0.35976 -1.238,-0.613c-0.89643,-0.58999 -1.63271,-1.39292 -2.143,-2.337c-0.0581,-0.10471 -0.11378,-0.21073 -0.167,-0.318c-0.38449,-0.7872 -0.63751,-1.63204 -0.749,-2.501c-0.06149,-0.45876 -0.09189,-0.92114 -0.091,-1.384c0,-1.46 0.28,-2.755 0.84,-3.885c0.33618,-0.69151 0.78572,-1.32189 1.33,-1.865c0.29941,-0.29546 0.62772,-0.56012 0.98,-0.79c0.89861,-0.58314 1.93848,-0.91179 3.009,-0.951c0.11691,-0.00585 0.23394,-0.00885 0.351,-0.009c0.55818,-0.00431 1.11432,0.06769 1.653,0.214c0.57006,0.15723 1.10749,0.41494 1.587,0.761c0.9,0.65 1.585,1.465 2.055,2.445c0.35431,0.72575 0.58063,1.50723 0.669,2.31c0.02407,0.22921 0.03608,0.45953 0.036,0.69c0,0.36 -0.2,0.54 -0.6,0.54zM171.825,189.345v-13.14c-0.00087,-0.07601 0.00718,-0.15187 0.024,-0.226c0.06,-0.24933 0.232,-0.374 0.516,-0.374c0.36,0 0.54,0.2 0.54,0.6v2.1c0.34441,-0.71338 0.85131,-1.33605 1.48,-1.818c0.17023,-0.13293 0.34713,-0.25709 0.53,-0.372c0.87171,-0.54633 1.87544,-0.84565 2.904,-0.866c0.07197,-0.00247 0.14398,-0.00381 0.216,-0.004c0.11802,0 0.23603,0.00167 0.354,0.005c0.254,0.00733 0.47,0.02267 0.648,0.046c0.0512,0.0067 0.10221,0.0147 0.153,0.024c0.06432,0.01099 0.12644,0.03226 0.184,0.063c0.11533,0.06333 0.18567,0.165 0.211,0.305c0.00709,0.04195 0.01044,0.08445 0.01,0.127c0.00147,0.07826 -0.01106,0.15615 -0.037,0.23c-0.07133,0.19267 -0.24733,0.29567 -0.528,0.309c-0.02166,0.00085 -0.04333,0.00119 -0.065,0.001c-0.09011,-0.00004 -0.18018,-0.00371 -0.27,-0.011c-0.06013,-0.00502 -0.12015,-0.01136 -0.18,-0.019c-0.16,-0.02 -0.32,-0.03 -0.48,-0.03c-0.57279,-0.00404 -1.14257,0.08305 -1.688,0.258c-0.31521,0.10281 -0.61912,0.23751 -0.907,0.402c-0.77,0.44 -1.385,1.015 -1.845,1.725c-0.46,0.71 -0.69,1.475 -0.69,2.295v8.37c0.00095,0.07635 -0.0071,0.15254 -0.024,0.227c-0.06,0.24867 -0.232,0.373 -0.516,0.373c-0.36,0 -0.54,-0.2 -0.54,-0.6zM141.975,189.345v-20.61c-0.00087,-0.07601 0.00718,-0.15187 0.024,-0.226c0.06,-0.24933 0.232,-0.374 0.516,-0.374c0.07385,-0.00146 0.14736,0.0104 0.217,0.035c0.19533,0.07333 0.293,0.26167 0.293,0.565v20.61c0.00095,0.07558 -0.00643,0.15104 -0.022,0.225c-0.04733,0.21133 -0.17067,0.33333 -0.37,0.366c-0.03902,0.00622 -0.07849,0.00923 -0.118,0.009c-0.36,0 -0.54,-0.2 -0.54,-0.6zM254.505,189.345v-20.61c-0.00087,-0.07601 0.00718,-0.15187 0.024,-0.226c0.06,-0.24933 0.232,-0.374 0.516,-0.374c0.07385,-0.00146 0.14736,0.0104 0.217,0.035c0.19533,0.07333 0.293,0.26167 0.293,0.565v20.61c0.00095,0.07558 -0.00643,0.15104 -0.022,0.225c-0.04733,0.21133 -0.17067,0.33333 -0.37,0.366c-0.03902,0.00622 -0.07849,0.00923 -0.118,0.009c-0.36,0 -0.54,-0.2 -0.54,-0.6zM260.415,189.345v-20.61c-0.00087,-0.07601 0.00718,-0.15187 0.024,-0.226c0.06,-0.24933 0.232,-0.374 0.516,-0.374c0.07385,-0.00146 0.14736,0.0104 0.217,0.035c0.19533,0.07333 0.293,0.26167 0.293,0.565v20.61c0.00095,0.07558 -0.00643,0.15104 -0.022,0.225c-0.04733,0.21133 -0.17067,0.33333 -0.37,0.366c-0.03902,0.00622 -0.07849,0.00923 -0.118,0.009c-0.36,0 -0.54,-0.2 -0.54,-0.6zM269.873,189.928c0.68239,0.23574 1.40006,0.35309 2.122,0.347c0.11705,0.00018 0.23408,-0.00249 0.351,-0.008c1.07061,-0.03951 2.11049,-0.36851 3.009,-0.952c0.38121,-0.24866 0.73398,-0.5384 1.052,-0.864c0.5128,-0.5312 0.93748,-1.14087 1.258,-1.806c0.27063,-0.55382 0.47536,-1.13748 0.61,-1.739c0.15694,-0.70951 0.23409,-1.43435 0.23,-2.161c0.00134,-0.48341 -0.03174,-0.96629 -0.099,-1.445c-0.11454,-0.84302 -0.36478,-1.66194 -0.741,-2.425c-0.03465,-0.06952 -0.07032,-0.13853 -0.107,-0.207c-0.518,-0.98743 -1.27545,-1.82913 -2.203,-2.448c-0.37826,-0.25168 -0.78512,-0.45746 -1.212,-0.613c-0.68923,-0.24571 -1.41631,-0.36825 -2.148,-0.362c-0.08802,0.00004 -0.17604,0.00171 -0.264,0.005c-1.10254,0.02664 -2.17537,0.36277 -3.096,0.97c-0.289,0.19153 -0.56221,0.40588 -0.817,0.641c-0.61616,0.57482 -1.12213,1.25735 -1.493,2.014c-0.56,1.12 -0.84,2.41 -0.84,3.87c-0.00091,0.44197 0.02648,0.88354 0.082,1.322c0.10861,0.89529 0.36474,1.76641 0.758,2.578c0.56,1.14 1.33,2.03 2.31,2.67c0.38659,0.25324 0.80224,0.45905 1.238,0.613zM161.325,189.255c0.59715,0.00484 1.19082,-0.09117 1.756,-0.284c0.37509,-0.13058 0.73249,-0.30727 1.064,-0.526c0.67713,-0.45031 1.24222,-1.0496 1.652,-1.752c0.10228,-0.17162 0.19672,-0.3478 0.283,-0.528c0.47,-0.98 0.705,-2.11 0.705,-3.39c0,-1.28 -0.235,-2.405 -0.705,-3.375c-0.25459,-0.53587 -0.58832,-1.0304 -0.99,-1.467c-0.28202,-0.30276 -0.59928,-0.57067 -0.945,-0.798c-0.74944,-0.49027 -1.61811,-0.76749 -2.513,-0.802c-0.10225,-0.00527 -0.20462,-0.00793 -0.307,-0.008c-1.08,0 -2.03,0.27 -2.85,0.81c-0.70092,0.46581 -1.28283,1.08951 -1.699,1.821c-0.08428,0.14495 -0.163,0.29306 -0.236,0.444c-0.2999,0.62827 -0.50351,1.29811 -0.604,1.987c-0.0688,0.45944 -0.10256,0.92344 -0.101,1.388c-0.00305,0.59791 0.05424,1.1946 0.171,1.781c0.11116,0.55625 0.29051,1.09667 0.534,1.609c0.24435,0.51892 0.56229,0.99988 0.944,1.428c0.2927,0.32505 0.62573,0.61137 0.991,0.852c0.70412,0.4597 1.51413,0.73165 2.353,0.79c0.16533,0.01338 0.33113,0.02005 0.497,0.02zM271.995,189.225c0.59715,0.00484 1.19082,-0.09117 1.756,-0.284c0.37509,-0.13058 0.73249,-0.30727 1.064,-0.526c0.67713,-0.45031 1.24222,-1.0496 1.652,-1.752c0.10228,-0.17162 0.19672,-0.3478 0.283,-0.528c0.47,-0.98 0.705,-2.11 0.705,-3.39c0,-1.28 -0.235,-2.405 -0.705,-3.375c-0.25459,-0.53587 -0.58832,-1.0304 -0.99,-1.467c-0.28202,-0.30276 -0.59928,-0.57067 -0.945,-0.798c-0.74944,-0.49027 -1.61811,-0.76749 -2.513,-0.802c-0.10225,-0.00527 -0.20462,-0.00793 -0.307,-0.008c-1.06,0 -2.005,0.27 -2.835,0.81c-0.72907,0.47839 -1.33072,1.12706 -1.753,1.89c-0.0697,0.12284 -0.1354,0.24791 -0.197,0.375c-0.2999,0.62827 -0.50351,1.29811 -0.604,1.987c-0.0688,0.45944 -0.10256,0.92344 -0.101,1.388c-0.00305,0.59791 0.05424,1.1946 0.171,1.781c0.11116,0.55625 0.29051,1.09667 0.534,1.609c0.25128,0.53385 0.58167,1.02673 0.98,1.462c0.28827,0.31173 0.61409,0.58649 0.97,0.818c0.77995,0.50462 1.68432,0.78358 2.613,0.806c0.07397,0.00268 0.14798,0.00401 0.222,0.004zM213.135,191.865h-13.98c-0.11997,0.00012 -0.236,-0.04282 -0.327,-0.121c-0.01669,-0.01389 -0.03271,-0.02858 -0.048,-0.044c-0.044,-0.04306 -0.08111,-0.09264 -0.11,-0.147c-0.0366,-0.0704 -0.05547,-0.14866 -0.055,-0.228c-0.00057,-0.06464 0.00991,-0.1289 0.031,-0.19c0.02719,-0.07685 0.07327,-0.14563 0.134,-0.2c0.0522,-0.04861 0.11287,-0.08725 0.179,-0.114c0.06247,-0.02429 0.12898,-0.0365 0.196,-0.036h13.98c0.0609,-0.00048 0.12154,0.00794 0.18,0.025c0.0794,0.02334 0.15163,0.06633 0.21,0.125c0.1,0.1 0.15,0.23 0.15,0.39c0.00043,0.13408 -0.04913,0.2635 -0.139,0.363c-0.00362,0.00404 -0.00729,0.00804 -0.011,0.012c-0.09159,0.10172 -0.22115,0.16107 -0.358,0.164c-0.01066,0.00059 -0.02133,0.00092 -0.032,0.001zM363.165,191.865h-13.98c-0.11997,0.00012 -0.236,-0.04282 -0.327,-0.121c-0.01669,-0.01389 -0.03271,-0.02858 -0.048,-0.044c-0.044,-0.04306 -0.08111,-0.09264 -0.11,-0.147c-0.0366,-0.0704 -0.05547,-0.14866 -0.055,-0.228c-0.00057,-0.06464 0.00991,-0.1289 0.031,-0.19c0.02719,-0.07685 0.07327,-0.14563 0.134,-0.2c0.0522,-0.04861 0.11287,-0.08725 0.179,-0.114c0.06247,-0.02429 0.12898,-0.0365 0.196,-0.036h13.98c0.0609,-0.00048 0.12154,0.00794 0.18,0.025c0.0794,0.02334 0.15163,0.06633 0.21,0.125c0.1,0.1 0.15,0.23 0.15,0.39c0.00043,0.13408 -0.04913,0.2635 -0.139,0.363c-0.00362,0.00404 -0.00729,0.00804 -0.011,0.012c-0.09159,0.10172 -0.22115,0.16107 -0.358,0.164c-0.01066,0.00059 -0.02133,0.00092 -0.032,0.001zM148.395,189.345v-13.14c-0.00001,-0.003 -0.00001,-0.006 0,-0.009c0.002,-0.34467 0.13233,-0.53867 0.391,-0.582c0.03935,-0.00628 0.07915,-0.00929 0.119,-0.009c0.07385,-0.00146 0.14736,0.0104 0.217,0.035c0.19533,0.07333 0.293,0.26167 0.293,0.565v13.14c0.00095,0.07558 -0.00643,0.15104 -0.022,0.225c-0.04733,0.21133 -0.17067,0.33333 -0.37,0.366c-0.03902,0.00622 -0.07849,0.00923 -0.118,0.009c-0.07385,0.00146 -0.14736,-0.0104 -0.217,-0.035c-0.19533,-0.07333 -0.293,-0.26167 -0.293,-0.565zM302.085,181.185h10.29c-0.08,-0.86 -0.34,-1.655 -0.78,-2.385c-0.44,-0.73 -1.015,-1.325 -1.725,-1.785c-0.6307,-0.4055 -1.35623,-0.63953 -2.105,-0.679c-0.11319,-0.00731 -0.22658,-0.01098 -0.34,-0.011c-1.36,0 -2.52,0.44 -3.48,1.32c-0.71462,0.66235 -1.25168,1.49337 -1.562,2.417c-0.12724,0.36637 -0.22685,0.74175 -0.298,1.123zM317.865,181.185h10.29c-0.08,-0.86 -0.34,-1.655 -0.78,-2.385c-0.44,-0.73 -1.015,-1.325 -1.725,-1.785c-0.6307,-0.4055 -1.35623,-0.63953 -2.105,-0.679c-0.11319,-0.00731 -0.22658,-0.01098 -0.34,-0.011c-1.36,0 -2.52,0.44 -3.48,1.32c-0.71462,0.66235 -1.25168,1.49337 -1.562,2.417c-0.12724,0.36637 -0.22685,0.74175 -0.298,1.123zM186.555,189.225c1.08,0 2.09,-0.165 3.03,-0.495c0.94,-0.33 1.7,-0.805 2.28,-1.425c0.51988,-0.54648 0.80337,-1.27587 0.789,-2.03c-0.00022,-0.08341 -0.00322,-0.16679 -0.009,-0.25c-0.04076,-0.55907 -0.33228,-1.06969 -0.793,-1.389c-0.11021,-0.08041 -0.22619,-0.15261 -0.347,-0.216c-0.32233,-0.16681 -0.66434,-0.29246 -1.018,-0.374c-0.314,-0.07533 -0.65467,-0.12733 -1.022,-0.156c-0.2296,-0.01714 -0.45977,-0.02548 -0.69,-0.025c-0.9,0 -1.785,0.155 -2.655,0.465c-0.44136,0.15475 -0.86506,0.35588 -1.264,0.6c-0.32801,0.20173 -0.63343,0.43809 -0.911,0.705c-0.58,0.56 -0.87,1.22 -0.87,1.98c-0.00292,0.27022 0.03209,0.53951 0.104,0.8c0.13578,0.49108 0.45229,0.91262 0.886,1.18c0.37681,0.23583 0.7916,0.40465 1.226,0.499c0.33733,0.07667 0.702,0.11967 1.094,0.129c0.05666,0.00136 0.11333,0.00203 0.17,0.002zM241.965,189.225c1.08,0 2.09,-0.165 3.03,-0.495c0.94,-0.33 1.7,-0.805 2.28,-1.425c0.51988,-0.54648 0.80337,-1.27587 0.789,-2.03c-0.00022,-0.08341 -0.00322,-0.16679 -0.009,-0.25c-0.04076,-0.55907 -0.33228,-1.06969 -0.793,-1.389c-0.11021,-0.08041 -0.22619,-0.15261 -0.347,-0.216c-0.32233,-0.16681 -0.66434,-0.29246 -1.018,-0.374c-0.314,-0.07533 -0.65467,-0.12733 -1.022,-0.156c-0.2296,-0.01714 -0.45977,-0.02548 -0.69,-0.025c-0.9,0 -1.785,0.155 -2.655,0.465c-0.44136,0.15475 -0.86506,0.35588 -1.264,0.6c-0.32801,0.20173 -0.63343,0.43809 -0.911,0.705c-0.58,0.56 -0.87,1.22 -0.87,1.98c-0.00292,0.27022 0.03209,0.53951 0.104,0.8c0.13578,0.49108 0.45229,0.91262 0.886,1.18c0.37681,0.23583 0.7916,0.40465 1.226,0.499c0.33733,0.07667 0.702,0.11967 1.094,0.129c0.05666,0.00136 0.11333,0.00203 0.17,0.002zM129.525,181.185l0.93,-3.42c-0.08802,-0.57558 -0.39777,-1.09386 -0.863,-1.444c-0.05107,-0.04035 -0.10343,-0.07904 -0.157,-0.116c-0.58,-0.4 -1.26,-0.6 -2.04,-0.6c-0.86,0 -1.635,0.265 -2.325,0.795c-0.49676,0.38609 -0.90894,0.87009 -1.211,1.422c-0.14004,0.25189 -0.26169,0.51357 -0.364,0.783c-0.12032,0.30916 -0.22151,0.62542 -0.303,0.947c-0.24933,0.99533 -0.22833,1.86467 0.063,2.608c0.366,0.93467 1.16833,1.419 2.407,1.453c0.04766,0.00132 0.09533,0.00199 0.143,0.002c0.24693,-0.001 0.49338,-0.02173 0.737,-0.062c0.20651,-0.03361 0.41113,-0.078 0.613,-0.133c0.39947,-0.11013 0.77582,-0.29136 1.111,-0.535c0.0819,-0.05873 0.16162,-0.12043 0.239,-0.185c0.38067,-0.31733 0.69567,-0.76167 0.945,-1.333c0.02608,-0.06021 0.05109,-0.12089 0.075,-0.182zM148.3,171.912c0.17152,0.13783 0.38496,0.21298 0.605,0.213c0.01,0.00013 0.02,0.00013 0.03,0c0.25677,-0.00253 0.50106,-0.1111 0.675,-0.3c0.19,-0.2 0.285,-0.44 0.285,-0.72c0,-0.28 -0.095,-0.515 -0.285,-0.705c-0.08926,-0.09046 -0.19567,-0.16219 -0.313,-0.211c-0.12451,-0.05025 -0.25773,-0.0754 -0.392,-0.074c-0.13518,-0.00039 -0.26899,0.02718 -0.393,0.081c-0.1145,0.0504 -0.21991,0.11933 -0.312,0.204c-0.21,0.19 -0.315,0.425 -0.315,0.705c-0.00113,0.13409 0.02577,0.26693 0.079,0.39c0.05578,0.12469 0.13603,0.23691 0.236,0.33c0.03183,0.03068 0.06521,0.05972 0.1,0.087z"/><path d="M278.40886,156.15185v-5.18268c-1.36658,0.05157 -2.70414,0.09669 -4.0127,0.13537c-0.46412,0.01365 -0.92824,0.02719 -1.39236,0.04061c-0.36443,0.01074 -0.71014,0.02085 -1.03718,0.0303c-0.30855,0.0087 -0.6171,0.01729 -0.92566,0.02578c-0.08465,-0.00014 -0.16714,-0.02674 -0.23593,-0.07606c-0.00522,-0.00356 -0.01038,-0.00721 -0.01547,-0.01096c-0.07735,-0.05802 -0.11603,-0.13859 -0.11603,-0.24173c-0.00031,-0.0326 0.00227,-0.06518 0.00774,-0.09734c0.01418,-0.07822 0.04706,-0.13601 0.09863,-0.1734c0.07091,-0.05157 0.15148,-0.07735 0.24173,-0.07735c0.75935,0 1.7022,-0.0116 2.82855,-0.03481c0.05952,-0.00126 0.11903,-0.00255 0.17856,-0.00387c1.20543,-0.02578 2.47208,-0.05802 3.79998,-0.09669c-0.58015,-0.45123 -1.19898,-0.91535 -1.85649,-1.39236c-0.56511,-0.40997 -1.08273,-0.7628 -1.55287,-1.05845c-0.07508,-0.04737 -0.1505,-0.09422 -0.22626,-0.14053c-0.07119,-0.0473 -0.12364,-0.11798 -0.14826,-0.19983c-0.00233,-0.00746 -0.00449,-0.01498 -0.00645,-0.02256c-0.00741,-0.02666 -0.01132,-0.05419 -0.0116,-0.08187c0,-0.0477 0.01138,-0.09454 0.03416,-0.14053c0.01024,-0.02027 0.02208,-0.03967 0.03545,-0.05802c0.02523,-0.03291 0.05422,-0.06276 0.08638,-0.08896c0.12419,-0.09841 0.26945,-0.10099 0.43576,-0.00774c0.17959,0.12961 0.36074,0.25703 0.54341,0.38226c0.06365,0.04364 0.12747,0.08705 0.19145,0.13021c0.25785,0.17405 0.50924,0.35776 0.7542,0.55114c0.09936,-0.11034 0.19693,-0.22231 0.29265,-0.33584c0.17276,-0.20412 0.36205,-0.43705 0.5679,-0.69876c0.11695,-0.1492 0.23233,-0.29963 0.34616,-0.45123c0.18007,-0.23893 0.33864,-0.45918 0.47572,-0.66073h-7.3679c-0.04394,0.0007 -0.08777,-0.00472 -0.13021,-0.01612c-0.09756,-0.02794 -0.15922,-0.09154 -0.185,-0.19081c-0.00966,-0.03988 -0.01421,-0.08081 -0.01354,-0.12183c-0.00122,-0.08581 0.03251,-0.16842 0.09347,-0.22884c0.00107,-0.00108 0.00214,-0.00215 0.00322,-0.00322c0.06446,-0.06446 0.14181,-0.09669 0.23206,-0.09669h7.98673v-1.68244h-5.97555c-0.08674,0.00026 -0.17044,-0.03193 -0.23464,-0.09025c-0.00239,-0.00213 -0.00474,-0.00427 -0.00709,-0.00645c-0.03009,-0.02648 -0.05519,-0.05813 -0.07413,-0.09347c-0.02185,-0.04288 -0.03291,-0.09046 -0.03223,-0.13859c-0.00085,-0.04467 0.00502,-0.08921 0.0174,-0.13215c0.03008,-0.09669 0.09798,-0.15771 0.2037,-0.18307c0.04165,-0.00948 0.08428,-0.01401 0.12699,-0.01354h5.97555v-1.68244h-7.07783c-0.0447,0.00064 -0.08925,-0.00544 -0.13215,-0.01805c-0.09712,-0.03008 -0.15836,-0.09776 -0.18371,-0.20305c-0.00926,-0.04168 -0.01359,-0.0843 -0.01289,-0.12699c-0.00122,-0.08581 0.03251,-0.16842 0.09347,-0.22884c0.00107,-0.00108 0.00214,-0.00215 0.00322,-0.00322c0.06446,-0.06446 0.14181,-0.09669 0.23206,-0.09669h7.07783v-1.74046c-0.00008,-0.07733 0.0276,-0.15213 0.078,-0.21079c0.00895,-0.01077 0.01842,-0.02108 0.02836,-0.03094c0.02776,-0.02836 0.05972,-0.05228 0.09476,-0.07091c0.04538,-0.02359 0.09583,-0.03576 0.14697,-0.03545c0.04141,-0.0005 0.08261,0.00603 0.12183,0.01934c0.04984,0.01761 0.09441,0.04755 0.12957,0.08702c0.03111,0.0337 0.05578,0.0728 0.07284,0.11539c0.01587,0.04022 0.02397,0.0831 0.02385,0.12634v1.74046h7.1165c0.10314,0 0.18371,0.03223 0.24173,0.09669c0.05802,0.06446 0.08702,0.14181 0.08702,0.23206c0.00045,0.04563 -0.00496,0.09112 -0.01612,0.13537c-0.03008,0.11474 -0.10421,0.18307 -0.22239,0.20499c-0.02978,0.00531 -0.05999,0.0079 -0.09025,0.00774h-7.1165v1.68244h6.07224c0.04373,-0.00064 0.08733,0.00478 0.12957,0.01612c0.09756,0.02794 0.15922,0.09154 0.185,0.19081c0.00988,0.03984 0.01463,0.08078 0.01418,0.12183c0,0.09025 -0.02901,0.1676 -0.08702,0.23206c-0.04314,0.04753 -0.10105,0.07909 -0.16438,0.0896c-0.02551,0.00476 -0.0514,0.00713 -0.07735,0.00709h-6.07224v1.68244h8.02541c0.10314,0 0.18371,0.03223 0.24173,0.09669c0.05802,0.06446 0.08702,0.14181 0.08702,0.23206c0.00049,0.04398 -0.00514,0.0878 -0.01676,0.13021c-0.02794,0.09712 -0.09154,0.15857 -0.19081,0.18436c-0.03963,0.00982 -0.08036,0.01458 -0.12119,0.01418h-8.48953c-0.1208,0.18057 -0.24544,0.35852 -0.37388,0.53374c-0.17533,0.2398 -0.36979,0.49377 -0.58337,0.76193c-0.32704,0.40997 -0.63258,0.77225 -0.91664,1.08682c-0.04545,0.05058 -0.09121,0.10086 -0.1373,0.15084c0.32231,0.24495 0.63817,0.48346 0.94758,0.71552c0.30941,0.23206 0.5866,0.45768 0.83155,0.67684c0.20024,-0.1739 0.39752,-0.3512 0.59175,-0.53181c0.20852,-0.19355 0.41418,-0.39018 0.61689,-0.58982c0.419,-0.41255 0.8251,-0.8251 1.21832,-1.23766c0.14023,-0.14692 0.27904,-0.29519 0.41642,-0.44478c0.13537,-0.14826 0.26171,-0.28943 0.37903,-0.42351c0.06754,-0.07738 0.13436,-0.15538 0.20047,-0.23399c0.03459,-0.04115 0.07603,-0.07605 0.12248,-0.10314c0.04859,-0.02776 0.10233,-0.0453 0.15793,-0.05157c0.01519,-0.00175 0.03048,-0.0026 0.04577,-0.00258c0.08982,0 0.16802,0.03309 0.23464,0.09927c0.03572,0.02496 0.06618,0.05673 0.0896,0.09347c0.03052,0.04857 0.04577,0.10443 0.04577,0.1676c0.00014,0.03759 -0.0044,0.07505 -0.01354,0.11152c-0.01352,0.05652 -0.04229,0.10824 -0.08316,0.14955c-0.17589,0.19093 -0.3549,0.37898 -0.53696,0.56404c-0.20154,0.20499 -0.41878,0.42007 -0.6517,0.64526c-0.14433,0.13934 -0.28959,0.27773 -0.43576,0.41513c-0.46693,0.43946 -0.94342,0.86865 -1.42911,1.28729c-0.15429,0.13296 -0.30965,0.26468 -0.46606,0.39515c0.89787,-0.03275 1.79561,-0.06906 2.69318,-0.10894c0.12398,-0.0055 0.24796,-0.0111 0.37194,-0.01676c0.40984,-0.01872 0.8196,-0.03914 1.22928,-0.06124c0.49936,-0.02665 0.96305,-0.05457 1.39107,-0.0838c-0.20628,-0.21917 -0.419,-0.43189 -0.63817,-0.63817c-0.13186,-0.12429 -0.26641,-0.24573 -0.40353,-0.36421c-0.07724,-0.06668 -0.15547,-0.13222 -0.23464,-0.19661c-0.02725,-0.0266 -0.04991,-0.05753 -0.06704,-0.09154c-0.01987,-0.04074 -0.03001,-0.08553 -0.02965,-0.13086c-0.00066,-0.03624 0.00614,-0.07222 0.01998,-0.10572c0.01689,-0.03825 0.04302,-0.07171 0.07606,-0.09734c0.02241,-0.02477 0.04724,-0.04722 0.07413,-0.06704c0.12119,-0.08809 0.2514,-0.07864 0.39064,0.02836c0.3033,0.25868 0.59846,0.52675 0.88505,0.80383c0.24169,0.23314 0.47853,0.47128 0.71036,0.71423c0.22706,0.2378 0.45247,0.47717 0.6762,0.7181c0.2037,0.21917 0.39428,0.4276 0.57177,0.62527c0.05802,0.06449 0.11581,0.12915 0.1734,0.19403c0.13708,0.14869 0.14224,0.29223 0.01547,0.4306c-0.01697,0.01869 -0.03504,0.03634 -0.05415,0.05286c-0.02442,0.02288 -0.05098,0.04338 -0.07929,0.06124c-0.12634,0.07822 -0.25269,0.06511 -0.37903,-0.03932c-0.01546,-0.01305 -0.0303,-0.02682 -0.04448,-0.04126c-0.13052,-0.16042 -0.26354,-0.3188 -0.39902,-0.47508c-0.04722,-0.05459 -0.09472,-0.10895 -0.14246,-0.16309l-0.58015,-0.65751c-0.74775,0.05157 -1.65343,0.10314 -2.71703,0.15471c-1.06361,0.05157 -2.16912,0.10314 -3.31652,0.15471v5.20201c0.0001,0.08651 -0.03208,0.16995 -0.09025,0.23399c-0.00211,0.0026 -0.00427,0.00518 -0.00645,0.00774c-0.05919,0.06574 -0.14298,0.104 -0.23142,0.10572c-0.00665,0.00036 -0.01332,0.00058 -0.01998,0.00064c-0.07733,0.00008 -0.15213,-0.0276 -0.21079,-0.078c-0.01077,-0.00895 -0.02108,-0.01842 -0.03094,-0.02836c-0.02836,-0.02776 -0.05228,-0.05972 -0.07091,-0.09476c-0.02359,-0.04538 -0.03576,-0.09583 -0.03545,-0.14697zM189.99398,155.51369h-15.81877c-0.07733,0.00008 -0.15213,-0.0276 -0.21079,-0.078c-0.01077,-0.00895 -0.02108,-0.01842 -0.03094,-0.02836c-0.02836,-0.02776 -0.05228,-0.05972 -0.07091,-0.09476c-0.02359,-0.04538 -0.03576,-0.09583 -0.03545,-0.14697c-0.00058,-0.04163 0.00596,-0.08305 0.01934,-0.12248c0.0177,-0.04961 0.04764,-0.09395 0.08702,-0.12892c0.03365,-0.03134 0.07275,-0.05624 0.11539,-0.07349c0.04026,-0.01565 0.08314,-0.02353 0.12634,-0.02321h7.59996v-5.33738h-6.03357c-0.07733,0.00008 -0.15213,-0.0276 -0.21079,-0.078c-0.01077,-0.00895 -0.02108,-0.01842 -0.03094,-0.02836c-0.02836,-0.02776 -0.05228,-0.05972 -0.07091,-0.09476c-0.02359,-0.04538 -0.03576,-0.09583 -0.03545,-0.14697c-0.00058,-0.04163 0.00596,-0.08305 0.01934,-0.12248c0.0177,-0.04961 0.04764,-0.09395 0.08702,-0.12892c0.03365,-0.03134 0.07275,-0.05624 0.11539,-0.07349c0.04026,-0.01565 0.08314,-0.02353 0.12634,-0.02321h6.03357v-2.92008h-3.94502c-0.07733,0.00008 -0.15213,-0.0276 -0.21079,-0.078c-0.01077,-0.00895 -0.02108,-0.01842 -0.03094,-0.02836c-0.02836,-0.02776 -0.05228,-0.05972 -0.07091,-0.09476c-0.02359,-0.04538 -0.03576,-0.09583 -0.03545,-0.14697c-0.00058,-0.04163 0.00596,-0.08305 0.01934,-0.12248c0.0177,-0.04961 0.04764,-0.09395 0.08702,-0.12892c0.03365,-0.03134 0.07275,-0.05624 0.11539,-0.07349c0.04026,-0.01565 0.08314,-0.02353 0.12634,-0.02321h8.60556c0.03926,-0.00031 0.07835,0.00512 0.11603,0.01612c0.05118,0.01505 0.09774,0.04276 0.13537,0.08058c0.06446,0.06446 0.09669,0.14826 0.09669,0.2514c0.0001,0.08651 -0.03208,0.16995 -0.09025,0.23399c-0.00211,0.0026 -0.00427,0.00518 -0.00645,0.00774c-0.05919,0.06574 -0.14298,0.104 -0.23142,0.10572c-0.00665,0.00036 -0.01332,0.00058 -0.01998,0.00064h-3.96436v2.92008h5.95621c0.03926,-0.00031 0.07835,0.00512 0.11603,0.01612c0.05118,0.01505 0.09774,0.04276 0.13537,0.08058c0.05243,0.05243 0.08337,0.11775 0.09282,0.19596c0.00244,0.01838 0.00373,0.0369 0.00387,0.05544c0.0001,0.08651 -0.03208,0.16995 -0.09025,0.23399c-0.00211,0.0026 -0.00427,0.00518 -0.00645,0.00774c-0.05919,0.06574 -0.14298,0.104 -0.23142,0.10572c-0.00665,0.00036 -0.01332,0.00058 -0.01998,0.00064h-5.95621v5.33738h7.52261c0.03926,-0.00031 0.07835,0.00512 0.11603,0.01612c0.05118,0.01505 0.09774,0.04276 0.13537,0.08058c0.06446,0.06446 0.09669,0.14826 0.09669,0.2514c0.0001,0.08651 -0.03208,0.16995 -0.09025,0.23399c-0.00211,0.0026 -0.00427,0.00518 -0.00645,0.00774c-0.05919,0.06574 -0.14298,0.104 -0.23142,0.10572c-0.00665,0.00036 -0.01332,0.00058 -0.01998,0.00064zM223.17856,143.15649h-3.13281c-0.53184,0.74533 -1.11241,1.45465 -1.73788,2.12336c-0.1501,0.16135 -0.30247,0.32058 -0.45703,0.47766c-0.44725,0.456 -0.91665,0.88969 -1.40655,1.29954c-0.35331,0.29527 -0.71961,0.57466 -1.09778,0.83735c-0.03861,0.02631 -0.08196,0.04492 -0.12763,0.05479c-0.03997,0.00816 -0.08122,0.00924 -0.12377,0.00322c-0.06308,-0.00917 -0.12182,-0.03753 -0.16824,-0.08122c-0.0238,-0.02217 -0.04519,-0.04681 -0.06382,-0.07349c-0.05157,-0.07735 -0.07091,-0.16438 -0.05802,-0.26107c0.01289,-0.09669 0.06446,-0.17082 0.15471,-0.22239c0.71794,-0.50402 1.39632,-1.06217 2.02924,-1.66955c0.10799,-0.10297 0.21479,-0.20719 0.32037,-0.31264c0.7542,-0.7542 1.43104,-1.54385 2.03053,-2.36894c0.28693,-0.39339 0.55539,-0.79994 0.80448,-1.21832c0.22752,-0.38137 0.43348,-0.7752 0.61689,-1.17964c0.01815,-0.04389 0.04539,-0.08343 0.07993,-0.11603c0.0328,-0.03008 0.07141,-0.05312 0.11345,-0.06768c0.03458,-0.01266 0.07087,-0.02005 0.10765,-0.02192c0.05415,-0.00215 0.10851,0.00838 0.16309,0.03159c0.04389,0.01815 0.08343,0.04539 0.11603,0.07993c0.03008,0.0328 0.05312,0.07141 0.06768,0.11345c0.01244,0.03462 0.01961,0.07091 0.02127,0.10765c0.00258,0.05457 -0.00774,0.10894 -0.03094,0.16309c-0.0802,0.19948 -0.17035,0.39484 -0.27009,0.58531c-0.03465,0.06651 -0.07033,0.13248 -0.10701,0.1979c-0.10591,0.18843 -0.21551,0.37475 -0.32875,0.55888c-0.05408,0.08811 -0.10888,0.17577 -0.16438,0.263h2.64935c0.2784,-0.00168 0.55655,0.01706 0.8322,0.05608c0.66137,0.09798 1.14848,0.32488 1.46134,0.68071c0.06055,0.06854 0.11492,0.1423 0.16244,0.22046c0.32789,0.54105 0.3266,1.22368 -0.00387,2.04794c-0.06257,0.15525 -0.13226,0.30754 -0.20885,0.45639c-0.59304,1.18609 -1.29567,2.26904 -2.10788,3.24884c0.36098,0.36098 0.70263,0.71552 1.02493,1.06361c0.19448,0.2099 0.38321,0.42507 0.56597,0.64526c0.10373,0.12468 0.20517,0.25127 0.30426,0.37968c0.06446,0.07735 0.09025,0.16438 0.07735,0.26107c-0.01289,0.09669 -0.05157,0.17727 -0.11603,0.24173c-0.06776,0.04566 -0.14777,0.06971 -0.22948,0.06897c-0.01053,-0.00008 -0.02108,-0.00052 -0.03159,-0.00129c-0.09669,-0.00645 -0.17727,-0.04835 -0.24173,-0.1257c-0.24495,-0.3352 -0.52214,-0.6704 -0.83155,-1.0056c-0.30941,-0.3352 -0.63172,-0.66395 -0.96692,-0.98626c-1.4364,1.64031 -3.12338,3.04293 -4.99832,4.15581c-0.91347,0.54824 -1.85984,1.03972 -2.83371,1.47165c-0.17878,0.07349 -0.31479,0.04857 -0.40804,-0.07478c-0.02247,-0.0308 -0.04129,-0.06411 -0.05608,-0.09927c-0.07391,-0.17878 -0.04899,-0.31457 0.07478,-0.4074c0.03077,-0.0227 0.06409,-0.04173 0.09927,-0.05673c1.83452,-0.79324 3.55665,-1.82444 5.12208,-3.06706c0.90765,-0.72669 1.74974,-1.53168 2.51656,-2.40568c-0.39966,-0.37388 -0.80254,-0.73486 -1.20865,-1.08295c-0.29437,-0.2524 -0.59374,-0.4989 -0.89795,-0.73937c-0.09656,-0.07655 -0.19369,-0.15241 -0.29137,-0.22755c-0.03649,-0.02964 -0.06672,-0.06623 -0.08896,-0.10765c-0.02156,-0.0416 -0.03407,-0.08729 -0.03674,-0.13408c-0.00077,-0.01051 -0.00121,-0.02104 -0.00129,-0.03159c-0.00073,-0.08171 0.02331,-0.16172 0.06897,-0.22948c0.06065,-0.06058 0.13898,-0.10031 0.22368,-0.11345c0.00599,-0.00097 0.01202,-0.00183 0.01805,-0.00258c0.09025,-0.01203 0.17211,0.00967 0.2456,0.06511c0.00525,0.00396 0.01042,0.00804 0.01547,0.01225c0.79932,0.61883 1.59864,1.30856 2.39795,2.06921c0.74275,-0.9325 1.3926,-1.93533 1.94029,-2.99421c0.0173,-0.03325 0.03449,-0.06655 0.05157,-0.09992c0.37388,-0.72197 0.44801,-1.31179 0.22239,-1.76946c-0.09558,-0.18426 -0.2476,-0.33311 -0.43382,-0.4248c-0.25226,-0.13494 -0.59455,-0.21766 -1.02687,-0.24818c-0.13496,-0.00928 -0.27018,-0.01379 -0.40546,-0.01354zM293.53143,155.95847v-10.38469c-0.19782,0.41871 -0.40807,0.83145 -0.63043,1.23766c-0.15268,0.27976 -0.30999,0.55698 -0.47186,0.83155c-0.42544,0.72197 -0.867,1.40848 -1.32468,2.05954c-0.2038,0.29028 -0.41356,0.57634 -0.62914,0.85798c-0.23164,0.30254 -0.45703,0.58058 -0.6762,0.83413c-0.06446,0.07735 -0.14826,0.12248 -0.2514,0.13537c-0.10314,0.01289 -0.19338,-0.01289 -0.27074,-0.07735c-0.06446,-0.06446 -0.09669,-0.14826 -0.09669,-0.2514c0,-0.09712 0.02278,-0.17705 0.06833,-0.2398c0.00291,-0.00393 0.00593,-0.0078 0.00902,-0.0116c0.13515,-0.14615 0.26628,-0.29597 0.39321,-0.4493c0.11388,-0.13708 0.23142,-0.28427 0.3526,-0.44156c0.12767,-0.16536 0.25296,-0.33254 0.37581,-0.50151c0.41255,-0.56726 0.82188,-1.17642 1.22799,-1.82748c0.40611,-0.65106 0.77998,-1.28278 1.12163,-1.89516c0.12088,-0.21649 0.23842,-0.43483 0.3526,-0.65493c0.1113,-0.21444 0.21121,-0.41664 0.29975,-0.60658c0.05184,-0.1105 0.1019,-0.22181 0.15019,-0.33391v-0.17405h-3.7323c-0.09025,0 -0.1676,-0.02901 -0.23206,-0.08702c-0.05947,-0.05207 -0.09453,-0.1266 -0.09669,-0.20563c-0.00013,-0.00558 -0.00013,-0.01118 0,-0.01676c-0.00122,-0.08581 0.03251,-0.16842 0.09347,-0.22884c0.00107,-0.00108 0.00214,-0.00215 0.00322,-0.00322c0.06446,-0.06446 0.14181,-0.09669 0.23206,-0.09669h3.7323v-4.08039c-0.00058,-0.04163 0.00596,-0.08305 0.01934,-0.12248c0.0177,-0.04961 0.04764,-0.09395 0.08702,-0.12892c0.03365,-0.03134 0.07275,-0.05624 0.11539,-0.07349c0.04026,-0.01565 0.08314,-0.02353 0.12634,-0.02321c0.03926,-0.00031 0.07835,0.00512 0.11603,0.01612c0.05118,0.01505 0.09774,0.04276 0.13537,0.08058c0.06446,0.06446 0.09669,0.14826 0.09669,0.2514v4.08039h2.88141c0.03968,-0.00043 0.07908,0.00679 0.11603,0.02127c0.0408,0.01658 0.07721,0.04239 0.10636,0.07542c0.05802,0.06446 0.08702,0.14181 0.08702,0.23206c0.00055,0.04135 -0.00465,0.08256 -0.01547,0.12248c-0.02621,0.09154 -0.08616,0.14955 -0.17985,0.17405c-0.03734,0.00909 -0.07568,0.01342 -0.1141,0.01289h-2.88141v1.68244c0.19338,0.24495 0.43511,0.53825 0.72519,0.8799c0.29008,0.34164 0.58982,0.68974 0.89924,1.04427c0.30941,0.35454 0.60594,0.68651 0.88957,0.99593c0.25355,0.27676 0.47099,0.50193 0.65235,0.67555c0.02094,0.01989 0.04199,0.03967 0.06317,0.0593c0.06808,0.05477 0.10978,0.13581 0.11474,0.22304c0.00077,0.00944 0.0012,0.0189 0.00129,0.02836c0.00031,0.03926 -0.00512,0.07835 -0.01612,0.11603c-0.01505,0.05118 -0.04276,0.09774 -0.08058,0.13537c-0.03449,0.03522 -0.07511,0.06384 -0.1199,0.08444c-0.04744,0.02118 -0.09888,0.03196 -0.15084,0.03159c-0.10314,0 -0.19338,-0.03868 -0.27074,-0.11603c-0.09414,-0.09927 -0.18762,-0.1992 -0.28041,-0.29975c-0.16631,-0.18049 -0.35002,-0.38354 -0.55114,-0.60916c-0.24887,-0.27889 -0.49257,-0.56236 -0.73099,-0.85024c-0.08243,-0.09966 -0.1643,-0.19979 -0.2456,-0.30039c-0.15897,-0.19612 -0.31626,-0.39359 -0.47186,-0.5924c-0.1443,-0.18466 -0.28676,-0.37074 -0.42738,-0.55823v9.26306c0.0001,0.08651 -0.03208,0.16995 -0.09025,0.23399c-0.00211,0.0026 -0.00427,0.00518 -0.00645,0.00774c-0.05919,0.06574 -0.14298,0.104 -0.23142,0.10572c-0.00665,0.00036 -0.01332,0.00058 -0.01998,0.00064c-0.07733,0.00008 -0.15213,-0.0276 -0.21079,-0.078c-0.01077,-0.00895 -0.02108,-0.01842 -0.03094,-0.02836c-0.02836,-0.02776 -0.05228,-0.05972 -0.07091,-0.09476c-0.02359,-0.04538 -0.03576,-0.09583 -0.03545,-0.14697zM303.2006,153.88927v-8.50887c-0.46412,0.838 -1.00882,1.67922 -1.63409,2.52365c-0.62527,0.84444 -1.29245,1.64699 -2.00152,2.40762c-0.70907,0.76064 -1.43749,1.43749 -2.18524,2.03053c-0.06313,0.04178 -0.13463,0.06928 -0.2095,0.08058c-0.02029,0.00312 -0.04073,0.00527 -0.06124,0.00645c-0.00794,0.00046 -0.0159,0.00068 -0.02385,0.00064c-0.04899,0 -0.09347,-0.01009 -0.13343,-0.0303c-0.03629,-0.01885 -0.06833,-0.04496 -0.09411,-0.07671c-0.06661,-0.06618 -0.09992,-0.14203 -0.09992,-0.22755c0.00018,-0.01445 0.00125,-0.02887 0.00322,-0.04319c0.01289,-0.10314 0.05802,-0.18049 0.13537,-0.23206c0.34907,-0.25926 0.68592,-0.5346 1.00946,-0.8251c0.27392,-0.24534 0.54026,-0.49901 0.79868,-0.76064c0.61238,-0.61883 1.2022,-1.27956 1.76946,-1.98219c0.56726,-0.70263 1.08295,-1.41493 1.54707,-2.13689c0.46412,-0.72197 0.85089,-1.40526 1.1603,-2.04987h-4.23509c-0.07733,0.00008 -0.15213,-0.0276 -0.21079,-0.078c-0.01077,-0.00895 -0.02108,-0.01842 -0.03094,-0.02836c-0.02836,-0.02776 -0.05228,-0.05972 -0.07091,-0.09476c-0.02359,-0.04538 -0.03576,-0.09583 -0.03545,-0.14697c-0.00058,-0.04163 0.00596,-0.08305 0.01934,-0.12248c0.0177,-0.04961 0.04764,-0.09395 0.08702,-0.12892c0.03365,-0.03134 0.07275,-0.05624 0.11539,-0.07349c0.04026,-0.01565 0.08314,-0.02353 0.12634,-0.02321h4.25443v-4.06105c-0.00058,-0.04163 0.00596,-0.08305 0.01934,-0.12248c0.0177,-0.04961 0.04764,-0.09395 0.08702,-0.12892c0.03365,-0.03134 0.07275,-0.05624 0.11539,-0.07349c0.04026,-0.01565 0.08314,-0.02353 0.12634,-0.02321c0.03926,-0.00031 0.07835,0.00512 0.11603,0.01612c0.05118,0.01505 0.09774,0.04276 0.13537,0.08058c0.06446,0.06446 0.09669,0.14826 0.09669,0.2514v4.06105h2.93942c0.03926,-0.00031 0.07835,0.00512 0.11603,0.01612c0.05118,0.01505 0.09774,0.04276 0.13537,0.08058c0.06446,0.06446 0.09669,0.14826 0.09669,0.2514c0.0001,0.08651 -0.03208,0.16995 -0.09025,0.23399c-0.00211,0.0026 -0.00427,0.00518 -0.00645,0.00774c-0.05919,0.06574 -0.14298,0.104 -0.23142,0.10572c-0.00665,0.00036 -0.01332,0.00058 -0.01998,0.00064h-2.93942v9.82388c0.0013,0.21834 -0.01443,0.43645 -0.04706,0.65235c-0.08337,0.52772 -0.27718,0.92266 -0.58144,1.1848c-0.419,0.36098 -1.2022,0.54147 -2.3496,0.54147c-0.07733,0.00008 -0.15213,-0.0276 -0.21079,-0.078c-0.01077,-0.00895 -0.02108,-0.01842 -0.03094,-0.02836c-0.02836,-0.02776 -0.05228,-0.05972 -0.07091,-0.09476c-0.02359,-0.04538 -0.03576,-0.09583 -0.03545,-0.14697c-0.00058,-0.04163 0.00596,-0.08305 0.01934,-0.12248c0.0177,-0.04961 0.04764,-0.09395 0.08702,-0.12892c0.03365,-0.03134 0.07275,-0.05624 0.11539,-0.07349c0.04026,-0.01565 0.08314,-0.02353 0.12634,-0.02321c0.55566,0 0.99442,-0.0391 1.3163,-0.11732c0.03523,-0.00839 0.07028,-0.01764 0.10507,-0.02772c0.10416,-0.02982 0.20452,-0.07156 0.2991,-0.12441c0.1706,-0.09712 0.29652,-0.22648 0.37774,-0.38806c0.04699,-0.09631 0.08331,-0.19747 0.10829,-0.30168c0.04985,-0.19983 0.07499,-0.43876 0.07542,-0.71681c0,-0.00215 0,-0.00429 0,-0.00645zM195.12766,154.1497c0.0382,-0.00945 0.07443,-0.0256 0.10701,-0.0477c1.36658,-0.838 2.67835,-1.82425 3.93535,-2.95876c1.257,-1.13452 2.40762,-2.33993 3.45189,-3.61627c0.61883,0.47701 1.20543,0.9637 1.75979,1.46005c0.2657,0.23755 0.52682,0.48019 0.7832,0.72777c0.23412,0.2259 0.46303,0.45716 0.68651,0.6936c0.03744,0.03772 0.08377,0.06543 0.13472,0.08058c0.03789,0.01106 0.0772,0.01649 0.11667,0.01612c0.04039,0 0.078,-0.00409 0.11281,-0.01225c0.05054,-0.01092 0.09793,-0.03317 0.13859,-0.06511c0.0365,-0.03638 0.06446,-0.08042 0.08187,-0.12892c0.01399,-0.03944 0.02224,-0.08069 0.0245,-0.12248c0.0005,-0.00923 0.00072,-0.01847 0.00064,-0.02772c0,-0.00989 -0.00043,-0.01956 -0.00129,-0.02901c-0.00369,-0.07334 -0.03447,-0.14272 -0.08638,-0.19467c-0.09453,-0.10073 -0.19059,-0.2 -0.28814,-0.29781c-0.16889,-0.16931 -0.35238,-0.34551 -0.5505,-0.52858c-0.20102,-0.18543 -0.40495,-0.36766 -0.61174,-0.54663c-0.18471,-0.15983 -0.37123,-0.31755 -0.55952,-0.47315c-0.43728,-0.36146 -0.8826,-0.71307 -1.33564,-1.05459c0.60594,-0.78643 1.1603,-1.5793 1.6631,-2.37861c0.07796,-0.12406 0.15467,-0.24891 0.23013,-0.37452c0.39441,-0.65307 0.75021,-1.32872 1.06555,-2.02344c0.00963,-0.01677 0.01804,-0.03422 0.02514,-0.05221c0.02836,-0.07262 0.02965,-0.14546 0.00387,-0.21852c-0.01457,-0.04204 -0.03761,-0.08065 -0.06768,-0.11345c-0.0326,-0.03454 -0.07215,-0.06177 -0.11603,-0.07993c-0.00913,-0.00451 -0.01837,-0.00882 -0.02772,-0.01289c-0.15642,-0.06919 -0.28578,-0.04577 -0.38806,0.07026c-0.02591,0.02997 -0.0486,0.0626 -0.06768,0.09734c-0.36098,0.81221 -0.7832,1.60831 -1.26666,2.38828c-0.48346,0.77998 -1.00882,1.54385 -1.57608,2.2916c-0.65751,-0.48991 -1.31823,-0.94436 -1.98219,-1.36336c-0.66395,-0.419 -1.27956,-0.76387 -1.84682,-1.0346c-0.01677,-0.00963 -0.03422,-0.01804 -0.05221,-0.02514c-0.07306,-0.02879 -0.1459,-0.03008 -0.21852,-0.00387c-0.04521,0.01582 -0.087,0.04009 -0.12312,0.07155c-0.03592,0.03211 -0.06621,0.07003 -0.0896,0.11216c-0.00175,0.00385 -0.00348,0.00772 -0.00516,0.0116c-0.08337,0.20069 -0.02363,0.35798 0.1792,0.47186c0.23207,0.1088 0.46162,0.22293 0.68845,0.34229c0.40012,0.21083 0.79293,0.43529 1.17771,0.67298c0.63817,0.39321 1.26022,0.81544 1.86615,1.26666c-0.9927,1.21187 -2.09822,2.35927 -3.31652,3.44222c-1.21832,1.08295 -2.52365,2.05632 -3.91601,2.92008c-0.15384,0.12076 -0.20477,0.26042 -0.15277,0.419c0.00984,0.02893 0.02212,0.05697 0.03674,0.0838c0.00744,0.00886 0.01517,0.01746 0.02321,0.02578c0.05575,0.06022 0.12865,0.10185 0.20885,0.11925c0.00193,0.00044 0.00387,0.00088 0.0058,0.00129c0.04813,0.00945 0.09433,0.00881 0.13859,-0.00193zM173.17478,146.38406c0.07293,0.00004 0.14457,-0.01931 0.20757,-0.05608c0.9927,-0.52858 1.98863,-1.14097 2.98777,-1.83715c0.99915,-0.69618 1.94673,-1.42782 2.84273,-2.19491c0.42685,-0.36453 0.84344,-0.74092 1.24926,-1.12872c0.36624,-0.34955 0.72034,-0.71161 1.06168,-1.08553c0.02236,-0.02404 0.04557,-0.04726 0.06962,-0.06962c0.05973,-0.05544 0.12032,-0.10034 0.18178,-0.13472c0.09388,-0.0551 0.20055,-0.08466 0.30941,-0.08573c0.05277,0.00003 0.10527,0.0074 0.156,0.02192c0.07693,0.02192 0.1517,0.06037 0.22433,0.11539c0.05888,0.04517 0.1129,0.09638 0.16115,0.15277c0.22831,0.2686 0.46567,0.52939 0.71165,0.78192c0.34313,0.35193 0.6992,0.69101 1.06748,1.01655c0.68329,0.60594 1.40203,1.18609 2.15623,1.74046c0.18618,0.13701 0.37355,0.27237 0.5621,0.40611c0.53999,0.38325 1.09093,0.75083 1.65214,1.10229c0.09984,0.06236 0.19996,0.12424 0.30039,0.18565c0.2961,0.18136 0.57951,0.34874 0.85024,0.50215c0.26436,0.15038 0.53192,0.29503 0.80254,0.43382c0.24495,0.12892 0.43189,0.07735 0.56081,-0.15471c0.00847,-0.01199 0.01622,-0.02447 0.02321,-0.03739c0.04341,-0.07951 0.04857,-0.16373 0.01547,-0.25269c-0.00601,-0.01605 -0.01289,-0.03175 -0.02063,-0.04706c-0.03562,-0.07431 -0.09701,-0.13318 -0.17276,-0.16567c-0.08509,-0.03883 -0.16975,-0.07858 -0.25398,-0.11925c-0.25785,-0.12463 -0.52729,-0.26472 -0.80834,-0.42029c-0.30747,-0.17087 -0.61095,-0.34884 -0.91019,-0.53374c-0.18248,-0.11251 -0.36385,-0.22683 -0.54405,-0.34293c-0.56377,-0.36361 -1.11748,-0.74257 -1.66052,-1.13645c-0.74775,-0.54147 -1.46005,-1.10229 -2.13689,-1.68244c-0.32327,-0.2761 -0.63862,-0.56134 -0.94565,-0.8554c-0.27766,-0.26626 -0.54599,-0.54212 -0.80448,-0.82704c-0.03235,-0.03779 -0.06588,-0.07456 -0.10056,-0.11023c-0.10142,-0.104 -0.20521,-0.18974 -0.31135,-0.2572c-0.17372,-0.11452 -0.37602,-0.17816 -0.58402,-0.18371c-0.24582,-0.00429 -0.48389,0.07649 -0.71423,0.24237c-0.10907,0.07982 -0.2099,0.17029 -0.30103,0.27009c-0.26398,0.27676 -0.53414,0.54757 -0.81028,0.81221c-0.30149,0.28937 -0.60837,0.57304 -0.92051,0.85089c-0.65106,0.58015 -1.33757,1.15063 -2.05954,1.71145c-0.72197,0.56081 -1.44716,1.0765 -2.17557,1.54707c-0.34876,0.22586 -0.70433,0.44104 -1.06619,0.64526c-0.3311,0.18712 -0.66888,0.36213 -1.01269,0.52472c-0.04332,0.02157 -0.08156,0.05211 -0.11216,0.0896c-0.02544,0.03148 -0.04627,0.06643 -0.06188,0.10378c-0.01653,0.03781 -0.02509,0.07863 -0.02514,0.1199c0,0.05457 0.01483,0.1113 0.04448,0.17018c0.0238,0.043 0.05682,0.0802 0.09669,0.10894c0.04055,0.02811 0.08675,0.04703 0.13537,0.05544c0.0272,0.00512 0.05483,0.0077 0.08251,0.00774zM240.13828,149.28675v-5.93687c-0.00058,-0.04163 0.00596,-0.08305 0.01934,-0.12248c0.0177,-0.04961 0.04764,-0.09395 0.08702,-0.12892c0.03365,-0.03134 0.07275,-0.05624 0.11539,-0.07349c0.04026,-0.01565 0.08314,-0.02353 0.12634,-0.02321c0.04693,-0.00044 0.0936,0.00718 0.13795,0.02256c0.04559,0.01621 0.08746,0.04141 0.12312,0.07413c0.06574,0.05919 0.104,0.14298 0.10572,0.23142c0.00036,0.00665 0.00058,0.01332 0.00064,0.01998v5.93687c0,1.00946 0.25698,1.67986 0.77096,2.01119c0.04443,0.02845 0.09049,0.05429 0.13795,0.07735c0.58918,0.28836 1.4897,0.21079 2.70156,-0.23271c0.03423,-0.01251 0.06839,-0.02518 0.10249,-0.03803c0.48871,-0.17821 0.97337,-0.36734 1.4536,-0.56726c0.15415,-0.06429 0.30779,-0.12983 0.4609,-0.19661c0.46643,-0.20378 0.92809,-0.41826 1.38463,-0.64332c0.15785,-0.07773 0.31514,-0.15659 0.47186,-0.23657c0.20628,-0.09025 0.36743,-0.03868 0.48346,0.15471c0.05028,0.08853 0.06037,0.17705 0.0303,0.26558c-0.00041,0.00171 -0.00085,0.00344 -0.00129,0.00516c-0.02941,0.08176 -0.08549,0.15125 -0.15922,0.19725c-0.00801,0.00539 -0.01618,0.01055 -0.0245,0.01547c-0.58746,0.29442 -1.18356,0.57129 -1.78751,0.83026c-0.03908,0.01663 -0.07818,0.03317 -0.11732,0.04964c-0.48244,0.20362 -0.96789,0.40003 -1.45618,0.58918c-0.16859,0.06545 -0.33748,0.13013 -0.50667,0.19403c-0.27388,0.10514 -0.55268,0.19699 -0.83542,0.27525c-0.80361,0.21959 -1.49206,0.26536 -2.06534,0.1373c-0.18043,-0.0398 -0.35565,-0.10037 -0.52214,-0.18049c-0.66353,-0.32144 -1.06039,-0.96756 -1.1906,-1.93835c-0.03269,-0.25501 -0.04842,-0.51193 -0.04706,-0.76902zM231.84278,153.01324c0.02679,-0.00786 0.05254,-0.0189 0.07671,-0.03288c0.42779,-0.19577 0.84211,-0.41973 1.24024,-0.6704c1.1108,-0.68448 2.04157,-1.62497 2.71445,-2.74282c0.50904,-0.86791 0.8688,-1.81511 1.06426,-2.80212c0.16523,-0.82507 0.246,-1.66482 0.24109,-2.50624c0,-0.10314 -0.03223,-0.18694 -0.09669,-0.2514c-0.03678,-0.03713 -0.08219,-0.06458 -0.13215,-0.07993c-0.03567,-0.01074 -0.07478,-0.01633 -0.11732,-0.01676c-0.00064,0 -0.00129,0 -0.00193,0c-0.0432,-0.00032 -0.08607,0.00755 -0.12634,0.02321c-0.04262,0.01724 -0.08174,0.04214 -0.11539,0.07349c-0.03939,0.03498 -0.06931,0.07931 -0.08702,0.12892c-0.01337,0.03942 -0.01992,0.08085 -0.01934,0.12248c0,0.85175 -0.07542,1.64677 -0.22626,2.38506c-0.17567,0.90148 -0.49772,1.76812 -0.95338,2.56555c-0.78643,1.35369 -2.01119,2.39795 -3.67428,3.13281c-0.00433,0.00186 -0.00862,0.00379 -0.01289,0.0058c-0.08046,0.03616 -0.14232,0.10409 -0.17082,0.18758c-0.00088,0.00192 -0.00173,0.00385 -0.00258,0.0058c-0.01847,0.05457 -0.02407,0.10916 -0.01676,0.16373c0.00503,0.0349 0.01479,0.06895 0.02901,0.1012c0.03868,0.09025 0.10314,0.15471 0.19338,0.19338c0.00594,0.00254 0.01196,0.0049 0.01805,0.00709c0.05844,0.02105 0.1171,0.02321 0.17598,0.00645zM271.0042,155.58524c0.03218,-0.00917 0.06382,-0.02015 0.09476,-0.03288c0.12716,-0.04996 0.25394,-0.10088 0.38032,-0.15277c0.85468,-0.3514 1.69251,-0.74247 2.51075,-1.17191c0.4942,-0.25871 0.95596,-0.51655 1.38527,-0.77354c0.39436,-0.23478 0.7805,-0.4831 1.15773,-0.74453c0.00587,-0.00376 0.01167,-0.00763 0.0174,-0.0116c0.14181,-0.09884 0.18114,-0.22433 0.11796,-0.37645c-0.01102,-0.02626 -0.02395,-0.05169 -0.03868,-0.07606c-0.0108,-0.01381 -0.02221,-0.02714 -0.03416,-0.03997c-0.11259,-0.12032 -0.237,-0.14332 -0.37323,-0.06897c-0.02671,0.01485 -0.05215,0.03188 -0.07606,0.05092c-0.0884,0.06235 -0.17758,0.12359 -0.26751,0.18371c-0.38119,0.25484 -0.82059,0.52236 -1.31823,0.80254c-0.61883,0.34809 -1.26022,0.6704 -1.92417,0.96692c-0.318,0.1425 -0.63978,0.27641 -0.96499,0.40159c-0.29693,0.11429 -0.59749,0.21899 -0.90117,0.31393c-0.10314,0.03868 -0.18049,0.10636 -0.23206,0.20305c-0.00459,0.00844 -0.0089,0.01704 -0.01289,0.02578c-0.03954,0.08853 -0.04168,0.17985 -0.00645,0.27396c0.01623,0.03998 0.03723,0.07786 0.06253,0.11281c0.09583,0.1285 0.23679,0.16631 0.42287,0.11345zM284.54361,154.71179c0.63338,0.30199 1.27686,0.58234 1.92933,0.84058c0.05478,0.0208 0.11287,0.0315 0.17147,0.03159c0.00816,0 0.01654,-0.00022 0.02514,-0.00064c0.04151,-0.00226 0.08263,-0.0094 0.12248,-0.02127c0.01333,-0.00384 0.02645,-0.00837 0.03932,-0.01354c0.08576,-0.03342 0.15264,-0.10265 0.18307,-0.18952c0.05157,-0.10314 0.05479,-0.20305 0.00967,-0.29975c-0.02028,-0.04487 -0.05022,-0.0847 -0.08767,-0.11667c-0.03917,-0.03239 -0.08527,-0.05532 -0.13472,-0.06704c-0.26895,-0.088 -0.53548,-0.18322 -0.79932,-0.28556c-0.36649,-0.14228 -0.72871,-0.29532 -1.08617,-0.45896c-0.66395,-0.30297 -1.30212,-0.62527 -1.9145,-0.96692c-0.34465,-0.19209 -0.66373,-0.37925 -0.95725,-0.56146c-0.21587,-0.13347 -0.42864,-0.27188 -0.63817,-0.41513c-0.18049,-0.12892 -0.34164,-0.10958 -0.48346,0.05802c-0.019,0.02361 -0.03442,0.04989 -0.04577,0.078c-0.01547,0.03825 -0.02321,0.07971 -0.02321,0.12441c0.00008,0.00989 0.0005,0.01979 0.00129,0.02965c0.0026,0.04786 0.01796,0.09415 0.04448,0.13408c0.02167,0.03126 0.04927,0.05798 0.08122,0.07864c0.3064,0.21234 0.61851,0.41633 0.93598,0.61174c0.56117,0.34444 1.13599,0.66614 1.72305,0.96434c0.29916,0.15266 0.60044,0.30115 0.90375,0.44543zM184.52767,154.19289c0.02513,0.03266 0.05564,0.06077 0.09025,0.08316c0.0628,0.03665 0.1342,0.056 0.20692,0.05608c0.0279,0.00001 0.05573,-0.00258 0.08316,-0.00774c0.00799,-0.00147 0.01595,-0.0032 0.02385,-0.00516c0.08885,-0.0211 0.16456,-0.07899 0.20821,-0.15922c0.13537,-0.19338 0.28707,-0.42673 0.4551,-0.70005c0.05844,-0.09502 0.11624,-0.19042 0.1734,-0.28621c0.23851,-0.39966 0.47379,-0.81221 0.70585,-1.23766c0.23206,-0.42544 0.419,-0.77998 0.56081,-1.06361c0.01056,-0.02103 0.01961,-0.04279 0.02707,-0.06511c0.02665,-0.08036 0.02729,-0.15857 0.00193,-0.23464c-0.01787,-0.05598 -0.05143,-0.10564 -0.09669,-0.1431c-0.03188,-0.02575 -0.06783,-0.046 -0.10636,-0.05995c-0.06618,-0.03781 -0.13408,-0.05135 -0.2037,-0.04061c-0.0263,0.00414 -0.05203,0.01128 -0.07671,0.02127c-0.00324,0.00125 -0.00646,0.00254 -0.00967,0.00387c-0.08719,0.0348 -0.15683,0.10305 -0.19338,0.18952c-0.04193,0.10145 -0.08642,0.20183 -0.13343,0.30103c-0.05028,0.10787 -0.10701,0.22282 -0.17018,0.34487c-0.07084,0.13707 -0.14368,0.2731 -0.21852,0.40804c-0.23206,0.419 -0.46734,0.83155 -0.70585,1.23766c-0.15299,0.26 -0.29394,0.48969 -0.42287,0.68909c-0.06669,0.10351 -0.13524,0.2058 -0.20563,0.30684c-0.03781,0.0563 -0.05673,0.11432 -0.05673,0.17405c0.00022,0.02281 0.00303,0.04551 0.00838,0.06768c0.00959,0.04338 0.02826,0.08425 0.05479,0.1199zM179.11616,154.28571c0.02568,0.00513 0.0518,0.00772 0.078,0.00774c0.06919,0 0.13666,-0.01869 0.20241,-0.05608c0.00917,-0.00558 0.01819,-0.01138 0.02707,-0.0174c0.1706,-0.11388 0.21315,-0.26278 0.12763,-0.44672c-0.14181,-0.27074 -0.3352,-0.60594 -0.58015,-1.0056c-0.24495,-0.39966 -0.49635,-0.79932 -0.7542,-1.19898c-0.25785,-0.39966 -0.48346,-0.72841 -0.67684,-0.98626c-0.02794,-0.04857 -0.06339,-0.08595 -0.10636,-0.11216c-0.03838,-0.02299 -0.08125,-0.0375 -0.1257,-0.04254c-0.05844,-0.00731 -0.11474,-0.00236 -0.16889,0.01483c-0.0434,0.01443 -0.08428,0.03553 -0.12119,0.06253c-0.04342,0.02782 -0.07806,0.06737 -0.09992,0.1141c-0.01512,0.03423 -0.02386,0.07092 -0.02578,0.10829c-0.00077,0.01051 -0.00121,0.02104 -0.00129,0.03159c-0.00073,0.08171 0.02331,0.16172 0.06897,0.22948c0.05765,0.07352 0.11395,0.14809 0.16889,0.22368c0.07564,0.10314 0.15513,0.21595 0.23851,0.33842c0.08836,0.13053 0.17497,0.26227 0.25978,0.39515c0.2514,0.39321 0.49313,0.78643 0.72519,1.17964c0.23206,0.39321 0.419,0.72519 0.56081,0.99593c0.02234,0.05199 0.05437,0.0924 0.09605,0.12119c0.03239,0.02148 0.06878,0.03618 0.10701,0.04319zM228.41926,143.91069c-0.07735,0.03868 -0.16115,0.04512 -0.2514,0.01934c-0.09025,-0.02578 -0.16115,-0.07735 -0.21272,-0.15471c-0.08638,-0.15986 -0.21379,-0.36098 -0.38226,-0.60336c-0.00793,-0.01162 -0.01588,-0.02322 -0.02385,-0.03481c-0.18049,-0.25785 -0.36743,-0.51247 -0.56081,-0.76387c-0.05662,-0.07372 -0.11465,-0.14637 -0.17405,-0.21788c-0.12205,-0.14655 -0.23164,-0.26407 -0.32875,-0.3526c-0.14181,-0.1676 -0.13537,-0.32875 0.01934,-0.48346c0.05169,-0.05199 0.12081,-0.083 0.19403,-0.08702c0.00989,-0.00043 0.01976,-0.00064 0.02965,-0.00064c0.00924,-0.00008 0.01849,0.00014 0.02772,0.00064c0.0924,0.00558 0.16395,0.03459 0.21466,0.08702c0.00611,0.00615 0.01193,0.01261 0.0174,0.01934c0.04873,0.04933 0.09602,0.10006 0.14181,0.15213c0.09583,0.10743 0.20283,0.23744 0.32102,0.38999c0.01987,0.02549 0.03963,0.05105 0.0593,0.07671c0.20628,0.27074 0.40611,0.5447 0.59949,0.82188c0.04564,0.06575 0.09098,0.13172 0.13601,0.1979c0.09841,0.1431 0.18178,0.26838 0.25011,0.37581c0.01979,0.03101 0.03935,0.06217 0.05866,0.09347c0.05157,0.07735 0.06446,0.16115 0.03868,0.2514c-0.02211,0.07768 -0.07097,0.14503 -0.13795,0.19016c-0.01168,0.00807 -0.02372,0.0156 -0.0361,0.02256zM230.01402,142.64338c0.0382,-0.00945 0.07443,-0.0256 0.10701,-0.0477c0.07735,-0.05157 0.12892,-0.12248 0.15471,-0.21272c0.00119,-0.00471 0.00226,-0.00942 0.00322,-0.01418c0.0202,-0.08509 -0.00022,-0.16416 -0.06124,-0.23722c-0.00785,-0.01253 -0.01579,-0.02499 -0.02385,-0.03739c-0.06833,-0.10701 -0.15729,-0.23099 -0.26687,-0.37194c-0.05991,-0.07716 -0.12094,-0.15344 -0.18307,-0.22884c-0.21272,-0.25785 -0.43189,-0.51569 -0.65751,-0.77354c-0.15513,-0.17705 -0.29352,-0.32381 -0.41513,-0.44027c-0.05018,-0.04837 -0.10199,-0.09503 -0.15535,-0.13988c-0.02542,-0.02582 -0.05535,-0.0468 -0.08831,-0.06188c-0.03868,-0.01719 -0.08122,-0.02578 -0.12763,-0.02578c-0.0086,-0.00006 -0.0172,0.00014 -0.02578,0.00064c-0.00387,0.00017 -0.00774,0.00037 -0.0116,0.00064c-0.08695,0.00634 -0.16867,0.04389 -0.23013,0.10572c-0.11818,0.13966 -0.13343,0.27482 -0.04577,0.40546c0.01912,0.02805 0.04092,0.05417 0.06511,0.078c0.02647,0.02179 0.05247,0.04414 0.078,0.06704c0.12721,0.11345 0.27847,0.26838 0.45381,0.46477c0.21272,0.23851 0.419,0.48024 0.61883,0.72519c0.01876,0.02315 0.03745,0.04636 0.05608,0.06962c0.17233,0.21359 0.30512,0.39021 0.39837,0.52987c0.05157,0.07735 0.12248,0.1257 0.21272,0.14504c0.00193,0.00044 0.00387,0.00088 0.0058,0.00129c0.04813,0.00945 0.09433,0.00881 0.13859,-0.00193z"/></g></g></svg>