<svg version="1.1" xmlns="http://www.w3.org/2000/svg" xmlns:xlink="http://www.w3.org/1999/xlink" width="42.03778" height="76.23544" viewBox="-0.73409,-0.7155,42.03778,76.23544"><g transform="translate(-220.6438,-142.855)"><g data-paper-data="{&quot;isPaintingLayer&quot;:true}" fill="#000000" fill-rule="evenodd" stroke="#000000" stroke-width="5" stroke-linecap="round" stroke-linejoin="miter" stroke-miterlimit="10" stroke-dasharray="" stroke-dashoffset="0" style="mix-blend-mode: normal"><path d="M230.31068,214.8675c-0.27913,-0.11927 -0.55397,-0.24835 -0.824,-0.387c-2.03106,-1.05576 -3.86086,-2.4601 -5.406,-4.149c-0.16769,-0.18094 -0.33238,-0.36463 -0.494,-0.551c-0.86667,-0.86667 -0.83333,-1.73333 0.1,-2.6c0.11187,-0.10415 0.23535,-0.19508 0.368,-0.271c0.66733,-0.37533 1.37867,-0.155 2.134,0.661c0.03318,0.03621 0.06585,0.07288 0.098,0.11c1.4,1.53333 3,2.76667 4.8,3.7c1.10341,0.56311 2.2864,0.95429 3.508,1.16c0.95517,0.16404 1.92285,0.24435 2.892,0.24c1.45742,0.01168 2.91062,-0.1583 4.326,-0.506c2.05981,-0.50065 3.95987,-1.51328 5.524,-2.944c2.5,-2.3 4.4,-5.36667 5.7,-9.2c0.83905,-2.50269 1.4715,-5.06995 1.891,-7.676c0.27455,-1.68198 0.47773,-3.37483 0.609,-5.074c0.26886,-3.41573 0.40363,-6.8407 0.404,-10.267c-0.00023,-1.24453 -0.01823,-2.48899 -0.054,-3.733c-0.68872,1.7458 -1.64149,3.37547 -2.825,4.832c-1.00922,1.22704 -2.19756,2.29503 -3.525,3.168c-2.1785,1.41854 -4.65454,2.31609 -7.236,2.623c-0.93321,0.11956 -1.87317,0.17868 -2.814,0.177c-3.2,0 -6.13333,-0.76667 -8.8,-2.3c-2.24205,-1.30168 -4.14717,-3.11157 -5.562,-5.284c-0.31641,-0.47601 -0.61268,-0.9651 -0.888,-1.466c-0.94752,-1.74946 -1.61591,-3.63621 -1.981,-5.592c-0.30267,-1.55133 -0.45867,-3.21333 -0.468,-4.986c-0.00049,-0.05733 -0.00082,-0.11467 -0.001,-0.172c-0.01024,-1.89951 0.18083,-3.79476 0.57,-5.654c0.37205,-1.76805 0.9703,-3.48082 1.78,-5.096c1.56667,-3.1 3.71667,-5.53333 6.45,-7.3c2.26246,-1.44981 4.8437,-2.32738 7.521,-2.557c0.6578,-0.06268 1.31822,-0.09371 1.979,-0.093c1.92219,-0.01712 3.83516,0.26768 5.669,0.844c1.85,0.59544 3.57301,1.53003 5.081,2.756c1.36898,1.13097 2.54235,2.47969 3.473,3.992c0.80733,1.27867 1.526,2.734 2.156,4.366c0.40777,1.06323 0.76516,2.1451 1.071,3.242c1.44333,5.132 2.069,11.89967 1.877,20.303c-0.00781,0.33236 -0.01681,0.6647 -0.027,0.997c-0.07512,3.20792 -0.29467,6.41083 -0.658,9.599c-0.902,7.66667 -2.666,13.58367 -5.292,17.751c-1.38275,2.26752 -3.22992,4.21659 -5.42,5.719c-2.91733,1.954 -6.394,2.931 -10.43,2.931c-1.21177,0.00586 -2.42203,-0.08611 -3.619,-0.275c-1.33267,-0.21733 -2.55167,-0.56333 -3.657,-1.038zM238.50168,180.7525c-3.62822,-0.1292 -7.03153,-1.7907 -9.365,-4.572c-1.59726,-1.87017 -2.7352,-4.08785 -3.323,-6.476c-0.43048,-1.74153 -0.64112,-3.53011 -0.627,-5.324c0,-2.86667 0.55,-5.6 1.65,-8.2c1.1,-2.6 2.76667,-4.73333 5,-6.4c1.28337,-0.95275 2.74229,-1.64261 4.293,-2.03c1.29407,-0.32198 2.62351,-0.47989 3.957,-0.47c8.2,0 13.1,4.96667 14.7,14.9c0.18333,1.03733 0.275,2.048 0.275,3.032c0.01257,2.18706 -0.47484,4.34808 -1.425,6.318c-1.36667,2.83333 -3.31667,5.08333 -5.85,6.75c-2.53333,1.66667 -5.3,2.5 -8.3,2.5c-0.32853,0.00016 -0.65701,-0.00918 -0.985,-0.028z"/></g></g></svg>