<svg version="1.1" xmlns="http://www.w3.org/2000/svg" xmlns:xlink="http://www.w3.org/1999/xlink" width="175.47084" height="57.90543" viewBox="0,0,175.47084,57.90543"><g transform="translate(-152.48919,-137.12457)"><g data-paper-data="{&quot;isPaintingLayer&quot;:true}" fill="#000000" fill-rule="evenodd" stroke="#000000" stroke-width="1.5" stroke-linecap="round" stroke-linejoin="miter" stroke-miterlimit="10" stroke-dasharray="" stroke-dashoffset="0" style="mix-blend-mode: normal"><path d="M165.96,172.605c-0.30605,-0.15729 -0.63105,-0.27459 -0.967,-0.349c-0.36226,-0.07928 -0.73218,-0.11819 -1.103,-0.116c-1.08,0 -2.05,0.325 -2.91,0.975c-0.46323,0.35208 -0.86848,0.77453 -1.201,1.252c-0.31628,0.45534 -0.57775,0.94641 -0.779,1.463c-0.0577,0.14977 -0.11205,0.3008 -0.163,0.453c-0.27133,0.81267 -0.40333,1.55467 -0.396,2.226c0.00178,0.23836 0.02318,0.47616 0.064,0.711c0.03378,0.19218 0.08022,0.38193 0.139,0.568c0.19585,0.65626 0.5933,1.23424 1.136,1.652c0.39259,0.29888 0.8416,0.51522 1.32,0.636c0.39228,0.09864 0.79552,0.14702 1.2,0.144c0.03333,-0.00011 0.06667,-0.00045 0.1,-0.001c1.51,-0.02 2.64666,-0.49966 3.41,-1.439c0.15144,0.49761 0.51162,0.90487 0.987,1.116c0.24334,0.11667 0.52733,0.20167 0.852,0.255c0.30461,0.04802 0.61263,0.0711 0.921,0.069c0.01033,0.00001 0.02067,0.00001 0.031,0c0.64133,-0.002 1.23234,-0.06866 1.773,-0.2c0.99174,-0.22218 1.89109,-0.74413 2.576,-1.495c0.60536,-0.67005 1.04333,-1.47402 1.278,-2.346c0.17303,-0.64865 0.25779,-1.31769 0.252,-1.989c0,-1.38 -0.27,-2.675 -0.81,-3.885c-0.54,-1.21 -1.285,-2.28 -2.235,-3.21c-0.95,-0.93 -2.04,-1.655 -3.27,-2.175c-1.23,-0.52 -2.535,-0.78 -3.915,-0.78c-1.64,0 -3.155,0.285 -4.545,0.855c-1.39,0.57 -2.605,1.365 -3.645,2.385c-1.04,1.02 -1.845,2.22 -2.415,3.6c-0.16959,0.41112 -0.31386,0.83225 -0.432,1.261c-0.28653,1.05563 -0.42883,2.14519 -0.423,3.239c0,2.16 0.495,4.015 1.485,5.565c0.99,1.55 2.34,2.745 4.05,3.585c0.78582,0.38451 1.61187,0.68066 2.463,0.883c1.09527,0.25683 2.21704,0.38337 3.342,0.377c0.09367,0 0.18734,-0.001 0.281,-0.003c1.32861,-0.02032 2.64393,-0.26789 3.889,-0.732c1.3,-0.49 2.44,-1.195 3.42,-2.115c0.03436,-0.03383 0.06644,-0.06991 0.096,-0.108c0.15067,-0.198 0.16166,-0.38533 0.033,-0.562c-0.02931,-0.03983 -0.06247,-0.07668 -0.099,-0.11c-0.00687,-0.00746 -0.01387,-0.01479 -0.021,-0.022c-0.19933,-0.20066 -0.419,-0.21134 -0.659,-0.032c-0.04599,0.03486 -0.08943,0.07296 -0.13,0.114c-0.88,0.8 -1.9,1.425 -3.06,1.875c-0.29072,0.11263 -0.58674,0.21108 -0.887,0.295c-0.93245,0.25707 -1.89577,0.38493 -2.863,0.38c-0.66937,0.00183 -1.33803,-0.04361 -2.001,-0.136c-1.17012,-0.15801 -2.30746,-0.50201 -3.369,-1.019c-1.56,-0.77 -2.775,-1.86 -3.645,-3.27c-0.45255,-0.73624 -0.78947,-1.53757 -0.999,-2.376c-0.20908,-0.84695 -0.31187,-1.71664 -0.306,-2.589c-0.00017,-0.37962 0.01753,-0.75904 0.053,-1.137c0.09235,-1.05563 0.35298,-2.0897 0.772,-3.063c0.55,-1.26 1.305,-2.345 2.265,-3.255c0.96,-0.91 2.07,-1.61 3.33,-2.1c1.26,-0.49 2.6,-0.735 4.02,-0.735c1.2,0 2.35,0.23 3.45,0.69c1.1,0.46 2.08,1.1 2.94,1.92c0.86,0.82 1.54,1.775 2.04,2.865c0.5,1.09 0.75,2.265 0.75,3.525c0.00003,0.07567 -0.00097,0.15135 -0.003,0.227c-0.014,0.52466 -0.07833,1.009 -0.193,1.453c-0.17969,0.74325 -0.55182,1.42612 -1.079,1.98c-0.09754,0.10102 -0.20035,0.19683 -0.308,0.287c-0.504,0.422 -1.109,0.71466 -1.815,0.878c-0.47988,0.10694 -0.97037,0.15894 -1.462,0.155c-0.56267,0 -0.98666,-0.06166 -1.272,-0.185c-0.10767,-0.04357 -0.20558,-0.10816 -0.288,-0.19c-0.03057,-0.03173 -0.05772,-0.06659 -0.081,-0.104c-0.13533,-0.21934 -0.16033,-0.547 -0.075,-0.983c0.01868,-0.09342 0.04069,-0.18615 0.066,-0.278l1.68,-6.33c0.06,-0.2 0.06,-0.36 0,-0.48c-0.04005,-0.08402 -0.11629,-0.14515 -0.207,-0.166c-0.04026,-0.00977 -0.08157,-0.01448 -0.123,-0.014c-0.26,0 -0.447,0.08866 -0.561,0.266c-0.04663,0.07512 -0.08011,0.15763 -0.099,0.244l-0.27,0.96c-0.32,-0.56 -0.78,-0.995 -1.38,-1.305zM286.255,187.237c0.02461,-0.06965 0.03646,-0.14315 0.035,-0.217c0.00023,-0.03951 -0.00278,-0.07898 -0.009,-0.118c-0.03267,-0.19933 -0.15466,-0.32266 -0.366,-0.37c-0.07396,-0.01558 -0.14942,-0.02296 -0.225,-0.022h-8.91c0.03477,-0.28966 0.09194,-0.57618 0.171,-0.857c0.15936,-0.55879 0.39454,-1.09309 0.699,-1.588c0.16807,-0.27608 0.3462,-0.54593 0.534,-0.809c0.37996,-0.53063 0.79276,-1.03695 1.236,-1.516c0.7,-0.76 1.42,-1.52 2.16,-2.28c0.78,-0.8 1.535,-1.6 2.265,-2.4c0.22395,-0.24507 0.44006,-0.4972 0.648,-0.756c0.43303,-0.53656 0.82323,-1.10631 1.167,-1.704c0.04467,-0.07808 0.08767,-0.1571 0.129,-0.237c0.3871,-0.73257 0.59963,-1.54471 0.621,-2.373c0.00338,-0.1013 0.00504,-0.20264 0.005,-0.304c0,-0.58733 -0.05967,-1.12933 -0.179,-1.626c-0.18732,-0.83937 -0.60495,-1.60988 -1.206,-2.225c-0.6512,-0.65049 -1.47438,-1.1018 -2.373,-1.301c-0.54989,-0.12661 -1.11273,-0.18837 -1.677,-0.184c-0.0877,0.00017 -0.17539,0.00217 -0.263,0.006c-1.23054,0.02328 -2.40455,0.52089 -3.277,1.389c-0.5303,0.52397 -0.94043,1.1569 -1.202,1.855c-0.21343,0.57529 -0.34407,1.17798 -0.388,1.79c-0.02,0.42 0.15,0.63 0.51,0.63c0.02002,0.00018 0.04003,-0.00048 0.06,-0.002c0.21666,-0.01866 0.36133,-0.14034 0.434,-0.365c0.02351,-0.07583 0.03893,-0.15393 0.046,-0.233c0.00477,-0.06441 0.01045,-0.12875 0.017,-0.193c0.04667,-0.44466 0.13334,-0.85134 0.26,-1.22c0.20055,-0.61225 0.56056,-1.16002 1.043,-1.587c0.78,-0.68 1.7,-1.02 2.76,-1.02c1.4,0 2.495,0.38 3.285,1.14c0.21943,0.21113 0.40795,0.45218 0.56,0.716c0.37867,0.65534 0.568,1.48433 0.568,2.487c-0.00005,0.07235 -0.00105,0.14469 -0.003,0.217c-0.00834,0.32982 -0.0543,0.65761 -0.137,0.977c-0.12151,0.45839 -0.30771,0.89714 -0.553,1.303c-0.19929,0.33406 -0.41489,0.65812 -0.646,0.971c-0.32186,0.4347 -0.66703,0.85164 -1.034,1.249c-0.17161,0.187 -0.34395,0.37333 -0.517,0.559c-0.54149,0.57953 -1.08919,1.15323 -1.643,1.721c-0.84,0.84 -1.655,1.7 -2.445,2.58c-0.21839,0.24332 -0.42949,0.4931 -0.633,0.749c-0.4941,0.61669 -0.93471,1.27441 -1.317,1.966c-0.51,0.93 -0.765,1.925 -0.765,2.985c-0.00023,0.03951 0.00278,0.07898 0.009,0.118c0.03334,0.19933 0.15566,0.32267 0.367,0.37c0.07364,0.0155 0.14875,0.02288 0.224,0.022h9.39c0.30334,0 0.49167,-0.09767 0.565,-0.293zM270.846,188.231c-0.07266,0.60533 -0.19167,1.157 -0.357,1.655c-0.19189,0.60245 -0.48953,1.16592 -0.879,1.664c-0.55674,0.70409 -1.32472,1.21094 -2.191,1.446c-0.51779,0.14059 -1.05248,0.20924 -1.589,0.204c-0.23402,0.00042 -0.46793,-0.00993 -0.701,-0.031c-1.49615,-0.09795 -2.88376,-0.81513 -3.829,-1.979c-0.24,-0.3 -0.5,-0.36 -0.78,-0.18c-0.258,0.18933 -0.316,0.40834 -0.174,0.657c0.02477,0.04312 0.05286,0.08424 0.084,0.123c0.74757,0.93944 1.7431,1.65093 2.874,2.054c0.81273,0.27824 1.66702,0.41555 2.526,0.406c0.08702,-0.00012 0.17404,-0.00179 0.261,-0.005c0.97852,-0.0254 1.93733,-0.28061 2.799,-0.745c0.53058,-0.29095 1.00203,-0.67863 1.39,-1.143c0.32574,-0.38987 0.60433,-0.81683 0.83,-1.272c0.1671,-0.33459 0.30527,-0.68286 0.413,-1.041c0.28467,-0.93266 0.427,-2.04067 0.427,-3.324v-12.93c0,-0.30334 -0.09767,-0.49167 -0.293,-0.565c-0.06964,-0.02461 -0.14315,-0.03646 -0.217,-0.035c-0.03951,-0.00023 -0.07898,0.00278 -0.118,0.009c-0.19867,0.03333 -0.322,0.15533 -0.37,0.366c-0.01558,0.07396 -0.02295,0.14942 -0.022,0.225v2.13c-0.5,-0.94 -1.2,-1.69 -2.1,-2.25c-0.4226,-0.26284 -0.87962,-0.46577 -1.358,-0.603c-0.57326,-0.16148 -1.16645,-0.24127 -1.762,-0.237c-0.18421,-0.00018 -0.36834,0.00682 -0.552,0.021c-0.937,0.06349 -1.84431,0.35494 -2.643,0.849c-0.93,0.58 -1.665,1.375 -2.205,2.385c-0.25331,0.47552 -0.44742,0.98028 -0.578,1.503c-0.15467,0.61266 -0.232,1.26667 -0.232,1.962c-0.00032,0.31703 0.01671,0.63383 0.051,0.949c0.08967,0.88427 0.34728,1.7433 0.759,2.531c0.00432,0.00801 0.00865,0.01601 0.013,0.024c0.50599,0.9731 1.26275,1.79337 2.192,2.376c0.93,0.58 1.995,0.87 3.195,0.87c1.18,0 2.22,-0.28 3.12,-0.84c0.9,-0.56 1.6,-1.3 2.1,-2.22v3.48c0.00194,0.50489 -0.02611,1.00944 -0.084,1.511zM224.518,187.51c0.14467,-0.038 0.23734,-0.128 0.278,-0.27c0.01678,-0.06191 0.02486,-0.12586 0.024,-0.19v-6.69l7.59,6.93c0.04624,0.04235 0.09536,0.08144 0.147,0.117c0.16761,0.11854 0.36772,0.18245 0.573,0.183c0.05474,0.00036 0.10938,-0.005 0.163,-0.016c0.12964,-0.0238 0.24404,-0.09923 0.317,-0.209c0.01459,-0.02137 0.02698,-0.04415 0.037,-0.068c0.04066,-0.1 0.02234,-0.198 -0.055,-0.294c-0.02188,-0.02633 -0.04597,-0.05076 -0.072,-0.073l-7.95,-7.23l7.17,-5.64c0.04808,-0.03898 0.09445,-0.08002 0.139,-0.123c0.21466,-0.20666 0.28834,-0.38567 0.221,-0.537c-0.05372,-0.12731 -0.16599,-0.22055 -0.301,-0.25c-0.05863,-0.01397 -0.11874,-0.02069 -0.179,-0.02c-0.01367,0.00004 -0.02734,0.00037 -0.041,0.001c-0.13467,0.006 -0.269,0.04 -0.403,0.102c-0.0976,0.04584 -0.19011,0.10181 -0.276,0.167l-7.08,5.64v-12.84c0.0009,-0.05994 -0.00581,-0.11975 -0.02,-0.178c-0.038,-0.14467 -0.128,-0.23734 -0.27,-0.278c-0.06191,-0.01678 -0.12586,-0.02486 -0.19,-0.024h-0.09c-0.05999,-0.00058 -0.1198,0.00648 -0.178,0.021c-0.14467,0.03734 -0.23734,0.127 -0.278,0.269c-0.01678,0.06191 -0.02486,0.12586 -0.024,0.19v20.85c-0.00058,0.05999 0.00647,0.1198 0.021,0.178c0.03734,0.14467 0.127,0.23734 0.269,0.278c0.06191,0.01678 0.12586,0.02486 0.19,0.024h0.09c0.05994,0.0009 0.11975,-0.00582 0.178,-0.02zM181.4,190.967c-0.19666,0.50867 -0.41166,0.92334 -0.645,1.244c-0.12199,0.1716 -0.26474,0.32745 -0.425,0.464c-0.26866,0.224 -0.595,0.37633 -0.979,0.457c-0.23069,0.0468 -0.46561,0.06959 -0.701,0.068c-0.42,0 -0.83,-0.03 -1.23,-0.09c-0.00999,-0.00141 -0.01999,-0.00275 -0.03,-0.004c-0.32734,-0.03933 -0.527,0.026 -0.599,0.196c-0.02149,0.05336 -0.03204,0.11049 -0.031,0.168c0,0.36 0.17,0.57 0.51,0.63c0.46,0.12 0.92,0.18 1.38,0.18c0.9,0 1.66,-0.245 2.28,-0.735c0.19632,-0.15649 0.37504,-0.33386 0.533,-0.529c0.20134,-0.24667 0.386,-0.53267 0.554,-0.858c0.15992,-0.31271 0.29793,-0.63616 0.413,-0.968l6.54,-17.31c0.00067,-0.00134 0.00134,-0.00266 0.002,-0.004c0.13267,-0.386 0.06766,-0.609 -0.195,-0.669c-0.05486,-0.01191 -0.11087,-0.01761 -0.167,-0.017c-0.03911,-0.00003 -0.07818,0.00231 -0.117,0.007c-0.276,0.03333 -0.467,0.191 -0.573,0.473l-4.71,12.48l-4.86,-12.48c-0.01479,-0.03976 -0.03216,-0.0785 -0.052,-0.116c-0.08334,-0.156 -0.201,-0.262 -0.353,-0.318c-0.09156,-0.03197 -0.18803,-0.04753 -0.285,-0.046h-0.03c-0.32666,0 -0.439,0.19 -0.337,0.57c0.0109,0.04043 0.02324,0.08046 0.037,0.12l5.37,13.65l-1.26,3.33c-0.0131,0.03575 -0.02644,0.07142 -0.04,0.107zM245.07,187.53c0.03951,0.00023 0.07898,-0.00278 0.118,-0.009c0.19933,-0.03333 0.32267,-0.15533 0.37,-0.366c0.01558,-0.07396 0.02296,-0.14942 0.022,-0.225v-8.94c-0.00011,-0.19735 0.01627,-0.39437 0.049,-0.589c0.08637,-0.49653 0.27392,-0.97001 0.551,-1.391c0.4,-0.62 0.96,-1.125 1.68,-1.515c0.32932,-0.17788 0.67882,-0.31553 1.041,-0.41c0.4635,-0.11915 0.94044,-0.17797 1.419,-0.175c0.22195,-0.00057 0.44372,0.01279 0.664,0.04c0.87165,0.09286 1.68532,0.48101 2.306,1.1c0.27291,0.27514 0.49649,0.59512 0.661,0.946c0.17334,0.364 0.29967,0.776 0.379,1.236c0.06929,0.41906 0.10274,0.84326 0.1,1.268v8.43c0,0.30334 0.09767,0.49167 0.293,0.565c0.06965,0.02461 0.14315,0.03646 0.217,0.035c0.03951,0.00023 0.07898,-0.00278 0.118,-0.009c0.19933,-0.03333 0.32267,-0.15533 0.37,-0.366c0.01558,-0.07396 0.02295,-0.14942 0.022,-0.225v-8.43c0.00011,-0.15673 -0.00356,-0.31345 -0.011,-0.47c-0.02934,-0.60267 -0.11566,-1.156 -0.259,-1.66c-0.2061,-0.76798 -0.59755,-1.47362 -1.14,-2.055c-0.55218,-0.58722 -1.24972,-1.0181 -2.022,-1.249c-0.55128,-0.16192 -1.12346,-0.24145 -1.698,-0.236c-0.10439,0.00012 -0.20874,0.00279 -0.313,0.008c-0.87786,0.03347 -1.73386,0.28319 -2.492,0.727c-0.15919,0.09372 -0.31432,0.19414 -0.465,0.301c-0.58838,0.41111 -1.08826,0.93614 -1.47,1.544v-1.62c0,-0.30334 -0.09767,-0.49167 -0.293,-0.565c-0.06965,-0.02461 -0.14315,-0.03646 -0.217,-0.035c-0.284,0 -0.456,0.12466 -0.516,0.374c-0.01682,0.07414 -0.02488,0.14998 -0.024,0.226v13.14c0,0.4 0.18,0.6 0.54,0.6zM207.999,182.635c0.06933,1.582 0.54134,2.82867 1.416,3.74c0.5401,0.56951 1.21584,0.99271 1.964,1.23c0.56364,0.1746 1.15097,0.26063 1.741,0.255c0.07269,-0.00011 0.14536,-0.00145 0.218,-0.004c0.91501,-0.02098 1.80993,-0.2724 2.602,-0.731c0.25405,-0.14736 0.49764,-0.31208 0.729,-0.493c0.47303,-0.36572 0.87644,-0.81351 1.191,-1.322v1.59c0,0.4 0.18,0.6 0.54,0.6c0.03951,0.00023 0.07898,-0.00278 0.118,-0.009c0.19933,-0.03333 0.32267,-0.15534 0.37,-0.366c0.01558,-0.07396 0.02295,-0.14942 0.022,-0.225v-13.11c0,-0.30334 -0.09767,-0.49167 -0.293,-0.565c-0.06965,-0.02461 -0.14315,-0.03646 -0.217,-0.035c-0.284,0 -0.456,0.12466 -0.516,0.374c-0.01682,0.07414 -0.02487,0.14998 -0.024,0.226v8.91c0.00039,0.24083 -0.02374,0.48106 -0.072,0.717c-0.09646,0.45468 -0.27542,0.88782 -0.528,1.278c-0.14955,0.23577 -0.32206,0.45618 -0.515,0.658c-0.33634,0.34793 -0.72422,0.64203 -1.15,0.872c-0.3678,0.20072 -0.7615,0.34979 -1.17,0.443c-0.42817,0.09694 -0.86601,0.14458 -1.305,0.142c-0.20449,0.00053 -0.40883,-0.01082 -0.612,-0.034c-0.89299,-0.08613 -1.72745,-0.48283 -2.358,-1.121c-0.24508,-0.24993 -0.45046,-0.53592 -0.609,-0.848c-0.19267,-0.37466 -0.333,-0.801 -0.421,-1.279c-0.07608,-0.43178 -0.1129,-0.86957 -0.11,-1.308v-8.43c0,-0.30334 -0.09766,-0.49167 -0.293,-0.565c-0.06965,-0.02461 -0.14315,-0.03646 -0.217,-0.035c-0.03951,-0.00023 -0.07898,0.00278 -0.118,0.009c-0.19867,0.03333 -0.322,0.15533 -0.37,0.366c-0.01558,0.07396 -0.02295,0.14942 -0.022,0.225v8.43c-0.00002,0.13838 0.00297,0.27675 0.009,0.415zM291.084,185.633c-0.06099,-0.10094 -0.11902,-0.20366 -0.174,-0.308c-0.74867,-1.422 -1.186,-3.581 -1.312,-6.477c-0.02603,-0.61566 -0.0387,-1.2318 -0.038,-1.848c0,-3.82 0.45,-6.585 1.35,-8.295c0.31038,-0.61223 0.74496,-1.15307 1.276,-1.588c0.64934,-0.51866 1.432,-0.831 2.348,-0.937c0.24104,-0.02719 0.48343,-0.04055 0.726,-0.04c0.62878,-0.00847 1.25429,0.09167 1.849,0.296c0.97267,0.348 1.74867,1.00166 2.328,1.961c0.06066,0.10096 0.11835,0.20367 0.173,0.308c0.74867,1.42266 1.186,3.575 1.312,6.457c0.02602,0.61232 0.03869,1.22513 0.038,1.838c0,3.84 -0.45,6.615 -1.35,8.325c-0.31009,0.61214 -0.74432,1.15297 -1.275,1.588c-0.65,0.51934 -1.433,0.83166 -2.349,0.937c-0.24104,0.02719 -0.48343,0.04054 -0.726,0.04c-0.62844,0.00835 -1.25361,-0.09178 -1.848,-0.296c-0.97334,-0.348 -1.74933,-1.00166 -2.328,-1.961zM317.334,185.633c-0.06099,-0.10094 -0.11902,-0.20366 -0.174,-0.308c-0.74867,-1.422 -1.186,-3.581 -1.312,-6.477c-0.02603,-0.61566 -0.0387,-1.2318 -0.038,-1.848c0,-3.82 0.45,-6.585 1.35,-8.295c0.31038,-0.61223 0.74496,-1.15307 1.276,-1.588c0.64934,-0.51866 1.432,-0.831 2.348,-0.937c0.24104,-0.02719 0.48343,-0.04055 0.726,-0.04c0.62878,-0.00847 1.25429,0.09167 1.849,0.296c0.97267,0.348 1.74867,1.00166 2.328,1.961c0.06066,0.10096 0.11835,0.20367 0.173,0.308c0.74867,1.42266 1.186,3.575 1.312,6.457c0.02602,0.61232 0.03869,1.22513 0.038,1.838c0,3.84 -0.45,6.615 -1.35,8.325c-0.31009,0.61214 -0.74432,1.15297 -1.275,1.588c-0.65,0.51934 -1.433,0.83166 -2.349,0.937c-0.24104,0.02719 -0.48343,0.04054 -0.726,0.04c-0.62844,0.00835 -1.25361,-0.09178 -1.848,-0.296c-0.97334,-0.348 -1.74933,-1.00166 -2.328,-1.961zM308.753,187.495c0.06964,0.02461 0.14315,0.03646 0.217,0.035c0.03951,0.00023 0.07898,-0.00278 0.118,-0.009c0.19934,-0.03333 0.32267,-0.15533 0.37,-0.366c0.01558,-0.07396 0.02295,-0.14942 0.022,-0.225v-19.89c0,-0.17866 -0.026,-0.31767 -0.078,-0.417c-0.05773,-0.1182 -0.18066,-0.19031 -0.312,-0.183c-0.26,0 -0.5,0.07 -0.72,0.21l-4.56,2.85c-0.294,0.19 -0.39366,0.40267 -0.299,0.638c0.01611,0.0391 0.03586,0.0766 0.059,0.112c0.0165,0.02907 0.03522,0.05682 0.056,0.083c0.13867,0.17334 0.335,0.20767 0.589,0.103c0.04624,-0.01937 0.09132,-0.04141 0.135,-0.066l4.11,-2.52v19.08c0,0.30334 0.09767,0.49167 0.293,0.565zM294.785,186.817c-0.78911,-0.06473 -1.53458,-0.38894 -2.12,-0.922c-0.27654,-0.25836 -0.51373,-0.55586 -0.704,-0.883c-0.18266,-0.30534 -0.34667,-0.65434 -0.492,-1.047c-0.14015,-0.3842 -0.25671,-0.77659 -0.349,-1.175c-0.23334,-0.99 -0.38666,-2.21166 -0.46,-3.665c-0.0344,-0.70781 -0.05106,-1.41636 -0.05,-2.125c0,-1.65 0.08033,-3.07066 0.241,-4.262c0.06516,-0.49847 0.15494,-0.9934 0.269,-1.483c0.08946,-0.38257 0.20131,-0.75955 0.335,-1.129c0.14267,-0.38933 0.30367,-0.73666 0.483,-1.042c0.19497,-0.34099 0.44004,-0.65078 0.727,-0.919c0.38137,-0.35043 0.83606,-0.61143 1.331,-0.764c0.40978,-0.12376 0.83595,-0.18479 1.264,-0.181c0.22378,-0.00067 0.44733,0.01436 0.669,0.045c0.72505,0.09017 1.40373,0.40487 1.941,0.9c0.47267,0.438 0.86333,1.06933 1.172,1.894c0.14395,0.39088 0.26351,0.79031 0.358,1.196c0.234,0.98334 0.38734,2.19566 0.46,3.637c0.0344,0.70213 0.05107,1.40502 0.05,2.108c0,1.664 -0.08034,3.09634 -0.241,4.297c-0.06516,0.50178 -0.15493,1.00004 -0.269,1.493c-0.09372,0.40589 -0.21227,0.80564 -0.355,1.197c-0.14267,0.38467 -0.30334,0.72733 -0.482,1.028c-0.18725,0.32529 -0.42068,0.6217 -0.693,0.88c-0.39521,0.36735 -0.87193,0.63569 -1.391,0.783c-0.39668,0.11111 -0.80706,0.16565 -1.219,0.162c-0.15861,0.00023 -0.31714,-0.00744 -0.475,-0.023zM321.035,186.817c-0.78911,-0.06473 -1.53458,-0.38894 -2.12,-0.922c-0.27654,-0.25836 -0.51373,-0.55586 -0.704,-0.883c-0.18266,-0.30534 -0.34667,-0.65434 -0.492,-1.047c-0.14015,-0.3842 -0.25671,-0.77659 -0.349,-1.175c-0.23334,-0.99 -0.38666,-2.21166 -0.46,-3.665c-0.0344,-0.70781 -0.05106,-1.41636 -0.05,-2.125c0,-1.65 0.08033,-3.07066 0.241,-4.262c0.06516,-0.49847 0.15494,-0.9934 0.269,-1.483c0.08946,-0.38257 0.20131,-0.75955 0.335,-1.129c0.14267,-0.38933 0.30367,-0.73666 0.483,-1.042c0.19497,-0.34099 0.44004,-0.65078 0.727,-0.919c0.38137,-0.35043 0.83606,-0.61143 1.331,-0.764c0.40978,-0.12376 0.83595,-0.18479 1.264,-0.181c0.22378,-0.00067 0.44733,0.01436 0.669,0.045c0.72505,0.09017 1.40373,0.40487 1.941,0.9c0.47267,0.438 0.86333,1.06933 1.172,1.894c0.14395,0.39088 0.26351,0.79031 0.358,1.196c0.234,0.98334 0.38734,2.19566 0.46,3.637c0.0344,0.70213 0.05107,1.40502 0.05,2.108c0,1.664 -0.08034,3.09634 -0.241,4.297c-0.06516,0.50178 -0.15493,1.00004 -0.269,1.493c-0.09372,0.40589 -0.21227,0.80564 -0.355,1.197c-0.14267,0.38467 -0.30334,0.72733 -0.482,1.028c-0.18725,0.32529 -0.42068,0.6217 -0.693,0.88c-0.39521,0.36735 -0.87193,0.63569 -1.391,0.783c-0.39668,0.11111 -0.80706,0.16565 -1.219,0.162c-0.15861,0.00023 -0.31714,-0.00744 -0.475,-0.023zM194.37,186.9c-0.98,-0.64 -1.75,-1.53 -2.31,-2.67c-0.39326,-0.8116 -0.64939,-1.68272 -0.758,-2.578c-0.05552,-0.43847 -0.08291,-0.88003 -0.082,-1.322c0,-1.46 0.28,-2.75 0.84,-3.87c0.37088,-0.75664 0.87685,-1.43919 1.493,-2.014c0.2548,-0.23513 0.528,-0.44947 0.817,-0.641c0.92064,-0.60723 1.99347,-0.94336 3.096,-0.97c0.08796,-0.00329 0.17597,-0.00495 0.264,-0.005c0.73169,-0.00625 1.45878,0.11629 2.148,0.362c0.42688,0.15554 0.83374,0.36132 1.212,0.613c0.92755,0.61887 1.685,1.46056 2.203,2.448c0.03669,0.06847 0.07235,0.13748 0.107,0.207c0.37623,0.76306 0.62646,1.58198 0.741,2.425c0.06725,0.4787 0.10034,0.9616 0.099,1.445c0.00409,0.72665 -0.07306,1.45148 -0.23,2.161c-0.13464,0.60153 -0.33936,1.18518 -0.61,1.739c-0.32053,0.66513 -0.7452,1.27481 -1.258,1.806c-0.31802,0.3256 -0.67079,0.61534 -1.052,0.864c-0.89851,0.58349 -1.93839,0.9125 -3.009,0.952c-0.11692,0.00551 -0.23395,0.00818 -0.351,0.008c-0.72194,0.00609 -1.4396,-0.11126 -2.122,-0.347c-0.43576,-0.15394 -0.85141,-0.35976 -1.238,-0.613zM197.508,186.806c-0.92869,-0.02242 -1.83305,-0.30139 -2.613,-0.806c-0.35592,-0.23151 -0.68174,-0.50628 -0.97,-0.818c-0.39834,-0.43527 -0.72872,-0.92815 -0.98,-1.462c-0.24349,-0.51234 -0.42284,-1.05275 -0.534,-1.609c-0.11676,-0.58641 -0.17405,-1.18309 -0.171,-1.781c-0.00156,-0.46456 0.03221,-0.92856 0.101,-1.388c0.10049,-0.68889 0.3041,-1.35872 0.604,-1.987c0.0616,-0.12709 0.1273,-0.25216 0.197,-0.375c0.42228,-0.76294 1.02393,-1.41162 1.753,-1.89c0.83,-0.54 1.775,-0.81 2.835,-0.81c0.10238,0.00007 0.20475,0.00274 0.307,0.008c0.89489,0.03451 1.76355,0.31173 2.513,0.802c0.34572,0.22734 0.66297,0.49524 0.945,0.798c0.40168,0.4366 0.73541,0.93114 0.99,1.467c0.47,0.97 0.705,2.095 0.705,3.375c0,1.28 -0.235,2.41 -0.705,3.39c-0.08629,0.18019 -0.18072,0.35638 -0.283,0.528c-0.40978,0.70239 -0.97487,1.3017 -1.652,1.752c-0.33151,0.21873 -0.68892,0.39542 -1.064,0.526c-0.56518,0.19282 -1.15885,0.28884 -1.756,0.284c-0.07402,0.00001 -0.14803,-0.00132 -0.222,-0.004zM265.505,185.247c-0.86064,-0.0204 -1.70063,-0.26774 -2.435,-0.717c-0.23592,-0.1452 -0.45936,-0.30976 -0.668,-0.492c-0.48651,-0.42914 -0.89049,-0.94359 -1.192,-1.518c-0.46,-0.86 -0.69,-1.85 -0.69,-2.97c-0.00088,-0.34219 0.02217,-0.68403 0.069,-1.023c0.08954,-0.67602 0.29988,-1.33042 0.621,-1.932c0.00729,-0.01336 0.01462,-0.02669 0.022,-0.04c0.43032,-0.80179 1.06425,-1.47609 1.838,-1.955c0.27193,-0.16753 0.56006,-0.30723 0.86,-0.417c0.57081,-0.20524 1.17343,-0.30782 1.78,-0.303c0.13878,-0.00017 0.27754,0.00451 0.416,0.014c0.7978,0.04726 1.5718,0.28968 2.254,0.706c0.17243,0.10602 0.33839,0.22223 0.497,0.348c0.56192,0.45028 1.02578,1.01077 1.363,1.647c0.23362,0.4344 0.40784,0.89821 0.518,1.379c0.11743,0.51702 0.17514,1.04582 0.172,1.576c0,1.12 -0.23,2.11 -0.69,2.97c-0.46,0.86 -1.08,1.53 -1.86,2.01c-0.3278,0.20179 -0.67908,0.36264 -1.046,0.479c-0.52564,0.16371 -1.07347,0.24501 -1.624,0.241c-0.06835,0.00019 -0.13669,-0.00081 -0.205,-0.003zM238.433,187.495c0.06965,0.02461 0.14315,0.03646 0.217,0.035c0.03951,0.00023 0.07898,-0.00278 0.118,-0.009c0.19933,-0.03333 0.32267,-0.15533 0.37,-0.366c0.01558,-0.07396 0.02295,-0.14942 0.022,-0.225v-13.14c0,-0.30334 -0.09767,-0.49167 -0.293,-0.565c-0.06965,-0.02461 -0.14315,-0.03646 -0.217,-0.035c-0.03985,-0.00029 -0.07965,0.00272 -0.119,0.009c-0.25867,0.04334 -0.389,0.23734 -0.391,0.582c-0.00001,0.003 -0.00001,0.006 0,0.009v13.14c0,0.30334 0.09767,0.49167 0.293,0.565zM165.945,178.952c-0.24934,0.57134 -0.56433,1.01566 -0.945,1.333c-0.07738,0.06456 -0.1571,0.12627 -0.239,0.185c-0.33517,0.24364 -0.71153,0.42487 -1.111,0.535c-0.20187,0.055 -0.40649,0.0994 -0.613,0.133c-0.24363,0.04027 -0.49007,0.061 -0.737,0.062c-0.04767,-0.00001 -0.09535,-0.00067 -0.143,-0.002c-1.23866,-0.034 -2.041,-0.51834 -2.407,-1.453c-0.29134,-0.74334 -0.31233,-1.61266 -0.063,-2.608c0.08149,-0.32158 0.18268,-0.63784 0.303,-0.947c0.10231,-0.26943 0.22396,-0.53111 0.364,-0.783c0.30206,-0.55191 0.71424,-1.0359 1.211,-1.422c0.69,-0.53 1.465,-0.795 2.325,-0.795c0.78,0 1.46,0.2 2.04,0.6c0.05357,0.03696 0.10593,0.07565 0.157,0.116c0.46523,0.35014 0.77498,0.86843 0.863,1.444l-0.93,3.42c-0.02391,0.06111 -0.04892,0.12178 -0.075,0.182zM237.945,169.41c-0.09997,-0.09309 -0.18022,-0.2053 -0.236,-0.33c-0.05322,-0.12308 -0.08014,-0.25592 -0.079,-0.39c0,-0.28 0.105,-0.515 0.315,-0.705c0.09209,-0.08468 0.19751,-0.15359 0.312,-0.204c0.12401,-0.05381 0.25781,-0.0814 0.393,-0.081c0.13426,-0.0014 0.26748,0.02375 0.392,0.074c0.11733,0.04881 0.22374,0.12054 0.313,0.211c0.19,0.19 0.285,0.425 0.285,0.705c0,0.28 -0.095,0.52 -0.285,0.72c-0.17394,0.1889 -0.41823,0.29748 -0.675,0.3c-0.01,0.00013 -0.02,0.00013 -0.03,0c-0.22016,-0.0003 -0.43361,-0.07581 -0.605,-0.214c-0.03476,-0.02695 -0.06814,-0.05566 -0.1,-0.086z"/><path d="M262.91328,155.15746c0.07034,0.01152 0.13801,0.00473 0.20301,-0.02036c0.03994,-0.01575 0.07753,-0.03693 0.11169,-0.06294c0.19745,-0.16043 0.25299,-0.36406 0.1666,-0.61087l-1.53644,-4.75742c-0.00313,-0.00986 -0.00621,-0.01973 -0.00926,-0.02962c-0.10325,-0.3184 -0.13102,-0.56151 -0.0833,-0.72935c0.04936,-0.17277 0.22214,-0.37023 0.51832,-0.59236l4.05399,-2.9433c0.09873,-0.0617 0.16969,-0.14501 0.21288,-0.2499c0.02335,-0.05633 0.0353,-0.11673 0.03517,-0.17771c0,-0.01975 -0.00123,-0.0399 -0.0037,-0.06047c-0.00436,-0.03534 -0.01179,-0.07023 -0.02221,-0.10428c-0.0081,-0.02773 -0.01842,-0.05476 -0.03085,-0.08083c-0.03572,-0.0773 -0.09664,-0.14018 -0.17277,-0.17833c-0.09873,-0.04936 -0.2098,-0.07405 -0.3332,-0.07405h-4.99806c-0.25751,0 -0.4597,-0.02694 -0.60656,-0.08083c-0.05804,-0.01997 -0.11259,-0.04891 -0.16167,-0.08577c-0.03282,-0.02621 -0.06281,-0.05578 -0.08947,-0.08824c-0.0724,-0.08639 -0.14028,-0.2063 -0.20362,-0.35974c-0.03199,-0.07778 -0.06081,-0.15683 -0.08639,-0.23695l-1.53644,-4.73891c-0.03702,-0.11107 -0.09564,-0.20671 -0.17586,-0.28693c-0.05075,-0.0506 -0.11432,-0.08643 -0.18388,-0.10366c-0.04579,-0.01146 -0.09286,-0.01706 -0.14007,-0.01666c-0.01132,0.00006 -0.02264,0.00047 -0.03394,0.00123c-0.10226,0.00412 -0.19921,0.04664 -0.2715,0.11909c-0.08022,0.08022 -0.13884,0.17586 -0.17586,0.28693l-1.55495,4.73891c-0.01456,0.05119 -0.0304,0.10201 -0.04751,0.15241c-0.05594,0.16496 -0.11827,0.29639 -0.18696,0.39429c-0.03508,0.05209 -0.07771,0.09867 -0.12649,0.13822c-0.03675,0.02811 -0.07699,0.05134 -0.11971,0.06911c-0.15179,0.065 -0.37414,0.09749 -0.66703,0.09749h-4.99806c-0.11107,0 -0.21597,0.02468 -0.31469,0.07405c-0.06123,0.03053 -0.11273,0.07755 -0.14871,0.13575c-0.02381,0.03846 -0.04228,0.07998 -0.05492,0.12341c-0.04936,0.12341 -0.04628,0.23756 0.00926,0.34246c0.01282,0.02412 0.02683,0.0476 0.04196,0.07034c0.04545,0.06986 0.10339,0.13073 0.17092,0.17956l4.03547,2.9433c0.0336,0.02319 0.06671,0.04705 0.09934,0.07158c0.14192,0.10778 0.2499,0.21165 0.32395,0.31161c0.03994,0.05242 0.07195,0.11043 0.09502,0.17216c0.0617,0.17277 0.03702,0.4381 -0.07405,0.79599l-1.53644,4.75742c-0.03702,0.11107 -0.04628,0.21905 -0.02777,0.32395c0.0111,0.06257 0.03737,0.12147 0.07651,0.17154c0.02856,0.03666 0.06198,0.06924 0.09934,0.09688c0.09173,0.07117 0.18326,0.10675 0.27459,0.10675c0.01964,-0.00003 0.03925,-0.00168 0.05862,-0.00494c0.00433,-0.00079 0.00864,-0.00161 0.01296,-0.00247c0.10199,-0.01775 0.19874,-0.05801 0.28322,-0.11786l4.05399,-2.9433c0.1954,-0.14439 0.36591,-0.24065 0.51153,-0.28878c0.05892,-0.02028 0.12041,-0.03212 0.18265,-0.03517c0.17894,-0.00617 0.42268,0.10181 0.7312,0.32395l4.03547,2.9433c0.09873,0.0617 0.20362,0.10181 0.31469,0.12032zM235.71085,152.49182c-0.63556,-0.6479 -0.95333,-1.47165 -0.95333,-2.47127c0,-0.92557 0.26533,-1.75858 0.79599,-2.49903c0.25849,-0.35463 0.561,-0.67498 0.90027,-0.95333c0.43399,-0.362 0.95457,-0.69829 1.56174,-1.00887c-0.0866,-0.49858 -0.18206,-0.99559 -0.28631,-1.49078c-0.03629,-0.17277 -0.07352,-0.34534 -0.11169,-0.5177c-0.15426,-0.69726 -0.32086,-1.37601 -0.49981,-2.03625c-0.08512,-0.31486 -0.17378,-0.62875 -0.26595,-0.94161c-0.08333,-0.28276 -0.17055,-0.56437 -0.26163,-0.84473c-0.00552,-0.02187 -0.00923,-0.04416 -0.01111,-0.06664c-0.00576,-0.07281 0.01028,-0.14007 0.04813,-0.20177c0.04936,-0.08022 0.11724,-0.13266 0.20362,-0.15735c0.02573,-0.00739 0.05224,-0.01174 0.07898,-0.01296c0.05183,-0.00247 0.10243,0.00781 0.15179,0.03085c0.00647,0.00311 0.01285,0.0064 0.01913,0.00987c0.04433,0.02306 0.08259,0.05625 0.11169,0.09688c0.0206,0.0297 0.03604,0.06265 0.04566,0.09749c0.09078,0.27997 0.17635,0.56159 0.25669,0.84473c0.08889,0.31257 0.17302,0.62648 0.25237,0.94161c0.1666,0.66024 0.32395,1.33282 0.47204,2.01774c0.14809,0.68492 0.27767,1.32973 0.38874,1.93444c0.51499,-0.22785 1.04001,-0.4323 1.57346,-0.61273c0.58085,-0.19869 1.21105,-0.38833 1.89063,-0.56892c0.45375,-0.12025 0.90961,-0.23236 1.36737,-0.33629c0.0243,-0.00711 0.04937,-0.01126 0.07466,-0.01234c0.04772,-0.00164 0.09441,0.00843 0.14007,0.03024c0.01206,0.00574 0.0238,0.01213 0.03517,0.01913c0.08022,0.04936 0.12649,0.12341 0.13884,0.22214c0.00711,0.0243 0.01126,0.04937 0.01234,0.07466c0.00164,0.04772 -0.00843,0.09441 -0.03024,0.14007c-0.00574,0.01206 -0.01213,0.0238 -0.01913,0.03517c-0.04936,0.08022 -0.11724,0.13266 -0.20362,0.15735c-2.45995,0.55616 -4.34276,1.20262 -5.64843,1.93937c-0.19203,0.10788 -0.37956,0.22357 -0.56213,0.34678c-0.38916,0.25823 -0.74249,0.56675 -1.05083,0.91755c-0.5881,0.66242 -0.90955,1.51946 -0.90212,2.40524c0,1.32048 0.67258,2.24604 2.01774,2.7767c0.33651,0.1292 0.6844,0.2265 1.0391,0.29063c1.31924,0.25011 3.11402,0.22728 5.38433,-0.06849c0.01474,-0.0018 0.02957,-0.00283 0.04443,-0.00309c0.07981,-0.00164 0.1483,0.02098 0.20548,0.06787c0.06787,0.05553 0.10798,0.13266 0.12032,0.23139c0.00544,0.01893 0.00896,0.03836 0.01049,0.058c0.00411,0.05348 -0.00802,0.10428 -0.03641,0.15241c-0.00623,0.01044 -0.01303,0.02054 -0.02036,0.03024c-0.05106,0.06889 -0.12743,0.11462 -0.21226,0.12711c-0.00636,0.00097 -0.01274,0.00179 -0.01913,0.00247c-1.6833,0.22255 -3.12389,0.29145 -4.32178,0.20671c-0.31319,-0.02137 -0.6253,-0.05637 -0.93544,-0.1049c-1.3575,-0.21597 -2.35403,-0.6479 -2.98958,-1.29579zM254.5517,149.6491c0.0761,-0.2822 0.10366,-0.52511 0.08268,-0.72873c-0.0069,-0.06955 -0.02096,-0.1382 -0.04196,-0.20486c-0.01187,-0.03707 -0.02609,-0.07334 -0.04258,-0.1086c-0.08227,-0.17606 -0.2281,-0.35542 -0.43748,-0.53806c-0.10372,-0.08959 -0.21228,-0.17343 -0.32518,-0.25114l-3.66525,-2.66563h4.53528c0.08354,0.0001 0.16708,-0.00196 0.25052,-0.00617c0.27479,-0.01399 0.50145,-0.05266 0.67998,-0.116c0.0943,-0.03195 0.18316,-0.07815 0.26348,-0.13698c0.03786,-0.02879 0.07335,-0.06057 0.10613,-0.09502c0.12505,-0.13081 0.239,-0.31922 0.34184,-0.56521c0.05102,-0.12324 0.09612,-0.24885 0.13513,-0.3764l1.40686,-4.31314l1.40686,4.31314c0.17277,0.51832 0.37331,0.86386 0.60162,1.03664c0.04757,0.03554 0.09864,0.06613 0.15241,0.09132c0.2353,0.11189 0.57632,0.16784 1.02306,0.16784h4.53528l-3.66525,2.66563c-0.43193,0.30852 -0.69726,0.59853 -0.79599,0.87003c-0.01937,0.05421 -0.03322,0.11023 -0.04134,0.16722c-0.02921,0.19786 -0.0074,0.44674 0.06541,0.74662c0.02542,0.10361 0.05444,0.20631 0.087,0.30791l1.40686,4.31314l-3.66525,-2.66563c-0.0513,-0.03725 -0.10335,-0.07346 -0.15611,-0.1086c-0.23571,-0.15591 -0.44859,-0.26286 -0.63864,-0.32086c-0.10217,-0.03281 -0.20864,-0.05027 -0.31593,-0.05183c-0.04524,0.00015 -0.09041,0.00366 -0.13513,0.01049c-0.26944,0.04031 -0.58845,0.19725 -0.95704,0.47081l-3.68376,2.66563l1.40686,-4.31314c0.02942,-0.08589 0.05597,-0.17274 0.0796,-0.26039zM220.17797,154.40219c-0.04676,-0.05901 -0.09243,-0.11887 -0.13698,-0.17956c-0.13616,-0.18182 -0.3692,-0.45785 -0.69911,-0.82807c-0.02916,-0.03254 -0.05836,-0.06504 -0.08762,-0.09749c-0.15109,-0.16869 -0.30083,-0.33859 -0.44921,-0.50968c-0.13205,-0.1522 -0.27027,-0.31305 -0.41465,-0.48253c-0.15093,-0.17767 -0.30107,-0.35599 -0.45044,-0.53498c-0.31006,-0.37209 -0.61127,-0.75147 -0.90335,-1.13783c-0.21504,-0.28416 -0.42609,-0.57132 -0.63309,-0.86139c-0.52449,-0.73428 -1.01504,-1.50867 -1.47165,-2.32317c-0.45661,-0.8145 -0.82376,-1.64751 -1.10143,-2.49903c-0.22938,-0.69306 -0.3659,-1.41345 -0.40602,-2.14238c-0.00688,-0.13111 -0.01038,-0.26238 -0.01049,-0.39367c0,-0.69109 0.18203,-1.32048 0.54608,-1.88816c0.36406,-0.56768 0.84227,-1.02121 1.43463,-1.36058c0.59236,-0.33937 1.22175,-0.50906 1.88816,-0.50906c0.35579,-0.00267 0.71024,0.04384 1.0533,0.13822c0.32301,0.09041 0.62974,0.23118 0.90891,0.41712c0.42472,0.28621 0.7805,0.66327 1.04157,1.10389c0.09483,0.15724 0.17973,0.32025 0.25422,0.48808c0.01697,0.03625 0.03529,0.07186 0.05492,0.10675c0.065,0.11477 0.1269,0.18203 0.18573,0.20177c0.01192,0.00406 0.02443,0.00615 0.03702,0.00617c0.08063,0 0.1666,-0.09132 0.25792,-0.27397c0.00674,-0.01349 0.01333,-0.02707 0.01975,-0.04072c0.30852,-0.69109 0.74045,-1.22175 1.29579,-1.59198c0.43966,-0.2901 0.94236,-0.47079 1.4661,-0.52696c0.16467,-0.0192 0.33032,-0.02868 0.4961,-0.02838c0.67875,0 1.31122,0.16969 1.89741,0.50906c0.58619,0.33937 1.06132,0.7929 1.42537,1.36058c0.36406,0.56768 0.54608,1.19707 0.54608,1.88816c-0.00261,0.79204 -0.12174,1.57939 -0.35357,2.33675c-0.02022,0.06667 -0.0412,0.13311 -0.06294,0.19931c-0.27767,0.85152 -0.64481,1.68453 -1.10143,2.49903c-0.45661,0.8145 -0.94716,1.58889 -1.47165,2.32317c-0.29838,0.4184 -0.60553,0.83047 -0.92125,1.23594c-0.20081,0.25783 -0.4059,0.51229 -0.61519,0.76328c-0.1776,0.21281 -0.35634,0.42466 -0.53621,0.63556c-0.28343,0.33238 -0.54279,0.62959 -0.77809,0.89163c-0.08755,0.09742 -0.17455,0.19533 -0.26101,0.29371c-0.21391,0.24435 -0.3766,0.43872 -0.48808,0.58311c-0.01266,0.01616 -0.02521,0.03241 -0.03764,0.04875c-0.0596,0.08121 -0.12133,0.16083 -0.18511,0.2388c-0.19663,0.23941 -0.35912,0.38627 -0.48747,0.44057c-0.03301,0.01496 -0.06867,0.02314 -0.1049,0.02406c-0.05141,-0.00238 -0.10143,-0.01743 -0.14562,-0.04381c-0.13246,-0.07199 -0.29742,-0.23201 -0.49487,-0.48006z"/></g></g></svg>