<svg version="1.1" xmlns="http://www.w3.org/2000/svg" xmlns:xlink="http://www.w3.org/1999/xlink" width="33.1667" height="33.16669" viewBox="0,0,33.1667,33.16669"><g transform="translate(-223.41665,-163.41665)"><g data-paper-data="{&quot;isPaintingLayer&quot;:true}" fill-rule="nonzero" stroke-linecap="butt" stroke-linejoin="miter" stroke-miterlimit="10" stroke-dasharray="" stroke-dashoffset="0" style="mix-blend-mode: normal"><g><path d="M224.66668,189.22942c0,-7.78097 0,-14.86469 0,-19.05393c0,-2.58374 2.71714,-5.50884 5.16748,-5.50884c4.22149,0 12.01344,0 19.84315,0c3.36644,0 5.65604,3.27387 5.65604,6.07258c0,4.29453 0,11.1398 0,18.7157c0,3.48094 -2.94622,5.87841 -5.54331,5.87841c-4.28219,0 -11.79944,0 -19.50491,0c-3.34339,0 -5.61848,-2.49692 -5.61848,-6.1039z" fill="#f0f6ff" stroke-opacity="0.25482" stroke="#2e4770" stroke-width="2.5"/><path d="M224.66668,189.22942c0,-7.78097 0,-14.86469 0,-19.05393c0,-2.58374 2.71714,-5.50884 5.16748,-5.50884c4.22149,0 12.01344,0 19.84315,0c3.36644,0 5.65604,3.27387 5.65604,6.07258c0,4.29453 0,11.1398 0,18.7157c0,3.48094 -2.94622,5.87841 -5.54331,5.87841c-4.28219,0 -11.79944,0 -19.50491,0c-3.34339,0 -5.61848,-2.49692 -5.61848,-6.1039z" fill="#f0f6ff" stroke="#2e4770" stroke-width="1"/><path d="M236.97368,180c0,-1.67139 1.35493,-3.02632 3.02632,-3.02632c1.67139,0 3.02632,1.35493 3.02632,3.02632c0,1.67139 -1.35493,3.02632 -3.02632,3.02632c-1.67139,0 -3.02632,-1.35493 -3.02632,-3.02632z" fill="#1c2f5a" stroke="#ffffff" stroke-width="0"/></g></g></g></svg>