<svg version="1.1" xmlns="http://www.w3.org/2000/svg" xmlns:xlink="http://www.w3.org/1999/xlink" width="177.54412" height="35.06954" viewBox="0,0,177.54412,35.06954"><g transform="translate(-151.318,-162.49547)"><g data-paper-data="{&quot;isPaintingLayer&quot;:true}" fill="#000000" fill-rule="evenodd" stroke="#000000" stroke-width="1.5" stroke-linecap="round" stroke-linejoin="miter" stroke-miterlimit="10" stroke-dasharray="" stroke-dashoffset="0" style="mix-blend-mode: normal"><path d="M312.99142,196.01169v-26.36358c-0.0012,-0.37627 0.01546,-0.7524 0.0499,-1.12709c0.07221,-0.76032 0.22396,-1.39081 0.45522,-1.89146c0.00202,-0.00407 0.00405,-0.00812 0.00609,-0.01217c0.3408,-0.73029 0.94938,-1.24758 1.82573,-1.55187c0.83497,-0.28968 1.99005,-0.44143 3.46524,-0.45522c0.07425,-0.00075 0.14849,-0.00116 0.22274,-0.00122c0.44455,-0.00085 0.88903,0.01215 1.33278,0.03895c0.97454,0.06086 1.76569,0.19393 2.37345,0.39923c0.32326,0.10605 0.6292,0.25902 0.908,0.454c0.38948,0.27459 0.69972,0.64697 0.89948,1.07962c0.1307,0.2875 0.23144,0.58769 0.30064,0.89583c0.14037,0.59641 0.21057,1.30804 0.21057,2.13489c0.00117,0.34913 -0.01548,0.6981 -0.0499,1.04554c-0.03651,0.35622 -0.09332,0.68323 -0.1704,0.98103c-0.06948,0.27695 -0.16694,0.5461 -0.2909,0.80332c-0.27831,0.56365 -0.73779,1.01755 -1.30479,1.28897c-0.14516,0.07265 -0.29476,0.13607 -0.44791,0.18988c-0.28601,0.0986 -0.57893,0.1759 -0.87635,0.23126c-0.61426,0.11847 -1.34779,0.18622 -2.20062,0.20326c-0.1428,0.00262 -0.28562,0.00383 -0.42844,0.00365c-0.14602,0.00015 -0.28725,-0.05212 -0.39801,-0.14728c-0.02031,-0.01691 -0.03981,-0.03479 -0.05842,-0.05355c-0.05355,-0.05241 -0.09872,-0.11276 -0.13389,-0.17892c-0.04455,-0.08569 -0.06752,-0.18094 -0.06694,-0.27751c-0.0012,-0.08441 0.01028,-0.16853 0.03408,-0.24952c0.05599,-0.18257 0.18379,-0.2978 0.3834,-0.34567c0.07865,-0.01789 0.15913,-0.02647 0.23978,-0.02556c0.31944,0.00056 0.63885,-0.00714 0.9579,-0.02313c0.75625,-0.03895 1.362,-0.12862 1.81721,-0.26899c0.21264,-0.06358 0.41633,-0.15397 0.60614,-0.26899c0.30571,-0.18339 0.55176,-0.45142 0.70838,-0.77168c0.08992,-0.18891 0.15969,-0.38678 0.20813,-0.59032c0.09737,-0.39598 0.14931,-0.8723 0.1558,-1.42894c0.00063,-0.03895 0.00103,-0.0779 0.00122,-0.11685c0.0006,-0.27582 -0.01037,-0.55154 -0.03286,-0.82645c-0.05031,-0.60209 -0.16107,-1.08732 -0.33228,-1.45572c-0.17893,-0.38271 -0.48588,-0.69094 -0.86783,-0.87148c-0.16062,-0.07875 -0.32858,-0.14153 -0.50147,-0.18744c-0.66944,-0.18257 -1.66142,-0.27386 -2.97594,-0.27386c-0.33892,-0.00055 -0.67778,0.00717 -1.01632,0.02313c-0.80414,0.03976 -1.45125,0.12942 -1.94136,0.26899c-0.21385,0.05904 -0.41982,0.14364 -0.61345,0.25195c-0.33901,0.18603 -0.61011,0.47502 -0.77411,0.82523c-0.22071,0.47387 -0.34162,1.14251 -0.36271,2.00587c-0.00192,0.09209 -0.00273,0.18419 -0.00243,0.27629v6.93778h7.04733c1.2561,0 2.17709,0.22639 2.76294,0.67917c0.10409,0.08033 0.19992,0.17085 0.28603,0.27021c0.24999,0.29385 0.42314,0.64515 0.5039,1.02241c0.08602,0.37488 0.10468,0.80129 0.05599,1.27923c-0.01629,0.15862 -0.03862,0.31656 -0.06694,0.47347c-0.51121,3.01854 -1.48493,5.67194 -2.92117,7.96019c0.82767,1.04675 1.73445,2.00831 2.72034,2.88466c0.9859,0.87635 2.03873,1.6675 3.15852,2.37345c0.14039,0.09269 0.23773,0.23782 0.27021,0.40288c0.00128,0.00567 0.0025,0.01134 0.00365,0.01704c0.00707,0.0353 0.01115,0.07113 0.01217,0.10711c0.00405,0.14037 -0.0426,0.26899 -0.13997,0.38584c-0.07879,0.14377 -0.21674,0.24568 -0.37732,0.27873c-0.02612,0.00585 -0.05252,0.01032 -0.07912,0.01339c-0.03393,0.00403 -0.06808,0.00606 -0.10224,0.00609c-0.16686,0.0001 -0.32936,-0.05321 -0.46374,-0.15214c-0.70544,-0.49836 -1.39355,-1.02083 -2.06308,-1.56648c-0.37854,-0.30905 -0.74986,-0.62681 -1.1137,-0.95303c-0.92184,-0.82389 -1.78526,-1.71091 -2.58402,-2.65462c-0.00284,-0.00365 -0.00568,-0.0073 -0.00852,-0.01095c-1.11818,1.55545 -2.44469,2.94996 -3.94237,4.14441c-0.45063,0.36299 -0.91384,0.7101 -1.38877,1.04067c-0.38381,0.24018 -0.70879,0.19636 -0.97494,-0.13145c-0.00369,-0.00484 -0.00734,-0.00971 -0.01095,-0.01461c-0.08845,-0.11036 -0.12172,-0.24546 -0.09981,-0.40531c0.0023,-0.01713 0.00514,-0.03418 0.00852,-0.05112c0.03048,-0.15123 0.11007,-0.28816 0.22639,-0.38949c0.0267,-0.02389 0.05475,-0.04624 0.08398,-0.06694c2.14219,-1.33887 3.91924,-3.06723 5.33114,-5.18508c-0.87108,-1.24953 -1.58867,-2.59932 -2.13732,-4.02026c-0.08205,-0.21053 -0.16076,-0.42234 -0.23613,-0.63535c-0.60614,-1.7097 -1.0435,-3.66689 -1.31209,-5.87156c-0.00082,-0.00852 -0.00163,-0.01704 -0.00243,-0.02556h-2.44648v18.22081c0.00018,0.16335 -0.06058,0.3209 -0.1704,0.44183c-0.004,0.00492 -0.00806,0.00979 -0.01217,0.01461c-0.11177,0.12411 -0.26997,0.19639 -0.43696,0.19961c-0.01256,0.00069 -0.02515,0.0011 -0.03773,0.00122c-0.14602,0.00015 -0.28725,-0.05212 -0.39801,-0.14728c-0.02031,-0.01691 -0.03981,-0.03479 -0.05842,-0.05355c-0.05355,-0.05241 -0.09872,-0.11276 -0.13389,-0.17892c-0.04455,-0.08569 -0.06752,-0.18094 -0.06694,-0.27751zM290.86354,177.02407h-22.45651c-0.07807,0.00105 -0.15591,-0.00879 -0.23126,-0.02921c-0.17284,-0.0495 -0.28238,-0.16228 -0.32863,-0.33837c-0.01727,-0.0709 -0.02545,-0.1437 -0.02434,-0.21665c0.00017,-0.12148 0.03944,-0.23969 0.11198,-0.33715c0.01625,-0.02244 0.03373,-0.04398 0.05234,-0.06451c0.09854,-0.11186 0.23924,-0.17758 0.38827,-0.18136c0.01054,-0.00065 0.02109,-0.00105 0.03165,-0.00122h10.51622v-3.06723h-7.4855c-0.12148,-0.00017 -0.23969,-0.03944 -0.33715,-0.11198c-0.02244,-0.01625 -0.04398,-0.03373 -0.06451,-0.05234c-0.11231,-0.09832 -0.17848,-0.23906 -0.18257,-0.38827c-0.00024,-0.01055 -0.00024,-0.02109 0,-0.03165c-0.00082,-0.07493 0.01282,-0.14932 0.04017,-0.21909c0.03131,-0.07705 0.08005,-0.14579 0.14241,-0.20083c0.04971,-0.04541 0.1059,-0.08316 0.16675,-0.11198c0.07348,-0.03457 0.1537,-0.05245 0.23491,-0.05234h7.4855v-3.10375h-8.80003c-0.07807,0.00105 -0.15591,-0.00879 -0.23126,-0.02921c-0.17284,-0.0495 -0.28238,-0.16228 -0.32863,-0.33837c-0.01727,-0.0709 -0.02545,-0.1437 -0.02434,-0.21665c-0.00105,-0.07807 0.00879,-0.15591 0.02921,-0.23126c0.0495,-0.17284 0.16228,-0.28238 0.33837,-0.32863c0.0709,-0.01727 0.1437,-0.02545 0.21665,-0.02434h8.80003v-3.46889c-0.00108,-0.0786 0.01126,-0.15682 0.03651,-0.23126c0.03344,-0.09367 0.08995,-0.17739 0.16432,-0.24343c0.06354,-0.05917 0.13738,-0.1062 0.21787,-0.13876c0.07604,-0.02956 0.15699,-0.04443 0.23856,-0.04382c0.07412,-0.00058 0.14793,0.00966 0.21909,0.03043c0.09664,0.02841 0.18456,0.08073 0.2556,0.15214c0.12172,0.12172 0.18257,0.27995 0.18257,0.47469v3.46889h8.50791c0.07807,-0.00105 0.15591,0.00879 0.23126,0.02921c0.17284,0.0495 0.28198,0.16228 0.32741,0.33837c0.01767,0.07084 0.02627,0.14365 0.02556,0.21665c0.00105,0.07807 -0.00879,0.15591 -0.02921,0.23126c-0.0495,0.17284 -0.16228,0.28238 -0.33837,0.32863c-0.0709,0.01727 -0.1437,0.02545 -0.21665,0.02434h-8.50791v3.10375h7.19339c0.07807,-0.00105 0.15591,0.00879 0.23126,0.02921c0.17284,0.0495 0.28198,0.16228 0.32741,0.33837c0.01767,0.07084 0.02627,0.14365 0.02556,0.21665c0.00105,0.07807 -0.00879,0.15591 -0.02921,0.23126c-0.0495,0.17284 -0.16228,0.28238 -0.33837,0.32863c-0.0709,0.01727 -0.1437,0.02545 -0.21665,0.02434h-7.19339v3.06723h10.62576c0.07493,-0.00082 0.14932,0.01282 0.21909,0.04017c0.07705,0.03131 0.14579,0.08005 0.20083,0.14241c0.04541,0.04971 0.08316,0.1059 0.11198,0.16675c0.03457,0.07348 0.05245,0.1537 0.05234,0.23491c0.00105,0.07807 -0.00879,0.15591 -0.02921,0.23126c-0.0495,0.17284 -0.16228,0.28238 -0.33837,0.32863c-0.0709,0.01727 -0.1437,0.02545 -0.21665,0.02434zM168.28384,174.76016h-9.4573c-0.67973,1.26705 -1.42987,2.49505 -2.24687,3.67824c-0.12001,0.17455 -0.24131,0.3482 -0.36393,0.52094c-0.71256,1.00835 -1.49854,1.96276 -2.35154,2.85545c-0.27373,0.28494 -0.555,0.56254 -0.84349,0.83253c-0.12172,0.12172 -0.27995,0.18257 -0.47469,0.18257c-0.07412,0.00058 -0.14793,-0.00966 -0.21909,-0.03043c-0.09664,-0.02841 -0.18456,-0.08073 -0.2556,-0.15214c-0.04321,-0.04612 -0.08193,-0.09625 -0.11563,-0.14971c-0.14768,-0.23856 -0.12293,-0.47672 0.07425,-0.71447c0.02461,-0.0296 0.05061,-0.05803 0.0779,-0.0852c1.2215,-1.1844 2.32834,-2.48156 3.30579,-3.8742c0.14833,-0.20993 0.294,-0.42173 0.43696,-0.63535c0.82272,-1.22413 1.57376,-2.49494 2.2493,-3.80604c0.21461,-0.41877 0.42034,-0.84204 0.6171,-1.26949c0.30041,-0.64935 0.58089,-1.30774 0.84105,-1.97423c0.24505,-0.63211 0.4536,-1.23501 0.62562,-1.80869c0.07643,-0.25284 0.14743,-0.50729 0.213,-0.76316c0.01989,-0.08334 0.05363,-0.16275 0.09981,-0.23491c0.05415,-0.08261 0.1261,-0.15206 0.21057,-0.20326c0.15418,-0.09494 0.31443,-0.1205 0.48078,-0.07668c0.00407,0.00118 0.00813,0.0024 0.01217,0.00365c0.08334,0.01989 0.16275,0.05363 0.23491,0.09981c0.08261,0.05415 0.15206,0.1261 0.20326,0.21057c0.09494,0.15418 0.1205,0.31443 0.07668,0.48078c-0.00118,0.00407 -0.0024,0.00813 -0.00365,0.01217c-0.16915,0.64772 -0.36899,1.28704 -0.59884,1.9158c-0.40735,1.12384 -0.93802,2.34749 -1.59204,3.67094h18.07475c0.39436,0 0.62075,0.15945 0.67917,0.47834c0.01021,0.05908 0.01509,0.11896 0.01461,0.17892c0,0.34973 -0.14728,0.55989 -0.44183,0.63049c-0.08264,0.01876 -0.16721,0.02775 -0.25195,0.02678h-8.03322c-0.32227,2.97751 -1.11046,5.88588 -2.33572,8.61868c-0.36804,0.81081 -0.77672,1.60256 -1.22446,2.37224c-1.91093,3.28632 -4.48522,6.00057 -7.72285,8.14277c-0.07255,0.04954 -0.15396,0.08467 -0.23978,0.10346c-0.07546,0.01542 -0.15376,0.01744 -0.23491,0.00609c-0.11912,-0.01732 -0.23003,-0.07086 -0.31768,-0.15336c-0.04495,-0.04187 -0.08533,-0.08839 -0.1205,-0.13876c-0.20123,-0.31321 -0.16593,-0.59559 0.10589,-0.84714c0.02467,-0.02293 0.05024,-0.04485 0.07668,-0.06573c3.04289,-2.02048 5.4772,-4.5765 7.30293,-7.66808c1.6767,-2.86453 2.79127,-6.02275 3.28388,-9.30515c0.05581,-0.35409 0.10531,-0.70915 0.14849,-1.06501zM250.73393,191.19175c-0.38949,0.1704 -0.69378,0.07303 -0.91287,-0.29212c-0.19339,-0.33362 -0.3951,-0.66235 -0.60493,-0.9859c-0.22234,-0.34567 -0.46495,-0.70473 -0.72786,-1.07718c-0.27152,-0.38462 -0.54701,-0.76643 -0.82645,-1.14534c-0.29902,-0.40601 -0.60169,-0.80931 -0.908,-1.20985c-0.96237,0.16715 -2.05943,0.34364 -3.29119,0.52946c-0.20525,0.03072 -0.41055,0.06115 -0.61588,0.09129c-1.48493,0.21909 -3.05506,0.43209 -4.71039,0.63901c-1.65533,0.20692 -3.29849,0.40166 -4.92948,0.58423c-1.63099,0.18257 -3.17069,0.3408 -4.6191,0.47469c-0.51672,0.04775 -1.03361,0.0936 -1.55066,0.13754c-0.81631,0.06978 -1.55918,0.1274 -2.22861,0.17284c-0.02579,0.00387 -0.05181,0.00592 -0.0779,0.00609c-0.09899,0 -0.19393,-0.02799 -0.28481,-0.08398c-0.03996,-0.02523 -0.07745,-0.05416 -0.11198,-0.08642c-0.05949,-0.05363 -0.11149,-0.11505 -0.15458,-0.18257c-0.05264,-0.08312 -0.08708,-0.17646 -0.10102,-0.27386c-0.00135,-0.09227 0.01137,-0.1842 0.03773,-0.27264c0.06086,-0.19474 0.19678,-0.32336 0.40775,-0.38584c0.0573,-0.01678 0.11595,-0.02859 0.17527,-0.0353c0.48686,-0.02434 1.02241,-0.06086 1.60664,-0.10954c0.58423,-0.04869 1.19281,-0.09737 1.82573,-0.14606c0.52967,-0.70364 1.03826,-1.42289 1.5251,-2.1568c0.41075,-0.61808 0.80924,-1.24424 1.19525,-1.87807c0.91287,-1.4971 1.7953,-3.04289 2.64731,-4.63736c0.61626,-1.15168 1.21275,-2.31382 1.78922,-3.48593c0.18497,-0.37656 0.36754,-0.7543 0.54772,-1.13317c0.29293,-0.61504 0.57615,-1.23465 0.84957,-1.8586c0.2483,-0.56801 0.47266,-1.10761 0.67309,-1.61882c0.06578,-0.16708 0.13028,-0.33464 0.19353,-0.50269c0.07303,-0.1704 0.19474,-0.29212 0.36515,-0.36515c0.05589,-0.02451 0.11485,-0.04131 0.17527,-0.0499c0.11198,-0.01461 0.22396,0.00203 0.33593,0.0499c0.14885,0.04001 0.27337,0.14194 0.34202,0.27995c0.00833,0.01593 0.01604,0.03217 0.02313,0.04869c0.0241,0.05594 0.04048,0.11491 0.04869,0.17527c0.01542,0.11198 -0.00082,0.22396 -0.04869,0.33593c-0.20446,0.521 -0.41708,1.03876 -0.63779,1.55309c-0.30104,0.7019 -0.63617,1.45003 -1.00537,2.24443c-0.49111,1.05227 -1.00774,2.09242 -1.54944,3.11957c-0.22236,0.42267 -0.44835,0.84342 -0.67796,1.26219c-0.82767,1.50927 -1.67967,2.9942 -2.55603,4.45479c-0.52614,0.87887 -1.07403,1.74454 -1.64316,2.59619c-0.32059,0.479 -0.64927,0.95255 -0.9859,1.42042c1.77705,-0.1704 3.65755,-0.36515 5.64151,-0.58423c1.98396,-0.21909 3.8949,-0.45035 5.7328,-0.69378c1.8379,-0.24343 3.43846,-0.48686 4.80168,-0.73029c-0.75464,-0.99807 -1.54579,-1.97179 -2.37345,-2.92117c-0.82767,-0.94938 -1.61882,-1.81356 -2.37345,-2.59254c-0.27508,-0.32133 -0.28035,-0.62075 -0.01582,-0.89826c0.01689,-0.0176 0.03435,-0.03464 0.05234,-0.05112c0.12172,-0.12172 0.27995,-0.18257 0.47469,-0.18257c0.06221,-0.00082 0.12417,0.0078 0.18379,0.02556c0.105,0.03243 0.19512,0.10099 0.25439,0.19353c0.99807,1.0711 2.05091,2.26999 3.15852,3.59669c1.10761,1.3267 2.16654,2.65948 3.17677,3.99835c0.45091,0.59626 0.88838,1.20255 1.31209,1.81843c0.39761,0.58018 0.75991,1.13926 1.08692,1.67724c0.04659,0.07607 0.09284,0.15234 0.13876,0.22883c0.03078,0.04252 0.0569,0.08822 0.0779,0.13632c0.05274,0.12253 0.05802,0.24546 0.01582,0.3688c-0.0008,0.00203 -0.00161,0.00407 -0.00243,0.00609c-0.05553,0.1544 -0.16143,0.28559 -0.30064,0.37245c-0.01513,0.01019 -0.03055,0.01992 -0.04625,0.02921zM302.54822,196.15775v-7.33945h-6.39006c-0.14602,0.00015 -0.28725,-0.05212 -0.39801,-0.14728c-0.02031,-0.01691 -0.03981,-0.03479 -0.05842,-0.05355c-0.05355,-0.05241 -0.09872,-0.11276 -0.13389,-0.17892c-0.04455,-0.08569 -0.06752,-0.18094 -0.06694,-0.27751c-0.00108,-0.0786 0.01126,-0.15682 0.03651,-0.23126c0.03344,-0.09367 0.08995,-0.17739 0.16432,-0.24343c0.06354,-0.05917 0.13738,-0.1062 0.21787,-0.13876c0.07604,-0.02956 0.15699,-0.04443 0.23856,-0.04382h6.39006v-4.7469h-7.19339c-0.14602,0.00015 -0.28725,-0.05212 -0.39801,-0.14728c-0.02031,-0.01691 -0.03981,-0.03479 -0.05842,-0.05355c-0.05355,-0.05241 -0.09872,-0.11276 -0.13389,-0.17892c-0.04455,-0.08569 -0.06752,-0.18094 -0.06694,-0.27751c-0.00108,-0.0786 0.01126,-0.15682 0.03651,-0.23126c0.03344,-0.09367 0.08995,-0.17739 0.16432,-0.24343c0.06354,-0.05917 0.13738,-0.1062 0.21787,-0.13876c0.07604,-0.02956 0.15699,-0.04443 0.23856,-0.04382h9.09215c0.0884,-0.18693 0.17483,-0.37479 0.25925,-0.56354c0.07546,-0.16878 0.15376,-0.3477 0.23491,-0.53677c0.08592,-0.19872 0.17071,-0.39794 0.25439,-0.59762c0.27995,-0.66944 0.55381,-1.33278 0.82158,-1.99005c0.25398,-0.6248 0.45318,-1.15061 0.59762,-1.57743c0.00777,-0.02188 0.01547,-0.04379 0.02313,-0.06573c0.1201,-0.40735 0.39354,-0.55502 0.82036,-0.44304c0.0065,0.00158 0.013,0.0032 0.01947,0.00487c0.06982,0.0166 0.13643,0.04456 0.19718,0.08277c0.09162,0.05921 0.16295,0.145 0.20448,0.24587c0.07303,0.1704 0.07303,0.35297 0,0.54772c-0.06511,0.16893 -0.13165,0.33731 -0.19961,0.50512c-0.21665,0.53636 -0.48483,1.16522 -0.80454,1.88659c-0.426,0.96155 -0.80941,1.7953 -1.15021,2.50125h5.7328c0.07412,-0.00058 0.14793,0.00966 0.21909,0.03043c0.09664,0.02841 0.18456,0.08073 0.2556,0.15214c0.09899,0.09899 0.15783,0.22234 0.17649,0.37002c0.00419,0.03474 0.00622,0.06969 0.00609,0.10468c0.00018,0.16335 -0.06058,0.3209 -0.1704,0.44183c-0.004,0.00492 -0.00806,0.00979 -0.01217,0.01461c-0.11177,0.12411 -0.26997,0.19639 -0.43696,0.19961c-0.01256,0.00069 -0.02515,0.0011 -0.03773,0.00122h-7.59505v4.7469h6.68218c0.16335,-0.00018 0.3209,0.06058 0.44183,0.1704c0.00492,0.004 0.00979,0.00806 0.01461,0.01217c0.12411,0.11177 0.19639,0.26997 0.19961,0.43696c0.00069,0.01256 0.0011,0.02515 0.00122,0.03773c-0.00019,0.14618 -0.05289,0.28743 -0.14849,0.39801c-0.01652,0.02029 -0.03398,0.03979 -0.05234,0.05842c-0.05241,0.05355 -0.11276,0.09872 -0.17892,0.13389c-0.08569,0.04455 -0.18094,0.06752 -0.27751,0.06694h-6.68218v7.33945c0.00018,0.16335 -0.06058,0.3209 -0.1704,0.44183c-0.004,0.00492 -0.00806,0.00979 -0.01217,0.01461c-0.11177,0.12411 -0.26997,0.19639 -0.43696,0.19961c-0.01256,0.00069 -0.02515,0.0011 -0.03773,0.00122c-0.14602,0.00015 -0.28725,-0.05212 -0.39801,-0.14728c-0.02031,-0.01691 -0.03981,-0.03479 -0.05842,-0.05355c-0.05355,-0.05241 -0.09872,-0.11276 -0.13389,-0.17892c-0.04455,-0.08569 -0.06752,-0.18094 -0.06694,-0.27751zM311.49431,175.34439h-16.39508c-0.14602,0.00015 -0.28725,-0.05212 -0.39801,-0.14728c-0.02031,-0.01691 -0.03981,-0.03479 -0.05842,-0.05355c-0.05355,-0.05241 -0.09872,-0.11276 -0.13389,-0.17892c-0.04455,-0.08569 -0.06752,-0.18094 -0.06694,-0.27751c-0.00108,-0.0786 0.01126,-0.15682 0.03651,-0.23126c0.03344,-0.09367 0.08995,-0.17739 0.16432,-0.24343c0.06354,-0.05917 0.13738,-0.1062 0.21787,-0.13876c0.07604,-0.02956 0.15699,-0.04443 0.23856,-0.04382h7.44899v-4.41827h-6.13446c-0.14602,0.00015 -0.28725,-0.05212 -0.39801,-0.14728c-0.02031,-0.01691 -0.03981,-0.03479 -0.05842,-0.05355c-0.05355,-0.05241 -0.09872,-0.11276 -0.13389,-0.17892c-0.04455,-0.08569 -0.06752,-0.18094 -0.06694,-0.27751c-0.00108,-0.0786 0.01126,-0.15682 0.03651,-0.23126c0.03344,-0.09367 0.08995,-0.17739 0.16432,-0.24343c0.06354,-0.05917 0.13738,-0.1062 0.21787,-0.13876c0.07604,-0.02956 0.15699,-0.04443 0.23856,-0.04382h6.13446v-4.45479c-0.00108,-0.0786 0.01126,-0.15682 0.03651,-0.23126c0.03344,-0.09367 0.08995,-0.17739 0.16432,-0.24343c0.06354,-0.05917 0.13738,-0.1062 0.21787,-0.13876c0.07604,-0.02956 0.15699,-0.04443 0.23856,-0.04382c0.07412,-0.00058 0.14793,0.00966 0.21909,0.03043c0.09664,0.02841 0.18456,0.08073 0.2556,0.15214c0.12172,0.12172 0.18257,0.27995 0.18257,0.47469v4.45479h6.09795c0.16335,-0.00018 0.3209,0.06058 0.44183,0.1704c0.00492,0.004 0.00979,0.00806 0.01461,0.01217c0.12411,0.11177 0.19639,0.26997 0.19961,0.43696c0.00069,0.01256 0.0011,0.02515 0.00122,0.03773c-0.00019,0.14618 -0.05289,0.28743 -0.14849,0.39801c-0.01652,0.02029 -0.03398,0.03979 -0.05234,0.05842c-0.05241,0.05355 -0.11276,0.09872 -0.17892,0.13389c-0.08569,0.04455 -0.18094,0.06752 -0.27751,0.06694h-6.09795v4.41827h7.63156c0.07412,-0.00058 0.14793,0.00966 0.21909,0.03043c0.09664,0.02841 0.18456,0.08073 0.2556,0.15214c0.12172,0.12172 0.18257,0.27995 0.18257,0.47469c0.00018,0.16335 -0.06058,0.3209 -0.1704,0.44183c-0.004,0.00492 -0.00806,0.00979 -0.01217,0.01461c-0.11177,0.12411 -0.26997,0.19639 -0.43696,0.19961c-0.01256,0.00069 -0.02515,0.0011 -0.03773,0.00122zM272.31409,196.01169v-12.48801c-0.00001,-0.00852 -0.00001,-0.01704 0,-0.02556c0.00162,-1.08327 0.14159,-1.92676 0.41992,-2.53047c0.24612,-0.53756 0.68663,-0.96199 1.23298,-1.18794c0.07468,-0.03295 0.15061,-0.06299 0.22761,-0.09007c0.25178,-0.08636 0.50974,-0.1535 0.77168,-0.20083c0.5469,-0.10224 1.20215,-0.15661 1.96571,-0.1631c0.05517,-0.00066 0.11036,-0.00106 0.16553,-0.00122h5.11205c1.16603,0 2.09067,0.10751 2.7739,0.32255c0.04323,0.0135 0.08625,0.0277 0.12902,0.0426c0.27544,0.09368 0.53426,0.23049 0.76681,0.40531c0.29988,0.22903 0.53826,0.52889 0.69378,0.8727c0.10293,0.22969 0.18284,0.46902 0.23856,0.71447c0.1209,0.50877 0.18136,1.12262 0.18136,1.84156v9.82244c0.00174,0.29489 -0.01901,0.58948 -0.06207,0.88122c-0.11847,0.77006 -0.40815,1.32223 -0.86905,1.65655c-0.20126,0.14 -0.42185,0.24988 -0.65483,0.3262c-0.46901,0.1631 -1.078,0.26899 -1.82695,0.31768c-0.34686,0.02182 -0.69434,0.03238 -1.04188,0.03165c-0.15846,0.00161 -0.31034,-0.06329 -0.4187,-0.17892c-0.00663,-0.00718 -0.01312,-0.01448 -0.01947,-0.02191c-0.05917,-0.06354 -0.1062,-0.13738 -0.13876,-0.21787c-0.02956,-0.07604 -0.04443,-0.15699 -0.04382,-0.23856c-0.00058,-0.07412 0.00966,-0.14793 0.03043,-0.21909c0.02841,-0.09664 0.08073,-0.18456 0.15214,-0.2556c0.12172,-0.12172 0.26777,-0.18257 0.43818,-0.18257c0.26097,0.0003 0.52192,-0.00538 0.78263,-0.01704c0.75302,-0.03408 1.29627,-0.12333 1.62977,-0.26777c0.04294,-0.01828 0.0848,-0.039 0.12537,-0.06207c0.35946,-0.20692 0.55786,-0.66295 0.59519,-1.36808c0.00471,-0.08553 0.00714,-0.17117 0.0073,-0.25682v-3.79752h-12.04984v6.53612c0.00018,0.16335 -0.06058,0.3209 -0.1704,0.44183c-0.004,0.00492 -0.00806,0.00979 -0.01217,0.01461c-0.11177,0.12411 -0.26997,0.19639 -0.43696,0.19961c-0.01256,0.00069 -0.02515,0.0011 -0.03773,0.00122c-0.14602,0.00015 -0.28725,-0.05212 -0.39801,-0.14728c-0.02031,-0.01691 -0.03981,-0.03479 -0.05842,-0.05355c-0.05355,-0.05241 -0.09872,-0.11276 -0.13389,-0.17892c-0.04455,-0.08569 -0.06752,-0.18094 -0.06694,-0.27751zM263.40452,196.01169v-32.13289c-0.00108,-0.0786 0.01126,-0.15682 0.03651,-0.23126c0.03344,-0.09367 0.08995,-0.17739 0.16432,-0.24343c0.06354,-0.05917 0.13738,-0.1062 0.21787,-0.13876c0.07604,-0.02956 0.15699,-0.04443 0.23856,-0.04382c0.07412,-0.00058 0.14793,0.00966 0.21909,0.03043c0.09664,0.02841 0.18456,0.08073 0.2556,0.15214c0.12172,0.12172 0.18257,0.27995 0.18257,0.47469v32.13289c0.00018,0.16335 -0.06058,0.3209 -0.1704,0.44183c-0.004,0.00492 -0.00806,0.00979 -0.01217,0.01461c-0.11177,0.12411 -0.26997,0.19639 -0.43696,0.19961c-0.01256,0.00069 -0.02515,0.0011 -0.03773,0.00122c-0.14602,0.00015 -0.28725,-0.05212 -0.39801,-0.14728c-0.02031,-0.01691 -0.03981,-0.03479 -0.05842,-0.05355c-0.05355,-0.05241 -0.09872,-0.11276 -0.13389,-0.17892c-0.04455,-0.08569 -0.06752,-0.18094 -0.06694,-0.27751zM213.34293,180.67553h-23.40589c-0.12951,-0.00061 -0.25585,-0.04004 -0.36271,-0.1132c-0.03958,-0.02621 -0.07703,-0.0555 -0.11198,-0.08764c-0.05169,-0.04634 -0.09675,-0.09958 -0.13389,-0.15823c-0.0561,-0.08931 -0.08565,-0.19274 -0.0852,-0.2982c-0.00107,-0.08512 0.01508,-0.16957 0.04747,-0.2483c0.0381,-0.08821 0.09698,-0.16589 0.17162,-0.22639c0.06293,-0.05325 0.1335,-0.09674 0.20935,-0.12902c0.08397,-0.03541 0.1742,-0.05363 0.26534,-0.05355h23.40589c0.07412,-0.00058 0.14793,0.00966 0.21909,0.03043c0.09664,0.02841 0.18456,0.08073 0.2556,0.15214c0.09899,0.09899 0.15783,0.22234 0.17649,0.37002c0.00419,0.03474 0.00622,0.06969 0.00609,0.10468c0.00018,0.16335 -0.06058,0.3209 -0.1704,0.44183c-0.004,0.00492 -0.00806,0.00979 -0.01217,0.01461c-0.11177,0.12411 -0.26997,0.19639 -0.43696,0.19961c-0.01256,0.00069 -0.02515,0.0011 -0.03773,0.00122zM273.62862,184.98426v3.32283h12.04984v-3.32283zM273.62862,183.52368v0.29212h12.04984v-0.29212c0,-0.74408 -0.0783,-1.3263 -0.23491,-1.74662c-0.0122,-0.03277 -0.02518,-0.06523 -0.03895,-0.09737c-0.18257,-0.426 -0.52338,-0.71204 -1.02241,-0.85809c-0.1703,-0.04854 -0.34348,-0.08634 -0.51851,-0.1132c-0.37894,-0.06004 -0.837,-0.09454 -1.37417,-0.10346c-0.09331,-0.00157 -0.18663,-0.00239 -0.27995,-0.00243h-5.11205c-0.24921,-0.00051 -0.4984,0.00517 -0.74733,0.01704c-0.48199,0.02434 -0.88649,0.07343 -1.2135,0.14728c-0.07114,0.01607 -0.14177,0.03432 -0.21178,0.05477c-0.17542,0.04943 -0.3424,0.12492 -0.49538,0.22396c-0.23501,0.15407 -0.41856,0.37491 -0.52703,0.63414c-0.16553,0.38544 -0.256,0.92585 -0.27143,1.62125c-0.00164,0.07423 -0.00246,0.14848 -0.00243,0.22274zM321.35327,177.79088h-3.32283c0.08314,1.10195 0.25161,2.19581 0.5039,3.27171c0.14636,0.61648 0.32553,1.22471 0.53677,1.82208c0.48468,1.38346 1.1228,2.70827 1.90241,3.94967c0.06472,0.10208 0.13044,0.20352 0.19718,0.30429c1.14413,-1.99613 1.95962,-4.3209 2.44648,-6.9743c0.02158,-0.11264 0.03985,-0.22588 0.05477,-0.33959c0.0925,-0.71894 0.00122,-1.22649 -0.27386,-1.52266c-0.31646,-0.3408 -0.99807,-0.51121 -2.04482,-0.51121zM258.51399,181.14779c0.06345,0.05228 0.13731,0.09045 0.21665,0.11198c0.00566,0.00169 0.01134,0.00331 0.01704,0.00487c0.09412,0.02434 0.18622,0.0284 0.27629,0.01217c0.0699,-0.01328 0.13727,-0.03751 0.19961,-0.07181c0.00366,-0.002 0.00732,-0.00403 0.01095,-0.00609c0.14745,-0.07924 0.25575,-0.21572 0.29942,-0.37732c0.0594,-0.20913 0.115,-0.41933 0.16675,-0.63049c0.09088,-0.36677 0.1777,-0.76275 0.26047,-1.18794c0.08453,-0.4331 0.16122,-0.8677 0.23004,-1.30357c0.19474,-1.22933 0.36515,-2.483 0.51121,-3.76101c0.04399,-0.38308 0.08497,-0.76649 0.12293,-1.15021c0.07952,-0.80819 0.13592,-1.53848 0.16918,-2.19088c0.00402,-0.02781 0.00605,-0.05588 0.00609,-0.08398c0,-0.13632 -0.05072,-0.26047 -0.15214,-0.37245c-0.00676,-0.00744 -0.01364,-0.01474 -0.02069,-0.02191c-0.10807,-0.11531 -0.25945,-0.18019 -0.41748,-0.17892c-0.02781,-0.00402 -0.05588,-0.00605 -0.08398,-0.00609c-0.13714,0 -0.26129,0.05072 -0.37245,0.15214c-0.00744,0.00676 -0.01474,0.01364 -0.02191,0.02069c-0.11531,0.10807 -0.18019,0.25945 -0.17892,0.41748c-0.01542,0.41058 -0.04017,0.86661 -0.07425,1.36808c-0.02175,0.31703 -0.04569,0.63391 -0.07181,0.9506c-0.01857,0.2241 -0.03885,0.44807 -0.06086,0.67187c-0.06831,0.6967 -0.1515,1.39185 -0.24952,2.08499c-0.03516,0.24897 -0.07208,0.49767 -0.11076,0.74612c-0.10116,0.6544 -0.21641,1.30654 -0.34567,1.95597c-0.03845,0.19275 -0.07902,0.38507 -0.12172,0.57693c-0.06898,0.30834 -0.13957,0.59641 -0.21178,0.86418c-0.06464,0.23973 -0.13608,0.47758 -0.21422,0.71325c-0.02434,0.1704 0,0.33472 0.07303,0.49295c0.03409,0.07638 0.08482,0.14416 0.14849,0.1984zM181.72002,168.99571c0.06643,-0.02914 0.12832,-0.06766 0.18379,-0.11441c0.12172,-0.12172 0.19474,-0.27386 0.21909,-0.45643c0.02434,-0.18257 -0.02434,-0.33472 -0.14606,-0.45643c-0.18257,-0.20043 -0.43047,-0.44913 -0.74368,-0.74612c-0.11044,-0.10503 -0.22162,-0.2093 -0.3335,-0.31281c-0.47469,-0.43818 -0.94938,-0.86418 -1.42407,-1.27801c-0.02147,-0.0187 -0.04298,-0.03735 -0.06451,-0.05599c-0.44629,-0.38624 -0.82036,-0.68404 -1.12222,-0.89339c-0.1136,-0.09412 -0.23451,-0.14079 -0.36271,-0.13997c-0.03765,0.00024 -0.07516,0.00432 -0.11198,0.01217c-0.08271,0.01756 -0.16176,0.04927 -0.23369,0.09372c-0.07747,0.04856 -0.14653,0.10941 -0.20448,0.18014c-0.00247,0.00404 -0.00491,0.00809 -0.0073,0.01217c-0.09169,0.14281 -0.12577,0.29699 -0.10224,0.46252c0.01248,0.09171 0.04443,0.1797 0.09372,0.25804c0.04419,0.06816 0.09882,0.12895 0.16188,0.18014c0.20043,0.13389 0.44143,0.31362 0.72299,0.5392c0.13762,0.1108 0.27396,0.22319 0.40896,0.33715c0.46252,0.38949 0.91287,0.78507 1.35104,1.18673c0.04154,0.03796 0.08292,0.0761 0.12415,0.11441c0.24587,0.22964 0.454,0.43614 0.6244,0.61953c0.0819,0.08759 0.16105,0.1777 0.23735,0.27021c0.12172,0.14606 0.26777,0.22517 0.43818,0.23735c0.0154,0.00096 0.03083,0.00136 0.04625,0.00122c0.08439,0 0.16593,-0.01704 0.24465,-0.05112zM178.81589,171.86942c0.08582,-0.01879 0.16722,-0.05392 0.23978,-0.10346c0.01983,-0.0166 0.03891,-0.03406 0.05721,-0.05234c0.10728,-0.10291 0.17711,-0.23871 0.1984,-0.38584c0.01542,-0.10873 0.00122,-0.21219 -0.0426,-0.31037c-0.02668,-0.05931 -0.0615,-0.11462 -0.10346,-0.16432c-0.21909,-0.29212 -0.54772,-0.66944 -0.9859,-1.13195c-0.43818,-0.46252 -0.88244,-0.91895 -1.33278,-1.3693c-0.30997,-0.30997 -0.5822,-0.56476 -0.81671,-0.76437c-0.09648,-0.08299 -0.19552,-0.16295 -0.29699,-0.23978c-0.02658,-0.02216 -0.05464,-0.0425 -0.08398,-0.06086c-0.09737,-0.06086 -0.19961,-0.09129 -0.30672,-0.09129c-0.0281,0.00005 -0.05617,0.00208 -0.08398,0.00609c-0.1704,0.02434 -0.31646,0.09737 -0.43818,0.21909c-0.02378,0.02975 -0.04612,0.06061 -0.06694,0.0925c-0.15823,0.24748 -0.1562,0.47509 0.00609,0.68282c0.03981,0.05029 0.08468,0.09639 0.13389,0.13754c0.20043,0.15093 0.43291,0.3477 0.69743,0.59032c0.12824,0.11793 0.25484,0.23763 0.37975,0.35906c0.426,0.41383 0.84592,0.83984 1.25976,1.27801c0.2905,0.30834 0.52743,0.5745 0.71082,0.79845c0.06973,0.08496 0.1371,0.17181 0.20205,0.26047c0.01657,0.02024 0.03403,0.03974 0.05234,0.05842c0.10308,0.10683 0.23887,0.17622 0.38584,0.19718c0.08115,0.01136 0.15945,0.00934 0.23491,-0.00609zM269.22008,174.7492c0.04742,-0.01603 0.0931,-0.03683 0.13632,-0.06207c0.14606,-0.09737 0.24952,-0.23126 0.31037,-0.40166c0.00124,-0.00364 0.00246,-0.00729 0.00365,-0.01095c0.0349,-0.10306 0.04544,-0.2061 0.03165,-0.30916c-0.0091,-0.06584 -0.02712,-0.13011 -0.05355,-0.19109c-0.16959,-0.33918 -0.37813,-0.72177 -0.62562,-1.14778c-0.15342,-0.26439 -0.31005,-0.52691 -0.46982,-0.7875c-0.46252,-0.75464 -0.91287,-1.47276 -1.35104,-2.15436c-0.01736,-0.02422 -0.03563,-0.04777 -0.05477,-0.07059c-0.19636,-0.23531 -0.42317,-0.2978 -0.68039,-0.18744c-0.04906,0.0212 -0.09629,0.04645 -0.14119,0.07546c-0.0242,0.01695 -0.04775,0.03482 -0.07059,0.05355c-0.23613,0.19718 -0.2986,0.42439 -0.18744,0.68161c0.0212,0.04906 0.04645,0.09629 0.07546,0.14119c0.05935,0.08047 0.11777,0.16163 0.17527,0.24343c0.35866,0.50877 0.72624,1.10314 1.10274,1.78313c0.13028,0.23522 0.2589,0.47134 0.38584,0.70838c0.1201,0.22396 0.23207,0.43696 0.33593,0.63901c0.11552,0.22482 0.22791,0.45124 0.33715,0.67917c0.09737,0.14606 0.22517,0.24952 0.3834,0.31037c0.11523,0.04463 0.2341,0.04707 0.35663,0.0073zM300.79674,181.13927c0.05058,-0.01484 0.09921,-0.03569 0.14484,-0.06207c0.36515,-0.12172 0.48686,-0.36515 0.36515,-0.73029c-0.04018,-0.12846 -0.08116,-0.25667 -0.12293,-0.38462c-0.04382,-0.1347 -0.09088,-0.27589 -0.14119,-0.42357c-0.06317,-0.18736 -0.12727,-0.3744 -0.19231,-0.56111c-0.18257,-0.52338 -0.37123,-1.04067 -0.56598,-1.55187c-0.1282,-0.33512 -0.24546,-0.62845 -0.35176,-0.88c-0.05129,-0.12131 -0.10444,-0.24182 -0.15945,-0.3615c-0.17202,-0.36515 -0.42884,-0.50309 -0.77046,-0.41383c-0.04852,0.013 -0.09609,0.02926 -0.14241,0.04869c-0.03681,0.01368 -0.0726,0.02994 -0.10711,0.04869c-0.1289,0.06663 -0.22767,0.17975 -0.27629,0.31646c-0.00124,0.00364 -0.00246,0.00729 -0.00365,0.01095c-0.0357,0.10306 -0.04625,0.2061 -0.03165,0.30916c0.0091,0.06584 0.02712,0.13011 0.05355,0.19109c0.24343,0.48686 0.52338,1.13195 0.83984,1.93528c0.0949,0.24063 0.18781,0.48204 0.27873,0.72421c0.08682,0.23207 0.16797,0.45481 0.24343,0.66822c0.08508,0.24061 0.16664,0.48243 0.24465,0.72542c0.02489,0.09276 0.07404,0.17721 0.14241,0.24465c0.05411,0.0513 0.11725,0.09215 0.18622,0.1205c0.01123,0.00478 0.02259,0.00925 0.03408,0.01339c0.11036,0.03976 0.22112,0.04382 0.33228,0.01217z"/></g></g></svg>