<svg version="1.1" xmlns="http://www.w3.org/2000/svg" xmlns:xlink="http://www.w3.org/1999/xlink" width="40.17569" height="72.091" viewBox="0,0,40.17569,72.091"><g transform="translate(-219.70467,-145.70938)"><g data-paper-data="{&quot;isPaintingLayer&quot;:true}" fill="#000000" fill-rule="evenodd" stroke="#000000" stroke-width="5" stroke-linecap="round" stroke-linejoin="miter" stroke-miterlimit="10" stroke-dasharray="" stroke-dashoffset="0" style="mix-blend-mode: normal"><path d="M255.44151,215.30038h-31.3c-1.16867,0 -1.825,-0.43533 -1.969,-1.306c-0.0211,-0.13026 -0.03147,-0.26204 -0.031,-0.394c0,-3.53333 0.85,-6.85 2.55,-9.95c1.27392,-2.30584 2.74224,-4.4988 4.389,-6.555c0.67874,-0.85244 1.38272,-1.68447 2.111,-2.495c2.63333,-2.93333 5.35,-5.8 8.15,-8.6c2.53333,-2.6 4.93333,-5.13333 7.2,-7.6c1.22265,-1.32446 2.37266,-2.71416 3.445,-4.163c0.77096,-1.04302 1.49016,-2.12333 2.155,-3.237c0.81732,-1.35346 1.43756,-2.81651 1.842,-4.345c0.27597,-1.06405 0.42963,-2.15611 0.458,-3.255c0.09667,-3.668 -0.53167,-6.67233 -1.885,-9.013c-0.5063,-0.87943 -1.13415,-1.68302 -1.865,-2.387c-2.50333,-2.40867 -5.92567,-3.67233 -10.267,-3.791c-0.22761,-0.00611 -0.4553,-0.00911 -0.683,-0.009c-3.53333,0 -6.6,1.13333 -9.2,3.4c-1.60794,1.42331 -2.80773,3.24924 -3.476,5.29c-0.424,1.22867 -0.71267,2.58433 -0.866,4.067c-0.0223,0.21406 -0.04163,0.42841 -0.058,0.643c-0.12467,1.24733 -0.658,1.91133 -1.6,1.992c-0.06652,0.0055 -0.13325,0.00817 -0.2,0.008c-0.23942,0.00399 -0.47789,-0.03114 -0.706,-0.104c-0.70267,-0.23733 -1.03467,-0.88433 -0.996,-1.941c0.00056,-0.01834 0.00123,-0.03667 0.002,-0.055c0.14556,-2.04043 0.58024,-4.04983 1.291,-5.968c0.87275,-2.32674 2.24064,-4.43606 4.009,-6.182c2.90761,-2.89395 6.82042,-4.55336 10.922,-4.632c0.29251,-0.01211 0.58524,-0.01812 0.878,-0.018c1.88084,-0.015 3.75696,0.1904 5.59,0.612c2.99554,0.66438 5.7395,2.16922 7.91,4.338c3.078,3.10933 4.617,7.388 4.617,12.836c0.00003,0.33807 -0.00564,0.67612 -0.017,1.014c-0.07123,2.76095 -0.77967,5.46808 -2.07,7.91c-0.13775,0.26633 -0.28111,0.52973 -0.43,0.79c-1.14622,1.99233 -2.44723,3.89151 -3.891,5.68c-0.6928,0.86265 -1.41283,1.70308 -2.159,2.52c-2.43333,2.66667 -4.95,5.33333 -7.55,8c-2.46667,2.53333 -4.86667,5.06667 -7.2,7.6c-1.47741,1.59638 -2.85343,3.28368 -4.12,5.052c-0.62604,0.87732 -1.21977,1.77726 -1.78,2.698c-1.01543,1.64919 -1.80007,3.42975 -2.332,5.292c-0.26293,0.93655 -0.45283,1.89208 -0.568,2.858h29.7c1.16867,0 1.82533,0.43533 1.97,1.306c0.02076,0.13029 0.0308,0.26207 0.03,0.394c0,1.06533 -0.589,1.63 -1.767,1.694c-0.0776,0.0041 -0.15529,0.00611 -0.233,0.006z"/></g></g></svg>