<svg version="1.1" xmlns="http://www.w3.org/2000/svg" xmlns:xlink="http://www.w3.org/1999/xlink" width="19.95168" height="24.78631" viewBox="0,0,19.95168,24.78631"><g transform="translate(-230.01083,-166.94947)"><g data-paper-data="{&quot;isPaintingLayer&quot;:true}" fill="#000000" fill-rule="evenodd" stroke="#000000" stroke-width="2" stroke-linecap="round" stroke-linejoin="miter" stroke-miterlimit="10" stroke-dasharray="" stroke-dashoffset="0" style="mix-blend-mode: normal"><path d="M231.04981,169.11043c0.01659,-0.17932 0.0499,-0.34029 0.09992,-0.4829c0.09308,-0.29607 0.30335,-0.54111 0.58185,-0.67806c0.37056,-0.18059 0.78044,-0.15381 1.22963,0.08032c0.12418,0.06558 0.24334,0.14026 0.35649,0.22343l14.85939,10.44594c0.23009,0.15938 0.40966,0.3275 0.5387,0.50436c0.15674,0.20482 0.24326,0.45472 0.24673,0.71261c0.00083,0.17257 -0.03738,0.34309 -0.11179,0.4988c-0.12149,0.25795 -0.34194,0.49996 -0.66136,0.726l-14.75358,10.59486c-0.58662,0.4359 -1.11428,0.54246 -1.58298,0.31969c-0.20863,-0.0978 -0.38101,-0.25904 -0.4925,-0.46069c-0.07741,-0.13694 -0.13398,-0.2972 -0.16971,-0.48076c-0.03138,-0.16807 -0.04693,-0.33872 -0.04647,-0.5097l-0.1066,-21.19665c-0.00071,-0.09922 0.00338,-0.19842 0.01227,-0.29724z" data-paper-data="{&quot;index&quot;:null}"/></g></g></svg>