<svg version="1.1" xmlns="http://www.w3.org/2000/svg" xmlns:xlink="http://www.w3.org/1999/xlink" width="356.85436" height="55.05255" viewBox="0,0,356.85436,55.05255"><g transform="translate(-61.57285,-152.47375)"><g data-paper-data="{&quot;isPaintingLayer&quot;:true}" stroke-linejoin="miter" stroke-miterlimit="10" stroke-dasharray="" stroke-dashoffset="0" style="mix-blend-mode: normal"><path d="M417.17721,159.76239v40.47527c0,3.34558 -7.08649,6.03864 -15.89018,6.03864h-322.574c-8.80362,0 -15.89018,-2.69306 -15.89018,-6.03864v-40.47527c0,-3.34558 7.08649,-6.03864 15.89018,-6.03864h322.574c8.80362,0 15.89018,2.69306 15.89018,6.03864z" fill="#b0ff57" fill-rule="nonzero" stroke="#87ff00" stroke-width="2.5" stroke-linecap="butt"/><path d="M157.15486,180.52096l-2.60783,9.74189c-0.06764,0.19058 -0.21678,0.34104 -0.40676,0.41036c-0.09072,0.03717 -0.19504,0.06395 -0.31294,0.08033c-0.09927,0.01312 -0.19932,0.01943 -0.29945,0.01888h-7.01416c-0.07993,0 -0.15987,-0.005 -0.2398,-0.01499c-0.07993,-0.00999 -0.14988,-0.02498 -0.20983,-0.04496c-0.04885,-0.02966 -0.10069,-0.05407 -0.15467,-0.07284c-0.04696,-0.01624 -0.09565,-0.027 -0.14508,-0.03207c-0.02925,-0.00291 -0.05852,-0.00551 -0.08783,-0.00779c-0.06015,-0.0048 -0.11081,-0.00719 -0.15197,-0.00719h-0.32973c-0.042,-0.00391 -0.08299,-0.01517 -0.1211,-0.03327c-0.06814,-0.03397 -0.11291,-0.09132 -0.13429,-0.17206c-0.01011,-0.04068 -0.01494,-0.08249 -0.01439,-0.1244l-2.1582,-9.20234c-0.14728,-0.60729 -0.26058,-1.04933 -0.33992,-1.3261c-0.0065,-0.02261 -0.01309,-0.04519 -0.01978,-0.06774c-0.07993,-0.26978 -0.13988,-0.46961 -0.17985,-0.5995c-0.01371,-0.04475 -0.0267,-0.08972 -0.03897,-0.13489c-0.02758,-0.10152 -0.05725,-0.22142 -0.08903,-0.3597c-0.00231,-0.00999 -0.00461,-0.01998 -0.00689,-0.02998c-0.04596,-0.20243 -0.11311,-0.54884 -0.20143,-1.03924c-0.00783,-0.04326 -0.01562,-0.08652 -0.02338,-0.12979c-0.02906,-0.01883 -0.05454,-0.04268 -0.07524,-0.07044c-0.06495,-0.08193 -0.13189,-0.22022 -0.20083,-0.41485c-0.01342,-0.03789 -0.02631,-0.07596 -0.03867,-0.1142c-0.10811,-0.33432 -0.18245,-0.7171 -0.22301,-1.14834c-0.00061,-0.00689 -0.00121,-0.01379 -0.0018,-0.02068c-0.05715,-0.85829 -0.14168,-1.55271 -0.25359,-2.08327c-0.00526,-0.02501 -0.01065,-0.04999 -0.01619,-0.07494c-0.09172,-0.41306 -0.17186,-0.75587 -0.2404,-1.02844c-0.01922,-0.07698 -0.039,-0.15382 -0.05935,-0.23051c-0.01626,-0.06056 -0.03095,-0.12153 -0.04406,-0.18285c-0.04416,-0.20803 -0.05445,-0.36689 -0.03087,-0.4766c0.01361,-0.05841 0.04466,-0.11131 0.08903,-0.15167c0.05855,-0.05635 0.14418,-0.10561 0.25689,-0.14778c0.02926,-0.01098 0.05885,-0.02108 0.08873,-0.03027c0.45962,-0.03997 0.92423,-0.08493 1.39384,-0.13489c0.32293,-0.03437 0.61269,-0.06635 0.86928,-0.09592c0.10995,-0.01267 0.21986,-0.02566 0.32973,-0.03897l0.49459,-0.05995l0.86928,-0.14988h0.26978l0.74938,-0.17985h0.17985c0.01339,-0.02678 0.02678,-0.04456 0.04017,-0.05336c0.00579,-0.00412 0.01268,-0.00642 0.01978,-0.00659h0.02998v0.05995h0.05995c0.01659,0 0.03317,-0.00689 0.04976,-0.02068c0.00354,-0.00294 0.00694,-0.00604 0.01019,-0.00929c0.00562,-0.00573 0.01174,-0.01094 0.01828,-0.01559c0.01379,-0.00959 0.02768,-0.01439 0.04167,-0.01439c0.09992,-0.01998 0.20983,-0.04496 0.32973,-0.07494c0.02066,-0.00519 0.04134,-0.01028 0.06205,-0.01529c0.07214,-0.01739 0.1189,-0.02708 0.14028,-0.02908c0.00249,-0.00032 0.00499,-0.00052 0.00749,-0.0006h0.1199l0.2398,-0.05995c0.12609,-0.03597 0.30105,-0.06794 0.52486,-0.09592c0.02487,-0.00311 0.04975,-0.00611 0.07464,-0.00899c0.13357,-0.0157 0.26654,-0.03609 0.39867,-0.06115c0.14888,-0.02798 0.30575,-0.06255 0.47061,-0.10371c0.33972,-0.15987 0.57452,-0.02498 0.70441,0.40466c0.04466,0.14863 0.08673,0.29803 0.12619,0.44813c0.09572,0.3619 0.19854,0.79704 0.30844,1.30541c0,0.06495 0.0033,0.11011 0.00989,0.13549c0.0012,0.00496 0.00291,0.00978 0.0051,0.01439c0.00285,0.00625 0.00535,0.01266 0.00749,0.01918c0.01159,0.03277 0.03207,0.10122 0.06145,0.20533c0.00704,0.02507 0.01404,0.05015 0.02098,0.07524c0.01316,0.04839 0.02525,0.09706 0.03627,0.14598c0.04756,0.20703 0.11041,0.53306 0.18854,0.97809c0.09992,0.56953 0.24979,1.46378 0.44963,2.68277v0.08993c0.01858,0.03717 0.02848,0.10861 0.02968,0.21432c0.00015,0.00849 0.00025,0.01699 0.0003,0.02548l0.1199,0.56953c0,0.05436 0.0046,0.1179 0.01379,0.19064c0.00469,0.03647 0.01008,0.07285 0.01619,0.10911c0.01998,0.1199 0.03997,0.25978 0.05995,0.41965c0.00936,0.02804 0.01796,0.05632 0.02578,0.08483c0.00779,0.02798 0.01419,0.05466 0.01918,0.08003c0.00679,0.03357 0.01129,0.07394 0.01349,0.1211c0.00107,0.02456 0.00157,0.04915 0.0015,0.07374c0.01165,0.04692 0.02464,0.09351 0.03897,0.13968c0.02918,0.09332 0.06055,0.17066 0.09412,0.23201c0.0006,0.001 0.0012,0.002 0.0018,0.003c0.02229,0.03995 0.0424,0.08108 0.06025,0.1232c0.01918,0.04536 0.03407,0.08923 0.04466,0.13159c0.01951,0.0399 0.03391,0.08209 0.04286,0.1256c0.01139,0.05236 0.01709,0.11041 0.01709,0.17416l0.05995,0.26978v0.08993c-0.0002,0.0226 0.00161,0.04517 0.0054,0.06744c0.00859,0.04716 0.02678,0.08463 0.05455,0.11241v0.17985l0.05995,-0.17985v-0.26978c0.00011,-0.00533 0.00061,-0.01064 0.0015,-0.01589c0.0028,-0.01878 0.00979,-0.04586 0.02098,-0.08123c0.00244,-0.00761 0.00494,-0.01521 0.00749,-0.02278c0.01998,-0.05995 0.03997,-0.10991 0.05995,-0.14988c0,-0.05995 0.01499,-0.13489 0.04496,-0.22481c0.02818,-0.08433 0.04306,-0.18185 0.04466,-0.29256c0.00016,-0.00739 0.00026,-0.01479 0.0003,-0.02218c0,-0.13988 0.02998,-0.26978 0.08993,-0.38968l0.05995,-0.3597l0.29975,-0.7194c0.0354,-0.04368 0.0652,-0.09161 0.08873,-0.14268c0.02497,-0.05434 0.04058,-0.11251 0.04616,-0.17206c0.00999,-0.10991 0.01499,-0.19484 0.01499,-0.25479l0.02998,-0.32973c0.09952,-0.4778 0.2387,-1.00506 0.41755,-1.58178c0.0007,-0.0023 0.0014,-0.0046 0.0021,-0.00689c0.17985,-0.57952 0.3647,-1.11907 0.55454,-1.61865c0.14528,-0.38248 0.25838,-0.69472 0.33932,-0.93672c0.02259,-0.06718 0.04438,-0.13463 0.06535,-0.20233c0.0164,-0.08045 0.04132,-0.15893 0.07434,-0.23411c0.0096,-0.02215 0.0198,-0.04404 0.03057,-0.06565c0.02731,-0.05321 0.0655,-0.10009 0.11211,-0.13759c0.03357,-0.02798 0.07274,-0.05346 0.1175,-0.07644c0.01808,-0.00923 0.03648,-0.01782 0.05515,-0.02578c0.01998,0 0.04496,-0.00999 0.07494,-0.02998c0.01251,-0.00824 0.02471,-0.01693 0.03657,-0.02608c0.01199,-0.00959 0.02298,-0.01908 0.03297,-0.02848c0.00182,-0.00178 0.00362,-0.00358 0.0054,-0.0054c0.13189,-0.03297 0.21622,-0.05236 0.25299,-0.05815c0.00555,-0.00098 0.01116,-0.00158 0.01679,-0.0018c0.21982,-0.01998 0.40966,-0.03997 0.56953,-0.05995c0.12929,-0.01619 0.23251,-0.02578 0.30964,-0.02878c0.01668,-0.00073 0.03337,-0.00113 0.05006,-0.0012h0.53955l3.65696,0.1199c0.1199,0.01998 0.22981,0.02998 0.32973,0.02998h0.26978c0.03459,-0.00007 0.06917,0.00083 0.10371,0.0027c0.15067,0.00859 0.22601,0.03767 0.22601,0.08723c0.01998,0 0.04996,-0.01998 0.08993,-0.05995c0.01619,-0.01619 0.04556,-0.02578 0.08813,-0.02878c0.01057,-0.00078 0.02117,-0.00118 0.03177,-0.0012c0.01318,-0.01253 0.02865,-0.0224 0.04556,-0.02908c0.04676,-0.01978 0.1172,-0.03008 0.21132,-0.03087c0.0043,-0.00002 0.00859,-0.00002 0.01289,0h0.5995c0.29975,0 0.48959,0.04996 0.56953,0.14988l1.16903,5.24563l0.05995,0.3597c0.01395,0.07059 0.03035,0.14067 0.04916,0.21013c0.01858,0.06774 0.03857,0.13009 0.05995,0.18704c0.01243,0.03295 0.02602,0.06544 0.04077,0.09742c0.01048,0.02265 0.02067,0.04543 0.03057,0.06834c0.03038,0.07074 0.04906,0.1238 0.05605,0.15917c0.00197,0.00897 0.00307,0.0181 0.0033,0.02728l0.14988,0.9592c0.01998,0.17985 0.03997,0.34971 0.05995,0.50958c0.01639,0.13069 0.03267,0.2346 0.04886,0.31174c0.0034,0.01605 0.0071,0.03204 0.01109,0.04796c0,0.1199 0.005,0.2398 0.01499,0.3597c0.00679,0.08253 0.01599,0.17445 0.02758,0.27577c0.00555,0.04799 0.01134,0.09595 0.01739,0.14388c0.01531,0.00745 0.02929,0.01737 0.04137,0.02938c0.0165,0.01674 0.02811,0.03768 0.03357,0.06055c0.00305,0.01254 0.00696,0.02486 0.01169,0.03687c0.005,0.01219 0.01059,0.02308 0.01679,0.03267c0.00479,0.00734 0.01031,0.01417 0.01649,0.02038v0.1199v0.10491c-0.00011,0.02677 0.00311,0.05346 0.00959,0.07943c0.00477,0.01917 0.01161,0.03776 0.02038,0.05545l0.02998,0.14988c0.03997,-0.05995 0.08993,-0.10991 0.14988,-0.14988v-0.53955l0.1199,-0.77935l0.14988,-0.86928c0.01998,-0.15987 0.03497,-0.31973 0.04496,-0.4796c0.00999,-0.15987 0.05495,-0.31973 0.13489,-0.4796l0.05995,-0.74938l0.05995,-0.2398v-0.1199c0.07154,-0.26818 0.12709,-0.49229 0.16666,-0.67234c0.00448,-0.02066 0.00888,-0.04135 0.01319,-0.06205c0.01426,-0.06751 0.02785,-0.13515 0.04077,-0.20293c0.02018,-0.10691 0.03657,-0.20413 0.04916,-0.29166l0.1199,-0.5995c0.21982,-1.03913 0.37968,-1.81849 0.4796,-2.33805c0.09992,-0.51957 0.17985,-0.89925 0.2398,-1.13905c0.02143,-0.08564 0.04251,-0.17137 0.06325,-0.25719c0.03277,-0.13569 0.06165,-0.25978 0.08663,-0.37229c0.01615,-0.1049 0.03746,-0.20894 0.06385,-0.31174c0.05415,-0.20743 0.1251,-0.37299 0.21282,-0.49669c0.00747,-0.01046 0.01516,-0.02075 0.02308,-0.03087c0.05995,0 0.1199,0.005 0.17985,0.01499c0.01686,0.00276 0.03388,0.00436 0.05096,0.0048c0.04616,0.0014 0.09742,-0.0048 0.15377,-0.01858c0.0017,-0.00039 0.0034,-0.00079 0.0051,-0.0012c0.09992,-0.01998 0.17985,-0.02998 0.2398,-0.02998h0.17985c0.02749,0.00003 0.05497,0.00063 0.08243,0.0018c0.08993,0.0038 0.20233,0.01319 0.33722,0.02818c0.17985,0.01998 0.30974,0.01998 0.38968,0h0.05995c0.01125,0.00038 0.02246,0.00148 0.03357,0.0033c0.05276,0.00739 0.15227,0.02818 0.29855,0.06235c0.0342,0.00799 0.06837,0.01608 0.10251,0.02428l0.37469,0.08993c0.01053,0.00264 0.02113,0.00504 0.03177,0.00719c0.04876,0.00979 0.08363,0.01029 0.10461,0.0015c0.00502,-0.002 0.0096,-0.00495 0.01349,-0.00869c0.00201,-0.00211 0.00421,-0.00402 0.00659,-0.0057c0.01739,-0.01139 0.03477,-0.0002 0.05216,0.03357c0.0004,0.0007 0.0008,0.0014 0.0012,0.0021c0.01426,0.00724 0.02936,0.01268 0.04496,0.01619c0.01159,0.0026 0.02328,0.0039 0.03507,0.0039c0.01345,-0.00006 0.02684,-0.00177 0.03987,-0.0051c0.02398,-0.006 0.04436,-0.00659 0.06115,-0.0018c0.01088,0.00302 0.0208,0.0088 0.02878,0.01679l0.17985,0.08993c0.2398,0.1199 0.43963,0.17985 0.5995,0.17985l1.04913,0.14988c0.17378,0.02456 0.3469,0.05364 0.51917,0.08723c0.15687,0.03077 0.30385,0.06425 0.44093,0.10042c0.04482,0.01183 0.08948,0.02422 0.13399,0.03717c0.28157,0.08173 0.46821,0.1181 0.55993,0.10911c0.00828,-0.0008 0.0165,-0.0022 0.02458,-0.0042l0.7194,0.20983c0.17985,0.07993 0.25479,0.31474 0.22481,0.70441c-0.01466,0.18211 -0.03837,0.36339 -0.07104,0.54315c-0.03277,0.18465 -0.07544,0.37908 -0.12799,0.58331c-0.01784,0.06934 -0.03643,0.13849 -0.05575,0.20743c-0.13988,0.49958 -0.26978,0.97918 -0.38968,1.4388c-0.09712,0.37209 -0.15487,0.67214 -0.17326,0.90015c-0.0042,0.04955 -0.0064,0.09925 -0.00659,0.14898c-0.03823,0.18171 -0.0763,0.36346 -0.1142,0.54525c-0.10871,0.52077 -0.20053,0.96849 -0.27547,1.34318c-0.04674,0.23405 -0.0947,0.46786 -0.14388,0.70142c-0.04836,0.22861 -0.09532,0.44443 -0.14088,0.64746c-0.08993,0.39967 -0.18485,0.80933 -0.28476,1.22898c-0.04079,0.17063 -0.08386,0.3407 -0.12919,0.51018c-0.04057,0.15207 -0.08513,0.31304 -0.13369,0.4829c-0.05103,0.17891 -0.10329,0.35746 -0.15677,0.53565l-2.2781,8.51291c-0.0358,0.00477 -0.07098,0.01341 -0.10491,0.02578c-0.04177,0.01579 -0.07664,0.03707 -0.10461,0.06385c-0.02634,0.02539 -0.04689,0.05616 -0.06025,0.09022v0.14988h-0.68943l-0.38968,0.08993l-4.43631,-0.08993h-3.53706c-0.04415,-0.00828 -0.08707,-0.02218 -0.12769,-0.04137c-0.09672,-0.04716 -0.15267,-0.123 -0.16786,-0.22751c-0.00285,-0.02016 -0.00426,-0.04049 -0.0042,-0.06085zM232.48214,174.3461l0.02998,-1.01915v-1.7985h0.02998l-0.02998,-2.00833v-1.5587c0,-0.21362 0.16986,-0.3565 0.50958,-0.42864c0.00997,-0.00208 0.01997,-0.00408 0.02998,-0.006c0.2416,-0.04696 0.53286,-0.07813 0.87377,-0.09352c0.17824,-0.00782 0.35664,-0.01161 0.53505,-0.01139h0.4796c0.15987,0 0.31973,0.00999 0.4796,0.02998c0.15987,0.01998 0.30475,0.03497 0.43464,0.04496c0.12989,0.00999 0.23481,0.01499 0.31474,0.01499c0.05228,0.00561 0.10464,0.0104 0.15707,0.01439c0.14648,0.01159 0.34341,0.02328 0.59081,0.03507c0.08042,0.0037 0.16086,0.0072 0.2413,0.01049c0.21376,0.00902 0.42759,0.01622 0.64147,0.02158c0.23001,0.00559 0.44583,0.00839 0.64746,0.00839l0.14988,-0.1199l1.73855,0.1199c0.37329,-0.03557 0.63197,-0.01179 0.77605,0.07134c0.01706,0.00973 0.03321,0.02096 0.04826,0.03357c0.04566,0.03786 0.08555,0.0822 0.1184,0.13159c0.05047,0.07656 0.07707,0.16639 0.07644,0.25809v0.37469v2.38302c0.00001,0.26198 -0.00099,0.52397 -0.003,0.78595c-0.0018,0.2398 -0.0045,0.46711 -0.00809,0.68193c-0.00118,0.07024 -0.00247,0.14049 -0.0039,0.21072c-0.00999,0.48959 -0.01499,0.99917 -0.01499,1.52873v1.93339v0.08993l-0.02998,0.65945v6.53456v1.72357c0,0.46961 -0.01998,0.81432 -0.05995,1.03414v0.89925c-0.03997,0.3597 -0.06994,0.71441 -0.08993,1.06411c-0.01286,0.22813 -0.02145,0.45648 -0.02578,0.68493c-0.00284,0.14636 -0.00424,0.29275 -0.0042,0.43913c0.00032,0.16378 -0.00458,0.32753 -0.01469,0.49099c-0.02138,0.33532 -0.06644,0.61629 -0.13519,0.8429c-0.08253,0.27217 -0.25349,0.43204 -0.51287,0.4796c-0.05828,0.01032 -0.11737,0.01533 -0.17655,0.01499l-2.00833,-0.02998h-3.02748c-0.03815,-0.01238 -0.07711,-0.0221 -0.1166,-0.02908c-0.11251,-0.02058 -0.25849,-0.03087 -0.43794,-0.03087h-0.88426c-0.52157,0 -0.92173,-0.07284 -1.2005,-0.21852c-0.03023,-0.01575 -0.05973,-0.03286 -0.08843,-0.05126c-0.16109,-0.073 -0.28606,-0.2077 -0.34681,-0.37379c-0.02652,-0.06805 -0.04591,-0.13867 -0.05785,-0.21072c-0.04017,-0.23341 -0.05126,-0.43764 -0.03327,-0.61269c0.00418,-0.04083 0.01028,-0.08144 0.01828,-0.1217c0.01051,-0.04173 0.01842,-0.08408 0.02368,-0.12679c0.00407,-0.03252 0.00617,-0.06525 0.00629,-0.09802v-0.13489c-0.01699,-0.01699 -0.02678,-0.06275 -0.02938,-0.13729c-0.00044,-0.01418 -0.00064,-0.02837 -0.0006,-0.04256l-0.26978,0.86928c-0.13285,0.19769 -0.27981,0.38552 -0.43973,0.56203c-0.25139,0.27477 -0.51447,0.48709 -0.78924,0.63697c-0.32727,0.17656 -0.6777,0.30632 -1.04103,0.38548c-0.15122,0.03368 -0.30397,0.06009 -0.45772,0.07913c-0.22606,0.02773 -0.45286,0.04902 -0.68013,0.06385c-0.25359,0.01719 -0.52556,0.02898 -0.81592,0.03537c-0.18072,0.00389 -0.36148,0.00579 -0.54225,0.0057c-0.89402,-0.00414 -1.7757,-0.20901 -2.57995,-0.5995c-0.21963,-0.10432 -0.43401,-0.21936 -0.64237,-0.34471c-1.04913,-0.62948 -1.83347,-1.49376 -2.35304,-2.59284c-0.28008,-0.39884 -0.49939,-0.83706 -0.65076,-1.30032c-0.40586,-1.17722 -0.60879,-2.78348 -0.60879,-4.81879c-0.00003,-0.06854 0.00017,-0.13709 0.0006,-0.20563c0.00478,-0.71932 0.07309,-1.43682 0.20413,-2.14412c0.14933,-0.81718 0.41364,-1.60909 0.78505,-2.35214c0.28097,-0.56105 0.62102,-1.09051 1.01436,-1.57939c0.41006,-0.50894 0.89119,-0.95625 1.42861,-1.32819c0.47981,-0.33514 1.00645,-0.59765 1.5629,-0.77905c0.49764,-0.1593 1.01701,-0.2403 1.53952,-0.2401c0.34351,0 0.73419,0.00709 1.17202,0.02128c0.20887,0.0068 0.41769,0.01469 0.62648,0.02368c0.69942,0.02998 1.40383,0.12989 2.11324,0.29975c0.41346,0.09608 0.81092,0.25125 1.18012,0.46072c0.22576,0.12961 0.43795,0.28155 0.63337,0.45352zM346.50726,174.3461l0.02998,-1.01915v-1.7985h0.02998l-0.02998,-2.00833v-1.5587c0,-0.21362 0.16986,-0.3565 0.50958,-0.42864c0.00997,-0.00208 0.01997,-0.00408 0.02998,-0.006c0.2416,-0.04696 0.53286,-0.07813 0.87377,-0.09352c0.17824,-0.00782 0.35664,-0.01161 0.53505,-0.01139h0.4796c0.15987,0 0.31973,0.00999 0.4796,0.02998c0.15987,0.01998 0.30475,0.03497 0.43464,0.04496c0.12989,0.00999 0.23481,0.01499 0.31474,0.01499c0.05228,0.00561 0.10464,0.0104 0.15707,0.01439c0.14648,0.01159 0.34341,0.02328 0.59081,0.03507c0.08042,0.0037 0.16086,0.0072 0.2413,0.01049c0.21376,0.00902 0.42759,0.01622 0.64147,0.02158c0.23001,0.00559 0.44583,0.00839 0.64746,0.00839l0.14988,-0.1199l1.73855,0.1199c0.37329,-0.03557 0.63197,-0.01179 0.77605,0.07134c0.01706,0.00973 0.03321,0.02096 0.04826,0.03357c0.04566,0.03786 0.08555,0.0822 0.1184,0.13159c0.05047,0.07656 0.07707,0.16639 0.07644,0.25809v0.37469v2.38302c0.00001,0.26198 -0.00099,0.52397 -0.003,0.78595c-0.0018,0.2398 -0.0045,0.46711 -0.00809,0.68193c-0.00118,0.07024 -0.00247,0.14049 -0.0039,0.21072c-0.00999,0.48959 -0.01499,0.99917 -0.01499,1.52873v1.93339v0.08993l-0.02998,0.65945v6.53456v1.72357c0,0.46961 -0.01998,0.81432 -0.05995,1.03414v0.89925c-0.03997,0.3597 -0.06994,0.71441 -0.08993,1.06411c-0.01286,0.22813 -0.02145,0.45648 -0.02578,0.68493c-0.00284,0.14636 -0.00424,0.29275 -0.0042,0.43913c0.00032,0.16378 -0.00458,0.32753 -0.01469,0.49099c-0.02138,0.33532 -0.06644,0.61629 -0.13519,0.8429c-0.08253,0.27217 -0.25349,0.43204 -0.51287,0.4796c-0.05828,0.01032 -0.11737,0.01533 -0.17655,0.01499l-2.00833,-0.02998h-3.02748c-0.03815,-0.01238 -0.07711,-0.0221 -0.1166,-0.02908c-0.11251,-0.02058 -0.25849,-0.03087 -0.43794,-0.03087h-0.88426c-0.52157,0 -0.92173,-0.07284 -1.2005,-0.21852c-0.03023,-0.01575 -0.05973,-0.03286 -0.08843,-0.05126c-0.16109,-0.073 -0.28606,-0.2077 -0.34681,-0.37379c-0.02652,-0.06805 -0.04591,-0.13867 -0.05785,-0.21072c-0.04017,-0.23341 -0.05126,-0.43764 -0.03327,-0.61269c0.00418,-0.04083 0.01028,-0.08144 0.01828,-0.1217c0.01051,-0.04173 0.01842,-0.08408 0.02368,-0.12679c0.00407,-0.03252 0.00617,-0.06525 0.00629,-0.09802v-0.13489c-0.01699,-0.01699 -0.02678,-0.06275 -0.02938,-0.13729c-0.00044,-0.01418 -0.00064,-0.02837 -0.0006,-0.04256l-0.26978,0.86928c-0.13285,0.19769 -0.27981,0.38552 -0.43973,0.56203c-0.25139,0.27477 -0.51447,0.48709 -0.78924,0.63697c-0.32727,0.17656 -0.6777,0.30632 -1.04103,0.38548c-0.15122,0.03368 -0.30397,0.06009 -0.45772,0.07913c-0.22606,0.02773 -0.45286,0.04902 -0.68013,0.06385c-0.25359,0.01719 -0.52556,0.02898 -0.81592,0.03537c-0.18072,0.00389 -0.36148,0.00579 -0.54225,0.0057c-0.89402,-0.00414 -1.7757,-0.20901 -2.57995,-0.5995c-0.21963,-0.10432 -0.43401,-0.21936 -0.64237,-0.34471c-1.04913,-0.62948 -1.83347,-1.49376 -2.35304,-2.59284c-0.28008,-0.39884 -0.49939,-0.83706 -0.65076,-1.30032c-0.40586,-1.17722 -0.60879,-2.78348 -0.60879,-4.81879c-0.00003,-0.06854 0.00017,-0.13709 0.0006,-0.20563c0.00478,-0.71932 0.07309,-1.43682 0.20413,-2.14412c0.14933,-0.81718 0.41364,-1.60909 0.78505,-2.35214c0.28097,-0.56105 0.62102,-1.09051 1.01436,-1.57939c0.41006,-0.50894 0.89119,-0.95625 1.42861,-1.32819c0.47981,-0.33514 1.00645,-0.59765 1.5629,-0.77905c0.49764,-0.1593 1.01701,-0.2403 1.53952,-0.2401c0.34351,0 0.73419,0.00709 1.17202,0.02128c0.20887,0.0068 0.41769,0.01469 0.62648,0.02368c0.69942,0.02998 1.40383,0.12989 2.11324,0.29975c0.41346,0.09608 0.81092,0.25125 1.18012,0.46072c0.22576,0.12961 0.43795,0.28155 0.63337,0.45352zM278.31399,173.29697h0.17985c0.09872,0 0.18255,0.01499 0.25149,0.04496c0.02775,0.01187 0.05401,0.02696 0.07823,0.04496c0.00994,0.00999 0.01934,0.0205 0.02818,0.03147c0.00919,0.01139 0.01839,0.02378 0.02758,0.03717c0.00141,0.00209 0.00281,0.00419 0.0042,0.00629c0.01599,0.02418 0.03207,0.03857 0.04826,0.04316c0.00379,0.00116 0.00773,0.00176 0.01169,0.0018c0.02006,-0.00018 0.04011,0.00123 0.05995,0.0042c0.02058,0.0034 0.03867,0.00859 0.05425,0.01559c0.03106,0.01269 0.05503,0.03831 0.06565,0.07014l0.56953,0.4796c0.63015,0.54716 1.1568,1.20316 1.55481,1.93669c0.26502,0.48304 0.48699,0.98847 0.66335,1.51044c0.45962,1.33889 0.68943,2.73772 0.68943,4.19651l-0.2398,0.56953l-8.03331,0.14988l-0.86928,0.02998l0.02998,0.77935l0.1199,0.7194l0.26978,0.7194l0.77935,0.68943c0.0896,0.0722 0.18585,0.13573 0.28746,0.18974c0.10211,0.05535 0.21612,0.10691 0.34202,0.15467c0.10348,0.03921 0.20848,0.07431 0.31474,0.10521c0.40966,0.1199 0.83431,0.17985 1.27394,0.17985h0.14988c0.13289,-0.00079 0.26558,-0.01051 0.39717,-0.02908c0.25439,-0.03437 0.54165,-0.09962 0.86178,-0.19574c0.37276,-0.11153 0.7474,-0.21666 1.12376,-0.31534c0.15473,-0.04071 0.3097,-0.08048 0.46491,-0.1193l1.6786,-0.41965l0.3597,0.44963l0.53955,3.80683l-0.32973,0.53955c-0.38066,0.1827 -0.76575,0.35601 -1.15494,0.51977c-0.47281,0.19803 -0.91714,0.3645 -1.33299,0.49938c-0.73938,0.2398 -1.42881,0.39967 -2.06828,0.4796c-0.38468,0.04117 -0.73399,0.08003 -1.04793,0.1166c-0.13533,0.01571 -0.27062,0.0318 -0.40586,0.04826c-0.40966,0.04996 -0.79434,0.07494 -1.15404,0.07494c-0.5995,0 -1.13905,-0.05995 -1.61865,-0.17985c-0.47735,-0.11848 -0.96172,-0.20668 -1.45019,-0.26408c-0.01618,-0.00193 -0.03237,-0.00383 -0.04856,-0.0057c-0.73938,-0.07993 -1.4388,-0.32973 -2.09825,-0.74938c-0.61272,-0.46774 -1.18033,-0.99179 -1.69539,-1.5653c-0.54683,-0.60788 -1.00995,-1.28613 -1.37705,-2.01672c-0.64946,-1.30891 -0.99417,-2.87261 -1.03414,-4.6911c-0.0018,-0.09301 -0.0027,-0.18604 -0.0027,-0.27907c0,-0.9634 0.09862,-1.86864 0.29585,-2.71574c0.19165,-0.83762 0.49639,-1.64526 0.90585,-2.4007l0.14988,-0.50958c0.01585,-0.00789 0.03145,-0.01629 0.04676,-0.02518c0.04476,-0.02598 0.07284,-0.04966 0.08423,-0.07104c0.00155,-0.00278 0.00285,-0.00569 0.0039,-0.00869c0.00194,-0.00597 0.00435,-0.01179 0.00719,-0.01739c0.003,-0.006 0.0064,-0.01099 0.01019,-0.01499c0.00691,-0.00802 0.01699,-0.01262 0.02758,-0.01259l0.05995,-0.1199l0.17985,-0.1199c0.61802,-1.17053 1.64811,-2.07033 2.89109,-2.5254c0.1632,-0.06351 0.32867,-0.121 0.49609,-0.17236c0.32167,-0.06663 0.64624,-0.11834 0.97269,-0.15497c0.63287,-0.07394 1.38185,-0.1195 2.24693,-0.13669c0.27564,-0.00546 0.55132,-0.00815 0.82701,-0.00809c0.07993,0 0.16986,0.005 0.26978,0.01499c0.04031,0.00411 0.08058,0.0086 0.1208,0.01349c0.03597,0.0042 0.07384,0.00889 0.11361,0.01409c0.04179,0.00558 0.08356,0.01138 0.1253,0.01739c0.0118,0.00004 0.02359,0.00034 0.03537,0.0009c0.04117,0.0018 0.09932,0.00649 0.17445,0.01409c0.09992,0.00999 0.20983,0.01499 0.32973,0.01499c0.38848,0 1.0765,0.14548 2.06408,0.43644c0.08143,0.02405 0.16276,0.04843 0.244,0.07314zM369.55808,173.29697h0.17985c0.09872,0 0.18255,0.01499 0.25149,0.04496c0.02775,0.01187 0.05401,0.02696 0.07823,0.04496c0.00994,0.00999 0.01934,0.0205 0.02818,0.03147c0.00919,0.01139 0.01839,0.02378 0.02758,0.03717c0.00141,0.00209 0.00281,0.00419 0.0042,0.00629c0.01599,0.02418 0.03207,0.03857 0.04826,0.04316c0.00379,0.00116 0.00773,0.00176 0.01169,0.0018c0.02006,-0.00018 0.04011,0.00123 0.05995,0.0042c0.02058,0.0034 0.03867,0.00859 0.05425,0.01559c0.03106,0.01269 0.05503,0.03831 0.06565,0.07014l0.56953,0.4796c0.63015,0.54716 1.1568,1.20316 1.55481,1.93669c0.26502,0.48304 0.48699,0.98847 0.66335,1.51044c0.45962,1.33889 0.68943,2.73772 0.68943,4.19651l-0.2398,0.56953l-8.03331,0.14988l-0.86928,0.02998l0.02998,0.77935l0.1199,0.7194l0.26978,0.7194l0.77935,0.68943c0.0896,0.0722 0.18585,0.13573 0.28746,0.18974c0.10211,0.05535 0.21612,0.10691 0.34202,0.15467c0.10348,0.03921 0.20848,0.07431 0.31474,0.10521c0.40966,0.1199 0.83431,0.17985 1.27394,0.17985h0.14988c0.13289,-0.00079 0.26558,-0.01051 0.39717,-0.02908c0.25439,-0.03437 0.54165,-0.09962 0.86178,-0.19574c0.37276,-0.11153 0.7474,-0.21666 1.12376,-0.31534c0.15473,-0.04071 0.3097,-0.08048 0.46491,-0.1193l1.6786,-0.41965l0.3597,0.44963l0.53955,3.80683l-0.32973,0.53955c-0.38066,0.1827 -0.76575,0.35601 -1.15494,0.51977c-0.47281,0.19803 -0.91714,0.3645 -1.33299,0.49938c-0.73938,0.2398 -1.42881,0.39967 -2.06828,0.4796c-0.38468,0.04117 -0.73399,0.08003 -1.04793,0.1166c-0.13533,0.01571 -0.27062,0.0318 -0.40586,0.04826c-0.40966,0.04996 -0.79434,0.07494 -1.15404,0.07494c-0.5995,0 -1.13905,-0.05995 -1.61865,-0.17985c-0.47735,-0.11848 -0.96172,-0.20668 -1.45019,-0.26408c-0.01618,-0.00193 -0.03237,-0.00383 -0.04856,-0.0057c-0.73938,-0.07993 -1.4388,-0.32973 -2.09825,-0.74938c-0.61272,-0.46774 -1.18033,-0.99179 -1.69539,-1.5653c-0.54683,-0.60788 -1.00995,-1.28613 -1.37705,-2.01672c-0.64946,-1.30891 -0.99417,-2.87261 -1.03414,-4.6911c-0.0018,-0.09301 -0.0027,-0.18604 -0.0027,-0.27907c0,-0.9634 0.09862,-1.86864 0.29585,-2.71574c0.19165,-0.83762 0.49639,-1.64526 0.90585,-2.4007l0.14988,-0.50958c0.01585,-0.00789 0.03145,-0.01629 0.04676,-0.02518c0.04476,-0.02598 0.07284,-0.04966 0.08423,-0.07104c0.00155,-0.00278 0.00285,-0.00569 0.0039,-0.00869c0.00194,-0.00597 0.00435,-0.01179 0.00719,-0.01739c0.003,-0.006 0.0064,-0.01099 0.01019,-0.01499c0.00691,-0.00802 0.01699,-0.01262 0.02758,-0.01259l0.05995,-0.1199l0.17985,-0.1199c0.61802,-1.17053 1.64811,-2.07033 2.89109,-2.5254c0.1632,-0.06351 0.32867,-0.121 0.49609,-0.17236c0.32167,-0.06663 0.64624,-0.11834 0.97269,-0.15497c0.63287,-0.07394 1.38185,-0.1195 2.24693,-0.13669c0.27564,-0.00546 0.55132,-0.00815 0.82701,-0.00809c0.07993,0 0.16986,0.005 0.26978,0.01499c0.04031,0.00411 0.08058,0.0086 0.1208,0.01349c0.03597,0.0042 0.07384,0.00889 0.11361,0.01409c0.04179,0.00558 0.08356,0.01138 0.1253,0.01739c0.0118,0.00004 0.02359,0.00034 0.03537,0.0009c0.04117,0.0018 0.09932,0.00649 0.17445,0.01409c0.09992,0.00999 0.20983,0.01499 0.32973,0.01499c0.38848,0 1.0765,0.14548 2.06408,0.43644c0.08143,0.02405 0.16276,0.04843 0.244,0.07314zM298.18746,185.4069v0.05995c0.28816,0.70621 0.4777,1.57879 0.56863,2.61772c0.03619,0.42544 0.05648,0.85208 0.06085,1.27904c-0.55953,0.61948 -1.33889,1.10408 -2.33805,1.45379c-0.77095,0.26617 -1.57319,0.43111 -2.38661,0.49069c-0.293,0.02276 -0.58678,0.03406 -0.88067,0.03387c-1.06535,0.00846 -2.12731,-0.12111 -3.15937,-0.38548c-1.3377,-0.34392 -2.58254,-0.98006 -3.64497,-1.86265c-0.49985,-0.4155 -0.92625,-0.91212 -1.26135,-1.46908c-0.22642,-0.37259 -0.42114,-0.76354 -0.58212,-1.16873c-0.18067,-0.45631 -0.33343,-0.92318 -0.45742,-1.39804c-0.22721,-0.85389 -0.40946,-1.83667 -0.54674,-2.94835c-0.00378,-0.80453 0.07405,-1.60738 0.23231,-2.39621c0.11665,-0.57405 0.28469,-1.13645 0.50208,-1.6804c0.25598,-0.64986 0.59968,-1.26163 1.02155,-1.81829c0.31778,-0.41544 0.6843,-0.79122 1.09169,-1.11927c0.43897,-0.36265 0.90238,-0.69466 1.38695,-0.99367c0.52137,-0.31893 1.04003,-0.57422 1.556,-0.76586c0.00819,-0.00301 0.01638,-0.00601 0.02458,-0.00899c0.97918,-0.3597 2.10825,-0.53955 3.38718,-0.53955c0.09184,-0.00009 0.18368,0.00131 0.27547,0.0042c0.08853,0.003 0.17116,0.00739 0.24789,0.01319c0.04543,0.00342 0.0908,0.00761 0.13609,0.01259c0.07312,0.00818 0.14617,0.01708 0.21912,0.02668c0.13109,0.01719 0.27787,0.03827 0.44033,0.06325c0.19884,0.03057 0.46211,0.07294 0.78984,0.12709c0.10643,0.01749 0.21284,0.03508 0.31923,0.05276c0.07993,0 0.16986,0.005 0.26978,0.01499c0.09992,0.00999 0.21982,0.01499 0.3597,0.01499l0.7194,0.17985c0.12595,0.03538 0.25324,0.06577 0.38158,0.09112c0.1233,0.02378 0.2392,0.04037 0.34771,0.04976c0.06648,0.00586 0.13319,0.00886 0.19993,0.00899c0.04936,0 0.08513,0.02028 0.10731,0.06085c0.00506,0.00929 0.00928,0.01903 0.01259,0.02908c0.03997,0.01998 0.06495,0.04496 0.07494,0.07494c0.00526,0.01613 0.01251,0.03153 0.02158,0.04586c0.00672,0.0105 0.01456,0.02025 0.02338,0.02908c0.05415,0.07234 0.10841,0.11191 0.16276,0.1187c0.00566,0.00076 0.01137,0.00116 0.01709,0.0012h0.05995l0.05995,0.50958c0,0.05995 0.005,0.14988 0.01499,0.26978c0.00999,0.1199 0.02498,0.28976 0.04496,0.50958c0.01379,0.24739 0.02518,0.46871 0.03417,0.66395c0.00385,0.08342 0.00745,0.16685 0.01079,0.25029c0.00608,0.15022 0.01038,0.3005 0.01289,0.45082c0.00138,0.08452 0.00208,0.16905 0.0021,0.25359c0,0.49958 -0.03497,0.85928 -0.10491,1.0791c-0.06285,0.19857 -0.19611,0.36732 -0.37469,0.47451c-0.01962,0.0123 -0.03961,0.024 -0.05995,0.03507l-2.00833,-0.26978h-0.32973c-0.17745,0 -0.28686,-0.0049 -0.32823,-0.01469c-0.0005,-0.0001 -0.001,-0.0002 -0.0015,-0.0003c-0.03997,-0.00999 -0.08493,-0.01998 -0.13489,-0.02998c-0.00714,-0.00137 -0.01434,-0.00238 -0.02158,-0.003c-0.05815,-0.0052 -0.17445,-0.0002 -0.34891,0.01499c-0.01139,0.00098 -0.02278,0.00198 -0.03417,0.003l-0.02998,0.02998c-0.61948,0 -1.13406,0.35471 -1.54372,1.06411c-0.19888,0.35119 -0.34655,0.729 -0.43853,1.12197c-0.1173,0.4816 -0.17595,1.02185 -0.17595,1.62075c-0.00099,0.35391 0.01061,0.70773 0.03477,1.06082c0.06435,0.89885 0.21762,1.57939 0.45982,2.0416c0.25913,0.49872 0.71328,0.8678 1.25446,1.01945c0.15342,0.04699 0.31026,0.08197 0.46911,0.10461l0.98918,-0.1199c0.17792,-0.02333 0.35254,-0.06718 0.52037,-0.13069c0.14808,-0.05495 0.29905,-0.1255 0.45292,-0.21162c0.01032,-0.00575 0.02061,-0.01154 0.03087,-0.01739c0.12006,-0.06805 0.24265,-0.13154 0.36749,-0.19034c0.29835,-0.14168 0.66045,-0.28806 1.0863,-0.43913c0.20923,0.13329 0.31883,0.27557 0.32883,0.42684c0.00055,0.00758 0.00085,0.01518 0.0009,0.02278zM199.7494,190.95228h-1.10908c-0.23611,0.00009 -0.47223,-0.00181 -0.70831,-0.0057c-0.66684,-0.01119 -1.21009,-0.03927 -1.62974,-0.08423c-0.23269,-0.02444 -0.46429,-0.05834 -0.69422,-0.10162c-0.2366,-0.04496 -0.45742,-0.09902 -0.66245,-0.16217c-0.03751,-0.01155 -0.07488,-0.02355 -0.11211,-0.03597c-0.03099,0.00033 -0.06186,-0.00371 -0.09172,-0.01199c-0.06884,-0.01915 -0.12408,-0.07058 -0.14808,-0.13789c-0.07993,-0.17985 -0.1199,-0.37968 -0.1199,-0.5995l-0.32973,-5.06578c-0.03997,-0.55953 -0.06994,-1.0791 -0.08993,-1.5587c-0.01998,-0.4796 -0.03497,-1.00416 -0.04496,-1.57369c-0.004,-0.2283 -0.0071,-0.45661 -0.00929,-0.68493c-0.0018,-0.20263 -0.0032,-0.41545 -0.0042,-0.63847c-0.00101,-0.2333 -0.00151,-0.46661 -0.0015,-0.69992v-0.86928l0.02998,-1.25895l0.05995,-1.49875l0.05995,-1.10908v-0.64446c-0.00008,-0.03152 0.00132,-0.06303 0.0042,-0.09442c0.0028,-0.03057 0.00719,-0.05895 0.01319,-0.08513c0.00345,-0.01528 0.00765,-0.03039 0.01259,-0.04526c-0.00036,-0.01425 0.00251,-0.02839 0.00839,-0.04137c0.01279,-0.02658 0.04027,-0.04226 0.08243,-0.04706c0.00966,-0.00104 0.01936,-0.00154 0.02908,-0.0015c0.14957,-0.00064 0.29788,-0.02742 0.43824,-0.07913c0.03425,-0.01237 0.06804,-0.02597 0.10132,-0.04077h0.1199c0.01282,-0.00011 0.02563,-0.00091 0.03837,-0.0024c0.02538,-0.0028 0.05555,-0.00799 0.09052,-0.01559c0.01705,-0.00374 0.03403,-0.00774 0.05096,-0.01199h0.16486c0.02042,-0.00004 0.04083,0.00095 0.06115,0.003c0.02058,0.002 0.03937,0.0052 0.05635,0.00959c0.01635,0.00411 0.03223,0.00994 0.04736,0.01739h4.22648h0.5995c0.09992,0 0.18984,0.00999 0.26978,0.02998l0.92923,0.02998c0.23081,0.01918 0.40147,0.03847 0.51197,0.05785c0.0042,0.00068 0.0084,0.00138 0.01259,0.0021c0.10991,0.01998 0.19484,0.08993 0.25479,0.20983l0.2398,0.8393v1.97835c0.45962,-0.76596 1.27714,-1.56869 2.45256,-2.4082c0.05156,-0.03684 0.10332,-0.07341 0.15527,-0.10971c0.19846,-0.14644 0.40859,-0.27637 0.62828,-0.38848c0.25499,-0.12869 0.50758,-0.22002 0.75777,-0.27397c0.04731,-0.01028 0.09489,-0.01928 0.14268,-0.02698c0.49958,-0.07993 0.91923,-0.15987 1.25895,-0.2398c0.04063,-0.01023 0.08189,-0.01784 0.1235,-0.02278c0.03137,-0.0038 0.06195,-0.0057 0.09172,-0.0057c0.13984,-0.0024 0.276,0.04486 0.38428,0.13339c0.15647,0.12709 0.2364,0.31634 0.2398,0.56773c0.00004,0.00559 0.00004,0.01119 0,0.01679c0.0003,0.57324 -0.0034,1.14648 -0.01109,1.71967c-0.02138,1.52393 -0.07364,2.65939 -0.15677,3.40636c-0.00382,0.03489 -0.00782,0.06976 -0.01199,0.10461c-0.01817,0.15308 -0.04127,0.30553 -0.06924,0.45712c-0.12769,0.68103 -0.32443,1.01326 -0.59021,0.99667c-0.2235,-0.01292 -0.4462,-0.03713 -0.66724,-0.07254c-0.16314,-0.02595 -0.32548,-0.05674 -0.48679,-0.09232c-0.40966,-0.08993 -0.88426,-0.13489 -1.42381,-0.13489c-0.32518,-0.00243 -0.64937,0.03614 -0.9649,0.1148c-0.39573,0.09882 -0.76644,0.27923 -1.08839,0.52966c-0.19802,0.15128 -0.37039,0.33346 -0.51048,0.53955c-0.20936,0.31502 -0.31874,0.6859 -0.31384,1.06411v7.49376c0.00007,0.01932 -0.00083,0.03863 -0.0027,0.05785c-0.0038,0.03837 -0.01189,0.06814 -0.02428,0.08933c-0.00751,0.01392 -0.01898,0.02529 -0.03297,0.03267c-0.00598,0.00632 -0.01067,0.01376 -0.01379,0.02188c-0.01079,0.02638 -0.01619,0.06904 -0.01619,0.12799c-0.01779,0.07154 -0.05965,0.11111 -0.1256,0.1187c-0.00806,0.00086 -0.01617,0.00126 -0.02428,0.0012c0.00111,0 0.00221,0.0001 0.0033,0.0003c0.01119,0.0022 -0.01259,0.01839 -0.07134,0.04856c-0.00727,0.00374 -0.01457,0.00743 -0.02188,0.01109l-0.14988,0.05995c-0.51727,-0.0005 -1.03445,0.0137 -1.55091,0.04256c-0.22263,0.0126 -0.44507,0.02839 -0.66724,0.04736zM256.64203,190.95228h-1.10908c-0.23611,0.00009 -0.47223,-0.00181 -0.70831,-0.0057c-0.66684,-0.01119 -1.21009,-0.03927 -1.62974,-0.08423c-0.23269,-0.02444 -0.46429,-0.05834 -0.69422,-0.10162c-0.2366,-0.04496 -0.45742,-0.09902 -0.66245,-0.16217c-0.03751,-0.01155 -0.07488,-0.02355 -0.11211,-0.03597c-0.03099,0.00033 -0.06186,-0.00371 -0.09172,-0.01199c-0.06884,-0.01915 -0.12408,-0.07058 -0.14808,-0.13789c-0.07993,-0.17985 -0.1199,-0.37968 -0.1199,-0.5995l-0.32973,-5.06578c-0.03997,-0.55953 -0.06994,-1.0791 -0.08993,-1.5587c-0.01998,-0.4796 -0.03497,-1.00416 -0.04496,-1.57369c-0.004,-0.2283 -0.0071,-0.45661 -0.00929,-0.68493c-0.0018,-0.20263 -0.0032,-0.41545 -0.0042,-0.63847c-0.00101,-0.2333 -0.00151,-0.46661 -0.0015,-0.69992v-0.86928l0.02998,-1.25895l0.05995,-1.49875l0.05995,-1.10908v-0.64446c-0.00008,-0.03152 0.00132,-0.06303 0.0042,-0.09442c0.0028,-0.03057 0.00719,-0.05895 0.01319,-0.08513c0.00345,-0.01528 0.00765,-0.03039 0.01259,-0.04526c-0.00036,-0.01425 0.00251,-0.02839 0.00839,-0.04137c0.01279,-0.02658 0.04027,-0.04226 0.08243,-0.04706c0.00966,-0.00104 0.01936,-0.00154 0.02908,-0.0015c0.14957,-0.00064 0.29788,-0.02742 0.43824,-0.07913c0.03425,-0.01237 0.06804,-0.02597 0.10132,-0.04077h0.1199c0.01282,-0.00011 0.02563,-0.00091 0.03837,-0.0024c0.02538,-0.0028 0.05555,-0.00799 0.09052,-0.01559c0.01705,-0.00374 0.03403,-0.00774 0.05096,-0.01199h0.16486c0.02042,-0.00004 0.04083,0.00095 0.06115,0.003c0.02058,0.002 0.03937,0.0052 0.05635,0.00959c0.01635,0.00411 0.03223,0.00994 0.04736,0.01739h4.22648h0.5995c0.09992,0 0.18984,0.00999 0.26978,0.02998l0.92923,0.02998c0.23081,0.01918 0.40147,0.03847 0.51197,0.05785c0.0042,0.00068 0.0084,0.00138 0.01259,0.0021c0.10991,0.01998 0.19484,0.08993 0.25479,0.20983l0.2398,0.8393v1.97835c0.45962,-0.76596 1.27714,-1.56869 2.45256,-2.4082c0.05156,-0.03684 0.10332,-0.07341 0.15527,-0.10971c0.19846,-0.14644 0.40859,-0.27637 0.62828,-0.38848c0.25499,-0.12869 0.50758,-0.22002 0.75777,-0.27397c0.04731,-0.01028 0.09489,-0.01928 0.14268,-0.02698c0.49958,-0.07993 0.91923,-0.15987 1.25895,-0.2398c0.04063,-0.01023 0.08189,-0.01784 0.1235,-0.02278c0.03137,-0.0038 0.06195,-0.0057 0.09172,-0.0057c0.13984,-0.0024 0.276,0.04486 0.38428,0.13339c0.15647,0.12709 0.2364,0.31634 0.2398,0.56773c0.00004,0.00559 0.00004,0.01119 0,0.01679c0.0003,0.57324 -0.0034,1.14648 -0.01109,1.71967c-0.02138,1.52393 -0.07364,2.65939 -0.15677,3.40636c-0.00382,0.03489 -0.00782,0.06976 -0.01199,0.10461c-0.01817,0.15308 -0.04127,0.30553 -0.06924,0.45712c-0.12769,0.68103 -0.32443,1.01326 -0.59021,0.99667c-0.2235,-0.01292 -0.4462,-0.03713 -0.66724,-0.07254c-0.16314,-0.02595 -0.32548,-0.05674 -0.48679,-0.09232c-0.40966,-0.08993 -0.88426,-0.13489 -1.42381,-0.13489c-0.32518,-0.00243 -0.64937,0.03614 -0.9649,0.1148c-0.39573,0.09882 -0.76644,0.27923 -1.08839,0.52966c-0.19802,0.15128 -0.37039,0.33346 -0.51048,0.53955c-0.20936,0.31502 -0.31874,0.6859 -0.31384,1.06411v7.49376c0.00007,0.01932 -0.00083,0.03863 -0.0027,0.05785c-0.0038,0.03837 -0.01189,0.06814 -0.02428,0.08933c-0.00751,0.01392 -0.01898,0.02529 -0.03297,0.03267c-0.00598,0.00632 -0.01067,0.01376 -0.01379,0.02188c-0.01079,0.02638 -0.01619,0.06904 -0.01619,0.12799c-0.01779,0.07154 -0.05965,0.11111 -0.1256,0.1187c-0.00806,0.00086 -0.01617,0.00126 -0.02428,0.0012c0.00111,0 0.00221,0.0001 0.0033,0.0003c0.01119,0.0022 -0.01259,0.01839 -0.07134,0.04856c-0.00727,0.00374 -0.01457,0.00743 -0.02188,0.01109l-0.14988,0.05995c-0.51727,-0.0005 -1.03445,0.0137 -1.55091,0.04256c-0.22263,0.0126 -0.44507,0.02839 -0.66724,0.04736zM325.25494,190.95228h-1.10908c-0.23611,0.00009 -0.47223,-0.00181 -0.70831,-0.0057c-0.66684,-0.01119 -1.21009,-0.03927 -1.62974,-0.08423c-0.23269,-0.02444 -0.46429,-0.05834 -0.69422,-0.10162c-0.2366,-0.04496 -0.45742,-0.09902 -0.66245,-0.16217c-0.03751,-0.01155 -0.07488,-0.02355 -0.11211,-0.03597c-0.03099,0.00033 -0.06186,-0.00371 -0.09172,-0.01199c-0.06884,-0.01915 -0.12408,-0.07058 -0.14808,-0.13789c-0.07993,-0.17985 -0.1199,-0.37968 -0.1199,-0.5995l-0.32973,-5.06578c-0.03997,-0.55953 -0.06994,-1.0791 -0.08993,-1.5587c-0.01998,-0.4796 -0.03497,-1.00416 -0.04496,-1.57369c-0.004,-0.2283 -0.0071,-0.45661 -0.00929,-0.68493c-0.0018,-0.20263 -0.0032,-0.41545 -0.0042,-0.63847c-0.00101,-0.2333 -0.00151,-0.46661 -0.0015,-0.69992v-0.86928l0.02998,-1.25895l0.05995,-1.49875l0.05995,-1.10908v-0.64446c-0.00008,-0.03152 0.00132,-0.06303 0.0042,-0.09442c0.0028,-0.03057 0.00719,-0.05895 0.01319,-0.08513c0.00345,-0.01528 0.00765,-0.03039 0.01259,-0.04526c-0.00036,-0.01425 0.00251,-0.02839 0.00839,-0.04137c0.01279,-0.02658 0.04027,-0.04226 0.08243,-0.04706c0.00966,-0.00104 0.01936,-0.00154 0.02908,-0.0015c0.14957,-0.00064 0.29788,-0.02742 0.43824,-0.07913c0.03425,-0.01237 0.06804,-0.02597 0.10132,-0.04077h0.1199c0.01282,-0.00011 0.02563,-0.00091 0.03837,-0.0024c0.02538,-0.0028 0.05555,-0.00799 0.09052,-0.01559c0.01705,-0.00374 0.03403,-0.00774 0.05096,-0.01199h0.16486c0.02042,-0.00004 0.04083,0.00095 0.06115,0.003c0.02058,0.002 0.03937,0.0052 0.05635,0.00959c0.01635,0.00411 0.03223,0.00994 0.04736,0.01739h4.22648h0.5995c0.09992,0 0.18984,0.00999 0.26978,0.02998l0.92923,0.02998c0.23081,0.01918 0.40147,0.03847 0.51197,0.05785c0.0042,0.00068 0.0084,0.00138 0.01259,0.0021c0.10991,0.01998 0.19484,0.08993 0.25479,0.20983l0.2398,0.8393v1.97835c0.45962,-0.76596 1.27714,-1.56869 2.45256,-2.4082c0.05156,-0.03684 0.10332,-0.07341 0.15527,-0.10971c0.19846,-0.14644 0.40859,-0.27637 0.62828,-0.38848c0.25499,-0.12869 0.50758,-0.22002 0.75777,-0.27397c0.04731,-0.01028 0.09489,-0.01928 0.14268,-0.02698c0.49958,-0.07993 0.91923,-0.15987 1.25895,-0.2398c0.04063,-0.01023 0.08189,-0.01784 0.1235,-0.02278c0.03137,-0.0038 0.06195,-0.0057 0.09172,-0.0057c0.13984,-0.0024 0.276,0.04486 0.38428,0.13339c0.15647,0.12709 0.2364,0.31634 0.2398,0.56773c0.00004,0.00559 0.00004,0.01119 0,0.01679c0.0003,0.57324 -0.0034,1.14648 -0.01109,1.71967c-0.02138,1.52393 -0.07364,2.65939 -0.15677,3.40636c-0.00382,0.03489 -0.00782,0.06976 -0.01199,0.10461c-0.01817,0.15308 -0.04127,0.30553 -0.06924,0.45712c-0.12769,0.68103 -0.32443,1.01326 -0.59021,0.99667c-0.2235,-0.01292 -0.4462,-0.03713 -0.66724,-0.07254c-0.16314,-0.02595 -0.32548,-0.05674 -0.48679,-0.09232c-0.40966,-0.08993 -0.88426,-0.13489 -1.42381,-0.13489c-0.32518,-0.00243 -0.64937,0.03614 -0.9649,0.1148c-0.39573,0.09882 -0.76644,0.27923 -1.08839,0.52966c-0.19802,0.15128 -0.37039,0.33346 -0.51048,0.53955c-0.20936,0.31502 -0.31874,0.6859 -0.31384,1.06411v7.49376c0.00007,0.01932 -0.00083,0.03863 -0.0027,0.05785c-0.0038,0.03837 -0.01189,0.06814 -0.02428,0.08933c-0.00751,0.01392 -0.01898,0.02529 -0.03297,0.03267c-0.00598,0.00632 -0.01067,0.01376 -0.01379,0.02188c-0.01079,0.02638 -0.01619,0.06904 -0.01619,0.12799c-0.01779,0.07154 -0.05965,0.11111 -0.1256,0.1187c-0.00806,0.00086 -0.01617,0.00126 -0.02428,0.0012c0.00111,0 0.00221,0.0001 0.0033,0.0003c0.01119,0.0022 -0.01259,0.01839 -0.07134,0.04856c-0.00727,0.00374 -0.01457,0.00743 -0.02188,0.01109l-0.14988,0.05995c-0.51727,-0.0005 -1.03445,0.0137 -1.55091,0.04256c-0.22263,0.0126 -0.44507,0.02839 -0.66724,0.04736zM381.15842,190.95228h-1.10908c-0.23611,0.00009 -0.47223,-0.00181 -0.70831,-0.0057c-0.66684,-0.01119 -1.21009,-0.03927 -1.62974,-0.08423c-0.23269,-0.02444 -0.46429,-0.05834 -0.69422,-0.10162c-0.2366,-0.04496 -0.45742,-0.09902 -0.66245,-0.16217c-0.03751,-0.01155 -0.07488,-0.02355 -0.11211,-0.03597c-0.03099,0.00033 -0.06186,-0.00371 -0.09172,-0.01199c-0.06884,-0.01915 -0.12408,-0.07058 -0.14808,-0.13789c-0.07993,-0.17985 -0.1199,-0.37968 -0.1199,-0.5995l-0.32973,-5.06578c-0.03997,-0.55953 -0.06994,-1.0791 -0.08993,-1.5587c-0.01998,-0.4796 -0.03497,-1.00416 -0.04496,-1.57369c-0.004,-0.2283 -0.0071,-0.45661 -0.00929,-0.68493c-0.0018,-0.20263 -0.0032,-0.41545 -0.0042,-0.63847c-0.00101,-0.2333 -0.00151,-0.46661 -0.0015,-0.69992v-0.86928l0.02998,-1.25895l0.05995,-1.49875l0.05995,-1.10908v-0.64446c-0.00008,-0.03152 0.00132,-0.06303 0.0042,-0.09442c0.0028,-0.03057 0.00719,-0.05895 0.01319,-0.08513c0.00345,-0.01528 0.00765,-0.03039 0.01259,-0.04526c-0.00036,-0.01425 0.00251,-0.02839 0.00839,-0.04137c0.01279,-0.02658 0.04027,-0.04226 0.08243,-0.04706c0.00966,-0.00104 0.01936,-0.00154 0.02908,-0.0015c0.14957,-0.00064 0.29788,-0.02742 0.43824,-0.07913c0.03425,-0.01237 0.06804,-0.02597 0.10132,-0.04077h0.1199c0.01282,-0.00011 0.02563,-0.00091 0.03837,-0.0024c0.02538,-0.0028 0.05555,-0.00799 0.09052,-0.01559c0.01705,-0.00374 0.03403,-0.00774 0.05096,-0.01199h0.16486c0.02042,-0.00004 0.04083,0.00095 0.06115,0.003c0.02058,0.002 0.03937,0.0052 0.05635,0.00959c0.01635,0.00411 0.03223,0.00994 0.04736,0.01739h4.22648h0.5995c0.09992,0 0.18984,0.00999 0.26978,0.02998l0.92923,0.02998c0.23081,0.01918 0.40147,0.03847 0.51197,0.05785c0.0042,0.00068 0.0084,0.00138 0.01259,0.0021c0.10991,0.01998 0.19484,0.08993 0.25479,0.20983l0.2398,0.8393v1.97835c0.45962,-0.76596 1.27714,-1.56869 2.45256,-2.4082c0.05156,-0.03684 0.10332,-0.07341 0.15527,-0.10971c0.19846,-0.14644 0.40859,-0.27637 0.62828,-0.38848c0.25499,-0.12869 0.50758,-0.22002 0.75777,-0.27397c0.04731,-0.01028 0.09489,-0.01928 0.14268,-0.02698c0.49958,-0.07993 0.91923,-0.15987 1.25895,-0.2398c0.04063,-0.01023 0.08189,-0.01784 0.1235,-0.02278c0.03137,-0.0038 0.06195,-0.0057 0.09172,-0.0057c0.13984,-0.0024 0.276,0.04486 0.38428,0.13339c0.15647,0.12709 0.2364,0.31634 0.2398,0.56773c0.00004,0.00559 0.00004,0.01119 0,0.01679c0.0003,0.57324 -0.0034,1.14648 -0.01109,1.71967c-0.02138,1.52393 -0.07364,2.65939 -0.15677,3.40636c-0.00382,0.03489 -0.00782,0.06976 -0.01199,0.10461c-0.01817,0.15308 -0.04127,0.30553 -0.06924,0.45712c-0.12769,0.68103 -0.32443,1.01326 -0.59021,0.99667c-0.2235,-0.01292 -0.4462,-0.03713 -0.66724,-0.07254c-0.16314,-0.02595 -0.32548,-0.05674 -0.48679,-0.09232c-0.40966,-0.08993 -0.88426,-0.13489 -1.42381,-0.13489c-0.32518,-0.00243 -0.64937,0.03614 -0.9649,0.1148c-0.39573,0.09882 -0.76644,0.27923 -1.08839,0.52966c-0.19802,0.15128 -0.37039,0.33346 -0.51048,0.53955c-0.20936,0.31502 -0.31874,0.6859 -0.31384,1.06411v7.49376c0.00007,0.01932 -0.00083,0.03863 -0.0027,0.05785c-0.0038,0.03837 -0.01189,0.06814 -0.02428,0.08933c-0.00751,0.01392 -0.01898,0.02529 -0.03297,0.03267c-0.00598,0.00632 -0.01067,0.01376 -0.01379,0.02188c-0.01079,0.02638 -0.01619,0.06904 -0.01619,0.12799c-0.01779,0.07154 -0.05965,0.11111 -0.1256,0.1187c-0.00806,0.00086 -0.01617,0.00126 -0.02428,0.0012c0.00111,0 0.00221,0.0001 0.0033,0.0003c0.01119,0.0022 -0.01259,0.01839 -0.07134,0.04856c-0.00727,0.00374 -0.01457,0.00743 -0.02188,0.01109l-0.14988,0.05995c-0.51727,-0.0005 -1.03445,0.0137 -1.55091,0.04256c-0.22263,0.0126 -0.44507,0.02839 -0.66724,0.04736zM218.39387,190.95228l-0.41965,-0.02998l-0.38968,-0.05995h-0.4796c-0.13988,-0.01998 -0.33972,-0.03997 -0.5995,-0.05995c-0.25978,-0.01998 -0.57952,-0.03997 -0.9592,-0.05995c-0.04177,0.00008 -0.08353,-0.00022 -0.1253,-0.0009c-0.16746,-0.0032 -0.27557,-0.01289 -0.32433,-0.02908c-0.02834,-0.00715 -0.05694,-0.01325 -0.08573,-0.01828c-0.04536,-0.00779 -0.08673,-0.01169 -0.1241,-0.01169h-0.17985h-0.65945l-0.29975,-0.02998c-0.42844,0.01539 -0.77775,0.02778 -1.04793,0.03717c-0.07534,0.00262 -0.15067,0.00521 -0.22601,0.00779c-0.22182,0.00759 -0.40556,0.01529 -0.55124,0.02308c-0.04108,0.00209 -0.08214,0.00439 -0.1232,0.00689c-0.0641,0.004 -0.12825,0.0071 -0.19244,0.00929c-0.05695,0.0018 -0.1169,0.0032 -0.17985,0.0042c-0.06574,0.00101 -0.13149,0.00151 -0.19724,0.0015h-0.5995l-0.53955,0.02998l-0.08993,-0.1199v-4.40633c0,-0.15987 -0.005,-0.33472 -0.01499,-0.52456c-0.00529,-0.10214 -0.01248,-0.20417 -0.02158,-0.30605c-0.00654,-0.07297 -0.01434,-0.14582 -0.02338,-0.21852v-0.7194l0.1199,-1.28893c0.03997,-0.49958 0.07494,-1.04413 0.10491,-1.63364c0.01288,-0.25518 0.01928,-0.51065 0.01918,-0.76616c-0.00014,-0.34939 -0.01154,-0.69868 -0.03417,-1.04733c-0.01912,-0.51573 -0.03721,-1.03151 -0.05425,-1.54731c-0.04556,-1.37825 -0.07634,-2.57036 -0.09232,-3.57632c-0.00116,-0.07064 -0.00226,-0.14128 -0.0033,-0.21192c-0.01559,-1.0865 -0.00999,-2.00423 0.01679,-2.75321c0.007,-0.20144 0.01639,-0.40278 0.02818,-0.604c0.01389,-0.23844 0.03238,-0.47658 0.05545,-0.71431c0.04956,-0.50318 0.116,-0.91454 0.19933,-1.23407c0.03558,-0.13606 0.07922,-0.26989 0.13069,-0.40077c0.14648,-0.3667 0.33272,-0.6028 0.55873,-0.70831l3.50708,0.02998c0.0376,0.00737 0.0755,0.01307 0.11361,0.01709c0.07913,0.00859 0.17116,0.01289 0.27607,0.01289h0.89925h1.4388c0.01266,0.00607 0.02592,0.01079 0.03957,0.01409c0.04097,0.01059 0.09772,0.01589 0.17026,0.01589c0.0403,0.00009 0.08059,0.00149 0.1208,0.0042c0.04496,0.003 0.09292,0.00749 0.14388,0.01349c0.03172,0.0037 0.0634,0.0078 0.09502,0.01229c0.27837,0.01219 0.49439,0.08293 0.64806,0.21222c0.10206,0.08703 0.17853,0.20017 0.22122,0.32733c0.01171,0.05251 0.02221,0.10528 0.03147,0.15827c0.01779,0.10152 0.02728,0.18854 0.02848,0.26108c0.00004,0.0051 0.00004,0.01019 0,0.01529v0.31474l-0.02998,0.2398v0.3597c-0.0578,0.13484 -0.11406,0.27033 -0.16876,0.40646c-0.0037,0.00939 -0.0074,0.01878 -0.01109,0.02818c-0.05995,0.14988 -0.07993,0.30475 -0.05995,0.46461v0.44963c0.00782,0.00809 0.01394,0.01767 0.01799,0.02818c0.00679,0.01679 0.01069,0.03817 0.01169,0.06415c0.00018,0.0042 0.00028,0.00839 0.0003,0.01259v0.31474l0.02998,0.2398v0.68943l0.02998,6.35471c0.00736,0.02254 0.01307,0.04558 0.01709,0.06894c0.00859,0.04836 0.01289,0.10531 0.01289,0.17086v0.5995c0.00887,0.06267 0.01917,0.12514 0.03087,0.18734c0.03317,0.17505 0.07184,0.30065 0.116,0.37679c0.00098,0.00181 0.00198,0.0036 0.003,0.0054c-0.00002,0.04177 -0.00042,0.08353 -0.0012,0.1253c-0.003,0.16746 -0.01259,0.27557 -0.02878,0.32433c-0.01619,0.04836 -0.02578,0.16157 -0.02878,0.33962c-0.00081,0.04666 -0.00121,0.09332 -0.0012,0.13998c-0.01839,0.10971 -0.01579,0.24879 0.00779,0.41725c0.00226,0.01581 0.00466,0.0316 0.00719,0.04736c0.02318,0.14628 0.01958,0.30155 -0.01079,0.46581c-0.00932,0.05001 -0.02072,0.09961 -0.03417,0.14868c-0.02945,0.12262 -0.05583,0.24596 -0.07913,0.36989c-0.04396,0.2374 -0.06744,0.44183 -0.07044,0.61329c-0.0002,0.01199 -0.0003,0.02398 -0.0003,0.03597c0,0.17445 0.02708,0.38058 0.08123,0.61839c0.0287,0.12467 0.06159,0.24834 0.09862,0.37079c0.00036,0.47007 -0.00593,0.94013 -0.01888,1.41003c-0.01319,0.46401 -0.03327,0.90125 -0.06025,1.31171c-0.01538,0.23704 -0.03396,0.47387 -0.05575,0.71041c-0.08993,0.96919 -0.13489,1.98335 -0.13489,3.04247zM184.04248,191.46186h-0.62948c-0.71232,-0.00101 -1.42407,-0.04054 -2.13213,-0.1184c-0.04868,-0.00533 -0.09734,-0.01083 -0.14598,-0.01649c-0.46926,-0.05366 -0.93703,-0.11963 -1.40283,-0.19784c-0.26263,-0.04429 -0.52446,-0.09326 -0.78535,-0.14688c-0.23216,-0.05751 -0.46186,-0.12451 -0.68853,-0.20083c-0.27537,-0.09332 -0.52546,-0.19624 -0.75028,-0.30874c-0.33264,-0.16797 -0.63778,-0.38558 -0.90495,-0.64536c-0.06507,-0.06264 -0.12815,-0.12732 -0.18914,-0.19394c-0.32973,-0.3597 -0.68443,-0.82931 -1.06411,-1.40883h-0.32973l-0.02998,-0.4796c-0.00563,0 -0.01125,-0.00051 -0.01679,-0.0015c-0.00619,-0.001 -0.01169,-0.0027 -0.01649,-0.0051c-0.00433,-0.00214 -0.00828,-0.00498 -0.01169,-0.00839c-0.00321,-0.00301 -0.00698,-0.00535 -0.01109,-0.00689c-0.01179,-0.0048 -0.03027,-0.00749 -0.05545,-0.00809c-0.0028,-0.00003 -0.00559,-0.00003 -0.00839,0l-0.2398,-0.53955c-0.78108,-1.4785 -1.18607,-3.12658 -1.17922,-4.79871c0.00002,-0.15902 0.00341,-0.31803 0.01019,-0.4769c0.03364,-0.71292 0.11939,-1.42243 0.25659,-2.12283c0.15127,-0.75397 0.3636,-1.4429 0.63697,-2.06678c0.09696,-0.22183 0.20388,-0.43917 0.32043,-0.65136c0.39507,-0.70598 0.8876,-1.3528 1.46308,-1.9214c0.54994,-0.55194 1.1963,-1.0755 1.93909,-1.57069c0.1883,-0.11213 0.38387,-0.21157 0.58541,-0.29765c0.23041,-0.09752 0.45492,-0.16816 0.67354,-0.21192c0.39967,-0.07993 0.78934,-0.15987 1.16903,-0.2398c0.51957,0 1.08909,0.00999 1.70858,0.02998c0.61948,0.01998 1.23897,0.02998 1.85845,0.02998h0.1199c0.00671,-0.00007 0.01341,0.00023 0.02008,0.0009c0.01339,0.0016 0.02338,0.0048 0.02998,0.00959c0.0064,0.00439 0.01013,0.01173 0.00989,0.01948c0.03186,-0.00616 0.06396,-0.01096 0.09622,-0.01439c0.09192,-0.01039 0.20972,-0.01559 0.35341,-0.01559c0.19983,0 0.39967,0.00999 0.5995,0.02998c0.79917,0.05515 1.58312,0.24592 2.31827,0.56413c0.58481,0.25833 1.12712,0.60377 1.60846,1.02455c0.60352,0.53858 1.12769,1.15994 1.5569,1.84556c0.08371,0.13225 0.16427,0.26648 0.2416,0.40256c0.47648,0.84421 0.84247,1.74615 1.08899,2.68367c0.0172,0.06451 0.03389,0.12916 0.05006,0.19394c0.22396,0.89074 0.33742,1.80567 0.33782,2.72413c-0.00004,0.14112 -0.00273,0.28223 -0.00809,0.42325c-0.01998,0.77935 -0.13489,1.50874 -0.34471,2.18818c-0.20983,0.67943 -0.42465,1.36886 -0.64446,2.06828c-0.18584,0.60502 -0.47442,1.17355 -0.85309,1.6807c-0.04432,0.06004 -0.08968,0.11931 -0.13609,0.17775c-0.37222,0.47392 -0.80657,0.89556 -1.29133,1.25356c-0.08749,0.06407 -0.17665,0.12584 -0.26738,0.18525l-0.65945,0.41965c-0.00164,0.00167 -0.00333,0.00326 -0.0051,0.0048c-0.01639,0.01399 -0.02468,0.00789 -0.02488,-0.01828c0,-0.0005 0,-0.001 0,-0.0015c0.00005,-0.00216 -0.00036,-0.0043 -0.0012,-0.00629c-0.00779,-0.01719 -0.05735,0.01988 -0.14868,0.11121c-0.0381,0.03847 -0.09003,0.06006 -0.14418,0.05995c-0.0019,0.00002 -0.0038,0.00002 -0.0057,0c-0.07414,0.05555 -0.23421,0.08533 -0.4802,0.08933c-0.01978,0.00036 -0.03957,0.00056 -0.05935,0.0006h-0.17985c-0.44263,0.13497 -0.88237,0.27929 -1.3189,0.43284c-0.02999,0.01055 -0.05996,0.02114 -0.08993,0.03177c-0.4796,0.16986 -0.88926,0.17485 -1.22898,0.01499c-0.03546,-0.01801 -0.07261,-0.03247 -0.11091,-0.04316c-0.08033,-0.02178 -0.15827,-0.02238 -0.23381,-0.0018c-0.10092,0.02758 -0.17236,0.04246 -0.21432,0.04466c-0.00349,0.00019 -0.00699,0.00029 -0.01049,0.0003zM309.54801,191.46186h-0.62948c-0.71232,-0.00101 -1.42407,-0.04054 -2.13213,-0.1184c-0.04868,-0.00533 -0.09734,-0.01083 -0.14598,-0.01649c-0.46926,-0.05366 -0.93703,-0.11963 -1.40283,-0.19784c-0.26263,-0.04429 -0.52446,-0.09326 -0.78535,-0.14688c-0.23216,-0.05751 -0.46186,-0.12451 -0.68853,-0.20083c-0.27537,-0.09332 -0.52546,-0.19624 -0.75028,-0.30874c-0.33264,-0.16797 -0.63778,-0.38558 -0.90495,-0.64536c-0.06507,-0.06264 -0.12815,-0.12732 -0.18914,-0.19394c-0.32973,-0.3597 -0.68443,-0.82931 -1.06411,-1.40883h-0.32973l-0.02998,-0.4796c-0.00563,0 -0.01125,-0.00051 -0.01679,-0.0015c-0.00619,-0.001 -0.01169,-0.0027 -0.01649,-0.0051c-0.00433,-0.00214 -0.00828,-0.00498 -0.01169,-0.00839c-0.00321,-0.00301 -0.00698,-0.00535 -0.01109,-0.00689c-0.01179,-0.0048 -0.03027,-0.00749 -0.05545,-0.00809c-0.0028,-0.00003 -0.00559,-0.00003 -0.00839,0l-0.2398,-0.53955c-0.78108,-1.4785 -1.18607,-3.12658 -1.17922,-4.79871c0.00002,-0.15902 0.00341,-0.31803 0.01019,-0.4769c0.03364,-0.71292 0.11939,-1.42243 0.25659,-2.12283c0.15127,-0.75397 0.3636,-1.4429 0.63697,-2.06678c0.09696,-0.22183 0.20388,-0.43917 0.32043,-0.65136c0.39507,-0.70598 0.8876,-1.3528 1.46308,-1.9214c0.54994,-0.55194 1.1963,-1.0755 1.93909,-1.57069c0.1883,-0.11213 0.38387,-0.21157 0.58541,-0.29765c0.23041,-0.09752 0.45492,-0.16816 0.67354,-0.21192c0.39967,-0.07993 0.78934,-0.15987 1.16903,-0.2398c0.51957,0 1.08909,0.00999 1.70858,0.02998c0.61948,0.01998 1.23897,0.02998 1.85845,0.02998h0.1199c0.00671,-0.00007 0.01341,0.00023 0.02008,0.0009c0.01339,0.0016 0.02338,0.0048 0.02998,0.00959c0.0064,0.00439 0.01013,0.01173 0.00989,0.01948c0.03186,-0.00616 0.06396,-0.01096 0.09622,-0.01439c0.09192,-0.01039 0.20972,-0.01559 0.35341,-0.01559c0.19983,0 0.39967,0.00999 0.5995,0.02998c0.79917,0.05515 1.58312,0.24592 2.31827,0.56413c0.58481,0.25833 1.12712,0.60377 1.60846,1.02455c0.60352,0.53858 1.12769,1.15994 1.5569,1.84556c0.08371,0.13225 0.16427,0.26648 0.2416,0.40256c0.47648,0.84421 0.84247,1.74615 1.08899,2.68367c0.0172,0.06451 0.03389,0.12916 0.05006,0.19394c0.22396,0.89074 0.33742,1.80567 0.33782,2.72413c-0.00004,0.14112 -0.00273,0.28223 -0.00809,0.42325c-0.01998,0.77935 -0.13489,1.50874 -0.34471,2.18818c-0.20983,0.67943 -0.42465,1.36886 -0.64446,2.06828c-0.18584,0.60502 -0.47442,1.17355 -0.85309,1.6807c-0.04432,0.06004 -0.08968,0.11931 -0.13609,0.17775c-0.37222,0.47392 -0.80657,0.89556 -1.29133,1.25356c-0.08749,0.06407 -0.17665,0.12584 -0.26738,0.18525l-0.65945,0.41965c-0.00164,0.00167 -0.00333,0.00326 -0.0051,0.0048c-0.01639,0.01399 -0.02468,0.00789 -0.02488,-0.01828c0,-0.0005 0,-0.001 0,-0.0015c0.00005,-0.00216 -0.00036,-0.0043 -0.0012,-0.00629c-0.00779,-0.01719 -0.05735,0.01988 -0.14868,0.11121c-0.0381,0.03847 -0.09003,0.06006 -0.14418,0.05995c-0.0019,0.00002 -0.0038,0.00002 -0.0057,0c-0.07414,0.05555 -0.23421,0.08533 -0.4802,0.08933c-0.01978,0.00036 -0.03957,0.00056 -0.05935,0.0006h-0.17985c-0.44263,0.13497 -0.88237,0.27929 -1.3189,0.43284c-0.02999,0.01055 -0.05996,0.02114 -0.08993,0.03177c-0.4796,0.16986 -0.88926,0.17485 -1.22898,0.01499c-0.03546,-0.01801 -0.07261,-0.03247 -0.11091,-0.04316c-0.08033,-0.02178 -0.15827,-0.02238 -0.23381,-0.0018c-0.10092,0.02758 -0.17236,0.04246 -0.21432,0.04466c-0.00349,0.00019 -0.00699,0.00029 -0.01049,0.0003zM183.95255,187.83487l0.50958,-1.10908c0.01998,-0.05995 0.03997,-0.1249 0.05995,-0.19484c0.01588,-0.05642 0.02543,-0.11443 0.02848,-0.17296c0.00099,-0.01727 0.00149,-0.03456 0.0015,-0.05186l0.20983,-0.3597v-0.65945c0.08834,-0.15733 0.15489,-0.32593 0.19784,-0.50118c0.00426,-0.01773 0.00826,-0.03551 0.01199,-0.05336c0.01172,-0.05615 0.02291,-0.1124 0.03357,-0.16876c0.03357,-0.17605 0.07614,-0.41745 0.12769,-0.7242c0.00622,-0.03706 0.01242,-0.07413 0.01858,-0.11121v-0.50958l0.02998,-0.53955l-0.53955,-4.07661c-0.02145,-0.17819 -0.05247,-0.3551 -0.09292,-0.52996c-0.08293,-0.35071 -0.19814,-0.61269 -0.34561,-0.78595c-0.10058,-0.12589 -0.24262,-0.21194 -0.40077,-0.2428c-0.0444,-0.00796 -0.08867,-0.01666 -0.13279,-0.02608c-0.1201,-0.02598 -0.20643,-0.05196 -0.25898,-0.07794c-0.00962,-0.00469 -0.01894,-0.01 -0.02788,-0.01589c-0.02013,-0.01309 -0.04152,-0.02414 -0.06385,-0.03297c-0.04516,-0.01839 -0.10181,-0.03377 -0.16996,-0.04616c-0.02191,-0.00403 -0.04389,-0.00763 -0.06595,-0.01079c-0.05515,-0.01839 -0.14428,-0.04526 -0.26738,-0.08063c-0.01079,-0.00311 -0.02158,-0.0062 -0.03237,-0.00929c-0.12949,-0.03697 -0.25898,-0.0055 -0.38848,0.09442c-0.01061,0.00823 -0.021,0.01672 -0.03117,0.02548c-0.21982,0.3597 -0.40466,0.82931 -0.55454,1.40883c-0.08172,0.31213 -0.1425,0.62938 -0.18195,0.94961c-0.02821,0.23194 -0.04252,0.46537 -0.04286,0.69902v0.89925v1.04913c0,0.51957 0.01998,1.06411 0.05995,1.63364c0.01369,0.19971 0.03278,0.39902 0.05725,0.5977c0.02318,0.18565 0.05056,0.3582 0.08213,0.51767c0.02029,0.10352 0.04378,0.20638 0.07044,0.30844c0.02025,0.06456 0.04023,0.12921 0.05995,0.19394c0.04916,0.16266 0.08413,0.28586 0.10491,0.36959c0.00548,0.02187 0.01047,0.04386 0.01499,0.06595c0.01818,0.09112 0.02808,0.17396 0.02968,0.24849c0.00018,0.00709 0.00028,0.01419 0.0003,0.02128c0,0.75937 0.25978,1.33889 0.77935,1.73855c0,0.21982 0.16986,0.32973 0.50958,0.32973c0.09297,-0.00016 0.18585,-0.00577 0.27817,-0.01679c0.03225,-0.00382 0.06443,-0.00822 0.09652,-0.01319c0.02237,-0.00345 0.04475,-0.00685 0.06714,-0.01019c0.08893,-0.01319 0.14148,-0.01978 0.15767,-0.01978zM309.4581,187.83487l0.50958,-1.10908c0.01998,-0.05995 0.03997,-0.1249 0.05995,-0.19484c0.01588,-0.05642 0.02543,-0.11443 0.02848,-0.17296c0.00099,-0.01727 0.00149,-0.03456 0.0015,-0.05186l0.20983,-0.3597v-0.65945c0.08834,-0.15733 0.15489,-0.32593 0.19784,-0.50118c0.00426,-0.01773 0.00826,-0.03551 0.01199,-0.05336c0.01172,-0.05615 0.02291,-0.1124 0.03357,-0.16876c0.03357,-0.17605 0.07614,-0.41745 0.12769,-0.7242c0.00622,-0.03706 0.01242,-0.07413 0.01858,-0.11121v-0.50958l0.02998,-0.53955l-0.53955,-4.07661c-0.02145,-0.17819 -0.05247,-0.3551 -0.09292,-0.52996c-0.08293,-0.35071 -0.19814,-0.61269 -0.34561,-0.78595c-0.10058,-0.12589 -0.24262,-0.21194 -0.40077,-0.2428c-0.0444,-0.00796 -0.08867,-0.01666 -0.13279,-0.02608c-0.1201,-0.02598 -0.20643,-0.05196 -0.25898,-0.07794c-0.00962,-0.00469 -0.01894,-0.01 -0.02788,-0.01589c-0.02013,-0.01309 -0.04152,-0.02414 -0.06385,-0.03297c-0.04516,-0.01839 -0.10181,-0.03377 -0.16996,-0.04616c-0.02191,-0.00403 -0.04389,-0.00763 -0.06595,-0.01079c-0.05515,-0.01839 -0.14428,-0.04526 -0.26738,-0.08063c-0.01079,-0.00311 -0.02158,-0.0062 -0.03237,-0.00929c-0.12949,-0.03697 -0.25898,-0.0055 -0.38848,0.09442c-0.01061,0.00823 -0.021,0.01672 -0.03117,0.02548c-0.21982,0.3597 -0.40466,0.82931 -0.55454,1.40883c-0.08172,0.31213 -0.1425,0.62938 -0.18195,0.94961c-0.02821,0.23194 -0.04252,0.46537 -0.04286,0.69902v0.89925v1.04913c0,0.51957 0.01998,1.06411 0.05995,1.63364c0.01369,0.19971 0.03278,0.39902 0.05725,0.5977c0.02318,0.18565 0.05056,0.3582 0.08213,0.51767c0.02029,0.10352 0.04378,0.20638 0.07044,0.30844c0.02025,0.06456 0.04023,0.12921 0.05995,0.19394c0.04916,0.16266 0.08413,0.28586 0.10491,0.36959c0.00548,0.02187 0.01047,0.04386 0.01499,0.06595c0.01818,0.09112 0.02808,0.17396 0.02968,0.24849c0.00018,0.00709 0.00028,0.01419 0.0003,0.02128c0,0.75937 0.25978,1.33889 0.77935,1.73855c0,0.21982 0.16986,0.32973 0.50958,0.32973c0.09297,-0.00016 0.18585,-0.00577 0.27817,-0.01679c0.03225,-0.00382 0.06443,-0.00822 0.09652,-0.01319c0.02237,-0.00345 0.04475,-0.00685 0.06714,-0.01019c0.08893,-0.01319 0.14148,-0.01978 0.15767,-0.01978zM232.21236,181.03054l-0.02998,-0.17985c-0.00715,-0.04281 -0.01395,-0.08567 -0.02038,-0.12859c-0.01019,-0.06794 -0.01839,-0.12999 -0.02458,-0.18615c-0.00719,-0.06475 -0.01179,-0.1217 -0.01379,-0.17086c-0.00077,-0.01797 -0.00117,-0.03596 -0.0012,-0.05396c-0.01451,-0.24535 -0.05143,-0.48887 -0.11031,-0.72749c-0.03263,-0.13373 -0.07083,-0.26603 -0.1145,-0.39657c-0.06793,-0.20652 -0.15421,-0.40655 -0.25779,-0.5977c-0.07754,-0.14263 -0.16678,-0.27858 -0.26678,-0.40646c-0.10297,-0.13504 -0.23625,-0.24398 -0.38908,-0.31804c-0.14308,-0.06774 -0.30315,-0.10162 -0.4802,-0.10162c-0.20023,0 -0.37968,0.14908 -0.53835,0.44723c-0.01612,0.0304 -0.03151,0.06118 -0.04616,0.09232c-0.05147,0.11141 -0.097,0.22548 -0.13639,0.34172c-0.12669,0.3655 -0.25609,0.87107 -0.38818,1.51674c-0.03997,0.17985 -0.05495,0.42964 -0.04496,0.74938c0.00708,0.22914 0.01727,0.45817 0.03057,0.68703c0.0044,0.07576 0.0092,0.1515 0.01439,0.22721c0.01719,0.24919 0.01958,0.43554 0.00719,0.55903c-0.0018,0.01856 -0.0042,0.03705 -0.00719,0.05545c0.00688,0.06965 0.01268,0.1394 0.01739,0.20923c0.00979,0.14588 0.01799,0.31784 0.02458,0.51587c0.00107,0.03307 0.00207,0.06614 0.003,0.09922c0.00704,0.25416 0.02014,0.50813 0.03927,0.76167c0.0062,0.08089 0.01309,0.16173 0.02068,0.2425c0.02998,0.31973 0.06495,0.56953 0.10491,0.74938c0,0.53955 0.14988,0.83431 0.44963,0.88426c0.07183,0.01176 0.1443,0.01926 0.21702,0.02248c0.25579,0.01199 0.55314,-0.02048 0.89206,-0.09742c0.0439,-0.0156 0.08433,-0.03963 0.119,-0.07074c0.07753,-0.06654 0.15277,-0.17286 0.22571,-0.31893c0.10991,-0.21982 0.20483,-0.46961 0.28476,-0.74938c0.04169,-0.14713 0.07769,-0.29582 0.10791,-0.44573c0.03077,-0.15107 0.05815,-0.31094 0.08213,-0.4796c0.00162,-0.01129 0.00322,-0.02258 0.0048,-0.03387c0.04996,-0.3597 0.07494,-0.73938 0.07494,-1.13905c0.05995,-0.21982 0.09992,-0.45462 0.1199,-0.70441c0.00982,-0.12463 0.01702,-0.24945 0.02158,-0.37439c0.00559,-0.15007 0.00839,-0.31004 0.00839,-0.4799zM346.23749,181.03054l-0.02998,-0.17985c-0.00715,-0.04281 -0.01395,-0.08567 -0.02038,-0.12859c-0.01019,-0.06794 -0.01839,-0.12999 -0.02458,-0.18615c-0.00719,-0.06475 -0.01179,-0.1217 -0.01379,-0.17086c-0.00077,-0.01797 -0.00117,-0.03596 -0.0012,-0.05396c-0.01451,-0.24535 -0.05143,-0.48887 -0.11031,-0.72749c-0.03263,-0.13373 -0.07083,-0.26603 -0.1145,-0.39657c-0.06793,-0.20652 -0.15421,-0.40655 -0.25779,-0.5977c-0.07754,-0.14263 -0.16678,-0.27858 -0.26678,-0.40646c-0.10297,-0.13504 -0.23625,-0.24398 -0.38908,-0.31804c-0.14308,-0.06774 -0.30315,-0.10162 -0.4802,-0.10162c-0.20023,0 -0.37968,0.14908 -0.53835,0.44723c-0.01612,0.0304 -0.03151,0.06118 -0.04616,0.09232c-0.05147,0.11141 -0.097,0.22548 -0.13639,0.34172c-0.12669,0.3655 -0.25609,0.87107 -0.38818,1.51674c-0.03997,0.17985 -0.05495,0.42964 -0.04496,0.74938c0.00708,0.22914 0.01727,0.45817 0.03057,0.68703c0.0044,0.07576 0.0092,0.1515 0.01439,0.22721c0.01719,0.24919 0.01958,0.43554 0.00719,0.55903c-0.0018,0.01856 -0.0042,0.03705 -0.00719,0.05545c0.00688,0.06965 0.01268,0.1394 0.01739,0.20923c0.00979,0.14588 0.01799,0.31784 0.02458,0.51587c0.00107,0.03307 0.00207,0.06614 0.003,0.09922c0.00704,0.25416 0.02014,0.50813 0.03927,0.76167c0.0062,0.08089 0.01309,0.16173 0.02068,0.2425c0.02998,0.31973 0.06495,0.56953 0.10491,0.74938c0,0.53955 0.14988,0.83431 0.44963,0.88426c0.07183,0.01176 0.1443,0.01926 0.21702,0.02248c0.25579,0.01199 0.55314,-0.02048 0.89206,-0.09742c0.0439,-0.0156 0.08433,-0.03963 0.119,-0.07074c0.07753,-0.06654 0.15277,-0.17286 0.22571,-0.31893c0.10991,-0.21982 0.20483,-0.46961 0.28476,-0.74938c0.04169,-0.14713 0.07769,-0.29582 0.10791,-0.44573c0.03077,-0.15107 0.05815,-0.31094 0.08213,-0.4796c0.00162,-0.01129 0.00322,-0.02258 0.0048,-0.03387c0.04996,-0.3597 0.07494,-0.73938 0.07494,-1.13905c0.05995,-0.21982 0.09992,-0.45462 0.1199,-0.70441c0.00982,-0.12463 0.01702,-0.24945 0.02158,-0.37439c0.00559,-0.15007 0.00839,-0.31004 0.00839,-0.4799zM273.93764,179.08216l1.97835,-0.02998l-0.08993,-0.89925l-0.08993,-0.56953l-0.1199,-0.62948c0.00007,-0.02094 -0.00113,-0.04186 -0.0036,-0.06265c-0.0058,-0.04776 -0.01888,-0.08583 -0.03927,-0.1142c-0.00069,-0.00101 -0.00139,-0.00201 -0.0021,-0.003c-0.02938,-0.03917 -0.05396,-0.09742 -0.07374,-0.17475c-0.0004,-0.0017 -0.0008,-0.0034 -0.0012,-0.0051l-0.29975,-0.20983c-0.11406,-0.03868 -0.23357,-0.05891 -0.35401,-0.05995c-0.0019,0 -0.0038,0 -0.0057,0c-0.04596,0 -0.09772,0.0029 -0.15527,0.00869c-0.01821,0.00189 -0.03639,0.00399 -0.05455,0.00629c-0.05137,0.00643 -0.09796,0.03335 -0.12919,0.07464c-0.01519,0.01898 -0.02878,0.04147 -0.04077,0.06744c-0.0035,0.0075 -0.0068,0.0151 -0.00989,0.02278c-0.03193,0.09768 -0.1053,0.17631 -0.20053,0.21492c-0.02248,0.00987 -0.04562,0.01819 -0.06924,0.02488c-0.0438,0.01474 -0.08151,0.0435 -0.10731,0.08183c-0.06974,0.09252 -0.1255,0.25898 -0.16726,0.49938c-0.00957,0.05587 -0.01796,0.11194 -0.02518,0.16816c-0.04936,0.41186 -0.09542,0.74898 -0.13818,1.01136c-0.00848,0.05263 -0.01737,0.10518 -0.02668,0.15767c-0.04996,0.27977 0.02498,0.41965 0.22481,0.41965zM365.18172,179.08216l1.97835,-0.02998l-0.08993,-0.89925l-0.08993,-0.56953l-0.1199,-0.62948c0.00007,-0.02094 -0.00113,-0.04186 -0.0036,-0.06265c-0.0058,-0.04776 -0.01888,-0.08583 -0.03927,-0.1142c-0.00069,-0.00101 -0.00139,-0.00201 -0.0021,-0.003c-0.02938,-0.03917 -0.05396,-0.09742 -0.07374,-0.17475c-0.0004,-0.0017 -0.0008,-0.0034 -0.0012,-0.0051l-0.29975,-0.20983c-0.11406,-0.03868 -0.23357,-0.05891 -0.35401,-0.05995c-0.0019,0 -0.0038,0 -0.0057,0c-0.04596,0 -0.09772,0.0029 -0.15527,0.00869c-0.01821,0.00189 -0.03639,0.00399 -0.05455,0.00629c-0.05137,0.00643 -0.09796,0.03335 -0.12919,0.07464c-0.01519,0.01898 -0.02878,0.04147 -0.04077,0.06744c-0.0035,0.0075 -0.0068,0.0151 -0.00989,0.02278c-0.03193,0.09768 -0.1053,0.17631 -0.20053,0.21492c-0.02248,0.00987 -0.04562,0.01819 -0.06924,0.02488c-0.0438,0.01474 -0.08151,0.0435 -0.10731,0.08183c-0.06974,0.09252 -0.1255,0.25898 -0.16726,0.49938c-0.00957,0.05587 -0.01796,0.11194 -0.02518,0.16816c-0.04936,0.41186 -0.09542,0.74898 -0.13818,1.01136c-0.00848,0.05263 -0.01737,0.10518 -0.02668,0.15767c-0.04996,0.27977 0.02498,0.41965 0.22481,0.41965z" fill="#000000" fill-rule="evenodd" stroke="#000000" stroke-width="0.25" stroke-linecap="round"/><g fill-rule="nonzero"><g data-paper-data="{&quot;index&quot;:null}" stroke="none" stroke-width="0" stroke-linecap="butt"><path d="M103.32309,202.01963l-15.34001,-34.91812l10.8761,-4.77802l15.34001,34.91812z" fill="#ff0000"/><path d="M107.35003,200.12861l-15.27733,-34.77547l3.57377,-1.57l15.27733,34.77547z" fill="#ffffff"/></g><g stroke="none" stroke-width="0" stroke-linecap="butt"><path d="M85.14078,196.85401l15.34001,-34.91812l10.8761,4.77802l-15.34001,34.91812z" fill="#ff0000"/><path d="M88.41619,198.17102l15.27733,-34.77547l3.57377,1.57002l-15.27733,34.77547z" fill="#ffffff"/></g><path d="M84.1763,164.32648c1.23584,-1.77026 3.96652,-2.12492 3.96652,-2.12492c0,0 3.88769,-4.49031 6.79974,-5.09981c2.91204,-0.60949 11.47455,1.27495 11.47455,1.27495c0,0 4.59175,-0.25958 7.36638,1.55828c2.77463,1.81786 4.95814,6.51642 4.95814,6.51642c0,0 3.28933,3.94755 3.54154,7.36638c0.25221,3.41883 -2.26657,9.91629 -2.26657,9.91629c0,0 0.08153,5.1807 -2.12491,7.50805c-2.20644,2.32734 -8.21635,3.39988 -8.21635,3.39988c0,0 -3.67439,2.72317 -6.2331,2.83322c-2.55872,0.11006 -6.94141,-2.26657 -6.94141,-2.26657c0,0 -4.6811,0.72916 -7.08306,-0.56665c-2.40197,-1.2958 -3.68319,-5.24147 -3.68319,-5.24147c0,0 -3.02681,-0.81214 -4.53316,-3.82485c-1.50636,-3.0127 0,-5.24147 0,-5.24147c0,0 -1.82189,-2.56677 -1.41662,-5.09981c0.40529,-2.53303 3.11654,-5.52479 3.11654,-5.52479c0,0 0.0391,-3.61287 1.27495,-5.38313z" fill="#fffb6c" stroke="none" stroke-width="0" stroke-linecap="round"/><path d="M82.84072,176.59708c0,-9.45518 8.14588,-17.12012 18.19435,-17.12012c10.04846,0 18.19435,7.66493 18.19435,17.12012c0,9.45518 -8.14588,17.12012 -18.19435,17.12012c-10.04846,0 -18.19435,-7.66493 -18.19435,-17.12012z" fill="#eae200" stroke="none" stroke-width="0" stroke-linecap="butt"/><path d="M71.62164,173.78176z" fill="#fff800" stroke="none" stroke-width="0" stroke-linecap="butt"/><path d="M87.91891,183.26595c0,0 -0.64597,-3.86614 -0.64597,-5.86672c0,-2.09486 0.64597,-6.43263 0.64597,-6.43263c0,0 2.63424,1.88879 3.75437,2.84891c0.96765,0.82942 2.57617,2.57727 2.57617,2.57727c0,0 2.11016,-2.63708 3.18948,-3.77988c0.95543,-1.01164 2.9602,-2.73154 2.9602,-2.73154c0,0 1.98243,2.05459 2.86909,3.17768c0.92077,1.16632 2.55709,3.69548 2.55709,3.69548c0,0 2.24867,-1.78328 3.54521,-2.5443c1.45788,-0.85572 4.77494,-2.33927 4.77494,-2.33927c0,0 0.77048,4.28427 0.7078,6.2898c-0.05745,1.83856 -1.06955,5.28607 -1.06955,5.28607c0,0 -8.96081,0.59144 -13.09159,0.56255c-4.46482,-0.03123 -12.77322,-0.74344 -12.77322,-0.74344z" fill="#fffb6c" stroke="#fffb6c" stroke-width="0.25" stroke-linecap="round"/></g></g></g></svg>