<svg version="1.1" xmlns="http://www.w3.org/2000/svg" xmlns:xlink="http://www.w3.org/1999/xlink" width="257.17293" height="32.64804" viewBox="0,0,257.17293,32.64804"><g transform="translate(-111.42161,-163.69009)"><g data-paper-data="{&quot;isPaintingLayer&quot;:true}" fill="#000000" fill-rule="evenodd" stroke="#000000" stroke-width="2.5" stroke-linecap="round" stroke-linejoin="miter" stroke-miterlimit="10" stroke-dasharray="" stroke-dashoffset="0" style="mix-blend-mode: normal"><path d="M279.77412,176.16061h-5.61703c-0.51157,1.00268 -1.0743,1.96954 -1.68818,2.9006c-0.61388,0.93105 -1.19707,1.72399 -1.74957,2.3788c-0.06071,0.07512 -0.14264,0.1302 -0.23512,0.15807c-0.03844,0.01216 -0.07788,0.02089 -0.11787,0.02609c-0.15347,0.02046 -0.29159,-0.01023 -0.41437,-0.09208c-0.10231,-0.10231 -0.15859,-0.22509 -0.16882,-0.36833c-0.00471,-0.06466 0,-0.12308 0.01412,-0.17526c0.01614,-0.06145 0.04835,-0.11749 0.09331,-0.16237c0.2565,-0.29602 0.50222,-0.60122 0.73666,-0.91499c0.32086,-0.42726 0.64826,-0.89985 0.98221,-1.41776c0.59342,-0.92082 1.14591,-1.88769 1.65748,-2.9006c0.51157,-1.01291 0.92082,-1.96954 1.22777,-2.8699v-3.00803h-3.52983c-0.27748,0 -0.44435,-0.11715 -0.50062,-0.35145c-0.0149,-0.06596 -0.022,-0.13343 -0.02118,-0.20105c-0.002,-0.1364 0.05164,-0.26773 0.14856,-0.36373c0.00163,-0.00154 0.00327,-0.00308 0.00491,-0.0046c0.09467,-0.09816 0.22521,-0.15357 0.36158,-0.15347c0.00225,-0.00001 0.0045,-0.00001 0.00675,0h3.52983v-2.97733c-0.00076,-0.06596 0.00972,-0.13156 0.031,-0.19399c0.02796,-0.07885 0.07536,-0.14937 0.13782,-0.20504c0.05346,-0.04965 0.11557,-0.08908 0.18324,-0.11633c0.06387,-0.02493 0.13187,-0.03753 0.20043,-0.03714c0.06228,-0.00062 0.12433,0.00786 0.18416,0.02517c0.08128,0.024 0.15518,0.06813 0.21486,0.1283c0.08321,0.08345 0.13541,0.19283 0.14795,0.31001c0.0037,0.02952 0.00555,0.05926 0.00552,0.08901v2.97733h4.26649v-2.97733c-0.00076,-0.06596 0.00972,-0.13156 0.031,-0.19399c0.02796,-0.07885 0.07536,-0.14937 0.13782,-0.20504c0.05346,-0.04965 0.11557,-0.08908 0.18324,-0.11633c0.06387,-0.02493 0.13187,-0.03753 0.20043,-0.03714c0.06228,-0.00062 0.12433,0.00786 0.18416,0.02517c0.08128,0.024 0.15518,0.06813 0.21486,0.1283c0.08321,0.08345 0.13541,0.19283 0.14795,0.31001c0.0037,0.02952 0.00555,0.05926 0.00552,0.08901v2.97733h4.08232c0.06228,-0.00062 0.12433,0.00786 0.18416,0.02517c0.08128,0.024 0.15518,0.06813 0.21486,0.1283c0.09816,0.09467 0.15357,0.22521 0.15347,0.36158c0.00001,0.00225 0.00001,0.0045 0,0.00675c0.00028,0.13739 -0.05073,0.26994 -0.14303,0.37171c-0.00343,0.00403 -0.00691,0.00802 -0.01044,0.01197c-0.10231,0.11255 -0.23532,0.16882 -0.39902,0.16882h-4.08232v2.88525c0.00028,0.13739 -0.05073,0.26994 -0.14303,0.37171c-0.00343,0.00403 -0.00691,0.00802 -0.01044,0.01197c-0.10231,0.11255 -0.23532,0.16882 -0.39902,0.16882c-0.12281,-0.00005 -0.24152,-0.04416 -0.33457,-0.12431c-0.01707,-0.01405 -0.03346,-0.0289 -0.04911,-0.04451c-0.04509,-0.04413 -0.08309,-0.09497 -0.11265,-0.15071c-0.03737,-0.07194 -0.05665,-0.1519 -0.05617,-0.23297v-2.88525h-4.26649v1.78026c0.05988,0.0315 0.11338,0.07386 0.15777,0.12493c0.08881,0.10538 0.12257,0.24218 0.10129,0.41038c-0.00339,0.02637 -0.0079,0.05259 -0.01351,0.07858c-0.14002,0.47979 -0.3009,0.95323 -0.48221,1.41899c-0.18416,0.47678 -0.39616,0.97208 -0.63598,1.4859c-0.01599,0.03441 -0.03206,0.06879 -0.04819,0.10313h5.09523c1.28854,0 2.23535,0.26244 2.84044,0.78731c0.0099,0.00861 0.01972,0.01731 0.02947,0.02609c0.5838,0.52446 0.8757,1.37909 0.8757,2.56388c0.00003,0.04062 -0.00028,0.08124 -0.00092,0.12186c-0.02046,1.65748 -0.06139,3.28427 -0.12278,4.88037c-0.06139,1.5961 -0.17393,3.05919 -0.33764,4.38926c-0.04016,0.37076 -0.09618,0.73963 -0.1679,1.1056c-0.14365,0.72193 -0.3403,1.31156 -0.58994,1.7689c-0.01313,0.0242 -0.02653,0.04824 -0.04021,0.07213c-0.38879,0.67527 -0.99244,1.1408 -1.81096,1.39658c-0.29654,0.0904 -0.59885,0.16065 -0.90486,0.21025c-0.63987,0.10784 -1.40047,0.16534 -2.2818,0.1725c-0.06323,0.00056 -0.12646,0.00087 -0.18969,0.00092c-0.12281,-0.00005 -0.24152,-0.04416 -0.33457,-0.12431c-0.01707,-0.01405 -0.03346,-0.0289 -0.04911,-0.04451c-0.04509,-0.04413 -0.08309,-0.09497 -0.11265,-0.15071c-0.03737,-0.07194 -0.05665,-0.1519 -0.05617,-0.23297c0,-0.1637 0.06139,-0.29671 0.18416,-0.39902c0.05293,-0.04495 0.11232,-0.08169 0.17618,-0.10896c0.07056,-0.02956 0.14633,-0.04469 0.22284,-0.04451c0.33367,0.00049 0.6673,-0.00678 1.00063,-0.02179c0.62575,-0.02926 1.1497,-0.08809 1.57185,-0.17649c0.06877,-0.01431 0.13724,-0.03007 0.20534,-0.04727c0.2434,-0.05929 0.47636,-0.15523 0.69093,-0.28453c0.29671,-0.18132 0.54016,-0.4379 0.70566,-0.74372c0.28648,-0.5218 0.49111,-1.3045 0.61388,-2.3481c0.18416,-1.45286 0.30694,-2.98245 0.36833,-4.58878c0.06139,-1.60633 0.09208,-3.15638 0.09208,-4.65016c0.00113,-0.22594 -0.01353,-0.45168 -0.04389,-0.67558c-0.07571,-0.53735 -0.25036,-0.94651 -0.52395,-1.22746c-0.15452,-0.15357 -0.33905,-0.27363 -0.54206,-0.35268c-0.3229,-0.1328 -0.73185,-0.20821 -1.22685,-0.22622c-0.08049,-0.00291 -0.16102,-0.00434 -0.24156,-0.0043zM306.81567,192.36712v-15.7461c-0.30781,0.77382 -0.64217,1.53682 -1.00247,2.28764c-0.17238,0.36026 -0.34981,0.71809 -0.53224,1.07337c-0.59342,1.15615 -1.22265,2.25602 -1.88769,3.29962c-0.66504,1.0436 -1.31473,1.96443 -1.94908,2.76247c-0.03753,0.04433 -0.07915,0.08502 -0.12431,0.12155c-0.19481,0.15552 -0.40179,0.15859 -0.62094,0.00921c-0.01803,-0.01229 -0.03564,-0.02519 -0.05279,-0.03867c-0.05099,-0.04142 -0.09377,-0.09202 -0.12615,-0.14917c-0.03918,-0.07188 -0.05916,-0.15265 -0.05801,-0.2345c0,-0.15347 0.04092,-0.28136 0.12278,-0.38368c0.56846,-0.64969 1.14694,-1.42032 1.73545,-2.31188c0.00471,-0.00696 0.00942,-0.01391 0.01412,-0.02087c0.59342,-0.90036 1.17149,-1.86211 1.73422,-2.88525c0.48027,-0.87143 0.9298,-1.75945 1.34778,-2.66241c0.05786,-0.12513 0.11505,-0.25057 0.17158,-0.37631c0.45018,-1.00268 0.81851,-1.94396 1.10499,-2.82386h-5.06454c-0.13644,0.00192 -0.26779,-0.05183 -0.36373,-0.14887c-0.00154,-0.00153 -0.00308,-0.00306 -0.0046,-0.0046c-0.09824,-0.09474 -0.15365,-0.22541 -0.15347,-0.36188c-0.00001,-0.00215 -0.00001,-0.0043 0,-0.00645c-0.00104,-0.06972 0.00764,-0.13924 0.02578,-0.20657c0.06016,-0.21015 0.2255,-0.31523 0.49602,-0.31523h5.18731v-5.2487c-1.13964,0.28344 -2.29352,0.50619 -3.45678,0.66729c-0.37134,0.05081 -0.74362,0.0944 -1.11665,0.13076c-0.0248,0.00262 -0.04967,0.00447 -0.07459,0.00552c-0.29753,0.01228 -0.48763,-0.10272 -0.5703,-0.345c-0.01322,-0.03947 -0.02338,-0.0799 -0.03039,-0.12093c-0.04092,-0.34787 0.14324,-0.54226 0.55249,-0.58319c0.94129,-0.10231 1.98489,-0.2609 3.1308,-0.47576c1.14591,-0.21486 2.25602,-0.47576 3.33032,-0.7827c0.8224,-0.23512 1.5519,-0.47617 2.18849,-0.72315c0.18764,-0.07258 0.37389,-0.14871 0.55863,-0.22836c0.14324,-0.06139 0.28648,-0.08185 0.42972,-0.06139c0.14324,0.02046 0.25578,0.11255 0.33764,0.27625c0.06139,0.14324 0.06139,0.29159 0,0.44507c-0.06139,0.15347 -0.1637,0.2609 -0.30694,0.32229c-1.03173,0.4203 -2.22389,0.8049 -3.57648,1.15379c-0.0969,0.02502 -0.19389,0.04968 -0.29098,0.07397v5.49425h4.41996c0.14324,0 0.26602,0.04604 0.36833,0.13812c0.07544,0.06837 0.12562,0.16018 0.14242,0.26059c0.0075,0.0406 0.01119,0.0818 0.01105,0.12308c0.00184,0.13634 -0.05191,0.26755 -0.14887,0.36342c-0.00153,0.00165 -0.00306,0.00328 -0.0046,0.00491c-0.09474,0.09824 -0.22541,0.15365 -0.36188,0.15347c-0.00215,0.00001 -0.0043,0.00001 -0.00645,0h-4.41996v2.54761c0.16295,0.22965 0.32881,0.45721 0.49755,0.68264c0.17332,0.23184 0.35922,0.47545 0.55771,0.73083c0.06749,0.08664 0.13522,0.1731 0.2032,0.25937c0.49111,0.62411 0.99244,1.22265 1.50401,1.79561c0.34766,0.38941 0.66228,0.72684 0.94385,1.01229c0.12315,0.12519 0.24851,0.24818 0.376,0.36894c0.09612,0.0963 0.15911,0.22067 0.17987,0.35513c0.00161,0.00949 0.00304,0.01901 0.0043,0.02855c0.00251,0.01863 0.00394,0.03738 0.0043,0.05617c0.00225,0.12871 -0.05034,0.23788 -0.15777,0.32751c-0.10231,0.12278 -0.24044,0.18416 -0.41437,0.18416c-0.05967,0.00044 -0.11917,-0.00657 -0.17711,-0.02087c-0.08973,-0.02165 -0.1718,-0.06752 -0.23727,-0.1326c-0.16203,-0.17807 -0.32125,-0.35867 -0.4776,-0.54175c-0.32597,-0.3804 -0.69369,-0.82905 -1.10315,-1.34594c-0.49233,-0.62003 -0.96265,-1.25723 -1.41009,-1.9104c-0.09909,-0.14504 -0.19691,-0.29094 -0.29344,-0.4377v14.11931c-0.00005,0.12281 -0.04416,0.24152 -0.12431,0.33457c-0.01405,0.01707 -0.0289,0.03346 -0.04451,0.04911c-0.04415,0.04498 -0.09499,0.08287 -0.15071,0.11234c-0.07191,0.03747 -0.15188,0.05686 -0.23297,0.05648c-0.12281,-0.00005 -0.24152,-0.04416 -0.33457,-0.12431c-0.01707,-0.01405 -0.03346,-0.0289 -0.04911,-0.04451c-0.04509,-0.04413 -0.08309,-0.09497 -0.11265,-0.15071c-0.03737,-0.07194 -0.05665,-0.1519 -0.05617,-0.23297zM288.33779,172.17037h8.99339c0.06596,-0.00076 0.13156,0.00972 0.19399,0.031c0.07885,0.02796 0.14937,0.07536 0.20504,0.13782c0.04965,0.05346 0.08908,0.11557 0.11633,0.18324c0.02493,0.06387 0.03753,0.13187 0.03714,0.20043c0.00028,0.13739 -0.05073,0.26994 -0.14303,0.37171c-0.00343,0.00403 -0.00691,0.00802 -0.01044,0.01197c-0.10231,0.11255 -0.23532,0.16882 -0.39902,0.16882h-2.36345c-0.16097,2.03769 -0.51607,4.05536 -1.06048,6.02557c-0.47424,1.70789 -1.12702,3.36109 -1.94754,4.93224c0.90036,1.41193 1.88769,2.7062 2.96199,3.88281c0.67585,0.74388 1.39766,1.44467 2.16118,2.09825c0.37824,0.3226 0.76822,0.63118 1.16914,0.92512c0.06357,0.04418 0.11721,0.10116 0.15746,0.16728c0.04277,0.07203 0.06691,0.15398 0.07244,0.24586c0.0001,0.00041 0.00021,0.00082 0.00031,0.00123c0.00103,0.0183 0.00154,0.03662 0.00153,0.05494c0.00041,0.14815 -0.03591,0.26796 -0.10896,0.35943c-0.12278,0.14324 -0.27625,0.22509 -0.46041,0.24555c-0.02599,0.00288 -0.05212,0.00431 -0.07827,0.0043c-0.12155,0 -0.23839,-0.03213 -0.35053,-0.09638c-0.03224,-0.01853 -0.06329,-0.03903 -0.093,-0.06139c-2.35322,-1.88257 -4.3688,-4.13348 -6.04675,-6.75271c-1.80072,2.9671 -4.21533,5.31009 -7.24382,7.02896c-0.14324,0.08185 -0.29159,0.10231 -0.44507,0.06139c-0.15347,-0.04092 -0.28136,-0.12278 -0.38368,-0.24555c-0.04937,-0.07192 -0.0758,-0.1571 -0.07581,-0.24433c0,-0.03561 0.0043,-0.07234 0.01289,-0.11019c0.00462,-0.02022 0.01025,-0.0402 0.01688,-0.05985c0.05116,-0.15347 0.14835,-0.27113 0.29159,-0.35298c1.53471,-0.83897 2.9006,-1.86723 4.09767,-3.08476c1.19707,-1.21754 2.22533,-2.57319 3.08476,-4.06698c-0.81851,-1.41193 -1.50913,-2.89548 -2.07186,-4.45065c-0.56273,-1.55517 -0.98733,-3.14103 -1.27381,-4.75759c-0.30694,0.75712 -0.62923,1.48867 -0.96687,2.19463c-0.20325,0.42616 -0.42037,0.84557 -0.65102,1.25754c-0.13089,0.23348 -0.2669,0.46404 -0.40793,0.69154c-0.08185,0.14324 -0.19951,0.24044 -0.35298,0.29159c-0.12114,0.04031 -0.24535,0.03929 -0.37263,-0.00307c-0.03536,-0.01185 -0.06982,-0.02621 -0.10313,-0.04297c-0.14324,-0.08185 -0.23021,-0.1944 -0.2609,-0.33764c-0.00832,-0.03853 -0.01254,-0.07783 -0.01258,-0.11725c0,-0.07162 0.01402,-0.14324 0.04205,-0.21486c0.01338,-0.03363 0.02917,-0.06626 0.04727,-0.09761c0.25321,-0.3873 0.48868,-0.78592 0.70566,-1.19462c0.22898,-0.42849 0.45345,-0.89003 0.67343,-1.38461c0.03173,-0.07117 0.06315,-0.14248 0.09423,-0.21394c0.42285,-0.97793 0.8033,-1.97366 1.14029,-2.98439c0.0505,-0.15083 0.10012,-0.30195 0.14887,-0.45335c0.28447,-0.88172 0.54729,-1.77027 0.78823,-2.66487c0.07742,-0.28766 0.15232,-0.57599 0.22468,-0.86496c0.12799,-0.50975 0.24425,-1.02238 0.34869,-1.53747c0.09761,-0.48353 0.17741,-0.94282 0.23941,-1.37786c0.00888,-0.06155 0.01747,-0.12314 0.02578,-0.18478c0.02338,-0.09764 0.06572,-0.18972 0.12462,-0.27103c0.03497,-0.04742 0.07558,-0.0904 0.12093,-0.12799c0.04758,-0.04059 0.10278,-0.07127 0.16237,-0.09024c0.08205,-0.02537 0.17117,-0.02599 0.26735,-0.00184c0.06364,0.00739 0.12587,0.02394 0.18478,0.04911c0.07743,0.03342 0.14565,0.08501 0.1989,0.1504c0.09208,0.11255 0.11766,0.25067 0.07674,0.41437c-0.14324,0.92082 -0.34275,1.9235 -0.59854,3.00803c-0.25578,1.08453 -0.55761,2.16905 -0.90548,3.25358zM126.30335,171.4951h-4.97245c-0.98221,1.37101 -2.12301,2.71643 -3.4224,4.03628c-0.77794,0.79359 -1.59718,1.54562 -2.4543,2.25295c-0.48283,0.39731 -0.97979,0.77714 -1.48989,1.13875c-0.32741,0.20463 -0.59342,0.15347 -0.79805,-0.15347c-0.08185,-0.12278 -0.11255,-0.2609 -0.09208,-0.41437c0.01527,-0.13008 0.08628,-0.24712 0.1946,-0.32075c0.01645,-0.01157 0.03345,-0.02233 0.05095,-0.03223c1.13682,-0.81049 2.2137,-1.7019 3.22227,-2.66732c0.15515,-0.14785 0.30883,-0.29724 0.46103,-0.44813c1.18684,-1.17661 2.25602,-2.41461 3.20754,-3.71399c0.95152,-1.29938 1.6933,-2.55273 2.22533,-3.76003c0.02876,-0.06975 0.07196,-0.13262 0.12677,-0.18447c0.0521,-0.04765 0.11342,-0.08411 0.18017,-0.10712c0.05485,-0.01993 0.11237,-0.03152 0.17066,-0.03438c0.07407,-0.00328 0.14815,0.00849 0.22223,0.0353c0.01242,0.00445 0.0247,0.00926 0.03683,0.01443c0.06964,0.0288 0.1324,0.072 0.18416,0.12677c0.04776,0.05207 0.08433,0.1134 0.10743,0.18017c0.01983,0.05486 0.03131,0.11239 0.03407,0.17066c0.00348,0.07407 -0.00819,0.14815 -0.03499,0.22223c-0.00445,0.01242 -0.00926,0.0247 -0.01443,0.03683c-0.18439,0.44531 -0.39628,0.87873 -0.63445,1.29775c-0.23088,0.40722 -0.48006,0.80378 -0.74679,1.18848h4.23579c0.37243,-0.00187 0.74454,0.02233 1.11358,0.07244c0.37672,0.0532 0.71824,0.13577 1.02457,0.2477c0.29356,0.10448 0.57091,0.24987 0.82383,0.43187c0.61309,0.431 1.01702,1.09965 1.11328,1.84288c0.00944,0.06586 0.01691,0.13198 0.02241,0.19828c0.06057,0.72888 -0.1105,1.53133 -0.51321,2.40734c-0.07457,0.16177 -0.15421,0.32115 -0.2388,0.47791c-1.63702,3.1308 -3.81119,5.9342 -6.52251,8.4102c-2.09733,1.89942 -4.42635,3.5261 -6.93166,4.84139c-0.90024,0.47752 -1.81835,0.92056 -2.75234,1.32814c-0.05131,0.02227 -0.10543,0.03745 -0.16084,0.04512c-0.08656,0.01166 -0.17322,0.00276 -0.25998,-0.0267c-0.00297,-0.001 -0.00594,-0.00203 -0.0089,-0.00307c-0.13278,-0.04536 -0.24074,-0.14387 -0.29804,-0.27195c-0.00308,-0.0065 -0.00604,-0.01305 -0.0089,-0.01964c-0.02238,-0.0513 -0.03766,-0.10541 -0.04543,-0.16084c-0.01166,-0.08656 -0.00276,-0.17322 0.0267,-0.25998c0.0011,-0.00297 0.00223,-0.00594 0.00338,-0.0089c0.04529,-0.13272 0.14368,-0.24067 0.27164,-0.29804c0.0066,-0.00308 0.01325,-0.00605 0.01995,-0.0089c2.02708,-0.87376 3.97272,-1.92546 5.81409,-3.14277c1.25419,-0.8329 2.44509,-1.75737 3.56298,-2.76585c2.58854,-2.34299 4.69109,-5.05942 6.30765,-8.1493c0.11869,-0.22444 0.22505,-0.4552 0.31861,-0.69123c0.29876,-0.76162 0.36321,-1.40835 0.19337,-1.94018c-0.03647,-0.11481 -0.08461,-0.22558 -0.14365,-0.33058c-0.39411,-0.69962 -1.25314,-1.06232 -2.57708,-1.08811c-0.05156,-0.00102 -0.10313,-0.00153 -0.1547,-0.00153zM319.89138,188.89868v-16.72831h-3.89816c-0.81851,1.69841 -1.79049,3.31497 -2.91594,4.84968c-0.04754,0.06802 -0.1074,0.12653 -0.17649,0.1725c-0.06756,0.04397 -0.14322,0.07402 -0.22253,0.0884c-0.03684,0.00693 -0.07424,0.01042 -0.11173,0.01044c-0.10129,0 -0.19849,-0.02691 -0.29159,-0.08073c-0.0196,-0.01148 -0.03865,-0.02387 -0.05709,-0.03714c-0.0505,-0.0352 -0.0948,-0.07856 -0.13106,-0.1283c-0.05608,-0.079 -0.08545,-0.17385 -0.0838,-0.27072c-0.00043,-0.05754 0.00534,-0.11496 0.01719,-0.17127c0.01924,-0.08799 0.05443,-0.16391 0.10559,-0.22775c0.39923,-0.4819 0.7716,-0.98543 1.11543,-1.50831c0.33443,-0.50758 0.64838,-1.02837 0.94108,-1.5611c0.65481,-1.18684 1.23288,-2.40949 1.73422,-3.66795c0.49315,-1.2382 0.85268,-2.38238 1.07859,-3.43253c0.00371,-0.01708 0.00739,-0.03417 0.01105,-0.05126c0.01669,-0.07001 0.04502,-0.13673 0.0838,-0.19736c0.04553,-0.0695 0.10604,-0.12792 0.17711,-0.17097c0.04448,-0.02782 0.09262,-0.04931 0.14303,-0.06384c0.08512,-0.02394 0.17219,-0.02404 0.26121,-0.00031c0.00339,0.00089 0.00676,0.00181 0.01013,0.00276c0.05487,0.00625 0.10841,0.02106 0.15869,0.04389c0.08357,0.03893 0.1519,0.10444 0.19429,0.18631c0.07162,0.13301 0.08697,0.28136 0.04604,0.44507c-0.40925,1.63702 -0.95152,3.20242 -1.62679,4.69621h11.5717c0.13629,-0.00192 0.2675,0.05171 0.36342,0.14856c0.00165,0.00163 0.00328,0.00327 0.00491,0.00491c0.08321,0.08345 0.13541,0.19283 0.14795,0.31001c0.0037,0.02952 0.00555,0.05926 0.00552,0.08901c0.00184,0.13634 -0.05191,0.26755 -0.14887,0.36342c-0.00153,0.00165 -0.00306,0.00328 -0.0046,0.00491c-0.09474,0.09824 -0.22541,0.15365 -0.36188,0.15347c-0.00215,0.00001 -0.0043,0.00001 -0.00645,0h-7.02896v16.72831c0.0009,0.28222 -0.01181,0.56432 -0.03806,0.84532c-0.02599,0.26745 -0.06517,0.51361 -0.11756,0.7385c-0.04734,0.20911 -0.1134,0.41354 -0.19736,0.61081c-0.19261,0.44216 -0.53093,0.80496 -0.95858,1.02795c-0.10687,0.05811 -0.21728,0.10947 -0.33058,0.15378c-0.21678,0.08302 -0.44008,0.14791 -0.6676,0.19399c-0.47269,0.09986 -1.0436,0.15675 -1.71273,0.17066c-0.11202,0.0024 -0.22406,0.00363 -0.3361,0.00368c-0.12281,-0.00005 -0.24152,-0.04416 -0.33457,-0.12431c-0.01707,-0.01405 -0.03346,-0.0289 -0.04911,-0.04451c-0.04509,-0.04413 -0.08309,-0.09497 -0.11265,-0.15071c-0.03737,-0.07194 -0.05665,-0.1519 -0.05617,-0.23297c-0.00076,-0.06596 0.00972,-0.13156 0.031,-0.19399c0.02796,-0.07885 0.07536,-0.14937 0.13782,-0.20504c0.05346,-0.04965 0.11557,-0.08908 0.18324,-0.11633c0.06387,-0.02493 0.13187,-0.03753 0.20043,-0.03714c0.7827,0 1.39914,-0.0531 1.84932,-0.1593c0.08543,-0.01982 0.16993,-0.04348 0.25323,-0.0709c0.46041,-0.15347 0.76735,-0.41949 0.92082,-0.79805c0.1457,-0.35953 0.22223,-0.8622 0.22959,-1.508c0.0004,-0.03448 0.0006,-0.06896 0.00061,-0.10344zM348.55972,168.82471h4.54273c0.24107,-0.00185 0.48184,0.01766 0.71947,0.05832c0.67916,0.12216 1.13507,0.43524 1.36773,0.93924c0.10953,0.23745 0.16559,0.49605 0.16421,0.75753c0,0.37917 -0.11009,0.78863 -0.33027,1.22838c-0.06222,0.12357 -0.12971,0.24441 -0.20227,0.36219c-0.45018,0.73666 -0.93105,1.44774 -1.44263,2.13324c-0.51157,0.6855 -1.06407,1.35566 -1.65748,2.01047c1.08453,1.12545 2.28671,2.10767 3.60656,2.94664c1.31985,0.83897 2.72666,1.52448 4.22045,2.05651c0.44077,0.16022 0.58728,0.41857 0.43954,0.77503c-0.00318,0.00771 -0.00645,0.01539 -0.00982,0.02302c-0.13772,0.31451 -0.41713,0.42123 -0.83826,0.32014c-0.01736,-0.00413 -0.03465,-0.00854 -0.05187,-0.0132c-2.81763,-1.04704 -5.37851,-2.68504 -7.51055,-4.80394c-0.19039,-0.18613 -0.37775,-0.37533 -0.56201,-0.56753c-2.33276,2.35322 -5.06454,4.28695 -8.19534,5.8012c-0.04536,0.0308 -0.09558,0.05373 -0.14856,0.06783c-0.0798,0.02067 -0.16329,0.01852 -0.25046,-0.00645c-0.14324,-0.04092 -0.25578,-0.12278 -0.33764,-0.24555c-0.01559,-0.03303 -0.02892,-0.06708 -0.0399,-0.1019c-0.07326,-0.23614 0.01115,-0.41734 0.25323,-0.54359c0.02063,-0.01064 0.04162,-0.02057 0.06292,-0.02977c1.45286,-0.7162 2.85967,-1.55517 4.22045,-2.51692c1.36077,-0.96175 2.60389,-2.03604 3.72934,-3.22289c-1.28915,-1.45286 -2.34299,-3.06942 -3.1615,-4.84968c-0.51157,0.81851 -1.03848,1.60121 -1.58075,2.3481c-0.24951,0.34435 -0.50628,0.6834 -0.77012,1.0169c-0.26683,0.33641 -0.52681,0.64713 -0.77994,0.93218c-0.04145,0.05088 -0.09204,0.09356 -0.14917,0.12585c-0.07185,0.03929 -0.15262,0.05937 -0.2345,0.05832c-0.15347,0 -0.28136,-0.04092 -0.38368,-0.12278c-0.10231,-0.10231 -0.15859,-0.22509 -0.16882,-0.36833c-0.00097,-0.01287 -0.00149,-0.02577 -0.00153,-0.03867c0,-0.12482 0.04512,-0.23328 0.13536,-0.32536c0.00142,-0.00144 0.00286,-0.00287 0.0043,-0.0043c0.23753,-0.2484 0.46535,-0.50592 0.68294,-0.77196c0.22345,-0.27154 0.45049,-0.5659 0.6811,-0.88307c0.07828,-0.10758 0.15563,-0.21584 0.23205,-0.32474c0.42829,-0.61232 0.83703,-1.23808 1.22562,-1.87633c0.13588,-0.22247 0.26961,-0.44623 0.40117,-0.67128c0.50259,-0.85812 0.97034,-1.73618 1.40211,-2.63202c0.01355,-0.02812 0.02705,-0.05625 0.04052,-0.08441c0.20161,-0.42127 0.3933,-0.84722 0.5749,-1.27749c0.17721,-0.42133 0.33344,-0.82424 0.4687,-1.20874c0.06139,-0.14324 0.15859,-0.25578 0.29159,-0.33764c0.04448,-0.02782 0.09262,-0.04931 0.14303,-0.06384c0.08512,-0.02394 0.17219,-0.02404 0.26121,-0.00031c0.00339,0.00089 0.00676,0.00181 0.01013,0.00276c0.05832,0.02343 0.1139,0.05317 0.16575,0.08871c0.21118,0.14754 0.25824,0.36352 0.14119,0.64795c-0.2497,0.7436 -0.54261,1.47198 -0.87724,2.18143c-0.15997,0.34086 -0.32802,0.67788 -0.504,1.01076zM143.06236,181.71625v-9.9756c-0.00076,-0.06596 0.00972,-0.13156 0.031,-0.19399c0.02796,-0.07885 0.07536,-0.14937 0.13782,-0.20504c0.05346,-0.04965 0.11557,-0.08908 0.18324,-0.11633c0.06387,-0.02493 0.13187,-0.03753 0.20043,-0.03714c0.06228,-0.00062 0.12433,0.00786 0.18416,0.02517c0.08128,0.024 0.15518,0.06813 0.21486,0.1283c0.08321,0.08345 0.13541,0.19283 0.14795,0.31001c0.0037,0.02952 0.00555,0.05926 0.00552,0.08901v9.9756c-0.00262,0.42037 0.02559,0.84037 0.08441,1.25662c0.14406,0.97137 0.47269,1.68327 0.9859,2.1357c0.14504,0.12791 0.30635,0.23607 0.47975,0.32167c1.03337,0.51157 2.69597,0.37856 4.9878,-0.39902c2.06674,-0.7162 4.06186,-1.61144 5.98536,-2.68574c1.9235,-1.0743 3.79584,-2.27648 5.61703,-3.60656c0.11746,-0.09802 0.25364,-0.13505 0.40854,-0.11111c0.00708,0.00111 0.01414,0.00234 0.02118,0.00368c0.06217,0.01103 0.12237,0.0312 0.17864,0.05985c0.07678,0.0396 0.1421,0.09826 0.18969,0.17035c0.08185,0.12278 0.11255,0.2609 0.09208,0.41437c-0.02046,0.15347 -0.09208,0.28136 -0.21486,0.38368c-1.82119,1.30962 -3.74469,2.52715 -5.7705,3.6526c-1.84304,1.02941 -3.76662,1.90749 -5.75178,2.62558c-0.12876,0.04637 -0.25778,0.092 -0.38705,0.1369c-2.53738,0.8799 -4.50692,0.98733 -5.90862,0.32229c-0.73526,-0.35675 -1.30917,-0.97735 -1.60745,-1.73821c-0.33006,-0.77002 -0.4951,-1.7509 -0.4951,-2.94265zM267.11217,195.05746c0.04823,-0.02357 0.09461,-0.05076 0.13874,-0.08134c0.0686,-0.04416 0.1233,-0.10684 0.15777,-0.18079c0.02433,-0.05436 0.03847,-0.11273 0.04174,-0.17219c0.00107,-0.01686 0.00159,-0.03375 0.00153,-0.05065c0.00121,-0.12946 -0.03677,-0.25626 -0.10896,-0.36373c-0.37959,-0.54532 -0.73238,-1.10881 -1.05711,-1.68849c-0.7986,-1.43676 -1.44229,-2.9543 -1.92023,-4.52708c-0.7162,-2.32253 -1.0743,-4.69109 -1.0743,-7.1057c0,-2.39414 0.3581,-4.75759 1.0743,-7.09035c0.7162,-2.33276 1.70864,-4.39949 2.97733,-6.20022c0.02932,-0.04394 0.05304,-0.09137 0.0706,-0.14119c0.02558,-0.07264 0.03837,-0.15091 0.03837,-0.23481c0.00005,-0.01792 -0.00047,-0.03583 -0.00153,-0.05371c-0.00128,-0.02025 -0.00353,-0.04043 -0.00675,-0.06047c-0.01639,-0.12578 -0.08677,-0.23818 -0.19276,-0.30786c-0.02959,-0.01753 -0.0599,-0.03381 -0.09085,-0.0488c-0.30551,-0.14672 -0.55147,-0.08953 -0.73789,0.17158c-0.37653,0.54484 -0.72794,1.10662 -1.05312,1.68357c-0.86065,1.53891 -1.55213,3.16649 -2.06234,4.85428c-0.74689,2.43507 -1.12034,4.91106 -1.12034,7.42799c0,2.51692 0.37345,4.99803 1.12034,7.44333c0.14392,0.47185 0.30093,0.9396 0.47085,1.40272c0.65984,1.82191 1.54849,3.55259 2.64461,5.15048c0.19255,0.24514 0.42256,0.30295 0.69,0.17342zM362.08633,194.67563c0.01777,0.12357 0.08848,0.23327 0.19368,0.3005c0.03225,0.02312 0.06621,0.04375 0.1016,0.0617c0.11132,0.05627 0.22581,0.07663 0.34347,0.06108c0.01058,-0.00147 0.02112,-0.00321 0.03161,-0.00522c0.13184,-0.02156 0.24851,-0.09766 0.32137,-0.20964c0.38728,-0.5607 0.74812,-1.1392 1.08136,-1.73361c0.85139,-1.52967 1.53838,-3.14521 2.04945,-4.8196c0.75712,-2.4453 1.13568,-4.92641 1.13568,-7.44333c0,-2.51692 -0.37856,-4.99292 -1.13568,-7.42799c-0.14024,-0.45154 -0.29233,-0.89932 -0.45612,-1.34287c-0.66976,-1.83716 -1.5684,-3.58258 -2.67469,-5.19499c-0.04095,-0.06242 -0.09487,-0.11528 -0.15807,-0.15501c-0.05987,-0.03669 -0.12591,-0.06217 -0.19491,-0.0752c-0.1019,-0.02046 -0.20156,-0.01156 -0.29896,0.0267c-0.05184,0.0208 -0.10091,0.04791 -0.1461,0.08073c-0.12278,0.08185 -0.18928,0.20463 -0.19951,0.36833c-0.00117,0.01788 -0.00179,0.0358 -0.00184,0.05371c0,0.1414 0.03642,0.26673 0.10927,0.376c0.44056,0.62626 0.84406,1.27778 1.20843,1.95123c0.72701,1.35324 1.31455,2.77689 1.75356,4.24899c0.70597,2.33276 1.05895,4.69621 1.05895,7.09035c0,2.41461 -0.35298,4.78317 -1.05895,7.1057c-0.70597,2.32253 -1.6933,4.39438 -2.96199,6.21557c-0.0723,0.10743 -0.11039,0.23423 -0.10927,0.36373c0.00005,0.0169 0.00067,0.03379 0.00184,0.05065c0.00112,0.01758 0.00307,0.03509 0.00583,0.05249zM332.44529,183.77276v-12.03211c0,-1.02682 0.09362,-1.83224 0.28085,-2.41624c0.01752,-0.0545 0.03645,-0.10854 0.05678,-0.16207c0.18584,-0.49597 0.56874,-0.89287 1.05772,-1.0964c0.10035,-0.0447 0.20326,-0.08344 0.30817,-0.11602c0.23468,-0.07159 0.47392,-0.12727 0.71609,-0.16667c0.61327,-0.10375 1.38236,-0.15562 2.30728,-0.15562c1.35054,0 2.35833,0.10743 3.02337,0.32229c0.23832,0.07417 0.46342,0.18553 0.66698,0.32996c0.30573,0.22096 0.53842,0.52827 0.66821,0.88246c0.07623,0.20627 0.13576,0.41833 0.17803,0.63414c0.09147,0.44875 0.14355,0.9904 0.15623,1.62495c0.0022,0.10639 0.00333,0.21281 0.00338,0.31922v12.03211c0.00065,0.29528 -0.00825,0.59051 -0.0267,0.88522c-0.03806,0.58258 -0.11633,1.06785 -0.23481,1.45582c-0.02271,0.07486 -0.0481,0.14888 -0.07612,0.22192c-0.18932,0.497 -0.57584,0.89353 -1.06785,1.09547c-0.0873,0.03847 -0.17653,0.07238 -0.26735,0.1016c-0.21045,0.06609 -0.42506,0.11808 -0.64243,0.15562c-0.47208,0.08512 -1.048,0.13761 -1.72777,0.15746c-0.21767,0.00625 -0.43541,0.00932 -0.65317,0.00921c-0.34875,0.00064 -0.69745,-0.00786 -1.04575,-0.02548c-0.67261,-0.0354 -1.23472,-0.10764 -1.68634,-0.2167c-0.09796,-0.02346 -0.19511,-0.05018 -0.29129,-0.08011c-0.22885,-0.06921 -0.44671,-0.1706 -0.64703,-0.30111c-0.32848,-0.21497 -0.58019,-0.5287 -0.71886,-0.89596c-0.07642,-0.20348 -0.13597,-0.41291 -0.17803,-0.62616c-0.10641,-0.5175 -0.15961,-1.1631 -0.15961,-1.9368zM174.39342,189.3195c0.04418,-0.00216 0.08796,-0.00947 0.13045,-0.02179c0.77489,-0.24104 1.53843,-0.51716 2.28825,-0.82751c1.03609,-0.42976 2.04978,-0.91167 3.03719,-1.44385c1.83142,-0.98221 3.60656,-2.10255 5.32544,-3.36101c0.01341,-0.00982 0.02681,-0.01964 0.04021,-0.02947c1.65933,-1.2126 3.23062,-2.5413 4.70204,-3.97612c0.62813,-0.61274 1.23086,-1.251 1.80666,-1.91317c0.63474,-0.72816 1.22552,-1.49349 1.76921,-2.29193c0.00633,-0.00991 0.01247,-0.01994 0.01842,-0.03008c0.13219,-0.22427 0.11797,-0.42951 -0.04266,-0.61572c-0.03908,-0.04456 -0.08236,-0.08527 -0.12922,-0.12155c-0.03747,-0.02716 -0.0777,-0.05031 -0.12001,-0.06906c-0.06241,-0.02701 -0.12472,-0.04052 -0.18693,-0.04052c-0.04154,0.00007 -0.08287,0.00596 -0.12278,0.0175c-0.05757,0.0163 -0.11285,0.03981 -0.16452,0.06998c-0.07764,0.04622 -0.14661,0.10563 -0.20381,0.17557c-0.45084,0.65826 -0.9348,1.29321 -1.44999,1.90242c-0.6376,0.75357 -1.3112,1.47593 -2.01845,2.16455c-1.39147,1.36077 -2.92106,2.64993 -4.58878,3.86746c-1.66771,1.21754 -3.38659,2.30206 -5.15662,3.25358c-0.652,0.35118 -1.31492,0.68172 -1.98775,0.99111c-1.02564,0.47387 -2.07869,0.88601 -3.15352,1.23421c-0.14324,0.04092 -0.24555,0.12789 -0.30694,0.2609c-0.04113,0.08881 -0.05934,0.17997 -0.05464,0.27348c0.00257,0.04772 0.0106,0.09499 0.02394,0.14089c0.04092,0.14324 0.12789,0.25067 0.2609,0.32229c0.09208,0.04952 0.18672,0.07213 0.28392,0.06783zM241.77476,190.24923v-21.82354c-0.00109,-0.07642 0.00768,-0.15265 0.02609,-0.22683c0.05116,-0.19317 0.17659,-0.30786 0.37631,-0.34408c0.04956,-0.00856 0.0998,-0.01267 0.15009,-0.01228c0.08395,-0.00103 0.16716,0.01593 0.24402,0.04972c0.06359,0.02895 0.12132,0.06932 0.17035,0.11909c0.10922,0.10698 0.17017,0.25382 0.16882,0.4067c0.00002,0.00256 0.00002,0.00512 0,0.00767v21.82354c-0.00005,0.12281 -0.04416,0.24152 -0.12431,0.33457c-0.01405,0.01707 -0.0289,0.03346 -0.04451,0.04911c-0.10698,0.10922 -0.25382,0.17017 -0.4067,0.16882c-0.00256,0.00002 -0.00512,0.00002 -0.00767,0c-0.12281,-0.00005 -0.24152,-0.04416 -0.33457,-0.12431c-0.01707,-0.01405 -0.03346,-0.0289 -0.04911,-0.04451c-0.04509,-0.04413 -0.08309,-0.09497 -0.11265,-0.15071c-0.03737,-0.07194 -0.05665,-0.1519 -0.05617,-0.23297zM209.02748,191.06323c0.05231,-0.00696 0.10306,-0.02274 0.15009,-0.04666c0.14341,-0.06859 0.28635,-0.13816 0.4288,-0.20872c2.12219,-1.05035 3.90276,-2.20855 5.3417,-3.47458c1.53471,-1.35054 2.75736,-2.91083 3.66795,-4.68086c0.43927,-0.85954 0.81207,-1.75146 1.11512,-2.66794c0.37247,-1.12912 0.66147,-2.28407 0.86465,-3.45555c0.0001,-0.00092 0.00021,-0.00184 0.00031,-0.00276c0.01964,-0.14222 -0.01115,-0.26919 -0.09239,-0.38091c-0.08185,-0.11255 -0.1944,-0.17905 -0.33764,-0.19951c-0.24433,-0.0489 -0.41734,0.02537 -0.51904,0.22284c-0.02807,0.05607 -0.0496,0.11519 -0.06415,0.17618c-0.1564,0.96445 -0.37311,1.91815 -0.64887,2.85548c-0.3001,1.02624 -0.69424,2.0226 -1.17743,2.97641c-0.84921,1.65748 -2.00535,3.12057 -3.46844,4.38926c-0.82301,0.71354 -1.77064,1.39802 -2.84289,2.05344c-0.88433,0.53705 -1.79482,1.02979 -2.7281,1.47639c-0.05158,0.02519 -0.09826,0.05939 -0.13782,0.10098c-0.05011,0.05439 -0.08699,0.11962 -0.10774,0.19061c-0.00253,0.00824 -0.00489,0.01653 -0.00706,0.02486c-0.01657,0.06323 -0.02138,0.12533 -0.01443,0.18631c0.00706,0.06013 0.02472,0.11854 0.05218,0.1725c0.06139,0.12278 0.15859,0.20974 0.29159,0.2609c0.01482,0.00564 0.02988,0.01066 0.04512,0.01504c0.06405,0.01862 0.12687,0.02404 0.18846,0.01627zM349.85655,191.98651c0.36501,0.02962 0.7311,0.04396 1.09732,0.04297c0.06415,-0.00003 0.1283,-0.00044 0.19245,-0.00123c0.78638,-0.00941 1.45879,-0.07674 2.01722,-0.20197c0.27872,-0.05995 0.55116,-0.14607 0.8137,-0.25722c0.26825,-0.11469 0.51707,-0.27032 0.73758,-0.46133c0.33475,-0.29681 0.59248,-0.6704 0.75109,-1.08872c0.19685,-0.4995 0.32607,-1.1319 0.38767,-1.89721c0.02902,-0.37468 0.04305,-0.75037 0.04205,-1.12617c-0.00002,-0.0572 -0.00033,-0.11439 -0.00092,-0.17158c-0.01207,-1.22736 -0.15501,-2.18819 -0.4288,-2.88249c-0.00454,-0.01138 -0.00915,-0.02274 -0.01381,-0.03407c-0.26526,-0.6847 -0.79771,-1.23199 -1.47485,-1.51598c-0.05348,-0.0233 -0.10752,-0.0453 -0.16207,-0.06599c-0.47228,-0.17864 -1.06386,-0.29661 -1.77474,-0.3539c-0.3615,-0.02802 -0.72399,-0.04154 -1.08657,-0.04052c-0.05423,-0.00007 -0.10845,0.00013 -0.16268,0.00061c-0.77861,0.00819 -1.44662,0.07449 -2.00402,0.1989c-0.28296,0.06063 -0.55953,0.14799 -0.82598,0.2609c-0.26833,0.11457 -0.51726,0.2701 -0.73789,0.46103c-0.33468,0.29693 -0.59231,0.67063 -0.75078,1.08903c-0.19808,0.50216 -0.32771,1.14377 -0.38889,1.92483c-0.02825,0.37574 -0.04187,0.75244 -0.04082,1.12924c0,0.84593 0.0617,1.57072 0.18509,2.17437c0.05686,0.28954 0.13871,0.5736 0.24463,0.849c0.00444,0.01128 0.00894,0.02253 0.01351,0.03376c0.26526,0.68488 0.79784,1.2323 1.47516,1.51629c0.03395,0.01475 0.06813,0.02897 0.10252,0.04266c0.47535,0.18928 1.07297,0.31421 1.79285,0.37478zM293.86274,173.27536h-5.8012c0.22509,1.80072 0.619,3.52471 1.18172,5.17196c0.56273,1.64725 1.24311,3.19731 2.04116,4.65016c0.7162,-1.45286 1.28915,-3.01314 1.71887,-4.68086c0.42972,-1.66771 0.7162,-3.38147 0.85944,-5.14127zM350.95387,190.9245c1.06407,0 1.86723,-0.10743 2.40949,-0.32229c0.49184,-0.1876 0.88193,-0.57368 1.0746,-1.06355c0.01626,-0.03899 0.03152,-0.07839 0.04573,-0.11817c0.07256,-0.20865 0.1288,-0.42262 0.1682,-0.63997c0.09249,-0.48886 0.13874,-1.08381 0.13874,-1.78487c0.0007,-0.29406 -0.00831,-0.58807 -0.02701,-0.88154c-0.03745,-0.56314 -0.11367,-1.03142 -0.22867,-1.40487c-0.0158,-0.05168 -0.03289,-0.10295 -0.05126,-0.15378c-0.09598,-0.27482 -0.24985,-0.52582 -0.4512,-0.73605c-0.19025,-0.19271 -0.41798,-0.34439 -0.66913,-0.44568c-0.18939,-0.07644 -0.38516,-0.13602 -0.58503,-0.17803c-0.48476,-0.10641 -1.09292,-0.15961 -1.82446,-0.15961c-0.96441,0 -1.71908,0.09607 -2.264,0.28822c-0.04377,0.01543 -0.08716,0.03191 -0.13014,0.04942c-0.28533,0.11157 -0.54019,0.28912 -0.74372,0.51812c-0.16745,0.19464 -0.29538,0.42004 -0.37662,0.66361c-0.06601,0.19626 -0.11741,0.39714 -0.15378,0.60099c-0.07899,0.42501 -0.124,0.9375 -0.13505,1.53747c-0.00185,0.10056 -0.00277,0.20114 -0.00276,0.30172c0,0.96707 0.08339,1.73207 0.25016,2.295c0.01297,0.04354 0.02679,0.08683 0.04144,0.12984c0.1944,0.57296 0.56784,0.96687 1.12034,1.18172c0.19168,0.07259 0.38899,0.12936 0.58994,0.16974c0.41703,0.08738 0.9198,0.1372 1.50831,0.14948c0.09862,0.00205 0.19725,0.00308 0.29589,0.00307zM328.03178,187.59817c0.08228,-0.00014 0.16367,-0.01717 0.23911,-0.05003c0.0525,-0.02402 0.10213,-0.05388 0.14795,-0.08901c0.18948,-0.14774 0.24248,-0.36362 0.159,-0.64765c-0.36833,-1.00268 -0.8134,-2.09743 -1.3352,-3.28427c-0.5218,-1.18684 -1.04872,-2.35833 -1.58075,-3.51448c-0.53203,-1.15615 -1.02314,-2.1844 -1.47332,-3.08476c-0.06139,-0.14324 -0.1637,-0.23532 -0.30694,-0.27625c-0.08451,-0.02415 -0.16902,-0.03049 -0.25353,-0.01903c-0.06071,0.00853 -0.11997,0.02526 -0.17618,0.04972c-0.14324,0.08185 -0.23532,0.1944 -0.27625,0.33764c-0.01349,0.04649 -0.02041,0.09463 -0.02057,0.14303c0,0.09556 0.02732,0.19112 0.08195,0.28668c0.28136,0.51157 0.57869,1.08709 0.89197,1.72655c0.19803,0.40466 0.39182,0.81138 0.58135,1.22009c0.53203,1.14591 1.04872,2.31741 1.55005,3.51448c0.50134,1.19707 0.92594,2.31741 1.27381,3.36101c0.04092,0.14324 0.13812,0.24044 0.29159,0.29159c0.01188,0.00389 0.02385,0.00747 0.03591,0.01074c0.0573,0.01596 0.11398,0.02394 0.17005,0.02394zM312.49409,187.45606c-0.12278,-0.08185 -0.19951,-0.1944 -0.23021,-0.33764c-0.00729,-0.0332 -0.0115,-0.06701 -0.01258,-0.10098c-0.00266,-0.09822 0.02302,-0.19133 0.07704,-0.27932c0.00398,-0.00632 0.00807,-0.01256 0.01228,-0.01872c0.30816,-0.47068 0.59334,-0.95601 0.85453,-1.45429c0.25422,-0.48384 0.49133,-0.97648 0.71088,-1.477c0.49111,-1.11522 0.93105,-2.26114 1.31985,-3.43775c0.18531,-0.55861 0.35644,-1.12182 0.51321,-1.6891c0.14183,-0.5123 0.26754,-1.02894 0.37692,-1.54913c0.08185,-0.36833 0.29671,-0.51157 0.64458,-0.42972c0.06116,0.01457 0.11974,0.03837 0.17373,0.0706c0.07583,0.0461 0.13777,0.11186 0.17925,0.1903c0.0286,0.05228 0.0488,0.10873 0.05985,0.16728c0.01473,0.08062 0.01013,0.16299 -0.01381,0.24709c-0.31004,1.30567 -0.67895,2.59665 -1.1056,3.869c-0.15942,0.47338 -0.32806,0.9436 -0.50584,1.4104c-0.62411,1.63702 -1.37612,3.18196 -2.25602,4.63482c-0.03294,0.05916 -0.0763,0.11188 -0.12799,0.15562c-0.06492,0.05349 -0.14232,0.08971 -0.22499,0.10528c-0.04102,0.0083 -0.08276,0.01252 -0.12462,0.01258c-0.09249,0 -0.18304,-0.02128 -0.27164,-0.06384c-0.01657,-0.0079 -0.03285,-0.0164 -0.0488,-0.02548zM337.6633,168.70193v8.53297h3.1615v-5.49425c0,-0.72725 -0.05003,-1.30072 -0.15009,-1.72041c-0.01445,-0.06141 -0.03093,-0.12232 -0.04942,-0.18263c-0.1068,-0.36501 -0.36736,-0.66535 -0.71364,-0.8226c-0.05257,-0.02514 -0.10636,-0.04767 -0.16114,-0.06753c-0.14292,-0.05052 -0.28944,-0.09023 -0.43831,-0.11879c-0.3227,-0.06446 -0.71927,-0.10436 -1.18971,-0.11971c-0.15301,-0.00483 -0.30609,-0.00719 -0.45918,-0.00706zM337.6633,178.27851v8.53297c0.76162,-0.01657 1.36251,-0.07674 1.80267,-0.18048c0.09609,-0.0222 0.19104,-0.04903 0.28453,-0.08042c0.16462,-0.05394 0.31856,-0.13621 0.45489,-0.2431c0.2012,-0.16273 0.34774,-0.38318 0.4199,-0.63169c0.04307,-0.14324 0.0767,-0.28914 0.10068,-0.43678c0.05361,-0.31574 0.08543,-0.6986 0.09546,-1.14858c0.00229,-0.10588 0.00342,-0.21178 0.00338,-0.31768v-5.49425zM333.51959,171.74065v5.49425h3.1308v-8.53297c-0.94129,0 -1.63191,0.08185 -2.07186,0.24555c-0.17119,0.06127 -0.32972,0.15333 -0.46778,0.27164c-0.18622,0.16514 -0.32199,0.37954 -0.39166,0.61849c-0.04317,0.14323 -0.0769,0.28914 -0.10098,0.43678c-0.05361,0.31554 -0.08533,0.69829 -0.09515,1.14827c-0.0023,0.10598 -0.00342,0.21199 -0.00338,0.31799zM336.65039,186.81148v-8.53297h-3.1308v5.49425c0,0.72704 0.04993,1.30041 0.14979,1.7201c0.01455,0.06151 0.03113,0.12252 0.04972,0.18294c0.13301,0.42972 0.41949,0.72131 0.85944,0.87478c0.14078,0.04766 0.28467,0.0856 0.43064,0.11357c0.31554,0.06302 0.70515,0.10651 1.16883,0.13045c0.15737,0.00795 0.31485,0.01358 0.47238,0.01688zM275.36552,186.24671c0.2817,0.02979 0.56482,0.04413 0.84808,0.04297c0.17405,0.00017 0.34806,-0.00495 0.5218,-0.01535c0.96462,-0.05873 1.63477,-0.28893 2.01047,-0.69062c0.43995,-0.47064 0.65992,-1.39147 0.65992,-2.76247c0.00045,-0.24289 -0.00743,-0.48572 -0.02363,-0.72807c-0.04154,-0.60263 -0.13822,-1.09363 -0.29006,-1.47301c-0.07983,-0.21149 -0.19711,-0.40685 -0.34623,-0.57674c-0.09287,-0.10038 -0.19855,-0.1881 -0.31431,-0.2609c-0.33313,-0.2124 -0.78976,-0.35135 -1.36988,-0.41683c-0.28166,-0.03032 -0.56479,-0.04487 -0.84808,-0.04359c-0.17395,-0.00028 -0.34786,0.00484 -0.52149,0.01535c-0.96502,0.05995 -1.63528,0.29528 -2.01077,0.70597c-0.43995,0.48088 -0.65992,1.40681 -0.65992,2.77782c-0.00061,0.24329 0.00717,0.48654 0.02333,0.72929c0.06753,0.97362 0.27973,1.65135 0.6366,2.03318c0.3317,0.35482 0.8931,0.57582 1.68419,0.66299zM252.21077,182.14597c-0.23921,-0.1974 -0.48267,-0.38959 -0.73021,-0.57644c-0.27523,-0.20831 -0.57316,-0.42522 -0.89381,-0.65072c-0.19924,-0.14004 -0.39968,-0.27837 -0.6013,-0.41498c-0.89013,-0.60365 -1.81096,-1.19196 -2.76247,-1.76491c-0.45085,-0.27196 -0.90579,-0.53709 -1.36466,-0.79529c-0.43893,-0.24637 -0.85852,-0.47218 -1.25877,-0.67742c-0.00031,-0.00021 -0.00061,-0.00041 -0.00092,-0.00061c-0.05822,-0.03246 -0.11103,-0.07377 -0.15654,-0.12247c-0.05628,-0.0613 -0.0973,-0.13502 -0.11971,-0.21517c-0.01351,-0.04658 -0.02044,-0.09484 -0.02057,-0.14334c0,-0.06569 0.01289,-0.13137 0.03867,-0.19706c0.01225,-0.03078 0.02672,-0.06063 0.04328,-0.08932c0.02392,-0.058 0.05837,-0.11107 0.1016,-0.15654c0.05661,-0.05742 0.12749,-0.09874 0.20534,-0.11971c0.12973,-0.03724 0.25947,-0.03233 0.3892,0.01473c0.01366,0.00493 0.02717,0.01025 0.04052,0.01596c0.4199,0.21068 0.8345,0.43174 1.24342,0.66299c0.43156,0.2433 0.88102,0.50942 1.34839,0.79835c0.03133,0.0193 0.06264,0.03864 0.09392,0.05801c0.97198,0.60365 1.91838,1.21242 2.83921,1.8263c0.32635,0.21701 0.64869,0.43999 0.96687,0.66883c0.49868,0.35974 0.93351,0.69952 1.3045,1.01935c0.04431,0.03743 0.08501,0.07895 0.12155,0.124c0.15552,0.19481 0.15859,0.40179 0.00921,0.62094c-0.01229,0.01813 -0.02518,0.03584 -0.03867,0.0531c-0.2253,0.26274 -0.46788,0.30162 -0.72776,0.11664c-0.02424,-0.01736 -0.0477,-0.0358 -0.07029,-0.05525zM352.8569,169.83761h-4.81898c-0.04214,0.08389 -0.08823,0.16573 -0.13812,0.24525c-0.03318,0.05345 -0.06321,0.10879 -0.08993,0.16575c-0.01719,0.03643 -0.03326,0.07339 -0.04819,0.11081c0.40925,0.96175 0.89013,1.87234 1.44263,2.73178c0.55249,0.85944 1.15615,1.66771 1.81096,2.42484c0.53203,-0.59342 1.0436,-1.21242 1.53471,-1.857c0.49111,-0.64458 0.93105,-1.3045 1.31985,-1.97977c0.06003,-0.10171 0.11504,-0.20629 0.16483,-0.31339c0.17087,-0.37099 0.21752,-0.67742 0.13997,-0.91929c-0.0149,-0.04641 -0.03476,-0.09107 -0.05924,-0.13321c-0.08348,-0.13844 -0.20714,-0.24818 -0.35452,-0.31462c-0.19133,-0.0929 -0.4421,-0.1457 -0.75231,-0.15838c-0.05052,-0.00195 -0.10107,-0.00287 -0.15163,-0.00276zM277.6019,184.97413c0.11923,-0.05024 0.22661,-0.12489 0.31523,-0.21916c0.07631,-0.09024 0.13615,-0.1932 0.1768,-0.30418c0.12441,-0.31615 0.19266,-0.78997 0.20473,-1.42145c0.00138,-0.06936 0.00209,-0.13873 0.00215,-0.20811c0.00025,-0.17708 -0.00384,-0.35413 -0.01228,-0.53101c-0.01678,-0.34132 -0.05116,-0.62657 -0.10313,-0.85575c-0.01112,-0.0497 -0.02382,-0.09904 -0.03806,-0.14795c-0.03227,-0.11417 -0.08074,-0.22312 -0.14396,-0.32352c-0.10713,-0.16894 -0.26687,-0.29795 -0.45458,-0.3671c-0.10173,-0.03746 -0.20633,-0.06661 -0.31277,-0.08717c-0.26909,-0.05443 -0.60989,-0.08165 -1.02242,-0.08165c-0.1585,-0.00042 -0.31697,0.00449 -0.47515,0.01473c-0.30919,0.02087 -0.56621,0.06384 -0.77104,0.12892c-0.02474,0.00784 -0.0493,0.01623 -0.07367,0.02517c-0.2621,0.0935 -0.46978,0.29759 -0.56784,0.55802c-0.0176,0.04339 -0.03297,0.08764 -0.04604,0.1326c-0.0332,0.11593 -0.05914,0.23382 -0.07766,0.35298c-0.04113,0.25497 -0.06558,0.56354 -0.07336,0.92574c-0.00172,0.08532 -0.00254,0.17065 -0.00246,0.25599c-0.00061,0.20232 0.00543,0.4046 0.01811,0.60652c0.04379,0.66095 0.16565,1.10335 0.36557,1.32722c0.08729,0.09313 0.19296,0.16713 0.31032,0.21731c0.31001,0.1416 0.77441,0.2124 1.39321,0.2124c0.61552,0 1.07829,-0.07019 1.3883,-0.21056zM177.04079,179.3528c-0.14937,-0.11582 -0.30124,-0.2284 -0.4555,-0.33764c-0.13792,-0.09781 -0.28525,-0.19921 -0.442,-0.30418c-0.16513,-0.11023 -0.3315,-0.21859 -0.49909,-0.32505c-0.56273,-0.3581 -1.14591,-0.71108 -1.74957,-1.05895c-0.60365,-0.34787 -1.17149,-0.63435 -1.70353,-0.85944c-0.12254,-0.04924 -0.21778,-0.14908 -0.26121,-0.27379c-0.00572,-0.01594 -0.01074,-0.03212 -0.01504,-0.0485c-0.00991,-0.03644 -0.01699,-0.07359 -0.02118,-0.11111c-0.01166,-0.10968 0.00563,-0.21077 0.05187,-0.30326c0.03213,-0.05842 0.07052,-0.11317 0.11449,-0.16329c0.17087,-0.19092 0.38849,-0.22857 0.65286,-0.11295c0.3759,0.1723 0.79682,0.38654 1.26276,0.64274c0.14759,0.08127 0.29452,0.16373 0.44077,0.24739c0.64458,0.36833 1.27381,0.74689 1.88769,1.13568c0.60017,0.3802 1.07327,0.71139 1.4193,0.99357c0.00779,0.00643 0.01557,0.01287 0.02333,0.01934c0.10476,0.06948 0.17771,0.17765 0.20289,0.3008c0.00514,0.02229 0.00913,0.04483 0.01197,0.06753c0.02046,0.1637 -0.02046,0.29671 -0.12278,0.39902c-0.03753,0.04433 -0.07915,0.08502 -0.12431,0.12155c-0.19481,0.15552 -0.40179,0.15859 -0.62094,0.00921c-0.01803,-0.01229 -0.03564,-0.02519 -0.05279,-0.03867zM180.47854,173.82785c-0.22949,-0.19603 -0.46461,-0.38539 -0.70504,-0.56784c-0.26581,-0.20217 -0.55352,-0.40987 -0.86312,-0.62309c-0.19193,-0.13222 -0.38542,-0.26216 -0.58043,-0.38982c-0.85944,-0.56273 -1.70864,-1.07941 -2.54761,-1.55005c-0.12278,-0.08185 -0.20463,-0.1944 -0.24555,-0.33764c-0.01351,-0.04658 -0.02044,-0.09484 -0.02057,-0.14334c0,-0.06569 0.01289,-0.13137 0.03867,-0.19706c0.01225,-0.03078 0.02672,-0.06063 0.04328,-0.08932c0.08185,-0.12278 0.1944,-0.20463 0.33764,-0.24555c0.04649,-0.01349 0.09463,-0.02041 0.14303,-0.02057c0.06569,0 0.13137,0.01289 0.19706,0.03867c0.03088,0.01224 0.06084,0.0267 0.08963,0.04328c0.41928,0.23962 0.93116,0.55229 1.53563,0.93801c0.01504,0.00961 0.03008,0.01923 0.04512,0.02885c0.62411,0.39902 1.24311,0.80828 1.857,1.22777c0.18004,0.12279 0.35889,0.24732 0.53653,0.37355c0.36485,0.25988 0.66688,0.48834 0.90609,0.6854c0.10805,0.08677 0.1743,0.21525 0.18232,0.3536c0.00117,0.01511 0.00178,0.03027 0.00184,0.04543c0.00052,0.0623 -0.00806,0.12435 -0.02548,0.18416c-0.02391,0.08125 -0.06794,0.15515 -0.12799,0.21486c-0.03976,0.04035 -0.08369,0.07636 -0.13106,0.10743c-0.18948,0.12216 -0.39043,0.11213 -0.60283,-0.03008c-0.02196,-0.01473 -0.04336,-0.0303 -0.06415,-0.04666zM208.37952,181.93111c0.00281,0.00607 0.00567,0.0121 0.00859,0.01811c0.14365,0.29241 0.36587,0.37846 0.66668,0.25814c0.00607,-0.00291 0.0121,-0.00587 0.01811,-0.0089c0.29241,-0.14365 0.37846,-0.36577 0.25814,-0.66637c-0.04118,-0.08995 -0.08282,-0.17967 -0.12493,-0.26919c-0.30497,-0.64761 -0.63185,-1.28468 -0.98006,-1.9101c-0.40925,-0.73666 -0.80828,-1.39147 -1.19707,-1.96443c-0.08185,-0.12278 -0.1944,-0.1944 -0.33764,-0.21486c-0.0045,-0.00066 -0.009,-0.00127 -0.01351,-0.00184c-0.13751,-0.01678 -0.25578,0.01453 -0.35482,0.09392c-0.12278,0.08185 -0.1944,0.1944 -0.21486,0.33764c-0.00066,0.00439 -0.00127,0.00879 -0.00184,0.0132c-0.01678,0.13751 0.01453,0.25589 0.09392,0.35513c0.36833,0.51157 0.74689,1.11522 1.13568,1.81096c0.38879,0.69574 0.73666,1.41193 1.0436,2.14859zM213.6669,180.97069c0.03885,-0.00373 0.07728,-0.01102 0.1148,-0.02179c0.0505,-0.01639 0.09907,-0.03821 0.14488,-0.06507c0.1723,-0.10293 0.24269,-0.26489 0.21118,-0.48589c-0.00452,-0.0315 -0.01067,-0.06275 -0.01842,-0.09362c-0.11439,-0.34295 -0.24586,-0.7031 -0.39442,-1.08043c-0.15215,-0.38493 -0.31231,-0.76664 -0.48036,-1.14489c-0.20156,-0.45468 -0.40138,-0.8754 -0.59946,-1.26214c-0.14523,-0.2844 -0.29845,-0.56465 -0.45949,-0.84041c-0.03377,-0.06894 -0.08459,-0.1281 -0.14764,-0.17189c-0.04868,-0.03316 -0.10251,-0.05805 -0.1593,-0.07367c-0.14324,-0.04092 -0.26602,-0.02046 -0.36833,0.06139c-0.26745,0.16043 -0.34858,0.35963 -0.2434,0.59762c0.01692,0.03759 0.03672,0.07382 0.05924,0.10835c0.17232,0.28151 0.33358,0.56964 0.48343,0.86373c0.16646,0.32607 0.32257,0.65732 0.46809,0.99326c0.30694,0.70597 0.59342,1.4682 0.85944,2.28671c0.02024,0.06224 0.05363,0.1194 0.09791,0.16759c0.04221,0.04488 0.09224,0.0817 0.14764,0.10866c0.08942,0.04461 0.18416,0.0621 0.28423,0.05249zM193.00175,169.77622c-0.12278,0.08185 -0.25578,0.12278 -0.39902,0.12278c-0.14324,0 -0.26602,-0.06139 -0.36833,-0.18416c-0.14099,-0.15675 -0.33896,-0.35247 -0.59393,-0.58718c-0.0828,-0.07605 -0.16619,-0.15146 -0.25016,-0.22622c-0.37856,-0.33764 -0.76224,-0.66504 -1.15103,-0.98221c-0.38879,-0.31717 -0.7162,-0.55761 -0.98221,-0.72131c-0.12278,-0.08185 -0.19951,-0.1944 -0.23021,-0.33764c-0.00729,-0.0332 -0.0115,-0.06701 -0.01258,-0.10098c-0.00266,-0.09822 0.02302,-0.19133 0.07704,-0.27932c0.00398,-0.00632 0.00807,-0.01256 0.01228,-0.01872c0.0572,-0.06994 0.12617,-0.12935 0.20381,-0.17557c0.05167,-0.03017 0.10695,-0.05368 0.16452,-0.06998c0.03013,-0.00874 0.0611,-0.01429 0.09239,-0.01657c0.08205,-0.00573 0.16053,0.01361 0.23542,0.05801c0.02505,0.01496 0.04886,0.03189 0.07121,0.05065c0.09201,0.05715 0.1821,0.11734 0.27011,0.18048c0.21384,0.15204 0.46143,0.34766 0.7428,0.58687c0.40925,0.34787 0.81851,0.70085 1.22777,1.05895c0.33723,0.29507 0.60498,0.54503 0.80327,0.74986c0.03984,0.04102 0.07903,0.08267 0.11756,0.12493c0.0902,0.08844 0.14051,0.20979 0.13935,0.3361c0,0.00205 0,0.00409 0,0.00614c0.00005,0.01382 -0.00036,0.02764 -0.00123,0.04144c-0.00435,0.07595 -0.02266,0.15045 -0.05402,0.21977c-0.0282,0.06103 -0.06708,0.11654 -0.1148,0.16391zM190.32829,172.34072c0.11271,-0.00009 0.22203,-0.03852 0.31001,-0.10896c0.01682,-0.01411 0.033,-0.02896 0.0485,-0.04451c0.08996,-0.08641 0.14851,-0.20037 0.16636,-0.32382c0.01228,-0.08594 0.00246,-0.16452 -0.02947,-0.23573c-0.02272,-0.04954 -0.05435,-0.09449 -0.09331,-0.1326c-0.03453,-0.0459 -0.06994,-0.09113 -0.1062,-0.13567c-0.18007,-0.22182 -0.42603,-0.48865 -0.73789,-0.8005c-0.37856,-0.37856 -0.76224,-0.75712 -1.15103,-1.13568c-0.03691,-0.03595 -0.07395,-0.07176 -0.11111,-0.10743c-0.22223,-0.21322 -0.41928,-0.39227 -0.59117,-0.53715c-0.08119,-0.06884 -0.1643,-0.13537 -0.24924,-0.19951c-0.10231,-0.08533 -0.21179,-0.12799 -0.32843,-0.12799c-0.02363,0.00007 -0.04722,0.00181 -0.0706,0.00522c-0.07708,0.01073 -0.15097,0.03783 -0.2167,0.0795c-0.05732,0.03691 -0.10848,0.08258 -0.15163,0.13536c-0.07103,0.10345 -0.10912,0.22596 -0.10927,0.35145c0.00005,0.01588 0.00066,0.03174 0.00184,0.04758c0.00547,0.08313 0.03221,0.16346 0.07766,0.23328c0.03356,0.05091 0.07465,0.09645 0.12186,0.13505c0.16882,0.11255 0.36659,0.26857 0.59332,0.46809c0.11091,0.09783 0.2201,0.1976 0.32751,0.29927c0.36833,0.34787 0.72643,0.70085 1.0743,1.05895c0.03293,0.03389 0.06577,0.06786 0.09853,0.1019c0.29998,0.31185 0.53316,0.56948 0.69952,0.77288c0.01413,0.01709 0.02909,0.03348 0.04481,0.04911c0.08566,0.08823 0.20084,0.14178 0.32352,0.1504c0.01563,0.00107 0.0313,0.00158 0.04696,0.00153c0.00389,0 0.00767,0 0.01136,0z"/></g></g></svg>