<svg version="1.1" xmlns="http://www.w3.org/2000/svg" xmlns:xlink="http://www.w3.org/1999/xlink" width="40.8329" height="74.93959" viewBox="0,0,40.8329,74.93959"><g transform="translate(-219.3995,-142.506)"><g data-paper-data="{&quot;isPaintingLayer&quot;:true}" fill="#000000" fill-rule="evenodd" stroke="#000000" stroke-width="5" stroke-linecap="round" stroke-linejoin="miter" stroke-miterlimit="10" stroke-dasharray="" stroke-dashoffset="0" style="mix-blend-mode: normal"><path d="M253.7995,148.5h-29.9c-1.33333,0 -2,-0.6 -2,-1.8c0,-1.06533 0.58933,-1.63 1.768,-1.694c0.07727,-0.00409 0.15463,-0.00609 0.232,-0.006h32.2c0.22736,-0.00153 0.45456,0.01251 0.68,0.042c0.88,0.122 1.32,0.508 1.32,1.158c0.00382,0.59833 -0.08317,1.19377 -0.258,1.766c-0.06734,0.21618 -0.14816,0.42793 -0.242,0.634c-1.46333,3.39333 -2.94367,7.25167 -4.441,11.575c-0.003,0.00833 -0.006,0.01667 -0.009,0.025c-1.5,4.33333 -3,8.88333 -4.5,13.65c-1.5,4.76667 -2.9,9.51667 -4.2,14.25c-0.86399,3.14074 -1.68672,6.29267 -2.468,9.455c-0.33639,1.36281 -0.66373,2.72784 -0.982,4.095c-0.41722,1.7909 -0.81624,3.58599 -1.197,5.385c-0.464,2.19733 -0.865,4.25233 -1.203,6.165c-0.174,1.04533 -0.72733,1.63533 -1.66,1.77c-0.14576,0.02052 -0.2928,0.03055 -0.44,0.03c-0.20937,0.00318 -0.41812,-0.02341 -0.62,-0.079c-0.74733,-0.21867 -1.04067,-0.89167 -0.88,-2.019c0,-0.00067 0,-0.00133 0,-0.002c0.29378,-1.67306 0.61115,-3.34189 0.952,-5.006c0.29933,-1.46867 0.628,-3.00267 0.986,-4.602c0.37391,-1.6671 0.76125,-3.33115 1.162,-4.992c1.04001,-4.3024 2.16221,-8.58452 3.366,-12.844c0.41937,-1.48781 0.84738,-2.97316 1.284,-4.456c1.76667,-6 3.6,-11.81667 5.5,-17.45c1.9,-5.63333 3.75,-10.65 5.55,-15.05z"/></g></g></svg>