<svg version="1.1" xmlns="http://www.w3.org/2000/svg" xmlns:xlink="http://www.w3.org/1999/xlink" width="24.71487" height="72.50221" viewBox="0,0,24.71487,72.50221"><g transform="translate(-227.79113,-145.08564)"><g data-paper-data="{&quot;isPaintingLayer&quot;:true}" fill="#000000" fill-rule="evenodd" stroke="#000000" stroke-width="5" stroke-linecap="round" stroke-linejoin="miter" stroke-miterlimit="10" stroke-dasharray="" stroke-dashoffset="0" style="mix-blend-mode: normal"><path d="M246.606,213.151v-63.6l-13.7,8.4c-0.1463,0.0817 -0.29722,0.15482 -0.452,0.219c-0.84667,0.34867 -1.50033,0.23467 -1.961,-0.342c-0.0694,-0.08736 -0.13192,-0.17997 -0.187,-0.277c-0.07687,-0.11792 -0.14249,-0.2428 -0.196,-0.373c-0.26,-0.64533 -0.08167,-1.23967 0.535,-1.783c0.14501,-0.12584 0.29909,-0.24082 0.461,-0.344l15.2,-9.5c0.73333,-0.46667 1.53333,-0.7 2.4,-0.7c0.43768,-0.02377 0.84702,0.21695 1.039,0.611c0.16,0.30267 0.24633,0.71833 0.259,1.247c0.00124,0.04732 0.00191,0.09466 0.002,0.142v66.3c0,1.16867 -0.43567,1.825 -1.307,1.969c-0.12993,0.02104 -0.26137,0.03141 -0.393,0.031c-1.066,0 -1.63067,-0.58933 -1.694,-1.768c-0.00409,-0.07727 -0.00609,-0.15463 -0.006,-0.232z"/></g></g></svg>