<svg version="1.1" xmlns="http://www.w3.org/2000/svg" xmlns:xlink="http://www.w3.org/1999/xlink" width="356.85436" height="55.05255" viewBox="0,0,356.85436,55.05255"><g transform="translate(-61.57285,-152.47375)"><g data-paper-data="{&quot;isPaintingLayer&quot;:true}" stroke-linejoin="miter" stroke-miterlimit="10" stroke-dasharray="" stroke-dashoffset="0" style="mix-blend-mode: normal"><path d="M417.17721,159.76239v40.47527c0,3.34558 -7.08649,6.03864 -15.89018,6.03864h-322.574c-8.80362,0 -15.89018,-2.69306 -15.89018,-6.03864v-40.47527c0,-3.34558 7.08649,-6.03864 15.89018,-6.03864h322.574c8.80362,0 15.89018,2.69306 15.89018,6.03864z" fill="#b0ff57" fill-rule="nonzero" stroke="#87ff00" stroke-width="2.5" stroke-linecap="butt"/><path d="M152.72294,190.66936h-1.46957c-0.49985,0 -0.99471,-0.005 -1.48457,-0.015c-0.48986,-0.01 -0.98472,-0.02499 -1.48457,-0.04499c-0.90473,-0.01419 -1.57463,-0.14325 -2.00971,-0.38719c-0.16516,-0.08804 -0.30853,-0.21194 -0.41958,-0.36259c-0.01999,-0.09997 -0.03999,-0.26492 -0.05997,-0.49486c-0.00792,-0.09244 -0.01402,-0.18504 -0.01829,-0.27772c-0.00481,-0.10297 -0.0082,-0.21284 -0.0102,-0.3296c-0.00107,-0.07247 -0.00156,-0.14495 -0.00151,-0.21743c0,-0.67961 0.00401,-1.23923 0.01199,-1.6789c0.00091,-0.05018 0.00191,-0.10038 0.003,-0.15055c0.01,-0.45987 0.015,-0.93973 0.015,-1.43958v-0.56984v-0.70479c0.00001,-0.07719 0.00061,-0.15436 0.0018,-0.23153c0.00359,-0.22913 0.01199,-0.49515 0.02518,-0.79805c0.00098,-0.02169 0.00199,-0.04339 0.003,-0.06507c0.01718,-0.32354 0.02698,-0.64743 0.02939,-0.97142c0.0026,-0.36009 -0.0049,-0.70898 -0.02249,-1.04669c-0.00213,-0.04209 -0.00443,-0.08418 -0.0069,-0.12626c-0.03099,-0.51905 -0.03199,-0.9991 -0.003,-1.44018c0.0082,-0.12499 0.01919,-0.2498 0.03299,-0.3743c0.09997,-0.81975 -0.02999,-1.39959 -0.3899,-1.73949c-0.09291,-0.0899 -0.20353,-0.15946 -0.32479,-0.20424c-0.25412,-0.09137 -0.54824,-0.05888 -0.88235,0.09747c-0.06909,0.03245 -0.13664,0.06808 -0.20244,0.10676c-0.12201,0.06243 -0.2356,0.14015 -0.338,0.23123c-0.20024,0.17455 -0.32611,0.41911 -0.3518,0.6835c-0.03579,0.34929 -0.04759,0.6544 -0.03539,0.91533c0.00144,0.02981 0.00325,0.05961 0.00539,0.08936v10.94678c-0.0098,0.0199 -0.01706,0.04096 -0.02159,0.06267c-0.0042,0.01979 -0.0068,0.04098 -0.00779,0.06357c-0.0004,0.00789 -0.00059,0.0158 -0.0006,0.02369c-0.00494,0.01552 -0.01222,0.03017 -0.02159,0.04348c-0.02239,0.03099 -0.05519,0.04649 -0.09837,0.04649h-0.04499c-0.00274,0.00022 -0.0054,0.00104 -0.00779,0.0024c-0.01199,0.00599 -0.03209,0.02289 -0.06029,0.05069c-0.00231,0.00229 -0.00461,0.0046 -0.0069,0.0069l-0.14995,0.05997c-0.3395,-0.00024 -0.67894,0.00915 -1.01791,0.0282c-0.0106,0.00059 -0.02119,0.00119 -0.03179,0.0018c-0.32577,0.01891 -0.65083,0.04832 -0.97472,0.08818c-0.005,0.0006 -0.01,0.00119 -0.015,0.0018h-1.76947c-0.56364,0 -1.06579,-0.01179 -1.50646,-0.03539c-0.18787,-0.00988 -0.37553,-0.02308 -0.56294,-0.0396c-0.366,-0.0316 -0.72907,-0.09116 -1.08598,-0.17815c-0.15961,-0.03925 -0.31759,-0.08489 -0.47355,-0.13675c-0.024,0.0003 -0.04791,-0.00272 -0.07108,-0.00899c-0.07258,-0.02079 -0.10887,-0.07778 -0.10887,-0.17095c-0.09437,-0.15096 -0.14415,-0.3374 -0.14937,-0.55934c-0.00036,-0.0135 -0.00055,-0.02698 -0.0006,-0.04049c-0.03979,-1.17625 -0.09458,-2.16356 -0.16435,-2.96194c-0.0002,-0.0024 -0.0004,-0.00481 -0.0006,-0.0072c-0.06997,-0.79976 -0.12496,-1.51956 -0.16496,-2.15937c-0.05997,-0.75978 -0.09496,-1.60952 -0.10496,-2.54925c-0.01,-0.93973 -0.015,-1.97942 -0.015,-3.11908v-0.86975l0.02999,-1.3196l0.05997,-1.55955l0.02999,-4.10878c0.01999,-0.09997 0.02999,-0.20494 0.02999,-0.31492v-0.43487v-1.3196v-0.53984c-0.00005,-0.0408 0.00096,-0.08161 0.003,-0.12236c0.0042,-0.08337 0.0132,-0.15255 0.02698,-0.20754c0,-0.07637 0.0273,-0.11626 0.08188,-0.11967c0.0027,-0.00019 0.00539,-0.00028 0.0081,-0.00029c0.17994,0 0.3499,-0.03999 0.50984,-0.11997h0.11997c0.01283,-0.0001 0.02564,-0.00091 0.03838,-0.0024c0.02539,-0.0028 0.05559,-0.008 0.09058,-0.0156c0.01706,-0.00375 0.03405,-0.00774 0.05098,-0.01199h0.14995c0.02117,-0.00009 0.04231,0.00131 0.06328,0.0042c0.03278,0.00481 0.06168,0.01339 0.08667,0.0258h4.70861h0.49486c0.03821,-0.00004 0.07642,0.00096 0.11457,0.003c0.03919,0.002 0.07538,0.0053 0.10856,0.0099c0.03089,0.00401 0.06152,0.00972 0.09177,0.0171l0.92973,0.02999c0.07876,-0.00035 0.15746,0.00385 0.23572,0.0126c0.25992,0.03019 0.42127,0.11596 0.48406,0.25731c0.01224,0.02541 0.02208,0.05192 0.02939,0.07918c0.0232,0.08178 0.03838,0.19534 0.04559,0.3407c0.00392,0.08054 0.00691,0.16112 0.00899,0.24173c0.002,0.07198 0.0035,0.14775 0.0045,0.22733c0.00101,0.08357 0.00152,0.16715 0.00151,0.25073v0.71979c-0.00004,0.05829 0.00057,0.11657 0.0018,0.17484c0.00339,0.15995 0.01209,0.27801 0.02609,0.35419c0.00067,0.0036 0.00136,0.0072 0.0021,0.01079v0.53984c0.00005,0.0045 0.00017,0.009 0.00029,0.0135c0.00099,0.04598 0.00589,0.19145 0.01469,0.43637c0.0068,0.19254 0.0113,0.41567 0.0135,0.66941c0.00102,0.12176 0.00152,0.24354 0.00151,0.36528v1.21464v0.98971v0.35989v-0.14995c0.67979,-0.67979 1.49456,-1.11467 2.44427,-1.30461c0.94972,-0.18994 1.88445,-0.28491 2.80417,-0.28491c0.43477,-0.00261 0.86901,0.0306 1.29832,0.09927c0.93952,0.15635 1.6764,0.49816 2.21065,1.0254c0.66799,0.66186 1.11586,1.51345 1.28272,2.43888c0.02749,0.1409 0.04982,0.28275 0.06687,0.42528c0.02779,0.21424 0.05308,0.42877 0.07587,0.64361c0.03119,0.29332 0.06088,0.60862 0.08907,0.94591c0.03818,0.45927 0.06177,1.06498 0.07078,1.81716c0.00285,0.24401 0.00426,0.48805 0.0042,0.73208c0,0.6598 -0.01,1.33461 -0.02999,2.0244c-0.01999,0.68979 -0.04998,1.41459 -0.08998,2.17435c0,0.08357 -0.014,0.19494 -0.04199,0.33411c-0.0057,0.02866 -0.0117,0.05725 -0.018,0.08577c-0.02331,0.10639 -0.03952,0.21419 -0.04858,0.32271c-0.00778,0.09217 -0.01157,0.18462 -0.0114,0.27712c0,0.24753 -0.0024,0.52335 -0.0072,0.82745c-0.00222,0.14406 -0.00483,0.28812 -0.00779,0.43218c-0.01,0.47986 -0.015,0.96971 -0.015,1.46957v0.3299c0,0.07678 0.00589,0.13586 0.01769,0.17725c0.00308,0.01126 0.0072,0.02221 0.0123,0.03269c0,0.09997 0.005,0.19994 0.015,0.29992c0.00451,0.0446 0.00812,0.0893 0.01079,0.13406c0.0024,0.04199 0.0038,0.08188 0.0042,0.11967c0.00002,0.00539 0.00002,0.01079 0,0.01619c0,0.23993 -0.26992,0.35989 -0.80976,0.35989zM233.18924,197.92723h-0.62981c-0.63981,0 -1.12467,-0.015 -1.45457,-0.04499c-0.1151,-0.01031 -0.22999,-0.02281 -0.3446,-0.03748c-0.10797,-0.014 -0.20824,-0.02939 -0.30081,-0.04618c-0.06006,-0.01076 -0.11983,-0.02287 -0.17935,-0.0363c-0.07505,-0.01686 -0.15069,-0.03105 -0.22674,-0.04258c-0.18115,-0.02779 -0.39548,-0.04858 -0.64301,-0.06238c-0.21443,-0.04676 -0.42799,-0.09735 -0.6406,-0.15175c-0.38468,-0.09917 -0.7042,-0.19824 -0.95851,-0.29721c-0.07268,-0.0281 -0.1445,-0.0584 -0.21533,-0.09087c-0.33117,-0.15439 -0.63974,-0.35327 -0.91713,-0.59113c-0.06052,-0.05137 -0.11973,-0.10425 -0.17754,-0.15865h-0.3299l-0.02999,-0.20993h-0.23993l-0.20993,-0.26992c-0.10602,-0.11311 -0.21219,-0.22606 -0.31851,-0.3389c-0.08317,-0.08818 -0.16196,-0.17154 -0.23632,-0.25012c-0.06985,-0.0737 -0.13982,-0.14727 -0.20993,-0.22072c-0.12186,-0.12935 -0.22458,-0.27548 -0.30502,-0.43398c-0.06757,-0.13056 -0.12546,-0.27462 -0.17366,-0.43218c-0.0004,-0.00119 -0.0008,-0.0024 -0.00119,-0.00359c-0.09557,-0.31291 -0.14966,-0.75438 -0.16226,-1.32441c-0.00186,-0.08836 -0.00277,-0.17675 -0.0027,-0.26512c0.00188,-0.16243 0.02673,-0.32378 0.07378,-0.47926c0.04239,-0.14595 0.10287,-0.29901 0.18145,-0.45917c0.08046,-0.16226 0.1705,-0.31958 0.26963,-0.47116c0.27134,-0.42414 0.60953,-0.8016 1.00141,-1.11778c0.08843,-0.07079 0.17957,-0.13812 0.27322,-0.20184c-0.33262,-0.11292 -0.649,-0.26889 -0.94112,-0.46396c-0.77697,-0.53205 -1.14307,-1.29712 -1.09827,-2.29522c0.03013,-0.4025 0.16835,-0.78941 0.40007,-1.11986c0.12017,-0.17473 0.25741,-0.33708 0.40969,-0.48466c0.38848,-0.38069 0.88574,-0.75237 1.49175,-1.11507c0.18004,-0.10755 0.36263,-0.21073 0.54764,-0.30951l0.77976,-0.41988h0.11997c-0.45987,-0.09997 -0.94972,-0.27992 -1.46957,-0.53984c-0.38589,-0.19294 -0.6726,-0.36929 -0.86014,-0.52905c-0.05812,-0.04846 -0.11154,-0.10228 -0.15955,-0.16075h-0.26992v-0.23993c-0.01569,-0.00005 -0.03125,-0.00302 -0.04588,-0.00869c-0.00481,-0.00186 -0.0095,-0.00398 -0.01409,-0.0063c-0.00691,-0.00334 -0.01415,-0.00595 -0.02159,-0.00779c-0.018,-0.00481 -0.04078,-0.0072 -0.06838,-0.0072l-0.26992,-0.35989c-0.3359,-0.42926 -0.59782,-0.97191 -0.78577,-1.62792c-0.01349,-0.04705 -0.02648,-0.09424 -0.03899,-0.14156c-0.17116,-0.64547 -0.25786,-1.31043 -0.25792,-1.97822c0.00005,-0.07039 0.00105,-0.14077 0.003,-0.21114c0.02496,-0.56368 0.14755,-1.11875 0.3623,-1.64051c0.18605,-0.44201 0.44362,-0.85035 0.76237,-1.20865c0.28324,-0.31424 0.60083,-0.59572 0.94682,-0.83915c0.3299,-0.23652 0.70439,-0.46317 1.12348,-0.6799c0.3955,-0.20284 0.80055,-0.38649 1.21374,-0.55035c0.22677,-0.13268 0.46771,-0.23951 0.71829,-0.31851c0.14275,-0.04456 0.28861,-0.07845 0.43637,-0.10137c0.3899,-0.05997 0.77476,-0.10997 1.15466,-0.14995c0.49985,0 1.03969,0.01 1.61952,0.02999c0.57984,0.01999 1.14966,0.02999 1.7095,0.02999h0.14995c0.07337,0 0.11307,0.0084 0.11906,0.02518c0.00059,0.00154 0.00088,0.00315 0.00089,0.00481c0.03531,-0.00375 0.07072,-0.00654 0.10618,-0.0084c0.17935,-0.0102 0.44897,-0.0084 0.80886,0.00539c0.02489,0.00096 0.0498,0.00197 0.07468,0.003c0.27992,0.01999 0.50984,0.04499 0.68979,0.07498c0.11733,0.01976 0.2338,0.04437 0.3491,0.07378c0.07401,0.01879 0.14761,0.03919 0.22072,0.06119l0.56984,0.17994c0.02063,0.00566 0.04143,0.01068 0.06238,0.015c0.18235,0.03719 0.29151,-0.0028 0.32751,-0.11997c0.03999,-0.12997 0.05499,-0.29491 0.04499,-0.49486c-0.00139,-0.02797 -0.0021,-0.05597 -0.0021,-0.08397c0,-0.16395 0.02569,-0.30591 0.07708,-0.42587c0.07982,-0.16956 0.1603,-0.3388 0.24142,-0.50775c0.08517,-0.17754 0.17585,-0.36479 0.27202,-0.56173c0.01379,-0.02839 0.02758,-0.05679 0.04139,-0.08517c0.10791,-0.22096 0.21548,-0.44211 0.32271,-0.6634c0.11316,-0.23354 0.23213,-0.47995 0.3569,-0.73929c0.0084,-0.0173 0.01679,-0.03459 0.02518,-0.05188l0.20993,-0.02999l0.89974,0.26992c0.02822,-0.00004 0.05642,0.00096 0.08459,0.003c0.08577,0.00619 0.14516,0.023 0.17815,0.05039c0.0025,0.00208 0.0049,0.00428 0.0072,0.0066c0.01386,0.01851 0.02826,0.03661 0.04319,0.05428c0.04119,0.04879 0.07678,0.08067 0.10676,0.09568c0.03999,0.01999 0.06997,0.04998 0.08998,0.08998l0.59982,0.23993c0.02242,-0.011 0.04676,-0.01754 0.07168,-0.01919c0.06658,-0.00519 0.14766,0.0184 0.24322,0.07078c0.00503,0.00276 0.01002,0.00556 0.015,0.0084l0.3899,0.14995l0.08998,0.08998c0.07238,0 0.12017,0.0082 0.14336,0.02459c0.00235,0.0016 0.00456,0.00341 0.0066,0.00539l0.08998,0.08998c0.03939,-0.03939 0.05938,-0.03028 0.05997,0.0273c0,0.00089 0,0.0018 0,0.0027c0.02679,0 0.04908,0.0045 0.06687,0.0135c0.00853,0.00423 0.01633,0.00979 0.0231,0.01649l0.08998,0.05997l0.6598,0.29992l0.08998,0.11997c0.07337,0 0.11307,0.0084 0.11906,0.02518c0.00059,0.00154 0.00088,0.00315 0.00089,0.00481c0.01291,0.01301 0.02643,0.02541 0.04049,0.03719c0.02779,0.0232 0.05308,0.03869 0.07587,0.04649c0.01076,0.00396 0.02211,0.00609 0.03359,0.0063l0.14995,0.08998c0.11997,0.11997 0.13995,0.21993 0.05997,0.29992c-0.0972,0.11089 -0.19267,0.22327 -0.28641,0.3371c-0.03477,0.04236 -0.06926,0.08494 -0.10347,0.12777c-0.03381,0.04146 -0.06912,0.08168 -0.10587,0.12056c-0.15875,0.17016 -0.43337,0.43487 -0.82385,0.79417c-0.03999,0.05997 -0.09496,0.11496 -0.16496,0.16496c-0.02264,0.01612 -0.04495,0.03272 -0.06687,0.0498c-0.03919,0.03059 -0.07188,0.05898 -0.09807,0.08517l-0.44987,0.3299c-0.08337,0.06678 -0.13197,0.11957 -0.14575,0.15835c-0.00263,0.0069 -0.00404,0.01422 -0.0042,0.02159l-0.26992,0.26992l-0.23993,0.23993c-0.06943,0.06928 -0.13616,0.14121 -0.20004,0.21564c-0.02377,0.02769 -0.04706,0.0558 -0.06988,0.08426c0.98811,0.86014 1.48217,2.0552 1.48217,3.58514c-0.00005,0.14464 -0.00426,0.28926 -0.0126,0.43367c-0.03999,0.61982 -0.14495,1.25963 -0.31492,1.91943c-0.14956,0.58063 -0.31071,1.0296 -0.48346,1.3469c-0.02255,0.0416 -0.04636,0.08249 -0.07139,0.12266c-0.17814,0.2982 -0.39262,0.57311 -0.63852,0.81846c-0.13952,0.14022 -0.28682,0.27249 -0.44117,0.39618c-0.23203,0.18819 -0.48011,0.35569 -0.74138,0.50056c-0.21341,0.118 -0.43707,0.21648 -0.6682,0.29422l-0.59982,0.20993c-0.0409,0.01376 -0.08045,0.03122 -0.11817,0.05218c-0.02112,0.01174 -0.04172,0.02434 -0.06177,0.03779h-0.17994c-0.03999,0.01999 -0.14495,0.05499 -0.31492,0.10496c-0.15655,0.04598 -0.41909,0.11316 -0.78756,0.20154c-0.03238,0.00783 -0.06477,0.01562 -0.09717,0.02339c-0.06471,0.01059 -0.13002,0.01689 -0.19554,0.0189c-0.06258,0.00221 -0.12737,0.00089 -0.19435,-0.00389c-0.13976,-0.01 -0.22963,-0.015 -0.26963,-0.015c-0.26012,0 -0.46517,-0.005 -0.61512,-0.015c-0.12797,-0.0086 -0.21595,-0.00619 -0.26392,0.0072c-0.00722,0.00194 -0.01426,0.00454 -0.02099,0.00779c-0.09997,0.01999 -0.22493,0.015 -0.37489,-0.015c-0.03744,-0.0076 -0.07517,-0.01381 -0.11307,-0.01859c-0.07857,-0.00961 -0.14896,-0.01099 -0.21114,-0.0042c-0.01699,0.00185 -0.03392,0.00445 -0.05069,0.00779c-0.46627,-0.04658 -0.83585,-0.03579 -1.10878,0.03239c-0.07242,0.01746 -0.14301,0.04177 -0.21084,0.07258c-0.14795,0.06879 -0.25821,0.14725 -0.33081,0.23543c-0.06227,0.07267 -0.09885,0.16386 -0.10407,0.25943c-0.00919,0.18415 0.07067,0.35559 0.23963,0.51435c0.01476,0.01387 0.02986,0.02737 0.04528,0.04049c0.11483,0.09589 0.2477,0.16778 0.39079,0.21143c0.10177,0.03239 0.21304,0.05469 0.3338,0.06687c0.02835,0.00279 0.05675,0.00497 0.08517,0.0066c0.89974,0.09997 1.55454,0.18494 1.96443,0.25492c0.09568,0.01632 0.19125,0.03322 0.28671,0.05069c0.26632,0.04879 0.47066,0.09186 0.61302,0.12925c0.18994,0.04998 0.37489,0.09997 0.55483,0.14995c0.13576,0.03759 0.3339,0.07808 0.59443,0.12146c0.09166,0.01523 0.18344,0.02971 0.27532,0.04348c0.73914,0.10188 1.46501,0.2839 2.16476,0.54284c2.17597,0.83316 3.26394,2.3856 3.26394,4.65733c-0.00005,0.01609 -0.00016,0.0322 -0.00029,0.04829c0.00539,0.9059 -0.20396,1.80017 -0.61091,2.60953c-0.46126,0.88274 -1.18336,1.60423 -2.16626,2.16447c-0.64764,0.35984 -1.33644,0.64 -2.05139,0.83435c-0.03999,0 -0.06997,-0.01999 -0.08998,-0.05997c-0.0182,-0.03618 -0.06918,-0.0231 -0.15296,0.03929c-0.00913,0.00674 -0.01812,0.01363 -0.02698,0.0207c-0.00632,0.00598 -0.01377,0.01068 -0.02189,0.0138c-0.0264,0.01079 -0.06908,0.01619 -0.12806,0.01619c-0.04164,0.02024 -0.08526,0.03612 -0.13016,0.04739c-0.09297,0.02438 -0.20694,0.03829 -0.3419,0.04169c-0.02258,0.00059 -0.04519,0.00088 -0.06778,0.00089h-0.20993c-0.35045,-0.00138 -0.70022,0.03065 -1.04459,0.09568c-0.17394,0.03338 -0.34586,0.07654 -0.51494,0.12925c-0.16327,0.05164 -0.32991,0.09191 -0.49876,0.12056c-0.16116,0.02679 -0.31719,0.04018 -0.46816,0.04018c-0.11804,0.00019 -0.23594,-0.00844 -0.3527,-0.0258c-0.09997,-0.01999 -0.23993,-0.02499 -0.41988,-0.015c-0.15516,0.0086 -0.26571,0.0135 -0.3317,0.01469c-0.00939,0.00018 -0.01879,0.00028 -0.0282,0.00029zM221.31273,190.78933h-1.46957c-0.49985,0 -0.99471,-0.005 -1.48457,-0.015c-0.48986,-0.01 -0.98472,-0.02499 -1.48457,-0.04499c-0.90473,-0.01419 -1.57463,-0.14325 -2.00971,-0.38719c-0.16516,-0.08804 -0.30853,-0.21194 -0.41958,-0.36259c-0.01999,-0.09997 -0.03999,-0.26492 -0.05997,-0.49486c-0.00792,-0.09244 -0.01402,-0.18504 -0.01829,-0.27772c-0.00481,-0.10297 -0.0082,-0.21284 -0.0102,-0.3296c-0.00107,-0.07247 -0.00156,-0.14495 -0.00151,-0.21743c0,-0.75978 0.005,-1.3396 0.015,-1.73949c0.00961,-0.38709 0.0146,-0.82087 0.015,-1.30131c0,-0.01609 0,-0.0322 0,-0.04829v-0.56984v-0.70479c0,-0.27552 0.00899,-0.61872 0.02698,-1.0296c0.00098,-0.02169 0.00199,-0.04339 0.003,-0.06507c0.01718,-0.32354 0.02698,-0.64743 0.02939,-0.97142c0.0026,-0.36009 -0.0049,-0.70898 -0.02249,-1.04669c-0.00213,-0.04209 -0.00443,-0.08418 -0.0069,-0.12626c-0.03099,-0.51905 -0.03199,-0.9991 -0.003,-1.44018c0.0082,-0.12499 0.01919,-0.2498 0.03299,-0.3743c0.09997,-0.81975 -0.02999,-1.39959 -0.3899,-1.73949c-0.09291,-0.0899 -0.20353,-0.15946 -0.32479,-0.20424c-0.25412,-0.09137 -0.54824,-0.05888 -0.88235,0.09747c-0.06909,0.03245 -0.13664,0.06808 -0.20244,0.10676c-0.07585,0.02976 -0.14858,0.06694 -0.21713,0.11096c-0.09538,0.06238 -0.17296,0.13537 -0.23273,0.21894c-0.09997,0.13995 -0.16994,0.28992 -0.20993,0.44987v0.26992c-0.00003,-0.01051 0.00037,-0.02101 0.00119,-0.03149c0.002,-0.02459 0.0066,-0.04408 0.0138,-0.05849c0.00537,-0.01066 0.0094,-0.02195 0.01199,-0.03359c0.00196,-0.00867 0.00296,-0.01751 0.003,-0.0264v0.47986h-0.02999v11.30666c-0.0068,0.0139 -0.0121,0.02848 -0.01589,0.04348c-0.0094,0.03599 -0.01409,0.08147 -0.01409,0.13646c-0.01114,0.0331 -0.03658,0.05942 -0.06928,0.07168c-0.0158,0.0068 -0.034,0.0117 -0.05458,0.01469c-0.01858,0.00255 -0.03733,0.00376 -0.05608,0.00359c-0.02679,0 -0.04908,0.0045 -0.06687,0.0135c-0.00853,0.00423 -0.01633,0.00979 -0.0231,0.01649c-0.00562,0.00573 -0.01175,0.01095 -0.01829,0.0156c-0.0138,0.00961 -0.02768,0.01439 -0.04169,0.01439c-0.01999,0 -0.04998,0.01 -0.08998,0.02999c-0.3399,0 -0.6748,0.01 -1.0047,0.02999c-0.3299,0.01999 -0.64481,0.04998 -0.94473,0.08998h-2.00942c-0.27005,0.00024 -0.54009,-0.00296 -0.81006,-0.00961c-0.45007,-0.01159 -0.84486,-0.03339 -1.18435,-0.06538c-0.52984,-0.04998 -1.0247,-0.15495 -1.48457,-0.31492c-0.04477,-0.00036 -0.08802,-0.01627 -0.12236,-0.04499c-0.01939,-0.01539 -0.03809,-0.03489 -0.05608,-0.05849c-0.01135,-0.0149 -0.02186,-0.03042 -0.03149,-0.04649c-0.02125,-0.05076 -0.03783,-0.10336 -0.04948,-0.15716c-0.02479,-0.11056 -0.03818,-0.24383 -0.04018,-0.39978c-0.0002,-0.01429 -0.00029,-0.02859 -0.00029,-0.0429c-0.01408,-0.41926 -0.03048,-0.83845 -0.04918,-1.25754c-0.0148,-0.3299 -0.03059,-0.64381 -0.04739,-0.94173c-0.01581,-0.28174 -0.0336,-0.56336 -0.05339,-0.84486c-0.02138,-0.30249 -0.04247,-0.60501 -0.06328,-0.90753c-0.03278,-0.47706 -0.06168,-0.90933 -0.08667,-1.29681c-0.05918,-0.75079 -0.09897,-1.6821 -0.11936,-2.79399c-0.0002,-0.01339 -0.00041,-0.02679 -0.0006,-0.04018c-0.01999,-1.12966 -0.02999,-2.26433 -0.02999,-3.404v-0.83975l0.02999,-1.3196l0.05997,-1.19965l0.05997,-0.80976v-0.26992c0,-0.10137 0.0072,-0.18135 0.02159,-0.23993c0.00239,-0.01011 0.00518,-0.02011 0.0084,-0.02999c-0.00018,-0.01205 0.00134,-0.02406 0.0045,-0.03568c0.0076,-0.02659 0.02499,-0.04339 0.05218,-0.05039c0.01089,-0.0027 0.02207,-0.00402 0.03328,-0.00389c0.10819,-0.00062 0.21519,-0.02253 0.31492,-0.06449c0.0573,-0.02378 0.11249,-0.05237 0.16496,-0.08548h0.10496c0.04998,0 0.10496,-0.01 0.16496,-0.02999c0.10777,0 0.19174,0.00589 0.25192,0.01769c0.01624,0.00308 0.03227,0.00718 0.048,0.0123h4.85857h0.43487c0.03821,-0.00004 0.07642,0.00096 0.11457,0.003c0.03919,0.002 0.07538,0.0053 0.10856,0.0099c0.03089,0.00401 0.06152,0.00972 0.09177,0.0171l0.83975,0.02999c0.09951,0.00494 0.19755,0.02602 0.29031,0.06238c0.16695,0.06778 0.29361,0.18884 0.37999,0.3632c0.00152,0.00309 0.00302,0.00619 0.0045,0.00929c0.12997,0.26992 0.19494,0.57483 0.19494,0.91473l0.02999,0.08998v0.3899c0.67979,-0.75978 1.48956,-1.28462 2.42929,-1.57454c0.76145,-0.23851 1.54974,-0.38087 2.34651,-0.42377c0.14743,-0.00741 0.29504,-0.0111 0.44267,-0.01109c0.43503,-0.00276 0.86948,0.03267 1.29832,0.10587c0.46986,0.08337 0.88895,0.21624 1.25723,0.39858c0.35643,0.1735 0.67924,0.40889 0.95342,0.69521c0.73679,0.77629 1.20492,1.76859 1.33551,2.83087c0.00503,0.03605 0.00972,0.07214 0.01409,0.10826c0.05997,0.45987 0.11496,1.03969 0.16496,1.73949c0.03359,0.47027 0.05588,1.03069 0.06687,1.6813c0.00557,0.33927 0.00826,0.67859 0.0081,1.01791c0,0.6598 -0.01,1.33461 -0.02999,2.0244c-0.01999,0.68979 -0.04998,1.41459 -0.08998,2.17435c0,0.08357 -0.014,0.19494 -0.04199,0.33411c-0.0057,0.02866 -0.0117,0.05725 -0.018,0.08577c-0.02331,0.10639 -0.03952,0.21419 -0.04858,0.32271c-0.00778,0.09217 -0.01157,0.18462 -0.0114,0.27712c0,0.35989 -0.005,0.74978 -0.015,1.16965c-0.01,0.41988 -0.015,0.87975 -0.015,1.3796v0.3299c0,0.07678 0.00589,0.13586 0.01769,0.17725c0.00308,0.01126 0.0072,0.02221 0.0123,0.03269c0,0.09997 0.005,0.19994 0.015,0.29992c0.00451,0.0446 0.00812,0.0893 0.01079,0.13406c0.0024,0.04199 0.0038,0.08188 0.0042,0.11967c0.00002,0.00539 0.00002,0.01079 0,0.01619c0,0.23993 -0.26992,0.35989 -0.80976,0.35989zM346.94574,174.2042l0.02999,-1.01971v-1.79947h0.02999l-0.02999,-2.00942v-1.55955c0,-0.21374 0.16994,-0.3567 0.50984,-0.42888c0.00998,-0.00208 0.01998,-0.00408 0.02999,-0.00599c0.24173,-0.04699 0.53314,-0.07817 0.87425,-0.09357c0.17834,-0.00782 0.35683,-0.01162 0.53535,-0.0114h0.47986c0.15995,0 0.3199,0.01 0.47986,0.02999c0.15995,0.01999 0.30491,0.03499 0.43487,0.04499c0.12997,0.01 0.23493,0.015 0.31492,0.015c0.05231,0.00561 0.1047,0.01041 0.15716,0.01439c0.14656,0.01159 0.3436,0.0232 0.59113,0.03479c0.08046,0.00381 0.16095,0.00741 0.24142,0.01079c0.21387,0.00903 0.42782,0.01622 0.64182,0.02159c0.23013,0.0056 0.44607,0.0084 0.64781,0.0084l0.14995,-0.11997l1.73949,0.11997c0.37349,-0.03559 0.63231,-0.01179 0.77646,0.07139c0.01707,0.00973 0.03323,0.02097 0.04829,0.03359c0.04569,0.03789 0.08559,0.08223 0.11846,0.13165c0.0505,0.0766 0.0771,0.16649 0.07648,0.25821v0.37489v2.3843c0.00001,0.26212 -0.00099,0.52425 -0.003,0.78637c-0.0018,0.23993 -0.0045,0.46737 -0.0081,0.6823c-0.00118,0.07029 -0.00247,0.14056 -0.00389,0.21084c-0.01,0.48986 -0.015,0.99971 -0.015,1.52955v1.93443v0.08998l-0.02999,0.6598v6.53808v1.72449c0,0.46986 -0.01999,0.81475 -0.05997,1.0347v0.89974c-0.03999,0.35989 -0.06997,0.71479 -0.08998,1.06469c-0.01287,0.22825 -0.02146,0.45673 -0.0258,0.6853c-0.00284,0.14644 -0.00425,0.2929 -0.0042,0.43937c0.00031,0.16387 -0.00459,0.3277 -0.01469,0.49127c-0.0214,0.33549 -0.06649,0.61661 -0.13527,0.84335c-0.08258,0.27232 -0.25353,0.43228 -0.51285,0.47986c-0.0584,0.01033 -0.11764,0.01536 -0.17695,0.015l-2.00942,-0.02999h-3.0291c-0.03816,-0.01239 -0.07714,-0.0221 -0.11667,-0.0291c-0.11256,-0.02059 -0.25863,-0.0309 -0.43817,-0.0309h-0.88475c-0.52184,0 -0.92224,-0.07288 -1.20115,-0.21864c-0.03025,-0.01577 -0.05977,-0.03288 -0.08847,-0.05128c-0.16118,-0.07303 -0.28621,-0.2078 -0.347,-0.37399c-0.02653,-0.06809 -0.04594,-0.13875 -0.05789,-0.21084c-0.04018,-0.23354 -0.05128,-0.43787 -0.03328,-0.61302c0.00418,-0.04085 0.01028,-0.08148 0.01829,-0.12176c0.01051,-0.04175 0.01843,-0.08414 0.02369,-0.12687c0.00407,-0.03253 0.00618,-0.06528 0.0063,-0.09807v-0.13495c-0.01698,-0.01698 -0.02679,-0.06278 -0.02939,-0.13736c-0.00044,-0.01419 -0.00065,-0.02838 -0.0006,-0.04258l-0.26992,0.86975c-0.13292,0.19779 -0.27996,0.38573 -0.43997,0.56233c-0.25152,0.27491 -0.51474,0.48735 -0.78967,0.63731c-0.32735,0.17663 -0.67787,0.30645 -1.0413,0.38569c-0.15141,0.0337 -0.30434,0.06013 -0.45827,0.07918c-0.22618,0.02775 -0.45311,0.04905 -0.6805,0.06389c-0.25372,0.01719 -0.52584,0.02899 -0.81636,0.03539c-0.18083,0.00389 -0.36168,0.00579 -0.54254,0.0057c-0.89451,-0.00415 -1.77666,-0.20913 -2.58134,-0.59982c-0.21976,-0.10438 -0.43425,-0.21949 -0.64271,-0.34491c-1.04969,-0.62981 -1.83445,-1.49456 -2.35431,-2.59424c-0.28023,-0.39905 -0.49967,-0.83751 -0.65111,-1.30102c-0.40608,-1.17786 -0.60912,-2.78497 -0.60912,-4.82138c-0.00003,-0.06858 0.00018,-0.13716 0.0006,-0.20574c0.00478,-0.71971 0.07312,-1.43758 0.20424,-2.14527c0.14942,-0.81761 0.41386,-1.60995 0.78546,-2.3534c0.28122,-0.56138 0.62155,-1.0911 1.01519,-1.58024c0.41019,-0.50919 0.89147,-0.95675 1.42908,-1.32891c0.48008,-0.33532 1.007,-0.59797 1.56373,-0.77947c0.49791,-0.15938 1.01755,-0.24042 1.54034,-0.24024c0.34369,0 0.73457,0.00711 1.17265,0.0213c0.20898,0.00681 0.41792,0.0147 0.62682,0.02369c0.69978,0.02999 1.4046,0.12997 2.11438,0.29992c0.41367,0.09614 0.81135,0.25138 1.18075,0.46096c0.22588,0.12968 0.43819,0.2817 0.63372,0.45376zM161.48035,178.46296h-2.39928c-0.02349,0.00002 -0.04699,0.00012 -0.07047,0.00029c-0.14857,0.00099 -0.22963,0.0056 -0.24322,0.0138c-0.00044,0.00025 -0.00084,0.00055 -0.00119,0.00089c-0.00405,0.00265 -0.00869,0.00429 -0.0135,0.00481c-0.03339,0.0068 -0.12386,0.0102 -0.27142,0.0102h-0.23993l-1.76947,0.20993c-0.10641,-0.04101 -0.1943,-0.11923 -0.24742,-0.22013c-0.11496,-0.19754 -0.17244,-0.51405 -0.17244,-0.94952v-0.37489v-0.68979c0,-0.31752 -0.01849,-0.81577 -0.05549,-1.49476c-0.00149,-0.02659 -0.00299,-0.05319 -0.0045,-0.07978c0.013,-0.04641 0.02252,-0.09373 0.02849,-0.14156c0.0148,-0.11378 0.0153,-0.24652 0.00151,-0.39828l0.02999,-0.44987c0.02262,0.00009 0.0452,-0.0018 0.06748,-0.0057c0.04719,-0.0084 0.08468,-0.0265 0.11246,-0.05428l0.14995,-0.17994c0.00547,-0.01126 0.01254,-0.02166 0.02099,-0.0309c0.01769,-0.01922 0.04285,-0.02984 0.06899,-0.0291c0.02533,-0.00015 0.05064,-0.00134 0.07587,-0.00359c0.07158,-0.00599 0.16125,-0.01979 0.26902,-0.04139l0.52485,-0.10496l0.6598,-0.11997c0.12636,-0.03159 0.22774,-0.05069 0.30412,-0.05728c0.01854,-0.00171 0.03716,-0.0026 0.05578,-0.0027c0.45727,-0.09798 0.79118,-0.16924 1.0017,-0.21384c0.04098,-0.00872 0.08197,-0.01742 0.12296,-0.02609c0.07136,-0.01485 0.14319,-0.02744 0.21533,-0.03779c0.14956,-0.02159 0.32271,-0.03899 0.51944,-0.05218c1.13966,-0.05997 2.25933,-0.07498 3.35902,-0.04499c0.4906,0.013 0.98095,0.03479 1.47076,0.06538c0.46106,0.02919 0.89724,0.06588 1.30852,0.11006c0.05831,0.00629 0.1166,0.01278 0.17484,0.01948c0.703,0.08078 1.25253,0.18775 1.64862,0.32091c0.08684,0.02878 0.17222,0.06182 0.25584,0.09897c1.23963,0.49985 2.14937,1.22464 2.7292,2.17435c0.42908,0.7028 0.71039,1.59993 0.84396,2.69141c0.04842,0.40584 0.07705,0.81381 0.08577,1.22245l0.11997,4.37871c0.01999,0.55984 0.03999,1.05469 0.05997,1.48457c0.00432,0.09336 0.00842,0.18675 0.0123,0.28013c0.01179,0.28071 0.01769,0.48225 0.01769,0.60463l0.02999,0.6598c-0.07998,0.39989 -0.13495,0.74477 -0.16496,1.0347c-0.02999,0.28992 -0.03499,0.60482 -0.015,0.94473c0.00518,0.07732 0.00939,0.15471 0.0126,0.23213c0.0176,0.43027 -0.00461,0.74737 -0.06658,0.95132c-0.00619,0.02066 -0.01321,0.04106 -0.02099,0.06119c-0.07658,0.19595 -0.21493,0.3156 -0.41508,0.359c-0.03618,0.00781 -0.07286,0.01312 -0.10977,0.01589l-4.85857,0.14995c-0.15937,-0.03979 -0.53685,-0.04989 -1.13246,-0.03028c-0.0024,0.00009 -0.00481,0.0002 -0.0072,0.00029c-0.04539,0.0042 -0.09089,0.0069 -0.13646,0.0081c-0.08916,0.00221 -0.17265,-0.0021 -0.25044,-0.01289c-0.06198,-0.0083 -0.12318,-0.02176 -0.18294,-0.04018c-0.15995,-0.04998 -0.3199,-0.10496 -0.47986,-0.16496c-0.15027,-0.06557 -0.26799,-0.1886 -0.3269,-0.34161c-0.0338,-0.07998 -0.05838,-0.17186 -0.07378,-0.27562c-0.0133,-0.09357 -0.01972,-0.188 -0.01919,-0.28253v-0.35989c0,-0.02679 0.0045,-0.04908 0.0135,-0.06687c0.00423,-0.00853 0.00979,-0.01633 0.01649,-0.0231v-0.08998c-0.00785,-0.00796 -0.01596,-0.01565 -0.02429,-0.0231c-0.02459,-0.02159 -0.04449,-0.03369 -0.05968,-0.0363c-0.00199,-0.00037 -0.00399,-0.00058 -0.00599,-0.0006c-0.35838,0.55086 -0.82964,1.01935 -1.3826,1.37449c-0.08257,0.05393 -0.16658,0.10563 -0.25192,0.15505c-0.34768,0.20422 -0.7181,0.36697 -1.10368,0.48496c-0.3189,0.09659 -0.64807,0.15527 -0.98071,0.17484c-0.15367,0.00665 -0.30744,0.01004 -0.46126,0.0102c-1.13667,0.0004 -2.08618,-0.18844 -2.84856,-0.56654c-0.33492,-0.1642 -0.64441,-0.37583 -0.91893,-0.62831c-0.45831,-0.43423 -0.81307,-0.96601 -1.038,-1.55595c-0.17375,-0.43468 -0.30251,-0.92233 -0.38627,-1.46298c-0.05548,-0.36606 -0.09062,-0.73492 -0.10527,-1.10487c-0.00213,-0.08236 -0.00324,-0.16475 -0.0033,-0.24713c0,-0.48525 0.03809,-0.90635 0.11426,-1.26323c0.0291,-0.13868 0.06716,-0.27533 0.11397,-0.40909c0.06511,-0.17902 0.1457,-0.35202 0.24083,-0.51705c0.18675,-0.3299 0.44786,-0.6903 0.78338,-1.08119c0.02336,-0.0272 0.04686,-0.0543 0.07047,-0.08128c0.29617,-0.3598 0.6345,-0.68273 1.0077,-0.96181c0.31822,-0.23654 0.66482,-0.43231 1.03168,-0.58274c0.75978,-0.30992 1.77947,-0.47486 3.0591,-0.49486c0.34369,-0.0138 0.6566,-0.02518 0.93872,-0.0342c0.12197,-0.00389 0.24391,-0.0075 0.3659,-0.01079c0.30071,-0.0082 0.54535,-0.0064 0.73388,0.00539c0.04035,0.00245 0.08064,0.00564 0.12086,0.00961c0.52324,0.018 0.94063,0.01979 1.25213,0.00539c0.03251,-0.00154 0.065,-0.00334 0.09747,-0.00539c-0.03818,-0.39389 -0.13287,-0.71509 -0.28401,-0.96361c-0.08206,-0.13739 -0.18918,-0.25814 -0.31581,-0.35599c-0.09236,-0.07256 -0.19391,-0.13254 -0.30201,-0.17844c-0.09577,-0.04179 -0.20174,-0.07719 -0.3179,-0.10618c-0.07265,-0.01801 -0.14597,-0.03312 -0.21983,-0.04528c-0.12047,-0.01957 -0.24148,-0.03558 -0.36289,-0.048c-0.24472,-0.026 -0.53593,-0.04618 -0.87364,-0.06059c-0.10765,-0.00449 -0.21531,-0.00829 -0.323,-0.0114zM177.52564,190.60937h-0.14995c-0.10737,-0.05379 -0.17875,-0.10747 -0.21414,-0.16105c-0.01621,-0.02315 -0.02519,-0.05061 -0.0258,-0.07887l-1.79947,-5.72831c-0.04761,-0.15344 -0.09449,-0.30709 -0.14067,-0.46096c-0.14616,-0.48746 -0.30921,-1.0536 -0.48915,-1.6984c-0.23993,-0.85975 -0.51984,-1.77947 -0.83975,-2.75919c-0.3199,-0.97971 -0.70979,-1.93942 -1.16965,-2.87915c-0.00529,-0.00591 -0.00926,-0.01285 -0.0117,-0.0204c-0.01221,-0.03258 -0.01829,-0.09577 -0.01829,-0.18955l-0.08998,-0.35989c-0.0222,-0.06057 -0.03935,-0.12286 -0.05128,-0.18625c-0.0258,-0.13197 -0.03869,-0.2898 -0.03869,-0.47355c0,-0.10877 -0.0181,-0.23254 -0.05428,-0.37129c-0.01085,-0.04148 -0.02275,-0.08268 -0.03568,-0.12357c-0.03249,-0.10192 -0.04908,-0.20824 -0.04918,-0.31521c0,-0.08878 0.0114,-0.17865 0.0342,-0.26963c0.02433,-0.0916 0.0739,-0.17453 0.14305,-0.23933c0.08857,-0.08698 0.21473,-0.16285 0.37848,-0.22764c0.01106,-0.0044 0.02215,-0.00869 0.03328,-0.01289l0.56984,-0.23993l2.0394,-0.47986c0.00591,-0.00004 0.01181,-0.00034 0.01769,-0.00089c0.02059,-0.0018 0.04969,-0.00649 0.08728,-0.01409c0.04098,-0.0082 0.07188,-0.0063 0.09267,0.0057c0.00449,0.00254 0.00863,0.00566 0.0123,0.00929c0.03999,0.01999 0.05997,0 0.05997,-0.05997c-0.00002,-0.0094 0.00028,-0.0188 0.00089,-0.0282c0.002,-0.02839 0.0072,-0.04699 0.0156,-0.05578c0.00343,-0.00383 0.00836,-0.00603 0.0135,-0.00599h0.08998l0.02999,-0.02999c0.0176,-0.00593 0.0354,-0.01123 0.05339,-0.01589c0.03699,-0.0094 0.06918,-0.01409 0.09657,-0.01409c0.02679,0 0.04908,-0.0045 0.06687,-0.0135c0.00853,-0.00423 0.01633,-0.00979 0.0231,-0.01649l0.14995,-0.05997l0.50984,-0.02999l1.55955,-0.29992c0.05997,-0.01906 0.12084,-0.03528 0.18235,-0.04858c0.29172,-0.06258 0.52085,-0.0314 0.6874,0.09357c0.19533,0.14729 0.35139,0.34043 0.45436,0.56233c0.00356,0.00747 0.00706,0.01496 0.0105,0.02249c0.10997,0.23993 0.19494,0.43987 0.25492,0.59982l0.41988,1.16965c0.13076,0.3359 0.26143,0.71979 0.39198,1.15165c0.00937,0.03097 0.01867,0.06196 0.02789,0.09297c0.05806,0.19484 0.11543,0.3899 0.17215,0.58512c0.05177,0.17795 0.09986,0.34609 0.14426,0.50444c0.01458,0.05166 0.02908,0.10334 0.04348,0.15505c0.01472,0.05265 0.02891,0.10543 0.04258,0.15835c0.06838,0.26693 0.09417,0.43407 0.07737,0.50145c-0.00009,0.01301 0.0004,0.02603 0.00151,0.03899c0.0024,0.02539 0.00731,0.04579 0.01469,0.06119c0.00347,0.00733 0.00812,0.01402 0.0138,0.01979c-0.00002,0.0243 0.00049,0.0486 0.00151,0.07288c0.003,0.07318 0.01119,0.12596 0.02459,0.15835c0.00119,0.00295 0.00249,0.00585 0.00389,0.00869c0.05709,0.03498 0.10469,0.08349 0.13856,0.14126c0.02239,0.03679 0.04139,0.07857 0.05699,0.12537c0.00529,0.01595 0.01008,0.03205 0.01439,0.04829c0.03699,0.13896 0.07408,0.24793 0.11128,0.3269c0.00283,0.00604 0.00573,0.01203 0.00869,0.018c0.01371,0.01417 0.02532,0.03023 0.03449,0.04768c0.0232,0.04239 0.04169,0.10148 0.05549,0.17725c0.01999,0.10997 0.03999,0.21493 0.05997,0.31492l0.3299,0.71979l0.47986,1.58953l0.14995,0.35989l0.26992,0.44987c0,-0.01999 0.03999,-0.10997 0.11997,-0.26992c0.07998,-0.15995 0.15995,-0.32491 0.23993,-0.49486c0.01389,-0.02945 0.02748,-0.05905 0.04078,-0.08878c0.05278,-0.11817 0.07918,-0.19354 0.07918,-0.22613l0.29992,-1.19965l0.26992,-0.89974c0.01886,-0.04664 0.03369,-0.0948 0.04438,-0.14396c0.01015,-0.0463 0.01537,-0.09356 0.0156,-0.14096c0,-0.08998 0.01,-0.17495 0.02999,-0.25492l0.08998,-0.3899l0.05997,-0.3899c0.03999,-0.19994 0.09997,-0.36489 0.17994,-0.49486c0.06398,-0.10378 0.12787,-0.26821 0.19165,-0.49335c0.01706,-0.06022 0.03315,-0.12072 0.04829,-0.18145c0.09846,-0.35168 0.19653,-0.70349 0.29422,-1.05539c0.18814,-0.6778 0.3471,-1.25723 0.47685,-1.73828c0.05346,-0.19828 0.10636,-0.39672 0.15865,-0.59532c0.03104,-0.12021 0.06829,-0.23873 0.11157,-0.3551c0.18775,-0.49685 0.43498,-0.70979 0.74168,-0.63881c0.00552,0.00131 0.01101,0.00272 0.01649,0.0042l1.07968,0.05997l1.91943,0.17994c0.03189,0.00035 0.06357,0.0051 0.09417,0.01409c0.05578,0.0158 0.11717,0.0447 0.18415,0.08667c0.00221,0.00139 0.0044,0.00279 0.0066,0.0042c0.10997,0.06997 0.19494,0.09496 0.25492,0.07498l0.77976,0.08998c0.24253,0.01575 0.46929,0.12561 0.63191,0.30621c0.04253,0.04513 0.08192,0.09312 0.11787,0.14366c0.04344,0.05998 0.08109,0.12395 0.11246,0.19105c0.09736,0.21214 0.09986,0.41838 0.0075,0.61872c-0.00037,0.05104 -0.00257,0.10207 -0.0066,0.15296c-0.01099,0.14937 -0.03568,0.35369 -0.07408,0.61302c-0.01262,0.08465 -0.02573,0.16923 -0.03929,0.25372c-0.01056,0.04301 -0.02503,0.08497 -0.04319,0.12537c-0.01329,0.02941 -0.02893,0.05769 -0.04678,0.08459c-0.03999,0.05997 -0.05997,0.10997 -0.05997,0.14995c-0.00607,0.01268 -0.01079,0.02593 -0.01409,0.0396c-0.0106,0.04098 -0.01589,0.09777 -0.01589,0.17036c-0.10717,0.33671 -0.24073,0.77018 -0.40069,1.30041c-0.05162,0.17128 -0.10299,0.34264 -0.15415,0.51405c-0.22992,0.76977 -0.47486,1.59953 -0.73478,2.48926c-0.25992,0.88974 -0.50486,1.74949 -0.73478,2.57925c-0.08132,0.29359 -0.1626,0.58722 -0.24383,0.88084c-0.06378,0.22992 -0.12406,0.44766 -0.18085,0.6532c-0.05343,0.19344 -0.10681,0.38687 -0.16016,0.58034l-1.3196,5.12849c-0.0008,0.01849 -0.00661,0.03643 -0.01679,0.05188c-0.03119,0.05198 -0.10557,0.11467 -0.22313,0.18804h-0.17994h-0.19494c-0.04072,0.00005 -0.08018,0.01402 -0.11186,0.0396c-0.00812,0.00631 -0.01583,0.01312 -0.0231,0.0204c-0.07998,0.07998 -0.18994,0.11997 -0.3299,0.11997c-0.09676,0 -0.20304,0.01409 -0.3188,0.04229c-0.0037,0.00088 -0.0074,0.00178 -0.01109,0.0027c-0.02775,0.00701 -0.05605,0.01163 -0.08459,0.0138c-0.08757,0.0064 -0.16935,-0.0132 -0.24534,-0.05879c-0.05831,-0.00837 -0.11669,-0.01616 -0.17514,-0.02339c-0.05339,-0.0066 -0.10417,-0.0123 -0.15235,-0.0171c-0.01579,-0.00157 -0.03158,-0.00307 -0.04739,-0.0045c-0.03904,-0.00354 -0.07813,-0.00653 -0.11727,-0.00899c-0.06177,-0.00401 -0.11766,-0.00599 -0.16766,-0.00599c-0.20404,0.01539 -0.4083,0.02779 -0.61272,0.03719c-0.19754,0.0094 -0.40898,0.0173 -0.63432,0.02369c-0.23909,0.00651 -0.47822,0.01121 -0.71738,0.01409c-0.78976,0.01 -1.56954,0.01 -2.33931,0c-0.76977,-0.01 -1.4046,-0.015 -1.90443,-0.015c-0.11997,0 -0.23493,-0.01999 -0.34491,-0.05997c-0.06659,-0.02381 -0.13559,-0.04029 -0.20574,-0.04918c-0.05608,-0.00732 -0.1126,-0.01092 -0.16914,-0.01079c-0.09997,0 -0.20993,0.01 -0.3299,0.02999c-0.10576,0.0176 -0.20374,-0.00359 -0.29391,-0.06357c-0.01238,-0.00826 -0.02437,-0.01708 -0.03599,-0.0264c-0.00268,-0.00272 -0.00549,-0.00532 -0.0084,-0.00779c-0.00961,-0.0082 -0.01789,-0.0123 -0.02489,-0.0123c-0.00444,-0.00001 -0.00869,0.00184 -0.0117,0.0051zM278.71584,173.15452h0.17994c0.09878,0 0.18265,0.015 0.25162,0.04499c0.02776,0.01187 0.05403,0.02698 0.07827,0.04499c0.00995,0.01 0.01936,0.02051 0.0282,0.03149c0.00919,0.0114 0.0184,0.0238 0.02759,0.03719c0.00142,0.00209 0.00281,0.00419 0.0042,0.0063c0.01619,0.0242 0.03229,0.03858 0.04829,0.04319c0.0038,0.00116 0.00773,0.00176 0.0117,0.0018c0.02006,-0.00018 0.04013,0.00123 0.05997,0.0042c0.02059,0.00339 0.03869,0.0086 0.05428,0.0156c0.03108,0.0127 0.05505,0.03834 0.06569,0.07017l0.56984,0.47986c0.6306,0.54743 1.15764,1.20378 1.55595,1.93773c0.26506,0.48331 0.48705,0.98902 0.6634,1.51126c0.45987,1.3396 0.68979,2.7392 0.68979,4.19877l-0.23993,0.56984l-8.03763,0.14995l-0.86975,0.02999l0.02999,0.77976l0.11997,0.71979l0.26992,0.71979l0.77976,0.68979c0.08965,0.07223 0.18595,0.13581 0.28761,0.18984c0.10237,0.05539 0.21644,0.10697 0.3422,0.15476c0.10355,0.03923 0.20859,0.07436 0.31492,0.10527c0.40988,0.11997 0.83475,0.17994 1.27462,0.17994h0.14995c0.13297,-0.0008 0.26571,-0.01051 0.39738,-0.0291c0.25453,-0.03459 0.54194,-0.09986 0.86225,-0.19583c0.37296,-0.11159 0.74781,-0.21677 1.12438,-0.31551c0.15481,-0.04073 0.30987,-0.08052 0.46517,-0.11936l1.6795,-0.41988l0.35989,0.44987l0.53984,3.80888l-0.3299,0.53984c-0.38086,0.1828 -0.76616,0.3562 -1.15556,0.52004c-0.47307,0.19814 -0.91763,0.36469 -1.33371,0.49966c-0.73978,0.23993 -1.42958,0.39989 -2.06939,0.47986c-0.38489,0.04119 -0.73439,0.08008 -1.04849,0.11667c-0.1354,0.01572 -0.27077,0.03181 -0.40608,0.04829c-0.40988,0.04998 -0.79477,0.07498 -1.15466,0.07498c-0.59982,0 -1.13966,-0.05997 -1.61952,-0.17994c-0.47761,-0.11854 -0.96224,-0.2068 -1.45097,-0.26422c-0.01619,-0.00194 -0.03239,-0.00383 -0.04858,-0.0057c-0.73978,-0.07998 -1.43958,-0.3299 -2.09938,-0.74978c-0.61306,-0.46798 -1.18097,-0.99233 -1.6963,-1.56614c-0.54713,-0.60821 -1.01049,-1.28681 -1.3778,-2.01781c-0.64981,-1.3096 -0.99471,-2.87416 -1.0347,-4.69361c-0.0018,-0.09307 -0.0027,-0.18614 -0.0027,-0.27922c0,-0.96411 0.09868,-1.86985 0.29602,-2.7172c0.19174,-0.83807 0.49666,-1.64615 0.90635,-2.40199l0.14995,-0.50984c0.01585,-0.00789 0.03146,-0.01631 0.04678,-0.02518c0.04479,-0.026 0.07288,-0.04969 0.08426,-0.07108c0.00154,-0.00279 0.00285,-0.00569 0.00389,-0.00869c0.00195,-0.00597 0.00436,-0.01179 0.0072,-0.01739c0.00319,-0.00599 0.0066,-0.01099 0.0102,-0.015c0.00692,-0.00802 0.01699,-0.01263 0.02759,-0.0126l0.05997,-0.11997l0.17994,-0.11997c0.61834,-1.17116 1.649,-2.07144 2.89265,-2.52676c0.16328,-0.06354 0.32885,-0.12107 0.49636,-0.17244c0.32185,-0.06665 0.64659,-0.11841 0.97322,-0.15505c0.63321,-0.07398 1.3826,-0.11957 2.24815,-0.13675c0.27579,-0.00545 0.55161,-0.00816 0.82745,-0.0081c0.07998,0 0.16994,0.005 0.26992,0.015c0.04033,0.00411 0.08062,0.00861 0.12086,0.0135c0.03599,0.0042 0.07389,0.0089 0.11366,0.01409c0.04182,0.00559 0.0836,0.01138 0.12537,0.01739c0.0118,0.00004 0.0236,0.00034 0.03539,0.00089c0.04139,0.0018 0.09957,0.00649 0.17455,0.01409c0.09997,0.01 0.20993,0.015 0.3299,0.015c0.38868,0 1.07708,0.14556 2.0652,0.43667c0.08147,0.02406 0.16285,0.04846 0.24412,0.07318zM370.00894,173.15452h0.17994c0.09878,0 0.18265,0.015 0.25162,0.04499c0.02776,0.01187 0.05403,0.02698 0.07827,0.04499c0.00995,0.01 0.01936,0.02051 0.0282,0.03149c0.00919,0.0114 0.0184,0.0238 0.02759,0.03719c0.00142,0.00209 0.00281,0.00419 0.0042,0.0063c0.01619,0.0242 0.03229,0.03858 0.04829,0.04319c0.0038,0.00116 0.00773,0.00176 0.0117,0.0018c0.02006,-0.00018 0.04013,0.00123 0.05997,0.0042c0.02059,0.00339 0.03869,0.0086 0.05428,0.0156c0.03108,0.0127 0.05505,0.03834 0.06569,0.07017l0.56984,0.47986c0.6306,0.54743 1.15764,1.20378 1.55595,1.93773c0.26506,0.48331 0.48705,0.98902 0.6634,1.51126c0.45987,1.3396 0.68979,2.7392 0.68979,4.19877l-0.23993,0.56984l-8.03763,0.14995l-0.86975,0.02999l0.02999,0.77976l0.11997,0.71979l0.26992,0.71979l0.77976,0.68979c0.08965,0.07223 0.18595,0.13581 0.28761,0.18984c0.10237,0.05539 0.21644,0.10697 0.3422,0.15476c0.10355,0.03923 0.20859,0.07436 0.31492,0.10527c0.40988,0.11997 0.83475,0.17994 1.27462,0.17994h0.14995c0.13297,-0.0008 0.26571,-0.01051 0.39738,-0.0291c0.25453,-0.03459 0.54194,-0.09986 0.86225,-0.19583c0.37296,-0.11159 0.74781,-0.21677 1.12438,-0.31551c0.15481,-0.04073 0.30987,-0.08052 0.46517,-0.11936l1.6795,-0.41988l0.35989,0.44987l0.53984,3.80888l-0.3299,0.53984c-0.38086,0.1828 -0.76616,0.3562 -1.15556,0.52004c-0.47307,0.19814 -0.91763,0.36469 -1.33371,0.49966c-0.73978,0.23993 -1.42958,0.39989 -2.06939,0.47986c-0.38489,0.04119 -0.73439,0.08008 -1.04849,0.11667c-0.1354,0.01572 -0.27077,0.03181 -0.40608,0.04829c-0.40988,0.04998 -0.79477,0.07498 -1.15466,0.07498c-0.59982,0 -1.13966,-0.05997 -1.61952,-0.17994c-0.47761,-0.11854 -0.96224,-0.2068 -1.45097,-0.26422c-0.01619,-0.00194 -0.03239,-0.00383 -0.04858,-0.0057c-0.73978,-0.07998 -1.43958,-0.3299 -2.09938,-0.74978c-0.61306,-0.46798 -1.18097,-0.99233 -1.6963,-1.56614c-0.54713,-0.60821 -1.01049,-1.28681 -1.3778,-2.01781c-0.64981,-1.3096 -0.99471,-2.87416 -1.0347,-4.69361c-0.0018,-0.09307 -0.0027,-0.18614 -0.0027,-0.27922c0,-0.96411 0.09868,-1.86985 0.29602,-2.7172c0.19174,-0.83807 0.49666,-1.64615 0.90635,-2.40199l0.14995,-0.50984c0.01585,-0.00789 0.03146,-0.01631 0.04678,-0.02518c0.04479,-0.026 0.07288,-0.04969 0.08426,-0.07108c0.00154,-0.00279 0.00285,-0.00569 0.00389,-0.00869c0.00195,-0.00597 0.00436,-0.01179 0.0072,-0.01739c0.00319,-0.00599 0.0066,-0.01099 0.0102,-0.015c0.00692,-0.00802 0.01699,-0.01263 0.02759,-0.0126l0.05997,-0.11997l0.17994,-0.11997c0.61834,-1.17116 1.649,-2.07144 2.89265,-2.52676c0.16328,-0.06354 0.32885,-0.12107 0.49636,-0.17244c0.32185,-0.06665 0.64659,-0.11841 0.97322,-0.15505c0.63321,-0.07398 1.3826,-0.11957 2.24815,-0.13675c0.27579,-0.00545 0.55161,-0.00816 0.82745,-0.0081c0.07998,0 0.16994,0.005 0.26992,0.015c0.04033,0.00411 0.08062,0.00861 0.12086,0.0135c0.03599,0.0042 0.07389,0.0089 0.11366,0.01409c0.04182,0.00559 0.0836,0.01138 0.12537,0.01739c0.0118,0.00004 0.0236,0.00034 0.03539,0.00089c0.04139,0.0018 0.09957,0.00649 0.17455,0.01409c0.09997,0.01 0.20993,0.015 0.3299,0.015c0.38868,0 1.07708,0.14556 2.0652,0.43667c0.08147,0.02406 0.16285,0.04846 0.24412,0.07318zM298.59998,185.27094v0.05997c0.28833,0.70659 0.47797,1.57964 0.56894,2.61912c0.0362,0.42566 0.05652,0.85254 0.06088,1.27972c-0.55984,0.61982 -1.3396,1.10468 -2.33931,1.45457c-0.77136,0.26632 -1.57404,0.43134 -2.3879,0.49094c-0.29316,0.02278 -0.58709,0.03408 -0.88113,0.03389c-1.06592,0.00846 -2.12845,-0.12119 -3.16107,-0.38569c-1.33842,-0.34411 -2.58392,-0.98058 -3.64692,-1.86364c-0.50012,-0.41572 -0.92674,-0.91261 -1.26202,-1.46987c-0.22653,-0.3728 -0.42137,-0.76395 -0.58243,-1.16936c-0.18077,-0.45655 -0.33361,-0.92367 -0.45766,-1.3988c-0.22714,-0.85434 -0.40948,-1.83766 -0.54704,-2.94993c-0.00381,-0.80507 0.07407,-1.60844 0.23243,-2.39779c0.11673,-0.57426 0.28485,-1.13686 0.50236,-1.68101c0.25612,-0.65022 0.60001,-1.26231 1.0221,-1.81927c0.31795,-0.41566 0.68466,-0.79165 1.09228,-1.11986c0.43921,-0.36285 0.90286,-0.69503 1.38768,-0.9942c0.52164,-0.31911 1.04059,-0.57454 1.55685,-0.76627c0.0082,-0.00302 0.0164,-0.00602 0.02459,-0.00899c0.97971,-0.35989 2.10939,-0.53984 3.389,-0.53984c0.09189,-0.00008 0.18378,0.00131 0.27562,0.0042c0.08857,0.003 0.17125,0.0074 0.24803,0.0132c0.04546,0.00341 0.09085,0.00762 0.13616,0.0126c0.07317,0.00819 0.14625,0.01709 0.21924,0.02669c0.13136,0.01719 0.27821,0.03829 0.44058,0.06328c0.19893,0.03059 0.46237,0.07288 0.79026,0.12687c0.10648,0.0176 0.21295,0.03529 0.3194,0.05308c0.07998,0 0.16994,0.005 0.26992,0.015c0.09997,0.01 0.21993,0.015 0.35989,0.015l0.71979,0.17994c0.12602,0.03529 0.25338,0.06561 0.38179,0.09087c0.12336,0.024 0.23933,0.04069 0.34789,0.05009c0.06653,0.00585 0.13326,0.00887 0.20004,0.00899c0.04938,0 0.08517,0.02029 0.10737,0.06088c0.00507,0.0093 0.00928,0.01902 0.0126,0.0291c0.03999,0.01999 0.06498,0.04499 0.07498,0.07498c0.00527,0.01613 0.01252,0.03154 0.02159,0.04588c0.00673,0.01051 0.01457,0.02027 0.02339,0.0291c0.05418,0.07238 0.10846,0.11198 0.16285,0.11876c0.00566,0.00075 0.01137,0.00116 0.0171,0.00119h0.05997l0.05997,0.50984c0,0.05997 0.005,0.14995 0.015,0.26992c0.01,0.11997 0.02499,0.28992 0.04499,0.50984c0.0138,0.24753 0.02518,0.46896 0.0342,0.66431c0.00385,0.08346 0.00744,0.16694 0.01079,0.25044c0.00608,0.15029 0.01039,0.30067 0.01289,0.45107c0.00138,0.08457 0.00208,0.16914 0.0021,0.25372c0,0.49985 -0.03499,0.85975 -0.10496,1.07968c-0.06289,0.19867 -0.19621,0.36752 -0.37489,0.47476c-0.01963,0.01231 -0.03963,0.02402 -0.05997,0.03509l-2.00942,-0.26992h-0.3299c-0.17754,0 -0.28691,-0.0049 -0.3281,-0.01469c-0.0006,-0.00009 -0.00119,-0.0002 -0.0018,-0.00029c-0.03999,-0.01 -0.08498,-0.01999 -0.13495,-0.02999c-0.00714,-0.00137 -0.01435,-0.00238 -0.02159,-0.003c-0.05818,-0.00519 -0.17455,-0.0002 -0.3491,0.015c-0.0114,0.00097 -0.02279,0.00199 -0.0342,0.003l-0.02999,0.02999c-0.61982,0 -1.13467,0.35491 -1.54454,1.06469c-0.19898,0.35139 -0.34673,0.72939 -0.43877,1.12258c-0.11737,0.48186 -0.17606,1.0224 -0.17606,1.62162c-0.00098,0.3541 0.01063,0.70812 0.03479,1.06139c0.06438,0.89933 0.21774,1.58024 0.46007,2.0427c0.25926,0.499 0.71367,0.86827 1.25513,1.02c0.1535,0.04702 0.31043,0.082 0.46936,0.10467l0.98971,-0.11997c0.17801,-0.02334 0.35273,-0.06722 0.52065,-0.13076c0.14815,-0.05499 0.29922,-0.12557 0.45317,-0.21174c0.01031,-0.00574 0.02063,-0.01155 0.0309,-0.01739c0.12012,-0.06809 0.24277,-0.13161 0.36769,-0.19044c0.29851,-0.14176 0.6608,-0.28821 1.08688,-0.43937c0.20934,0.13316 0.31901,0.27552 0.32901,0.42708c0.00054,0.00759 0.00085,0.01518 0.00089,0.02279zM257.03222,190.81932h-1.10968c-0.23614,0.00008 -0.47228,-0.00181 -0.7084,-0.0057c-0.6674,-0.01119 -1.21104,-0.03929 -1.63092,-0.08426c-0.23281,-0.02446 -0.46454,-0.05837 -0.69459,-0.10166c-0.23673,-0.04499 -0.45757,-0.09907 -0.66251,-0.16226c-0.03763,-0.01155 -0.07512,-0.02356 -0.11246,-0.03599c-0.031,0.00032 -0.0619,-0.00372 -0.09177,-0.01199c-0.06888,-0.01916 -0.12413,-0.07062 -0.14815,-0.13796c-0.07998,-0.17994 -0.11997,-0.37989 -0.11997,-0.59982l-0.3299,-5.06851c-0.03999,-0.55984 -0.06997,-1.07968 -0.08998,-1.55955c-0.01999,-0.47986 -0.03499,-1.0047 -0.04499,-1.57454c-0.00389,-0.22843 -0.0069,-0.45685 -0.00899,-0.6853c-0.002,-0.20274 -0.0035,-0.41567 -0.0045,-0.63881c-0.00101,-0.23343 -0.00152,-0.46685 -0.00151,-0.70029v-0.86975l0.02999,-1.25963l0.05997,-1.49956l0.05997,-1.10968v-0.64481c-0.00007,-0.03154 0.00131,-0.06306 0.0042,-0.09447c0.0028,-0.03059 0.0072,-0.05898 0.0132,-0.08517c0.00347,-0.01529 0.00766,-0.03041 0.0126,-0.04528c-0.00036,-0.01426 0.00251,-0.02841 0.0084,-0.04139c0.01279,-0.02659 0.04028,-0.04229 0.08247,-0.04709c0.00966,-0.00104 0.01938,-0.00154 0.0291,-0.00151c0.14975,-0.0006 0.29824,-0.0274 0.43877,-0.07918c0.03415,-0.01238 0.06788,-0.026 0.10107,-0.04078h0.11997c0.01283,-0.0001 0.02564,-0.00091 0.03838,-0.0024c0.02539,-0.0028 0.05559,-0.008 0.09058,-0.0156c0.01706,-0.00375 0.03405,-0.00774 0.05098,-0.01199h0.16496c0.02043,-0.00005 0.04085,0.00096 0.06119,0.003c0.02059,0.002 0.03939,0.00519 0.05638,0.00961c0.01636,0.00411 0.03225,0.00995 0.04739,0.01739h4.22876h0.59982c0.09997,0 0.18994,0.01 0.26992,0.02999l0.92973,0.02999c0.23093,0.01919 0.40169,0.03848 0.51225,0.05789c0.0042,0.00069 0.0084,0.00138 0.0126,0.0021c0.10997,0.01999 0.19494,0.08998 0.25492,0.20993l0.23993,0.83975v1.97942c0.45987,-0.76637 1.27782,-1.56954 2.45388,-2.40949c0.0516,-0.03687 0.10337,-0.07346 0.15536,-0.10977c0.19857,-0.14653 0.4088,-0.27651 0.62862,-0.38868c0.25513,-0.12876 0.50784,-0.22013 0.75817,-0.27412c0.04732,-0.01028 0.09493,-0.01929 0.14276,-0.02698c0.49985,-0.07998 0.91974,-0.15995 1.25963,-0.23993c0.04066,-0.01024 0.08193,-0.01785 0.12357,-0.02279c0.0314,-0.0038 0.06198,-0.0057 0.09177,-0.0057c0.13992,-0.0024 0.27615,0.04489 0.38448,0.13345c0.15655,0.12717 0.23652,0.31651 0.23993,0.56804c0.00004,0.0056 0.00004,0.01119 0,0.01679c0.00029,0.57354 -0.00339,1.1471 -0.01109,1.72059c-0.0214,1.52475 -0.07368,2.66082 -0.15686,3.40819c-0.00382,0.03491 -0.00783,0.0698 -0.01199,0.10467c-0.01819,0.15316 -0.04128,0.3057 -0.06928,0.45737c-0.12777,0.68141 -0.32459,1.01381 -0.59054,0.99722c-0.22362,-0.01293 -0.44643,-0.03715 -0.66761,-0.07258c-0.16323,-0.02596 -0.32566,-0.05677 -0.48706,-0.09238c-0.40988,-0.08998 -0.88475,-0.13495 -1.42459,-0.13495c-0.32535,-0.00244 -0.64972,0.03616 -0.96542,0.11487c-0.39594,0.09888 -0.76686,0.27938 -1.08898,0.52995c-0.19802,0.1514 -0.37037,0.33366 -0.51046,0.53984c-0.20958,0.31515 -0.31912,0.68625 -0.3143,1.06469v7.49779c0.00006,0.01934 -0.00083,0.03865 -0.0027,0.05789c-0.0038,0.03838 -0.01188,0.06818 -0.02429,0.08936c-0.00751,0.01391 -0.01899,0.02531 -0.03299,0.03269c-0.00587,0.00636 -0.01046,0.01379 -0.0135,0.02189c-0.01099,0.0264 -0.01649,0.06908 -0.01649,0.12806c-0.0178,0.07158 -0.05959,0.11116 -0.12537,0.11876c-0.00817,0.00087 -0.01638,0.00128 -0.02459,0.00119c0.0011,0 0.00222,0.00009 0.0033,0.00029c0.01119,0.00221 -0.0126,0.0184 -0.07139,0.04858c-0.00728,0.00374 -0.01457,0.00744 -0.02189,0.01109l-0.14995,0.05997c-0.51744,-0.00049 -1.0348,0.01372 -1.55144,0.04258c-0.22286,0.0126 -0.4455,0.02839 -0.66791,0.04739zM325.68201,190.81932h-1.10968c-0.23614,0.00008 -0.47228,-0.00181 -0.7084,-0.0057c-0.6674,-0.01119 -1.21104,-0.03929 -1.63092,-0.08426c-0.23281,-0.02446 -0.46454,-0.05837 -0.69459,-0.10166c-0.23673,-0.04499 -0.45757,-0.09907 -0.66251,-0.16226c-0.03763,-0.01155 -0.07512,-0.02356 -0.11246,-0.03599c-0.031,0.00032 -0.0619,-0.00372 -0.09177,-0.01199c-0.06888,-0.01916 -0.12413,-0.07062 -0.14815,-0.13796c-0.07998,-0.17994 -0.11997,-0.37989 -0.11997,-0.59982l-0.3299,-5.06851c-0.03999,-0.55984 -0.06997,-1.07968 -0.08998,-1.55955c-0.01999,-0.47986 -0.03499,-1.0047 -0.04499,-1.57454c-0.00389,-0.22843 -0.0069,-0.45685 -0.00899,-0.6853c-0.002,-0.20274 -0.0035,-0.41567 -0.0045,-0.63881c-0.00101,-0.23343 -0.00152,-0.46685 -0.00151,-0.70029v-0.86975l0.02999,-1.25963l0.05997,-1.49956l0.05997,-1.10968v-0.64481c-0.00007,-0.03154 0.00131,-0.06306 0.0042,-0.09447c0.0028,-0.03059 0.0072,-0.05898 0.0132,-0.08517c0.00347,-0.01529 0.00766,-0.03041 0.0126,-0.04528c-0.00036,-0.01426 0.00251,-0.02841 0.0084,-0.04139c0.01279,-0.02659 0.04028,-0.04229 0.08247,-0.04709c0.00966,-0.00104 0.01938,-0.00154 0.0291,-0.00151c0.14975,-0.0006 0.29824,-0.0274 0.43877,-0.07918c0.03415,-0.01238 0.06788,-0.026 0.10107,-0.04078h0.11997c0.01283,-0.0001 0.02564,-0.00091 0.03838,-0.0024c0.02539,-0.0028 0.05559,-0.008 0.09058,-0.0156c0.01706,-0.00375 0.03405,-0.00774 0.05098,-0.01199h0.16496c0.02043,-0.00005 0.04085,0.00096 0.06119,0.003c0.02059,0.002 0.03939,0.00519 0.05638,0.00961c0.01636,0.00411 0.03225,0.00995 0.04739,0.01739h4.22876h0.59982c0.09997,0 0.18994,0.01 0.26992,0.02999l0.92973,0.02999c0.23093,0.01919 0.40169,0.03848 0.51225,0.05789c0.0042,0.00069 0.0084,0.00138 0.0126,0.0021c0.10997,0.01999 0.19494,0.08998 0.25492,0.20993l0.23993,0.83975v1.97942c0.45987,-0.76637 1.27782,-1.56954 2.45388,-2.40949c0.0516,-0.03687 0.10337,-0.07346 0.15536,-0.10977c0.19857,-0.14653 0.4088,-0.27651 0.62862,-0.38868c0.25513,-0.12876 0.50784,-0.22013 0.75817,-0.27412c0.04732,-0.01028 0.09493,-0.01929 0.14276,-0.02698c0.49985,-0.07998 0.91974,-0.15995 1.25963,-0.23993c0.04066,-0.01024 0.08193,-0.01785 0.12357,-0.02279c0.0314,-0.0038 0.06198,-0.0057 0.09177,-0.0057c0.13992,-0.0024 0.27615,0.04489 0.38448,0.13345c0.15655,0.12717 0.23652,0.31651 0.23993,0.56804c0.00004,0.0056 0.00004,0.01119 0,0.01679c0.00029,0.57354 -0.00339,1.1471 -0.01109,1.72059c-0.0214,1.52475 -0.07368,2.66082 -0.15686,3.40819c-0.00382,0.03491 -0.00783,0.0698 -0.01199,0.10467c-0.01819,0.15316 -0.04128,0.3057 -0.06928,0.45737c-0.12777,0.68141 -0.32459,1.01381 -0.59054,0.99722c-0.22362,-0.01293 -0.44643,-0.03715 -0.66761,-0.07258c-0.16323,-0.02596 -0.32566,-0.05677 -0.48706,-0.09238c-0.40988,-0.08998 -0.88475,-0.13495 -1.42459,-0.13495c-0.32535,-0.00244 -0.64972,0.03616 -0.96542,0.11487c-0.39594,0.09888 -0.76686,0.27938 -1.08898,0.52995c-0.19802,0.1514 -0.37037,0.33366 -0.51046,0.53984c-0.20958,0.31515 -0.31912,0.68625 -0.3143,1.06469v7.49779c0.00006,0.01934 -0.00083,0.03865 -0.0027,0.05789c-0.0038,0.03838 -0.01188,0.06818 -0.02429,0.08936c-0.00751,0.01391 -0.01899,0.02531 -0.03299,0.03269c-0.00587,0.00636 -0.01046,0.01379 -0.0135,0.02189c-0.01099,0.0264 -0.01649,0.06908 -0.01649,0.12806c-0.0178,0.07158 -0.05959,0.11116 -0.12537,0.11876c-0.00817,0.00087 -0.01638,0.00128 -0.02459,0.00119c0.0011,0 0.00222,0.00009 0.0033,0.00029c0.01119,0.00221 -0.0126,0.0184 -0.07139,0.04858c-0.00728,0.00374 -0.01457,0.00744 -0.02189,0.01109l-0.14995,0.05997c-0.51744,-0.00049 -1.0348,0.01372 -1.55144,0.04258c-0.22286,0.0126 -0.4455,0.02839 -0.66791,0.04739zM381.61552,190.81932h-1.10968c-0.23614,0.00008 -0.47228,-0.00181 -0.7084,-0.0057c-0.6674,-0.01119 -1.21104,-0.03929 -1.63092,-0.08426c-0.23281,-0.02446 -0.46454,-0.05837 -0.69459,-0.10166c-0.23673,-0.04499 -0.45757,-0.09907 -0.66251,-0.16226c-0.03763,-0.01155 -0.07512,-0.02356 -0.11246,-0.03599c-0.031,0.00032 -0.0619,-0.00372 -0.09177,-0.01199c-0.06888,-0.01916 -0.12413,-0.07062 -0.14815,-0.13796c-0.07998,-0.17994 -0.11997,-0.37989 -0.11997,-0.59982l-0.3299,-5.06851c-0.03999,-0.55984 -0.06997,-1.07968 -0.08998,-1.55955c-0.01999,-0.47986 -0.03499,-1.0047 -0.04499,-1.57454c-0.00389,-0.22843 -0.0069,-0.45685 -0.00899,-0.6853c-0.002,-0.20274 -0.0035,-0.41567 -0.0045,-0.63881c-0.00101,-0.23343 -0.00152,-0.46685 -0.00151,-0.70029v-0.86975l0.02999,-1.25963l0.05997,-1.49956l0.05997,-1.10968v-0.64481c-0.00007,-0.03154 0.00131,-0.06306 0.0042,-0.09447c0.0028,-0.03059 0.0072,-0.05898 0.0132,-0.08517c0.00347,-0.01529 0.00766,-0.03041 0.0126,-0.04528c-0.00036,-0.01426 0.00251,-0.02841 0.0084,-0.04139c0.01279,-0.02659 0.04028,-0.04229 0.08247,-0.04709c0.00966,-0.00104 0.01938,-0.00154 0.0291,-0.00151c0.14975,-0.0006 0.29824,-0.0274 0.43877,-0.07918c0.03415,-0.01238 0.06788,-0.026 0.10107,-0.04078h0.11997c0.01283,-0.0001 0.02564,-0.00091 0.03838,-0.0024c0.02539,-0.0028 0.05559,-0.008 0.09058,-0.0156c0.01706,-0.00375 0.03405,-0.00774 0.05098,-0.01199h0.16496c0.02043,-0.00005 0.04085,0.00096 0.06119,0.003c0.02059,0.002 0.03939,0.00519 0.05638,0.00961c0.01636,0.00411 0.03225,0.00995 0.04739,0.01739h4.22876h0.59982c0.09997,0 0.18994,0.01 0.26992,0.02999l0.92973,0.02999c0.23093,0.01919 0.40169,0.03848 0.51225,0.05789c0.0042,0.00069 0.0084,0.00138 0.0126,0.0021c0.10997,0.01999 0.19494,0.08998 0.25492,0.20993l0.23993,0.83975v1.97942c0.45987,-0.76637 1.27782,-1.56954 2.45388,-2.40949c0.0516,-0.03687 0.10337,-0.07346 0.15536,-0.10977c0.19857,-0.14653 0.4088,-0.27651 0.62862,-0.38868c0.25513,-0.12876 0.50784,-0.22013 0.75817,-0.27412c0.04732,-0.01028 0.09493,-0.01929 0.14276,-0.02698c0.49985,-0.07998 0.91974,-0.15995 1.25963,-0.23993c0.04066,-0.01024 0.08193,-0.01785 0.12357,-0.02279c0.0314,-0.0038 0.06198,-0.0057 0.09177,-0.0057c0.13992,-0.0024 0.27615,0.04489 0.38448,0.13345c0.15655,0.12717 0.23652,0.31651 0.23993,0.56804c0.00004,0.0056 0.00004,0.01119 0,0.01679c0.00029,0.57354 -0.00339,1.1471 -0.01109,1.72059c-0.0214,1.52475 -0.07368,2.66082 -0.15686,3.40819c-0.00382,0.03491 -0.00783,0.0698 -0.01199,0.10467c-0.01819,0.15316 -0.04128,0.3057 -0.06928,0.45737c-0.12777,0.68141 -0.32459,1.01381 -0.59054,0.99722c-0.22362,-0.01293 -0.44643,-0.03715 -0.66761,-0.07258c-0.16323,-0.02596 -0.32566,-0.05677 -0.48706,-0.09238c-0.40988,-0.08998 -0.88475,-0.13495 -1.42459,-0.13495c-0.32535,-0.00244 -0.64972,0.03616 -0.96542,0.11487c-0.39594,0.09888 -0.76686,0.27938 -1.08898,0.52995c-0.19802,0.1514 -0.37037,0.33366 -0.51046,0.53984c-0.20958,0.31515 -0.31912,0.68625 -0.3143,1.06469v7.49779c0.00006,0.01934 -0.00083,0.03865 -0.0027,0.05789c-0.0038,0.03838 -0.01188,0.06818 -0.02429,0.08936c-0.00751,0.01391 -0.01899,0.02531 -0.03299,0.03269c-0.00587,0.00636 -0.01046,0.01379 -0.0135,0.02189c-0.01099,0.0264 -0.01649,0.06908 -0.01649,0.12806c-0.0178,0.07158 -0.05959,0.11116 -0.12537,0.11876c-0.00817,0.00087 -0.01638,0.00128 -0.02459,0.00119c0.0011,0 0.00222,0.00009 0.0033,0.00029c0.01119,0.00221 -0.0126,0.0184 -0.07139,0.04858c-0.00728,0.00374 -0.01457,0.00744 -0.02189,0.01109l-0.14995,0.05997c-0.51744,-0.00049 -1.0348,0.01372 -1.55144,0.04258c-0.22286,0.0126 -0.4455,0.02839 -0.66791,0.04739zM309.96663,191.32917h-0.62981c-0.71271,-0.00102 -1.42484,-0.04055 -2.13328,-0.11846c-0.0487,-0.00534 -0.09739,-0.01083 -0.14607,-0.01649c-0.46952,-0.05369 -0.93754,-0.1197 -1.40358,-0.19794c-0.26277,-0.04432 -0.52473,-0.09332 -0.78577,-0.14696c-0.23229,-0.05754 -0.46211,-0.12458 -0.68889,-0.20094c-0.27552,-0.09337 -0.52574,-0.19634 -0.75067,-0.3089c-0.33282,-0.16807 -0.63813,-0.3858 -0.90543,-0.6457c-0.06509,-0.06267 -0.12822,-0.1274 -0.18924,-0.19403c-0.3299,-0.35989 -0.6848,-0.82975 -1.06469,-1.40959h-0.3299l-0.02999,-0.47986c-0.00562,0 -0.01126,-0.00051 -0.01679,-0.00151c-0.00619,-0.00099 -0.0117,-0.0027 -0.01649,-0.0051c-0.00433,-0.00214 -0.00827,-0.00497 -0.0117,-0.0084c-0.00312,-0.00298 -0.00677,-0.00532 -0.01079,-0.0069c-0.01199,-0.00481 -0.03059,-0.0075 -0.05578,-0.0081c-0.0028,-0.00003 -0.0056,-0.00003 -0.0084,0l-0.23993,-0.53984c-0.7815,-1.47929 -1.18671,-3.12827 -1.17985,-4.80129c0.00002,-0.15911 0.00341,-0.3182 0.0102,-0.47717c0.03366,-0.7133 0.11946,-1.42319 0.25673,-2.12397c0.15135,-0.75438 0.3638,-1.44367 0.63731,-2.06789c0.09701,-0.22195 0.20399,-0.43941 0.32061,-0.6517c0.39528,-0.70636 0.88808,-1.35353 1.46387,-1.92243c0.55024,-0.55224 1.19695,-1.07609 1.94013,-1.57154c0.1884,-0.11219 0.38409,-0.21167 0.58573,-0.29781c0.23053,-0.09757 0.45517,-0.16824 0.6739,-0.21204c0.39989,-0.07998 0.78976,-0.15995 1.16965,-0.23993c0.51984,0 1.08968,0.01 1.7095,0.02999c0.61982,0.01999 1.23963,0.02999 1.85945,0.02999h0.11997c0.00671,-0.00007 0.01341,0.00023 0.0201,0.00089c0.01339,0.0016 0.02339,0.00481 0.02999,0.00961c0.00641,0.00439 0.01014,0.01174 0.0099,0.01948c0.03188,-0.00616 0.06399,-0.01096 0.09627,-0.01439c0.09197,-0.0104 0.20983,-0.0156 0.3536,-0.0156c0.19994,0 0.39989,0.01 0.59982,0.02999c0.79959,0.05518 1.58396,0.24605 2.31952,0.56444c0.58512,0.25847 1.12773,0.6041 1.60933,1.0251c0.60385,0.53888 1.1283,1.16056 1.55775,1.84656c0.08376,0.13232 0.16436,0.26662 0.24173,0.40278c0.47673,0.84466 0.84293,1.74709 1.08958,2.68511c0.01721,0.06455 0.0339,0.12923 0.05009,0.19403c0.22408,0.89122 0.3376,1.80664 0.338,2.72559c-0.00004,0.1412 -0.00274,0.28238 -0.0081,0.42347c-0.01999,0.77976 -0.13495,1.50956 -0.34491,2.18936c-0.20993,0.67979 -0.42488,1.3696 -0.64481,2.06939c-0.18595,0.60534 -0.47467,1.17418 -0.85355,1.68161c-0.04434,0.06008 -0.08973,0.11936 -0.13616,0.17785c-0.37241,0.47418 -0.807,0.89604 -1.29202,1.25424c-0.08754,0.0641 -0.17675,0.12591 -0.26752,0.18534l-0.6598,0.41988c-0.00163,0.00165 -0.00334,0.00327 -0.0051,0.00481c-0.0164,0.014 -0.02469,0.00789 -0.02489,-0.01829c0,-0.0005 0,-0.00099 0,-0.00151c0.00005,-0.00216 -0.00036,-0.0043 -0.00119,-0.0063c-0.00779,-0.01719 -0.05738,0.01989 -0.14876,0.11128c-0.03812,0.03849 -0.09009,0.0601 -0.14426,0.05997c-0.0019,0.00002 -0.0038,0.00002 -0.0057,0c-0.07418,0.05559 -0.23434,0.08538 -0.48045,0.08936c-0.01979,0.00036 -0.0396,0.00055 -0.05938,0.0006h-0.17994c-0.44288,0.13504 -0.88284,0.27944 -1.3196,0.43308c-0.03001,0.01055 -0.05999,0.02116 -0.08998,0.03179c-0.47986,0.16994 -0.88974,0.17495 -1.22963,0.015c-0.03548,-0.01801 -0.07265,-0.03248 -0.11096,-0.04319c-0.08038,-0.02179 -0.15835,-0.02239 -0.23392,-0.0018c-0.10097,0.02759 -0.17244,0.04249 -0.21444,0.0447c-0.0035,0.00019 -0.00698,0.00029 -0.0105,0.00029zM200.31893,190.72935l-0.68979,0.11997l-0.71979,-0.08998l-1.3796,-0.14995l-0.41988,0.02999h-1.04969c-0.01939,-0.07798 -0.07687,-0.11797 -0.17244,-0.11997c-0.0025,-0.00003 -0.005,-0.00003 -0.0075,0l-0.41988,0.02999c-0.13995,0.01999 -0.27491,0.03999 -0.40488,0.05997c-0.12997,0.01999 -0.22493,0.02999 -0.28491,0.02999c-0.03999,-0.03999 -0.10997,-0.06997 -0.20993,-0.08998h-0.14995c0,-0.0178 -0.0158,-0.02768 -0.04739,-0.02969c-0.00419,-0.00023 -0.0084,-0.00032 -0.0126,-0.00029l-0.08998,0.02999l-0.02999,0.02999c-0.06743,0.00046 -0.13478,-0.00506 -0.20124,-0.01649c-0.17195,-0.03078 -0.29481,-0.10527 -0.36859,-0.22343c-0.03097,-0.05507 -0.05726,-0.11266 -0.07857,-0.17215c-0.04199,-0.11496 -0.07577,-0.25253 -0.10137,-0.41268c-0.01245,-0.07982 -0.02214,-0.16004 -0.0291,-0.24053c-0.0158,-0.17615 -0.02551,-0.39019 -0.0291,-0.64211c-0.00119,-0.08067 -0.00179,-0.16134 -0.0018,-0.24203c0.0184,-0.12836 0.02409,-0.27342 0.0171,-0.43517c-0.00061,-0.0149 -0.00131,-0.0298 -0.0021,-0.0447c-0.01,-0.17994 -0.03499,-0.46986 -0.07498,-0.86975l-0.08998,-1.22963v-8.4875c0.00012,-0.30995 -0.00428,-0.61989 -0.0132,-0.92973c-0.00058,-0.02 -0.00118,-0.03999 -0.0018,-0.05997c-0.0068,-0.21993 -0.02079,-0.47297 -0.04199,-0.75907c-0.01008,-0.13693 -0.02108,-0.27379 -0.03299,-0.41058c-0.00903,-0.08288 -0.02102,-0.16541 -0.03599,-0.24742c-0.0148,-0.08017 -0.0322,-0.15536 -0.05218,-0.22553c-0.0006,-0.0023 -0.00119,-0.00461 -0.0018,-0.0069c-0.00529,-0.00591 -0.00926,-0.01285 -0.0117,-0.0204c-0.01221,-0.03258 -0.01829,-0.09577 -0.01829,-0.18955c0.03999,-0.79976 0.21493,-1.33461 0.52485,-1.60453c0.30992,-0.26992 0.90473,-0.40488 1.78448,-0.40488l0.17994,-0.05997c0.05997,-0.01999 0.12997,-0.02999 0.20993,-0.02999h0.02999c0.0166,0 0.03319,0.0069 0.0498,0.0207c0.00354,0.00293 0.00694,0.00605 0.0102,0.00929c0.17994,0 0.28992,0.01999 0.3299,0.05997h0.11997c0.07662,0.0004 0.15019,-0.02997 0.20424,-0.08426c0.00193,-0.00187 0.00381,-0.00378 0.0057,-0.0057l2.24933,0.02999c0.07998,0 0.16994,-0.005 0.26992,-0.015c0.04033,-0.00411 0.08062,-0.00861 0.12086,-0.0135c0.03599,-0.0042 0.07389,-0.0089 0.11366,-0.01409c0.04182,-0.00559 0.0836,-0.01138 0.12537,-0.01739c0.03273,-0.00516 0.06565,-0.00906 0.09868,-0.0117c0.14176,-0.01221 0.36879,-0.01829 0.68109,-0.01829c0.91974,0 1.3796,0.15995 1.3796,0.47986v4.61864c0,0.67979 -0.01,1.43958 -0.02999,2.27934c-0.01999,0.83975 -0.03999,1.62952 -0.05997,2.3693c-0.00465,0.17498 -0.01025,0.34992 -0.01679,0.52485c-0.01439,0.37889 -0.03209,0.705 -0.05308,0.97831c-0.00597,0.07883 -0.01268,0.15762 -0.0201,0.23632l-0.08998,1.22963c-0.01429,0.2422 -0.02789,0.48442 -0.04078,0.72669c-0.0202,0.38288 -0.03659,0.73048 -0.04918,1.0428c-0.0178,0.44706 -0.03568,0.82216 -0.05369,1.12527c-0.00204,0.03479 -0.00415,0.06958 -0.0063,0.10437c-0.01939,0.01939 -0.02939,0.06228 -0.02999,0.12867c-0.00001,0.0021 -0.00001,0.0042 0,0.0063v0.52485c0,0.53984 -0.06997,0.97472 -0.20993,1.30461c-0.13995,0.3299 -0.3299,0.49486 -0.56984,0.49486zM196.83994,170.42531h-0.44987l-0.17994,-0.08998c0,-0.03999 -0.01999,-0.05997 -0.05997,-0.05997c-0.01301,0 -0.02603,0.0006 -0.03899,0.0018c-0.02539,0.00221 -0.04579,0.00699 -0.06119,0.01439c-0.00733,0.00347 -0.01402,0.00812 -0.01979,0.0138c-0.01619,0.01619 -0.04559,0.0258 -0.08818,0.0288c-0.01057,0.00077 -0.02119,0.00118 -0.03179,0.00119l-0.26992,0.05997l-0.20993,-0.05997c-0.01301,0.00009 -0.02603,-0.0004 -0.03899,-0.00151c-0.02539,-0.0024 -0.04579,-0.00731 -0.06119,-0.01469c-0.00733,-0.00347 -0.01402,-0.00812 -0.01979,-0.0138c-0.01619,-0.01619 -0.04559,-0.0258 -0.08818,-0.0288c-0.01057,-0.00077 -0.02119,-0.00118 -0.03179,-0.00119l-0.68979,-0.08998l-0.20993,-0.08998h-0.14995c0,0.03999 -0.01999,0.05997 -0.05997,0.05997c-0.0282,0.00002 -0.05639,-0.00048 -0.08459,-0.00151c-0.07798,-0.0028 -0.13415,-0.01 -0.16856,-0.02159c-0.00574,-0.00191 -0.01136,-0.00421 -0.01679,-0.0069c-0.00636,-0.00587 -0.01379,-0.01046 -0.02189,-0.0135c-0.0264,-0.01099 -0.06908,-0.01649 -0.12806,-0.01649c-0.11062,-0.06998 -0.19961,-0.16936 -0.25702,-0.28702c-0.03075,-0.06165 -0.05517,-0.12626 -0.07288,-0.19285c-0.01562,-0.03154 -0.02529,-0.06572 -0.02849,-0.10078c-0.00106,-0.01136 -0.00155,-0.02278 -0.00151,-0.0342c0.00007,-0.01162 -0.00051,-0.02324 -0.0018,-0.03479c-0.003,-0.0256 -0.00971,-0.04569 -0.0201,-0.06029c-0.0024,-0.00354 -0.00511,-0.00685 -0.0081,-0.0099c-0.01922,-0.01901 -0.03003,-0.04495 -0.02999,-0.07198c-0.00001,-0.00099 -0.00001,-0.002 0,-0.003c0.00014,-0.01351 -0.00222,-0.02692 -0.0069,-0.0396c-0.00508,-0.01332 -0.01295,-0.02538 -0.0231,-0.03539v-2.84915c0.01999,-0.07998 0.02999,-0.19994 0.02999,-0.35989v-0.77976c0.0001,-0.0591 -0.00108,-0.11821 -0.00359,-0.17725c-0.0074,-0.16455 -0.02589,-0.28461 -0.05549,-0.36019c-0.00029,-0.0008 -0.0006,-0.0016 -0.00089,-0.0024v-0.05997c0,-0.01698 0.06438,-0.03389 0.19314,-0.05069c0.02556,-0.00335 0.05116,-0.00645 0.07678,-0.00929c0.10825,-0.01218 0.21688,-0.02077 0.32572,-0.0258c0.06134,-0.00277 0.12275,-0.00417 0.18415,-0.0042h0.31492c0.01162,-0.00007 0.02324,0.00051 0.03479,0.0018c0.0256,0.003 0.04569,0.00971 0.06029,0.0201c0.00354,0.0024 0.00685,0.00511 0.0099,0.0081h0.41988l0.59982,0.05997l0.56984,0.17994c0.11476,0.0164 0.31041,0.03948 0.58692,0.06928c0.06427,0.00698 0.12855,0.01388 0.19285,0.0207c0.37989,0.03999 0.60982,0.05997 0.68979,0.05997c0.02644,0.00021 0.05286,0.0016 0.07918,0.0042c0.11056,0.0104 0.27912,0.03899 0.50565,0.08577c0.28172,0.05818 0.46426,0.07867 0.54764,0.06148c0.00241,-0.00045 0.00482,-0.00095 0.0072,-0.00151c0.09997,-0.01999 0.19994,0.015 0.29992,0.10496c0.02522,0.02286 0.05187,0.0441 0.07978,0.06357c0.06159,0.04278 0.11896,0.06638 0.17215,0.07078c0.00598,0.00045 0.01199,0.00065 0.018,0.0006c0.35989,-0.05997 0.72979,-0.01 1.10968,0.14995c0.07809,0.02843 0.15636,0.05632 0.23483,0.08368c0.06159,0.0214 0.12036,0.04139 0.17635,0.05997c0.05273,0.01757 0.10562,0.03466 0.15865,0.05128c0.04706,0.01404 0.09146,0.03584 0.13136,0.06449c0.07078,0.05198 0.11527,0.12467 0.13345,0.21803c0.00206,0.01074 0.00377,0.02154 0.0051,0.03239l0.02999,0.92973c0.01999,0.57984 0.06498,1.05469 0.13495,1.42459c0.01607,0.08673 0.02779,0.17422 0.03509,0.26212c0.02438,0.28151 0.01649,0.62112 -0.02369,1.01881c-0.00788,0.07798 -0.01667,0.15586 -0.0264,0.23363l-0.20993,0.20993l-2.54925,0.23993c-0.12236,0 -0.27701,0.00289 -0.46396,0.00869c-0.06029,0.00194 -0.12057,0.00403 -0.18085,0.0063c-0.26992,0.01 -0.43487,0.02499 -0.49486,0.04499c-0.07998,0.01999 -0.15995,0.02999 -0.23993,0.02999zM309.87665,187.70023l0.50984,-1.10968c0.01999,-0.05997 0.03999,-0.12496 0.05997,-0.19494c0.01588,-0.05644 0.02544,-0.11448 0.02849,-0.17305c0.00098,-0.01729 0.00149,-0.03458 0.00151,-0.05188l0.20993,-0.35989v-0.6598c0.08838,-0.15742 0.15498,-0.3261 0.19794,-0.50145c0.00426,-0.01774 0.00825,-0.03554 0.01199,-0.05339c0.01173,-0.05618 0.02293,-0.11246 0.03359,-0.16885c0.03359,-0.17615 0.07618,-0.41767 0.12777,-0.72459c0.00622,-0.03709 0.01243,-0.07417 0.01859,-0.11128v-0.50984l0.02999,-0.53984l-0.53984,-4.0788c-0.02146,-0.1783 -0.0525,-0.35528 -0.09297,-0.53024c-0.08298,-0.3509 -0.19824,-0.61302 -0.3458,-0.78637c-0.10063,-0.12596 -0.24276,-0.21206 -0.40099,-0.24293c-0.04444,-0.00797 -0.08872,-0.01666 -0.13287,-0.02609c-0.12017,-0.026 -0.20653,-0.05198 -0.25913,-0.07798c-0.00963,-0.00469 -0.01894,-0.01 -0.02789,-0.01589c-0.02014,-0.0131 -0.04154,-0.02414 -0.06389,-0.03299c-0.04519,-0.0184 -0.10186,-0.0338 -0.17005,-0.04618c-0.02192,-0.00403 -0.04392,-0.00764 -0.06598,-0.01079c-0.05519,-0.0184 -0.14436,-0.04528 -0.26752,-0.08067c-0.01079,-0.00311 -0.02159,-0.0062 -0.03239,-0.00929c-0.12956,-0.03699 -0.25902,-0.0055 -0.38839,0.09447c-0.01072,0.00823 -0.02121,0.01672 -0.03149,0.02551c-0.21993,0.35989 -0.40488,0.82975 -0.55483,1.40959c-0.08166,0.3123 -0.14237,0.62973 -0.18174,0.95012c-0.02833,0.23207 -0.04275,0.46561 -0.04319,0.69939v0.89974v1.04969c0,0.51984 0.01999,1.06469 0.05997,1.63452c0.01368,0.19982 0.03279,0.39924 0.05728,0.59802c0.0232,0.18574 0.05059,0.35839 0.08218,0.51795c0.02029,0.10357 0.0438,0.20649 0.07047,0.30861c0.02026,0.06459 0.04026,0.12927 0.05997,0.19403c0.04918,0.16255 0.08417,0.28582 0.10496,0.36979c0.00548,0.02187 0.01048,0.04388 0.015,0.06598c0.0182,0.09117 0.02809,0.17404 0.02969,0.24863c0.00018,0.0071 0.00028,0.01419 0.00029,0.0213c0,0.75978 0.25992,1.3396 0.77976,1.73949c0,0.21993 0.16994,0.3299 0.50984,0.3299c0.09302,-0.00017 0.18595,-0.00577 0.27833,-0.01679c0.03227,-0.00382 0.06446,-0.00823 0.09657,-0.0132c0.02239,-0.00347 0.04478,-0.00686 0.06719,-0.0102c0.08898,-0.0132 0.14156,-0.01979 0.15775,-0.01979zM346.67581,180.89224l-0.02999,-0.17994c-0.00716,-0.04282 -0.01396,-0.08572 -0.0204,-0.12867c-0.0102,-0.06798 -0.0184,-0.13006 -0.02459,-0.18625c-0.0072,-0.06478 -0.01179,-0.12176 -0.0138,-0.17095c-0.00076,-0.01799 -0.00117,-0.03599 -0.00119,-0.05398c-0.01451,-0.24548 -0.05146,-0.48912 -0.11037,-0.72788c-0.03266,-0.1338 -0.07086,-0.26617 -0.11457,-0.39678c-0.06797,-0.20663 -0.15429,-0.40676 -0.25792,-0.59802c-0.07758,-0.14271 -0.16686,-0.27873 -0.26693,-0.40668c-0.10303,-0.13512 -0.23638,-0.24412 -0.38928,-0.31821c-0.14316,-0.06778 -0.30331,-0.10166 -0.48045,-0.10166c-0.20015,0 -0.37969,0.14916 -0.53865,0.44747c-0.01613,0.03042 -0.03153,0.06121 -0.04618,0.09238c-0.0515,0.11148 -0.09705,0.22561 -0.13646,0.3419c-0.12675,0.3657 -0.25623,0.87155 -0.38839,1.51755c-0.03999,0.17994 -0.05499,0.42988 -0.04499,0.74978c0.00709,0.22925 0.01729,0.45841 0.03059,0.6874c0.0044,0.0758 0.0092,0.15158 0.01439,0.22733c0.01719,0.24933 0.0196,0.43578 0.0072,0.55934c-0.00179,0.01857 -0.00419,0.03707 -0.0072,0.05549c0.00688,0.06969 0.01269,0.13947 0.01739,0.20934c0.0098,0.14595 0.018,0.31801 0.02459,0.51615c0.00107,0.03309 0.00207,0.06619 0.003,0.09927c0.00706,0.25431 0.02016,0.50841 0.03929,0.76208c0.00619,0.08093 0.0131,0.16182 0.0207,0.24263c0.02999,0.3199 0.06498,0.56984 0.10496,0.74978c0,0.53984 0.14995,0.83475 0.44987,0.88475c0.07187,0.01176 0.14437,0.01927 0.21713,0.02249c0.25593,0.01199 0.55344,-0.0205 0.89254,-0.09747c0.04392,-0.01561 0.08437,-0.03965 0.11906,-0.07078c0.07757,-0.06678 0.15285,-0.17316 0.22583,-0.31911c0.10997,-0.21993 0.20494,-0.46986 0.28491,-0.74978c0.04171,-0.1472 0.07773,-0.29598 0.10797,-0.44598c0.03078,-0.15116 0.05818,-0.31111 0.08218,-0.47986c0.00162,-0.0113 0.00322,-0.02258 0.00481,-0.03389c0.04998,-0.35989 0.07498,-0.73978 0.07498,-1.13966c0.05997,-0.21993 0.09997,-0.45486 0.11997,-0.70479c0.00982,-0.1247 0.01703,-0.24958 0.02159,-0.37459c0.0056,-0.15016 0.0084,-0.31021 0.0084,-0.48015zM235.31861,191.5391h-0.77976c-0.01879,-0.01879 -0.09957,-0.03759 -0.24233,-0.05638c-0.00919,-0.00124 -0.01839,-0.00244 -0.02759,-0.00359c-0.15995,-0.01999 -0.3299,-0.03999 -0.50984,-0.05997c-0.20574,-0.03739 -0.28901,-0.06168 -0.24982,-0.07288c0.00326,-0.00088 0.00656,-0.00158 0.0099,-0.0021c0.00351,-0.00059 0.00699,-0.00119 0.0105,-0.0018c0.04239,-0.0074 -0.01109,-0.0018 -0.16045,0.01679c-0.23933,-0.0184 -0.41508,-0.03679 -0.52724,-0.05519c-0.00921,-0.00153 -0.01841,-0.00312 -0.02759,-0.00481c-0.10997,-0.01999 -0.20993,-0.03999 -0.29992,-0.05997c-0.08916,-0.01979 -0.24233,-0.0396 -0.45946,-0.05938c-0.0018,-0.0002 -0.00359,-0.0004 -0.00539,-0.0006c-0.24273,-0.01859 -0.51585,-0.03729 -0.81936,-0.05608c-0.02179,-0.00131 -0.04358,-0.00261 -0.06538,-0.00389c-0.06667,-0.00405 -0.13335,-0.00796 -0.20004,-0.0117c-0.21833,-0.01221 -0.36659,-0.01829 -0.44477,-0.01829c-0.13056,0 -0.20784,0.0067 -0.23184,0.0201c-0.0043,0.00158 -0.0074,0.00537 -0.0081,0.0099c-0.00018,0.00572 -0.00118,0.01137 -0.003,0.01679c-0.00539,0.01739 -0.018,0.04189 -0.03779,0.07347c-0.00624,0.01 -0.01264,0.01989 -0.01919,0.02969l-0.11997,0.23993c-0.04581,0.09295 -0.07437,0.19346 -0.08426,0.29662c-0.01698,0.16134 0.00369,0.3431 0.06209,0.54524c0.00698,0.02441 0.01439,0.04871 0.0222,0.07288c0.0483,0.15251 0.11443,0.29879 0.19705,0.43578c0.09739,0.16143 0.22378,0.30348 0.37279,0.41898c0.29752,0.22754 0.68289,0.3708 1.15616,0.42978c0.06928,0.00859 0.13879,0.01529 0.20845,0.0201c0.08337,0.00573 0.16687,0.00953 0.25044,0.0114c0.38309,0.00919 0.84875,-0.01469 1.39699,-0.07168c0.2461,-0.02586 0.49176,-0.05575 0.73688,-0.08968c0.67979,-0.13995 1.20965,-0.34491 1.58953,-0.61482c0.37989,-0.26992 0.55984,-0.52984 0.53984,-0.77976c-0.01016,-0.10686 -0.06604,-0.20407 -0.15325,-0.26662c-0.09676,-0.07658 -0.23873,-0.13766 -0.42587,-0.18324c-0.07619,-0.01829 -0.15314,-0.03331 -0.23063,-0.04499c-0.02232,-0.00444 -0.04461,-0.00903 -0.06687,-0.0138c-0.15415,-0.03319 -0.22684,-0.05858 -0.21803,-0.07618c0.00061,-0.00123 0.00102,-0.00254 0.00119,-0.00389c0.0026,-0.01739 -0.04278,-0.02609 -0.13616,-0.02609zM232.82934,180.83226l0.59982,-0.02999l0.53984,-0.47986l0.14995,-0.08998l0.17994,-0.41988v-0.26992c0.02404,-0.06008 0.04704,-0.12056 0.06899,-0.18145c0.01242,-0.03434 0.0244,-0.06883 0.03599,-0.10347c0.01049,-0.03108 0.02229,-0.0617 0.03539,-0.09177c0.0314,-0.07258 0.07458,-0.15696 0.12956,-0.25313v-0.11997l0.02999,-0.20993l-0.77976,-1.91943c-0.01784,-0.07812 -0.04232,-0.15458 -0.07318,-0.22853c-0.0322,-0.07597 -0.07008,-0.14085 -0.11366,-0.19465c-0.06638,-0.08566 -0.15862,-0.1476 -0.26302,-0.17664c-0.0521,-0.0104 -0.10408,-0.02129 -0.15595,-0.03269c-0.20674,-0.04559 -0.33459,-0.08459 -0.38358,-0.11697c-0.00009,-0.00009 -0.0002,-0.0002 -0.00029,-0.00029c-0.01883,-0.01195 -0.03921,-0.02122 -0.06059,-0.02759c-0.06438,-0.02059 -0.15835,-0.0314 -0.28192,-0.03239c-0.0058,-0.00002 -0.01159,-0.00002 -0.01739,0c-0.01184,0.00012 -0.02366,0.00102 -0.03539,0.0027c-0.03719,0.00519 -0.08827,0.01719 -0.15325,0.03599c-0.00711,0.00207 -0.0142,0.00417 -0.0213,0.0063c-0.06879,0.02059 -0.14696,0.04358 -0.23453,0.06899c-0.04177,0.01206 -0.08356,0.02406 -0.12537,0.03599c-0.20962,0.13074 -0.39169,0.30118 -0.53593,0.50175c-0.20253,0.28833 -0.3038,0.63091 -0.3038,1.0278v0.23993c-0.00051,0.26207 0.01541,0.52389 0.04768,0.78396c0.008,0.06373 0.0171,0.12733 0.0273,0.19073c0.04918,0.30451 0.11277,0.50765 0.19073,0.60942c0.00138,0.00181 0.00279,0.00361 0.0042,0.00539c0.01941,0.02709 0.03763,0.055 0.05458,0.08368c0.05938,0.10078 0.08117,0.18284 0.06538,0.24623c-0.0158,0.06319 -0.02539,0.11386 -0.0288,0.15206c-0.0008,0.00927 -0.0012,0.01858 -0.00119,0.02789c-0.00229,0.15749 0.06684,0.30757 0.18804,0.40818c0.03039,0.02636 0.06278,0.05033 0.09687,0.07168c0.18994,0.11997 0.38489,0.23993 0.58482,0.35989c0.02899,0.02899 0.06858,0.05539 0.11876,0.07918c0.02003,0.00945 0.04044,0.01806 0.06119,0.0258c0.02132,0.00777 0.0433,0.01359 0.06569,0.01739c0.07518,0.01359 0.17325,0.01279 0.29422,-0.0024zM164.32952,184.97103l0.02999,-0.56984c0.00141,-0.02836 0.0021,-0.05677 0.0021,-0.08517c0,-0.31492 -0.08827,-0.61401 -0.26482,-0.89733c-0.03045,-0.04869 -0.06287,-0.09612 -0.09717,-0.14215c-0.25992,-0.3499 -0.53984,-0.51485 -0.83975,-0.49486c-0.33352,0.01682 -0.64776,0.16138 -0.87754,0.40368c-0.03381,0.03406 -0.06623,0.06949 -0.09717,0.10618c-0.11596,0.13477 -0.20732,0.28887 -0.26992,0.45526c-0.05519,0.15016 -0.08278,0.30741 -0.08278,0.47175c0.00005,0.05098 0.00267,0.10193 0.00779,0.15266l0.11997,1.13966c0.02816,0.10718 0.0614,0.21297 0.09957,0.317c0.14436,0.38848 0.32111,0.58274 0.53024,0.58274c0.25536,0.00454 0.50898,-0.04269 0.74558,-0.13887c0.48346,-0.20554 0.81475,-0.63911 0.99391,-1.30073zM274.33712,178.94281l1.97942,-0.02999l-0.08998,-0.89974l-0.08998,-0.56984l-0.11997,-0.62981c0.00006,-0.02095 -0.00112,-0.04188 -0.00359,-0.06267c-0.0058,-0.04779 -0.0189,-0.08588 -0.03929,-0.11426c-0.00069,-0.00101 -0.00138,-0.00201 -0.0021,-0.003c-0.02939,-0.03919 -0.05398,-0.09747 -0.07378,-0.17484c-0.00041,-0.00171 -0.00081,-0.00339 -0.00119,-0.0051l-0.29992,-0.20993c-0.11413,-0.03869 -0.23368,-0.05894 -0.35419,-0.05997c-0.0019,0 -0.0038,0 -0.0057,0c-0.04598,0 -0.09777,0.00289 -0.15536,0.00869c-0.01822,0.00188 -0.03642,0.00399 -0.05458,0.0063c-0.05129,0.0065 -0.09778,0.03344 -0.12896,0.07468c-0.01539,0.01899 -0.0291,0.04149 -0.04108,0.06748c-0.00351,0.00751 -0.00681,0.01511 -0.0099,0.02279c-0.03195,0.09773 -0.10536,0.1764 -0.20064,0.21504c-0.02249,0.00988 -0.04564,0.0182 -0.06928,0.02489c-0.04378,0.01466 -0.08152,0.04334 -0.10737,0.08157c-0.06978,0.09278 -0.12546,0.25943 -0.16705,0.49996c-0.00967,0.05589 -0.01818,0.112 -0.02551,0.16824c-0.04938,0.41207 -0.09548,0.74938 -0.13826,1.0119c-0.00848,0.05266 -0.01738,0.10524 -0.02669,0.15775c-0.04998,0.27992 0.02499,0.41988 0.22493,0.41988zM365.63023,178.94281l1.97942,-0.02999l-0.08998,-0.89974l-0.08998,-0.56984l-0.11997,-0.62981c0.00006,-0.02095 -0.00112,-0.04188 -0.00359,-0.06267c-0.0058,-0.04779 -0.0189,-0.08588 -0.03929,-0.11426c-0.00069,-0.00101 -0.00138,-0.00201 -0.0021,-0.003c-0.02939,-0.03919 -0.05398,-0.09747 -0.07378,-0.17484c-0.00041,-0.00171 -0.00081,-0.00339 -0.00119,-0.0051l-0.29992,-0.20993c-0.11413,-0.03869 -0.23368,-0.05894 -0.35419,-0.05997c-0.0019,0 -0.0038,0 -0.0057,0c-0.04598,0 -0.09777,0.00289 -0.15536,0.00869c-0.01822,0.00188 -0.03642,0.00399 -0.05458,0.0063c-0.05129,0.0065 -0.09778,0.03344 -0.12896,0.07468c-0.01539,0.01899 -0.0291,0.04149 -0.04108,0.06748c-0.00351,0.00751 -0.00681,0.01511 -0.0099,0.02279c-0.03195,0.09773 -0.10536,0.1764 -0.20064,0.21504c-0.02249,0.00988 -0.04564,0.0182 -0.06928,0.02489c-0.04378,0.01466 -0.08152,0.04334 -0.10737,0.08157c-0.06978,0.09278 -0.12546,0.25943 -0.16705,0.49996c-0.00967,0.05589 -0.01818,0.112 -0.02551,0.16824c-0.04938,0.41207 -0.09548,0.74938 -0.13826,1.0119c-0.00848,0.05266 -0.01738,0.10524 -0.02669,0.15775c-0.04998,0.27992 0.02499,0.41988 0.22493,0.41988z" fill="#000000" fill-rule="evenodd" stroke="#000000" stroke-width="0.25" stroke-linecap="round"/><g fill-rule="nonzero"><path d="M71.62163,174.49868z" fill="#fff800" stroke="none" stroke-width="0" stroke-linecap="butt"/><g><g data-paper-data="{&quot;index&quot;:null}" stroke="none" stroke-width="0" stroke-linecap="butt"><path d="M102.12047,201.66532l-14.75807,-33.59349l10.46351,-4.59676l14.75807,33.59349z" fill="#ff0000"/><path d="M105.99463,199.84605l-14.69778,-33.45624l3.4382,-1.51045l14.69778,33.45624z" fill="#ffffff"/></g><g stroke="none" stroke-width="0" stroke-linecap="butt"><path d="M84.62793,196.69568l14.75807,-33.59349l10.46351,4.59676l-14.75807,33.59349z" fill="#ff0000"/><path d="M87.77906,197.96273l14.69778,-33.45624l3.4382,1.51045l-14.69778,33.45624z" fill="#ffffff"/></g><path d="M83.70003,165.40208c1.18896,-1.70309 3.81604,-2.04431 3.81604,-2.04431c0,0 3.74022,-4.31997 6.54179,-4.90634c2.80157,-0.58638 11.03927,1.22658 11.03927,1.22658c0,0 4.41756,-0.24974 7.08694,1.49916c2.66938,1.7489 4.77005,6.26921 4.77005,6.26921c0,0 3.16454,3.7978 3.40718,7.08694c0.24264,3.28914 -2.1806,9.5401 -2.1806,9.5401c0,0 0.07844,4.98417 -2.04431,7.22322c-2.12274,2.23906 -7.90466,3.2709 -7.90466,3.2709c0,0 -3.535,2.61986 -5.99664,2.72574c-2.46164,0.10587 -6.67807,-2.18059 -6.67807,-2.18059c0,0 -4.50351,0.70149 -6.81436,-0.54515c-2.31085,-1.24665 -3.54347,-5.04263 -3.54347,-5.04263c0,0 -2.91198,-0.78134 -4.36119,-3.67976c-1.44921,-2.89842 0,-5.04263 0,-5.04263c0,0 -1.75279,-2.46939 -1.36288,-4.90634c0.38991,-2.43695 2.99832,-5.3152 2.99832,-5.3152c0,0 0.03763,-3.47582 1.22658,-5.17891z" fill="#c6c6c6" stroke="none" stroke-width="0" stroke-linecap="round"/><path d="M82.41512,177.2072c0,-9.09649 7.83686,-16.47065 17.50413,-16.47065c9.66727,0 17.50414,7.37416 17.50414,16.47065c0,9.09649 -7.83687,16.47065 -17.50414,16.47065c-9.66727,0 -17.50414,-7.37416 -17.50414,-16.47065z" fill="#9f9f9f" stroke="none" stroke-width="0" stroke-linecap="butt"/><path d="M87.30064,183.62307c0,0 -0.62147,-3.71947 -0.62147,-5.64417c0,-2.01539 0.62147,-6.1886 0.62147,-6.1886c0,0 2.53431,1.81714 3.61195,2.74083c0.93094,0.79795 2.47845,2.4795 2.47845,2.4795c0,0 2.03011,-2.53703 3.06848,-3.63649c0.91919,-0.97326 2.8479,-2.62792 2.8479,-2.62792c0,0 1.90722,1.97664 2.76025,3.05715c0.88585,1.12207 2.46009,3.55529 2.46009,3.55529c0,0 2.16336,-1.71563 3.41072,-2.44778c1.40257,-0.82324 4.59381,-2.25052 4.59381,-2.25052c0,0 0.74126,4.12174 0.68096,6.05119c-0.05527,1.76882 -1.02897,5.08553 -1.02897,5.08553c0,0 -8.62086,0.569 -12.59496,0.54121c-4.29544,-0.03004 -12.28867,-0.71523 -12.28867,-0.71523z" fill="#c6c6c6" stroke="#c6c6c6" stroke-width="0.25" stroke-linecap="round"/></g></g></g></g></svg>