<svg version="1.1" xmlns="http://www.w3.org/2000/svg" xmlns:xlink="http://www.w3.org/1999/xlink" width="472.33666" height="362.9143" viewBox="0,0,472.33666,362.9143"><g transform="translate(-1.00303,1.23156)"><g data-paper-data="{&quot;isPaintingLayer&quot;:true}" stroke-linejoin="miter" stroke-miterlimit="10" stroke-dasharray="" stroke-dashoffset="0" style="mix-blend-mode: normal"><path d="M196.33969,45.77183v273.15754c0,22.57858 -3.86641,40.75338 -8.66972,40.75338h-175.99722c-4.80327,0 -8.66972,-18.1748 -8.66972,-40.75338v-273.15754c0,-22.57858 3.86641,-40.75338 8.66972,-40.75338h175.99722c4.80327,0 8.66972,18.1748 8.66972,40.75338z" fill-opacity="0.68575" fill="#e0ff56" fill-rule="nonzero" stroke="#d2ff00" stroke-width="4" stroke-linecap="butt"/><path d="M186.57992,13.14882v15.40355c0,1.27322 -3.47605,2.29811 -7.79441,2.29811h-158.22831c-4.31833,0 -7.79441,-1.02489 -7.79441,-2.29811v-15.40355c0,-1.27322 3.47605,-2.29811 7.79441,-2.29811h158.22831c4.31833,0 7.79441,1.02489 7.79441,2.29811z" fill="#57ff78" fill-rule="nonzero" stroke="#00ff33" stroke-width="2" stroke-linecap="butt"/><path d="M186.57992,36.14882v15.40355c0,1.27322 -3.47605,2.29811 -7.79442,2.29811h-158.22831c-4.31833,0 -7.79441,-1.02489 -7.79441,-2.29811v-15.40355c0,-1.27322 3.47605,-2.29811 7.79441,-2.29811h158.22832c4.31833,0 7.79442,1.02489 7.79442,2.29811z" fill="#57ff78" fill-rule="nonzero" stroke="#00ff33" stroke-width="2" stroke-linecap="butt"/><path d="M186.57992,59.14882v15.40355c0,1.27322 -3.47605,2.29811 -7.79442,2.29811h-158.22831c-4.31833,0 -7.79441,-1.02489 -7.79441,-2.29811v-15.40355c0,-1.27322 3.47605,-2.29811 7.79441,-2.29811h158.22832c4.31833,0 7.79442,1.02489 7.79442,2.29811z" fill="#57ff78" fill-rule="nonzero" stroke="#00ff33" stroke-width="2" stroke-linecap="butt"/><path d="M186.57992,82.14882v15.40355c0,1.27322 -3.47605,2.29811 -7.79442,2.29811h-158.22831c-4.31833,0 -7.79441,-1.02489 -7.79441,-2.29811v-15.40355c0,-1.27322 3.47605,-2.29811 7.79441,-2.29811h158.22832c4.31833,0 7.79442,1.02489 7.79442,2.29811z" fill="#57ff78" fill-rule="nonzero" stroke="#00ff33" stroke-width="2" stroke-linecap="butt"/><path d="M186.57992,105.14882v15.40355c0,1.27322 -3.47605,2.29811 -7.79442,2.29811h-158.22831c-4.31833,0 -7.79441,-1.02489 -7.79441,-2.29811v-15.40355c0,-1.27322 3.47605,-2.29811 7.79441,-2.29811h158.22832c4.31833,0 7.79442,1.02489 7.79442,2.29811z" fill="#57ff78" fill-rule="nonzero" stroke="#00ff33" stroke-width="2" stroke-linecap="butt"/><path d="M186.57992,128.64882v15.40355c0,1.27322 -3.47605,2.29811 -7.79442,2.29811h-158.22831c-4.31833,0 -7.79441,-1.02489 -7.79441,-2.29811v-15.40355c0,-1.27322 3.47605,-2.29811 7.79441,-2.29811h158.22832c4.31833,0 7.79442,1.02489 7.79442,2.29811z" fill="#57ff78" fill-rule="nonzero" stroke="#00ff33" stroke-width="2" stroke-linecap="butt"/><path d="M186.57992,151.64882v15.40355c0,1.27322 -3.47605,2.29811 -7.79442,2.29811h-158.22831c-4.31833,0 -7.79441,-1.02489 -7.79441,-2.29811v-15.40355c0,-1.27322 3.47605,-2.29811 7.79441,-2.29811h158.22832c4.31833,0 7.79442,1.02489 7.79442,2.29811z" fill="#ffd557" fill-rule="nonzero" stroke="#ffbf00" stroke-width="2" stroke-linecap="butt"/><path d="M186.57992,174.64882v15.40355c0,1.27322 -3.47605,2.29811 -7.79442,2.29811h-158.22831c-4.31833,0 -7.79441,-1.02489 -7.79441,-2.29811v-15.40355c0,-1.27322 3.47605,-2.29811 7.79441,-2.29811h158.22832c4.31833,0 7.79442,1.02489 7.79442,2.29811z" fill="#ffd557" fill-rule="nonzero" stroke="#ffbf00" stroke-width="2" stroke-linecap="butt"/><path d="M186.57992,197.64882v15.40355c0,1.27322 -3.47605,2.29811 -7.79442,2.29811h-158.22831c-4.31833,0 -7.79441,-1.02489 -7.79441,-2.29811v-15.40355c0,-1.27322 3.47605,-2.29811 7.79441,-2.29811h158.22832c4.31833,0 7.79442,1.02489 7.79442,2.29811z" fill="#57ffe2" fill-rule="nonzero" stroke="#00ffd5" stroke-width="2" stroke-linecap="butt"/><path d="M186.57992,220.64882v15.40355c0,1.27322 -3.47605,2.29811 -7.79442,2.29811h-158.22831c-4.31833,0 -7.79441,-1.02489 -7.79441,-2.29811v-15.40355c0,-1.27322 3.47605,-2.29811 7.79441,-2.29811h158.22832c4.31833,0 7.79442,1.02489 7.79442,2.29811z" fill="#57ffe2" fill-rule="nonzero" stroke="#00ffd5" stroke-width="2" stroke-linecap="butt"/><path d="M186.57992,243.64882v15.40355c0,1.27322 -3.47605,2.29811 -7.79442,2.29811h-158.22831c-4.31833,0 -7.79441,-1.02489 -7.79441,-2.29811v-15.40355c0,-1.27322 3.47605,-2.29811 7.79441,-2.29811h158.22832c4.31833,0 7.79442,1.02489 7.79442,2.29811z" fill="#57ffe2" fill-rule="nonzero" stroke="#00ffd5" stroke-width="2" stroke-linecap="butt"/><path d="M186.57992,266.64882v15.40355c0,1.27322 -3.47605,2.29811 -7.79442,2.29811h-158.22831c-4.31833,0 -7.79441,-1.02489 -7.79441,-2.29811v-15.40355c0,-1.27322 3.47605,-2.29811 7.79441,-2.29811h158.22832c4.31833,0 7.79442,1.02489 7.79442,2.29811z" fill="#57ffe2" fill-rule="nonzero" stroke="#00ffd5" stroke-width="2" stroke-linecap="butt"/><path d="M186.57992,289.64882v15.40355c0,1.27322 -3.47605,2.29811 -7.79442,2.29811h-158.22831c-4.31833,0 -7.79441,-1.02489 -7.79441,-2.29811v-15.40355c0,-1.27322 3.47605,-2.29811 7.79441,-2.29811h158.22832c4.31833,0 7.79442,1.02489 7.79442,2.29811z" fill="#57ffe2" fill-rule="nonzero" stroke="#00ffd5" stroke-width="2" stroke-linecap="butt"/><path d="M186.57992,312.64882v15.40355c0,1.27322 -3.47605,2.29811 -7.79442,2.29811h-158.22831c-4.31833,0 -7.79441,-1.02489 -7.79441,-2.29811v-15.40355c0,-1.27322 3.47605,-2.29811 7.79441,-2.29811h158.22832c4.31833,0 7.79442,1.02489 7.79442,2.29811z" fill="#57ffe2" fill-rule="nonzero" stroke="#00ffd5" stroke-width="2" stroke-linecap="butt"/><path d="M186.57992,335.64882v15.40355c0,1.27322 -3.47605,2.29811 -7.79442,2.29811h-158.22831c-4.31833,0 -7.79441,-1.02489 -7.79441,-2.29811v-15.40355c0,-1.27322 3.47605,-2.29811 7.79441,-2.29811h158.22832c4.31833,0 7.79442,1.02489 7.79442,2.29811z" fill="#ff5757" fill-rule="nonzero" stroke="#ff0000" stroke-width="2" stroke-linecap="butt"/><g fill-rule="nonzero" stroke-linecap="butt"><path d="M25.33332,24.96371c0,-3.46761 0,-6.62449 0,-8.49143c0,-1.15145 1.2109,-2.45503 2.3029,-2.45503c1.88132,0 5.35382,0 8.84315,0c1.50026,0 2.52063,1.45901 2.52063,2.70626c0,1.91387 0,4.96448 0,8.3407c0,1.55129 -1.31299,2.61973 -2.47039,2.61973c-1.90837,0 -5.25845,0 -8.69241,0c-1.48999,0 -2.50389,-1.11276 -2.50389,-2.72022z" fill="#f0f6ff" stroke-opacity="0.25482" stroke="#2e4770" stroke-width="2.5"/><path d="M25.33332,24.96371c0,-3.46761 0,-6.62449 0,-8.49143c0,-1.15145 1.2109,-2.45503 2.3029,-2.45503c1.88132,0 5.35382,0 8.84315,0c1.50026,0 2.52063,1.45901 2.52063,2.70626c0,1.91387 0,4.96448 0,8.3407c0,1.55129 -1.31299,2.61973 -2.47039,2.61973c-1.90837,0 -5.25845,0 -8.69241,0c-1.48999,0 -2.50389,-1.11276 -2.50389,-2.72022z" fill="#f0f6ff" stroke="#2e4770" stroke-width="1"/><path d="M30.81797,20.85059c0,-0.74486 0.60383,-1.34869 1.34869,-1.34869c0.74486,0 1.34869,0.60383 1.34869,1.34869c0,0.74486 -0.60383,1.34869 -1.34869,1.34869c-0.74486,0 -1.34869,-0.60383 -1.34869,-1.34869z" fill="#1c2f5a" stroke="#ffffff" stroke-width="0"/></g><g fill-rule="nonzero" stroke-linecap="butt"><path d="M25.33331,47.79718c0,-3.46761 0,-6.6245 0,-8.49144c0,-1.15145 1.2109,-2.45503 2.30291,-2.45503c1.88132,0 5.35382,0 8.84315,0c1.50026,0 2.52063,1.45901 2.52063,2.70626c0,1.91387 0,4.96448 0,8.3407c0,1.55129 -1.31299,2.61973 -2.47039,2.61973c-1.90837,0 -5.25845,0 -8.69242,0c-1.48999,0 -2.50388,-1.11277 -2.50388,-2.72022z" fill="#f0f6ff" stroke-opacity="0.25482" stroke="#2e4770" stroke-width="2.5"/><path d="M25.33331,47.79718c0,-3.46761 0,-6.6245 0,-8.49144c0,-1.15145 1.2109,-2.45503 2.30291,-2.45503c1.88132,0 5.35382,0 8.84315,0c1.50026,0 2.52063,1.45901 2.52063,2.70626c0,1.91387 0,4.96448 0,8.3407c0,1.55129 -1.31299,2.61973 -2.47039,2.61973c-1.90837,0 -5.25845,0 -8.69242,0c-1.48999,0 -2.50388,-1.11277 -2.50388,-2.72022z" fill="#f0f6ff" stroke="#2e4770" stroke-width="1"/><path d="M27.58111,40.35729c0,-0.74486 0.60383,-1.34869 1.34869,-1.34869c0.74486,0 1.34869,0.60383 1.34869,1.34869c0,0.74486 -0.60383,1.34869 -1.34869,1.34869c-0.74486,0 -1.34869,-0.60383 -1.34869,-1.34869z" fill="#1c2f5a" stroke="#ffffff" stroke-width="0"/><path d="M33.9649,47.19064c0,-0.74486 0.60383,-1.34869 1.34869,-1.34869c0.74486,0 1.34869,0.60383 1.34869,1.34869c0,0.74486 -0.60383,1.34869 -1.34869,1.34869c-0.74486,0 -1.34869,-0.60383 -1.34869,-1.34869z" fill="#1c2f5a" stroke="#ffffff" stroke-width="0"/></g><g fill-rule="nonzero" stroke-linecap="butt"><path d="M25.33331,70.79707c0,-3.46761 0,-6.6245 0,-8.49144c0,-1.15145 1.2109,-2.45504 2.30291,-2.45504c1.88132,0 5.35383,0 8.84315,0c1.50026,0 2.52064,1.45902 2.52064,2.70626c0,1.91387 0,4.96448 0,8.3407c0,1.55129 -1.31299,2.61973 -2.47039,2.61973c-1.90837,0 -5.25844,0 -8.69242,0c-1.48999,0 -2.50389,-1.11277 -2.50389,-2.72022z" fill="#f0f6ff" stroke-opacity="0.25482" stroke="#2e4770" stroke-width="2.5"/><path d="M25.33331,70.79707c0,-3.46761 0,-6.6245 0,-8.49144c0,-1.15145 1.2109,-2.45504 2.30291,-2.45504c1.88132,0 5.35383,0 8.84315,0c1.50026,0 2.52064,1.45902 2.52064,2.70626c0,1.91387 0,4.96448 0,8.3407c0,1.55129 -1.31299,2.61973 -2.47039,2.61973c-1.90837,0 -5.25844,0 -8.69242,0c-1.48999,0 -2.50389,-1.11277 -2.50389,-2.72022z" fill="#f0f6ff" stroke="#2e4770" stroke-width="1"/><path d="M27.58112,63.35718c0,-0.74486 0.60383,-1.34869 1.34869,-1.34869c0.74486,0 1.34869,0.60383 1.34869,1.34869c0,0.74486 -0.60383,1.34869 -1.34869,1.34869c-0.74486,0 -1.34869,-0.60383 -1.34869,-1.34869z" fill="#1c2f5a" stroke="#ffffff" stroke-width="0"/><path d="M33.9649,70.19052c0,-0.74486 0.60383,-1.34869 1.34869,-1.34869c0.74486,0 1.34869,0.60383 1.34869,1.34869c0,0.74486 -0.60383,1.34869 -1.34869,1.34869c-0.74486,0 -1.34869,-0.60383 -1.34869,-1.34869z" fill="#1c2f5a" stroke="#ffffff" stroke-width="0"/><path d="M30.81796,66.68394c0,-0.74486 0.60383,-1.34869 1.34869,-1.34869c0.74486,0 1.34869,0.60383 1.34869,1.34869c0,0.74486 -0.60383,1.34869 -1.34869,1.34869c-0.74486,0 -1.34869,-0.60383 -1.34869,-1.34869z" fill="#1c2f5a" stroke="#ffffff" stroke-width="0"/></g><g fill-rule="nonzero" stroke-linecap="butt"><path d="M25.3333,93.79708c0,-3.46761 0,-6.6245 0,-8.49145c0,-1.15145 1.2109,-2.45503 2.30291,-2.45503c1.88133,0 5.35384,0 8.84316,0c1.50027,0 2.52063,1.45901 2.52063,2.70626c0,1.91386 0,4.96448 0,8.3407c0,1.5513 -1.31299,2.61973 -2.47039,2.61973c-1.90837,0 -5.25845,0 -8.69242,0c-1.49,0 -2.50389,-1.11276 -2.50389,-2.72022z" fill="#f0f6ff" stroke-opacity="0.25482" stroke="#2e4770" stroke-width="2.5"/><path d="M25.3333,93.79708c0,-3.46761 0,-6.6245 0,-8.49145c0,-1.15145 1.2109,-2.45503 2.30291,-2.45503c1.88133,0 5.35384,0 8.84316,0c1.50027,0 2.52063,1.45901 2.52063,2.70626c0,1.91386 0,4.96448 0,8.3407c0,1.5513 -1.31299,2.61973 -2.47039,2.61973c-1.90837,0 -5.25845,0 -8.69242,0c-1.49,0 -2.50389,-1.11276 -2.50389,-2.72022z" fill="#f0f6ff" stroke="#2e4770" stroke-width="1"/><path d="M27.58111,86.35719c0,-0.74486 0.60383,-1.34868 1.34868,-1.34868c0.74486,0 1.34868,0.60383 1.34868,1.34868c0,0.74486 -0.60383,1.34868 -1.34868,1.34868c-0.74486,0 -1.34868,-0.60383 -1.34868,-1.34868z" fill="#1c2f5a" stroke="#ffffff" stroke-width="0"/><path d="M33.9649,93.19054c0,-0.74486 0.60383,-1.34868 1.34868,-1.34868c0.74486,0 1.34868,0.60383 1.34868,1.34868c0,0.74486 -0.60383,1.34868 -1.34868,1.34868c-0.74486,0 -1.34868,-0.60383 -1.34868,-1.34868z" fill="#1c2f5a" stroke="#ffffff" stroke-width="0"/><path d="M33.9649,86.4471c0,-0.74486 0.60383,-1.34868 1.34868,-1.34868c0.74486,0 1.34868,0.60383 1.34868,1.34868c0,0.74486 -0.60383,1.34868 -1.34868,1.34868c-0.74486,0 -1.34868,-0.60383 -1.34868,-1.34868z" fill="#1c2f5a" stroke="#ffffff" stroke-width="0"/><path d="M27.67103,93.10063c0,-0.74486 0.60383,-1.34868 1.34868,-1.34868c0.74486,0 1.34868,0.60383 1.34868,1.34868c0,0.74486 -0.60383,1.34868 -1.34868,1.34868c-0.74486,0 -1.34868,-0.60383 -1.34868,-1.34868z" fill="#1c2f5a" stroke="#ffffff" stroke-width="0"/></g><g fill-rule="nonzero" stroke-linecap="butt"><path d="M25.33333,116.94646c0,-3.46761 0,-6.6245 0,-8.49143c0,-1.15146 1.2109,-2.45503 2.3029,-2.45503c1.88132,0 5.35383,0 8.84315,0c1.50026,0 2.52063,1.45901 2.52063,2.70626c0,1.91387 0,4.96448 0,8.3407c0,1.55129 -1.313,2.61973 -2.47039,2.61973c-1.90837,0 -5.25845,0 -8.69241,0c-1.49,0 -2.50389,-1.11277 -2.50389,-2.72021z" fill="#f0f6ff" stroke-opacity="0.25482" stroke="#2e4770" stroke-width="2.5"/><path d="M25.33333,116.94646c0,-3.46761 0,-6.6245 0,-8.49143c0,-1.15146 1.2109,-2.45503 2.3029,-2.45503c1.88132,0 5.35383,0 8.84315,0c1.50026,0 2.52063,1.45901 2.52063,2.70626c0,1.91387 0,4.96448 0,8.3407c0,1.55129 -1.313,2.61973 -2.47039,2.61973c-1.90837,0 -5.25845,0 -8.69241,0c-1.49,0 -2.50389,-1.11277 -2.50389,-2.72021z" fill="#f0f6ff" stroke="#2e4770" stroke-width="1"/><path d="M27.58114,109.50657c0,-0.74486 0.60382,-1.34869 1.34869,-1.34869c0.74486,0 1.34869,0.60382 1.34869,1.34869c0,0.74486 -0.60382,1.34869 -1.34869,1.34869c-0.74486,0 -1.34869,-0.60382 -1.34869,-1.34869z" fill="#1c2f5a" stroke="#ffffff" stroke-width="0"/><path d="M33.96492,116.33992c0,-0.74486 0.60382,-1.34869 1.34869,-1.34869c0.74486,0 1.34869,0.60382 1.34869,1.34869c0,0.74486 -0.60382,1.34869 -1.34869,1.34869c-0.74486,0 -1.34869,-0.60382 -1.34869,-1.34869z" fill="#1c2f5a" stroke="#ffffff" stroke-width="0"/><path d="M33.96492,109.59649c0,-0.74486 0.60382,-1.34869 1.34869,-1.34869c0.74486,0 1.34869,0.60382 1.34869,1.34869c0,0.74486 -0.60382,1.34869 -1.34869,1.34869c-0.74486,0 -1.34869,-0.60382 -1.34869,-1.34869z" fill="#1c2f5a" stroke="#ffffff" stroke-width="0"/><path d="M27.67105,116.25c0,-0.74486 0.60382,-1.34869 1.34869,-1.34869c0.74486,0 1.34869,0.60382 1.34869,1.34869c0,0.74486 -0.60382,1.34869 -1.34869,1.34869c-0.74486,0 -1.34869,-0.60382 -1.34869,-1.34869z" fill="#1c2f5a" stroke="#ffffff" stroke-width="0"/><path d="M30.81799,112.83334c0,-0.74486 0.60382,-1.34869 1.34869,-1.34869c0.74486,0 1.34869,0.60382 1.34869,1.34869c0,0.74486 -0.60382,1.34869 -1.34869,1.34869c-0.74486,0 -1.34869,-0.60382 -1.34869,-1.34869z" fill="#1c2f5a" stroke="#ffffff" stroke-width="0"/></g><g fill-rule="nonzero" stroke-linecap="butt"><path d="M25.33332,140.44648c0,-3.46761 0,-6.6245 0,-8.49145c0,-1.15145 1.2109,-2.45503 2.3029,-2.45503c1.88133,0 5.35384,0 8.84315,0c1.50027,0 2.52063,1.45901 2.52063,2.70626c0,1.91386 0,4.96448 0,8.3407c0,1.5513 -1.31299,2.61973 -2.47039,2.61973c-1.90837,0 -5.25845,0 -8.69242,0c-1.49,0 -2.50389,-1.11276 -2.50389,-2.72022z" fill="#f0f6ff" stroke-opacity="0.25482" stroke="#2e4770" stroke-width="2.5"/><path d="M25.33332,140.44648c0,-3.46761 0,-6.6245 0,-8.49145c0,-1.15145 1.2109,-2.45503 2.3029,-2.45503c1.88133,0 5.35384,0 8.84315,0c1.50027,0 2.52063,1.45901 2.52063,2.70626c0,1.91386 0,4.96448 0,8.3407c0,1.5513 -1.31299,2.61973 -2.47039,2.61973c-1.90837,0 -5.25845,0 -8.69242,0c-1.49,0 -2.50389,-1.11276 -2.50389,-2.72022z" fill="#f0f6ff" stroke="#2e4770" stroke-width="1"/><path d="M27.58112,133.00659c0,-0.74486 0.60383,-1.34868 1.34868,-1.34868c0.74486,0 1.34868,0.60383 1.34868,1.34868c0,0.74486 -0.60383,1.34868 -1.34868,1.34868c-0.74486,0 -1.34868,-0.60383 -1.34868,-1.34868z" fill="#1c2f5a" stroke="#ffffff" stroke-width="0"/><path d="M33.96491,139.83994c0,-0.74486 0.60383,-1.34868 1.34868,-1.34868c0.74486,0 1.34868,0.60383 1.34868,1.34868c0,0.74486 -0.60383,1.34868 -1.34868,1.34868c-0.74486,0 -1.34868,-0.60383 -1.34868,-1.34868z" fill="#1c2f5a" stroke="#ffffff" stroke-width="0"/><path d="M33.96491,133.0965c0,-0.74486 0.60383,-1.34868 1.34868,-1.34868c0.74486,0 1.34868,0.60383 1.34868,1.34868c0,0.74486 -0.60383,1.34868 -1.34868,1.34868c-0.74486,0 -1.34868,-0.60383 -1.34868,-1.34868z" fill="#1c2f5a" stroke="#ffffff" stroke-width="0"/><path d="M27.58112,139.75003c0,-0.74486 0.60383,-1.34868 1.34868,-1.34868c0.74486,0 1.34868,0.60383 1.34868,1.34868c0,0.74486 -0.60383,1.34868 -1.34868,1.34868c-0.74486,0 -1.34868,-0.60383 -1.34868,-1.34868z" fill="#1c2f5a" stroke="#ffffff" stroke-width="0"/><path d="M27.58112,136.33335c0,-0.74486 0.60383,-1.34868 1.34868,-1.34868c0.74486,0 1.34868,0.60383 1.34868,1.34868c0,0.74486 -0.60383,1.34868 -1.34868,1.34868c-0.74486,0 -1.34868,-0.60383 -1.34868,-1.34868z" fill="#1c2f5a" stroke="#ffffff" stroke-width="0"/><path d="M33.96491,136.42327c0,-0.74486 0.60383,-1.34868 1.34868,-1.34868c0.74486,0 1.34868,0.60383 1.34868,1.34868c0,0.74486 -0.60383,1.34868 -1.34868,1.34868c-0.74486,0 -1.34868,-0.60383 -1.34868,-1.34868z" fill="#1c2f5a" stroke="#ffffff" stroke-width="0"/></g><g fill-rule="nonzero" stroke-linecap="butt"><path d="M22.86665,211.27476c0,-2.85866 0,-5.46118 0,-7.00026c0,-0.94924 0.99825,-2.02391 1.8985,-2.02391c1.55094,0 4.41365,0 7.29021,0c1.2368,0 2.07799,1.2028 2.07799,2.23102c0,1.57778 0,4.09267 0,6.87599c0,1.27887 -1.08242,2.15968 -2.03657,2.15968c-1.57324,0 -4.33501,0 -7.16595,0c-1.22833,0 -2.06418,-0.91736 -2.06418,-2.24252z" fill="#f0f6ff" stroke-opacity="0.25482" stroke="#2e4770" stroke-width="2.5"/><path d="M22.86665,211.27476c0,-2.85866 0,-5.46118 0,-7.00026c0,-0.94924 0.99825,-2.02391 1.8985,-2.02391c1.55094,0 4.41365,0 7.29021,0c1.2368,0 2.07799,1.2028 2.07799,2.23102c0,1.57778 0,4.09267 0,6.87599c0,1.27887 -1.08242,2.15968 -2.03657,2.15968c-1.57324,0 -4.33501,0 -7.16595,0c-1.22833,0 -2.06418,-0.91736 -2.06418,-2.24252z" fill="#f0f6ff" stroke="#2e4770" stroke-width="1"/><path d="M24.71972,205.14138c0,-0.61406 0.49779,-1.11185 1.11185,-1.11185c0.61406,0 1.11185,0.49779 1.11185,1.11185c0,0.61406 -0.49779,1.11185 -1.11185,1.11185c-0.61406,0 -1.11185,-0.49779 -1.11185,-1.11185z" fill="#1c2f5a" stroke="#ffffff" stroke-width="0"/><path d="M29.98245,210.77472c0,-0.61406 0.49779,-1.11185 1.11185,-1.11185c0.61406,0 1.11185,0.49779 1.11185,1.11185c0,0.61406 -0.49779,1.11185 -1.11185,1.11185c-0.61406,0 -1.11185,-0.49779 -1.11185,-1.11185z" fill="#1c2f5a" stroke="#ffffff" stroke-width="0"/><path d="M27.38814,207.88393c0,-0.61406 0.49779,-1.11185 1.11185,-1.11185c0.61406,0 1.11185,0.49779 1.11185,1.11185c0,0.61406 -0.49779,1.11185 -1.11185,1.11185c-0.61406,0 -1.11185,-0.49779 -1.11185,-1.11185z" fill="#1c2f5a" stroke="#ffffff" stroke-width="0"/></g><g fill-rule="nonzero" stroke-linecap="butt"><path d="M30.83331,206.44898c0,-3.06165 0,-5.84895 0,-7.49733c0,-1.01665 1.06914,-2.16762 2.03329,-2.16762c1.66107,0 4.72705,0 7.80786,0c1.32462,0 2.22554,1.2882 2.22554,2.38943c0,1.6898 0,4.38327 0,7.36423c0,1.36968 -1.15928,2.31303 -2.18118,2.31303c-1.68495,0 -4.64283,0 -7.67477,0c-1.31556,0 -2.21075,-0.98249 -2.21075,-2.40176z" fill="#f0f6ff" stroke-opacity="0.25482" stroke="#2e4770" stroke-width="2.5"/><path d="M30.83331,206.44898c0,-3.06165 0,-5.84895 0,-7.49733c0,-1.01665 1.06914,-2.16762 2.03329,-2.16762c1.66107,0 4.72705,0 7.80786,0c1.32462,0 2.22554,1.2882 2.22554,2.38943c0,1.6898 0,4.38327 0,7.36423c0,1.36968 -1.15928,2.31303 -2.18118,2.31303c-1.68495,0 -4.64283,0 -7.67477,0c-1.31556,0 -2.21075,-0.98249 -2.21075,-2.40176z" fill="#f0f6ff" stroke="#2e4770" stroke-width="1"/><path d="M32.81796,199.8801c0,-0.65765 0.53313,-1.19079 1.19079,-1.19079c0.65765,0 1.19079,0.53313 1.19079,1.19079c0,0.65765 -0.53314,1.19079 -1.19079,1.19079c-0.65765,0 -1.19079,-0.53314 -1.19079,-1.19079z" fill="#1c2f5a" stroke="#ffffff" stroke-width="0"/><path d="M38.45438,205.91345c0,-0.65765 0.53313,-1.19079 1.19079,-1.19079c0.65765,0 1.19079,0.53313 1.19079,1.19079c0,0.65765 -0.53314,1.19079 -1.19079,1.19079c-0.65765,0 -1.19079,-0.53314 -1.19079,-1.19079z" fill="#1c2f5a" stroke="#ffffff" stroke-width="0"/><path d="M38.45438,199.95947c0,-0.65765 0.53313,-1.19079 1.19079,-1.19079c0.65765,0 1.19079,0.53313 1.19079,1.19079c0,0.65765 -0.53314,1.19079 -1.19079,1.19079c-0.65765,0 -1.19079,-0.53314 -1.19079,-1.19079z" fill="#1c2f5a" stroke="#ffffff" stroke-width="0"/><path d="M32.81796,205.83406c0,-0.65765 0.53313,-1.19079 1.19079,-1.19079c0.65765,0 1.19079,0.53313 1.19079,1.19079c0,0.65765 -0.53314,1.19079 -1.19079,1.19079c-0.65765,0 -1.19079,-0.53314 -1.19079,-1.19079z" fill="#1c2f5a" stroke="#ffffff" stroke-width="0"/><path d="M32.81796,202.81738c0,-0.65765 0.53313,-1.19079 1.19079,-1.19079c0.65765,0 1.19079,0.53313 1.19079,1.19079c0,0.65765 -0.53314,1.19079 -1.19079,1.19079c-0.65765,0 -1.19079,-0.53314 -1.19079,-1.19079z" fill="#1c2f5a" stroke="#ffffff" stroke-width="0"/><path d="M38.45438,202.89677c0,-0.65765 0.53313,-1.19079 1.19079,-1.19079c0.65765,0 1.19079,0.53313 1.19079,1.19079c0,0.65765 -0.53314,1.19079 -1.19079,1.19079c-0.65765,0 -1.19079,-0.53314 -1.19079,-1.19079z" fill="#1c2f5a" stroke="#ffffff" stroke-width="0"/></g><g fill-rule="nonzero" stroke-linecap="butt"><path d="M25.33332,232.79708c0,-3.46761 0,-6.6245 0,-8.49145c0,-1.15145 1.2109,-2.45503 2.30291,-2.45503c1.88133,0 5.35384,0 8.84316,0c1.50027,0 2.52063,1.45901 2.52063,2.70626c0,1.91386 0,4.96448 0,8.3407c0,1.5513 -1.31299,2.61973 -2.47039,2.61973c-1.90837,0 -5.25845,0 -8.69242,0c-1.49,0 -2.50389,-1.11276 -2.50389,-2.72022z" fill="#f0f6ff" stroke-opacity="0.25482" stroke="#2e4770" stroke-width="2.5"/><path d="M25.33332,232.79708c0,-3.46761 0,-6.6245 0,-8.49145c0,-1.15145 1.2109,-2.45503 2.30291,-2.45503c1.88133,0 5.35384,0 8.84316,0c1.50027,0 2.52063,1.45901 2.52063,2.70626c0,1.91386 0,4.96448 0,8.3407c0,1.5513 -1.31299,2.61973 -2.47039,2.61973c-1.90837,0 -5.25845,0 -8.69242,0c-1.49,0 -2.50389,-1.11276 -2.50389,-2.72022z" fill="#f0f6ff" stroke="#2e4770" stroke-width="1"/><path d="M27.58113,225.35719c0,-0.74486 0.60383,-1.34868 1.34868,-1.34868c0.74486,0 1.34868,0.60383 1.34868,1.34868c0,0.74486 -0.60383,1.34868 -1.34868,1.34868c-0.74486,0 -1.34868,-0.60383 -1.34868,-1.34868z" fill="#1c2f5a" stroke="#ffffff" stroke-width="0"/><path d="M33.96492,232.19054c0,-0.74486 0.60383,-1.34868 1.34868,-1.34868c0.74486,0 1.34868,0.60383 1.34868,1.34868c0,0.74486 -0.60383,1.34868 -1.34868,1.34868c-0.74486,0 -1.34868,-0.60383 -1.34868,-1.34868z" fill="#1c2f5a" stroke="#ffffff" stroke-width="0"/><path d="M33.96492,225.4471c0,-0.74486 0.60383,-1.34868 1.34868,-1.34868c0.74486,0 1.34868,0.60383 1.34868,1.34868c0,0.74486 -0.60383,1.34868 -1.34868,1.34868c-0.74486,0 -1.34868,-0.60383 -1.34868,-1.34868z" fill="#1c2f5a" stroke="#ffffff" stroke-width="0"/><path d="M27.67105,232.10063c0,-0.74486 0.60383,-1.34868 1.34868,-1.34868c0.74486,0 1.34868,0.60383 1.34868,1.34868c0,0.74486 -0.60383,1.34868 -1.34868,1.34868c-0.74486,0 -1.34868,-0.60383 -1.34868,-1.34868z" fill="#1c2f5a" stroke="#ffffff" stroke-width="0"/></g><path d="M27.99251,249.09021c0,-0.91138 0.73882,-1.6502 1.6502,-1.6502c0.91138,0 1.6502,0.73882 1.6502,1.6502c0,0.91138 -0.73882,1.6502 -1.6502,1.6502c-0.91138,0 -1.6502,-0.73882 -1.6502,-1.6502z" fill="#1c2f5a" fill-rule="nonzero" stroke="#ffffff" stroke-width="0" stroke-linecap="butt"/><path d="M33.37163,249.09021c0,-0.91138 0.73882,-1.6502 1.6502,-1.6502c0.91138,0 1.6502,0.73882 1.6502,1.6502c0,0.91138 -0.73882,1.6502 -1.6502,1.6502c-0.91138,0 -1.6502,-0.73882 -1.6502,-1.6502z" fill="#1c2f5a" fill-rule="nonzero" stroke="#ffffff" stroke-width="0" stroke-linecap="butt"/><path d="M36.99669,253.27765c0,-0.91138 0.73882,-1.6502 1.6502,-1.6502c0.91138,0 1.6502,0.73882 1.6502,1.6502c0,0.91138 -0.73882,1.6502 -1.6502,1.6502c-0.91138,0 -1.6502,-0.73882 -1.6502,-1.6502z" fill="#1c2f5a" fill-rule="nonzero" stroke="#ffffff" stroke-width="0" stroke-linecap="butt"/><path d="M30.78364,253.27765c0,-0.91138 0.73882,-1.6502 1.6502,-1.6502c0.91138,0 1.6502,0.73882 1.6502,1.6502c0,0.91138 -0.73882,1.6502 -1.6502,1.6502c-0.91138,0 -1.6502,-0.73882 -1.6502,-1.6502z" fill="#1c2f5a" fill-rule="nonzero" stroke="#ffffff" stroke-width="0" stroke-linecap="butt"/><path d="M24.70289,253.27765c0,-0.91138 0.73882,-1.6502 1.6502,-1.6502c0.91138,0 1.6502,0.73882 1.6502,1.6502c0,0.91138 -0.73882,1.6502 -1.6502,1.6502c-0.91138,0 -1.6502,-0.73882 -1.6502,-1.6502z" fill="#1c2f5a" fill-rule="nonzero" stroke="#ffffff" stroke-width="0" stroke-linecap="butt"/><g fill="#1c2f5a" fill-rule="nonzero" stroke="#ffffff" stroke-width="0" stroke-linecap="butt"><path d="M33.58609,276.51853c0,-0.83069 0.67341,-1.5041 1.5041,-1.5041c0.83069,0 1.5041,0.67341 1.5041,1.5041c0,0.83069 -0.67341,1.5041 -1.5041,1.5041c-0.83069,0 -1.5041,-0.67341 -1.5041,-1.5041z"/><path d="M36.9968,280.14242c0,-0.83069 0.67341,-1.5041 1.5041,-1.5041c0.83069,0 1.5041,0.67341 1.5041,1.5041c0,0.83069 -0.67341,1.5041 -1.5041,1.5041c-0.83069,0 -1.5041,-0.67341 -1.5041,-1.5041z"/><path d="M29.9622,272.78806c0,-0.83069 0.67341,-1.5041 1.5041,-1.5041c0.83069,0 1.5041,0.67341 1.5041,1.5041c0,0.83069 -0.67341,1.5041 -1.5041,1.5041c-0.83069,0 -1.5041,-0.67341 -1.5041,-1.5041z"/><path d="M26.33831,268.73784c0,-0.83069 0.67341,-1.5041 1.5041,-1.5041c0.83069,0 1.5041,0.67341 1.5041,1.5041c0,0.83069 -0.67341,1.5041 -1.5041,1.5041c-0.83069,0 -1.5041,-0.67341 -1.5041,-1.5041z"/></g><g fill="#1c2f5a" fill-rule="nonzero" stroke="#ffffff" stroke-width="0" stroke-linecap="butt"><path d="M31.71224,301.9849c0,-0.86748 0.70323,-1.57071 1.57071,-1.57071c0.86748,0 1.57071,0.70323 1.57071,1.57071c0,0.86748 -0.70323,1.57071 -1.57071,1.57071c-0.86748,0 -1.57071,-0.70323 -1.57071,-1.57071z"/><path d="M35.94184,298.08922c0,-0.86748 0.70323,-1.57071 1.57071,-1.57071c0.86748,0 1.57071,0.70323 1.57071,1.57071c0,0.86748 -0.70323,1.57071 -1.57071,1.57071c-0.86748,0 -1.57071,-0.70323 -1.57071,-1.57071z"/><path d="M27.92786,298.08922c0,-0.86748 0.70323,-1.57071 1.57071,-1.57071c0.86748,0 1.57071,0.70323 1.57071,1.57071c0,0.86748 -0.70323,1.57071 -1.57071,1.57071c-0.86748,0 -1.57071,-0.70323 -1.57071,-1.57071z"/><path d="M24.1435,293.85964c0,-0.86748 0.70323,-1.57071 1.57071,-1.57071c0.86748,0 1.57071,0.70323 1.57071,1.57071c0,0.86748 -0.70323,1.57071 -1.57071,1.57071c-0.86748,0 -1.57071,-0.70323 -1.57071,-1.57071z"/><path d="M39.05838,293.85964c0,-0.86748 0.70323,-1.57071 1.57071,-1.57071c0.86748,0 1.57071,0.70323 1.57071,1.57071c0,0.86748 -0.70323,1.57071 -1.57071,1.57071c-0.86748,0 -1.57071,-0.70323 -1.57071,-1.57071z"/></g><g fill="#1c2f5a" fill-rule="nonzero" stroke="#ffffff" stroke-width="0" stroke-linecap="butt"><path d="M30.7132,315.83649c0,-0.9752 0.79055,-1.76575 1.76575,-1.76575c0.9752,0 1.76575,0.79055 1.76575,1.76575c0,0.9752 -0.79055,1.76575 -1.76575,1.76575c-0.9752,0 -1.76575,-0.79055 -1.76575,-1.76575z"/><path d="M27.83532,325.97168c0,-0.9752 0.79055,-1.76575 1.76575,-1.76575c0.9752,0 1.76575,0.79055 1.76575,1.76575c0,0.9752 -0.79055,1.76575 -1.76575,1.76575c-0.9752,0 -1.76575,-0.79055 -1.76575,-1.76575z"/><path d="M37.09462,320.40359c0,-0.9752 0.79055,-1.76575 1.76575,-1.76575c0.9752,0 1.76575,0.79055 1.76575,1.76575c0,0.9752 -0.79055,1.76575 -1.76575,1.76575c-0.9752,0 -1.76575,-0.79055 -1.76575,-1.76575z"/><path d="M24.70718,320.40359c0,-0.9752 0.79055,-1.76575 1.76575,-1.76575c0.9752,0 1.76575,0.79055 1.76575,1.76575c0,0.9752 -0.79055,1.76575 -1.76575,1.76575c-0.9752,0 -1.76575,-0.79055 -1.76575,-1.76575z"/><path d="M33.84137,325.97168c0,-0.9752 0.79055,-1.76575 1.76575,-1.76575c0.9752,0 1.76575,0.79055 1.76575,1.76575c0,0.9752 -0.79055,1.76575 -1.76575,1.76575c-0.9752,0 -1.76575,-0.79055 -1.76575,-1.76575z"/></g><path d="M180.63556,166.43378c-0.35789,-0.28175 -0.61298,-0.64345 -0.76528,-1.0851c-0.05223,-0.1344 -0.01298,-0.22851 0.11776,-0.28235c0.00261,-0.00109 0.00525,-0.00216 0.00788,-0.0032c0.01206,-0.00457 0.02443,-0.00827 0.03701,-0.01108c0.10196,-0.02239 0.17338,0.03461 0.21427,0.17099c0.12945,0.36551 0.33886,0.66438 0.62822,0.89663c0.24697,0.19711 0.54743,0.31553 0.86247,0.33992c0.06262,0.00572 0.12547,0.00854 0.18835,0.00845c0.186,0.00131 0.37167,-0.01581 0.55431,-0.05106c0.35348,-0.0709 0.64082,-0.21569 0.86203,-0.43438c0.32743,-0.32362 0.49114,-0.78621 0.49114,-1.38778c0.00121,-0.17661 -0.01958,-0.35269 -0.0619,-0.52416c-0.04296,-0.17203 -0.11264,-0.33626 -0.20651,-0.48669c-0.17894,-0.28555 -0.42071,-0.50637 -0.7253,-0.66248c-0.30459,-0.1561 -0.65105,-0.23415 -1.0394,-0.23415c-0.13349,0 -0.20845,-0.04972 -0.2249,-0.14917c-0.00241,-0.01488 -0.0036,-0.02993 -0.00354,-0.04501c0,-0.12169 0.06732,-0.18618 0.20194,-0.19349c0.00883,-0.00046 0.01766,-0.0007 0.0265,-0.00069c0.54658,0 0.98211,-0.14685 1.30657,-0.44055c0.01005,-0.00913 0.01999,-0.01837 0.02981,-0.02775c0.26155,-0.24991 0.42803,-0.58301 0.47093,-0.94221c0.01374,-0.10035 0.02049,-0.20152 0.02021,-0.3028c0.00072,-0.12566 -0.00964,-0.25114 -0.03095,-0.37498c-0.03678,-0.20658 -0.10641,-0.38428 -0.20891,-0.53306c-0.15991,-0.23225 -0.36931,-0.40549 -0.62821,-0.51971c-0.2589,-0.11422 -0.53683,-0.17133 -0.83381,-0.17133c-0.16578,-0.00152 -0.33079,0.0226 -0.4892,0.0715c-0.18015,0.05693 -0.34624,0.15128 -0.48738,0.27687c-0.26271,0.23225 -0.4664,0.51971 -0.61108,0.86237c-0.05421,0.12206 -0.1296,0.17167 -0.22616,0.14883c-0.01245,-0.00302 -0.02467,-0.00695 -0.03655,-0.01176c-0.02175,-0.00699 -0.04263,-0.01641 -0.06225,-0.0281c-0.08498,-0.05201 -0.10231,-0.13782 -0.05197,-0.25745c0.07764,-0.18707 0.17392,-0.36585 0.28738,-0.53364c0.14764,-0.22017 0.33485,-0.41102 0.55214,-0.56287c0.18817,-0.1318 0.3968,-0.23163 0.61748,-0.29549c0.16516,-0.04665 0.33598,-0.07021 0.5076,-0.07002c0.23242,-0.00194 0.46406,0.02722 0.68875,0.08669c0.30175,0.08041 0.58034,0.2307 0.81325,0.43872c0.28386,0.25523 0.47451,0.59785 0.54175,0.97362c0.03188,0.16468 0.04745,0.3321 0.04649,0.49983c0.00196,0.23956 -0.03503,0.47785 -0.10954,0.70554c-0.05499,0.16441 -0.13146,0.32083 -0.22741,0.46522c-0.21782,0.32788 -0.53243,0.57969 -0.90006,0.72039c-0.01404,0.00558 -0.02812,0.01103 -0.04226,0.01633c0.44165,0.14468 0.80145,0.40358 1.07939,0.7767c0.24024,0.32437 0.38211,0.71099 0.40868,1.11377c0.00554,0.07026 0.00829,0.14071 0.00823,0.21119c0.00154,0.2585 -0.03236,0.51599 -0.10075,0.76528c-0.03496,0.1251 -0.07957,0.2473 -0.13341,0.36551c-0.15575,0.34102 -0.41201,0.62629 -0.73443,0.81759c-0.00266,0.00161 -0.00532,0.0032 -0.00799,0.0048c-0.16353,0.09733 -0.34044,0.17017 -0.52508,0.21622c-0.16211,0.04203 -0.33889,0.06968 -0.53033,0.08293c-0.09162,0.00627 -0.18343,0.00935 -0.27527,0.00925c-0.23021,0.00196 -0.45934,-0.03148 -0.67938,-0.09914c-0.22176,-0.06972 -0.42893,-0.17934 -0.61131,-0.32347zM175.49564,166.4452c-0.15775,-0.12884 -0.29306,-0.28291 -0.40046,-0.45597c-0.15062,-0.23666 -0.27414,-0.52633 -0.37053,-0.86899c-0.16486,-0.58618 -0.23628,-1.35922 -0.21427,-2.31913c0.00086,-0.03793 0.00184,-0.07584 0.00297,-0.11377c0.00868,-0.36951 0.03448,-0.73842 0.07733,-1.10554c0.08787,-0.72911 0.24554,-1.32004 0.47299,-1.77281c0.04104,-0.08212 0.0861,-0.16217 0.13501,-0.23986c0.14909,-0.24302 0.34352,-0.45509 0.5727,-0.62467c0.30588,-0.22106 0.66537,-0.34281 1.07847,-0.36527c0.04732,-0.00254 0.0947,-0.0038 0.14209,-0.00377c0.33162,0 0.61778,0.05486 0.85848,0.16459c0.02445,0.01111 0.0486,0.02289 0.07241,0.03529c0.00202,0.00107 0.00404,0.00213 0.00606,0.0032c0.25637,0.13593 0.48487,0.3189 0.67356,0.53935c0.09831,0.09831 0.106,0.1901 0.02307,0.27539c-0.00736,0.00754 -0.01506,0.01475 -0.02307,0.02159c-0.01561,0.0122 -0.0326,0.02255 -0.0506,0.03084c-0.07036,0.03176 -0.14266,0.01843 -0.2169,-0.03997c-0.01434,-0.01137 -0.028,-0.02357 -0.04089,-0.03655c-0.1412,-0.16345 -0.31071,-0.30012 -0.5004,-0.40343c-0.01582,-0.00855 -0.03178,-0.01685 -0.04786,-0.0249c-0.19654,-0.09831 -0.43137,-0.14959 -0.70451,-0.15385c-0.01264,-0.00021 -0.02528,-0.00033 -0.03792,-0.00034c-0.16268,-0.00126 -0.32494,0.01676 -0.48338,0.05368c-0.23648,0.0539 -0.45534,0.1671 -0.63598,0.32895c-0.28175,0.2551 -0.49305,0.59776 -0.63393,1.02799c-0.08208,0.2535 -0.14639,0.51242 -0.19246,0.77487c-0.03933,0.22189 -0.06849,0.44546 -0.08738,0.67002c-0.03947,0.46425 -0.05905,0.92997 -0.05871,1.39589c-0.00001,0.07916 0.00053,0.15831 0.0016,0.23746c0.07394,-0.19085 0.17496,-0.37007 0.29995,-0.53215c0.11938,-0.15335 0.26307,-0.28611 0.42535,-0.39303c0.24886,-0.16205 0.53172,-0.26456 0.82662,-0.2996c0.10655,-0.01365 0.21387,-0.0204 0.3213,-0.02022c0.36551,0 0.70246,0.08947 1.01085,0.26842c0.28259,0.16519 0.51927,0.39857 0.68841,0.67881c0.01871,0.03031 0.03671,0.06105 0.05402,0.09218c0.10689,0.19514 0.18261,0.4058 0.22445,0.62433c0.03465,0.17338 0.05307,0.35938 0.05528,0.55796c0.00011,0.01328 0.00015,0.02657 0.00011,0.03986c0.0012,0.21696 -0.02058,0.43343 -0.06499,0.6458c-0.04253,0.20195 -0.11091,0.39759 -0.20343,0.58207c-0.12365,0.24997 -0.29527,0.47316 -0.50508,0.65688c-0.07471,0.06467 -0.15403,0.12381 -0.23735,0.17693c-0.27131,0.1718 -0.58116,0.27327 -0.90154,0.29526c-0.06296,0.00498 -0.1261,0.00745 -0.18926,0.00742c-0.2375,0.00223 -0.47356,-0.03704 -0.69755,-0.11604c-0.18997,-0.06875 -0.36723,-0.16848 -0.52461,-0.29515zM172.99627,158.60489c0.05132,-0.11597 0.02399,-0.20575 -0.08201,-0.26933c-0.09442,-0.05033 -0.17583,-0.03301 -0.24421,0.05197c-0.01552,0.01954 -0.02935,0.04036 -0.04135,0.06225l-4.27184,8.33809c-0.00698,0.01252 -0.01334,0.02536 -0.01907,0.03849c-0.0415,0.09556 -0.02726,0.17049 0.04271,0.22479c0.01748,0.01325 0.03636,0.02455 0.05631,0.0337c0.00098,0.00046 0.00198,0.00092 0.00297,0.00137c0.09267,0.04211 0.17023,0.02364 0.23267,-0.0554c0.01461,-0.01887 0.0275,-0.03901 0.03849,-0.06019l4.27184,-8.3381c0.00482,-0.00905 0.00932,-0.01827 0.01348,-0.02764zM176.5724,166.46325c-0.84927,-0.05757 -1.36048,-0.63087 -1.53364,-1.71993c-0.01736,-0.11094 -0.02605,-0.21896 -0.02605,-0.32405c-0.00207,-0.2534 0.05371,-0.50392 0.16311,-0.7325c0.1523,-0.31601 0.37502,-0.5692 0.66818,-0.75957c0.29316,-0.19037 0.60727,-0.28555 0.94232,-0.28555c0.49496,0 0.88902,0.17323 1.18218,0.5197c0.17806,0.21174 0.30468,0.46183 0.36996,0.73067c0.04792,0.19636 0.07137,0.39789 0.06979,0.6c0,0.32743 -0.06283,0.64344 -0.18847,0.94803c-0.00196,0.00476 -0.00393,0.00952 -0.00593,0.01427c-0.1173,0.28721 -0.30831,0.53838 -0.55375,0.72815c-0.15354,0.11669 -0.33058,0.19864 -0.5189,0.24021c-0.13896,0.03115 -0.28101,0.04637 -0.42341,0.04535c-0.04851,0.00004 -0.09701,-0.00156 -0.14541,-0.0048z" fill="#000000" fill-rule="evenodd" stroke="#000000" stroke-width="1" stroke-linecap="round"/><path d="M471.33969,7.29885v43.77133c0,3.61804 -4.62641,6.5304 -10.37388,6.5304h-210.59194c-5.74742,0 -10.37388,-2.91236 -10.37388,-6.5304v-43.77133c0,-3.61804 4.62641,-6.5304 10.37388,-6.5304h210.59194c5.74742,0 10.37388,2.91236 10.37388,6.5304z" fill="#e757ff" fill-rule="nonzero" stroke="#d900ff" stroke-width="4" stroke-linecap="butt"/><path d="M252.82929,12.89666h-0.0442c-0.03148,0.00047 -0.06287,-0.00345 -0.09327,-0.01164c-0.06975,-0.01994 -0.1139,-0.06552 -0.13247,-0.13674c-0.00703,-0.02858 -0.0104,-0.05794 -0.01002,-0.08738v-10.24073c-0.00042,-0.03149 0.00355,-0.06288 0.01179,-0.09327c0.01994,-0.06975 0.06552,-0.1139 0.13674,-0.13247c0.02854,-0.00702 0.05785,-0.01038 0.08723,-0.01002h0.0442c0.03149,-0.00042 0.06288,0.00355 0.09327,0.01179c0.06975,0.01994 0.1139,0.06552 0.13247,0.13674c0.00702,0.02854 0.01038,0.05785 0.01002,0.08723v6.30652l3.47743,-2.77015c0.1111,-0.0833 0.22215,-0.12736 0.33316,-0.13217c0.00682,-0.0003 0.01365,-0.00044 0.02048,-0.00044c0.02962,-0.00028 0.05917,0.00309 0.08797,0.01002c0.06624,0.01447 0.12133,0.06017 0.14779,0.12259c0.03301,0.07417 -0.00314,0.16213 -0.10845,0.2639c-0.02191,0.02106 -0.04473,0.04117 -0.06837,0.06027l-3.52163,2.77015l3.90474,3.5511c0.01269,0.01097 0.02442,0.023 0.03507,0.03595c0.03811,0.04705 0.04715,0.09519 0.02711,0.1444c-0.00486,0.01167 -0.01089,0.02283 -0.01798,0.0333c-0.03587,0.05398 -0.09214,0.09105 -0.15589,0.1027c-0.02628,0.00537 -0.05304,0.00799 -0.07986,0.00781c-0.10078,-0.00031 -0.19901,-0.0317 -0.28129,-0.08988c-0.02542,-0.01746 -0.04959,-0.03666 -0.07235,-0.05747l-3.72792,-3.40375v3.28587c0.00047,0.03148 -0.00345,0.06287 -0.01164,0.09327c-0.01994,0.06975 -0.06552,0.1139 -0.13674,0.13247c-0.02858,0.00703 -0.05794,0.0104 -0.08738,0.01002zM301.21858,12.60197v-6.45387c0,-0.19647 0.08841,-0.2947 0.26523,-0.2947c0.15698,0 0.24018,0.08684 0.24961,0.26051c0.0006,0.01138 0.0009,0.02278 0.00088,0.03418v0.79568c0.18752,-0.29846 0.43304,-0.55626 0.72201,-0.75811c0.074,-0.05257 0.1502,-0.10198 0.22839,-0.14809c0.37229,-0.21798 0.79264,-0.34066 1.22373,-0.35717c0.05129,-0.00253 0.10263,-0.00381 0.15398,-0.00383c0.75639,0 1.36543,0.24313 1.82712,0.72938c0.26648,0.28554 0.4588,0.63213 0.56007,1.00934c0.08831,0.31071 0.13247,0.65943 0.13247,1.04618v4.1405c0,0.1722 -0.06415,0.26896 -0.19244,0.29028c-0.0192,0.00306 -0.03861,0.00454 -0.05806,0.00442c-0.15698,0 -0.24018,-0.08679 -0.24961,-0.26037c-0.0006,-0.01143 -0.0009,-0.02288 -0.00088,-0.03433v-4.1405c0.00128,-0.20869 -0.01524,-0.41711 -0.04936,-0.62299c-0.0389,-0.22593 -0.10093,-0.4282 -0.1861,-0.60678c-0.08073,-0.17236 -0.19048,-0.32956 -0.32446,-0.46474c-0.30493,-0.30398 -0.70466,-0.49454 -1.13282,-0.54003c-0.10812,-0.01344 -0.21698,-0.02008 -0.32594,-0.01989c-0.23515,-0.0015 -0.4695,0.02738 -0.69725,0.0859c-0.17779,0.04644 -0.34935,0.11406 -0.51101,0.20143c-0.19028,0.1015 -0.36594,0.22829 -0.5222,0.37692c-0.11489,0.11022 -0.21656,0.23345 -0.30295,0.36719c-0.13612,0.20678 -0.22825,0.43935 -0.27068,0.68326c-0.01605,0.09558 -0.02409,0.19233 -0.02402,0.28925v4.39099c0,0.1722 -0.06415,0.26896 -0.19244,0.29028c-0.0192,0.00306 -0.03861,0.00454 -0.05806,0.00442c-0.17358,0 -0.26194,-0.0947 -0.26508,-0.28409c-0.00008,-0.00354 -0.00013,-0.00707 -0.00015,-0.01061zM291.13994,12.89666h-4.64148c-0.19647,0 -0.2947,-0.08841 -0.2947,-0.26523v-0.0442c0,-0.13753 0.03929,-0.26032 0.11788,-0.36837l4.44993,-5.84974h-3.96368c-0.19647,0 -0.2947,-0.08841 -0.2947,-0.26523c0,-0.15698 0.08684,-0.24018 0.26051,-0.24961c0.01138,-0.0006 0.02278,-0.0009 0.03418,-0.00088h4.30258c0.1722,0 0.26896,0.06415 0.29028,0.19244c0.00306,0.0192 0.00454,0.03861 0.00442,0.05806v0.05894c0,0.13753 -0.03929,0.26032 -0.11788,0.36837l-4.44993,5.84974h4.30258c0.1722,0 0.26896,0.06415 0.29028,0.19244c0.00306,0.0192 0.00454,0.03861 0.00442,0.05806c0,0.17358 -0.0947,0.26199 -0.28409,0.26523c-0.00354,0.00003 -0.00707,0.00003 -0.01061,0zM274.26852,15.74049v-9.5924c0,-0.19647 0.08841,-0.2947 0.26523,-0.2947c0.15698,0 0.24018,0.08684 0.24961,0.26051c0.0006,0.01138 0.0009,0.02278 0.00088,0.03418v1.23773c0.17619,-0.37433 0.4256,-0.70957 0.7335,-0.98591c0.10976,-0.09736 0.22658,-0.18646 0.34951,-0.26655c0.40751,-0.26383 0.87621,-0.41802 1.36076,-0.44765c0.0841,-0.0061 0.16839,-0.00915 0.2527,-0.00914c0.34502,-0.00287 0.68804,0.05273 1.0145,0.16444c0.22202,0.07761 0.43321,0.18328 0.62844,0.31444c0.47643,0.31926 0.85217,0.75393 1.12722,1.30404c0.27505,0.5501 0.41258,1.1837 0.41258,1.9008c0.002,0.35694 -0.03591,0.71298 -0.11302,1.0615c-0.06612,0.29541 -0.16666,0.58205 -0.29956,0.85403c-0.15324,0.31791 -0.35429,0.61045 -0.59617,0.86744c-0.15962,0.16763 -0.33778,0.31657 -0.53104,0.44396c-0.43002,0.28179 -0.92792,0.44272 -1.44151,0.46592c-0.06707,0.00379 -0.13424,0.00565 -0.20143,0.0056c-0.32582,0.00262 -0.64996,-0.04693 -0.96012,-0.14676c-0.23104,-0.07599 -0.45079,-0.18275 -0.65334,-0.31739c-0.4666,-0.30943 -0.82761,-0.72446 -1.08301,-1.2451v4.39099c0,0.1722 -0.06415,0.26896 -0.19244,0.29028c-0.0192,0.00306 -0.03861,0.00454 -0.05806,0.00442c-0.17358,0 -0.26194,-0.0947 -0.26508,-0.28409c-0.00008,-0.00354 -0.00013,-0.00707 -0.00015,-0.01061zM264.2046,9.1098h-5.33402c-0.01896,0.41759 0.01095,0.8087 0.08974,1.17334c0.04248,0.19786 0.10117,0.39188 0.17549,0.58011c0.11434,0.29533 0.27621,0.56997 0.47918,0.81307c0.13464,0.15929 0.28789,0.30187 0.45649,0.42466c0.35726,0.25884 0.77949,0.41317 1.21946,0.44573c0.08693,0.00747 0.17415,0.01116 0.2614,0.01105c0.38455,0.00637 0.7659,-0.07091 1.11764,-0.22647c0.53615,-0.24558 0.95929,-0.69072 1.26941,-1.33542c0.08772,-0.17534 0.20924,-0.22991 0.36454,-0.1637c0.00128,0.00053 0.00256,0.00107 0.00383,0.00162c0.15717,0.07859 0.19155,0.2112 0.10314,0.39784c-0.17361,0.37149 -0.40954,0.71053 -0.69755,1.00241c-0.49323,0.48753 -1.11548,0.75889 -1.86676,0.8141c-0.09792,0.00714 -0.19607,0.01067 -0.29426,0.01061c-0.35458,0.00293 -0.70706,-0.05478 -1.0422,-0.17063c-0.21403,-0.07555 -0.4182,-0.17657 -0.60811,-0.30089c-0.48134,-0.31434 -0.85953,-0.74902 -1.13458,-1.30404c-0.18892,-0.38665 -0.31326,-0.80162 -0.36808,-1.22845c-0.03013,-0.22531 -0.045,-0.4524 -0.0445,-0.67972c0,-0.7171 0.13753,-1.35315 0.41258,-1.90816c0.27505,-0.55501 0.65325,-0.98969 1.13458,-1.30404c0.44138,-0.28654 0.95218,-0.44807 1.47805,-0.46739c0.05737,-0.00277 0.11481,-0.00415 0.17225,-0.00413c0.27421,-0.0021 0.54742,0.0333 0.81204,0.10521c0.27993,0.07721 0.54385,0.20375 0.77933,0.37368c0.44205,0.31926 0.77849,0.71955 1.00934,1.20089c0.17402,0.35646 0.28518,0.7403 0.32859,1.13458c0.01182,0.11258 0.01772,0.2257 0.01768,0.3389c0,0.17358 -0.0947,0.26199 -0.28409,0.26523c-0.00354,0.00003 -0.00707,0.00003 -0.01061,0zM271.95514,9.1098h-5.33402c-0.01896,0.41759 0.01095,0.8087 0.08974,1.17334c0.04248,0.19786 0.10117,0.39188 0.17549,0.58011c0.11434,0.29533 0.27621,0.56997 0.47918,0.81307c0.13464,0.15929 0.28789,0.30187 0.45649,0.42466c0.35726,0.25884 0.77949,0.41317 1.21946,0.44573c0.08693,0.00747 0.17415,0.01116 0.2614,0.01105c0.38455,0.00637 0.7659,-0.07091 1.11764,-0.22647c0.53615,-0.24558 0.95929,-0.69072 1.26941,-1.33542c0.08772,-0.17534 0.20924,-0.22991 0.36454,-0.1637c0.00128,0.00053 0.00256,0.00107 0.00383,0.00162c0.15717,0.07859 0.19155,0.2112 0.10314,0.39784c-0.17361,0.37149 -0.40954,0.71053 -0.69755,1.00241c-0.49323,0.48753 -1.11548,0.75889 -1.86676,0.8141c-0.09792,0.00714 -0.19607,0.01067 -0.29426,0.01061c-0.35458,0.00293 -0.70706,-0.05478 -1.0422,-0.17063c-0.21403,-0.07555 -0.4182,-0.17657 -0.60811,-0.30089c-0.48134,-0.31434 -0.85953,-0.74902 -1.13458,-1.30404c-0.18892,-0.38665 -0.31326,-0.80162 -0.36808,-1.22845c-0.03013,-0.22531 -0.045,-0.4524 -0.0445,-0.67972c0,-0.7171 0.13753,-1.35315 0.41258,-1.90816c0.27505,-0.55501 0.65325,-0.98969 1.13458,-1.30404c0.44138,-0.28654 0.95218,-0.44807 1.47805,-0.46739c0.05737,-0.00277 0.11481,-0.00415 0.17225,-0.00413c0.27421,-0.0021 0.54742,0.0333 0.81204,0.10521c0.27993,0.07721 0.54385,0.20375 0.77933,0.37368c0.44205,0.31926 0.77849,0.71955 1.00934,1.20089c0.17402,0.35646 0.28518,0.7403 0.32859,1.13458c0.01182,0.11258 0.01772,0.2257 0.01768,0.3389c0,0.17358 -0.0947,0.26199 -0.28409,0.26523c-0.00354,0.00003 -0.00707,0.00003 -0.01061,0zM314.42102,9.1098h-5.33402c-0.01896,0.41759 0.01095,0.8087 0.08974,1.17334c0.04248,0.19786 0.10117,0.39188 0.17549,0.58011c0.11434,0.29533 0.27621,0.56997 0.47918,0.81307c0.13464,0.15929 0.28789,0.30187 0.45649,0.42466c0.35726,0.25884 0.77949,0.41317 1.21946,0.44573c0.08693,0.00747 0.17415,0.01116 0.2614,0.01105c0.38455,0.00637 0.7659,-0.07091 1.11764,-0.22647c0.53615,-0.24558 0.95929,-0.69072 1.26941,-1.33542c0.08772,-0.17534 0.20924,-0.22991 0.36454,-0.1637c0.00128,0.00053 0.00256,0.00107 0.00383,0.00162c0.15717,0.07859 0.19155,0.2112 0.10314,0.39784c-0.17361,0.37149 -0.40954,0.71053 -0.69755,1.00241c-0.49323,0.48753 -1.11548,0.75889 -1.86676,0.8141c-0.09792,0.00714 -0.19607,0.01067 -0.29426,0.01061c-0.35458,0.00293 -0.70706,-0.05478 -1.0422,-0.17063c-0.21403,-0.07555 -0.4182,-0.17657 -0.60811,-0.30089c-0.48134,-0.31434 -0.85953,-0.74902 -1.13458,-1.30404c-0.18892,-0.38665 -0.31326,-0.80162 -0.36808,-1.22845c-0.03013,-0.22531 -0.045,-0.4524 -0.0445,-0.67972c0,-0.7171 0.13753,-1.35315 0.41258,-1.90816c0.27505,-0.55501 0.65325,-0.98969 1.13458,-1.30404c0.44138,-0.28654 0.95218,-0.44807 1.47805,-0.46739c0.05737,-0.00277 0.11481,-0.00415 0.17225,-0.00413c0.27421,-0.0021 0.54742,0.0333 0.81204,0.10521c0.27993,0.07721 0.54385,0.20375 0.77933,0.37368c0.44205,0.31926 0.77849,0.71955 1.00934,1.20089c0.17402,0.35646 0.28518,0.7403 0.32859,1.13458c0.01182,0.11258 0.01772,0.2257 0.01768,0.3389c0,0.17358 -0.0947,0.26199 -0.28409,0.26523c-0.00354,0.00003 -0.00707,0.00003 -0.01061,0zM295.00445,12.88812c0.33514,0.11585 0.68761,0.17356 1.0422,0.17063c0.05744,0.00002 0.11488,-0.00136 0.17225,-0.00413c0.52588,-0.01932 1.03668,-0.18085 1.47805,-0.46739c0.18731,-0.12217 0.36065,-0.26453 0.5169,-0.42451c0.25178,-0.26087 0.4603,-0.56027 0.61769,-0.88689c0.1329,-0.27199 0.23344,-0.55862 0.29956,-0.85403c0.07711,-0.34852 0.11501,-0.70456 0.11302,-1.0615c0,-0.7171 -0.13753,-1.3507 -0.41258,-1.9008c-0.01708,-0.0342 -0.03467,-0.06814 -0.05275,-0.10182c-0.25438,-0.48492 -0.62635,-0.89827 -1.08183,-1.20222c-0.18588,-0.12362 -0.38582,-0.22467 -0.59558,-0.30103c-0.33843,-0.12067 -0.69544,-0.18087 -1.05472,-0.17785c-0.04318,-0.00001 -0.08636,0.00078 -0.12952,0.00236c-0.54159,0.01308 -1.06858,0.1782 -1.52079,0.47653c-0.48134,0.31926 -0.85953,0.75393 -1.13458,1.30404c-0.27505,0.5501 -0.41258,1.1837 -0.41258,1.9008c-0.00041,0.21705 0.01307,0.4339 0.04037,0.64922c0.05331,0.43976 0.17908,0.86765 0.3722,1.26631c0.27505,0.55992 0.65325,0.99706 1.13458,1.3114c0.1899,0.12432 0.39407,0.22534 0.60811,0.30089zM277.48072,12.54303c0.29327,0.00246 0.58484,-0.04462 0.86243,-0.13924c0.18426,-0.06421 0.35982,-0.15107 0.52265,-0.2586c0.40275,-0.26523 0.71955,-0.63851 0.9504,-1.11985c0.14797,-0.31293 0.24829,-0.64624 0.29764,-0.98886c0.03308,-0.22386 0.04934,-0.44989 0.04863,-0.67618c0.00139,-0.27974 -0.02407,-0.55897 -0.07603,-0.83385c-0.05391,-0.28518 -0.14475,-0.56212 -0.27024,-0.82383c-0.12511,-0.26315 -0.28907,-0.506 -0.4864,-0.72039c-0.13847,-0.14875 -0.29424,-0.28038 -0.464,-0.39209c-0.36806,-0.24082 -0.79468,-0.37701 -1.23419,-0.39401c-0.05025,-0.00256 -0.10057,-0.00383 -0.15089,-0.00383c-0.275,-0.00213 -0.54871,0.03787 -0.8116,0.11862c-0.20813,0.0652 -0.40612,0.15919 -0.58822,0.27923c-0.40275,0.26523 -0.71955,0.63605 -0.9504,1.11248c-0.23085,0.47643 -0.34627,1.02898 -0.34627,1.65767c-0.0015,0.29369 0.02664,0.58677 0.08399,0.87481c0.0546,0.27319 0.14269,0.53861 0.26228,0.79023c0.12,0.25482 0.27613,0.49099 0.46356,0.70123c0.14378,0.15971 0.30739,0.30039 0.48684,0.41862c0.34586,0.22583 0.74374,0.35944 1.1558,0.38812c0.08117,0.00654 0.16257,0.00978 0.24401,0.00973zM296.04664,12.54303c0.29327,0.00246 0.58484,-0.04462 0.86243,-0.13924c0.18426,-0.06421 0.35982,-0.15107 0.52265,-0.2586c0.40275,-0.26523 0.71955,-0.63851 0.9504,-1.11985c0.14797,-0.31293 0.24829,-0.64624 0.29764,-0.98886c0.03308,-0.22386 0.04934,-0.44989 0.04863,-0.67618c0.00139,-0.27974 -0.02407,-0.55897 -0.07603,-0.83385c-0.05391,-0.28518 -0.14475,-0.56212 -0.27024,-0.82383c-0.12511,-0.26315 -0.28907,-0.506 -0.4864,-0.72039c-0.13847,-0.14875 -0.29424,-0.28038 -0.464,-0.39209c-0.36806,-0.24082 -0.79468,-0.37701 -1.23419,-0.39401c-0.05025,-0.00256 -0.10057,-0.00383 -0.15089,-0.00383c-0.31016,-0.00262 -0.61832,0.05002 -0.91003,0.15545c-0.16938,0.06247 -0.3312,0.14377 -0.48242,0.24239c-0.35813,0.23495 -0.65368,0.55355 -0.86111,0.9283c-0.0342,0.06034 -0.06644,0.12176 -0.09666,0.18419c-0.23085,0.47643 -0.34627,1.02898 -0.34627,1.65767c-0.0015,0.29369 0.02664,0.58677 0.08399,0.87481c0.0546,0.27319 0.14269,0.53861 0.26228,0.79023c0.12338,0.26223 0.28562,0.50435 0.48124,0.71818c0.14162,0.15308 0.30169,0.288 0.47653,0.40167c0.38311,0.2479 0.82736,0.38493 1.28355,0.39593c0.03628,0.0013 0.07259,0.00194 0.10889,0.00192zM258.92952,8.59408h5.05406c-0.03929,-0.4224 -0.167,-0.81287 -0.38311,-1.17142c-0.21611,-0.35855 -0.49853,-0.65079 -0.84725,-0.87672c-0.30973,-0.19919 -0.66605,-0.31418 -1.0338,-0.3336c-0.05563,-0.00356 -0.11135,-0.00533 -0.16709,-0.0053c-0.66798,0 -1.23773,0.21611 -1.70924,0.64833c-0.35098,0.32524 -0.61478,0.73332 -0.76724,1.18689c-0.06249,0.18003 -0.1114,0.36448 -0.14632,0.55182zM266.68006,8.59408h5.05406c-0.03929,-0.4224 -0.167,-0.81287 -0.38311,-1.17142c-0.21611,-0.35855 -0.49853,-0.65079 -0.84725,-0.87672c-0.30973,-0.19919 -0.66605,-0.31418 -1.0338,-0.3336c-0.05563,-0.00356 -0.11135,-0.00533 -0.16709,-0.0053c-0.66798,0 -1.23773,0.21611 -1.70924,0.64833c-0.35098,0.32524 -0.61478,0.73332 -0.76724,1.18689c-0.06249,0.18003 -0.1114,0.36448 -0.14632,0.55182zM309.14594,8.59408h5.05406c-0.03929,-0.4224 -0.167,-0.81287 -0.38311,-1.17142c-0.21611,-0.35855 -0.49853,-0.65079 -0.84725,-0.87672c-0.30973,-0.19919 -0.66605,-0.31418 -1.0338,-0.3336c-0.05563,-0.00356 -0.11135,-0.00533 -0.16709,-0.0053c-0.66798,0 -1.23773,0.21611 -1.70924,0.64833c-0.35098,0.32524 -0.61478,0.73332 -0.76724,1.18689c-0.06249,0.18003 -0.1114,0.36448 -0.14632,0.55182z" fill="#000000" fill-rule="evenodd" stroke="#000000" stroke-width="1" stroke-linecap="round"/></g></g></svg>