<svg version="1.1" xmlns="http://www.w3.org/2000/svg" xmlns:xlink="http://www.w3.org/1999/xlink" width="327.32733" height="563.61444" viewBox="0,0,327.32733,563.61444"><g transform="translate(7.30626,196.36472)"><g data-paper-data="{&quot;isPaintingLayer&quot;:true}" stroke-linejoin="miter" stroke-miterlimit="10" stroke-dasharray="" stroke-dashoffset="0" style="mix-blend-mode: normal"><g fill-rule="nonzero" stroke-linecap="butt"><path d="M-7.30626,367.24972v-563.61444h327.32733v563.61444z" fill-opacity="0.60476" fill="#b1ff00" stroke="none" stroke-width="0"/><g><path d="M56.49853,6.22646c0,-7.78097 0,-14.86472 0,-19.05396c0,-2.58374 2.71714,-5.50885 5.16748,-5.50885c4.22151,0 12.01347,0 19.84316,0c3.36645,0 5.65605,3.27388 5.65605,6.07258c0,4.29452 0,11.1398 0,18.71571c0,3.48096 -2.94622,5.87841 -5.54332,5.87841c-4.28218,0 -11.79944,0 -19.50493,0c-3.3434,0 -5.61847,-2.49693 -5.61847,-6.1039z" fill="#f0f6ff" stroke-opacity="0.25482" stroke="#2e4770" stroke-width="2.5"/><path d="M56.49853,6.22646c0,-7.78097 0,-14.86472 0,-19.05396c0,-2.58374 2.71714,-5.50885 5.16748,-5.50885c4.22151,0 12.01347,0 19.84316,0c3.36645,0 5.65605,3.27388 5.65605,6.07258c0,4.29452 0,11.1398 0,18.71571c0,3.48096 -2.94622,5.87841 -5.54332,5.87841c-4.28218,0 -11.79944,0 -19.50493,0c-3.3434,0 -5.61847,-2.49693 -5.61847,-6.1039z" fill="#f0f6ff" stroke="#2e4770" stroke-width="1"/><path d="M61.54237,-10.46791c0,-1.67138 1.35493,-3.02631 3.02631,-3.02631c1.67138,0 3.02631,1.35493 3.02631,3.02631c0,1.67138 -1.35493,3.02631 -3.02631,3.02631c-1.67138,0 -3.02631,-1.35493 -3.02631,-3.02631z" fill="#1c2f5a" stroke="#ffffff" stroke-width="0"/><path d="M75.86696,4.86544c0,-1.67138 1.35493,-3.02631 3.02631,-3.02631c1.67138,0 3.02631,1.35493 3.02631,3.02631c0,1.67138 -1.35493,3.02631 -3.02631,3.02631c-1.67138,0 -3.02631,-1.35493 -3.02631,-3.02631z" fill="#1c2f5a" stroke="#ffffff" stroke-width="0"/><path d="M75.86696,-10.26617c0,-1.67138 1.35493,-3.02631 3.02631,-3.02631c1.67138,0 3.02631,1.35493 3.02631,3.02631c0,1.67138 -1.35493,3.02631 -3.02631,3.02631c-1.67138,0 -3.02631,-1.35493 -3.02631,-3.02631z" fill="#1c2f5a" stroke="#ffffff" stroke-width="0"/><path d="M61.54237,4.66368c0,-1.67138 1.35493,-3.02631 3.02631,-3.02631c1.67138,0 3.02631,1.35493 3.02631,3.02631c0,1.67138 -1.35493,3.02631 -3.02631,3.02631c-1.67138,0 -3.02631,-1.35493 -3.02631,-3.02631z" fill="#1c2f5a" stroke="#ffffff" stroke-width="0"/><path d="M61.54237,-3.003c0,-1.67138 1.35493,-3.02631 3.02631,-3.02631c1.67138,0 3.02631,1.35493 3.02631,3.02631c0,1.67138 -1.35493,3.02631 -3.02631,3.02631c-1.67138,0 -3.02631,-1.35493 -3.02631,-3.02631z" fill="#1c2f5a" stroke="#ffffff" stroke-width="0"/><path d="M75.86696,-2.80123c0,-1.67138 1.35493,-3.02631 3.02631,-3.02631c1.67138,0 3.02631,1.35493 3.02631,3.02631c0,1.67138 -1.35493,3.02631 -3.02631,3.02631c-1.67138,0 -3.02631,-1.35493 -3.02631,-3.02631z" fill="#1c2f5a" stroke="#ffffff" stroke-width="0"/></g><g><path d="M108.04507,6.22646c0,-7.78097 0,-14.86472 0,-19.05396c0,-2.58374 2.71714,-5.50885 5.16748,-5.50885c4.22151,0 12.01347,0 19.84316,0c3.36645,0 5.65605,3.27388 5.65605,6.07258c0,4.29452 0,11.1398 0,18.71571c0,3.48096 -2.94622,5.87841 -5.54332,5.87841c-4.28218,0 -11.79944,0 -19.50493,0c-3.3434,0 -5.61847,-2.49693 -5.61847,-6.1039z" fill="#f0f6ff" stroke-opacity="0.25482" stroke="#2e4770" stroke-width="2.5"/><path d="M108.04507,6.22646c0,-7.78097 0,-14.86472 0,-19.05396c0,-2.58374 2.71714,-5.50885 5.16748,-5.50885c4.22151,0 12.01347,0 19.84316,0c3.36645,0 5.65605,3.27388 5.65605,6.07258c0,4.29452 0,11.1398 0,18.71571c0,3.48096 -2.94622,5.87841 -5.54332,5.87841c-4.28218,0 -11.79944,0 -19.50493,0c-3.3434,0 -5.61847,-2.49693 -5.61847,-6.1039z" fill="#f0f6ff" stroke="#2e4770" stroke-width="1"/><path d="M113.08892,-10.46791c0,-1.67138 1.35493,-3.02631 3.02631,-3.02631c1.67138,0 3.02631,1.35493 3.02631,3.02631c0,1.67138 -1.35493,3.02631 -3.02631,3.02631c-1.67138,0 -3.02631,-1.35493 -3.02631,-3.02631z" fill="#1c2f5a" stroke="#ffffff" stroke-width="0"/><path d="M127.41349,4.86544c0,-1.67138 1.35493,-3.02631 3.02631,-3.02631c1.67138,0 3.02631,1.35493 3.02631,3.02631c0,1.67138 -1.35493,3.02631 -3.02631,3.02631c-1.67138,0 -3.02631,-1.35493 -3.02631,-3.02631z" fill="#1c2f5a" stroke="#ffffff" stroke-width="0"/><path d="M127.41349,-10.26617c0,-1.67138 1.35493,-3.02631 3.02631,-3.02631c1.67138,0 3.02631,1.35493 3.02631,3.02631c0,1.67138 -1.35493,3.02631 -3.02631,3.02631c-1.67138,0 -3.02631,-1.35493 -3.02631,-3.02631z" fill="#1c2f5a" stroke="#ffffff" stroke-width="0"/><path d="M113.08892,4.66368c0,-1.67138 1.35493,-3.02631 3.02631,-3.02631c1.67138,0 3.02631,1.35493 3.02631,3.02631c0,1.67138 -1.35493,3.02631 -3.02631,3.02631c-1.67138,0 -3.02631,-1.35493 -3.02631,-3.02631z" fill="#1c2f5a" stroke="#ffffff" stroke-width="0"/><path d="M113.08892,-3.003c0,-1.67138 1.35493,-3.02631 3.02631,-3.02631c1.67138,0 3.02631,1.35493 3.02631,3.02631c0,1.67138 -1.35493,3.02631 -3.02631,3.02631c-1.67138,0 -3.02631,-1.35493 -3.02631,-3.02631z" fill="#1c2f5a" stroke="#ffffff" stroke-width="0"/><path d="M127.41349,-2.80123c0,-1.67138 1.35493,-3.02631 3.02631,-3.02631c1.67138,0 3.02631,1.35493 3.02631,3.02631c0,1.67138 -1.35493,3.02631 -3.02631,3.02631c-1.67138,0 -3.02631,-1.35493 -3.02631,-3.02631z" fill="#1c2f5a" stroke="#ffffff" stroke-width="0"/></g><g><path d="M161.85879,6.72195c0,-7.78097 0,-14.86472 0,-19.05396c0,-2.58374 2.71714,-5.50885 5.16748,-5.50885c4.22151,0 12.01347,0 19.84316,0c3.36645,0 5.65605,3.27388 5.65605,6.07258c0,4.29452 0,11.1398 0,18.71571c0,3.48096 -2.94622,5.87841 -5.54332,5.87841c-4.28218,0 -11.79944,0 -19.50493,0c-3.3434,0 -5.61847,-2.49693 -5.61847,-6.1039z" fill="#f0f6ff" stroke-opacity="0.25482" stroke="#2e4770" stroke-width="2.5"/><path d="M161.85879,6.72195c0,-7.78097 0,-14.86472 0,-19.05396c0,-2.58374 2.71714,-5.50885 5.16748,-5.50885c4.22151,0 12.01347,0 19.84316,0c3.36645,0 5.65605,3.27388 5.65605,6.07258c0,4.29452 0,11.1398 0,18.71571c0,3.48096 -2.94622,5.87841 -5.54332,5.87841c-4.28218,0 -11.79944,0 -19.50493,0c-3.3434,0 -5.61847,-2.49693 -5.61847,-6.1039z" fill="#f0f6ff" stroke="#2e4770" stroke-width="1"/><path d="M166.90264,-9.97242c0,-1.67138 1.35493,-3.02631 3.02631,-3.02631c1.67138,0 3.02631,1.35493 3.02631,3.02631c0,1.67138 -1.35493,3.02631 -3.02631,3.02631c-1.67138,0 -3.02631,-1.35493 -3.02631,-3.02631z" fill="#1c2f5a" stroke="#ffffff" stroke-width="0"/><path d="M181.22722,5.36093c0,-1.67138 1.35493,-3.02631 3.02631,-3.02631c1.67138,0 3.02631,1.35493 3.02631,3.02631c0,1.67138 -1.35493,3.02631 -3.02631,3.02631c-1.67138,0 -3.02631,-1.35493 -3.02631,-3.02631z" fill="#1c2f5a" stroke="#ffffff" stroke-width="0"/><path d="M181.22722,-9.77068c0,-1.67138 1.35493,-3.02631 3.02631,-3.02631c1.67138,0 3.02631,1.35493 3.02631,3.02631c0,1.67138 -1.35493,3.02631 -3.02631,3.02631c-1.67138,0 -3.02631,-1.35493 -3.02631,-3.02631z" fill="#1c2f5a" stroke="#ffffff" stroke-width="0"/><path d="M166.90264,5.15917c0,-1.67138 1.35493,-3.02631 3.02631,-3.02631c1.67138,0 3.02631,1.35493 3.02631,3.02631c0,1.67138 -1.35493,3.02631 -3.02631,3.02631c-1.67138,0 -3.02631,-1.35493 -3.02631,-3.02631z" fill="#1c2f5a" stroke="#ffffff" stroke-width="0"/><path d="M166.90264,-2.50751c0,-1.67138 1.35493,-3.02631 3.02631,-3.02631c1.67138,0 3.02631,1.35493 3.02631,3.02631c0,1.67138 -1.35493,3.02631 -3.02631,3.02631c-1.67138,0 -3.02631,-1.35493 -3.02631,-3.02631z" fill="#1c2f5a" stroke="#ffffff" stroke-width="0"/><path d="M181.22722,-2.30574c0,-1.67138 1.35493,-3.02631 3.02631,-3.02631c1.67138,0 3.02631,1.35493 3.02631,3.02631c0,1.67138 -1.35493,3.02631 -3.02631,3.02631c-1.67138,0 -3.02631,-1.35493 -3.02631,-3.02631z" fill="#1c2f5a" stroke="#ffffff" stroke-width="0"/></g><g><path d="M216.40835,6.72195c0,-7.78097 0,-14.86472 0,-19.05396c0,-2.58374 2.71714,-5.50885 5.16748,-5.50885c4.22151,0 12.01347,0 19.84316,0c3.36645,0 5.65605,3.27388 5.65605,6.07258c0,4.29452 0,11.1398 0,18.71571c0,3.48096 -2.94622,5.87841 -5.54332,5.87841c-4.28218,0 -11.79944,0 -19.50493,0c-3.3434,0 -5.61847,-2.49693 -5.61847,-6.1039z" fill="#f0f6ff" stroke-opacity="0.25482" stroke="#2e4770" stroke-width="2.5"/><path d="M216.40835,6.72195c0,-7.78097 0,-14.86472 0,-19.05396c0,-2.58374 2.71714,-5.50885 5.16748,-5.50885c4.22151,0 12.01347,0 19.84316,0c3.36645,0 5.65605,3.27388 5.65605,6.07258c0,4.29452 0,11.1398 0,18.71571c0,3.48096 -2.94622,5.87841 -5.54332,5.87841c-4.28218,0 -11.79944,0 -19.50493,0c-3.3434,0 -5.61847,-2.49693 -5.61847,-6.1039z" fill="#f0f6ff" stroke="#2e4770" stroke-width="1"/><path d="M221.4522,-9.97242c0,-1.67138 1.35493,-3.02631 3.02631,-3.02631c1.67138,0 3.02631,1.35493 3.02631,3.02631c0,1.67138 -1.35493,3.02631 -3.02631,3.02631c-1.67138,0 -3.02631,-1.35493 -3.02631,-3.02631z" fill="#1c2f5a" stroke="#ffffff" stroke-width="0"/><path d="M235.77678,5.36093c0,-1.67138 1.35493,-3.02631 3.02631,-3.02631c1.67138,0 3.02631,1.35493 3.02631,3.02631c0,1.67138 -1.35493,3.02631 -3.02631,3.02631c-1.67138,0 -3.02631,-1.35493 -3.02631,-3.02631z" fill="#1c2f5a" stroke="#ffffff" stroke-width="0"/><path d="M235.77678,-9.77068c0,-1.67138 1.35493,-3.02631 3.02631,-3.02631c1.67138,0 3.02631,1.35493 3.02631,3.02631c0,1.67138 -1.35493,3.02631 -3.02631,3.02631c-1.67138,0 -3.02631,-1.35493 -3.02631,-3.02631z" fill="#1c2f5a" stroke="#ffffff" stroke-width="0"/><path d="M221.4522,5.15917c0,-1.67138 1.35493,-3.02631 3.02631,-3.02631c1.67138,0 3.02631,1.35493 3.02631,3.02631c0,1.67138 -1.35493,3.02631 -3.02631,3.02631c-1.67138,0 -3.02631,-1.35493 -3.02631,-3.02631z" fill="#1c2f5a" stroke="#ffffff" stroke-width="0"/><path d="M221.4522,-2.50751c0,-1.67138 1.35493,-3.02631 3.02631,-3.02631c1.67138,0 3.02631,1.35493 3.02631,3.02631c0,1.67138 -1.35493,3.02631 -3.02631,3.02631c-1.67138,0 -3.02631,-1.35493 -3.02631,-3.02631z" fill="#1c2f5a" stroke="#ffffff" stroke-width="0"/><path d="M235.77678,-2.30574c0,-1.67138 1.35493,-3.02631 3.02631,-3.02631c1.67138,0 3.02631,1.35493 3.02631,3.02631c0,1.67138 -1.35493,3.02631 -3.02631,3.02631c-1.67138,0 -3.02631,-1.35493 -3.02631,-3.02631z" fill="#1c2f5a" stroke="#ffffff" stroke-width="0"/></g><g><path d="M270.95789,7.72796c0,-7.78097 0,-14.86472 0,-19.05396c0,-2.58374 2.71714,-5.50885 5.16748,-5.50885c4.22151,0 12.01347,0 19.84316,0c3.36645,0 5.65605,3.27388 5.65605,6.07258c0,4.29452 0,11.1398 0,18.71571c0,3.48096 -2.94622,5.87841 -5.54332,5.87841c-4.28218,0 -11.79944,0 -19.50493,0c-3.3434,0 -5.61847,-2.49693 -5.61847,-6.1039z" fill="#f0f6ff" stroke-opacity="0.25482" stroke="#2e4770" stroke-width="2.5"/><path d="M270.95789,7.72796c0,-7.78097 0,-14.86472 0,-19.05396c0,-2.58374 2.71714,-5.50885 5.16748,-5.50885c4.22151,0 12.01347,0 19.84316,0c3.36645,0 5.65605,3.27388 5.65605,6.07258c0,4.29452 0,11.1398 0,18.71571c0,3.48096 -2.94622,5.87841 -5.54332,5.87841c-4.28218,0 -11.79944,0 -19.50493,0c-3.3434,0 -5.61847,-2.49693 -5.61847,-6.1039z" fill="#f0f6ff" stroke="#2e4770" stroke-width="1"/><path d="M276.00175,-8.96641c0,-1.67138 1.35493,-3.02631 3.02631,-3.02631c1.67138,0 3.02631,1.35493 3.02631,3.02631c0,1.67138 -1.35493,3.02631 -3.02631,3.02631c-1.67138,0 -3.02631,-1.35493 -3.02631,-3.02631z" fill="#1c2f5a" stroke="#ffffff" stroke-width="0"/><path d="M290.32633,6.36694c0,-1.67138 1.35493,-3.02631 3.02631,-3.02631c1.67138,0 3.02631,1.35493 3.02631,3.02631c0,1.67138 -1.35493,3.02631 -3.02631,3.02631c-1.67138,0 -3.02631,-1.35493 -3.02631,-3.02631z" fill="#1c2f5a" stroke="#ffffff" stroke-width="0"/><path d="M290.32633,-8.76467c0,-1.67138 1.35493,-3.02631 3.02631,-3.02631c1.67138,0 3.02631,1.35493 3.02631,3.02631c0,1.67138 -1.35493,3.02631 -3.02631,3.02631c-1.67138,0 -3.02631,-1.35493 -3.02631,-3.02631z" fill="#1c2f5a" stroke="#ffffff" stroke-width="0"/><path d="M276.00175,6.16518c0,-1.67138 1.35493,-3.02631 3.02631,-3.02631c1.67138,0 3.02631,1.35493 3.02631,3.02631c0,1.67138 -1.35493,3.02631 -3.02631,3.02631c-1.67138,0 -3.02631,-1.35493 -3.02631,-3.02631z" fill="#1c2f5a" stroke="#ffffff" stroke-width="0"/><path d="M276.00175,-1.5015c0,-1.67138 1.35493,-3.02631 3.02631,-3.02631c1.67138,0 3.02631,1.35493 3.02631,3.02631c0,1.67138 -1.35493,3.02631 -3.02631,3.02631c-1.67138,0 -3.02631,-1.35493 -3.02631,-3.02631z" fill="#1c2f5a" stroke="#ffffff" stroke-width="0"/><path d="M290.32633,-1.29973c0,-1.67138 1.35493,-3.02631 3.02631,-3.02631c1.67138,0 3.02631,1.35493 3.02631,3.02631c0,1.67138 -1.35493,3.02631 -3.02631,3.02631c-1.67138,0 -3.02631,-1.35493 -3.02631,-3.02631z" fill="#1c2f5a" stroke="#ffffff" stroke-width="0"/></g></g><path d="M96.27999,181.87065c0.15986,0.00244 0.31323,-0.06312 0.42193,-0.18037c0.05878,-0.06093 0.11112,-0.13729 0.15702,-0.22908c0.04323,-0.08836 0.07853,-0.18038 0.10548,-0.27498l4.95203,-15.86261l4.91177,15.86261c0.01798,0.062 0.03922,0.12301 0.06361,0.18278c0.03865,0.09367 0.08267,0.17419 0.13205,0.24156c0.10858,0.16363 0.29239,0.26144 0.48876,0.26008c0.14845,0.003 0.2924,-0.05104 0.4022,-0.15098c0.06495,-0.05851 0.12239,-0.13407 0.17231,-0.22667c0.04513,-0.08509 0.08194,-0.17435 0.10991,-0.26652l5.75724,-17.67433c0.15729,-0.51667 0.07005,-0.81715 -0.26169,-0.90143c-0.07252,-0.01729 -0.14689,-0.02554 -0.22143,-0.02456c-0.33148,0 -0.57801,0.12051 -0.73958,0.36154c-0.06484,0.09958 -0.11412,0.20846 -0.14615,0.32289l-5.03255,15.86261l-4.95203,-15.86261c-0.01155,-0.03948 -0.02445,-0.07855 -0.03865,-0.11716c-0.03811,-0.10307 -0.0828,-0.19204 -0.13407,-0.26693c-0.11842,-0.19017 -0.32798,-0.3042 -0.55197,-0.30034c-0.15731,-0.00357 -0.31013,0.05269 -0.42757,0.15742c-0.07059,0.06254 -0.13219,0.14386 -0.1848,0.24398c-0.04675,0.09038 -0.08437,0.18519 -0.11233,0.28303l-4.91177,15.86261l-5.03255,-15.86261c-0.02182,-0.07561 -0.05052,-0.14906 -0.08575,-0.21942c-0.10038,-0.19835 -0.24572,-0.33322 -0.43602,-0.40462c-0.11669,-0.04189 -0.23999,-0.06235 -0.36395,-0.06039h-0.04026c-0.48313,0 -0.63075,0.30866 -0.44286,0.92599l5.75724,17.67433c0.10736,0.42945 0.3355,0.64417 0.68443,0.64417zM174.74755,163.43138c-0.5741,-0.37912 -1.19878,-0.6754 -1.8556,-0.88009c-0.82067,-0.2506 -1.67473,-0.37468 -2.53278,-0.36798c-0.15695,-0.00006 -0.31388,0.0037 -0.47064,0.01127c-1.43687,0.0528 -2.83254,0.49414 -4.03852,1.27706c-1.31518,0.85889 -2.34852,2.04657 -3.10005,3.56305c-0.75153,1.51648 -1.12729,3.25438 -1.12729,5.21373c-0.00136,0.62111 0.03925,1.24159 0.12159,1.85721c0.14979,1.16623 0.48951,2.30007 1.00571,3.35651c0.75153,1.51648 1.78488,2.70416 3.10005,3.56305c0.51888,0.33967 1.07674,0.61569 1.66155,0.82212c0.91571,0.31654 1.87878,0.47421 2.84762,0.46622c0.25852,0.00027 0.51694,-0.01007 0.77461,-0.031c1.28864,-0.09104 2.53261,-0.51 3.61378,-1.21707c1.26149,-0.83205 2.24117,-1.95934 2.93901,-3.38188v3.38188c-0.00004,0.03129 0.00076,0.06256 0.00242,0.09381c0.02577,0.47427 0.25311,0.7114 0.68201,0.7114c0.05312,0.00032 0.10617,-0.00372 0.15863,-0.01208c0.35054,-0.05824 0.5258,-0.32262 0.5258,-0.79313v-27.65892c0.00004,-0.03115 -0.00077,-0.06229 -0.00242,-0.0934c-0.02577,-0.47454 -0.25311,-0.7118 -0.68201,-0.7118c-0.05313,-0.00019 -0.10618,0.00399 -0.15863,0.01248c-0.35054,0.05798 -0.5258,0.32222 -0.5258,0.79273v13.40672c-0.69785,-1.42253 -1.67752,-2.54983 -2.93901,-3.38188zM300.44061,163.43138c-0.5741,-0.37912 -1.19878,-0.6754 -1.8556,-0.88009c-0.82067,-0.2506 -1.67473,-0.37468 -2.53278,-0.36798c-0.15695,-0.00006 -0.31388,0.0037 -0.47064,0.01127c-1.43687,0.0528 -2.83254,0.49414 -4.03852,1.27706c-1.31518,0.85889 -2.34852,2.04657 -3.10005,3.56305c-0.75153,1.51648 -1.12729,3.25438 -1.12729,5.21373c-0.00136,0.62111 0.03925,1.24159 0.12159,1.85721c0.14979,1.16623 0.48951,2.30007 1.00571,3.35651c0.75153,1.51648 1.78488,2.70416 3.10005,3.56305c0.51888,0.33967 1.07674,0.61569 1.66155,0.82212c0.91571,0.31654 1.87878,0.47421 2.84762,0.46622c0.25852,0.00027 0.51694,-0.01007 0.77461,-0.031c1.28864,-0.09104 2.53261,-0.51 3.61378,-1.21707c1.26149,-0.83205 2.24117,-1.95934 2.93901,-3.38188v3.38188c-0.00004,0.03129 0.00076,0.06256 0.00242,0.09381c0.02577,0.47427 0.25311,0.7114 0.68201,0.7114c0.05312,0.00032 0.10617,-0.00372 0.15863,-0.01208c0.35054,-0.05824 0.5258,-0.32262 0.5258,-0.79313v-27.65892c0.00004,-0.03115 -0.00077,-0.06229 -0.00242,-0.0934c-0.02577,-0.47454 -0.25311,-0.7118 -0.68201,-0.7118c-0.05313,-0.00019 -0.10618,0.00399 -0.15863,0.01248c-0.35054,0.05798 -0.5258,0.32222 -0.5258,0.79273v13.40672c-0.69785,-1.42253 -1.67752,-2.54983 -2.93901,-3.38188zM226.79343,171.52372c0.51721,-0.00859 0.77582,-0.25015 0.77582,-0.72469c0.00011,-0.3093 -0.01601,-0.61838 -0.04831,-0.92599c-0.1186,-1.07732 -0.42233,-2.12608 -0.89781,-3.10005c-0.63075,-1.31518 -1.55003,-2.40891 -2.75784,-3.28123c-0.64341,-0.46428 -1.3645,-0.81004 -2.12937,-1.021c-0.72303,-0.19647 -1.46953,-0.29319 -2.21875,-0.28746c-0.15695,-0.00006 -0.31388,0.0037 -0.47064,0.01127c-1.43687,0.0528 -2.83254,0.49414 -4.03852,1.27706c-1.31518,0.85889 -2.34852,2.04657 -3.10005,3.56305c-0.75153,1.51648 -1.12729,3.25438 -1.12729,5.21373c-0.00136,0.62111 0.03925,1.24159 0.12159,1.85721c0.14979,1.16623 0.48951,2.30007 1.00571,3.35651c0.75153,1.51648 1.78488,2.70416 3.10005,3.56305c0.51888,0.33967 1.07674,0.61569 1.66155,0.82212c0.91571,0.31654 1.87878,0.47421 2.84762,0.46622c0.26826,0.00031 0.53644,-0.00922 0.804,-0.02858c2.05275,-0.15111 3.75294,-0.89271 5.10059,-2.22479c0.78694,-0.79753 1.43156,-1.72388 1.90593,-2.73892c0.24156,-0.50997 0.14762,-0.87231 -0.28182,-1.08703c-0.00348,-0.00149 -0.00697,-0.00297 -0.01047,-0.00443c-0.42434,-0.1809 -0.75636,-0.03181 -0.99604,0.44729c-0.84735,1.76153 -2.00349,2.97779 -3.46844,3.6488c-0.96107,0.42506 -2.00303,0.6362 -3.05375,0.6188c-0.2384,0.00029 -0.4767,-0.00979 -0.71422,-0.0302c-1.20214,-0.08895 -2.35581,-0.51064 -3.33195,-1.21788c-0.46063,-0.33539 -0.87937,-0.7248 -1.24727,-1.1599c-0.55462,-0.66434 -0.99688,-1.4149 -1.30927,-2.22197c-0.20292,-0.51431 -0.36317,-1.04445 -0.4791,-1.58505c-0.21553,-0.99631 -0.29739,-2.06496 -0.24559,-3.20594h14.57428c0.0098,0.00008 0.01959,0.00008 0.02939,0zM236.18497,181.02519c-1.31518,-0.85889 -2.34852,-2.04657 -3.10005,-3.56305c-0.51619,-1.05645 -0.85592,-2.19028 -1.00571,-3.35651c-0.08233,-0.61562 -0.12295,-1.23611 -0.12159,-1.85721c0,-1.95934 0.37576,-3.69725 1.12729,-5.21373c0.75153,-1.51648 1.78488,-2.70416 3.10005,-3.56305c1.20599,-0.78292 2.60166,-1.22426 4.03852,-1.27706c0.15677,-0.00757 0.31369,-0.01133 0.47064,-0.01127c2.28143,0 4.22735,0.80521 5.83776,2.41563c0.37228,0.34758 0.41186,0.67208 0.11877,0.9735c-0.02505,0.0256 -0.05124,0.05005 -0.07851,0.07327c-0.05739,0.04493 -0.11981,0.08303 -0.186,0.11353c-0.29122,0.13125 -0.59156,0.05314 -0.90103,-0.23432c-1.34201,-1.28833 -2.93901,-1.9325 -4.79099,-1.9325c-0.84747,-0.00715 -1.68944,0.13668 -2.48648,0.42475c-0.4628,0.17068 -0.90495,0.39284 -1.31813,0.66228c-0.97854,0.64194 -1.78607,1.51248 -2.35282,2.53641c-0.09344,0.16486 -0.18153,0.3327 -0.26411,0.50326c-0.63075,1.30175 -0.94612,2.81152 -0.94612,4.5293c-0.0041,0.80244 0.07278,1.60326 0.22948,2.39026c0.14919,0.74645 0.38988,1.47165 0.71664,2.15917c0.33711,0.71651 0.7804,1.37805 1.31491,1.96229c0.38696,0.41826 0.8243,0.78691 1.30202,1.0975c1.0468,0.67734 2.26062,1.05176 3.50709,1.0818c0.09913,0.00355 0.19833,0.00529 0.29752,0.00523c1.85198,0 3.44898,-0.64417 4.79099,-1.9325c0.05216,-0.06085 0.1094,-0.11715 0.17111,-0.16829c0.29578,-0.24237 0.60109,-0.23995 0.91592,0.00725c0.37576,0.32208 0.36234,0.67101 -0.04026,1.04677c-1.5027,1.55055 -3.57185,2.42254 -5.73107,2.41522c-0.03556,0.00033 -0.07113,0.00047 -0.10669,0.0004c-0.96884,0.008 -1.93191,-0.14968 -2.84762,-0.46622c-0.58481,-0.20642 -1.14267,-0.48244 -1.66155,-0.82212zM139.8019,181.09484c0.00859,0.51721 0.25002,0.77582 0.72429,0.77582c0.48313,0 0.72469,-0.2684 0.72469,-0.80521v-11.23266c0,-1.10045 0.30866,-2.12709 0.92599,-3.07992c0.61733,-0.95283 1.44266,-1.72449 2.47602,-2.31497c1.03335,-0.59049 2.19419,-0.88573 3.48253,-0.88573c0.21472,0 0.42945,0.01342 0.64417,0.04026c0.21472,0.02684 0.41602,0.04026 0.60391,0.04026c0.42757,0 0.69301,-0.1389 0.79635,-0.4167c0.03455,-0.09893 0.05119,-0.20322 0.04912,-0.30799c0,-0.27726 -0.09877,-0.47051 -0.29632,-0.57975c-0.07732,-0.04129 -0.16079,-0.06984 -0.2472,-0.08455c-0.06816,-0.01248 -0.13662,-0.02322 -0.20533,-0.03221c-0.34329,-0.04563 -0.79152,-0.06844 -1.3447,-0.06844c-0.09665,0.00008 -0.19328,0.00169 -0.28988,0.00483c-1.3804,0.02747 -2.72741,0.42935 -3.89721,1.16272c-0.24519,0.15423 -0.48236,0.32086 -0.7106,0.49923c-0.84394,0.64672 -1.52444,1.48236 -1.98685,2.43978v-2.81823c0.00008,-0.00966 0.00008,-0.01933 0,-0.02899c-0.00886,-0.51748 -0.25042,-0.77622 -0.72469,-0.77622c-0.48313,0 -0.72469,0.2684 -0.72469,0.80521v17.63407c0.00005,0.0098 0.00019,0.01959 0.0004,0.02939zM196.89118,181.09484c0.00859,0.51721 0.25002,0.77582 0.72429,0.77582c0.48313,0 0.72469,-0.2684 0.72469,-0.80521v-11.23266c0,-1.10045 0.30866,-2.12709 0.92599,-3.07992c0.61733,-0.95283 1.44266,-1.72449 2.47602,-2.31497c1.03335,-0.59049 2.19419,-0.88573 3.48253,-0.88573c0.21472,0 0.42945,0.01342 0.64417,0.04026c0.21472,0.02684 0.41602,0.04026 0.60391,0.04026c0.42757,0 0.69301,-0.1389 0.79635,-0.4167c0.03455,-0.09893 0.05119,-0.20322 0.04912,-0.30799c0,-0.27726 -0.09877,-0.47051 -0.29632,-0.57975c-0.07732,-0.04129 -0.16079,-0.06984 -0.2472,-0.08455c-0.06816,-0.01248 -0.13662,-0.02322 -0.20533,-0.03221c-0.34329,-0.04563 -0.79152,-0.06844 -1.3447,-0.06844c-0.09665,0.00008 -0.19328,0.00169 -0.28988,0.00483c-1.3804,0.02747 -2.72741,0.42935 -3.89721,1.16272c-0.24519,0.15423 -0.48236,0.32086 -0.7106,0.49923c-0.84394,0.64672 -1.52444,1.48236 -1.98685,2.43978v-2.81823c0.00008,-0.00966 0.00008,-0.01933 0,-0.02899c-0.00886,-0.51748 -0.25042,-0.77622 -0.72469,-0.77622c-0.48313,0 -0.72469,0.2684 -0.72469,0.80521v17.63407c0.00005,0.0098 0.00019,0.01959 0.0004,0.02939zM273.42628,181.09484c0.00859,0.51721 0.25002,0.77582 0.72429,0.77582c0.48313,0 0.72469,-0.2684 0.72469,-0.80521v-11.23266c0,-1.10045 0.30866,-2.12709 0.92599,-3.07992c0.61733,-0.95283 1.44266,-1.72449 2.47602,-2.31497c1.03335,-0.59049 2.19419,-0.88573 3.48253,-0.88573c0.21472,0 0.42945,0.01342 0.64417,0.04026c0.21472,0.02684 0.41602,0.04026 0.60391,0.04026c0.42757,0 0.69301,-0.1389 0.79635,-0.4167c0.03455,-0.09893 0.05119,-0.20322 0.04912,-0.30799c0,-0.27726 -0.09877,-0.47051 -0.29632,-0.57975c-0.07732,-0.04129 -0.16079,-0.06984 -0.2472,-0.08455c-0.06816,-0.01248 -0.13662,-0.02322 -0.20533,-0.03221c-0.34329,-0.04563 -0.79152,-0.06844 -1.3447,-0.06844c-0.09665,0.00008 -0.19328,0.00169 -0.28988,0.00483c-1.3804,0.02747 -2.72741,0.42935 -3.89721,1.16272c-0.24519,0.15423 -0.48236,0.32086 -0.7106,0.49923c-0.84394,0.64672 -1.52444,1.48236 -1.98685,2.43978v-2.81823c0.00008,-0.00966 0.00008,-0.01933 0,-0.02899c-0.00886,-0.51748 -0.25042,-0.77622 -0.72469,-0.77622c-0.48313,0 -0.72469,0.2684 -0.72469,0.80521v17.63407c0.00005,0.0098 0.00019,0.01959 0.0004,0.02939zM154.81903,181.09484c0.00859,0.51721 0.25002,0.77582 0.72429,0.77582c0.05312,0.00032 0.10617,-0.00372 0.15863,-0.01208c0.35054,-0.05824 0.5258,-0.32262 0.5258,-0.79313v-27.65892c0.00004,-0.03115 -0.00077,-0.06229 -0.00242,-0.0934c-0.02577,-0.47454 -0.25311,-0.7118 -0.68201,-0.7118c-0.48313,0 -0.72469,0.2684 -0.72469,0.80521v27.65892c0.00005,0.0098 0.00019,0.01959 0.0004,0.02939zM121.16091,181.02519c-1.31518,-0.85889 -2.34852,-2.05328 -3.10005,-3.58318c-0.52765,-1.08915 -0.87129,-2.25815 -1.01698,-3.45958c-0.07461,-0.58847 -0.11145,-1.1811 -0.11031,-1.77428c0,-1.95934 0.37576,-3.69054 1.12729,-5.1936c0.75153,-1.50305 1.78488,-2.69074 3.10005,-3.56305c1.23558,-0.81511 2.67549,-1.26629 4.15528,-1.30202c0.11791,-0.00432 0.2359,-0.00647 0.35389,-0.00644c0.98181,-0.00831 1.95743,0.15618 2.88224,0.48594c0.57301,0.20867 1.11916,0.48479 1.62692,0.82252c1.24459,0.8306 2.26092,1.96016 2.95592,3.28525c0.04941,0.09188 0.09746,0.18449 0.14413,0.2778c0.75153,1.50305 1.12729,3.23425 1.12729,5.1936c0.00546,0.97527 -0.09812,1.9481 -0.3088,2.90036c-0.18066,0.80716 -0.45537,1.59034 -0.81849,2.33349c-0.43002,0.89243 -0.99976,1.71048 -1.68772,2.42328c-0.42693,0.43713 -0.90055,0.8261 -1.41234,1.1599c-1.20599,0.78292 -2.60166,1.22426 -4.03852,1.27706c-0.15677,0.00757 -0.31369,0.01133 -0.47064,0.01127c-0.96884,0.008 -1.93191,-0.14968 -2.84762,-0.46622c-0.58481,-0.20642 -1.14267,-0.48244 -1.66155,-0.82212zM254.78532,181.02519c-1.31518,-0.85889 -2.34852,-2.05328 -3.10005,-3.58318c-0.52765,-1.08915 -0.87129,-2.25815 -1.01698,-3.45958c-0.07461,-0.58847 -0.11145,-1.1811 -0.11031,-1.77428c0,-1.95934 0.37576,-3.69054 1.12729,-5.1936c0.75153,-1.50305 1.78488,-2.69074 3.10005,-3.56305c1.23558,-0.81511 2.67549,-1.26629 4.15528,-1.30202c0.11791,-0.00432 0.2359,-0.00647 0.35389,-0.00644c0.98181,-0.00831 1.95743,0.15618 2.88224,0.48594c0.57301,0.20867 1.11916,0.48479 1.62692,0.82252c1.24459,0.8306 2.26092,1.96016 2.95592,3.28525c0.04941,0.09188 0.09746,0.18449 0.14413,0.2778c0.75153,1.50305 1.12729,3.23425 1.12729,5.1936c0.00546,0.97527 -0.09812,1.9481 -0.3088,2.90036c-0.18066,0.80716 -0.45537,1.59034 -0.81849,2.33349c-0.43002,0.89243 -0.99976,1.71048 -1.68772,2.42328c-0.42693,0.43713 -0.90055,0.8261 -1.41234,1.1599c-1.20599,0.78292 -2.60166,1.22426 -4.03852,1.27706c-0.15677,0.00757 -0.31369,0.01133 -0.47064,0.01127c-0.96884,0.008 -1.93191,-0.14968 -2.84762,-0.46622c-0.58481,-0.20642 -1.14267,-0.48244 -1.66155,-0.82212zM125.37256,180.89917c-1.24646,-0.03004 -2.46029,-0.40446 -3.50709,-1.0818c-0.47772,-0.31059 -0.91507,-0.67924 -1.30202,-1.0975c-0.53451,-0.58424 -0.9778,-1.24578 -1.31491,-1.96229c-0.32675,-0.68752 -0.56745,-1.41271 -0.71664,-2.15917c-0.1567,-0.78701 -0.23358,-1.58782 -0.22948,-2.39026c0,-1.71778 0.31537,-3.22755 0.94612,-4.5293c0.08258,-0.17056 0.17066,-0.3384 0.26411,-0.50326c0.56675,-1.02392 1.37428,-1.89446 2.35282,-2.53641c0.41318,-0.26945 0.85533,-0.4916 1.31813,-0.66228c0.79704,-0.28807 1.63901,-0.43189 2.48648,-0.42475c0.13749,0 0.27495,0.00349 0.41227,0.01047c1.2009,0.04644 2.36656,0.41857 3.37221,1.07656c0.46386,0.30536 0.88949,0.66517 1.2678,1.07173c0.53913,0.58566 0.98713,1.24905 1.329,1.96793c0.34287,0.71505 0.59109,1.47175 0.73838,2.25096c0.14198,0.75105 0.21155,1.51399 0.20774,2.27834c0.00194,0.6183 -0.04247,1.23589 -0.13286,1.84755c-0.13484,0.93614 -0.40896,1.84684 -0.81326,2.70188c-0.63075,1.31518 -1.49635,2.33511 -2.5968,3.05979c-0.44489,0.29379 -0.92458,0.53113 -1.42804,0.70657c-0.75847,0.25854 -1.55515,0.38717 -2.35644,0.38046c-0.0992,0.00006 -0.19839,-0.00169 -0.29752,-0.00523zM170.06165,180.93943c-1.24646,-0.03004 -2.46029,-0.40446 -3.50709,-1.0818c-0.47772,-0.31059 -0.91507,-0.67924 -1.30202,-1.0975c-0.53451,-0.58424 -0.9778,-1.24578 -1.31491,-1.96229c-0.32675,-0.68752 -0.56745,-1.41271 -0.71664,-2.15917c-0.1567,-0.78701 -0.23358,-1.58782 -0.22948,-2.39026c0,-1.71778 0.31537,-3.22755 0.94612,-4.5293c0.08258,-0.17056 0.17066,-0.3384 0.26411,-0.50326c0.56675,-1.02392 1.37428,-1.89446 2.35282,-2.53641c0.41318,-0.26945 0.85533,-0.4916 1.31813,-0.66228c0.79704,-0.28807 1.63901,-0.43189 2.48648,-0.42475c0.13749,0 0.27495,0.00349 0.41227,0.01047c1.2009,0.04644 2.36656,0.41857 3.37221,1.07656c0.46386,0.30536 0.88949,0.66517 1.2678,1.07173c0.53913,0.58566 0.98713,1.24905 1.329,1.96793c0.34287,0.71505 0.59109,1.47175 0.73838,2.25096c0.14198,0.75105 0.21155,1.51399 0.20774,2.27834c0.00194,0.6183 -0.04247,1.23589 -0.13286,1.84755c-0.13484,0.93614 -0.40896,1.84684 -0.81326,2.70188c-0.63075,1.31518 -1.49635,2.33511 -2.5968,3.05979c-0.44489,0.29379 -0.92458,0.53113 -1.42804,0.70657c-0.75847,0.25854 -1.55515,0.38717 -2.35644,0.38046c-0.0992,0.00006 -0.19839,-0.00169 -0.29752,-0.00523zM258.99696,180.89917c-1.24646,-0.03004 -2.46029,-0.40446 -3.50709,-1.0818c-0.47772,-0.31059 -0.91507,-0.67924 -1.30202,-1.0975c-0.53451,-0.58424 -0.9778,-1.24578 -1.31491,-1.96229c-0.32675,-0.68752 -0.56745,-1.41271 -0.71664,-2.15917c-0.1567,-0.78701 -0.23358,-1.58782 -0.22948,-2.39026c0,-1.71778 0.31537,-3.22755 0.94612,-4.5293c0.08258,-0.17056 0.17066,-0.3384 0.26411,-0.50326c0.56675,-1.02392 1.37428,-1.89446 2.35282,-2.53641c0.41318,-0.26945 0.85533,-0.4916 1.31813,-0.66228c0.79704,-0.28807 1.63901,-0.43189 2.48648,-0.42475c0.13749,0 0.27495,0.00349 0.41227,0.01047c1.2009,0.04644 2.36656,0.41857 3.37221,1.07656c0.46386,0.30536 0.88949,0.66517 1.2678,1.07173c0.53913,0.58566 0.98713,1.24905 1.329,1.96793c0.34287,0.71505 0.59109,1.47175 0.73838,2.25096c0.14198,0.75105 0.21155,1.51399 0.20774,2.27834c0.00194,0.6183 -0.04247,1.23589 -0.13286,1.84755c-0.13484,0.93614 -0.40896,1.84684 -0.81326,2.70188c-0.63075,1.31518 -1.49635,2.33511 -2.5968,3.05979c-0.44489,0.29379 -0.92458,0.53113 -1.42804,0.70657c-0.75847,0.25854 -1.55515,0.38717 -2.35644,0.38046c-0.0992,0.00006 -0.19839,-0.00169 -0.29752,-0.00523zM295.75472,180.93943c-1.24646,-0.03004 -2.46029,-0.40446 -3.50709,-1.0818c-0.47772,-0.31059 -0.91507,-0.67924 -1.30202,-1.0975c-0.53451,-0.58424 -0.9778,-1.24578 -1.31491,-1.96229c-0.32675,-0.68752 -0.56745,-1.41271 -0.71664,-2.15917c-0.1567,-0.78701 -0.23358,-1.58782 -0.22948,-2.39026c0,-1.71778 0.31537,-3.22755 0.94612,-4.5293c0.08258,-0.17056 0.17066,-0.3384 0.26411,-0.50326c0.56675,-1.02392 1.37428,-1.89446 2.35282,-2.53641c0.41318,-0.26945 0.85533,-0.4916 1.31813,-0.66228c0.79704,-0.28807 1.63901,-0.43189 2.48648,-0.42475c0.13749,0 0.27495,0.00349 0.41227,0.01047c1.2009,0.04644 2.36656,0.41857 3.37221,1.07656c0.46386,0.30536 0.88949,0.66517 1.2678,1.07173c0.53913,0.58566 0.98713,1.24905 1.329,1.96793c0.34287,0.71505 0.59109,1.47175 0.73838,2.25096c0.14198,0.75105 0.21155,1.51399 0.20774,2.27834c0.00194,0.6183 -0.04247,1.23589 -0.13286,1.84755c-0.13484,0.93614 -0.40896,1.84684 -0.81326,2.70188c-0.63075,1.31518 -1.49635,2.33511 -2.5968,3.05979c-0.44489,0.29379 -0.92458,0.53113 -1.42804,0.70657c-0.75847,0.25854 -1.55515,0.38717 -2.35644,0.38046c-0.0992,0.00006 -0.19839,-0.00169 -0.29752,-0.00523zM212.75059,168.60685c0.41659,-1.2393 1.13737,-2.35431 2.09636,-3.24298c1.28833,-1.18097 2.84507,-1.77146 4.67021,-1.77146c0.1523,-0.00006 0.30456,0.00477 0.45655,0.01449c1.0048,0.05307 1.97838,0.36724 2.82467,0.9115c0.95283,0.61733 1.72449,1.41583 2.31497,2.3955c0.59049,0.97967 0.93941,2.04657 1.04677,3.2007h-13.80933c0.09541,-0.51187 0.22904,-1.01586 0.39979,-1.50775z" fill="#000000" fill-rule="evenodd" stroke="#000000" stroke-width="2" stroke-linecap="round"/><path d="M108.59475,235.67746v-11.82363c0,-0.49175 0.18318,-0.76791 0.54953,-0.8285c0.0548,-0.00887 0.11026,-0.01324 0.16578,-0.01305c0.44826,0 0.68585,0.24798 0.71279,0.74392c0.00173,0.03251 0.00257,0.06506 0.00252,0.09762v11.82363c0,2.13191 0.53298,3.73783 1.59893,4.81781c1.06595,1.07998 2.45449,1.61997 4.16562,1.61997c0.61542,0.00374 1.22924,-0.06289 1.8295,-0.1986c0.57327,-0.13085 1.12575,-0.34012 1.64184,-0.6219c0.99583,-0.547 1.77425,-1.26232 2.33528,-2.14592c0.35388,-0.54705 0.60458,-1.15428 0.73971,-1.79164c0.06803,-0.33117 0.10215,-0.6684 0.10183,-1.00648v-12.49687c0,-0.56102 0.25246,-0.84154 0.75738,-0.84154c0.44826,0 0.68585,0.24798 0.71279,0.74392c0.00173,0.03251 0.00257,0.06506 0.00252,0.09762v18.38765c0,0.49175 -0.18318,0.76805 -0.54953,0.82892c-0.05483,0.00873 -0.11027,0.01296 -0.16578,0.01263c-0.49567,0 -0.74799,-0.27027 -0.75696,-0.81082c-0.00023,-0.01023 -0.00037,-0.02048 -0.00042,-0.03072v-2.23008c-0.44117,0.71324 -1.00699,1.34135 -1.67046,1.85433c-0.32451,0.25369 -0.66615,0.48468 -1.02247,0.69132c-1.11084,0.64336 -2.36598,0.99619 -3.64934,1.02583c-0.10193,0.0034 -0.20391,0.00508 -0.3059,0.00505c-0.82775,0.00825 -1.65176,-0.11213 -2.44257,-0.35681c-1.04919,-0.33315 -1.99672,-0.92701 -2.75394,-1.726c-0.7878,-0.83416 -1.35275,-1.85335 -1.64268,-2.96348c-0.23731,-0.85612 -0.35597,-1.81085 -0.35597,-2.86418zM154.5428,232.3113h-15.23187c-0.05414,1.19246 0.03128,2.30932 0.25625,3.35059c0.1213,0.56501 0.28891,1.11908 0.50114,1.65657c0.32648,0.84349 0.78869,1.62791 1.36835,2.32223c0.3845,0.45473 0.82213,0.86172 1.30355,1.21224c1.02018,0.73915 2.22591,1.17987 3.48229,1.27283c0.24825,0.02133 0.49729,0.03186 0.74645,0.03156c1.09814,0.01818 2.18711,-0.20249 3.19154,-0.64673c1.53105,-0.70128 2.73935,-1.97243 3.62494,-3.81344c0.2505,-0.50072 0.5975,-0.65654 1.04098,-0.46748c0.00366,0.00153 0.0073,0.00306 0.01094,0.00463c0.44882,0.22441 0.547,0.6031 0.29454,1.13608c-0.49577,1.06084 -1.16947,2.02898 -1.99192,2.8625c-1.40845,1.39218 -3.18536,2.16725 -5.33074,2.32517c-0.27963,0.02024 -0.55991,0.0302 -0.84027,0.02988c-1.01255,0.00836 -2.01908,-0.15644 -2.97611,-0.48725c-0.6112,-0.21574 -1.19423,-0.50421 -1.73652,-0.85921c-1.37451,-0.89765 -2.45449,-2.13891 -3.23993,-3.72382c-0.53948,-1.10411 -0.89454,-2.28911 -1.05108,-3.50796c-0.08605,-0.6434 -0.1285,-1.29188 -0.12708,-1.94101c0,-2.04775 0.39271,-3.86407 1.17815,-5.44897c0.78544,-1.5849 1.86541,-2.82617 3.23993,-3.72382c1.2604,-0.81825 2.71904,-1.2795 4.22074,-1.33468c0.16384,-0.00791 0.32785,-0.01184 0.49188,-0.01178c0.78303,-0.00598 1.56321,0.0951 2.31887,0.30043c0.79938,0.22048 1.55301,0.58184 2.22545,1.06707c1.26232,0.91167 2.22307,2.05476 2.88227,3.42927c0.49693,1.01792 0.81437,2.114 0.93832,3.23993c0.03376,0.32149 0.05061,0.64452 0.05049,0.96777c0,0.49595 -0.27041,0.74841 -0.81125,0.75738c-0.0101,0.00009 -0.02019,0.00009 -0.0303,0zM93.27873,242.28355v-18.42972c0,-0.56102 0.25246,-0.84154 0.75738,-0.84154c0.49567,0 0.74813,0.27041 0.75738,0.81125c0.00009,0.0101 0.00009,0.02019 0,0.0303v2.94539c0.48327,-1.00063 1.19449,-1.87396 2.0765,-2.54987c0.23853,-0.18642 0.48641,-0.36056 0.74265,-0.52175c1.22257,-0.76646 2.63037,-1.18647 4.07306,-1.21519c0.10095,-0.00328 0.20195,-0.00496 0.30295,-0.00505c0.57814,0 1.04659,0.02385 1.40537,0.07153c0.07181,0.00939 0.14336,0.02063 0.21459,0.03366c0.09031,0.01538 0.17755,0.04521 0.25835,0.08836c0.20645,0.11417 0.30969,0.31614 0.30969,0.60591c0.00217,0.1095 -0.01522,0.2185 -0.05133,0.32189c-0.108,0.29033 -0.38542,0.4355 -0.83229,0.4355c-0.19636,0 -0.40674,-0.01403 -0.63116,-0.04208c-0.22441,-0.02805 -0.44882,-0.04208 -0.67323,-0.04208c-1.34647,0 -2.55968,0.30856 -3.63966,0.92569c-1.07998,0.61713 -1.94255,1.4236 -2.58774,2.41943c-0.64517,0.99583 -0.96777,2.06879 -0.96777,3.2189v11.73948c0,0.56102 -0.25246,0.84154 -0.75738,0.84154c-0.49567,0 -0.74799,-0.27027 -0.75696,-0.81082c-0.00023,-0.01023 -0.00037,-0.02048 -0.00042,-0.03072zM130.72723,242.28355v-28.9069c0,-0.56102 0.25246,-0.84154 0.75738,-0.84154c0.44826,0 0.68585,0.24798 0.71279,0.74392c0.00173,0.03251 0.00257,0.06506 0.00252,0.09762v28.9069c0,0.49175 -0.18318,0.76805 -0.54953,0.82892c-0.05483,0.00873 -0.11027,0.01296 -0.16578,0.01263c-0.49567,0 -0.74799,-0.27027 -0.75696,-0.81082c-0.00023,-0.01023 -0.00037,-0.02048 -0.00042,-0.03072zM139.47923,230.83861h14.43241c-0.11221,-1.20621 -0.47687,-2.32125 -1.094,-3.34512c-0.61713,-1.02387 -1.4236,-1.8584 -2.41943,-2.50358c-0.88447,-0.56882 -1.90199,-0.89716 -2.95213,-0.95262c-0.15885,-0.01016 -0.31798,-0.01521 -0.47716,-0.01515c-1.90749,0 -3.53446,0.61713 -4.88093,1.85139c-1.00226,0.92876 -1.75557,2.09408 -2.19095,3.38931c-0.17845,0.51409 -0.31811,1.04082 -0.41782,1.57578z" fill="#000000" fill-rule="evenodd" stroke="#000000" stroke-width="2" stroke-linecap="round"/><path d="M157.0381,304.22247v-4.60687c-0.66191,1.21791 -1.58858,2.19753 -2.78001,2.93887c-0.97045,0.59791 -2.06622,0.9629 -3.20138,1.06633c-0.30867,0.03085 -0.61871,0.04609 -0.92892,0.04567c-0.86197,0.00654 -1.71981,-0.11977 -2.54331,-0.37451c-0.59258,-0.18701 -1.15916,-0.44815 -1.68627,-0.77721c-1.23022,-0.77125 -2.23207,-1.85715 -2.90193,-3.14538c-0.00571,-0.01058 -0.01141,-0.02117 -0.01708,-0.03177c-0.5452,-1.04277 -0.88635,-2.18002 -1.00517,-3.35071c-0.04526,-0.41718 -0.06767,-0.83653 -0.06712,-1.25617c-0.00534,-0.86924 0.0963,-1.73583 0.30262,-2.58025c0.173,-0.69804 0.43151,-1.37207 0.76967,-2.00677c0.71486,-1.33705 1.68786,-2.38949 2.91901,-3.1573c1.05712,-0.65378 2.25794,-1.03947 3.49805,-1.12352c0.24339,-0.01892 0.48742,-0.02833 0.73154,-0.0282c0.78851,-0.00555 1.57387,0.1002 2.33283,0.31414c0.63317,0.18155 1.23809,0.45007 1.79748,0.79786c1.19143,0.74134 2.1181,1.7342 2.78001,2.97858v-2.81973c0,-0.46413 0.17289,-0.72479 0.51867,-0.78198c0.05173,-0.00838 0.10407,-0.0125 0.15647,-0.01231c0.42309,0 0.64735,0.23405 0.67276,0.70215c0.00162,0.03069 0.00242,0.06141 0.00238,0.09214v17.11692c0.00301,0.76713 -0.04089,1.53372 -0.13145,2.29549c-0.16707,1.35771 -0.49392,2.51869 -0.98055,3.48296c-0.29867,0.60255 -0.66738,1.16775 -1.0985,1.68389c-0.51368,0.61477 -1.13788,1.12798 -1.84037,1.51312c-1.14074,0.61508 -2.41019,0.95316 -3.70575,0.9869c-0.115,0.00402 -0.23005,0.006 -0.34512,0.00596c-1.13739,0.01277 -2.26859,-0.16896 -3.34475,-0.53734c-1.49684,-0.53373 -2.81447,-1.47566 -3.80385,-2.71925c-0.29309,-0.36643 -0.28197,-0.68772 0.03336,-0.96387c0.02759,-0.02413 0.05621,-0.04705 0.08578,-0.06871c0.05285,-0.03435 0.10899,-0.06336 0.16759,-0.08658c0.30739,-0.11994 0.59572,-0.01165 0.86498,0.32486c1.25142,1.54073 3.08846,2.49005 5.06915,2.61956c0.30845,0.02797 0.61802,0.04176 0.92773,0.0413c0.71015,0.00704 1.41788,-0.0837 2.10328,-0.26966c1.14694,-0.31124 2.16371,-0.98236 2.90074,-1.91463c0.51564,-0.65953 0.90967,-1.40564 1.16363,-2.20336c0.21896,-0.65873 0.37636,-1.38894 0.4722,-2.19065c0.07676,-0.66387 0.11402,-1.33172 0.1116,-2.00002zM219.90604,304.22247v-4.60687c-0.66191,1.21791 -1.58858,2.19753 -2.78001,2.93887c-0.97045,0.59791 -2.06622,0.9629 -3.20138,1.06633c-0.30867,0.03085 -0.61871,0.04609 -0.92892,0.04567c-0.86197,0.00654 -1.71981,-0.11977 -2.54331,-0.37451c-0.59258,-0.18701 -1.15916,-0.44815 -1.68627,-0.77721c-1.23022,-0.77125 -2.23207,-1.85715 -2.90193,-3.14538c-0.00571,-0.01058 -0.01141,-0.02117 -0.01708,-0.03177c-0.5452,-1.04277 -0.88635,-2.18002 -1.00517,-3.35071c-0.04526,-0.41718 -0.06767,-0.83653 -0.06712,-1.25617c-0.00534,-0.86924 0.0963,-1.73583 0.30262,-2.58025c0.173,-0.69804 0.43151,-1.37207 0.76967,-2.00677c0.71486,-1.33705 1.68786,-2.38949 2.91901,-3.1573c1.05712,-0.65378 2.25794,-1.03947 3.49805,-1.12352c0.24339,-0.01892 0.48742,-0.02833 0.73154,-0.0282c0.78851,-0.00555 1.57387,0.1002 2.33283,0.31414c0.63317,0.18155 1.23809,0.45007 1.79748,0.79786c1.19143,0.74134 2.1181,1.7342 2.78001,2.97858v-2.81973c0,-0.46413 0.17289,-0.72479 0.51867,-0.78198c0.05173,-0.00838 0.10407,-0.0125 0.15647,-0.01231c0.42309,0 0.64735,0.23405 0.67276,0.70215c0.00162,0.03069 0.00242,0.06141 0.00238,0.09214v17.11692c0.00301,0.76713 -0.04089,1.53372 -0.13145,2.29549c-0.16707,1.35771 -0.49392,2.51869 -0.98055,3.48296c-0.29867,0.60255 -0.66738,1.16775 -1.0985,1.68389c-0.51368,0.61477 -1.13788,1.12798 -1.84037,1.51312c-1.14074,0.61508 -2.41019,0.95316 -3.70575,0.9869c-0.115,0.00402 -0.23005,0.006 -0.34512,0.00596c-1.13739,0.01277 -2.26859,-0.16896 -3.34475,-0.53734c-1.49684,-0.53373 -2.81447,-1.47566 -3.80385,-2.71925c-0.29309,-0.36643 -0.28197,-0.68772 0.03336,-0.96387c0.02759,-0.02413 0.05621,-0.04705 0.08578,-0.06871c0.05285,-0.03435 0.10899,-0.06336 0.16759,-0.08658c0.30739,-0.11994 0.59572,-0.01165 0.86498,0.32486c1.25142,1.54073 3.08846,2.49005 5.06915,2.61956c0.30845,0.02797 0.61802,0.04176 0.92773,0.0413c0.71015,0.00704 1.41788,-0.0837 2.10328,-0.26966c1.14694,-0.31124 2.16371,-0.98236 2.90074,-1.91463c0.51564,-0.65953 0.90967,-1.40564 1.16363,-2.20336c0.21896,-0.65873 0.37636,-1.38894 0.4722,-2.19065c0.07676,-0.66387 0.11402,-1.33172 0.1116,-2.00002zM122.0894,304.50047v-17.39492c0,-0.52952 0.23829,-0.79429 0.71486,-0.79429c0.42309,0 0.64735,0.23405 0.67276,0.70215c0.00162,0.03069 0.00242,0.06141 0.00238,0.09214v2.14458c0.50543,-0.80444 1.16716,-1.49927 1.94601,-2.04331c0.19945,-0.14169 0.40483,-0.27485 0.61557,-0.39913c1.00342,-0.5875 2.13637,-0.91818 3.29828,-0.96268c0.13823,-0.00682 0.27662,-0.01026 0.41502,-0.01033c2.03867,0 3.68021,0.65529 4.92459,1.96586c0.7183,0.76972 1.23665,1.704 1.50955,2.72084c0.23802,0.83718 0.35703,1.77695 0.35703,2.81933v11.15976c0,0.46413 -0.17289,0.72492 -0.51867,0.78237c-0.05174,0.00824 -0.10408,0.01223 -0.15647,0.01191c-0.42309,0 -0.64735,-0.23392 -0.67276,-0.70175c-0.00163,-0.03082 -0.00243,-0.06167 -0.00238,-0.09253v-11.15976c0.00344,-0.56247 -0.04107,-1.12421 -0.13304,-1.67913c-0.10485,-0.60895 -0.27204,-1.1541 -0.50159,-1.63544c-0.21758,-0.46455 -0.51339,-0.88825 -0.87451,-1.25259c-0.82188,-0.81932 -1.89924,-1.33292 -3.05325,-1.45553c-0.29142,-0.03622 -0.58482,-0.05413 -0.87848,-0.05361c-0.6338,-0.0039 -1.26545,0.07405 -1.87929,0.23193c-0.47917,0.12503 -0.94158,0.30717 -1.3773,0.5425c-0.51286,0.27356 -0.98632,0.6153 -1.40748,1.0159c-0.30967,0.29708 -0.58369,0.62921 -0.81653,0.98968c-0.36688,0.55734 -0.61521,1.18418 -0.72955,1.84156c-0.04326,0.25761 -0.06492,0.51838 -0.06473,0.77959v11.8349c0,0.46413 -0.17289,0.72492 -0.51867,0.78237c-0.05174,0.00824 -0.10408,0.01223 -0.15647,0.01191c-0.46784,0 -0.70599,-0.2551 -0.71446,-0.7653c-0.00021,-0.00966 -0.00035,-0.01933 -0.0004,-0.02899zM164.50439,298.2653v-11.15976c0,-0.46413 0.17289,-0.72479 0.51867,-0.78198c0.05173,-0.00838 0.10407,-0.0125 0.15647,-0.01231c0.42309,0 0.64735,0.23405 0.67276,0.70215c0.00162,0.03069 0.00242,0.06141 0.00238,0.09214v11.15976c0,2.0122 0.50305,3.52796 1.50915,4.5473c1.0061,1.01934 2.31667,1.52901 3.93173,1.52901c0.58086,0.00353 1.16021,-0.05937 1.72678,-0.18745c0.54108,-0.1235 1.06254,-0.32102 1.54966,-0.58698c0.93991,-0.51629 1.67463,-1.19143 2.20415,-2.02544c0.334,-0.51634 0.57063,-1.08947 0.69818,-1.69104c0.06421,-0.31257 0.09641,-0.63087 0.09611,-0.94997v-11.79519c0,-0.52952 0.23829,-0.79429 0.71486,-0.79429c0.42309,0 0.64735,0.23405 0.67276,0.70215c0.00162,0.03069 0.00242,0.06141 0.00238,0.09214v17.35521c0,0.46413 -0.17289,0.72492 -0.51867,0.78237c-0.05174,0.00824 -0.10408,0.01223 -0.15647,0.01191c-0.46784,0 -0.70599,-0.2551 -0.71446,-0.7653c-0.00021,-0.00966 -0.00035,-0.01933 -0.0004,-0.02899v-2.10487c-0.4164,0.6732 -0.95045,1.26603 -1.57666,1.75022c-0.30629,0.23945 -0.62874,0.45747 -0.96506,0.65251c-1.04847,0.60724 -2.23314,0.94026 -3.44443,0.96824c-0.09621,0.0032 -0.19246,0.00479 -0.28872,0.00477c-0.78127,0.00778 -1.55902,-0.10584 -2.30542,-0.33678c-0.99028,-0.31444 -1.8846,-0.87495 -2.59931,-1.62909c-0.74357,-0.78732 -1.2768,-1.74929 -1.55045,-2.79709c-0.22399,-0.80806 -0.33598,-1.70918 -0.33598,-2.70336zM113.5508,296.20015v-4.01116c0,-1.25153 -0.15317,-2.22414 -0.4595,-2.91782c-0.02982,-0.0677 -0.06201,-0.13433 -0.09651,-0.19976c-0.35699,-0.68251 -0.96788,-1.1974 -1.70097,-1.43369c-0.01545,-0.0054 -0.03094,-0.01069 -0.04647,-0.01589c-0.55574,-0.18507 -1.23459,-0.3054 -2.03656,-0.361c-0.36644,-0.02472 -0.73362,-0.03678 -1.10088,-0.03614c-0.92323,0 -1.93978,0.14297 -3.04967,0.42892c-0.03591,0.00915 -0.07178,0.01842 -0.10763,0.0278c-0.65641,0.1718 -1.30176,0.38334 -1.9325,0.63345c-0.40332,0.16051 -0.7988,0.34009 -1.18508,0.53813c-0.41938,0.18666 -0.73631,0.14747 -0.95076,-0.11755c-0.03047,-0.03798 -0.05783,-0.07835 -0.08181,-0.12073c-0.26212,-0.39317 -0.148,-0.70837 0.34234,-0.9456c0.00502,-0.00254 0.01005,-0.00505 0.01509,-0.00755c0.62582,-0.32679 1.27384,-0.60919 1.93926,-0.84512c0.49211,-0.17554 0.99121,-0.33082 1.49604,-0.46545c0.53404,-0.14447 1.07496,-0.26217 1.62075,-0.35266c0.66694,-0.10908 1.29826,-0.16362 1.89398,-0.16362c0.61416,-0.00289 1.2279,0.0328 1.83759,0.10683c1.29998,0.16468 2.33124,0.51973 3.09375,1.06514c0.07928,0.05666 0.1565,0.11614 0.23154,0.17832c0.44668,0.3823 0.79737,0.86412 1.02384,1.40669c0.40297,0.91396 0.60445,2.11307 0.60445,3.59733v11.35833c-0.00041,0.08814 0.00476,0.17622 0.01549,0.2637c0.02383,0.18719 0.07585,0.32936 0.15608,0.42653c0.03483,0.04266 0.07775,0.07802 0.12629,0.10405c0.17077,0.09108 0.48319,0.11371 0.93726,0.06791c0.07826,-0.00804 0.15638,-0.01744 0.23432,-0.0282c0.03896,-0.00507 0.07802,-0.00931 0.11716,-0.01271c0.53085,-0.04633 0.79627,0.10352 0.79627,0.44957c0,0.42362 -0.22505,0.67515 -0.67515,0.75457c-0.39714,0.07943 -0.78105,0.11914 -1.15172,0.11914c-0.49855,0 -0.88298,-0.05295 -1.15331,-0.15886c-0.06885,-0.02635 -0.13485,-0.05962 -0.19698,-0.09929c-0.14068,-0.0936 -0.25304,-0.22395 -0.32486,-0.37689c-0.04898,-0.09902 -0.08737,-0.21181 -0.11517,-0.33837c-0.01582,-0.07202 -0.02801,-0.14479 -0.03654,-0.21803c-0.05295,-0.4501 -0.07943,-1.07229 -0.07943,-1.86658c-0.50983,0.59341 -1.11833,1.09429 -1.79867,1.48055c-0.16506,0.09488 -0.33342,0.1839 -0.50477,0.26688c-0.92667,0.4501 -1.91291,0.78105 -2.95873,0.99286c-0.65972,0.13536 -1.32732,0.22901 -1.99883,0.28038c-0.33263,0.02474 -0.66606,0.03719 -0.99961,0.03733c-1.43263,0 -2.63386,-0.27575 -3.60369,-0.82725c-0.21135,-0.12007 -0.41387,-0.25505 -0.60604,-0.4039c-1.05905,-0.82077 -1.58858,-2.02544 -1.58858,-3.61401c-0.00422,-1.18807 0.45083,-2.33181 1.27007,-3.19225c0.01343,-0.0149 0.02693,-0.02972 0.04051,-0.04448c0.62328,-0.66363 1.34894,-1.22302 2.14935,-1.65689c0.38999,-0.21395 0.79295,-0.40336 1.20652,-0.56712c1.36353,-0.54277 2.77339,-0.81415 4.22959,-0.81415c1.53509,0 2.81747,0.24676 3.84714,0.74028c0.48122,0.22732 0.92491,0.52678 1.31574,0.88801zM198.14253,296.20015v-4.01116c0,-1.25153 -0.15317,-2.22414 -0.4595,-2.91782c-0.02982,-0.0677 -0.06201,-0.13433 -0.09651,-0.19976c-0.35699,-0.68251 -0.96788,-1.1974 -1.70097,-1.43369c-0.01545,-0.0054 -0.03094,-0.01069 -0.04647,-0.01589c-0.55574,-0.18507 -1.23459,-0.3054 -2.03656,-0.361c-0.36644,-0.02472 -0.73362,-0.03678 -1.10088,-0.03614c-0.92323,0 -1.93978,0.14297 -3.04967,0.42892c-0.03591,0.00915 -0.07178,0.01842 -0.10763,0.0278c-0.65641,0.1718 -1.30176,0.38334 -1.9325,0.63345c-0.40332,0.16051 -0.7988,0.34009 -1.18508,0.53813c-0.41938,0.18666 -0.73631,0.14747 -0.95076,-0.11755c-0.03047,-0.03798 -0.05783,-0.07835 -0.08181,-0.12073c-0.26212,-0.39317 -0.148,-0.70837 0.34234,-0.9456c0.00502,-0.00254 0.01005,-0.00505 0.01509,-0.00755c0.62582,-0.32679 1.27384,-0.60919 1.93926,-0.84512c0.49211,-0.17554 0.99121,-0.33082 1.49604,-0.46545c0.53404,-0.14447 1.07496,-0.26217 1.62075,-0.35266c0.66694,-0.10908 1.29826,-0.16362 1.89398,-0.16362c0.61416,-0.00289 1.2279,0.0328 1.83759,0.10683c1.29998,0.16468 2.33124,0.51973 3.09375,1.06514c0.07928,0.05666 0.1565,0.11614 0.23154,0.17832c0.44668,0.3823 0.79737,0.86412 1.02384,1.40669c0.40297,0.91396 0.60445,2.11307 0.60445,3.59733v11.35833c-0.00041,0.08814 0.00476,0.17622 0.01549,0.2637c0.02383,0.18719 0.07585,0.32936 0.15608,0.42653c0.03483,0.04266 0.07775,0.07802 0.12629,0.10405c0.17077,0.09108 0.48319,0.11371 0.93726,0.06791c0.07826,-0.00804 0.15638,-0.01744 0.23432,-0.0282c0.03896,-0.00507 0.07802,-0.00931 0.11716,-0.01271c0.53085,-0.04633 0.79627,0.10352 0.79627,0.44957c0,0.42362 -0.22505,0.67515 -0.67515,0.75457c-0.39714,0.07943 -0.78105,0.11914 -1.15172,0.11914c-0.49855,0 -0.88298,-0.05295 -1.15331,-0.15886c-0.06885,-0.02635 -0.13485,-0.05962 -0.19698,-0.09929c-0.14068,-0.0936 -0.25304,-0.22395 -0.32486,-0.37689c-0.04898,-0.09902 -0.08737,-0.21181 -0.11517,-0.33837c-0.01582,-0.07202 -0.02801,-0.14479 -0.03654,-0.21803c-0.05295,-0.4501 -0.07943,-1.07229 -0.07943,-1.86658c-0.50983,0.59341 -1.11833,1.09429 -1.79867,1.48055c-0.16506,0.09488 -0.33342,0.1839 -0.50477,0.26688c-0.92667,0.4501 -1.91291,0.78105 -2.95873,0.99286c-0.65972,0.13536 -1.32732,0.22901 -1.99883,0.28038c-0.33263,0.02474 -0.66606,0.03719 -0.99961,0.03733c-1.43263,0 -2.63386,-0.27575 -3.60369,-0.82725c-0.21135,-0.12007 -0.41387,-0.25505 -0.60604,-0.4039c-1.05905,-0.82077 -1.58858,-2.02544 -1.58858,-3.61401c-0.00422,-1.18807 0.45083,-2.33181 1.27007,-3.19225c0.01343,-0.0149 0.02693,-0.02972 0.04051,-0.04448c0.62328,-0.66363 1.34894,-1.22302 2.14935,-1.65689c0.38999,-0.21395 0.79295,-0.40336 1.20652,-0.56712c1.36353,-0.54277 2.77339,-0.81415 4.22959,-0.81415c1.53509,0 2.81747,0.24676 3.84714,0.74028c0.48122,0.22732 0.92491,0.52678 1.31574,0.88801zM242.38444,295.08815h-14.37663c-0.0511,1.12551 0.02952,2.17966 0.24186,3.16246c0.11449,0.53328 0.27269,1.05624 0.473,1.56356c0.30815,0.79613 0.74441,1.53651 1.29151,2.19184c0.36291,0.4292 0.77597,0.81334 1.23035,1.14417c0.9629,0.69765 2.10093,1.11362 3.28677,1.20136c0.2343,0.02013 0.46937,0.03007 0.70453,0.02979c1.03648,0.01716 2.0643,-0.19111 3.01234,-0.61041c1.44508,-0.66191 2.58554,-1.86168 3.4214,-3.59932c0.23643,-0.4726 0.56395,-0.61968 0.98254,-0.44123c0.00345,0.00144 0.00689,0.0029 0.01033,0.00437c0.42362,0.21181 0.51629,0.56924 0.278,1.07229c-0.46794,1.00128 -1.10381,1.91506 -1.88008,2.70177c-1.32937,1.31402 -3.00651,2.04556 -5.03142,2.19462c-0.26393,0.0191 -0.52848,0.0285 -0.7931,0.0282c-0.9557,0.00789 -1.90571,-0.14765 -2.809,-0.45989c-0.57688,-0.20362 -1.12717,-0.4759 -1.63901,-0.81097c-1.29734,-0.84724 -2.31667,-2.01882 -3.05801,-3.51473c-0.50919,-1.04212 -0.84431,-2.16058 -0.99207,-3.31099c-0.08122,-0.60727 -0.12128,-1.21934 -0.11994,-1.83203c0,-1.93277 0.37067,-3.64711 1.112,-5.14302c0.74134,-1.49591 1.76067,-2.66749 3.05801,-3.51473c1.18963,-0.77231 2.56637,-1.20766 3.98376,-1.25974c0.15464,-0.00747 0.30944,-0.01118 0.46426,-0.01112c0.73907,-0.00565 1.47544,0.08975 2.18866,0.28356c0.7545,0.2081 1.46581,0.54917 2.1005,1.00716c1.19143,0.86048 2.09824,1.93939 2.72044,3.23673c0.46903,0.96076 0.76864,1.9953 0.88563,3.05801c0.03186,0.30343 0.04777,0.60833 0.04766,0.91343c0,0.4681 -0.25523,0.70639 -0.76569,0.71486c-0.00953,0.00008 -0.01906,0.00008 -0.02859,0zM92.97872,304.50047v-27.28382c0,-0.52952 0.23829,-0.79429 0.71486,-0.79429c0.42309,0 0.64735,0.23405 0.67276,0.70215c0.00162,0.03069 0.00242,0.06141 0.00238,0.09214v27.28382c0,0.46413 -0.17289,0.72492 -0.51867,0.78237c-0.05174,0.00824 -0.10408,0.01223 -0.15647,0.01191c-0.46784,0 -0.70599,-0.2551 -0.71446,-0.7653c-0.00021,-0.00966 -0.00035,-0.01933 -0.0004,-0.02899zM150.12777,302.27646c0.72886,0.0055 1.45418,-0.10194 2.15014,-0.31851c0.48567,-0.15422 0.95061,-0.36735 1.38445,-0.63464c0.97682,-0.60488 1.78392,-1.44806 2.34553,-2.45038c0.03997,-0.06958 0.07889,-0.13975 0.11676,-0.21049c0.43682,-0.82753 0.71916,-1.72773 0.83321,-2.6565c0.05441,-0.42288 0.08121,-0.84886 0.08022,-1.27523c0.00418,-0.70181 -0.07217,-1.40179 -0.22756,-2.0862c-0.14586,-0.63652 -0.37654,-1.25057 -0.68587,-1.82567c-0.44631,-0.84206 -1.06017,-1.58391 -1.80383,-2.17993c-0.21013,-0.16665 -0.43,-0.32062 -0.65847,-0.46108c-0.90336,-0.55104 -1.92822,-0.8718 -2.98454,-0.93408c-0.18307,-0.01273 -0.36653,-0.01909 -0.55004,-0.01906c-0.80307,-0.00643 -1.60093,0.12937 -2.35665,0.40112c-0.39697,0.14533 -0.7783,0.33028 -1.13822,0.55203c-1.02458,0.63404 -1.864,1.52688 -2.4337,2.58859c-0.0096,0.01744 -0.01913,0.03491 -0.02859,0.05242c-0.42519,0.79662 -0.70366,1.66321 -0.82209,2.5584c-0.06195,0.44848 -0.09248,0.90074 -0.09134,1.35347c0,1.48267 0.30448,2.79325 0.91343,3.93173c0.39896,0.7605 0.93356,1.44168 1.57746,2.00995c0.27638,0.24113 0.57235,0.45886 0.88484,0.65092c0.97214,0.59452 2.08402,0.92181 3.22322,0.94878c0.09052,0.00304 0.18108,0.00449 0.27165,0.00437zM212.99575,302.27646c0.72886,0.0055 1.45418,-0.10194 2.15014,-0.31851c0.48567,-0.15422 0.95061,-0.36735 1.38445,-0.63464c0.97682,-0.60488 1.78392,-1.44806 2.34553,-2.45038c0.03997,-0.06958 0.07889,-0.13975 0.11676,-0.21049c0.43682,-0.82753 0.71916,-1.72773 0.83321,-2.6565c0.05441,-0.42288 0.08121,-0.84886 0.08022,-1.27523c0.00418,-0.70181 -0.07217,-1.40179 -0.22756,-2.0862c-0.14586,-0.63652 -0.37654,-1.25057 -0.68587,-1.82567c-0.44631,-0.84206 -1.06017,-1.58391 -1.80383,-2.17993c-0.21013,-0.16665 -0.43,-0.32062 -0.65847,-0.46108c-0.90336,-0.55104 -1.92822,-0.8718 -2.98454,-0.93408c-0.18307,-0.01273 -0.36653,-0.01909 -0.55004,-0.01906c-0.80307,-0.00643 -1.60093,0.12937 -2.35665,0.40112c-0.39697,0.14533 -0.7783,0.33028 -1.13822,0.55203c-1.02458,0.63404 -1.864,1.52688 -2.4337,2.58859c-0.0096,0.01744 -0.01913,0.03491 -0.02859,0.05242c-0.42519,0.79662 -0.70366,1.66321 -0.82209,2.5584c-0.06195,0.44848 -0.09248,0.90074 -0.09134,1.35347c0,1.48267 0.30448,2.79325 0.91343,3.93173c0.39896,0.7605 0.93356,1.44168 1.57746,2.00995c0.27638,0.24113 0.57235,0.45886 0.88484,0.65092c0.97214,0.59452 2.08402,0.92181 3.22322,0.94878c0.09052,0.00304 0.18108,0.00449 0.27165,0.00437zM228.16667,293.69814h13.62205c-0.10591,-1.13848 -0.4501,-2.19091 -1.03258,-3.1573c-0.58248,-0.96638 -1.34367,-1.75406 -2.28358,-2.36301c-0.83481,-0.53688 -1.7952,-0.84679 -2.78636,-0.89913c-0.14993,-0.00959 -0.30013,-0.01436 -0.45036,-0.0143c-1.80039,0 -3.33601,0.58248 -4.60687,1.74744c-0.94599,0.87662 -1.65699,1.97651 -2.06793,3.199c-0.16843,0.48522 -0.30025,0.98238 -0.39436,1.48731zM105.48878,304.34161c1.01065,0.00479 2.01811,-0.11377 3.00003,-0.35306c0.34162,-0.08474 0.67904,-0.1856 1.01113,-0.30223c1.24438,-0.43686 2.25049,-1.06567 3.0183,-1.88644c0.76781,-0.82077 1.112,-1.82686 1.03258,-3.0183c-0.05388,-0.74051 -0.44008,-1.41683 -1.05045,-1.83957c-0.14571,-0.10616 -0.29903,-0.20146 -0.4587,-0.28515c-0.42689,-0.22106 -0.87987,-0.38758 -1.34831,-0.49564c-0.41568,-0.09955 -0.86657,-0.16799 -1.35267,-0.20532c-0.3038,-0.0229 -0.60837,-0.03417 -0.91303,-0.03376c-1.19143,0 -2.36301,0.20519 -3.51473,0.61557c-0.5841,0.2049 -1.14482,0.47115 -1.67277,0.79429c-0.43441,0.26703 -0.8389,0.57991 -1.20652,0.93329c-0.34064,0.32181 -0.61988,0.70293 -0.82407,1.12471c-0.21988,0.46799 -0.33184,0.97939 -0.32764,1.49644c-0.0038,0.35764 0.04259,0.71404 0.13781,1.05879c0.17967,0.65017 0.59863,1.2083 1.17277,1.56237c0.87372,0.556 1.97249,0.834 3.2963,0.834zM190.08053,304.34161c1.01065,0.00479 2.01811,-0.11377 3.00003,-0.35306c0.34162,-0.08474 0.67904,-0.1856 1.01113,-0.30223c1.24438,-0.43686 2.25049,-1.06567 3.0183,-1.88644c0.76781,-0.82077 1.112,-1.82686 1.03258,-3.0183c-0.05388,-0.74051 -0.44008,-1.41683 -1.05045,-1.83957c-0.14571,-0.10616 -0.29903,-0.20146 -0.4587,-0.28515c-0.42689,-0.22106 -0.87987,-0.38758 -1.34831,-0.49564c-0.41568,-0.09955 -0.86657,-0.16799 -1.35267,-0.20532c-0.3038,-0.0229 -0.60837,-0.03417 -0.91303,-0.03376c-1.19143,0 -2.36301,0.20519 -3.51473,0.61557c-0.5841,0.2049 -1.14482,0.47115 -1.67277,0.79429c-0.43441,0.26703 -0.8389,0.57991 -1.20652,0.93329c-0.34064,0.32181 -0.61988,0.70293 -0.82407,1.12471c-0.21988,0.46799 -0.33184,0.97939 -0.32764,1.49644c-0.0038,0.35764 0.04259,0.71404 0.13781,1.05879c0.17967,0.65017 0.59863,1.2083 1.17277,1.56237c0.87372,0.556 1.97249,0.834 3.2963,0.834z" fill="#000000" fill-rule="evenodd" stroke="#000000" stroke-width="2" stroke-linecap="round"/><path d="M133.35459,126.62235v-17.36085c0,-0.52849 0.23782,-0.79273 0.71346,-0.79273c0.42226,0 0.64594,0.23359 0.67105,0.70078c0.00175,0.03062 0.00268,0.06129 0.00277,0.09196v2.53674c0.44922,-1.0834 1.1957,-1.98844 2.23947,-2.71511c1.04377,-0.72667 2.21305,-1.09001 3.50784,-1.09001c0.55982,-0.00339 1.11869,0.04638 1.6691,0.14864c0.91746,0.17652 1.70213,0.51012 2.35402,1.00083c1.01734,0.76631 1.65813,1.8365 1.92238,3.21057c0.44922,-1.24195 1.16268,-2.27911 2.14038,-3.11148c0.89737,-0.76393 2.08423,-1.17721 3.56056,-1.23983c0.13429,-0.00576 0.26869,-0.00867 0.4031,-0.00872c2.03468,0 3.59372,0.59455 4.67712,1.78365c1.0834,1.1891 1.6251,3.03881 1.6251,5.54913v11.29644c0,0.46322 -0.17268,0.7235 -0.51805,0.78084c-0.05151,0.00821 -0.10361,0.01218 -0.15577,0.01189c-0.46718,0 -0.705,-0.2546 -0.71346,-0.7638c-0.00008,-0.00965 -0.00008,-0.01929 0,-0.02893v-11.29644c0,-2.29892 -0.44922,-3.86457 -1.34765,-4.69694c-0.62655,-0.57371 -1.4005,-0.96158 -2.23511,-1.12013c-0.43856,-0.08786 -0.88492,-0.13089 -1.33219,-0.12842c-0.62273,-0.00507 -1.24201,0.09283 -1.8328,0.28974c-0.41687,0.14189 -0.81342,0.33763 -1.17959,0.58226c-0.87201,0.58134 -1.54583,1.32122 -2.02147,2.21965c-0.47564,0.89843 -0.71346,1.8365 -0.71346,2.8142v11.33608c0,0.46322 -0.17268,0.7235 -0.51805,0.78084c-0.05151,0.00821 -0.10361,0.01218 -0.15577,0.01189c-0.46718,0 -0.705,-0.2546 -0.71346,-0.7638c-0.00008,-0.00965 -0.00008,-0.01929 0,-0.02893v-11.29644c0,-2.29892 -0.44922,-3.86457 -1.34765,-4.69694c-0.62655,-0.57371 -1.4005,-0.96158 -2.23511,-1.12013c-0.43856,-0.08786 -0.88492,-0.13089 -1.33219,-0.12842c-0.65047,-0.00573 -1.29662,0.10613 -1.90731,0.33017c-0.39131,0.14665 -0.76259,0.34201 -1.10507,0.58147c-0.68459,0.46941 -1.27296,1.06558 -1.73331,1.7563c-0.10328,0.15663 -0.19943,0.31786 -0.28816,0.48317c-0.25611,0.46929 -0.44934,0.97023 -0.57473,1.48994c-0.09192,0.38848 -0.13847,0.78632 -0.13873,1.18553v11.41535c0,0.46322 -0.17268,0.7235 -0.51805,0.78084c-0.05151,0.00821 -0.10361,0.01218 -0.15577,0.01189c-0.46718,0 -0.705,-0.2546 -0.71346,-0.7638c-0.00008,-0.00965 -0.00008,-0.01929 0,-0.02893zM104.30094,126.34489v-4.59785c-0.66061,1.21552 -1.58547,2.19323 -2.77456,2.93311c-0.96855,0.59674 -2.06218,0.96101 -3.19511,1.06424c-0.30807,0.03079 -0.6175,0.046 -0.9271,0.04558c-0.86042,0.00657 -1.71671,-0.1195 -2.53873,-0.37377c-0.59129,-0.18668 -1.15662,-0.4473 -1.68258,-0.77569c-1.22796,-0.76968 -2.22799,-1.85346 -2.89665,-3.13922c-0.00557,-0.01056 -0.01112,-0.02113 -0.01665,-0.03171c-0.54426,-1.0407 -0.88489,-2.17573 -1.0036,-3.34414c-0.04504,-0.41637 -0.06727,-0.8349 -0.06659,-1.25371c-0.00533,-0.86754 0.09611,-1.73243 0.30203,-2.57519c0.17267,-0.69668 0.43067,-1.36938 0.76816,-2.00284c0.71346,-1.33443 1.68456,-2.3848 2.91329,-3.15111c1.05493,-0.65244 2.25325,-1.03737 3.4908,-1.12132c0.24304,-0.01889 0.48673,-0.02828 0.7305,-0.02814c0.78684,-0.0055 1.57052,0.10004 2.32786,0.31353c0.63207,0.18116 1.23594,0.44915 1.79435,0.7963c1.1891,0.73988 2.11395,1.7308 2.77456,2.97275v-2.8142c0,-0.46322 0.17255,-0.72337 0.51765,-0.78045c0.05163,-0.00836 0.10386,-0.01247 0.15617,-0.01229c0.42226,0 0.64594,0.23359 0.67105,0.70078c0.00175,0.03062 0.00268,0.06129 0.00277,0.09196v17.08339c0.00301,0.76563 -0.04081,1.53072 -0.1312,2.291c-0.167,1.35504 -0.49321,2.51376 -0.97863,3.47613c-0.29821,0.60139 -0.66633,1.16548 -1.09675,1.68059c-0.51256,0.61353 -1.1354,1.12573 -1.83637,1.51016c-1.13863,0.61394 -2.40573,0.95135 -3.69889,0.98497c-0.11464,0.00401 -0.22934,0.00599 -0.34405,0.00595c-1.13529,0.01279 -2.26442,-0.16858 -3.33859,-0.53628c-1.49376,-0.53275 -2.80866,-1.47283 -3.796,-2.71392c-0.29278,-0.36571 -0.28168,-0.68637 0.03329,-0.96198c0.02754,-0.02408 0.0561,-0.04696 0.08562,-0.06857c0.05262,-0.03426 0.10852,-0.06321 0.16687,-0.08641c0.30679,-0.1197 0.59468,-0.01163 0.86368,0.32423c1.24897,1.53771 3.08241,2.48517 5.05922,2.61443c0.30784,0.02792 0.61681,0.04167 0.92591,0.04122c0.70862,0.00699 1.41483,-0.08357 2.09876,-0.26913c1.14484,-0.31055 2.15977,-0.98036 2.89546,-1.91088c0.51449,-0.65827 0.90761,-1.40291 1.16096,-2.19904c0.21853,-0.65744 0.37562,-1.38623 0.47128,-2.18636c0.07674,-0.66257 0.11407,-1.32911 0.11178,-1.9961zM200.97984,127.58156c0.83124,0.18357 1.68034,0.27397 2.53159,0.26953c0.17036,0.00009 0.34071,-0.00348 0.51092,-0.0107c0.72588,-0.03118 1.39561,-0.13001 2.00918,-0.29648c0.91965,-0.23628 1.77284,-0.68037 2.49394,-1.2981c1.22874,-1.07019 1.8431,-2.39802 1.8431,-3.98348c0.00005,-0.14372 -0.00431,-0.2874 -0.01308,-0.43085c-0.04968,-0.80832 -0.2435,-1.47726 -0.58147,-2.0068c-0.39637,-0.62097 -0.93146,-1.11643 -1.60528,-1.48637c-0.1698,-0.09305 -0.34257,-0.18056 -0.51805,-0.26239c-0.54766,-0.2541 -1.11718,-0.45814 -1.7016,-0.60961c-0.80595,-0.2114 -1.6185,-0.40958 -2.43765,-0.59455c-0.71029,-0.1485 -1.35861,-0.30229 -1.94497,-0.46137c-0.33163,-0.08946 -0.6611,-0.18673 -0.98814,-0.29173c-0.13595,-0.04364 -0.27052,-0.0915 -0.4035,-0.14348c-0.28327,-0.11125 -0.53945,-0.23557 -0.76855,-0.37298c-0.25997,-0.15287 -0.49889,-0.33902 -0.71068,-0.55372c-0.10093,-0.10389 -0.19061,-0.21815 -0.26755,-0.34088c-0.14771,-0.23571 -0.25315,-0.50735 -0.3163,-0.81493c-0.04849,-0.24592 -0.072,-0.49611 -0.07016,-0.74675c-0.00902,-0.63008 0.17057,-1.24847 0.51567,-1.77572c0.2373,-0.35293 0.53189,-0.66373 0.87161,-0.91957c0.17792,-0.13711 0.36594,-0.2606 0.56244,-0.36941c0.47009,-0.26081 1.00228,-0.44882 1.59656,-0.56403c0.50354,-0.09421 1.01494,-0.14 1.5272,-0.13675c0.61982,-0.00453 1.23828,0.05887 1.84429,0.18907c1.30967,0.25825 2.47554,0.99662 3.26883,2.07022c0.0409,0.06418 0.08647,0.12525 0.13635,0.18272c0.21536,0.24443 0.4508,0.31511 0.70632,0.21206c0.05174,-0.02119 0.10137,-0.0472 0.14824,-0.07769c0.34458,-0.20664 0.4294,-0.4833 0.25447,-0.82999c-0.02832,-0.05574 -0.06036,-0.1095 -0.09592,-0.16092c-1.34765,-1.98183 -3.43517,-2.97275 -6.26259,-2.97275c-1.0834,0 -2.12717,0.19818 -3.13129,0.59455c-0.18681,0.07358 -0.37037,0.15518 -0.55016,0.24456c-0.72688,0.35393 -1.37026,0.85828 -1.8875,1.47964c-0.36051,0.43823 -0.62176,0.94938 -0.76578,1.49826c-0.11363,0.43605 -0.16933,0.88516 -0.16568,1.33575c-0.00014,0.09873 0.00198,0.19745 0.00634,0.29609c0.01876,0.40852 0.07676,0.78309 0.174,1.1237c0.14588,0.54272 0.43231,1.03737 0.83039,1.43405c0.32379,0.31633 0.68473,0.59223 1.07495,0.82167c0.46675,0.27256 0.96407,0.48902 1.48162,0.64489c1.03055,0.31709 2.06111,0.58134 3.09166,0.79273c0.74305,0.14877 1.41912,0.3052 2.02821,0.4693c0.34393,0.09203 0.68532,0.19327 1.02381,0.30362c0.436,0.14322 0.82101,0.31445 1.15501,0.51369c0.29701,0.17372 0.56859,0.38767 0.807,0.63577c0.11705,0.12408 0.21946,0.2612 0.3052,0.40865c0.14533,0.24865 0.24984,0.53338 0.31353,0.85417c0.05162,0.2696 0.07671,0.54361 0.07491,0.8181c0,0.95128 -0.26424,1.74401 -0.79273,2.3782c-0.1805,0.21694 -0.38102,0.41639 -0.59891,0.59574c-0.43116,0.3505 -0.91895,0.62488 -1.44238,0.81136c-0.83237,0.30388 -1.71098,0.45582 -2.63584,0.45582c-0.23936,0.00017 -0.47865,-0.00816 -0.71742,-0.02497c-0.98254,-0.0635 -1.94671,-0.29643 -2.84987,-0.68849c-1.0834,-0.47564 -1.9422,-1.13625 -2.57638,-1.98183c-0.00381,-0.00451 -0.00764,-0.009 -0.01149,-0.01348c-0.28618,-0.34616 -0.57235,-0.46322 -0.85853,-0.35118c-0.0567,0.02277 -0.11057,0.05203 -0.16053,0.0872c-0.44922,0.26424 -0.51528,0.60776 -0.19818,1.03055c0.26168,0.36147 0.55682,0.69749 0.88152,1.0036c0.64323,0.59912 1.38396,1.08409 2.19032,1.43405c0.56925,0.25143 1.16174,0.44658 1.76898,0.58266zM124.83271,118.33829v-4.0033c0,-1.24908 -0.153,-2.21978 -0.45899,-2.9121c-0.02963,-0.06756 -0.06163,-0.13406 -0.09592,-0.19937c-0.35638,-0.68125 -0.96623,-1.19515 -1.69803,-1.43088c-0.01529,-0.00538 -0.03062,-0.01067 -0.04598,-0.01585c-0.55491,-0.18471 -1.23257,-0.30481 -2.03296,-0.3603c-0.36559,-0.02466 -0.73191,-0.03669 -1.09833,-0.03607c-0.92168,0 -1.93625,0.14269 -3.0437,0.42808c-0.03584,0.00913 -0.07164,0.01838 -0.10742,0.02775c-0.65512,0.17147 -1.29921,0.38259 -1.92872,0.6322c-0.40254,0.16019 -0.79723,0.33942 -1.18276,0.53708c-0.41883,0.18629 -0.73526,0.14718 -0.9493,-0.11732c-0.03028,-0.03792 -0.05745,-0.07821 -0.08126,-0.1205c-0.2616,-0.3924 -0.14771,-0.70698 0.34167,-0.94375c0.00501,-0.00253 0.01003,-0.00504 0.01506,-0.00753c0.62447,-0.32613 1.27108,-0.60798 1.93506,-0.84347c0.49127,-0.17521 0.98953,-0.33018 1.49351,-0.46454c0.53299,-0.14419 1.07286,-0.26166 1.61757,-0.35197c0.66563,-0.10887 1.29572,-0.1633 1.89027,-0.1633c0.61283,-0.00286 1.22523,0.03275 1.83359,0.10662c1.2977,0.16436 2.32707,0.51871 3.08809,1.06305c0.07912,0.05655 0.1562,0.11591 0.23108,0.17797c0.44566,0.38159 0.79552,0.86247 1.02144,1.40393c0.40244,0.91217 0.60367,2.10893 0.60367,3.59029v11.33608c-0.00055,0.08796 0.00449,0.17586 0.01506,0.26319c0.02378,0.18682 0.07571,0.32872 0.15577,0.4257c0.03488,0.04262 0.07785,0.07791 0.12644,0.10385c0.17017,0.0909 0.48185,0.11349 0.93503,0.06778c0.07824,-0.00802 0.15634,-0.0174 0.23425,-0.02814c0.03875,-0.00505 0.0776,-0.00928 0.11653,-0.01268c0.53007,-0.04624 0.79511,0.10332 0.79511,0.44869c0,0.42279 -0.22461,0.67382 -0.67382,0.7531c-0.39637,0.07927 -0.77952,0.11891 -1.14946,0.11891c-0.49784,0 -0.88165,-0.05285 -1.15144,-0.15855c-0.06858,-0.02632 -0.13431,-0.05952 -0.1962,-0.09909c-0.14055,-0.09336 -0.25283,-0.22346 -0.32462,-0.37615c-0.04889,-0.09883 -0.0872,-0.2114 -0.11495,-0.3377c-0.01566,-0.07189 -0.0277,-0.14451 -0.03607,-0.21761c-0.05285,-0.44922 -0.07927,-1.07019 -0.07927,-1.86292c-0.50895,0.59228 -1.11639,1.09219 -1.79554,1.47765c-0.1646,0.09469 -0.33251,0.18353 -0.50339,0.26636c-0.92486,0.44922 -1.90916,0.77952 -2.95293,0.99092c-0.65856,0.13511 -1.32499,0.22858 -1.99531,0.27983c-0.33185,0.02468 -0.66449,0.03711 -0.99726,0.03726c-1.42983,0 -2.62883,-0.27521 -3.59702,-0.82563c-0.2108,-0.11985 -0.41279,-0.25456 -0.60446,-0.4031c-1.05698,-0.81916 -1.58547,-2.02147 -1.58547,-3.60693c-0.00432,-1.18568 0.44969,-2.32717 1.26718,-3.18599c0.01353,-0.01487 0.02714,-0.02966 0.04083,-0.04439c0.62194,-0.66229 1.34604,-1.22059 2.14474,-1.65364c0.38935,-0.21355 0.79165,-0.40259 1.20456,-0.56601c1.36086,-0.5417 2.76796,-0.81255 4.2213,-0.81255c1.53182,0 2.81156,0.24628 3.8392,0.73883c0.48041,0.22684 0.92337,0.52571 1.31356,0.88628zM242.79134,118.33829v-4.0033c0,-1.24908 -0.153,-2.21978 -0.45899,-2.9121c-0.02963,-0.06756 -0.06163,-0.13406 -0.09592,-0.19937c-0.35638,-0.68125 -0.96623,-1.19515 -1.69803,-1.43088c-0.01529,-0.00538 -0.03062,-0.01067 -0.04598,-0.01585c-0.55491,-0.18471 -1.23257,-0.30481 -2.03296,-0.3603c-0.36559,-0.02466 -0.73191,-0.03669 -1.09833,-0.03607c-0.92168,0 -1.93625,0.14269 -3.0437,0.42808c-0.03584,0.00913 -0.07164,0.01838 -0.10742,0.02775c-0.65512,0.17147 -1.29921,0.38259 -1.92872,0.6322c-0.40254,0.16019 -0.79723,0.33942 -1.18276,0.53708c-0.41883,0.18629 -0.73526,0.14718 -0.9493,-0.11732c-0.03028,-0.03792 -0.05745,-0.07821 -0.08126,-0.1205c-0.2616,-0.3924 -0.14771,-0.70698 0.34167,-0.94375c0.00501,-0.00253 0.01003,-0.00504 0.01506,-0.00753c0.62447,-0.32613 1.27108,-0.60798 1.93506,-0.84347c0.49127,-0.17521 0.98953,-0.33018 1.49351,-0.46454c0.53299,-0.14419 1.07286,-0.26166 1.61757,-0.35197c0.66563,-0.10887 1.29572,-0.1633 1.89027,-0.1633c0.61283,-0.00286 1.22523,0.03275 1.83359,0.10662c1.2977,0.16436 2.32707,0.51871 3.08809,1.06305c0.07912,0.05655 0.1562,0.11591 0.23108,0.17797c0.44566,0.38159 0.79552,0.86247 1.02144,1.40393c0.40244,0.91217 0.60367,2.10893 0.60367,3.59029v11.33608c-0.00055,0.08796 0.00449,0.17586 0.01506,0.26319c0.02378,0.18682 0.07571,0.32872 0.15577,0.4257c0.03488,0.04262 0.07785,0.07791 0.12644,0.10385c0.17017,0.0909 0.48185,0.11349 0.93503,0.06778c0.07824,-0.00802 0.15634,-0.0174 0.23425,-0.02814c0.03875,-0.00505 0.0776,-0.00928 0.11653,-0.01268c0.53007,-0.04624 0.79511,0.10332 0.79511,0.44869c0,0.42279 -0.22461,0.67382 -0.67382,0.7531c-0.39637,0.07927 -0.77952,0.11891 -1.14946,0.11891c-0.49784,0 -0.88165,-0.05285 -1.15144,-0.15855c-0.06858,-0.02632 -0.13431,-0.05952 -0.1962,-0.09909c-0.14055,-0.09336 -0.25283,-0.22346 -0.32462,-0.37615c-0.04889,-0.09883 -0.0872,-0.2114 -0.11495,-0.3377c-0.01566,-0.07189 -0.0277,-0.14451 -0.03607,-0.21761c-0.05285,-0.44922 -0.07927,-1.07019 -0.07927,-1.86292c-0.50895,0.59228 -1.11639,1.09219 -1.79554,1.47765c-0.1646,0.09469 -0.33251,0.18353 -0.50339,0.26636c-0.92486,0.44922 -1.90916,0.77952 -2.95293,0.99092c-0.65856,0.13511 -1.32499,0.22858 -1.99531,0.27983c-0.33185,0.02468 -0.66449,0.03711 -0.99726,0.03726c-1.42983,0 -2.62883,-0.27521 -3.59702,-0.82563c-0.2108,-0.11985 -0.41279,-0.25456 -0.60446,-0.4031c-1.05698,-0.81916 -1.58547,-2.02147 -1.58547,-3.60693c-0.00432,-1.18568 0.44969,-2.32717 1.26718,-3.18599c0.01353,-0.01487 0.02714,-0.02966 0.04083,-0.04439c0.62194,-0.66229 1.34604,-1.22059 2.14474,-1.65364c0.38935,-0.21355 0.79165,-0.40259 1.20456,-0.56601c1.36086,-0.5417 2.76796,-0.81255 4.2213,-0.81255c1.53182,0 2.81156,0.24628 3.8392,0.73883c0.48041,0.22684 0.92337,0.52571 1.31356,0.88628zM179.888,117.22847h-14.34846c-0.05126,1.1233 0.0292,2.17539 0.24139,3.15627c0.11426,0.53224 0.27216,1.05417 0.47207,1.56049c0.30742,0.79454 0.7427,1.53347 1.28859,2.18755c0.36232,0.42838 0.77471,0.81177 1.22834,1.14193c0.9609,0.69621 2.09656,1.11136 3.27993,1.19901c0.23398,0.0201 0.46871,0.03002 0.70355,0.02973c1.03431,0.01707 2.05999,-0.1908 3.00604,-0.60922c1.44224,-0.66061 2.58061,-1.85803 3.41509,-3.59227c0.23571,-0.47168 0.56244,-0.61846 0.98021,-0.44036c0.00358,0.00144 0.00714,0.00289 0.0107,0.00436c0.42279,0.2114 0.51528,0.56813 0.27746,1.07019c-0.46714,0.99934 -1.1019,1.91134 -1.87679,2.69648c-1.32677,1.31144 -3.00063,2.04155 -5.02157,2.19032c-0.26328,0.01905 -0.52718,0.02844 -0.79115,0.02814c-0.95396,0.00792 -1.90225,-0.14732 -2.8039,-0.45899c-0.57561,-0.20325 -1.12469,-0.475 -1.63541,-0.80938c-1.2948,-0.84558 -2.31214,-2.01486 -3.05202,-3.50784c-0.50833,-1.04005 -0.84293,-2.15632 -0.99052,-3.30451c-0.08092,-0.6061 -0.12078,-1.21697 -0.11931,-1.82844c0,-1.92898 0.36994,-3.63996 1.10983,-5.13294c0.73988,-1.49298 1.75722,-2.66226 3.05202,-3.50784c1.1873,-0.77079 2.56135,-1.20529 3.97595,-1.25727c0.15434,-0.00745 0.30883,-0.01115 0.46335,-0.0111c0.73749,-0.0056 1.47228,0.08961 2.18398,0.28301c0.75316,0.20765 1.46322,0.54805 2.09678,1.00519c1.1891,0.85879 2.09414,1.93559 2.71511,3.23039c0.46797,0.95891 0.76686,1.99141 0.8835,3.05202c0.03193,0.30283 0.04794,0.60713 0.04796,0.91164c0,0.46718 -0.25473,0.705 -0.76419,0.71346c-0.00951,0.00008 -0.01903,0.00008 -0.02854,0zM217.74099,123.05505v-13.199h-3.52766c-0.52849,0 -0.79273,-0.23782 -0.79273,-0.71346c0,-0.42226 0.23346,-0.64608 0.70038,-0.67144c0.03076,-0.00163 0.06155,-0.00242 0.09235,-0.00238h3.52766v-6.30222c0,-0.46322 0.17255,-0.72337 0.51765,-0.78045c0.05163,-0.00836 0.10386,-0.01247 0.15617,-0.01229c0.42226,0 0.64594,0.23359 0.67105,0.70078c0.00175,0.03062 0.00268,0.06129 0.00277,0.09196v6.30222h5.27167c0.46322,0 0.72337,0.17255 0.78045,0.51765c0.00836,0.05163 0.01247,0.10386 0.01229,0.15617c0,0.46718 -0.25473,0.705 -0.76419,0.71346c-0.00951,0.00008 -0.01903,0.00008 -0.02854,0h-5.27167v13.199c0,1.32122 0.27085,2.22626 0.81255,2.71511c0.2381,0.20926 0.51442,0.3705 0.81374,0.47485c0.24865,0.0909 0.5277,0.15789 0.83713,0.20096c0.30022,0.0399 0.60284,0.0591 0.9057,0.05747c0.15494,-0.00027 0.30976,-0.009 0.46375,-0.02616c0.03704,-0.00406 0.07404,-0.00855 0.11098,-0.01348c0.16842,-0.02244 0.33674,-0.04556 0.50497,-0.06936c0.02325,-0.00329 0.04651,-0.00659 0.06976,-0.00991c0.42279,-0.05285 0.78613,-0.07267 1.09001,-0.05945c0.26874,0.01189 0.41856,0.17361 0.44948,0.48515c0.00424,0.04294 0.00636,0.08607 0.00634,0.12922c0.00286,0.22508 -0.11737,0.43378 -0.31353,0.54421c-0.12763,0.08112 -0.29397,0.14414 -0.49903,0.18907c-0.5417,0.11891 -1.16928,0.17836 -1.88274,0.17836c-0.43234,0.00248 -0.86426,-0.02734 -1.29215,-0.08918c-0.97215,-0.14666 -1.73054,-0.47366 -2.27514,-0.98101c-0.3159,-0.30289 -0.56254,-0.67054 -0.72297,-1.07772c-0.2616,-0.63128 -0.40297,-1.42824 -0.42411,-2.39088c-0.00173,-0.08574 -0.00252,-0.17149 -0.00238,-0.25724zM268.55515,123.05505v-13.199h-3.52766c-0.52849,0 -0.79273,-0.23782 -0.79273,-0.71346c0,-0.42226 0.23346,-0.64608 0.70038,-0.67144c0.03076,-0.00163 0.06155,-0.00242 0.09235,-0.00238h3.52766v-6.30222c0,-0.46322 0.17255,-0.72337 0.51765,-0.78045c0.05163,-0.00836 0.10386,-0.01247 0.15617,-0.01229c0.42226,0 0.64594,0.23359 0.67105,0.70078c0.00175,0.03062 0.00268,0.06129 0.00277,0.09196v6.30222h5.27167c0.46322,0 0.72337,0.17255 0.78045,0.51765c0.00836,0.05163 0.01247,0.10386 0.01229,0.15617c0,0.46718 -0.25473,0.705 -0.76419,0.71346c-0.00951,0.00008 -0.01903,0.00008 -0.02854,0h-5.27167v13.199c0,1.32122 0.27085,2.22626 0.81255,2.71511c0.2381,0.20926 0.51442,0.3705 0.81374,0.47485c0.24865,0.0909 0.5277,0.15789 0.83713,0.20096c0.30022,0.0399 0.60284,0.0591 0.9057,0.05747c0.15494,-0.00027 0.30976,-0.009 0.46375,-0.02616c0.03704,-0.00406 0.07404,-0.00855 0.11098,-0.01348c0.16842,-0.02244 0.33674,-0.04556 0.50497,-0.06936c0.02325,-0.00329 0.04651,-0.00659 0.06976,-0.00991c0.42279,-0.05285 0.78613,-0.07267 1.09001,-0.05945c0.26874,0.01189 0.41856,0.17361 0.44948,0.48515c0.00424,0.04294 0.00636,0.08607 0.00634,0.12922c0.00286,0.22508 -0.11737,0.43378 -0.31353,0.54421c-0.12763,0.08112 -0.29397,0.14414 -0.49903,0.18907c-0.5417,0.11891 -1.16928,0.17836 -1.88274,0.17836c-0.43234,0.00248 -0.86426,-0.02734 -1.29215,-0.08918c-0.97215,-0.14666 -1.73054,-0.47366 -2.27514,-0.98101c-0.3159,-0.30289 -0.56254,-0.67054 -0.72297,-1.07772c-0.2616,-0.63128 -0.40297,-1.42824 -0.42411,-2.39088c-0.00173,-0.08574 -0.00252,-0.17149 -0.00238,-0.25724zM251.31322,126.62235v-17.36085c0,-0.52849 0.23782,-0.79273 0.71346,-0.79273c0.46692,0 0.70461,0.25473 0.71306,0.76419c0.00021,0.00951 0.00034,0.01903 0.0004,0.02854v2.77456c0.45513,-0.94255 1.12495,-1.76523 1.95567,-2.40198c0.22483,-0.17562 0.45846,-0.33966 0.69998,-0.49149c1.15155,-0.72194 2.47756,-1.11759 3.83643,-1.14471c0.09523,-0.00309 0.1905,-0.00468 0.28578,-0.00476c0.54434,0 0.9855,0.02246 1.32347,0.06738c0.06777,0.00884 0.13531,0.01942 0.20254,0.03171c0.08507,0.01448 0.16725,0.04259 0.24337,0.08324c0.19448,0.10755 0.29173,0.2978 0.29173,0.57077c0.00191,0.10317 -0.0146,0.20585 -0.04875,0.30322c-0.10173,0.27349 -0.36294,0.41024 -0.78362,0.41024c-0.18497,0 -0.38315,-0.01321 -0.59455,-0.03964c-0.2114,-0.02642 -0.42279,-0.03964 -0.63419,-0.03964c-1.26837,0 -2.41123,0.29067 -3.42857,0.87201c-1.01734,0.58134 -1.82989,1.34104 -2.43765,2.27911c-0.60776,0.93807 -0.91164,1.9488 -0.91164,3.0322v11.05862c0,0.52849 -0.23782,0.79273 -0.71346,0.79273c-0.46718,0 -0.705,-0.2546 -0.71346,-0.7638c-0.00008,-0.00965 -0.00008,-0.01929 0,-0.02893zM97.40416,124.4027c0.7273,0.00545 1.45106,-0.10178 2.14553,-0.31789c0.48485,-0.15389 0.94902,-0.3666 1.38213,-0.63339c0.97491,-0.60369 1.78043,-1.44522 2.34094,-2.44558c0.03989,-0.06944 0.07874,-0.13947 0.11653,-0.21007c0.43582,-0.82593 0.71748,-1.72437 0.83118,-2.65129c0.05444,-0.42205 0.08131,-0.84719 0.08046,-1.27273c0.00417,-0.70044 -0.07203,-1.39904 -0.22712,-2.08211c-0.14557,-0.63527 -0.3758,-1.24812 -0.68452,-1.8221c-0.44555,-0.84045 -1.05835,-1.58085 -1.80069,-2.17565c-0.20959,-0.16631 -0.4289,-0.31998 -0.65678,-0.46018c-0.9017,-0.55002 -1.9247,-0.87015 -2.97909,-0.93225c-0.18258,-0.0127 -0.36555,-0.01904 -0.54857,-0.01903c-0.80163,-0.00646 -1.59807,0.12907 -2.35243,0.40033c-0.39606,0.14507 -0.77651,0.32965 -1.13559,0.55095c-1.02258,0.6328 -1.86035,1.52389 -2.42893,2.58352c-0.00958,0.0174 -0.01909,0.03484 -0.02854,0.05232c-0.42436,0.79506 -0.70228,1.65996 -0.82048,2.55339c-0.06183,0.4476 -0.0923,0.89897 -0.09116,1.35082c0,1.47977 0.30388,2.78778 0.91164,3.92403c0.39806,0.75898 0.93148,1.43882 1.57397,2.00601c0.27597,0.24068 0.57149,0.45798 0.8835,0.64964c0.97012,0.59329 2.07968,0.91994 3.21651,0.94692c0.09047,0.00304 0.18099,0.00449 0.27151,0.00436zM165.69808,115.84118h13.59537c-0.1057,-1.13625 -0.44922,-2.18662 -1.03055,-3.15111c-0.58134,-0.96449 -1.34104,-1.75062 -2.27911,-2.35838c-0.83329,-0.53589 -1.79194,-0.8452 -2.7813,-0.89737c-0.1495,-0.00956 -0.29927,-0.01432 -0.44908,-0.01427c-1.79686,0 -3.32948,0.58134 -4.59785,1.74401c-0.94428,0.87485 -1.65403,1.97259 -2.06428,3.19273c-0.16796,0.48428 -0.2994,0.98047 -0.3932,1.48439zM116.78648,126.4638c1.00854,0.00475 2.01388,-0.11358 2.99376,-0.35237c0.34108,-0.08457 0.67797,-0.18522 1.00955,-0.30163c1.24195,-0.436 2.24608,-1.06358 3.01238,-1.88274c0.76631,-0.81916 1.10983,-1.82329 1.03055,-3.01238c-0.05387,-0.73913 -0.43946,-1.41414 -1.04879,-1.83597c-0.1453,-0.10593 -0.29818,-0.20105 -0.45741,-0.28459c-0.42618,-0.22066 -0.87841,-0.38685 -1.34606,-0.49467c-0.4146,-0.09936 -0.86448,-0.16766 -1.34963,-0.20492c-0.30321,-0.02286 -0.60718,-0.0341 -0.91125,-0.03369c-1.1891,0 -2.35838,0.20479 -3.50784,0.61437c-0.58309,0.20447 -1.14285,0.4702 -1.66989,0.79273c-0.43342,0.26653 -0.83699,0.5788 -1.20376,0.93146c-0.34012,0.32115 -0.61895,0.70151 -0.82286,1.12251c-0.21931,0.46711 -0.33092,0.9775 -0.32661,1.49351c-0.00392,0.35692 0.04224,0.71262 0.13714,1.05671c0.17941,0.64896 0.5977,1.20601 1.17087,1.55931c0.87201,0.55491 1.96862,0.83237 3.28984,0.83237zM234.7451,126.4638c1.00854,0.00475 2.01388,-0.11358 2.99376,-0.35237c0.34108,-0.08457 0.67797,-0.18522 1.00955,-0.30163c1.24195,-0.436 2.24608,-1.06358 3.01238,-1.88274c0.76631,-0.81916 1.10983,-1.82329 1.03055,-3.01238c-0.05387,-0.73913 -0.43946,-1.41414 -1.04879,-1.83597c-0.1453,-0.10593 -0.29818,-0.20105 -0.45741,-0.28459c-0.42618,-0.22066 -0.87841,-0.38685 -1.34606,-0.49467c-0.4146,-0.09936 -0.86448,-0.16766 -1.34963,-0.20492c-0.30321,-0.02286 -0.60718,-0.0341 -0.91125,-0.03369c-1.1891,0 -2.35838,0.20479 -3.50784,0.61437c-0.58309,0.20447 -1.14285,0.4702 -1.66989,0.79273c-0.43342,0.26653 -0.83699,0.5788 -1.20376,0.93146c-0.34012,0.32115 -0.61895,0.70151 -0.82286,1.12251c-0.21931,0.46711 -0.33092,0.9775 -0.32661,1.49351c-0.00392,0.35692 0.04224,0.71262 0.13714,1.05671c0.17941,0.64896 0.5977,1.20601 1.17087,1.55931c0.87201,0.55491 1.96862,0.83237 3.28984,0.83237z" fill="#000000" fill-rule="evenodd" stroke="#000000" stroke-width="2" stroke-linecap="round"/><path d="M202.47297,-67.33486h-15.4324c-0.17194,0.00006 -0.33819,-0.06157 -0.46856,-0.17367c-0.02391,-0.01981 -0.04686,-0.04076 -0.06878,-0.06276c-0.063,-0.06184 -0.11606,-0.13303 -0.15733,-0.21107c-0.05248,-0.10072 -0.07963,-0.2127 -0.0791,-0.32627c-0.00093,-0.0924 0.0139,-0.18427 0.04385,-0.27168c0.03904,-0.11039 0.10527,-0.20915 0.19258,-0.28715c0.07487,-0.06953 0.16185,-0.12475 0.25663,-0.16292c0.08944,-0.03491 0.18469,-0.05256 0.28071,-0.05201h15.4324c1.66217,0 3.01626,-0.11463 4.06229,-0.3439c0.40034,-0.08481 0.78993,-0.21414 1.16151,-0.38559c0.48962,-0.22458 0.92817,-0.54684 1.28876,-0.94701c0.47401,-0.53161 0.83595,-1.24505 1.08586,-2.14033c0.06202,-0.22302 0.11564,-0.44829 0.16077,-0.67533c0.09,-0.46022 0.15942,-0.92422 0.20806,-1.39064c0.05244,-0.48518 0.09185,-1.01134 0.11821,-1.57849c0.02704,-0.6076 0.04009,-1.21574 0.03912,-1.82395h-23.21308c-0.17194,0.00006 -0.33819,-0.06157 -0.46856,-0.17367c-0.02391,-0.01981 -0.04686,-0.04076 -0.06878,-0.06276c-0.063,-0.06184 -0.11606,-0.13303 -0.15733,-0.21107c-0.05248,-0.10072 -0.07963,-0.2127 -0.0791,-0.32627c-0.00093,-0.0924 0.0139,-0.18427 0.04385,-0.27168c0.03904,-0.11039 0.10527,-0.20915 0.19258,-0.28715c0.07487,-0.06953 0.16185,-0.12475 0.25663,-0.16292c0.08944,-0.03491 0.18469,-0.05256 0.28071,-0.05201h23.21308c-0.01891,-1.1661 -0.09013,-2.18704 -0.21365,-3.06284c-0.05799,-0.42286 -0.13733,-0.84253 -0.23772,-1.25737c-0.2052,-0.83166 -0.50409,-1.51272 -0.89671,-2.04318c-0.12427,-0.16885 -0.26292,-0.32663 -0.4144,-0.47157c-0.34629,-0.32493 -0.74531,-0.58861 -1.18,-0.77979c-0.37943,-0.17081 -0.80285,-0.30492 -1.27027,-0.40236c-0.41706,-0.08503 -0.83796,-0.15001 -1.26124,-0.19473c-0.77578,-0.08511 -1.65931,-0.12767 -2.65059,-0.12767h-14.65863c-0.17194,0.00006 -0.33819,-0.06157 -0.46856,-0.17367c-0.02391,-0.01981 -0.04686,-0.04076 -0.06878,-0.06276c-0.063,-0.06184 -0.11606,-0.13303 -0.15733,-0.21107c-0.05248,-0.10072 -0.07963,-0.2127 -0.0791,-0.32627c-0.00093,-0.0924 0.0139,-0.18427 0.04385,-0.27168c0.03904,-0.11039 0.10527,-0.20915 0.19258,-0.28715c0.07487,-0.06953 0.16185,-0.12475 0.25663,-0.16293c0.08944,-0.03491 0.18469,-0.05256 0.28071,-0.05201h14.65863c0.63782,-0.00128 1.27552,0.01822 1.91207,0.05847c1.1363,0.07423 2.11812,0.21952 2.94548,0.43589c0.4968,0.12629 0.97795,0.30768 1.43448,0.54078c0.57459,0.29199 1.08736,0.69222 1.51014,1.17871c0.70213,0.81676 1.18931,1.94875 1.46156,3.39599c0.18513,0.98383 0.30736,2.1495 0.36668,3.49701c0.02871,0.67523 0.04261,1.35101 0.0417,2.02685c0.00109,0.72218 -0.01496,1.44428 -0.04815,2.16569c-0.06162,1.28904 -0.18169,2.40843 -0.36023,3.35816c-0.08948,0.48821 -0.2155,0.96901 -0.377,1.43835c-0.1751,0.50095 -0.38631,0.94873 -0.63363,1.34335c-0.13472,0.21577 -0.28545,0.4211 -0.45094,0.61429c-0.46273,0.53076 -1.03109,0.95915 -1.66876,1.2578c-0.40941,0.19465 -0.83669,0.34926 -1.27586,0.46168c-0.9119,0.23844 -2.01108,0.39061 -3.29755,0.45652c-0.51959,0.02591 -1.03977,0.03852 -1.56,0.03783zM119.93759,-63.46601v-29.5322c0,-0.57317 0.25792,-0.85974 0.77377,-0.85974c0.45796,0 0.70069,0.25334 0.7282,0.76001c0.00176,0.03322 0.00262,0.06647 0.00258,0.09973v13.02512c0.54695,-0.8707 1.26307,-1.62277 2.10594,-2.21169c0.21603,-0.15338 0.43847,-0.29751 0.66673,-0.43202c1.08608,-0.63607 2.31239,-0.99414 3.57009,-1.04244c0.14963,-0.00723 0.29941,-0.01082 0.44922,-0.01075c2.20668,0 3.98348,0.70929 5.33041,2.12787c0.77728,0.83307 1.33819,1.84419 1.63351,2.94462c0.25792,0.90646 0.38688,1.92382 0.38688,3.05209v12.0794c0,0.50238 -0.18714,0.78466 -0.56141,0.84685c-0.05601,0.00893 -0.11265,0.01324 -0.16937,0.0129c-0.45796,0 -0.70069,-0.25319 -0.7282,-0.75958c-0.00177,-0.03336 -0.00263,-0.06675 -0.00258,-0.10016v-12.0794c0.00372,-0.60882 -0.04445,-1.21686 -0.14401,-1.8175c-0.11377,-0.65914 -0.29475,-1.24921 -0.54293,-1.77021c-0.23551,-0.50284 -0.5557,-0.96145 -0.94658,-1.35582c-0.88954,-0.88699 -2.05569,-1.44307 -3.30485,-1.57591c-0.31544,-0.03906 -0.63302,-0.0583 -0.95088,-0.0576c-0.68601,-0.00437 -1.36971,0.07987 -2.03415,0.25062c-0.51867,0.13547 -1.01919,0.33276 -1.4908,0.58763c-0.55512,0.29611 -1.06759,0.666 -1.52347,1.09961c-0.33519,0.32156 -0.63179,0.68106 -0.88382,1.07124c-0.39712,0.60326 -0.66591,1.28176 -0.78967,1.99332c-0.04683,0.27884 -0.07027,0.5611 -0.07007,0.84384v12.81018c0,0.50238 -0.18714,0.78466 -0.56141,0.84685c-0.05601,0.00893 -0.11265,0.01324 -0.16937,0.0129c-0.50639,0 -0.76417,-0.27626 -0.77334,-0.82879c-0.00023,-0.01032 -0.00037,-0.02063 -0.00043,-0.03095zM90.83527,-72.45033v-4.34171c0,-1.35467 -0.16578,-2.40742 -0.49736,-3.15827c-0.03228,-0.07328 -0.06712,-0.14539 -0.10446,-0.21623c-0.38641,-0.73875 -1.04764,-1.29608 -1.84114,-1.55184c-0.01673,-0.00584 -0.03349,-0.01157 -0.05029,-0.01719c-0.60154,-0.20061 -1.33633,-0.331 -2.20438,-0.39118c-0.39664,-0.02662 -0.79408,-0.03952 -1.1916,-0.03869c-0.99931,0 -2.09964,0.15461 -3.30099,0.46383c-0.03886,0.01005 -0.0777,0.02022 -0.1165,0.03052c-0.7105,0.18596 -1.40904,0.41493 -2.09176,0.68565c-0.43656,0.17374 -0.86462,0.36811 -1.28274,0.58248c-0.45423,0.20176 -0.79727,0.15934 -1.02911,-0.12724c-0.03298,-0.04111 -0.0626,-0.08481 -0.08855,-0.13068c-0.28372,-0.42557 -0.1602,-0.76689 0.37055,-1.02395c0.00543,-0.00261 0.01088,-0.00518 0.01634,-0.00774c0.6774,-0.35372 1.37881,-0.65939 2.09906,-0.91477c0.53266,-0.19001 1.07289,-0.35808 1.61933,-0.50381c0.57804,-0.15652 1.16354,-0.28406 1.75431,-0.38216c0.7219,-0.11778 1.40525,-0.17668 2.05006,-0.17668c0.66478,-0.00313 1.32908,0.03549 1.98902,0.11564c1.40712,0.17825 2.52335,0.56256 3.3487,1.15292c0.08581,0.06133 0.1694,0.12571 0.25062,0.19301c0.48343,0.41368 0.86301,0.93505 1.10821,1.52218c0.43618,0.98956 0.65426,2.28763 0.65426,3.89421v12.29433c-0.00045,0.09541 0.00515,0.19074 0.01676,0.28543c0.02579,0.20262 0.08211,0.35651 0.16894,0.46168c0.03771,0.04618 0.08416,0.08445 0.1367,0.11263c0.18484,0.09859 0.52301,0.12309 1.0145,0.07351c0.08471,-0.0087 0.16927,-0.01888 0.25362,-0.03052c0.04202,-0.00548 0.08416,-0.01007 0.12638,-0.01376c0.57488,-0.05015 0.86232,0.11205 0.86232,0.48661c0,0.45853 -0.24359,0.73078 -0.73078,0.81676c-0.42987,0.08597 -0.84541,0.12896 -1.24663,0.12896c-0.53964,0 -0.95575,-0.05731 -1.24835,-0.17195c-0.07452,-0.02853 -0.14596,-0.06453 -0.21322,-0.10747c-0.15243,-0.10125 -0.2742,-0.24234 -0.35206,-0.40795c-0.05273,-0.10747 -0.09428,-0.22955 -0.12466,-0.36625c-0.01698,-0.07796 -0.03004,-0.15673 -0.03912,-0.236c-0.05732,-0.48719 -0.08597,-1.16065 -0.08597,-2.0204c-0.55201,0.64219 -1.2108,1.18421 -1.94732,1.60213c-0.17851,0.10284 -0.36061,0.19933 -0.54594,0.2893c-1.00304,0.48719 -2.07055,0.84541 -3.20254,1.07468c-0.71423,0.14653 -1.43699,0.2479 -2.16397,0.30349c-0.3599,0.02677 -0.72066,0.04024 -1.08156,0.04041c-1.55069,0 -2.85091,-0.29847 -3.90066,-0.89542c-0.22876,-0.12997 -0.44798,-0.27606 -0.65598,-0.43718c-1.14633,-0.8884 -1.71949,-2.19235 -1.71949,-3.91183c-0.00468,-1.28612 0.48787,-2.52428 1.37473,-3.45574c0.01454,-0.01598 0.02915,-0.03188 0.04385,-0.04772c0.67465,-0.71832 1.4601,-1.32381 2.32647,-1.79343c0.42213,-0.23158 0.85829,-0.4366 1.30595,-0.61386c1.4759,-0.58749 3.00194,-0.88124 4.57813,-0.88124c1.66131,0 3.04922,0.26695 4.16374,0.80085c0.52105,0.24615 1.00146,0.57042 1.4246,0.96162zM64.14019,-63.46601v-12.0794l-9.37121,-16.1202c-0.03789,-0.06263 -0.07192,-0.12752 -0.10188,-0.1943c-0.09056,-0.20405 -0.11392,-0.38287 -0.07007,-0.53648c0.01545,-0.05765 0.04235,-0.11159 0.0791,-0.15862c0.05244,-0.06506 0.12409,-0.1079 0.21494,-0.12853c0.04464,-0.00956 0.09019,-0.01417 0.13584,-0.01376c0.57317,0 0.97437,0.2006 1.20364,0.60182l8.64042,14.87357l8.59744,-14.87357c0.22927,-0.40122 0.57316,-0.60182 1.03169,-0.60182c0.06773,-0.00055 0.13533,0.00622 0.20161,0.0202c0.0791,0.01719 0.14673,0.04585 0.2029,0.08597c0.06863,0.04921 0.12209,0.11667 0.15432,0.19473c0.07108,0.16593 0.05402,0.36123 -0.05115,0.58592c-0.02345,0.04958 -0.04942,0.09793 -0.07781,0.14487l-9.28523,16.1202v12.0794c0,0.50238 -0.18714,0.78466 -0.56141,0.84685c-0.05601,0.00893 -0.11265,0.01324 -0.16937,0.0129c-0.50639,0 -0.76417,-0.27626 -0.77334,-0.82879c-0.00023,-0.01032 -0.00037,-0.02063 -0.00043,-0.03095zM144.39728,-67.33486v-14.31473h-3.82586c-0.57317,0 -0.85974,-0.25792 -0.85974,-0.77377c0,-0.45796 0.25334,-0.70069 0.76001,-0.7282c0.03322,-0.00176 0.06647,-0.00262 0.09973,-0.00258h3.82586v-6.83497c0,-0.50238 0.18714,-0.78452 0.56141,-0.84642c0.056,-0.00907 0.11264,-0.01353 0.16937,-0.01333c0.45796,0 0.70069,0.25334 0.7282,0.76001c0.00176,0.03322 0.00262,0.06647 0.00258,0.09973v6.83497h5.71729c0.50238,0 0.78466,0.18714 0.84685,0.56141c0.00893,0.05601 0.01324,0.11265 0.0129,0.16937c0,0.50639 -0.27626,0.76431 -0.82879,0.77377c-0.01032,0.00009 -0.02063,0.00009 -0.03095,0h-5.71729v14.31473c0,1.43291 0.29374,2.41444 0.88124,2.94462c0.25823,0.22695 0.5579,0.40182 0.88253,0.51499c0.26968,0.09859 0.5723,0.17109 0.90789,0.21752c0.32559,0.04342 0.65378,0.06439 0.98226,0.06276c0.16819,-0.00028 0.33623,-0.00975 0.50338,-0.02837c0.04003,-0.00441 0.08001,-0.00928 0.11993,-0.01462c0.18265,-0.02434 0.36521,-0.04941 0.54766,-0.07523c0.02522,-0.00357 0.05044,-0.00715 0.07566,-0.01075c0.45853,-0.05732 0.85258,-0.07881 1.18215,-0.06448c0.29174,0.01261 0.45437,0.188 0.4879,0.52616c0.00446,0.04658 0.00661,0.09335 0.00645,0.14014c0.0031,0.24411 -0.12729,0.47045 -0.34003,0.59021c-0.13814,0.08798 -0.31853,0.15633 -0.54121,0.20505c-0.58749,0.12896 -1.26812,0.19344 -2.04189,0.19344c-0.46874,0.00267 -0.93703,-0.02967 -1.40095,-0.09672c-1.05433,-0.15905 -1.87696,-0.5137 -2.46789,-1.06393c-0.3425,-0.32866 -0.60984,-0.72753 -0.78366,-1.16925c-0.28372,-0.68436 -0.43703,-1.54868 -0.45996,-2.59299c-0.00202,-0.09284 -0.00302,-0.1857 -0.00301,-0.27856zM104.30186,-62.6312c0.97773,0.33797 2.00603,0.50633 3.04048,0.49779c0.03797,0.00007 0.07595,-0.00007 0.11392,-0.00043c2.30546,0.00782 4.51475,-0.92324 6.11922,-2.5788c0.42987,-0.40122 0.4442,-0.77377 0.04299,-1.11767c-0.33616,-0.26394 -0.66214,-0.26652 -0.97796,-0.00774c-0.06588,0.05461 -0.127,0.11472 -0.1827,0.17969c-1.43291,1.37559 -3.13806,2.06338 -5.11547,2.06338c-0.10606,0.00007 -0.21211,-0.0018 -0.31811,-0.00559c-1.33074,-0.03215 -2.62662,-0.43193 -3.74418,-1.15507c-0.51007,-0.33162 -0.97704,-0.72524 -1.39021,-1.17183c-0.57071,-0.62381 -1.04402,-1.33016 -1.40396,-2.0952c-0.34903,-0.73406 -0.60617,-1.50838 -0.7656,-2.3054c-0.16717,-0.84033 -0.24912,-1.69537 -0.2446,-2.55215c0,-1.83412 0.33673,-3.44614 1.0102,-4.83606c0.08818,-0.18211 0.18222,-0.36132 0.282,-0.53734c0.60514,-1.09327 1.46736,-2.02277 2.51217,-2.70819c0.44116,-0.2877 0.91325,-0.52489 1.4074,-0.70714c0.85103,-0.30758 1.75002,-0.46115 2.65489,-0.45351c1.97741,0 3.68257,0.68779 5.11547,2.06338c0.33043,0.30693 0.65111,0.39032 0.96205,0.25019c0.07068,-0.03257 0.13733,-0.07325 0.1986,-0.12122c0.02912,-0.0248 0.05708,-0.0509 0.08382,-0.07824c0.31295,-0.32212 0.27068,-0.66859 -0.12681,-1.03943c-1.71949,-1.71949 -3.7972,-2.57923 -6.23314,-2.57923c-0.16758,-0.00006 -0.33514,0.00395 -0.50252,0.01204c-1.53418,0.05637 -3.02438,0.5276 -4.31204,1.36355c-1.40425,0.91706 -2.50758,2.18518 -3.31001,3.80437c-0.80243,1.61919 -1.20364,3.4748 -1.20364,5.56684c-0.0016,0.66316 0.04162,1.32567 0.12939,1.983c0.16007,1.24524 0.52295,2.45587 1.07425,3.58384c0.80243,1.61919 1.90576,2.8873 3.31001,3.80437c0.55402,0.36268 1.14966,0.65739 1.77408,0.8778zM174.74622,-93.04119l-16.07721,31.38064c-0.0415,0.07974 -0.09014,0.15556 -0.1453,0.22654c-0.23471,0.29747 -0.52645,0.36697 -0.87522,0.20849c-0.00374,-0.0017 -0.00746,-0.00342 -0.01118,-0.00516c-0.07506,-0.03442 -0.14612,-0.07694 -0.21193,-0.12681c-0.26366,-0.20434 -0.31725,-0.48633 -0.16077,-0.84599c0.02158,-0.04942 0.04553,-0.09777 0.07179,-0.14487l16.07721,-31.38064c0.045,-0.08235 0.09691,-0.16072 0.15518,-0.23428c0.25764,-0.31982 0.56413,-0.38502 0.9195,-0.19559c0.39864,0.2393 0.50152,0.57717 0.30865,1.01364c-0.01568,0.03526 -0.0326,0.06996 -0.05072,0.10403zM281.82731,-62.90718v-30.56389c-0.00138,-0.10704 0.01104,-0.21381 0.03697,-0.31768c0.07136,-0.27025 0.24703,-0.43073 0.52702,-0.48146c0.06926,-0.01211 0.13946,-0.01801 0.20978,-0.01762c0.11758,-0.00144 0.2341,0.02231 0.34175,0.06964c0.08905,0.04055 0.16992,0.09708 0.23858,0.16679c0.15297,0.14983 0.23833,0.35547 0.23643,0.56958c0.00002,0.00359 0.00002,0.00716 0,0.01075v30.56389c0.00006,0.17194 -0.06157,0.33819 -0.17367,0.46856c-0.01981,0.02391 -0.04076,0.04686 -0.06276,0.06878c-0.14983,0.15297 -0.35547,0.23833 -0.56958,0.23643c-0.00359,0.00002 -0.00716,0.00002 -0.01075,0c-0.17194,0.00006 -0.33819,-0.06157 -0.46856,-0.17367c-0.02391,-0.01981 -0.04686,-0.04076 -0.06878,-0.06276c-0.063,-0.06184 -0.11606,-0.13303 -0.15733,-0.21107c-0.05248,-0.10072 -0.07963,-0.2127 -0.0791,-0.32627zM235.9647,-61.76716c0.07326,-0.00975 0.14433,-0.03184 0.21021,-0.06534c0.20099,-0.09606 0.40132,-0.19349 0.60096,-0.29231c2.97213,-1.47074 5.46567,-3.09278 7.48063,-4.86615c2.14936,-1.89144 3.86168,-4.07662 5.13697,-6.55554c0.61534,-1.20377 1.13759,-2.45291 1.56215,-3.73645c0.5215,-1.58134 0.92609,-3.19886 1.21052,-4.8395c0.00015,-0.00129 0.00029,-0.00258 0.00043,-0.00387c0.0278,-0.19889 -0.01533,-0.37671 -0.12939,-0.53347c-0.11463,-0.15762 -0.27225,-0.25076 -0.47286,-0.27942c-0.34218,-0.0685 -0.58448,0.03568 -0.72691,0.31252c-0.03928,0.0784 -0.06943,0.16104 -0.08984,0.24632c-0.21903,1.35072 -0.52254,2.68637 -0.90875,3.9991c-0.42029,1.43725 -0.97228,2.83265 -1.64899,4.16847c-1.18931,2.32131 -2.80849,4.37036 -4.85755,6.14717c-1.15263,0.9996 -2.47978,1.95821 -3.98147,2.87584c-1.2385,0.75214 -2.51364,1.44222 -3.8207,2.06768c-0.07212,0.03545 -0.13734,0.08349 -0.19258,0.14186c-0.07028,0.07601 -0.12207,0.16722 -0.15131,0.26652c-0.00355,0.01153 -0.00684,0.02314 -0.00989,0.03482c-0.02321,0.08855 -0.02995,0.17553 -0.0202,0.26093c0.00988,0.08422 0.03463,0.16601 0.07308,0.24159c0.08597,0.17195 0.2221,0.29374 0.40838,0.36539c0.02075,0.00805 0.04184,0.01522 0.06319,0.02149c0.0897,0.02608 0.17768,0.03353 0.26394,0.02235zM82.10886,-63.63796c1.09395,0.00505 2.18443,-0.12343 3.24725,-0.38259c0.36977,-0.09159 0.73499,-0.20061 1.09445,-0.3267c1.34693,-0.47286 2.43594,-1.15349 3.26703,-2.04189c0.83109,-0.8884 1.20364,-1.97741 1.11767,-3.26703c-0.05832,-0.80153 -0.47634,-1.53359 -1.13701,-1.99117c-0.15772,-0.1149 -0.32366,-0.21806 -0.4965,-0.30865c-0.4622,-0.23931 -0.95266,-0.41955 -1.45984,-0.53648c-0.44965,-0.10776 -0.93755,-0.18184 -1.46371,-0.22224c-0.32884,-0.0248 -0.6585,-0.03698 -0.98828,-0.03654c-1.28962,0 -2.55774,0.2221 -3.80437,0.6663c-0.63238,0.22176 -1.23945,0.50995 -1.81105,0.85974c-0.47006,0.28906 -0.90774,0.62773 -1.30552,1.0102c-0.36871,0.34833 -0.67097,0.76085 -0.89198,1.2174c-0.23799,0.50656 -0.35919,1.06009 -0.35464,1.61976c-0.00412,0.38711 0.0461,0.77288 0.14917,1.14604c0.19447,0.70375 0.64795,1.30788 1.26941,1.69112c0.94572,0.60182 2.13503,0.90273 3.56794,0.90273zM296.44294,-74.25579c-0.33502,-0.27631 -0.67599,-0.54533 -1.02266,-0.80687c-0.38545,-0.29174 -0.80271,-0.59551 -1.25179,-0.91133c-0.27904,-0.19628 -0.55976,-0.39015 -0.84212,-0.58162c-1.24663,-0.84542 -2.53624,-1.66933 -3.86885,-2.47176c-0.63142,-0.38074 -1.26856,-0.7519 -1.91121,-1.11337c-0.61443,-0.34533 -1.20192,-0.66171 -1.76247,-0.94916c-0.00058,-0.00029 -0.00114,-0.00057 -0.00172,-0.00086c-0.08138,-0.04549 -0.1552,-0.10335 -0.2188,-0.17152c-0.07898,-0.08581 -0.13657,-0.18905 -0.16808,-0.30134c-0.01893,-0.06525 -0.02862,-0.13282 -0.0288,-0.20075c0,-0.09171 0.01805,-0.18356 0.05416,-0.27555c0.01714,-0.04325 0.0374,-0.0852 0.06061,-0.12552c0.03368,-0.08111 0.08206,-0.15529 0.14272,-0.2188c0.07911,-0.08051 0.17822,-0.13852 0.28715,-0.16808c0.18169,-0.05187 0.36353,-0.04499 0.54551,0.02063c0.01898,0.00691 0.03776,0.01436 0.05631,0.02235c0.58807,0.2952 1.16871,0.60494 1.74141,0.92895c0.6044,0.34075 1.23402,0.7133 1.88886,1.11767c0.04374,0.02703 0.08744,0.05411 0.13111,0.08125c1.36126,0.84542 2.6867,1.69799 3.97631,2.55774c0.45706,0.30407 0.9085,0.61649 1.3541,0.93712c0.69869,0.50381 1.30767,0.97953 1.82696,1.42717c0.06208,0.05256 0.11907,0.11085 0.17023,0.1741c0.2178,0.27283 0.22224,0.5627 0.01333,0.86963c-0.01736,0.02526 -0.03556,0.04992 -0.05459,0.07394c-0.31553,0.36826 -0.65527,0.42271 -1.01923,0.16335c-0.03395,-0.02431 -0.06679,-0.05013 -0.09844,-0.07738zM235.05726,-74.5567c0.00407,0.00864 0.00822,0.01724 0.01247,0.02579c0.2009,0.40924 0.51198,0.5296 0.93325,0.36109c0.00864,-0.00392 0.01723,-0.00794 0.02579,-0.01204c0.40924,-0.20118 0.5296,-0.51241 0.36109,-0.93368c-0.05753,-0.12582 -0.1157,-0.25135 -0.17453,-0.37657c-0.42725,-0.90713 -0.88518,-1.79948 -1.37301,-2.67552c-0.57317,-1.03169 -1.13199,-1.94875 -1.6765,-2.75118c-0.11463,-0.17195 -0.27225,-0.27225 -0.47286,-0.30091c-0.0063,-0.00093 -0.0126,-0.00178 -0.01891,-0.00258c-0.19258,-0.02321 -0.35823,0.02063 -0.49693,0.13154c-0.17195,0.11463 -0.27225,0.27225 -0.30091,0.47286c-0.00093,0.0063 -0.00178,0.0126 -0.00258,0.01891c-0.02321,0.19258 0.02063,0.35823 0.13154,0.49693c0.51585,0.71645 1.04602,1.56187 1.59053,2.53624c0.54451,0.97438 1.03169,1.97741 1.46156,3.0091zM242.46264,-75.90134c0.05428,-0.00539 0.10795,-0.01575 0.16034,-0.03095c0.07073,-0.02296 0.13875,-0.05351 0.2029,-0.09113c0.2413,-0.14415 0.33989,-0.37098 0.29575,-0.68049c-0.00634,-0.04412 -0.01494,-0.08788 -0.02579,-0.13111c-0.1602,-0.48031 -0.34433,-0.98455 -0.55239,-1.51272c-0.21308,-0.53924 -0.43738,-1.07397 -0.67275,-1.60385c-0.282,-0.63679 -0.56184,-1.22585 -0.83954,-1.7672c-0.20339,-0.39845 -0.41798,-0.79108 -0.64352,-1.17742c-0.04729,-0.09654 -0.11846,-0.17941 -0.20677,-0.24073c-0.06818,-0.04644 -0.14356,-0.08129 -0.2231,-0.10317c-0.20061,-0.05732 -0.37255,-0.02866 -0.51585,0.08597c-0.37456,0.22468 -0.48805,0.50381 -0.34046,0.83739c0.02357,0.05249 0.05117,0.10307 0.08254,0.15131c0.24148,0.39425 0.46747,0.79778 0.67748,1.20966c0.23299,0.45667 0.45147,0.92058 0.65512,1.39107c0.42987,0.98871 0.83108,2.05622 1.20364,3.20254c0.02834,0.08717 0.07511,0.16722 0.13713,0.23471c0.05911,0.06286 0.12918,0.11442 0.20677,0.15217c0.12524,0.06276 0.25806,0.08741 0.39849,0.07394z" fill="#000000" fill-rule="evenodd" stroke="#000000" stroke-width="0.25" stroke-linecap="round"/></g></g></svg>