<svg version="1.1" xmlns="http://www.w3.org/2000/svg" xmlns:xlink="http://www.w3.org/1999/xlink" width="134.65402" height="55.12324" viewBox="0,0,134.65402,55.12324"><g transform="translate(-172.62181,-138.01133)"><g data-paper-data="{&quot;isPaintingLayer&quot;:true}" fill="#000000" fill-rule="evenodd" stroke="#000000" stroke-linecap="round" stroke-linejoin="miter" stroke-miterlimit="10" stroke-dasharray="" stroke-dashoffset="0" style="mix-blend-mode: normal"><path d="M212.75029,191.91477v-8.66528c-0.50426,0.55364 -1.03814,1.07956 -1.59929,1.57546c-0.26962,0.23906 -0.54444,0.47217 -0.82428,0.69918c-0.91166,0.74016 -1.87748,1.44421 -2.89745,2.11216c-0.98864,0.64879 -2.00091,1.26084 -3.03474,1.83487c-0.00388,0.00217 -0.00776,0.00433 -0.01164,0.0065c-0.54344,0.30167 -1.09526,0.58801 -1.6548,0.85867c-0.4004,0.19357 -0.80572,0.37678 -1.21558,0.54943c-0.06921,0.02965 -0.14378,0.04477 -0.21907,0.04441c-0.04206,0 -0.0853,-0.00442 -0.12971,-0.01327c-0.0239,-0.0048 -0.04757,-0.01067 -0.07095,-0.0176c-0.06337,-0.01797 -0.12351,-0.04585 -0.17818,-0.08259c-0.0661,-0.04519 -0.12094,-0.10494 -0.16031,-0.17466c-0.06643,-0.13251 -0.07194,-0.26131 -0.01652,-0.38642c0.0051,-0.0113 0.01061,-0.02241 0.01652,-0.03331c0.07221,-0.13539 0.1715,-0.22115 0.29787,-0.25725c0.85506,-0.35316 1.69366,-0.74495 2.5132,-1.17415c0.52302,-0.27312 1.03938,-0.5588 1.54865,-0.85678c1.39006,-0.81237 2.7079,-1.68341 3.95353,-2.61312c1.22541,-0.91473 2.27617,-1.80761 3.15227,-2.67865c0.01437,-0.01424 0.02872,-0.0285 0.04306,-0.04278h-10.53373c-0.1084,0.0001 -0.21324,-0.03872 -0.29543,-0.1094c-0.01497,-0.01249 -0.02934,-0.02568 -0.04306,-0.03954c-0.03978,-0.03893 -0.0733,-0.08378 -0.09938,-0.13296c-0.03297,-0.06347 -0.04997,-0.13401 -0.04955,-0.20553c-0.00067,-0.05819 0.00858,-0.11606 0.02735,-0.17114c0.02467,-0.06956 0.06648,-0.13178 0.12158,-0.18089c0.04716,-0.0438 0.10196,-0.07859 0.16166,-0.10263c0.05634,-0.02199 0.11634,-0.03311 0.17683,-0.03277h11.02115v-2.73498h-2.1934c-0.41907,0.00086 -0.83808,-0.0107 -1.25647,-0.03466c-0.91744,-0.05452 -1.6585,-0.17385 -2.22319,-0.35798c-0.28244,-0.08908 -0.55084,-0.21772 -0.79721,-0.38208c-0.37716,-0.25321 -0.67376,-0.6093 -0.85461,-1.02602c-0.10982,-0.25552 -0.19505,-0.52092 -0.25454,-0.7926c-0.12817,-0.56433 -0.19226,-1.24338 -0.19226,-2.03715v-1.11024c0,-1.20953 0.14893,-2.14827 0.4468,-2.81622c0.23427,-0.52326 0.64417,-0.94811 1.15871,-1.20095c0.15887,-0.08147 0.32372,-0.15072 0.49311,-0.20715c0.28032,-0.09199 0.56694,-0.16358 0.85759,-0.21419c0.60621,-0.10994 1.33689,-0.17267 2.19204,-0.1882c0.14332,-0.00256 0.28667,-0.00382 0.43001,-0.00379h5.2804c0.39811,-0.00074 0.79615,0.01 1.19364,0.03222c0.78637,0.04549 1.44331,0.13964 1.97081,0.28243c0.10151,0.02727 0.20211,0.05779 0.30166,0.09153c0.28508,0.09425 0.55538,0.22836 0.80289,0.39833c0.36641,0.25294 0.65557,0.60247 0.83539,1.00978c0.10992,0.25275 0.19507,0.51556 0.25427,0.78475c0.12835,0.56054 0.19253,1.23769 0.19253,2.03147v1.11024c0,1.20953 -0.14893,2.15278 -0.4468,2.82975c-0.29787,0.67697 -0.84396,1.14634 -1.63828,1.40811c-0.27726,0.0889 -0.5605,0.15794 -0.84757,0.20661c-0.60314,0.10651 -1.33256,0.16726 -2.18825,0.18224c-0.14341,0.00252 -0.28685,0.00378 -0.43029,0.00379h-2.11216v2.73498h10.88576c0.05496,-0.00046 0.1097,0.00711 0.16247,0.02248c0.07168,0.02109 0.13687,0.05993 0.18955,0.11292c0.07347,0.07369 0.11952,0.17029 0.13052,0.27377c0.00326,0.02596 0.00488,0.0521 0.00487,0.07826c0.00025,0.12121 -0.04475,0.23815 -0.12619,0.32793c-0.00303,0.00355 -0.0061,0.00708 -0.00921,0.01056c-0.09026,0.09929 -0.20761,0.14893 -0.35203,0.14893h-10.42541c0.88458,0.88458 1.94517,1.78721 3.18178,2.7079c1.23661,0.92069 2.54994,1.77819 3.93999,2.5725c1.39006,0.79432 2.73498,1.46227 4.03477,2.00385c0.06283,0.02296 0.12147,0.05607 0.17358,0.09803c0.05775,0.04709 0.10475,0.106 0.13783,0.17276c0.06318,0.12637 0.05867,0.26176 -0.01354,0.40618c-0.07221,0.12637 -0.18053,0.21663 -0.32495,0.27079c-0.04847,0.01846 -0.09937,0.02977 -0.1511,0.03358c-0.07347,0.00524 -0.14695,-0.00596 -0.22042,-0.03358c-0.02104,-0.00794 -0.04165,-0.01698 -0.06174,-0.02708c-1.19148,-0.50547 -2.4687,-1.15086 -3.83168,-1.93615c-1.36298,-0.78529 -2.68533,-1.66084 -3.96707,-2.62666c-0.73055,-0.5482 -1.4351,-1.13022 -2.11135,-1.74416c-0.43034,-0.39155 -0.8461,-0.79883 -1.24645,-1.22099v8.6382c0.00025,0.12121 -0.04475,0.23815 -0.12619,0.32793c-0.00303,0.00355 -0.0061,0.00708 -0.00921,0.01056c-0.09026,0.09929 -0.20761,0.14893 -0.35203,0.14893c-0.1084,0.0001 -0.21324,-0.03872 -0.29543,-0.1094c-0.01497,-0.01249 -0.02934,-0.02568 -0.04306,-0.03954c-0.03978,-0.03893 -0.0733,-0.08378 -0.09938,-0.13296c-0.03297,-0.06347 -0.04997,-0.13401 -0.04955,-0.20553zM191.35789,175.69445h-3.84522c-0.1084,0.0001 -0.21324,-0.03872 -0.29543,-0.1094c-0.01497,-0.01249 -0.02934,-0.02568 -0.04306,-0.03954c-0.03978,-0.03893 -0.0733,-0.08378 -0.09938,-0.13296c-0.03297,-0.06347 -0.04997,-0.13401 -0.04955,-0.20553c-0.00067,-0.05819 0.00858,-0.11606 0.02735,-0.17114c0.02467,-0.06956 0.06648,-0.13178 0.12158,-0.18089c0.04716,-0.0438 0.10196,-0.07859 0.16166,-0.10263c0.05634,-0.02199 0.11634,-0.03311 0.17683,-0.03277h3.84522v-6.49896c-0.00067,-0.05819 0.00858,-0.11606 0.02735,-0.17114c0.02467,-0.06956 0.06648,-0.13178 0.12158,-0.18089c0.04716,-0.0438 0.10196,-0.07859 0.16166,-0.10263c0.05634,-0.02199 0.11634,-0.03311 0.17683,-0.03277c0.05496,-0.00046 0.1097,0.00711 0.16247,0.02248c0.07168,0.02109 0.13687,0.05993 0.18955,0.11292c0.07347,0.07369 0.11952,0.17029 0.13052,0.27377c0.00326,0.02596 0.00488,0.0521 0.00487,0.07826v6.49896h1.27271c0.95679,0 1.69695,0.09478 2.22048,0.28433c0.23967,0.08363 0.46038,0.21395 0.64935,0.38344c0.1948,0.17965 0.34755,0.40008 0.44734,0.64556c0.1984,0.47479 0.30193,1.13515 0.3106,1.9811c0.00047,0.03917 0.00074,0.07835 0.00081,0.11752c0,1.24563 -0.02708,2.46419 -0.08124,3.65566c-0.05416,1.19148 -0.11734,2.28366 -0.18955,3.27656c-0.02416,0.33504 -0.05251,0.66976 -0.08503,1.00409c-0.02726,0.27855 -0.05641,0.5395 -0.08747,0.78285c-0.02844,0.22636 -0.06121,0.45215 -0.0983,0.67725c-0.16247,1.20953 -0.42424,2.1257 -0.78529,2.74852c-0.36105,0.62282 -0.89361,1.03803 -1.59766,1.24563c-0.24374,0.07021 -0.49164,0.12511 -0.74224,0.16437c-0.60422,0.09803 -1.34068,0.14704 -2.20938,0.14704c-0.1084,0.0001 -0.21324,-0.03872 -0.29543,-0.1094c-0.01497,-0.01249 -0.02934,-0.02568 -0.04306,-0.03954c-0.03978,-0.03893 -0.0733,-0.08378 -0.09938,-0.13296c-0.03297,-0.06347 -0.04997,-0.13401 -0.04955,-0.20553c-0.00067,-0.05819 0.00858,-0.11606 0.02735,-0.17114c0.02467,-0.06956 0.06648,-0.13178 0.12158,-0.18089c0.04716,-0.0438 0.10196,-0.07859 0.16166,-0.10263c0.05634,-0.02199 0.11634,-0.03311 0.17683,-0.03277c0.24882,0.00026 0.49762,-0.00372 0.7463,-0.01191c0.47767,-0.01625 0.88648,-0.04928 1.22641,-0.09911c0.02394,-0.00348 0.04786,-0.00709 0.07176,-0.01083c0.5145,-0.08124 0.91617,-0.2392 1.20502,-0.47388c0.16191,-0.13368 0.29991,-0.29392 0.40808,-0.47388c0.09947,-0.16211 0.18459,-0.34715 0.25535,-0.55512c0.10308,-0.30328 0.20002,-0.67174 0.29083,-1.10536c0.04721,-0.22646 0.09018,-0.45378 0.1289,-0.68185c0.10832,-0.63184 0.20309,-1.44421 0.28433,-2.43711c0.08124,-0.9929 0.14893,-2.08057 0.20309,-3.26302c0.05416,-1.18245 0.08124,-2.38746 0.08124,-3.61505c0,-0.58003 -0.04847,-1.03749 -0.14541,-1.37236c-0.01653,-0.05792 -0.03577,-0.11503 -0.05768,-0.17114c-0.11845,-0.3066 -0.36146,-0.54852 -0.66858,-0.6656c-0.03394,-0.01399 -0.06835,-0.02682 -0.10317,-0.03845c-0.12983,-0.04201 -0.26249,-0.07467 -0.39698,-0.09776c-0.34011,-0.0612 -0.76742,-0.0918 -1.28192,-0.0918h-1.27271c-0.00554,1.11667 -0.04979,2.23282 -0.13269,3.34642c-0.10344,1.35539 -0.26682,2.60933 -0.49013,3.76181c-0.39716,2.04898 -1.05157,3.82716 -1.96323,5.33456c-0.76472,1.25194 -1.74385,2.3595 -2.89258,3.27195c-0.27817,0.22387 -0.56431,0.43766 -0.85786,0.64096c-0.04126,0.02448 -0.08425,0.04593 -0.12863,0.06418c-0.20057,0.0816 -0.37541,0.06057 -0.52452,-0.06309c-0.03881,-0.03263 -0.07403,-0.06931 -0.10507,-0.1094c-0.02897,-0.03996 -0.05289,-0.08334 -0.07122,-0.12917c-0.03376,-0.08575 -0.04161,-0.17358 -0.02356,-0.26348c0.02708,-0.13539 0.1038,-0.2392 0.23017,-0.31141c1.22627,-0.78971 2.2895,-1.80753 3.13196,-2.99819c0.12588,-0.1794 0.24635,-0.36253 0.36123,-0.54916c0.49981,-0.82192 0.9092,-1.69552 1.22099,-2.60554c0.27843,-0.80728 0.49932,-1.63327 0.661,-2.47177c0.17791,-0.92107 0.31238,-1.85001 0.40294,-2.78372c0.12727,-1.27398 0.19605,-2.6523 0.20634,-4.13496zM293.8248,185.49705v-9.0173h-8.66528c-0.1084,0.0001 -0.21324,-0.03872 -0.29543,-0.1094c-0.01497,-0.01249 -0.02934,-0.02568 -0.04306,-0.03954c-0.03978,-0.03893 -0.0733,-0.08378 -0.09938,-0.13296c-0.03297,-0.06347 -0.04997,-0.13401 -0.04955,-0.20553c-0.00096,-0.06742 0.00678,-0.13468 0.02302,-0.20011c0.04513,-0.17024 0.15579,-0.27133 0.33199,-0.30328c0.04372,-0.00765 0.08803,-0.01136 0.13242,-0.0111h8.66528v-4.33264c-0.00067,-0.05819 0.00858,-0.11606 0.02735,-0.17114c0.02467,-0.06956 0.06648,-0.13178 0.12158,-0.18089c0.04716,-0.0438 0.10196,-0.07859 0.16166,-0.10263c0.05634,-0.02199 0.11634,-0.03311 0.17683,-0.03277c0.05496,-0.00046 0.1097,0.00711 0.16247,0.02248c0.07168,0.02109 0.13687,0.05993 0.18955,0.11292c0.07347,0.07369 0.11952,0.17029 0.13052,0.27377c0.00326,0.02596 0.00488,0.0521 0.00487,0.07826v4.33264h8.17786c0.06622,-0.00098 0.13221,0.00797 0.19578,0.02654c0.19443,0.06012 0.29164,0.22277 0.29164,0.48796c0.00025,0.12121 -0.04475,0.23815 -0.12619,0.32793c-0.00303,0.00355 -0.0061,0.00708 -0.00921,0.01056c-0.09026,0.09929 -0.20761,0.14893 -0.35203,0.14893h-8.17786v9.0173c0.00112,0.33697 -0.01433,0.67379 -0.04631,1.00923c-0.0677,0.68275 -0.20932,1.24717 -0.42487,1.69325c-0.0009,0.00181 -0.0018,0.00361 -0.00271,0.00542c-0.31592,0.6499 -0.7898,1.10121 -1.42165,1.35395c-0.48345,0.19334 -1.07251,0.31276 -1.76718,0.35826c-0.22303,0.01423 -0.44646,0.02119 -0.66993,0.02085c-0.1084,0.0001 -0.21324,-0.03872 -0.29543,-0.1094c-0.01497,-0.01249 -0.02934,-0.02568 -0.04306,-0.03954c-0.03978,-0.03893 -0.0733,-0.08378 -0.09938,-0.13296c-0.03297,-0.06347 -0.04997,-0.13401 -0.04955,-0.20553c-0.00067,-0.05819 0.00858,-0.11606 0.02735,-0.17114c0.02467,-0.06956 0.06648,-0.13178 0.12158,-0.18089c0.04716,-0.0438 0.10196,-0.07859 0.16166,-0.10263c0.05634,-0.02199 0.11634,-0.03311 0.17683,-0.03277c0.25249,0.00074 0.5049,-0.00892 0.75659,-0.02897c0.51432,-0.04278 0.9391,-0.13242 1.27434,-0.26889c0.45907,-0.17954 0.82418,-0.53985 1.00978,-0.99651c0.00658,-0.01527 0.01299,-0.03062 0.01923,-0.04603c0.07038,-0.18071 0.12501,-0.36717 0.16329,-0.55729c0.07708,-0.36701 0.12104,-0.8047 0.13187,-1.31306c0.00181,-0.08511 0.00271,-0.17023 0.00271,-0.25535zM252.23146,178.91685h-23.93783c-0.1084,0.0001 -0.21324,-0.03872 -0.29543,-0.1094c-0.01497,-0.01249 -0.02934,-0.02568 -0.04306,-0.03954c-0.03978,-0.03893 -0.0733,-0.08378 -0.09938,-0.13296c-0.03297,-0.06347 -0.04997,-0.13401 -0.04955,-0.20553c-0.00067,-0.05819 0.00858,-0.11606 0.02735,-0.17114c0.02467,-0.06956 0.06648,-0.13178 0.12158,-0.18089c0.04716,-0.0438 0.10196,-0.07859 0.16166,-0.10263c0.05634,-0.02199 0.11634,-0.03311 0.17683,-0.03277h8.01538c-0.05902,-0.17669 -0.1195,-0.35289 -0.18143,-0.52858c-0.08449,-0.23992 -0.17746,-0.49699 -0.27891,-0.77121c-0.18053,-0.48742 -0.36557,-0.97033 -0.55512,-1.44873c-0.06742,-0.17009 -0.13539,-0.33997 -0.2039,-0.50963c-0.05398,-0.13359 -0.1057,-0.26059 -0.15516,-0.381c-0.04683,-0.11402 -0.09413,-0.22784 -0.14189,-0.34147c-0.02905,-0.06645 -0.04416,-0.13815 -0.04441,-0.21067c0,-0.04946 0.00704,-0.09956 0.02112,-0.15029c0.00298,-0.01064 0.00623,-0.02121 0.00975,-0.03168c0.03861,-0.11942 0.12669,-0.21648 0.24182,-0.26646c0.01394,-0.0065 0.02812,-0.01246 0.04251,-0.01787c0.27783,-0.10236 0.48462,-0.06246 0.62038,0.11969c0.03407,0.04669 0.06218,0.09745 0.08367,0.1511c0.06348,0.13484 0.12415,0.27099 0.18197,0.40835c0.05632,0.13269 0.11436,0.27557 0.17412,0.42866c0.06358,0.16262 0.12541,0.32591 0.18549,0.48986c0.19858,0.54158 0.39265,1.08767 0.5822,1.63828c0.0673,0.19546 0.13392,0.39115 0.19984,0.58707c0.05181,0.15417 0.10055,0.30076 0.14623,0.43976c0.0432,0.13141 0.08581,0.26301 0.12781,0.39481h5.65951c0.0652,-0.15948 0.12992,-0.31916 0.19416,-0.47903c0.05705,-0.14225 0.1168,-0.29191 0.17926,-0.44897c0.06535,-0.16444 0.13043,-0.32899 0.19524,-0.49365c0.21663,-0.55061 0.42424,-1.10573 0.62282,-1.66536c0.19605,-0.55295 0.35699,-1.01781 0.48282,-1.39457c0.00154,-0.00451 0.00307,-0.00903 0.0046,-0.01354c0.0308,-0.12374 0.10671,-0.23152 0.21284,-0.3022c0.01872,-0.01303 0.03806,-0.02514 0.05795,-0.03629c0.09983,-0.05614 0.19975,-0.08422 0.29976,-0.08422c0.04501,0 0.08985,0.00555 0.1335,0.01652c0.07318,0.02357 0.14145,0.06028 0.20147,0.10832c0.0632,0.05165 0.11455,0.1163 0.15056,0.18955c0.06968,0.13955 0.08042,0.27918 0.03222,0.41891c-0.00165,0.00481 -0.00337,0.00959 -0.00515,0.01435c-0.08701,0.24822 -0.191,0.53057 -0.31195,0.84703c-0.0578,0.15119 -0.11629,0.30211 -0.17547,0.45276c-0.19858,0.50547 -0.40618,1.01095 -0.62282,1.51642c-0.09657,0.22546 -0.19414,0.45049 -0.29272,0.67508c-0.09297,0.2114 -0.18197,0.41106 -0.267,0.59899c-0.01198,0.02664 -0.02399,0.05327 -0.03602,0.07988h8.15078c0.05496,-0.00046 0.1097,0.00711 0.16247,0.02248c0.07168,0.02109 0.13687,0.05993 0.18955,0.11292c0.07347,0.07369 0.11952,0.17029 0.13052,0.27377c0.00326,0.02596 0.00488,0.0521 0.00487,0.07826c0.00025,0.12121 -0.04475,0.23815 -0.12619,0.32793c-0.00303,0.00355 -0.0061,0.00708 -0.00921,0.01056c-0.09026,0.09929 -0.20761,0.14893 -0.35203,0.14893zM270.32023,176.72345h-10.07339c-0.06743,0.00087 -0.13469,-0.00696 -0.20011,-0.02329c-0.17042,-0.04495 -0.2716,-0.15552 -0.30356,-0.33172c-0.00756,-0.04373 -0.01118,-0.08804 -0.01083,-0.13242c-0.0009,-0.07407 0.01405,-0.14747 0.04387,-0.21528c0.02554,-0.0561 0.06115,-0.10704 0.10507,-0.15029c0.09438,-0.09636 0.22392,-0.15013 0.3588,-0.14893c0.00226,-0.00001 0.00451,-0.00001 0.00677,0h10.07339c1.76916,0 2.93356,0.48291 3.49319,1.44873c0.48273,0.83313 0.48183,1.89129 -0.00271,3.17447c-0.081,0.2135 -0.17043,0.42371 -0.26808,0.63013c-0.61379,1.26369 -1.46678,2.45065 -2.55896,3.56089c-0.95085,0.96082 -2.00027,1.81881 -3.13087,2.55978c-0.21755,0.14356 -0.43764,0.28322 -0.66019,0.41891c-1.38105,0.838 -2.84057,1.53924 -4.35782,2.09375c-0.1042,0.03836 -0.20864,0.0761 -0.3133,0.11319c-0.24479,0.07203 -0.43218,0.02347 -0.56216,-0.14568c-0.03529,-0.047 -0.06475,-0.0981 -0.08774,-0.15218c-0.00866,-0.03075 -0.01571,-0.06194 -0.02112,-0.09342c-0.04567,-0.27169 0.06968,-0.44816 0.34607,-0.52939c1.36447,-0.47093 2.68258,-1.06675 3.93756,-1.7799c0.17372,-0.09932 0.34605,-0.20105 0.51694,-0.30518c1.36298,-0.83042 2.55896,-1.76916 3.58797,-2.81622c1.029,-1.04705 1.83235,-2.16632 2.41003,-3.3578c0.10198,-0.21188 0.19318,-0.42879 0.27323,-0.6499c0.32296,-0.90101 0.32666,-1.62311 0.0111,-2.16632c-0.3625,-0.62354 -1.1458,-0.95607 -2.34992,-0.99759c-0.0877,-0.00295 -0.17545,-0.0044 -0.26321,-0.00433zM174.47955,191.62286c0.06106,-0.02001 0.11862,-0.04943 0.1706,-0.08719c1.3359,-0.90263 2.52737,-1.86394 3.57443,-2.88391c1.04705,-1.01998 1.95871,-2.13473 2.73498,-3.34426c0.59687,0.57334 1.18358,1.15717 1.75986,1.7512c0.68708,0.70731 1.35535,1.43265 2.00412,2.17526c0.04856,0.06806 0.10633,0.11779 0.17331,0.14921c0.0603,0.02754 0.12598,0.04132 0.19226,0.04035c0.15345,0 0.2753,-0.05416 0.36557,-0.16247c0.02661,-0.02268 0.0515,-0.0473 0.07447,-0.07365c0.07603,-0.08444 0.12135,-0.19206 0.12863,-0.30545c0.00903,-0.14442 -0.04062,-0.27079 -0.14893,-0.37911c-0.62968,-0.69051 -1.33066,-1.41813 -2.10295,-2.18284c-0.63443,-0.62715 -1.27844,-1.24454 -1.93182,-1.85193c0.27956,-0.47408 0.53947,-0.95947 0.77906,-1.45495c0.55042,-1.14545 1.00536,-2.33437 1.36018,-3.55466c0.0012,-0.00414 0.00238,-0.0083 0.00352,-0.01246c0.06788,-0.24407 0.00199,-0.41828 -0.19768,-0.52262c-0.05036,-0.02569 -0.10327,-0.04602 -0.15787,-0.06066c-0.12637,-0.05416 -0.24822,-0.04964 -0.36557,0.01354c-0.06921,0.0366 -0.12722,0.09124 -0.16789,0.15814c-0.02843,0.04763 -0.04943,0.09931 -0.06228,0.15327c-0.23468,0.83042 -0.50547,1.62925 -0.81237,2.39649c-0.3069,0.76724 -0.66795,1.50288 -1.08316,2.20694c-0.54158,-0.48742 -1.08316,-0.97033 -1.62474,-1.44873c-0.54158,-0.4784 -1.07413,-0.91617 -1.59766,-1.31333c-0.02019,-0.01383 -0.04087,-0.02693 -0.06201,-0.03926c-0.21176,-0.12402 -0.40339,-0.12231 -0.57489,0.00515c-0.04459,0.03383 -0.08528,0.07252 -0.12131,0.11536c-0.06427,0.08033 -0.0964,0.17845 -0.0964,0.29435c0.00005,0.01473 0.0006,0.02945 0.00162,0.04414c0.00378,0.06538 0.02132,0.12924 0.05145,0.18739c0.03109,0.05813 0.07344,0.10949 0.12456,0.1511c0.55963,0.43326 1.12378,0.88909 1.69244,1.36749c0.56866,0.4784 1.1328,0.97936 1.69244,1.50288c-0.72211,1.15537 -1.60217,2.24304 -2.6402,3.26302c-0.29527,0.28991 -0.59989,0.57015 -0.91337,0.84026c-0.84054,0.72093 -1.73465,1.37696 -2.67459,1.96241c-0.00428,0.00238 -0.00852,0.00482 -0.01273,0.00731c-0.06192,0.03773 -0.11012,0.08476 -0.1446,0.14108c-0.03218,0.05393 -0.05241,0.11414 -0.0593,0.17656c-0.00048,0.00361 -0.00093,0.00722 -0.00135,0.01083c-0.00289,0.026 -0.00424,0.05145 -0.00406,0.07636c-0.00098,0.10378 0.02921,0.20547 0.08665,0.29191c0.00449,0.0064 0.00909,0.01272 0.01381,0.01896c0.08036,0.11004 0.2029,0.18166 0.33822,0.19768c0.08142,0.01011 0.15995,0.00307 0.23559,-0.02112zM250.57965,172.22834h-20.55296c-0.1084,0.0001 -0.21324,-0.03872 -0.29543,-0.1094c-0.01497,-0.01249 -0.02934,-0.02568 -0.04306,-0.03954c-0.03978,-0.03893 -0.0733,-0.08378 -0.09938,-0.13296c-0.03297,-0.06347 -0.04997,-0.13401 -0.04955,-0.20553c-0.00067,-0.05819 0.00858,-0.11606 0.02735,-0.17114c0.02467,-0.06956 0.06648,-0.13178 0.12158,-0.18089c0.04716,-0.0438 0.10196,-0.07859 0.16166,-0.10263c0.05634,-0.02199 0.11634,-0.03311 0.17683,-0.03277h9.77552v-3.16824c-0.00067,-0.05819 0.00858,-0.11606 0.02735,-0.17114c0.02467,-0.06956 0.06648,-0.13178 0.12158,-0.18089c0.04716,-0.0438 0.10196,-0.07859 0.16166,-0.10263c0.05634,-0.02199 0.11634,-0.03311 0.17683,-0.03277c0.05496,-0.00046 0.1097,0.00711 0.16247,0.02248c0.07168,0.02109 0.13687,0.05993 0.18955,0.11292c0.07347,0.07369 0.11952,0.17029 0.13052,0.27377c0.00326,0.02596 0.00488,0.0521 0.00487,0.07826v3.16824h9.8026c0.05496,-0.00046 0.1097,0.00711 0.16247,0.02248c0.07168,0.02109 0.13687,0.05993 0.18955,0.11292c0.07347,0.07369 0.11952,0.17029 0.13052,0.27377c0.00326,0.02596 0.00488,0.0521 0.00487,0.07826c0.00025,0.12121 -0.04475,0.23815 -0.12619,0.32793c-0.00303,0.00355 -0.0061,0.00708 -0.00921,0.01056c-0.09026,0.09929 -0.20761,0.14893 -0.35203,0.14893zM242.67258,191.83353h-4.63051c-1.14346,0 -2.0469,-0.11563 -2.71034,-0.34688c-0.01728,-0.0061 -0.03453,-0.01233 -0.05172,-0.01868c-0.28565,-0.10074 -0.55157,-0.25047 -0.78583,-0.44247c-0.26859,-0.22513 -0.48156,-0.50927 -0.62228,-0.83024c-0.26808,-0.59863 -0.40348,-1.42264 -0.40618,-2.47204c-0.00001,-0.01092 -0.00001,-0.02184 0,-0.03277v-2.08508c-0.001,-0.31077 0.0122,-0.62141 0.03954,-0.93098c0.05723,-0.623 0.17637,-1.14066 0.35744,-1.55298c0.00304,-0.00696 0.00611,-0.01391 0.00921,-0.02085c0.24912,-0.56246 0.71138,-1.00299 1.28517,-1.22478c0.04063,-0.01685 0.08162,-0.03283 0.12294,-0.04793c0.25183,-0.08964 0.51045,-0.15891 0.77338,-0.20715c0.5358,-0.10218 1.17424,-0.15489 1.9153,-0.15814c0.02446,-0.00014 0.04892,-0.00023 0.07338,-0.00027h4.63051c0.34259,-0.00082 0.68509,0.01083 1.02684,0.03493c0.64773,0.0473 1.18958,0.14316 1.62555,0.28758c0.04131,0.01364 0.08239,0.028 0.12321,0.04306c0.29189,0.1044 0.56244,0.26083 0.79856,0.4617c0.25613,0.22301 0.45967,0.49998 0.59601,0.81102c0.2679,0.59863 0.40321,1.42264 0.40591,2.47204c0.0001,0.01092 0.00019,0.02184 0.00027,0.03277v2.08508c0.00091,0.31086 -0.01237,0.6216 -0.03981,0.93125c-0.05723,0.62282 -0.17628,1.14039 -0.35717,1.55271c-0.00304,0.00696 -0.00611,0.01391 -0.00921,0.02085c-0.25597,0.57966 -0.73658,1.03036 -1.33147,1.24861c-0.02094,0.00826 -0.04198,0.0163 -0.06309,0.0241c-0.23916,0.08632 -0.48482,0.15342 -0.73465,0.20066c-0.56017,0.10994 -1.24049,0.16491 -2.04094,0.16491zM186.59198,173.96139h-12.13139c-0.1084,0.0001 -0.21324,-0.03872 -0.29543,-0.1094c-0.01497,-0.01249 -0.02934,-0.02568 -0.04306,-0.03954c-0.03978,-0.03893 -0.0733,-0.08378 -0.09938,-0.13296c-0.03297,-0.06347 -0.04997,-0.13401 -0.04955,-0.20553c-0.00067,-0.05819 0.00858,-0.11606 0.02735,-0.17114c0.02467,-0.06956 0.06648,-0.13178 0.12158,-0.18089c0.04716,-0.0438 0.10196,-0.07859 0.16166,-0.10263c0.05634,-0.02199 0.11634,-0.03311 0.17683,-0.03277h5.68659v-4.7659c-0.00067,-0.05819 0.00858,-0.11606 0.02735,-0.17114c0.02467,-0.06956 0.06648,-0.13178 0.12158,-0.18089c0.04716,-0.0438 0.10196,-0.07859 0.16166,-0.10263c0.05634,-0.02199 0.11634,-0.03311 0.17683,-0.03277c0.05496,-0.00046 0.1097,0.00711 0.16247,0.02248c0.07168,0.02109 0.13687,0.05993 0.18955,0.11292c0.07347,0.07369 0.11952,0.17029 0.13052,0.27377c0.00326,0.02596 0.00488,0.0521 0.00487,0.07826v4.7659h5.46996c0.05496,-0.00046 0.1097,0.00711 0.16247,0.02248c0.07168,0.02109 0.13687,0.05993 0.18955,0.11292c0.07347,0.07369 0.11952,0.17029 0.13052,0.27377c0.00326,0.02596 0.00488,0.0521 0.00487,0.07826c0.00025,0.12121 -0.04475,0.23815 -0.12619,0.32793c-0.00303,0.00355 -0.0061,0.00708 -0.00921,0.01056c-0.09026,0.09929 -0.20761,0.14893 -0.35203,0.14893zM238.04207,190.85869h4.63051c0.97484,0 1.71952,-0.08575 2.23402,-0.25725c0.20407,-0.06557 0.39566,-0.16498 0.56676,-0.29408c0.22132,-0.17076 0.39457,-0.39598 0.50286,-0.65369c0.0718,-0.17099 0.12746,-0.34832 0.16627,-0.52967c0.08142,-0.36448 0.12501,-0.80298 0.13079,-1.3155c0.00049,-0.03935 0.00076,-0.07871 0.00081,-0.11806v-0.62282h-11.83352v0.62282c-0.00071,0.24083 0.00851,0.48158 0.02762,0.72166c0.04206,0.50764 0.13215,0.9215 0.27025,1.24157c0.17371,0.40701 0.50444,0.72662 0.91717,0.8863c0.05451,0.02264 0.10989,0.04314 0.16599,0.06147c0.4728,0.15489 1.12242,0.23983 1.94888,0.25481c0.09052,0.00163 0.18106,0.00245 0.2716,0.00244zM234.44057,185.60536v0.48742h11.83352v-0.48742c0.00057,-0.2275 -0.00729,-0.45494 -0.02356,-0.68185c-0.04026,-0.53887 -0.13169,-0.97051 -0.27431,-1.29492c-0.19858,-0.45132 -0.55512,-0.76272 -1.06962,-0.93423c-0.17984,-0.05833 -0.36364,-0.10367 -0.54997,-0.13567c-0.38885,-0.06968 -0.85813,-0.1094 -1.40784,-0.11915c-0.09206,-0.00163 -0.18413,-0.00244 -0.27621,-0.00244h-4.63051c-0.2716,-0.00061 -0.54316,0.00733 -0.81427,0.02383c-0.57353,0.03647 -1.04227,0.11427 -1.40621,0.23342c-0.19199,0.06083 -0.37374,0.1502 -0.53914,0.2651c-0.23961,0.16857 -0.4279,0.40015 -0.54402,0.66912c-0.17944,0.40763 -0.27783,0.98468 -0.29516,1.73116c-0.00185,0.08186 -0.00276,0.16373 -0.00271,0.24561zM272.37824,171.768h-10.37125c-0.1084,0.0001 -0.21324,-0.03872 -0.29543,-0.1094c-0.01497,-0.01249 -0.02934,-0.02568 -0.04306,-0.03954c-0.03978,-0.03893 -0.0733,-0.08378 -0.09938,-0.13296c-0.03297,-0.06347 -0.04997,-0.13401 -0.04955,-0.20553c-0.00067,-0.05819 0.00858,-0.11606 0.02735,-0.17114c0.02467,-0.06956 0.06648,-0.13178 0.12158,-0.18089c0.04716,-0.0438 0.10196,-0.07859 0.16166,-0.10263c0.05634,-0.02199 0.11634,-0.03311 0.17683,-0.03277h10.37125c0.05496,-0.00046 0.1097,0.00711 0.16247,0.02248c0.07168,0.02109 0.13687,0.05993 0.18955,0.11292c0.07347,0.07369 0.11952,0.17029 0.13052,0.27377c0.00326,0.02596 0.00488,0.0521 0.00487,0.07826c0.00025,0.12121 -0.04475,0.23815 -0.12619,0.32793c-0.00303,0.00355 -0.0061,0.00708 -0.00921,0.01056c-0.09026,0.09929 -0.20761,0.14893 -0.35203,0.14893zM210.55689,177.91493h2.1934v-3.7369h-6.79683v0.08124c-0.00087,0.27681 0.00997,0.55354 0.03249,0.82943c0.04983,0.58418 0.15634,1.06141 0.31953,1.43167c0.23468,0.53255 0.68149,0.89812 1.34041,1.0967c0.21961,0.06438 0.4431,0.11467 0.66912,0.15056c0.59321,0.09821 1.3405,0.14731 2.24187,0.14731zM205.95346,173.14902v0.05416h6.79683v-3.70982h-2.1934c-0.33601,-0.00059 -0.67199,0.00727 -1.00761,0.02356c-0.64791,0.03268 -1.18904,0.09938 -1.62339,0.20011c-0.09411,0.02171 -0.18749,0.04645 -0.28,0.0742c-0.65892,0.19858 -1.10573,0.56415 -1.34041,1.0967c-0.08635,0.201 -0.15318,0.40984 -0.19957,0.62363c-0.09514,0.42099 -0.14578,0.92583 -0.15191,1.51453c-0.00039,0.04098 -0.00057,0.08196 -0.00054,0.12294zM213.72514,174.17803v3.7369h2.11216c0.33592,0.00058 0.67181,-0.00727 1.00734,-0.02356c0.64791,-0.03268 1.18904,-0.09938 1.62339,-0.20011c0.0942,-0.0217 0.18767,-0.04645 0.28027,-0.0742c0.65892,-0.19858 1.10573,-0.56415 1.34041,-1.0967c0.08626,-0.20101 0.153,-0.40985 0.1993,-0.62363c0.09514,-0.42099 0.14578,-0.92583 0.15191,-1.51453c0.00048,-0.04098 0.00076,-0.08196 0.00081,-0.12294v-0.08124zM213.72514,169.49336v3.70982h6.71559v-0.05416c0.00078,-0.27681 -0.01015,-0.55354 -0.03277,-0.82943c-0.04983,-0.58418 -0.15625,-1.06141 -0.31926,-1.43167c-0.23468,-0.53255 -0.68149,-0.89812 -1.34041,-1.0967c-0.2197,-0.06439 -0.44328,-0.11468 -0.66939,-0.15056c-0.59321,-0.09821 -1.34041,-0.14731 -2.2416,-0.14731zM283.69726,186.39065c0.04101,0.0119 0.08349,0.01801 0.12619,0.01814c0.08431,0 0.16861,-0.0241 0.25292,-0.0723c1.11927,-0.63184 2.16632,-1.37652 3.14116,-2.23402c0.97484,-0.8575 1.78721,-1.72854 2.43711,-2.61312c0.07221,-0.08683 0.10678,-0.18233 0.10371,-0.2865c-0.00075,-0.02656 -0.00374,-0.05301 -0.00894,-0.07907c-0.00095,-0.00434 -0.00194,-0.00868 -0.00298,-0.013c-0.02411,-0.12223 -0.09618,-0.22971 -0.20011,-0.29841c-0.08683,-0.07239 -0.18242,-0.10705 -0.28677,-0.10398c-0.02648,0.00086 -0.05284,0.00394 -0.0788,0.00921c-0.13539,0.02708 -0.24822,0.09478 -0.33849,0.20309c-0.66795,0.92069 -1.45324,1.76916 -2.35587,2.54543c-0.90263,0.77626 -1.86845,1.45324 -2.89745,2.03092c-0.12637,0.07221 -0.20761,0.1715 -0.24371,0.29787c-0.01192,0.0411 -0.01803,0.08367 -0.01814,0.12646c0,0.08413 0.0241,0.16834 0.0723,0.25265c0.07221,0.10832 0.1715,0.18053 0.29787,0.21663zM304.90011,185.84907c-0.09026,0.09026 -0.20761,0.13088 -0.35203,0.12186c-0.05847,-0.00311 -0.1162,-0.0146 -0.17141,-0.03412c-0.06796,-0.02443 -0.12966,-0.06364 -0.18062,-0.11481c-0.5275,-0.60494 -1.17505,-1.24663 -1.94265,-1.92505c-0.12782,-0.11305 -0.25654,-0.22507 -0.38615,-0.33605c-0.62187,-0.53422 -1.27256,-1.03395 -1.94915,-1.49693c-0.29273,-0.1997 -0.59089,-0.39131 -0.89415,-0.57462c-0.04358,-0.02737 -0.08368,-0.05992 -0.11942,-0.09694c-0.12853,-0.13612 -0.14587,-0.30608 -0.05199,-0.5099c0.01106,-0.02385 0.02307,-0.04725 0.03602,-0.07013c0.16861,-0.23613 0.38461,-0.29101 0.648,-0.16464c0.019,0.00914 0.03769,0.01889 0.05605,0.02925c0.39936,0.25903 0.79187,0.52847 1.17712,0.80804c0.24649,0.17859 0.49049,0.36058 0.73195,0.54591c0.65892,0.50547 1.29077,1.029 1.89553,1.57058c0.60476,0.54158 1.12378,1.06511 1.55704,1.57058c0.07958,0.07802 0.12396,0.18508 0.12294,0.29651c0,0.00181 0,0.0037 0,0.00569c0.00004,0.0121 -0.00032,0.02421 -0.00108,0.03629c-0.00721,0.128 -0.06711,0.2473 -0.16545,0.32955c-0.00349,0.00302 -0.00701,0.006 -0.01056,0.00894zM174.37015,181.15385c0.06283,-0.02158 0.12106,-0.05474 0.17168,-0.09776c0.38359,-0.31904 0.75588,-0.65141 1.1162,-0.99651c0.5,-0.47949 0.98128,-0.97811 1.44277,-1.49476c0.05824,-0.065 0.11619,-0.13027 0.17385,-0.19578c0.38687,-0.4394 0.73989,-0.86716 1.05906,-1.28327c0.30605,-0.39702 0.59489,-0.80701 0.86572,-1.22884c0.01155,-0.01789 0.02239,-0.03623 0.03249,-0.05497c0.12222,-0.22801 0.06625,-0.41729 -0.16789,-0.56785c-0.00654,-0.00343 -0.01313,-0.00677 -0.01977,-0.01002c-0.18143,-0.09117 -0.34083,-0.07799 -0.47822,0.03954c-0.03637,0.0316 -0.06915,0.06711 -0.09776,0.10588c-0.55963,0.83042 -1.25015,1.69695 -2.07154,2.59958c-0.25205,0.27716 -0.51018,0.54874 -0.77419,0.81454c-0.54808,0.55372 -1.1258,1.0773 -1.73062,1.56842c-0.06062,0.03892 -0.10897,0.09422 -0.13946,0.1595c-0.02137,0.04798 -0.03376,0.09947 -0.03656,0.15191c-0.00086,0.01217 -0.00131,0.02436 -0.00135,0.03656c0,0.05488 0.00839,0.10732 0.02518,0.15733c0.02166,0.06285 0.05491,0.12108 0.09803,0.17168c0.04171,0.04207 0.09058,0.07637 0.14433,0.10128c0.06124,0.0277 0.12706,0.04385 0.19416,0.04766c0.01217,0.00086 0.02436,0.00131 0.03656,0.00135c0.0547,0 0.10714,-0.00848 0.15733,-0.02545zM187.02525,180.32496c-0.43831,-0.42644 -0.88771,-0.84135 -1.34772,-1.24428c-0.38895,-0.34118 -0.78373,-0.67566 -1.18416,-1.00328c-0.43676,-0.35808 -0.87791,-0.71076 -1.32335,-1.05798c-0.42225,-0.32892 -0.82654,-0.63455 -1.21287,-0.91689c-0.02561,-0.01871 -0.05125,-0.0374 -0.0769,-0.05605c-0.03332,-0.02773 -0.06421,-0.05826 -0.09234,-0.09126c-0.12944,-0.15453 -0.13124,-0.31448 -0.00542,-0.47984c0.01374,-0.01789 0.02829,-0.03515 0.0436,-0.05172c0.06006,-0.07464 0.14092,-0.12977 0.23234,-0.15841c0.02151,-0.00703 0.04339,-0.01291 0.06553,-0.0176c0.02016,-0.00439 0.04061,-0.00729 0.0612,-0.00867c0.10037,-0.00632 0.18829,0.02816 0.26375,0.10344c0.54158,0.37911 1.12378,0.81237 1.7466,1.29979c0.62282,0.48742 1.24112,0.98387 1.85491,1.48934c0.61379,0.50547 1.15537,0.98387 1.62474,1.43519c0.0356,0.03508 0.06737,0.07384 0.09478,0.11563c0.10777,0.16699 0.09893,0.34417 -0.02654,0.53156c-0.01299,0.01947 -0.02672,0.03844 -0.04116,0.05687c-0.08503,0.08485 -0.19485,0.14042 -0.31357,0.15868c-0.00828,0.00141 -0.01659,0.00268 -0.02491,0.00379c-0.13539,0.01805 -0.24822,-0.01805 -0.33849,-0.10832zM305.89039,171.94888c0.08343,-0.0129 0.16209,-0.04724 0.22828,-0.09965c0.03894,-0.03877 0.07188,-0.08313 0.09776,-0.1316c0.03382,-0.06452 0.05574,-0.1346 0.06472,-0.20688c0.00029,-0.0028 0.00056,-0.00559 0.00081,-0.00839c0.01553,-0.1316 -0.02085,-0.24163 -0.10913,-0.33009c-0.18053,-0.19858 -0.4468,-0.45583 -0.79883,-0.77175c-0.35203,-0.31592 -0.71308,-0.62733 -1.08316,-0.93423c-0.01677,-0.01383 -0.03356,-0.02764 -0.05037,-0.04143c-0.34733,-0.28668 -0.63293,-0.50755 -0.85678,-0.66262c-0.00553,-0.00362 -0.01113,-0.00714 -0.01679,-0.01056c-0.07763,-0.04766 -0.15977,-0.07032 -0.24642,-0.06797c-0.02988,0.00089 -0.05961,0.00451 -0.08882,0.01083c-0.12637,0.02708 -0.22566,0.09478 -0.29787,0.20309c-0.07221,0.10832 -0.09929,0.22566 -0.08124,0.35203c0.01805,0.12637 0.09026,0.22566 0.21663,0.29787c0.21663,0.14442 0.49645,0.36105 0.83945,0.6499c0.343,0.28884 0.67697,0.5822 1.00192,0.88007c0.32495,0.29787 0.56866,0.53707 0.73113,0.71759c0.00832,0.00997 0.01699,0.01963 0.026,0.02897c0.08053,0.08679 0.19411,0.13531 0.31249,0.1335c0.03691,0.00017 0.07378,-0.00272 0.11021,-0.00867zM303.8554,174.09191c0.06374,-0.01379 0.12423,-0.03972 0.17818,-0.07636c0.01483,-0.01236 0.02911,-0.02537 0.04278,-0.03899c0.07942,-0.0763 0.13108,-0.17694 0.14677,-0.28595c0.00291,-0.02063 0.00436,-0.04144 0.00433,-0.06228c0,-0.05813 -0.01201,-0.11418 -0.03602,-0.16816c-0.01978,-0.04389 -0.04558,-0.08481 -0.07663,-0.12158c-0.03046,-0.04049 -0.0617,-0.0804 -0.09369,-0.11969c-0.15886,-0.19551 -0.37586,-0.43092 -0.65098,-0.70622c-0.33397,-0.33397 -0.67246,-0.66795 -1.01546,-1.00192c-0.03256,-0.03171 -0.06523,-0.0633 -0.09803,-0.09478c-0.19605,-0.18793 -0.3699,-0.3458 -0.52154,-0.47361c-0.07162,-0.06082 -0.14494,-0.11961 -0.21988,-0.17628c-0.09026,-0.09026 -0.19858,-0.12637 -0.32495,-0.10832c-0.068,0.00946 -0.13319,0.03338 -0.19118,0.07013c-0.05056,0.03256 -0.0957,0.07286 -0.13377,0.11942c-0.06427,0.08033 -0.0964,0.17484 -0.0964,0.28352c0.00005,0.01383 0.00059,0.02764 0.00162,0.04143c0.00478,0.07343 0.02838,0.14439 0.06851,0.20607c0.02963,0.04482 0.06588,0.0849 0.1075,0.11888c0.00479,0.0036 0.00958,0.00721 0.01435,0.01083c0.21392,0.16211 0.47542,0.39319 0.78448,0.69322c0.31592,0.3069 0.62733,0.62282 0.93423,0.94776c0.21573,0.22855 0.39129,0.42577 0.52669,0.59168c0.05187,0.06314 0.10198,0.12771 0.15029,0.19361c0.09026,0.09026 0.19858,0.14442 0.32495,0.16247c0.05993,0.00867 0.11788,0.00704 0.17385,-0.00487z" stroke-width="2"/><path d="M265.54671,154.78167v-5.72475c-0.33314,0.36576 -0.68585,0.71321 -1.05657,1.04083c-0.17812,0.15794 -0.35969,0.31194 -0.54457,0.46192c-0.60229,0.48899 -1.24036,0.95412 -1.91421,1.39541c-0.65309,0.42862 -1.32179,0.83297 -2.00474,1.21222c-0.00262,0.00143 -0.00525,0.00286 -0.00787,0.00429c-0.35897,0.1993 -0.72347,0.38847 -1.09307,0.56729c-0.26458,0.12789 -0.53242,0.24892 -0.80325,0.36298c-0.04567,0.01956 -0.09487,0.02955 -0.14455,0.02934c-0.02779,0 -0.05641,-0.00292 -0.08587,-0.00877c-0.01579,-0.00317 -0.03143,-0.00705 -0.04687,-0.01163c-0.0418,-0.01189 -0.08147,-0.03031 -0.11754,-0.05456c-0.04373,-0.02983 -0.08003,-0.06931 -0.10609,-0.11539c-0.04377,-0.08754 -0.04735,-0.17264 -0.01073,-0.25529c0.00331,-0.00746 0.00689,-0.0148 0.01073,-0.022c0.04771,-0.08945 0.1133,-0.1461 0.19679,-0.16995c0.56496,-0.23331 1.11904,-0.49215 1.66053,-0.7757c0.34547,-0.18044 0.68655,-0.36917 1.02294,-0.56603c0.91835,-0.5367 1.78898,-1.11215 2.61192,-1.72637c0.80969,-0.60432 1.50394,-1.19421 2.08273,-1.76966c0.00944,-0.00941 0.01886,-0.01883 0.02827,-0.02827h-6.95915c-0.07155,0.00002 -0.14074,-0.02562 -0.195,-0.07227c-0.00995,-0.00825 -0.0195,-0.01696 -0.02862,-0.02612c-0.02622,-0.02574 -0.0483,-0.05536 -0.06548,-0.08784c-0.02184,-0.04191 -0.03314,-0.08852 -0.03292,-0.13578c-0.00039,-0.03845 0.00578,-0.07669 0.01825,-0.11306c0.01624,-0.04594 0.04381,-0.08704 0.08015,-0.1195c0.03121,-0.02896 0.06747,-0.05194 0.10698,-0.0678c0.03717,-0.01451 0.07674,-0.02185 0.11664,-0.02165h7.28116v-1.80687h-1.44908c-0.2768,0.00057 -0.55356,-0.00707 -0.82991,-0.0229c-0.60611,-0.03602 -1.09575,-0.11485 -1.46893,-0.2365c-0.18653,-0.05887 -0.36379,-0.14385 -0.5265,-0.25243c-0.24924,-0.16726 -0.44525,-0.40251 -0.56478,-0.67785c-0.07249,-0.16882 -0.12874,-0.34415 -0.16799,-0.52364c-0.0848,-0.37282 -0.1272,-0.82144 -0.1272,-1.34585v-0.73348c0,-0.79908 0.09839,-1.41926 0.29518,-1.86054c0.15482,-0.34572 0.42569,-0.6264 0.76569,-0.79341c0.1049,-0.05382 0.21375,-0.09957 0.3256,-0.13686c0.1852,-0.06078 0.37455,-0.10807 0.56657,-0.14151c0.40061,-0.07263 0.8834,-0.11408 1.44836,-0.12433c0.09463,-0.00169 0.18927,-0.00253 0.28391,-0.0025h3.48852c0.26307,-0.00049 0.5261,0.0066 0.78876,0.02129c0.51952,0.03005 0.95347,0.09225 1.30184,0.18659c0.06706,0.01801 0.13353,0.03818 0.19929,0.06047c0.1884,0.06225 0.36704,0.15085 0.53061,0.26316c0.242,0.16713 0.43297,0.39804 0.55172,0.66711c0.07268,0.16697 0.129,0.3406 0.16816,0.51845c0.08468,0.37032 0.12702,0.81768 0.12702,1.3421v0.73348c0,0.79908 -0.09839,1.42224 -0.29518,1.86949c-0.19679,0.44725 -0.55757,0.75734 -1.08234,0.93027c-0.18312,0.05872 -0.37018,0.10434 -0.55977,0.1365c-0.39847,0.07037 -0.88042,0.1105 -1.44586,0.1204c-0.09475,0.00166 -0.18951,0.0025 -0.28427,0.0025h-1.39541v1.80687h7.19171c0.03637,-0.00032 0.07259,0.00468 0.10752,0.01485c0.04729,0.01396 0.0903,0.03962 0.12505,0.0746c0.0486,0.04866 0.07909,0.11248 0.08641,0.18087c0.00209,0.01715 0.00311,0.03442 0.00304,0.0517c0.00021,0.08005 -0.02945,0.15731 -0.08319,0.21665c-0.00206,0.00235 -0.00415,0.00468 -0.00626,0.00698c-0.05963,0.0656 -0.13716,0.09839 -0.23257,0.09839h-6.88759c0.5844,0.5844 1.28509,1.18073 2.10206,1.78898c0.81697,0.60825 1.68463,1.17477 2.60297,1.69953c0.91835,0.52477 1.80687,0.96605 2.66559,1.32385c0.04157,0.01515 0.08038,0.03703 0.11485,0.06476c0.03809,0.03113 0.06908,0.07004 0.09088,0.11414c0.04174,0.08349 0.03876,0.17293 -0.00894,0.26835c-0.04771,0.08349 -0.11927,0.14312 -0.21468,0.1789c-0.03197,0.01218 -0.06553,0.01965 -0.09965,0.02218c-0.04854,0.00346 -0.09708,-0.00394 -0.14562,-0.02218c-0.01396,-0.00524 -0.02763,-0.01121 -0.04097,-0.01789c-0.78715,-0.33394 -1.63096,-0.76032 -2.53141,-1.27912c-0.90046,-0.51881 -1.77408,-1.09724 -2.62086,-1.73531c-0.48258,-0.36217 -0.94799,-0.74669 -1.39469,-1.15228c-0.28436,-0.25868 -0.5591,-0.52774 -0.82365,-0.80665v5.70686c0.00021,0.08005 -0.02945,0.15731 -0.08319,0.21665c-0.00206,0.00235 -0.00415,0.00468 -0.00626,0.00698c-0.05963,0.0656 -0.13716,0.09839 -0.23257,0.09839c-0.07155,0.00002 -0.14074,-0.02562 -0.195,-0.07227c-0.00995,-0.00825 -0.0195,-0.01696 -0.02862,-0.02612c-0.02622,-0.02574 -0.0483,-0.05536 -0.06548,-0.08784c-0.02184,-0.04191 -0.03314,-0.08852 -0.03292,-0.13578zM228.47896,151.48994v-5.13438l-2.09311,0.76926c-0.07693,0.03304 -0.15385,0.0356 -0.23078,0.00769c-0.00663,-0.00237 -0.0132,-0.00494 -0.01968,-0.00769c-0.03376,-0.01401 -0.06463,-0.03415 -0.09106,-0.05939c-0.0335,-0.03292 -0.05765,-0.07417 -0.06995,-0.1195c-0.03578,-0.09541 -0.03578,-0.18188 0,-0.2594c0.03378,-0.07356 0.09335,-0.13218 0.16745,-0.16477c0.00379,-0.00179 0.00761,-0.00352 0.01145,-0.00519l2.32568,-0.85871v-4.81237c-0.00039,-0.03845 0.00578,-0.07669 0.01825,-0.11306c0.01624,-0.04594 0.04381,-0.08704 0.08015,-0.1195c0.03121,-0.02896 0.06747,-0.05194 0.10698,-0.0678c0.03717,-0.01451 0.07674,-0.02185 0.11664,-0.02165c0.03637,-0.00032 0.07259,0.00468 0.10752,0.01485c0.04729,0.01396 0.0903,0.03962 0.12505,0.0746c0.0486,0.04866 0.07909,0.11248 0.08641,0.18087c0.00209,0.01715 0.00311,0.03442 0.00304,0.0517v4.5798l2.88026,-1.0555v-5.15227c-0.00039,-0.03845 0.00578,-0.07669 0.01825,-0.11306c0.01624,-0.04594 0.04381,-0.08704 0.08015,-0.1195c0.03121,-0.02896 0.06747,-0.05194 0.10698,-0.0678c0.03717,-0.01451 0.07674,-0.02185 0.11664,-0.02165c0.03637,-0.00032 0.07259,0.00468 0.10752,0.01485c0.04729,0.01396 0.0903,0.03962 0.12505,0.0746c0.0486,0.04866 0.07909,0.11248 0.08641,0.18087c0.00209,0.01715 0.00311,0.03442 0.00304,0.0517v4.90182l0.71559,-0.25046c0.17854,-0.06723 0.35994,-0.12662 0.54367,-0.178c0.53359,-0.14753 0.98305,-0.18355 1.34836,-0.10805c0.12578,0.02518 0.24758,0.06724 0.36209,0.12505c0.22182,0.11835 0.39993,0.30461 0.50825,0.53151c0.17902,0.34754 0.27199,0.8323 0.2789,1.45426v2.32568c0,0.73014 -0.12368,1.27155 -0.37104,1.62422c-0.04601,0.06596 -0.09851,0.12715 -0.15671,0.18266c-0.35183,0.33394 -0.96903,0.50092 -1.8516,0.50092c-0.07155,0.00002 -0.14074,-0.02562 -0.195,-0.07227c-0.00995,-0.00825 -0.0195,-0.01696 -0.02862,-0.02612c-0.02622,-0.02574 -0.0483,-0.05536 -0.06548,-0.08784c-0.02184,-0.04191 -0.03314,-0.08852 -0.03292,-0.13578c-0.00039,-0.03845 0.00578,-0.07669 0.01825,-0.11306c0.01624,-0.04594 0.04381,-0.08704 0.08015,-0.1195c0.03121,-0.02896 0.06747,-0.05194 0.10698,-0.0678c0.03717,-0.01451 0.07674,-0.02185 0.11664,-0.02165c0.52322,0 0.91656,-0.06589 1.18001,-0.19768c0.06792,-0.0332 0.13129,-0.07498 0.18856,-0.12433c0.19929,-0.17496 0.31737,-0.50455 0.35422,-0.98877c0.00863,-0.11746 0.0128,-0.2352 0.01252,-0.35297v-2.32568c0.0008,-0.15149 -0.00775,-0.30289 -0.02558,-0.45333c-0.05713,-0.4587 -0.20961,-0.76378 -0.45744,-0.91524c-0.07454,-0.04446 -0.15599,-0.07615 -0.24098,-0.09374c-0.30508,-0.06703 -0.72967,-0.00668 -1.27376,0.18105c-0.04388,0.01516 -0.08759,0.03078 -0.13113,0.04687l-0.98394,0.3578v6.36878c0.00021,0.08005 -0.02945,0.15731 -0.08319,0.21665c-0.00206,0.00235 -0.00415,0.00468 -0.00626,0.00698c-0.05963,0.0656 -0.13716,0.09839 -0.23257,0.09839c-0.07155,0.00002 -0.14074,-0.02562 -0.195,-0.07227c-0.00995,-0.00825 -0.0195,-0.01696 -0.02862,-0.02612c-0.02622,-0.02574 -0.0483,-0.05536 -0.06548,-0.08784c-0.02184,-0.04191 -0.03314,-0.08852 -0.03292,-0.13578v-6.11832l-2.88026,1.0555v5.36695c0,0.33657 0.02183,0.63074 0.06548,0.88251c0.02051,0.12213 0.04944,0.2427 0.08659,0.36084c0.10138,0.31605 0.28922,0.55458 0.56353,0.71559c0.10379,0.05969 0.21306,0.1093 0.32631,0.14813c0.23519,0.08277 0.52298,0.14372 0.86336,0.18283c0.19584,0.02204 0.39222,0.03904 0.58893,0.05099c0.40908,0.02564 0.88364,0.03846 1.42367,0.03846c0.31335,0.00046 0.62668,-0.00586 0.93975,-0.01896c0.58786,-0.02552 1.08073,-0.07693 1.4786,-0.15421c0.06479,-0.01257 0.12932,-0.02641 0.19357,-0.0415c0.1838,-0.04206 0.36352,-0.10031 0.53705,-0.17407c0.1913,-0.08265 0.35684,-0.18176 0.49662,-0.29733c0.10275,-0.08426 0.19426,-0.18136 0.27228,-0.28892c0.26238,-0.36376 0.42339,-0.86766 0.48303,-1.51169c0.01127,-0.09246 0.05733,-0.17715 0.12881,-0.23686c0.00178,-0.00156 0.00357,-0.00311 0.00537,-0.00465c0.02411,-0.02077 0.05118,-0.03784 0.08033,-0.05063c0.0557,-0.02385 0.11539,-0.02785 0.17908,-0.01199c0.208,0.03471 0.30407,0.16453 0.28821,0.38946c-0.00055,0.00734 -0.0012,0.01468 -0.00197,0.022c-0.02568,0.24949 -0.0689,0.49686 -0.12934,0.74028c-0.06488,0.25559 -0.14807,0.48619 -0.24956,0.6918c-0.06742,0.13781 -0.14718,0.26924 -0.23829,0.39268c-0.32798,0.44128 -0.8438,0.75137 -1.54747,0.93027c-0.24338,0.06044 -0.48984,0.10768 -0.73831,0.14151c-0.51475,0.07263 -1.12324,0.11408 -1.82548,0.12433c-0.11741,0.00169 -0.23483,0.00252 -0.35225,0.0025c-0.29298,0.0003 -0.58594,-0.00465 -0.87875,-0.01485c-0.26167,-0.00942 -0.5064,-0.02332 -0.7342,-0.04168c-0.21138,-0.01661 -0.42221,-0.03952 -0.63223,-0.0687c-0.18999,-0.02616 -0.37841,-0.06265 -0.56442,-0.10931c-0.33084,-0.08444 -0.60784,-0.19709 -0.83098,-0.33794c-0.33991,-0.21468 -0.57844,-0.51881 -0.71559,-0.91238c-0.05473,-0.16053 -0.0966,-0.32516 -0.12523,-0.49233c-0.03017,-0.16995 -0.05188,-0.35464 -0.06512,-0.55405c-0.01054,-0.16384 -0.01567,-0.32798 -0.01539,-0.49215zM251.41374,144.06566h-2.54036c-0.07155,0.00002 -0.14074,-0.02562 -0.195,-0.07227c-0.00995,-0.00825 -0.0195,-0.01696 -0.02862,-0.02612c-0.02622,-0.02574 -0.0483,-0.05536 -0.06548,-0.08784c-0.02184,-0.04191 -0.03314,-0.08852 -0.03292,-0.13578c-0.00039,-0.03845 0.00578,-0.07669 0.01825,-0.11306c0.01624,-0.04594 0.04381,-0.08704 0.08015,-0.1195c0.03121,-0.02896 0.06747,-0.05194 0.10698,-0.0678c0.03717,-0.01451 0.07674,-0.02185 0.11664,-0.02165h2.54036v-4.29356c-0.00039,-0.03845 0.00578,-0.07669 0.01825,-0.11306c0.01624,-0.04594 0.04381,-0.08704 0.08015,-0.1195c0.03121,-0.02896 0.06747,-0.05194 0.10698,-0.0678c0.03717,-0.01451 0.07674,-0.02185 0.11664,-0.02165c0.03637,-0.00032 0.07259,0.00468 0.10752,0.01485c0.04729,0.01396 0.0903,0.03962 0.12505,0.0746c0.0486,0.04866 0.07909,0.11248 0.08641,0.18087c0.00209,0.01715 0.00311,0.03442 0.00304,0.0517v4.29356h0.84082c0.63211,0 1.1211,0.06261 1.46697,0.18784c0.1584,0.05523 0.30428,0.14133 0.42918,0.25332c0.12863,0.11871 0.22948,0.26433 0.29536,0.42649c0.13119,0.31367 0.19965,0.74994 0.20538,1.30882c0.00025,0.02588 0.00037,0.05176 0.00036,0.07764c0,0.82293 -0.01789,1.62798 -0.05367,2.41513c-0.03578,0.78715 -0.07752,1.50871 -0.12523,2.16467c-0.0159,0.22134 -0.03457,0.44248 -0.056,0.66336c-0.01801,0.18403 -0.03727,0.35643 -0.05778,0.5172c-0.01885,0.14954 -0.04056,0.29871 -0.06512,0.44742c-0.10734,0.79908 -0.28027,1.40435 -0.51881,1.81582c-0.23853,0.41147 -0.59036,0.68578 -1.0555,0.82293c-0.16097,0.04638 -0.32468,0.08264 -0.49018,0.10859c-0.39918,0.06476 -0.88579,0.09714 -1.45981,0.09714c-0.07155,0.00002 -0.14074,-0.02562 -0.195,-0.07227c-0.00995,-0.00825 -0.0195,-0.01696 -0.02862,-0.02612c-0.02622,-0.02574 -0.0483,-0.05536 -0.06548,-0.08784c-0.02184,-0.04191 -0.03314,-0.08852 -0.03292,-0.13578c-0.00039,-0.03845 0.00578,-0.07669 0.01825,-0.11306c0.01624,-0.04594 0.04381,-0.08704 0.08015,-0.1195c0.03121,-0.02896 0.06747,-0.05194 0.10698,-0.0678c0.03717,-0.01451 0.07674,-0.02185 0.11664,-0.02165c0.16444,0.00017 0.32887,-0.00245 0.49322,-0.00787c0.31558,-0.01073 0.58565,-0.03256 0.81023,-0.06548c0.01576,-0.0023 0.0315,-0.00468 0.04723,-0.00716c0.33991,-0.05367 0.60527,-0.15803 0.7961,-0.31307c0.10697,-0.08831 0.19814,-0.19418 0.2696,-0.31307c0.06572,-0.1071 0.12195,-0.22935 0.1687,-0.36674c0.0681,-0.20037 0.13221,-0.44379 0.19232,-0.73026c0.03113,-0.14961 0.05946,-0.29979 0.08498,-0.45047c0.07156,-0.41743 0.13417,-0.95412 0.18784,-1.61009c0.05367,-0.65596 0.09839,-1.37454 0.13417,-2.15573c0.03578,-0.78119 0.05367,-1.57729 0.05367,-2.38829c0,-0.3832 -0.03196,-0.68542 -0.09589,-0.90666c-0.01098,-0.03827 -0.02375,-0.076 -0.03828,-0.11306c-0.07821,-0.20252 -0.23869,-0.36234 -0.44152,-0.43973c-0.02248,-0.00925 -0.04527,-0.01772 -0.06834,-0.0254c-0.08571,-0.02774 -0.1733,-0.04933 -0.26209,-0.06458c-0.2247,-0.04043 -0.50706,-0.06065 -0.84708,-0.06065h-0.84082c-0.0036,0.73773 -0.03278,1.47512 -0.08748,2.21083c-0.06834,0.89545 -0.17633,1.72386 -0.32398,2.48526c-0.26238,1.35366 -0.69472,2.52843 -1.29701,3.5243c-0.50521,0.8271 -1.15208,1.55881 -1.91099,2.16163c-0.18378,0.1479 -0.37282,0.28914 -0.56675,0.42345c-0.0272,0.01617 -0.05554,0.03034 -0.0848,0.0424c-0.1325,0.05391 -0.24807,0.04001 -0.34671,-0.04168c-0.02564,-0.02156 -0.04891,-0.04579 -0.06941,-0.07227c-0.01914,-0.0264 -0.03494,-0.05506 -0.04705,-0.08533c-0.02218,-0.05665 -0.02737,-0.11467 -0.01556,-0.17407c0.01789,-0.08945 0.06858,-0.15803 0.15206,-0.20573c0.8102,-0.52171 1.51269,-1.19414 2.06932,-1.98076c0.0831,-0.11852 0.16263,-0.23951 0.23847,-0.36281c0.33027,-0.54299 0.60079,-1.12014 0.80683,-1.72136c0.18389,-0.53334 0.32976,-1.07903 0.43651,-1.63298c0.1176,-0.60851 0.20649,-1.22221 0.26638,-1.83908c0.08408,-0.84166 0.12946,-1.75225 0.13614,-2.73178zM198.20936,154.33443c-1.08532,-0.02385 -2.00664,-0.24748 -2.76398,-0.67087c-0.37224,-0.20498 -0.71708,-0.45618 -1.02634,-0.74762c-0.27154,-0.2576 -0.50702,-0.55073 -0.70003,-0.87141c-0.2285,-0.37442 -0.39613,-0.78274 -0.49662,-1.20971c-0.06242,-0.27216 -0.09386,-0.55051 -0.09374,-0.82973c0.00203,-0.6246 0.15049,-1.24003 0.43347,-1.79686c0.03013,-0.06066 0.06157,-0.12066 0.09428,-0.17997c0.2943,-0.52807 0.69729,-0.98771 1.18234,-1.34854c0.11807,-0.08934 0.23989,-0.17362 0.36513,-0.2526c-1.13302,0.14312 -2.30183,0.28624 -3.50641,0.42936c-1.20458,0.14312 -2.30183,0.26238 -3.29173,0.3578c-0.01363,0.00198 -0.02738,0.003 -0.04115,0.00304c-0.06798,0 -0.13179,-0.02487 -0.19142,-0.0746c-0.03076,-0.02515 -0.05738,-0.05497 -0.07889,-0.08838c-0.02428,-0.03831 -0.04008,-0.08138 -0.04633,-0.1263c-0.0006,-0.04632 0.00524,-0.0925 0.01735,-0.13722c0.02958,-0.10364 0.0972,-0.1715 0.20287,-0.20359c0.02741,-0.00813 0.05549,-0.01382 0.0839,-0.017c0.34587,-0.02385 0.70068,-0.05367 1.06445,-0.08945c0.36376,-0.03578 0.7305,-0.07156 1.10022,-0.10734c0.97798,-0.46514 1.92018,-1.04059 2.82659,-1.72637c0.90642,-0.68578 1.72935,-1.43119 2.4688,-2.23623c0.39966,-0.43283 0.77292,-0.88931 1.11776,-1.36696c0.24892,-0.34564 0.47897,-0.7045 0.68912,-1.075c0.04771,-0.07156 0.1133,-0.12225 0.19679,-0.15206c0.0675,-0.02409 0.13495,-0.0229 0.20233,0.00358c0.01658,0.00658 0.03267,0.01435 0.04812,0.02326c0.03393,0.01892 0.06471,0.043 0.09124,0.07138c0.0328,0.03573 0.05671,0.0787 0.06977,0.12541c0.00788,0.02715 0.01191,0.05527 0.01199,0.08355c0,0.03828 -0.00751,0.07651 -0.02254,0.11467c-0.00713,0.018 -0.01556,0.03546 -0.02522,0.05224c-0.27296,0.48039 -0.57883,0.94132 -0.91542,1.37949c-0.21562,0.28173 -0.44136,0.55556 -0.67677,0.82096c-0.64403,0.72752 -1.35963,1.41032 -2.14678,2.04839c-0.78715,0.63807 -1.61009,1.2016 -2.4688,1.69059c0.97798,-0.10734 1.94403,-0.21766 2.89815,-0.33096c0.95412,-0.1133 1.84265,-0.23257 2.66559,-0.3578c0.5658,-0.08611 1.07518,-0.16799 1.52815,-0.24563c0.19449,-0.03325 0.38877,-0.06766 0.58285,-0.10322c0.02934,-0.00727 0.05761,-0.01091 0.0848,-0.01091c0.05987,-0.00036 0.11815,0.01921 0.16566,0.05564c0.03243,0.02375 0.06026,0.05321 0.08211,0.08694c0.02272,0.03605 0.03743,0.07656 0.04311,0.11879c0.02039,0.07132 0.01467,0.14044 -0.01717,0.20734c-0.00558,0.01172 -0.01179,0.02312 -0.01861,0.03417c-0.04771,0.07752 -0.11927,0.12821 -0.21468,0.15206c-0.26238,0.03578 -0.5516,0.07752 -0.86766,0.12523c-0.24479,0.03682 -0.49022,0.06927 -0.73617,0.09732c-0.08552,0.00977 -0.1711,0.01907 -0.25672,0.02791c-0.34536,0.03959 -0.68753,0.10326 -1.02401,0.19053c-0.54242,0.14336 -1.00612,0.34521 -1.39111,0.60557c-0.60825,0.41147 -1.04954,0.89449 -1.32385,1.44908c-0.27431,0.55458 -0.41147,1.11811 -0.41147,1.69059c0.0022,0.48419 0.11535,0.96142 0.33078,1.39505c0.05193,0.107 0.1087,0.21159 0.17013,0.31343c0.23362,0.38286 0.53733,0.71825 0.89521,0.98859c0.1893,0.14475 0.38942,0.27477 0.59859,0.38893c0.66192,0.36376 1.48188,0.55757 2.45985,0.58142c0.03637,-0.00032 0.07259,0.00468 0.10752,0.01485c0.04729,0.01396 0.0903,0.03962 0.12505,0.0746c0.0486,0.04866 0.07909,0.11248 0.08641,0.18087c0.00209,0.01715 0.00311,0.03442 0.00304,0.0517c-0.00446,0.04564 -0.01505,0.09047 -0.03149,0.13328c-0.04007,0.10018 -0.11342,0.16047 -0.22004,0.18087c-0.02914,0.0054 -0.05874,0.00804 -0.08838,0.00787zM212.53912,141.97255h-0.01789c-0.09541,1.41926 -0.28027,2.72522 -0.55458,3.91787c-0.27431,1.19266 -0.61124,2.2243 -1.01078,3.09494c-0.13404,0.29437 -0.28204,0.58219 -0.44349,0.86247c-0.27097,0.46716 -0.55548,0.85352 -0.85352,1.15908c-0.13416,0.13948 -0.28135,0.26582 -0.43955,0.3773c-0.32488,0.22553 -0.65542,0.3383 -0.99163,0.3383c-0.5367,0 -1.00481,-0.17592 -1.40435,-0.52775c-0.39954,-0.35183 -0.71261,-0.82293 -0.93922,-1.4133c-0.15234,-0.40262 -0.25303,-0.82292 -0.29965,-1.25086c-0.02721,-0.24103 -0.04064,-0.48341 -0.04025,-0.72597c-0.00309,-0.54811 0.0626,-1.09443 0.19554,-1.62619c0.08768,-0.34514 0.20791,-0.68118 0.35905,-1.00362c0.36972,-0.78715 0.8766,-1.46697 1.52064,-2.03944c0.64403,-0.57247 1.38646,-1.01376 2.22728,-1.32385c0.80624,-0.29406 1.65613,-0.45069 2.51424,-0.46335c0.05939,-0.0012 0.11878,-0.0018 0.17818,-0.00179c0.64439,-0.00394 1.28659,0.07544 1.91063,0.23615c0.43093,0.11287 0.84885,0.27057 1.24692,0.4705c0.93624,0.4711 1.67866,1.13004 2.22728,1.97683c0.40044,0.62517 0.6591,1.33045 0.75781,2.06628c0.04412,0.31111 0.06588,0.62499 0.06512,0.93922c0.00333,0.51793 -0.05943,1.03416 -0.18677,1.5362c-0.10711,0.4159 -0.26678,0.81646 -0.47515,1.192c-0.44128,0.79312 -1.05252,1.461 -1.83371,2.00366c-0.5699,0.3922 -1.18757,0.70999 -1.838,0.94566c-0.29217,0.10721 -0.58923,0.20058 -0.8902,0.2798c-0.07132,0.02039 -0.14044,0.01467 -0.20734,-0.01717c-0.01172,-0.00558 -0.02312,-0.01179 -0.03417,-0.01861c-0.07752,-0.04771 -0.12821,-0.1133 -0.15206,-0.19679c-0.02039,-0.07132 -0.01467,-0.14044 0.01717,-0.20734c0.00558,-0.01172 0.01179,-0.02312 0.01861,-0.03417c0.04771,-0.07752 0.1133,-0.12821 0.19679,-0.15206c0.50702,-0.13262 1.00123,-0.31007 1.47681,-0.53025c0.34497,-0.1605 0.67667,-0.3481 0.99199,-0.56103c0.70367,-0.47706 1.25527,-1.07041 1.65481,-1.78004c0.29238,-0.52597 0.47981,-1.10371 0.5519,-1.70114c0.03207,-0.25162 0.04791,-0.50505 0.04741,-0.75871c0,-0.9899 -0.23555,-1.86651 -0.70665,-2.62981c-0.4711,-0.7633 -1.12408,-1.36261 -1.95894,-1.79793c-0.59062,-0.30384 -1.23063,-0.50005 -1.89006,-0.57945c-0.3176,-0.04079 -0.64767,-0.05933 -0.9902,-0.05564zM291.63009,146.19455h-15.81462c-0.07155,0.00002 -0.14074,-0.02562 -0.195,-0.07227c-0.00995,-0.00825 -0.0195,-0.01696 -0.02862,-0.02612c-0.02622,-0.02574 -0.0483,-0.05536 -0.06548,-0.08784c-0.02184,-0.04191 -0.03314,-0.08852 -0.03292,-0.13578c-0.00039,-0.03845 0.00578,-0.07669 0.01825,-0.11306c0.01624,-0.04594 0.04381,-0.08704 0.08015,-0.1195c0.03121,-0.02896 0.06747,-0.05194 0.10698,-0.0678c0.03717,-0.01451 0.07674,-0.02185 0.11664,-0.02165h5.29539c-0.03899,-0.11673 -0.07895,-0.23314 -0.11986,-0.34921c-0.0557,-0.1585 -0.11712,-0.32834 -0.18427,-0.5095c-0.11927,-0.32202 -0.24151,-0.64105 -0.36674,-0.95711c-0.04448,-0.11237 -0.08933,-0.2246 -0.13453,-0.33669c-0.03566,-0.08826 -0.06983,-0.17216 -0.10251,-0.25171c-0.031,-0.07533 -0.06231,-0.15052 -0.09392,-0.22559c-0.01913,-0.04391 -0.02905,-0.09128 -0.02916,-0.13918c0,-0.03268 0.00465,-0.06577 0.01395,-0.09929c0.00191,-0.00703 0.004,-0.01401 0.00626,-0.02093c0.02551,-0.0789 0.0837,-0.14302 0.15976,-0.17604c0.00921,-0.00429 0.01858,-0.00823 0.02809,-0.01181c0.18367,-0.06762 0.32035,-0.04127 0.41004,0.07907c0.02244,0.03086 0.04095,0.06439 0.0551,0.09983c0.042,0.08908 0.08214,0.17903 0.1204,0.26978c0.03709,0.08766 0.07544,0.18206 0.11503,0.2832c0.04194,0.10743 0.08274,0.21532 0.12237,0.32363c0.13119,0.3578 0.2594,0.71857 0.38463,1.08234c0.04452,0.12913 0.08859,0.25841 0.13221,0.38785c0.03423,0.10185 0.06643,0.1987 0.09661,0.29053c0.02848,0.08682 0.05657,0.17376 0.08426,0.26083h3.73898c0.04308,-0.10536 0.08583,-0.21085 0.12827,-0.31647c0.03781,-0.09398 0.07734,-0.19285 0.11861,-0.29661c0.04312,-0.10864 0.08605,-0.21735 0.12881,-0.32613c0.14312,-0.36376 0.28027,-0.7305 0.41147,-1.10022c0.12964,-0.36531 0.23603,-0.67242 0.31915,-0.92133c0.00095,-0.00298 0.00191,-0.00596 0.00286,-0.00894c0.02039,-0.08178 0.07061,-0.15299 0.14079,-0.19965c0.01231,-0.0086 0.02502,-0.0166 0.03811,-0.02397c0.06607,-0.03709 0.13215,-0.05564 0.19822,-0.05564c0.02968,0.00002 0.05924,0.00368 0.08802,0.01091c0.04841,0.01555 0.09357,0.0398 0.13328,0.07156c0.04169,0.03414 0.07555,0.07685 0.09929,0.12523c0.04616,0.09219 0.05331,0.18444 0.02147,0.27676c-0.00115,0.00318 -0.00234,0.00634 -0.00358,0.00948c-0.05737,0.16399 -0.126,0.35052 -0.20591,0.55959c-0.03825,0.09988 -0.07695,0.19959 -0.11611,0.29912c-0.13119,0.33394 -0.26835,0.66789 -0.41147,1.00183c-0.0638,0.14895 -0.12826,0.29762 -0.19339,0.44599c-0.0613,0.13966 -0.12004,0.27157 -0.17621,0.39572c-0.00798,0.0176 -0.01597,0.03519 -0.02397,0.05278h5.38484c0.03637,-0.00032 0.07259,0.00468 0.10752,0.01485c0.04729,0.01396 0.0903,0.03962 0.12505,0.0746c0.0486,0.04866 0.07909,0.11248 0.08641,0.18087c0.00209,0.01715 0.00311,0.03442 0.00304,0.0517c0.00021,0.08005 -0.02945,0.15731 -0.08319,0.21665c-0.00206,0.00235 -0.00415,0.00468 -0.00626,0.00698c-0.05963,0.0656 -0.13716,0.09839 -0.23257,0.09839zM224.81155,154.83534v-11.0917c-0.4055,0.66789 -0.83486,1.3149 -1.28807,1.94105c-0.45321,0.62614 -0.90642,1.18371 -1.35963,1.6727c-0.13131,0.15326 -0.27264,0.17592 -0.42399,0.06798c-0.01419,-0.01011 -0.02792,-0.02086 -0.04115,-0.0322c-0.02964,-0.02411 -0.05451,-0.05353 -0.07335,-0.08677c-0.02293,-0.04193 -0.03463,-0.08907 -0.03399,-0.13686c-0.00041,-0.04015 0.0065,-0.08004 0.02039,-0.11772c0.01515,-0.03985 0.03871,-0.07597 0.06905,-0.10591c0.46514,-0.48899 0.93922,-1.07041 1.42224,-1.74426c0.48303,-0.67385 0.9422,-1.3805 1.37752,-2.11995c0.28945,-0.49053 0.56489,-0.98921 0.82597,-1.49541c0.11246,-0.21852 0.22178,-0.43865 0.32792,-0.66031c0.11905,-0.24815 0.23339,-0.49853 0.34295,-0.75102c0.10782,-0.24891 0.20377,-0.48553 0.28785,-0.70987c0.04854,-0.12938 0.09471,-0.25964 0.13847,-0.39071c0.01958,-0.06867 0.06462,-0.12728 0.12594,-0.16387c0.01415,-0.0089 0.02885,-0.01691 0.04401,-0.02397c0.05701,-0.0266 0.11277,-0.03989 0.16727,-0.03989c0.03117,0.00003 0.06218,0.00443 0.09213,0.01306c0.03414,0.00811 0.06671,0.02177 0.09643,0.04043c0.04498,0.029 0.08,0.07108 0.10036,0.12058c0.02994,0.06977 0.03489,0.14372 0.01485,0.22183c-0.00411,0.01576 -0.00907,0.03129 -0.01485,0.04651c-0.12504,0.33475 -0.2595,0.66591 -0.40324,0.99306c-0.09208,0.21005 -0.18727,0.41873 -0.28552,0.62597c-0.24174,0.50933 -0.49718,1.01204 -0.76604,1.50758c-0.03957,0.07307 -0.0794,0.14601 -0.1195,0.21879v12.20087c0.00021,0.08005 -0.02945,0.15731 -0.08319,0.21665c-0.00206,0.00235 -0.00415,0.00468 -0.00626,0.00698c-0.05963,0.0656 -0.13716,0.09839 -0.23257,0.09839c-0.07155,0.00002 -0.14074,-0.02562 -0.195,-0.07227c-0.00995,-0.00825 -0.0195,-0.01696 -0.02862,-0.02612c-0.02622,-0.02574 -0.0483,-0.05536 -0.06548,-0.08784c-0.02184,-0.04191 -0.03314,-0.08852 -0.03292,-0.13578zM240.26318,154.58882c0.04027,-0.01324 0.07824,-0.03267 0.11253,-0.05761c0.88257,-0.59633 1.66972,-1.23142 2.36146,-1.90527c0.69174,-0.67385 1.29403,-1.41032 1.80687,-2.20939c0.39439,0.37878 0.78206,0.76448 1.16284,1.15694c0.45386,0.46729 0.8953,0.94649 1.32385,1.43709c0.0322,0.04496 0.07043,0.07782 0.11467,0.09857c0.03978,0.01817 0.08311,0.02727 0.12684,0.02666c0.10138,0 0.18188,-0.03578 0.24151,-0.10734c0.01758,-0.01498 0.03402,-0.03125 0.0492,-0.04866c0.05023,-0.05578 0.08017,-0.12688 0.08498,-0.2018c0.00596,-0.09541 -0.02683,-0.1789 -0.09839,-0.25046c-0.41588,-0.45619 -0.87899,-0.93689 -1.38932,-1.4421c-0.41914,-0.41433 -0.84461,-0.82221 -1.27626,-1.22349c0.18469,-0.3132 0.3564,-0.63388 0.51469,-0.96122c0.36364,-0.75674 0.66419,-1.54221 0.89861,-2.3484c0.0008,-0.00274 0.00157,-0.00548 0.00233,-0.00823c0.04496,-0.16125 0.00143,-0.27634 -0.1306,-0.34527c-0.03327,-0.01697 -0.06822,-0.0304 -0.1043,-0.04007c-0.08349,-0.03578 -0.16399,-0.0328 -0.24151,0.00894c-0.04566,0.0242 -0.08392,0.0603 -0.11074,0.10448c-0.01884,0.03145 -0.03278,0.0656 -0.04133,0.10126c-0.15504,0.54862 -0.33394,1.07637 -0.5367,1.58325c-0.20275,0.50688 -0.44128,0.99289 -0.71559,1.45802c-0.3578,-0.32202 -0.71559,-0.64105 -1.07339,-0.95711c-0.3578,-0.31605 -0.70963,-0.60527 -1.0555,-0.86766c-0.01328,-0.00914 -0.02688,-0.01779 -0.04079,-0.02594c-0.1399,-0.08194 -0.2665,-0.0808 -0.3798,0.0034c-0.02952,0.02234 -0.05646,0.0479 -0.08033,0.07621c-0.04234,0.05307 -0.06351,0.11789 -0.06351,0.19446c-0.00002,0.00973 0.00027,0.01945 0.00089,0.02916c0.0025,0.0432 0.01408,0.08538 0.03399,0.1238c0.02054,0.0384 0.04852,0.07233 0.08229,0.09983c0.36972,0.28624 0.74243,0.58738 1.11811,0.90344c0.37569,0.31605 0.74839,0.64702 1.11811,0.99289c-0.47706,0.7633 -1.05848,1.48188 -1.74426,2.15573c-0.19507,0.19153 -0.39632,0.37667 -0.60342,0.55512c-0.55531,0.47629 -1.146,0.90969 -1.76698,1.29648c-0.00276,0.00157 -0.00551,0.00318 -0.00823,0.00483c-0.04103,0.02493 -0.07287,0.056 -0.09553,0.09321c-0.02133,0.03561 -0.03475,0.07539 -0.03936,0.11664c-0.00026,0.00238 -0.00049,0.00477 -0.00072,0.00716c-0.00191,0.01717 -0.00286,0.03399 -0.00286,0.05045c-0.00065,0.06856 0.0193,0.13575 0.05725,0.19285c0.00303,0.00423 0.00613,0.0084 0.0093,0.01252c0.05305,0.07266 0.13393,0.11997 0.22327,0.1306c0.05379,0.00668 0.10573,0.00203 0.15582,-0.01395zM290.53881,141.77576h-13.57839c-0.07155,0.00002 -0.14074,-0.02562 -0.195,-0.07227c-0.00995,-0.00825 -0.0195,-0.01696 -0.02862,-0.02612c-0.02622,-0.02574 -0.0483,-0.05536 -0.06548,-0.08784c-0.02184,-0.04191 -0.03314,-0.08852 -0.03292,-0.13578c-0.00039,-0.03845 0.00578,-0.07669 0.01825,-0.11306c0.01624,-0.04594 0.04381,-0.08704 0.08015,-0.1195c0.03121,-0.02896 0.06747,-0.05194 0.10698,-0.0678c0.03717,-0.01451 0.07674,-0.02185 0.11664,-0.02165h6.45823v-2.09311c-0.00039,-0.03845 0.00578,-0.07669 0.01825,-0.11306c0.01624,-0.04594 0.04381,-0.08704 0.08015,-0.1195c0.03121,-0.02896 0.06747,-0.05194 0.10698,-0.0678c0.03717,-0.01451 0.07674,-0.02185 0.11664,-0.02165c0.03637,-0.00032 0.07259,0.00468 0.10752,0.01485c0.04729,0.01396 0.0903,0.03962 0.12505,0.0746c0.0486,0.04866 0.07909,0.11248 0.08641,0.18087c0.00209,0.01715 0.00311,0.03442 0.00304,0.0517v2.09311h6.47612c0.03637,-0.00032 0.07259,0.00468 0.10752,0.01485c0.04729,0.01396 0.0903,0.03962 0.12505,0.0746c0.0486,0.04866 0.07909,0.11248 0.08641,0.18087c0.00209,0.01715 0.00311,0.03442 0.00304,0.0517c0.00021,0.08005 -0.02945,0.15731 -0.08319,0.21665c-0.00206,0.00235 -0.00415,0.00468 -0.00626,0.00698c-0.05963,0.0656 -0.13716,0.09839 -0.23257,0.09839zM285.31498,154.728h-3.05916c-0.75531,0 -1.35211,-0.07639 -1.79041,-0.22917c-0.01148,-0.00403 -0.02293,-0.00815 -0.03435,-0.01234c-0.18865,-0.06657 -0.36427,-0.16549 -0.51898,-0.29232c-0.17751,-0.14871 -0.31827,-0.33643 -0.41129,-0.5485c-0.17699,-0.39548 -0.26644,-0.93987 -0.26835,-1.63316c-0.00001,-0.00722 -0.00001,-0.01443 0,-0.02165v-1.37752c-0.0006,-0.20531 0.00818,-0.41054 0.0263,-0.61505c0.03781,-0.41159 0.11646,-0.75358 0.23597,-1.02598c0.00201,-0.0046 0.00404,-0.00919 0.00608,-0.01378c0.16459,-0.37159 0.46997,-0.66263 0.84905,-0.80916c0.02684,-0.01113 0.05392,-0.02169 0.08122,-0.03167c0.16643,-0.05923 0.33735,-0.105 0.51111,-0.13686c0.35398,-0.0675 0.77576,-0.10233 1.26535,-0.10448c0.0161,-0.00009 0.0322,-0.00015 0.0483,-0.00018h3.05916c0.22639,-0.00055 0.45273,0.00715 0.67856,0.02308c0.42792,0.03125 0.7859,0.09458 1.07393,0.18999c0.02723,0.00901 0.05431,0.0185 0.08122,0.02844c0.1929,0.06896 0.37171,0.1723 0.52775,0.30502c0.16915,0.14735 0.30356,0.33033 0.39358,0.5358c0.17711,0.39548 0.26656,0.93987 0.26835,1.63316c0.00001,0.00722 0.00001,0.01443 0,0.02165v1.37752c0.00066,0.20537 -0.00805,0.41066 -0.02612,0.61523c-0.03781,0.41147 -0.11652,0.7534 -0.23615,1.0258c-0.00201,0.0046 -0.00404,0.00919 -0.00608,0.01378c-0.16911,0.38295 -0.48663,0.68071 -0.87964,0.8249c-0.01384,0.00546 -0.02773,0.01077 -0.04168,0.01592c-0.158,0.05703 -0.3203,0.10135 -0.48535,0.13256c-0.36996,0.07263 -0.81941,0.10895 -1.34836,0.10895zM248.26512,142.92071h-8.01465c-0.07155,0.00002 -0.14074,-0.02562 -0.195,-0.07227c-0.00995,-0.00825 -0.0195,-0.01696 -0.02862,-0.02612c-0.02622,-0.02574 -0.0483,-0.05536 -0.06548,-0.08784c-0.02184,-0.04191 -0.03314,-0.08852 -0.03292,-0.13578c-0.00039,-0.03845 0.00578,-0.07669 0.01825,-0.11306c0.01624,-0.04594 0.04381,-0.08704 0.08015,-0.1195c0.03121,-0.02896 0.06747,-0.05194 0.10698,-0.0678c0.03717,-0.01451 0.07674,-0.02185 0.11664,-0.02165h3.75687v-3.14861c-0.00039,-0.03845 0.00578,-0.07669 0.01825,-0.11306c0.01624,-0.04594 0.04381,-0.08704 0.08015,-0.1195c0.03121,-0.02896 0.06747,-0.05194 0.10698,-0.0678c0.03717,-0.01451 0.07674,-0.02185 0.11664,-0.02165c0.03637,-0.00032 0.07259,0.00468 0.10752,0.01485c0.04729,0.01396 0.0903,0.03962 0.12505,0.0746c0.0486,0.04866 0.07909,0.11248 0.08641,0.18087c0.00209,0.01715 0.00311,0.03442 0.00304,0.0517v3.14861h3.61375c0.03637,-0.00032 0.07259,0.00468 0.10752,0.01485c0.04729,0.01396 0.0903,0.03962 0.12505,0.0746c0.0486,0.04866 0.07909,0.11248 0.08641,0.18087c0.00209,0.01715 0.00311,0.03442 0.00304,0.0517c0.00021,0.08005 -0.02945,0.15731 -0.08319,0.21665c-0.00206,0.00235 -0.00415,0.00468 -0.00626,0.00698c-0.05963,0.0656 -0.13716,0.09839 -0.23257,0.09839zM208.22767,151.07848c0.18461,-0.00249 0.36555,-0.05193 0.52578,-0.14366c0.11605,-0.06333 0.23203,-0.14771 0.34796,-0.25314c0.11034,-0.10146 0.21296,-0.21101 0.30699,-0.32774c0.15836,-0.19648 0.30295,-0.40366 0.43276,-0.62006c0.13203,-0.21778 0.26113,-0.45804 0.38731,-0.72078c0.10287,-0.21502 0.19928,-0.43308 0.2891,-0.65387c0.34587,-0.84679 0.64105,-1.81582 0.88555,-2.9071c0.19561,-0.8814 0.33774,-1.77382 0.4256,-2.67238c0.0262,-0.26274 0.04832,-0.52587 0.06637,-0.7893c-0.45069,0.03309 -0.89747,0.10674 -1.33494,0.22004c-0.37862,0.09852 -0.74647,0.23456 -1.09808,0.4061c-0.49808,0.24141 -0.95984,0.55148 -1.37179,0.92115c-0.14338,0.12978 -0.27966,0.2672 -0.40825,0.41165c-0.48303,0.54266 -0.84977,1.14495 -1.10022,1.80687c-0.25046,0.66192 -0.37569,1.34472 -0.37569,2.04839c-0.00942,0.77833 0.11139,1.43769 0.36245,1.97808c0.06302,0.1361 0.13622,0.26724 0.21897,0.39232c0.10742,0.16505 0.23308,0.31748 0.37461,0.4544c0.3151,0.29936 0.67027,0.44903 1.06552,0.44903zM282.25581,154.08397h3.05916c0.64403,0 1.136,-0.05665 1.47591,-0.16995c0.13482,-0.04332 0.26139,-0.10899 0.37443,-0.19428c0.14621,-0.11281 0.26068,-0.26161 0.33221,-0.43186c0.0475,-0.11296 0.08433,-0.23011 0.11002,-0.34993c0.05379,-0.2408 0.08259,-0.53049 0.08641,-0.86909c0.00026,-0.026 0.00038,-0.052 0.00036,-0.078v-0.41147h-7.81786v0.41147c-0.00047,0.1591 0.00562,0.31816 0.01825,0.47676c0.02779,0.33537 0.0873,0.60879 0.17854,0.82025c0.11476,0.2689 0.33326,0.48004 0.60593,0.58553c0.03601,0.01495 0.0726,0.0285 0.10966,0.04061c0.31248,0.10233 0.74171,0.15844 1.28771,0.16834c0.05975,0.00108 0.1195,0.00161 0.17926,0.00161zM279.87647,150.61334v0.32202h7.81786v-0.32202c0.00038,-0.1503 -0.00481,-0.30055 -0.01556,-0.45047c-0.02648,-0.35601 -0.08688,-0.64117 -0.18122,-0.85549c-0.13119,-0.29816 -0.36674,-0.5039 -0.70665,-0.6172c-0.11875,-0.03853 -0.24012,-0.06848 -0.36316,-0.08963c-0.25702,-0.04604 -0.56705,-0.07227 -0.93009,-0.07872c-0.06088,-0.00108 -0.12177,-0.00162 -0.18266,-0.00161h-3.05916c-0.17944,-0.00041 -0.35884,0.00484 -0.53795,0.01574c-0.37879,0.02409 -0.68846,0.0755 -0.92902,0.15421c-0.12684,0.04019 -0.24691,0.09923 -0.35619,0.17514c-0.1583,0.11136 -0.28269,0.26436 -0.35941,0.44206c-0.11843,0.2693 -0.18337,0.65053 -0.19482,1.1437c-0.00128,0.05408 -0.00194,0.10817 -0.00197,0.16226zM264.09763,145.53263h1.44908v-2.4688h-4.49035v0.05367c-0.00052,0.18288 0.00671,0.3657 0.02165,0.54797c0.0328,0.38594 0.10311,0.70122 0.21092,0.94584c0.15504,0.35183 0.45023,0.59335 0.88555,0.72454c0.14514,0.04254 0.29286,0.07577 0.44224,0.09947c0.39191,0.06488 0.88555,0.09732 1.48092,0.09732zM261.05636,142.38402v0.03578h4.49035v-2.45091h-1.44908c-0.22199,-0.00039 -0.44395,0.0048 -0.66568,0.01556c-0.42792,0.02159 -0.78536,0.06566 -1.07232,0.13221c-0.06223,0.01434 -0.12398,0.03069 -0.18516,0.04902c-0.43532,0.13119 -0.7305,0.37271 -0.88555,0.72454c-0.05705,0.13279 -0.1012,0.27076 -0.13185,0.412c-0.06273,0.27813 -0.09613,0.61165 -0.10018,1.00058c-0.00032,0.02707 -0.0005,0.05415 -0.00054,0.08122zM266.19074,143.06383v2.4688h1.39541c0.22199,0.00039 0.44395,-0.0048 0.66568,-0.01556c0.42792,-0.02159 0.78536,-0.06566 1.07232,-0.13221c0.06223,-0.01434 0.12398,-0.03069 0.18516,-0.04902c0.43532,-0.13119 0.7305,-0.37271 0.88555,-0.72454c0.05705,-0.13279 0.1012,-0.27076 0.13185,-0.412c0.06285,-0.27813 0.09631,-0.61165 0.10036,-1.00058c0.00026,-0.02707 0.00038,-0.05415 0.00036,-0.08122v-0.05367zM266.19074,139.96889v2.45091h4.43668v-0.03578c0.00058,-0.18288 -0.00659,-0.3657 -0.02147,-0.54797c-0.03292,-0.38594 -0.10328,-0.70122 -0.2111,-0.94584c-0.15504,-0.35183 -0.45023,-0.59335 -0.88555,-0.72454c-0.14508,-0.04253 -0.29274,-0.07576 -0.44206,-0.09947c-0.39203,-0.06488 -0.88573,-0.09732 -1.4811,-0.09732zM240.1909,147.67243c0.04144,-0.01428 0.07985,-0.03618 0.11324,-0.06458c0.25342,-0.21077 0.49937,-0.43036 0.73742,-0.65835c0.33032,-0.31677 0.64828,-0.64619 0.95317,-0.98752c0.03853,-0.04295 0.07688,-0.08606 0.11503,-0.12934c0.25547,-0.29029 0.48863,-0.57289 0.69949,-0.8478c0.20219,-0.26229 0.39301,-0.53316 0.57194,-0.81184c0.00763,-0.01182 0.01479,-0.02393 0.02147,-0.03632c0.08074,-0.15063 0.04377,-0.27568 -0.11092,-0.37515c-0.00426,-0.00227 -0.00856,-0.00447 -0.01288,-0.00662c-0.11986,-0.06023 -0.22523,-0.05152 -0.31611,0.02612c-0.02403,0.02088 -0.04569,0.04433 -0.06458,0.06995c-0.36972,0.54862 -0.82591,1.1211 -1.36857,1.71742c-0.16646,0.18311 -0.33693,0.36253 -0.51129,0.53813c-0.36215,0.36582 -0.74388,0.71172 -1.14352,1.03618c-0.03998,0.02574 -0.07186,0.06227 -0.09195,0.10537c-0.01418,0.03169 -0.02242,0.0657 -0.02433,0.10036c-0.00051,0.00804 -0.00075,0.0161 -0.00072,0.02415c0,0.03626 0.00555,0.0709 0.01664,0.10394c0.01426,0.04151 0.03616,0.07998 0.06458,0.11342c0.02761,0.02781 0.05996,0.05047 0.09553,0.06691c0.0404,0.01828 0.08382,0.02895 0.12809,0.03149c0.00804,0.00057 0.01609,0.00086 0.02415,0.00089c0.03626,0 0.07096,-0.00561 0.10412,-0.01682zM248.55136,147.12482c-0.28951,-0.28173 -0.58635,-0.55584 -0.8902,-0.82204c-0.25702,-0.22541 -0.51789,-0.44638 -0.7825,-0.66282c-0.28849,-0.23656 -0.57987,-0.46957 -0.8741,-0.69896c-0.27896,-0.2173 -0.54606,-0.41922 -0.80129,-0.60575c-0.01698,-0.01236 -0.03398,-0.02471 -0.05099,-0.03703c-0.02195,-0.01833 -0.0423,-0.0385 -0.06083,-0.06029c-0.08551,-0.10209 -0.08671,-0.20776 -0.00358,-0.31701c0.00902,-0.01182 0.01857,-0.02322 0.02862,-0.03417c0.03968,-0.04931 0.0931,-0.08573 0.15349,-0.10466c0.01421,-0.00465 0.02866,-0.00853 0.04329,-0.01163c0.01338,-0.00291 0.02695,-0.00482 0.04061,-0.00572c0.06631,-0.00417 0.12433,0.01861 0.17407,0.06834c0.3578,0.25046 0.74243,0.5367 1.15389,0.85871c0.41147,0.32202 0.81995,0.65 1.22545,0.98394c0.4055,0.33394 0.7633,0.65 1.07339,0.94816c0.02352,0.02317 0.04451,0.04878 0.06261,0.07639c0.0712,0.11032 0.06542,0.22738 -0.01735,0.35118c-0.00864,0.01287 -0.01777,0.0254 -0.02737,0.03757c-0.05613,0.05602 -0.12862,0.09273 -0.20699,0.10483c-0.00553,0.00093 -0.01108,0.00177 -0.01664,0.0025c-0.08945,0.01193 -0.16399,-0.01193 -0.22362,-0.07156zM192.44883,142.58081l-2.00366,-2.00366c-0.0485,-0.04864 -0.07892,-0.11239 -0.08623,-0.18069c-0.00216,-0.01721 -0.00323,-0.03454 -0.00322,-0.05188c-0.0003,-0.03631 0.0047,-0.07247 0.01485,-0.10734c0.01394,-0.04735 0.03959,-0.09043 0.0746,-0.12523c0.05685,-0.05732 0.1343,-0.08947 0.21504,-0.08927c0.00286,-0.00009 0.00572,-0.00015 0.00859,-0.00018c0.04015,-0.00041 0.08004,0.0065 0.11772,0.02039c0.03985,0.01515 0.07597,0.03871 0.10591,0.06905l2.02155,2.00366c0.02151,0.0196 0.04121,0.04109 0.05886,0.06422c0.08098,0.10758 0.07633,0.21855 -0.01395,0.33293c-0.01398,0.01756 -0.02898,0.03428 -0.0449,0.05009c-0.05054,0.06304 -0.12543,0.10172 -0.20609,0.10644c-0.00881,0.00062 -0.01764,0.00092 -0.02648,0.00089c-0.0363,0.00036 -0.07246,-0.00458 -0.10734,-0.01467c-0.04737,-0.01399 -0.09045,-0.03971 -0.12523,-0.07478z" stroke-width="1.5"/></g></g></svg>