<svg version="1.1" xmlns="http://www.w3.org/2000/svg" xmlns:xlink="http://www.w3.org/1999/xlink" width="34" height="34" viewBox="0,0,34,34"><g transform="translate(-223,-163)"><g data-paper-data="{&quot;isPaintingLayer&quot;:true}" fill="#000000" fill-rule="evenodd" stroke="#000000" stroke-width="2" stroke-linecap="round" stroke-linejoin="miter" stroke-miterlimit="10" stroke-dasharray="" stroke-dashoffset="0" style="mix-blend-mode: normal"><path d="M240,196c-2.20606,0 -4.27879,-0.41212 -6.21818,-1.23636c-1.93939,-0.82424 -3.64242,-1.9697 -5.10909,-3.43636c-1.46667,-1.46667 -2.61212,-3.1697 -3.43636,-5.10909c-0.82424,-1.93939 -1.23636,-4.01212 -1.23636,-6.21818c0,-2.20606 0.41212,-4.27879 1.23636,-6.21818c0.82424,-1.93939 1.9697,-3.64242 3.43636,-5.10909c1.46667,-1.46667 3.1697,-2.61212 5.10909,-3.43636c1.93939,-0.82424 4.01212,-1.23636 6.21818,-1.23636c2.20606,0 4.27879,0.41212 6.21818,1.23636c1.93939,0.82424 3.64242,1.9697 5.10909,3.43636c1.46667,1.46667 2.61212,3.1697 3.43636,5.10909c0.82424,1.93939 1.23636,4.01212 1.23636,6.21818c0,2.20606 -0.41212,4.27879 -1.23636,6.21818c-0.82424,1.93939 -1.9697,3.64242 -3.43636,5.10909c-1.46667,1.46667 -3.1697,2.61212 -5.10909,3.43636c-1.93939,0.82424 -4.01212,1.23636 -6.21818,1.23636z"/></g></g></svg>