<svg version="1.1" xmlns="http://www.w3.org/2000/svg" xmlns:xlink="http://www.w3.org/1999/xlink" width="11.56577" height="9.92941" viewBox="0,0,11.56577,9.92941"><g transform="translate(-234.35348,-175.30802)"><g data-paper-data="{&quot;isPaintingLayer&quot;:true}" fill="#1c2f5a" fill-rule="nonzero" stroke="#ffffff" stroke-width="0" stroke-linecap="butt" stroke-linejoin="miter" stroke-miterlimit="10" stroke-dasharray="" stroke-dashoffset="0" style="mix-blend-mode: normal"><g><path d="M238.71711,176.59091c0,-0.70852 0.57437,-1.28289 1.28289,-1.28289c0.70852,0 1.28289,0.57437 1.28289,1.28289c0,0.70852 -0.57437,1.28289 -1.28289,1.28289c-0.70852,0 -1.28289,-0.57437 -1.28289,-1.28289z"/><path d="M236.62621,183.95454c0,-0.70852 0.57437,-1.28289 1.28289,-1.28289c0.70852,0 1.28289,0.57437 1.28289,1.28289c0,0.70852 -0.57437,1.28289 -1.28289,1.28289c-0.70852,0 -1.28289,-0.57437 -1.28289,-1.28289z"/><path d="M243.35347,179.90909c0,-0.70852 0.57437,-1.28289 1.28289,-1.28289c0.70852,0 1.28289,0.57437 1.28289,1.28289c0,0.70852 -0.57437,1.28289 -1.28289,1.28289c-0.70852,0 -1.28289,-0.57437 -1.28289,-1.28289z"/><path d="M234.35348,179.90909c0,-0.70852 0.57437,-1.28289 1.28289,-1.28289c0.70852,0 1.28289,0.57437 1.28289,1.28289c0,0.70852 -0.57437,1.28289 -1.28289,1.28289c-0.70852,0 -1.28289,-0.57437 -1.28289,-1.28289z"/><path d="M240.98985,183.95454c0,-0.70852 0.57437,-1.28289 1.28289,-1.28289c0.70852,0 1.28289,0.57437 1.28289,1.28289c0,0.70852 -0.57437,1.28289 -1.28289,1.28289c-0.70852,0 -1.28289,-0.57437 -1.28289,-1.28289z"/></g></g></g></svg>