<svg version="1.1" xmlns="http://www.w3.org/2000/svg" xmlns:xlink="http://www.w3.org/1999/xlink" width="12.12318" height="5.82116" viewBox="0,0,12.12318,5.82116"><g transform="translate(-234.35347,-175.55264)"><g data-paper-data="{&quot;isPaintingLayer&quot;:true}" fill="#1c2f5a" fill-rule="nonzero" stroke="#ffffff" stroke-width="0" stroke-linecap="butt" stroke-linejoin="miter" stroke-miterlimit="10" stroke-dasharray="" stroke-dashoffset="0" style="mix-blend-mode: normal"><path d="M236.91088,176.83553c0,-0.70852 0.57437,-1.28289 1.28289,-1.28289c0.70852,0 1.28289,0.57437 1.28289,1.28289c0,0.70852 -0.57437,1.28289 -1.28289,1.28289c-0.70852,0 -1.28289,-0.57437 -1.28289,-1.28289z"/><path d="M241.0927,176.83553c0,-0.70852 0.57437,-1.28289 1.28289,-1.28289c0.70852,0 1.28289,0.57437 1.28289,1.28289c0,0.70852 -0.57437,1.28289 -1.28289,1.28289c-0.70852,0 -1.28289,-0.57437 -1.28289,-1.28289z"/><path d="M243.91088,180.09091c0,-0.70852 0.57437,-1.28289 1.28289,-1.28289c0.70852,0 1.28289,0.57437 1.28289,1.28289c0,0.70852 -0.57437,1.28289 -1.28289,1.28289c-0.70852,0 -1.28289,-0.57437 -1.28289,-1.28289z"/><path d="M239.08075,180.09091c0,-0.70852 0.57437,-1.28289 1.28289,-1.28289c0.70852,0 1.28289,0.57437 1.28289,1.28289c0,0.70852 -0.57437,1.28289 -1.28289,1.28289c-0.70852,0 -1.28289,-0.57437 -1.28289,-1.28289z"/><path d="M234.35347,180.09091c0,-0.70852 0.57437,-1.28289 1.28289,-1.28289c0.70852,0 1.28289,0.57437 1.28289,1.28289c0,0.70852 -0.57437,1.28289 -1.28289,1.28289c-0.70852,0 -1.28289,-0.57437 -1.28289,-1.28289z"/></g></g></svg>