<svg version="1.1" xmlns="http://www.w3.org/2000/svg" xmlns:xlink="http://www.w3.org/1999/xlink" width="201.10464" height="58.63473" viewBox="0,0,201.10464,58.63473"><g transform="translate(-139.4476,-134.48224)"><g data-paper-data="{&quot;isPaintingLayer&quot;:true}" fill="#000000" fill-rule="evenodd" stroke="#000000" stroke-width="2" stroke-linecap="round" stroke-linejoin="miter" stroke-miterlimit="10" stroke-dasharray="" stroke-dashoffset="0" style="mix-blend-mode: normal"><path d="M156.6636,176.53936l0.30091,-1.06992c0.08916,-0.37893 0.33435,-0.56839 0.73557,-0.56839c0.04619,-0.00039 0.09224,0.005 0.13708,0.01605c0.10098,0.0232 0.1859,0.09113 0.2307,0.18456c0.06152,0.12326 0.06631,0.28431 0.01438,0.48313c-0.00448,0.01736 -0.00927,0.03464 -0.01438,0.05182l-1.87235,7.05475c-0.17542,0.64306 -0.17197,1.11149 0.01036,1.40527c0.02583,0.04172 0.05598,0.08061 0.08994,0.11602c0.0918,0.09101 0.2008,0.16284 0.32064,0.21131c0.3183,0.13775 0.79096,0.20663 1.41797,0.20663c1.51794,0 2.73519,-0.38361 3.65175,-1.15083c0.12014,-0.10063 0.23487,-0.20755 0.34371,-0.32031c0.58729,-0.61727 1.00183,-1.37819 1.20198,-2.20637c0.146,-0.56572 0.219,-1.18995 0.219,-1.87269c0,-1.40426 -0.27862,-2.7138 -0.83587,-3.92859c-0.55725,-1.2148 -1.3151,-2.27914 -2.27357,-3.19303c-0.95847,-0.91389 -2.05067,-1.62716 -3.27662,-2.13983c-1.22594,-0.51267 -2.50761,-0.769 -3.84501,-0.769c-1.58258,0 -3.07601,0.27305 -4.48027,0.81915c-1.40426,0.5461 -2.64135,1.32625 -3.71127,2.34044c-1.06992,1.01419 -1.91136,2.22342 -2.52433,3.62768c-0.46727,1.08458 -0.75804,2.23693 -0.86128,3.41336c-0.03925,0.42136 -0.05866,0.84433 -0.05818,1.26752c-0.00651,0.97212 0.10805,1.94128 0.34104,2.88509c0.23347,0.93455 0.60897,1.82773 1.11338,2.64837c0.96961,1.57144 2.32372,2.78624 4.06233,3.6444c1.18288,0.57604 2.45022,0.95936 3.75407,1.13545c0.73909,0.10308 1.48454,0.1538 2.23077,0.15179c1.49342,0 2.88654,-0.25076 4.17936,-0.75228c1.29281,-0.50152 2.4296,-1.19808 3.41035,-2.08968c0.32432,-0.32432 0.61732,-0.35486 0.879,-0.09161c0.00806,0.0081 0.01598,0.01635 0.02374,0.02474c0.0407,0.03707 0.07766,0.07806 0.11034,0.12237c0.14332,0.19727 0.13084,0.40612 -0.03745,0.62657c-0.03274,0.04243 -0.06826,0.08264 -0.10632,0.12037c-1.09221,1.02534 -2.36273,1.81105 -3.81157,2.35716c-1.38778,0.51743 -2.8539,0.79346 -4.33483,0.81614c-0.10419,0.00211 -0.2084,0.00311 -0.31262,0.00301c-1.25375,0.00718 -2.50396,-0.13377 -3.72464,-0.41994c-0.94859,-0.22558 -1.86922,-0.55571 -2.745,-0.98432c-1.90579,-0.93618 -3.41035,-2.268 -4.5137,-3.99546c-0.75599,-1.19951 -1.25857,-2.541 -1.47682,-3.94197c-0.12124,-0.74724 -0.18085,-1.50319 -0.17821,-2.2602c-0.00662,-1.21907 0.15185,-2.43342 0.4711,-3.60996c0.13178,-0.47781 0.29268,-0.94711 0.4818,-1.40527c0.63526,-1.538 1.53243,-2.8754 2.69151,-4.01218c1.15907,-1.13678 2.51319,-2.02281 4.06233,-2.65807c1.31805,-0.5339 2.71529,-0.84627 4.13522,-0.92447c0.30969,-0.01897 0.61989,-0.02845 0.93016,-0.02842c1.538,0 2.99242,0.28977 4.36325,0.86931c1.37083,0.57954 2.58563,1.38755 3.6444,2.42403c1.05877,1.03648 1.88907,2.22899 2.4909,3.57753c0.60183,1.34854 0.90274,2.79181 0.90274,4.32981c0.00626,0.74832 -0.08843,1.49406 -0.28152,2.21706c-0.2614,0.97164 -0.74927,1.86753 -1.42366,2.61427c-0.76357,0.83691 -1.76618,1.41859 -2.87172,1.66606c-0.61208,0.14867 -1.282,0.22301 -2.00977,0.22301c-0.34389,0.00249 -0.6874,-0.02312 -1.02712,-0.07657c-1.10491,-0.183 -1.78787,-0.69244 -2.04889,-1.52831c-0.58134,0.70908 -1.38039,1.20655 -2.27324,1.4153c-0.46385,0.11858 -0.97295,0.18155 -1.5273,0.18891c-0.03711,0.00047 -0.07422,0.00069 -0.11134,0.00067c-0.45102,0.00342 -0.90064,-0.05051 -1.33806,-0.16049c-0.53294,-0.1347 -1.03312,-0.37581 -1.47046,-0.70882c-0.60511,-0.4654 -1.04834,-1.10948 -1.26685,-1.84092c-0.06525,-0.20746 -0.11674,-0.41901 -0.15413,-0.63326c-0.04565,-0.2616 -0.0697,-0.52652 -0.07188,-0.79207c-0.00825,-0.74805 0.13898,-1.57489 0.44167,-2.48053c0.05685,-0.16985 0.11749,-0.3384 0.18189,-0.50553c0.22411,-0.57576 0.51533,-1.12307 0.86763,-1.63062c0.37078,-0.53214 0.82261,-1.00292 1.33907,-1.39524c0.95847,-0.72442 2.03953,-1.08663 3.24318,-1.08663c0.86931,0 1.63831,0.17275 2.307,0.51824c0.6687,0.34549 1.18136,0.8303 1.538,1.45442zM191.2018,191.05009v-22.067c0,-0.38093 0.15469,-0.59904 0.46408,-0.65432c0.05653,-0.00983 0.11381,-0.01464 0.17119,-0.01438c0.26872,-0.00582 0.52625,0.10752 0.70347,0.30961c0.03567,0.03948 0.06873,0.08126 0.09897,0.12505l8.39215,12.03655l8.35871,-12.03655c0.18924,-0.27327 0.44803,-0.4176 0.77636,-0.43298c0.01982,-0.00102 0.03967,-0.00158 0.05951,-0.00167c0.08928,-0.00117 0.17829,0.01008 0.26447,0.03343c0.26948,0.07712 0.40423,0.28888 0.40423,0.63526v22.067c0,0.4458 -0.20061,0.6687 -0.60183,0.6687c-0.39409,0 -0.59469,-0.21476 -0.60183,-0.64429c-0.00007,-0.00814 -0.00007,-0.01627 0,-0.02441v-20.72961l-8.0578,11.7022c-0.15246,0.22022 -0.29846,0.35675 -0.438,0.40958c-0.04158,0.01623 -0.08577,0.02473 -0.1304,0.02508c-0.08654,-0.00132 -0.17112,-0.02605 -0.24474,-0.07155c-0.10499,-0.06174 -0.21008,-0.16327 -0.31529,-0.30459c-0.01426,-0.01926 -0.0282,-0.03877 -0.04179,-0.05851l-8.12467,-11.7022v20.72961c0,0.39096 -0.14566,0.61052 -0.43699,0.65867c-0.04345,0.00692 -0.0874,0.01028 -0.1314,0.01003c-0.35642,0 -0.54521,-0.19693 -0.56639,-0.59079c-0.00137,-0.02594 -0.00204,-0.05192 -0.00201,-0.0779zM280.37255,182.5242v-13.54111c0,-0.4458 0.20061,-0.6687 0.60183,-0.6687c0.35619,0 0.54488,0.19704 0.56605,0.59113c0.00148,0.02583 0.00226,0.0517 0.00234,0.07757v13.54111c-0.00485,0.82432 0.06318,1.64746 0.20328,2.4598c0.16784,0.9393 0.43967,1.78464 0.81548,2.53603c0.19944,0.4003 0.43478,0.78168 0.70313,1.13946c0.84194,1.11775 2.07488,1.87639 3.45215,2.12412c0.57521,0.11428 1.16053,0.16996 1.74697,0.16617c0.69488,0.00643 1.38792,-0.0724 2.0636,-0.23471c1.26174,-0.28857 2.37934,-1.01735 3.15224,-2.05557c0.98566,-1.32402 1.54402,-3.03778 1.67509,-5.14128c0.02033,-0.33095 0.03036,-0.66245 0.03009,-0.99402v-13.54111c0,-0.4458 0.20061,-0.6687 0.60183,-0.6687c0.35619,0 0.54488,0.19704 0.56605,0.59113c0.00148,0.02583 0.00226,0.0517 0.00234,0.07757v13.54111c0.00518,0.90114 -0.06427,1.80116 -0.20763,2.69084c-0.16138,0.96493 -0.41727,1.83256 -0.76766,2.6029c-0.29391,0.65557 -0.68046,1.26552 -1.14782,1.81117c-1.41541,1.63831 -3.40478,2.45746 -5.96812,2.45746c-0.83997,0.00767 -1.67735,-0.09439 -2.4909,-0.30359c-1.35271,-0.34396 -2.56675,-1.09597 -3.47722,-2.15387c-1.41541,-1.63831 -2.12311,-4.00661 -2.12311,-7.10491zM323.36977,182.5242v-13.54111c0,-0.4458 0.20061,-0.6687 0.60183,-0.6687c0.35619,0 0.54488,0.19704 0.56605,0.59113c0.00148,0.02583 0.00226,0.0517 0.00234,0.07757v13.54111c-0.00485,0.82432 0.06318,1.64746 0.20328,2.4598c0.16784,0.9393 0.43967,1.78464 0.81548,2.53603c0.19944,0.4003 0.43478,0.78168 0.70313,1.13946c0.84194,1.11775 2.07488,1.87639 3.45215,2.12412c0.57521,0.11428 1.16053,0.16996 1.74697,0.16617c0.69488,0.00643 1.38792,-0.0724 2.0636,-0.23471c1.26174,-0.28857 2.37934,-1.01735 3.15224,-2.05557c0.98566,-1.32402 1.54402,-3.03778 1.67509,-5.14128c0.02033,-0.33095 0.03036,-0.66245 0.03009,-0.99402v-13.54111c0,-0.4458 0.20061,-0.6687 0.60183,-0.6687c0.35619,0 0.54488,0.19704 0.56605,0.59113c0.00148,0.02583 0.00226,0.0517 0.00234,0.07757v13.54111c0.00518,0.90114 -0.06427,1.80116 -0.20763,2.69084c-0.16138,0.96493 -0.41727,1.83256 -0.76766,2.6029c-0.29391,0.65557 -0.68046,1.26552 -1.14782,1.81117c-1.41541,1.63831 -3.40478,2.45746 -5.96812,2.45746c-0.83997,0.00767 -1.67735,-0.09439 -2.4909,-0.30359c-1.35271,-0.34396 -2.56675,-1.09597 -3.47722,-2.15387c-1.41541,-1.63831 -2.12311,-4.00661 -2.12311,-7.10491zM302.30581,191.05009v-22.10044c-0.00128,-0.08926 0.00986,-0.17827 0.0331,-0.26447c0.07712,-0.26948 0.28899,-0.40423 0.6356,-0.40423h9.26145c1.39401,0 2.56133,0.20061 3.50197,0.60183c0.53499,0.22162 1.02512,0.53886 1.44639,0.93618c0.74409,0.72042 1.24948,1.65162 1.44806,2.6681c0.10764,0.51906 0.1602,1.04803 0.15681,1.57812c0.00448,0.5791 -0.05721,1.15681 -0.18389,1.72189c-0.23382,1.00639 -0.69076,1.84226 -1.37083,2.50761c-0.48492,0.46352 -1.0603,0.82195 -1.69013,1.05286c-0.86552,0.3319 -1.91258,0.51033 -3.1412,0.53529l6.05171,11.0335c0.02584,0.05127 0.04851,0.10409 0.06787,0.15815c0.05506,0.15581 0.06587,0.29255 0.03243,0.41025c-0.01197,0.04496 -0.0329,0.08703 -0.06152,0.12371c-0.04079,0.0506 -0.09652,0.08381 -0.16717,0.09964c-0.03472,0.00744 -0.07015,0.01102 -0.10565,0.0107h-0.13374c-0.10924,0.00141 -0.21805,-0.01393 -0.32265,-0.04547c-0.2093,-0.06598 -0.36756,-0.20351 -0.47477,-0.41259c-0.00169,-0.00333 -0.00336,-0.00668 -0.00502,-0.01003l-6.25232,-11.36785h-7.58971v11.16724c0,0.39096 -0.14566,0.61052 -0.43699,0.65867c-0.04345,0.00692 -0.0874,0.01028 -0.1314,0.01003c-0.35642,0 -0.54521,-0.19693 -0.56639,-0.59079c-0.00137,-0.02594 -0.00204,-0.05192 -0.00201,-0.0779zM167.96458,191.71878h-0.16717c-0.4001,0 -0.52314,-0.21053 -0.36912,-0.63158c0.00044,-0.00123 0.00089,-0.00245 0.00134,-0.00368l9.16115,-22.36792c0.0317,-0.07926 0.07721,-0.15228 0.13441,-0.21565c0.09495,-0.10231 0.21811,-0.16227 0.36946,-0.17988c0.03252,-0.00378 0.06523,-0.00568 0.09796,-0.00568h0.13374c0.07771,-0.00084 0.15515,0.00929 0.23003,0.03009c0.183,0.05283 0.30693,0.17654 0.3718,0.37113l9.16115,22.36792c0.15603,0.42351 0.04458,0.63526 -0.33435,0.63526h-0.20061c-0.07781,0.00098 -0.15536,-0.00904 -0.23037,-0.02976c-0.18278,-0.05283 -0.3066,-0.17665 -0.37146,-0.37146l-3.07601,-7.62315h-11.20067l-3.10944,7.62315c-0.02606,0.08305 -0.06961,0.15955 -0.12772,0.22435c-0.109,0.11791 -0.26703,0.17687 -0.47411,0.17687zM215.54237,191.71878h-0.16717c-0.4001,0 -0.52314,-0.21053 -0.36912,-0.63158c0.00044,-0.00123 0.00089,-0.00245 0.00134,-0.00368l9.16115,-22.36792c0.0317,-0.07926 0.07721,-0.15228 0.13441,-0.21565c0.09495,-0.10231 0.21811,-0.16227 0.36946,-0.17988c0.03252,-0.00378 0.06523,-0.00568 0.09796,-0.00568h0.13374c0.07771,-0.00084 0.15515,0.00929 0.23003,0.03009c0.183,0.05283 0.30693,0.17654 0.3718,0.37113l9.16115,22.36792c0.15603,0.42351 0.04458,0.63526 -0.33435,0.63526h-0.20061c-0.07781,0.00098 -0.15536,-0.00904 -0.23037,-0.02976c-0.18278,-0.05283 -0.3066,-0.17665 -0.37146,-0.37146l-3.07601,-7.62315h-11.20067l-3.10944,7.62315c-0.02606,0.08305 -0.06961,0.15955 -0.12772,0.22435c-0.109,0.11791 -0.26703,0.17687 -0.47411,0.17687zM238.77959,191.05009v-22.10044c-0.00128,-0.08926 0.00986,-0.17827 0.0331,-0.26447c0.07712,-0.26948 0.28899,-0.40423 0.6356,-0.40423h9.26145c1.39401,0 2.56133,0.20061 3.50197,0.60183c0.53499,0.22162 1.02512,0.53886 1.44639,0.93618c0.74409,0.72042 1.24948,1.65162 1.44806,2.6681c0.10764,0.51906 0.1602,1.04803 0.15681,1.57812c0.00459,0.58639 -0.05915,1.17132 -0.18991,1.74296c-0.21216,0.96623 -0.7043,1.84853 -1.41496,2.5367c-0.8196,0.7855 -1.97923,1.27019 -3.4789,1.45408c-0.48766,0.05776 -0.97839,0.08579 -1.46946,0.08392h-8.79337v11.16724c0,0.39096 -0.14566,0.61052 -0.43699,0.65867c-0.04345,0.00692 -0.0874,0.01028 -0.1314,0.01003c-0.35642,0 -0.54521,-0.19693 -0.56639,-0.59079c-0.00137,-0.02594 -0.00204,-0.05192 -0.00201,-0.0779zM259.74324,191.05009v-22.10044c-0.00128,-0.08926 0.00986,-0.17827 0.0331,-0.26447c0.07712,-0.26948 0.28899,-0.40423 0.6356,-0.40423h9.26145c1.39401,0 2.56133,0.20061 3.50197,0.60183c0.53499,0.22162 1.02512,0.53886 1.44639,0.93618c0.74409,0.72042 1.24948,1.65162 1.44806,2.6681c0.10764,0.51906 0.1602,1.04803 0.15681,1.57812c0.00459,0.58639 -0.05915,1.17132 -0.18991,1.74296c-0.21216,0.96623 -0.7043,1.84853 -1.41496,2.5367c-0.8196,0.7855 -1.97923,1.27019 -3.4789,1.45408c-0.48766,0.05776 -0.97839,0.08579 -1.46946,0.08392h-8.79337v11.16724c0,0.39096 -0.14566,0.61052 -0.43699,0.65867c-0.04345,0.00692 -0.0874,0.01028 -0.1314,0.01003c-0.35642,0 -0.54521,-0.19693 -0.56639,-0.59079c-0.00137,-0.02594 -0.00204,-0.05192 -0.00201,-0.0779zM239.91638,169.45117v9.26145h8.79337c0.48292,0.00246 0.96547,-0.02747 1.44439,-0.08961c1.13144,-0.15335 2.00966,-0.50241 2.63467,-1.04718c0.48702,-0.43235 0.84551,-0.99052 1.03615,-1.61323c0.12794,-0.39253 0.20997,-0.82863 0.24608,-1.30831c0.01465,-0.19603 0.02189,-0.39254 0.02173,-0.58912c0,-1.05654 -0.19381,-1.92685 -0.58143,-2.61093c-0.18763,-0.33413 -0.43215,-0.63295 -0.72253,-0.88301c-0.36838,-0.30813 -0.78971,-0.54672 -1.24344,-0.70414c-0.73936,-0.26859 -1.64956,-0.40701 -2.73062,-0.41526c-0.03499,-0.00036 -0.06999,-0.00058 -0.10499,-0.00067zM260.88003,169.45117v9.26145h8.79337c0.48292,0.00246 0.96547,-0.02747 1.44439,-0.08961c1.13144,-0.15335 2.00966,-0.50241 2.63467,-1.04718c0.48702,-0.43235 0.84551,-0.99052 1.03615,-1.61323c0.12794,-0.39253 0.20997,-0.82863 0.24608,-1.30831c0.01465,-0.19603 0.02189,-0.39254 0.02173,-0.58912c0,-1.05654 -0.19381,-1.92685 -0.58143,-2.61093c-0.18763,-0.33413 -0.43215,-0.63295 -0.72253,-0.88301c-0.36838,-0.30813 -0.78971,-0.54672 -1.24344,-0.70414c-0.73936,-0.26859 -1.64956,-0.40701 -2.73062,-0.41526c-0.03499,-0.00036 -0.06999,-0.00058 -0.10499,-0.00067zM303.44259,169.45117v9.26145h8.79337c0.48292,0.00246 0.96547,-0.02747 1.44439,-0.08961c1.13144,-0.15335 2.00966,-0.50241 2.63467,-1.04718c0.48702,-0.43235 0.84551,-0.99052 1.03615,-1.61323c0.12794,-0.39253 0.20997,-0.82863 0.24608,-1.30831c0.01465,-0.19603 0.02189,-0.39254 0.02173,-0.58912c0,-1.05654 -0.19381,-1.92685 -0.58143,-2.61093c-0.18763,-0.33413 -0.43215,-0.63295 -0.72253,-0.88301c-0.36838,-0.30813 -0.78971,-0.54672 -1.24344,-0.70414c-0.73936,-0.26859 -1.64956,-0.40701 -2.73062,-0.41526c-0.03499,-0.00036 -0.06999,-0.00058 -0.10499,-0.00067zM177.2929,169.88583l-5.1824,12.67181h10.29793zM224.87069,169.88583l-5.1824,12.67181h10.29793zM155.19247,181.95581l1.03648,-3.81157c-0.09819,-0.64161 -0.44357,-1.21933 -0.96226,-1.60955c-0.05677,-0.04489 -0.11498,-0.08793 -0.17453,-0.12906c-0.54476,-0.37246 -1.17742,-0.59606 -1.83524,-0.64864c-0.14573,-0.0134 -0.29199,-0.0201 -0.43833,-0.02006c-0.95847,0 -1.8222,0.29534 -2.5912,0.88602c-0.5536,0.43041 -1.0129,0.96994 -1.34943,1.58515c-0.15614,0.28061 -0.29179,0.57214 -0.4059,0.87232c-0.13433,0.34457 -0.24733,0.69709 -0.33836,1.05554c-0.27729,1.10959 -0.25366,2.07842 0.07088,2.90649c0.40791,1.04161 1.30206,1.58147 2.68248,1.61958c0.05315,0.0014 0.10632,0.00207 0.15948,0.00201c0.27522,-0.00093 0.54993,-0.02385 0.82149,-0.06854c0.23013,-0.03764 0.45814,-0.0873 0.68307,-0.14879c0.44502,-0.12265 0.86431,-0.32447 1.23776,-0.59581c0.09144,-0.06559 0.18043,-0.13451 0.26681,-0.20663c0.42418,-0.35329 0.77513,-0.84858 1.05286,-1.48584c0.02918,-0.06703 0.05716,-0.13458 0.08392,-0.20262z"/><path d="M265.39955,159.16869v-7.04604c-1.85791,0.07011 -3.67639,0.13146 -5.45543,0.18404c-0.63081,0.01866 -1.26162,0.03715 -1.89244,0.05547c-0.99065,0.02875 -1.88035,0.05407 -2.66908,0.07598c-0.11504,-0.00013 -0.22717,-0.03616 -0.32075,-0.10306c-0.00711,-0.00495 -0.01412,-0.01003 -0.02103,-0.01525c-0.08986,-0.06517 -0.14665,-0.16645 -0.15538,-0.27711c-0.00164,-0.01713 -0.00243,-0.03433 -0.00237,-0.05153c0,-0.10359 0.01683,-0.18886 0.05048,-0.25581c0.02186,-0.04447 0.05415,-0.08298 0.09412,-0.11226c0.0964,-0.07011 0.20595,-0.10516 0.32864,-0.10516c1.0867,0 2.44946,-0.01753 4.08828,-0.05258c1.63882,-0.03506 3.36089,-0.07887 5.16622,-0.13146c-0.78874,-0.61346 -1.63006,-1.24445 -2.52396,-1.89297c-0.76823,-0.55737 -1.47169,-1.03701 -2.1104,-1.43892c-0.10235,-0.06444 -0.20515,-0.12815 -0.3084,-0.19114c-0.10516,-0.07011 -0.17527,-0.17089 -0.21033,-0.30235c-0.00984,-0.03635 -0.01487,-0.07382 -0.01499,-0.11147c0,-0.06468 0.01534,-0.12821 0.04601,-0.19061c0.01378,-0.02763 0.02979,-0.05409 0.04785,-0.07914c0.03445,-0.04458 0.07398,-0.08499 0.11778,-0.12041c0.16896,-0.13426 0.36632,-0.13794 0.59208,-0.01104c0.31549,0.22786 0.64852,0.4601 0.99907,0.69672c0.35055,0.23662 0.69234,0.48639 1.02536,0.7493c0.33302,-0.36808 0.72301,-0.83694 1.16996,-1.40658c0.15925,-0.20274 0.31639,-0.40712 0.4714,-0.61311c0.15266,-0.20332 0.29402,-0.39656 0.42408,-0.57972c0.07503,-0.10556 0.149,-0.21187 0.2219,-0.31891h-10.01695c-0.05972,0.00089 -0.11927,-0.00655 -0.17694,-0.02208c-0.18001,-0.05153 -0.27001,-0.19315 -0.27001,-0.42487c-0.00165,-0.11674 0.0443,-0.22913 0.12725,-0.31129c0.00139,-0.00141 0.0028,-0.00281 0.00421,-0.00421c0.08109,-0.08408 0.1929,-0.13154 0.30971,-0.13146c0.00193,-0.00001 0.00386,-0.00001 0.00578,0h10.85827v-2.28734h-8.12398c-0.11765,0.00031 -0.23118,-0.04328 -0.31839,-0.12225c-0.00345,-0.00303 -0.00687,-0.0061 -0.01025,-0.0092c-0.0964,-0.08764 -0.1446,-0.1928 -0.1446,-0.31549c0,-0.23767 0.10034,-0.38052 0.30103,-0.42855c0.05649,-0.01285 0.11428,-0.01902 0.17221,-0.0184h8.12398v-2.28734h-9.62258c-0.23767,0 -0.38061,-0.10034 -0.42881,-0.30103c-0.01276,-0.0565 -0.01885,-0.11429 -0.01814,-0.17221c-0.00165,-0.11674 0.0443,-0.22913 0.12725,-0.31129c0.00139,-0.00141 0.0028,-0.00281 0.00421,-0.00421c0.08109,-0.08408 0.1929,-0.13154 0.30971,-0.13146c0.00193,-0.00001 0.00386,-0.00001 0.00578,0h9.62258v-2.36621c-0.00003,-0.10516 0.03765,-0.20684 0.10622,-0.28657c0.01212,-0.01463 0.02493,-0.02866 0.03839,-0.04207c0.03774,-0.03851 0.08119,-0.07096 0.12883,-0.09623c0.06168,-0.03214 0.13027,-0.04874 0.19981,-0.04838c0.05651,-0.00057 0.1127,0.0085 0.16616,0.02682c0.06751,0.02387 0.12792,0.06438 0.17563,0.11778c0.04253,0.04579 0.0763,0.09899 0.09964,0.15696c0.02135,0.0547 0.03215,0.11296 0.03181,0.17168v2.36621h9.67517c0.04691,-0.00037 0.09366,0.00538 0.13908,0.01709c0.07312,0.0185 0.1391,0.05831 0.18956,0.11437c0.07887,0.08764 0.11831,0.1928 0.11831,0.31549c0.00079,0.06192 -0.00637,0.12368 -0.0213,0.18378c-0.04119,0.15634 -0.14215,0.24933 -0.30287,0.27895c-0.04052,0.00723 -0.08162,0.01075 -0.12278,0.01052h-9.67517v2.28734h8.25544c0.05963,-0.00086 0.11909,0.00657 0.17668,0.02208c0.18018,0.05171 0.27027,0.19333 0.27027,0.42487c0,0.12269 -0.03944,0.22786 -0.11831,0.31549c-0.05859,0.06477 -0.13734,0.10785 -0.22348,0.12225c-0.0347,0.00632 -0.0699,0.0094 -0.10516,0.0092h-8.25544v2.28734h10.91085c0.04691,-0.00037 0.09366,0.00538 0.13908,0.01709c0.07312,0.0185 0.1391,0.05831 0.18956,0.11437c0.07887,0.08764 0.11831,0.1928 0.11831,0.31549c0.0008,0.05973 -0.00672,0.11928 -0.02235,0.17694c-0.05153,0.18001 -0.19307,0.27001 -0.4246,0.27001h-11.54184c-0.16411,0.24539 -0.33347,0.48724 -0.50795,0.72537c-0.2382,0.32601 -0.50269,0.67139 -0.79347,1.03614c-0.44432,0.55737 -0.85955,1.04998 -1.24568,1.47783c-0.06196,0.06867 -0.12436,0.13694 -0.18719,0.20481c0.43819,0.33302 0.86761,0.65728 1.28827,0.97277c0.22668,0.16962 0.44951,0.34433 0.66832,0.52398c0.15677,0.12888 0.31087,0.26098 0.4622,0.39621c0.52582,-0.45571 1.07356,-0.96401 1.6432,-1.52489c0.56964,-0.56088 1.12176,-1.12176 1.65635,-1.68264c0.40927,-0.42942 0.76972,-0.82291 1.08136,-1.18048c0.09185,-0.1052 0.18274,-0.21125 0.27264,-0.31812c0.04707,-0.05604 0.10346,-0.10354 0.16669,-0.1404c0.06601,-0.03765 0.13901,-0.06145 0.21454,-0.06993c0.02068,-0.00244 0.04149,-0.00367 0.06231,-0.00368c0.12234,0 0.22865,0.04505 0.31891,0.13514c0.11814,0.08448 0.17939,0.19745 0.18378,0.33889c0.00017,0.00534 0.00026,0.01069 0.00026,0.01604c0.00038,0.05111 -0.00563,0.10207 -0.01788,0.1517c-0.01855,0.07686 -0.05783,0.14716 -0.11358,0.20323c-0.59593,0.64852 -1.33209,1.38467 -2.20846,2.20846c-0.63464,0.59739 -1.28226,1.18085 -1.94239,1.74994c-0.20994,0.18082 -0.42133,0.35996 -0.63414,0.53739c1.22089,-0.0445 2.4416,-0.09384 3.6621,-0.14802c0.16836,-0.00752 0.33671,-0.01515 0.50505,-0.02287c0.5574,-0.0254 1.11469,-0.05309 1.67186,-0.08308c0.67866,-0.03663 1.30886,-0.07467 1.8906,-0.1141c-0.28044,-0.29797 -0.56964,-0.58717 -0.86761,-0.86761c-0.29797,-0.28044 -0.58717,-0.53459 -0.86761,-0.76245c-0.03703,-0.0363 -0.06777,-0.0785 -0.09097,-0.12488c-0.02701,-0.05524 -0.04087,-0.11598 -0.04049,-0.17747c-0.00065,-0.04926 0.00883,-0.09812 0.02787,-0.14355c0.02294,-0.05197 0.05845,-0.09741 0.10332,-0.13224c0.18053,-0.19701 0.3764,-0.22505 0.58761,-0.08413c0.01489,0.00994 0.02945,0.02037 0.04364,0.03129c0.41256,0.3517 0.81404,0.71619 1.20387,1.09293c0.32838,0.31695 0.65017,0.64066 0.96515,0.97093c0.30882,0.32317 0.61538,0.64849 0.91967,0.97593c0.27711,0.29832 0.53625,0.58182 0.77743,0.85052c0.07873,0.08764 0.15716,0.17554 0.23531,0.2637c0.0284,0.03039 0.05408,0.06321 0.07677,0.09807c0.10744,0.16739 0.08904,0.32995 -0.05521,0.4877c-0.02324,0.02532 -0.048,0.0492 -0.07414,0.07151c-0.03322,0.03105 -0.06931,0.05887 -0.10779,0.08308c-0.19193,0.11901 -0.38385,0.08255 -0.57578,-0.10937c-0.17743,-0.21804 -0.35825,-0.43331 -0.54239,-0.64571c-0.06424,-0.07427 -0.12883,-0.14824 -0.19377,-0.2219l-0.78874,-0.8939c-1.01659,0.07011 -2.2479,0.14022 -3.69392,0.21033c-1.44602,0.07011 -2.949,0.14022 -4.50894,0.21033v7.07234c0.00024,0.11768 -0.04345,0.23122 -0.12252,0.31839c-0.00294,0.00345 -0.00592,0.00687 -0.00894,0.01025c-0.08764,0.0964 -0.20157,0.1446 -0.34179,0.1446c-0.10516,0.00003 -0.20684,-0.03765 -0.28657,-0.10622c-0.01463,-0.01212 -0.02866,-0.02493 -0.04207,-0.03839c-0.03853,-0.03782 -0.07098,-0.08136 -0.09623,-0.12909c-0.0321,-0.0616 -0.0487,-0.13009 -0.04838,-0.19955zM285.95927,158.90578v-14.11838c-0.26886,0.56934 -0.5546,1.13055 -0.85683,1.6829c-0.20768,0.38027 -0.42163,0.75707 -0.64177,1.13026c-0.57841,0.98154 -1.17872,1.91488 -1.80095,2.80001c-0.27695,0.39477 -0.56201,0.78378 -0.85499,1.1668c-0.31514,0.41119 -0.6217,0.78909 -0.91967,1.13368c-0.08764,0.10516 -0.20157,0.16651 -0.34179,0.18404c-0.02276,0.00291 -0.04568,0.0044 -0.06862,0.00447c-0.10978,0.00079 -0.21614,-0.03815 -0.29946,-0.10963c-0.07137,-0.07144 -0.11618,-0.16514 -0.12699,-0.26554c-0.00309,-0.0253 -0.00458,-0.05076 -0.00447,-0.07624c-0.00037,-0.04929 0.00457,-0.09847 0.01472,-0.1467c0.01648,-0.07519 0.04662,-0.14022 0.09044,-0.19508c0.31322,-0.3374 0.65132,-0.74106 1.01431,-1.21097c0.17346,-0.22486 0.34367,-0.45222 0.51058,-0.68199c0.56088,-0.77121 1.11738,-1.59938 1.66949,-2.48452c0.55212,-0.88514 1.06041,-1.74398 1.52489,-2.57654c0.16448,-0.29436 0.32444,-0.59122 0.47981,-0.89048c0.15109,-0.29131 0.28693,-0.56605 0.40751,-0.82423c0.07033,-0.15034 0.13826,-0.3018 0.20376,-0.45431v-0.23662h-5.0742c-0.12269,0 -0.22786,-0.03944 -0.31549,-0.11831c-0.08069,-0.07084 -0.12815,-0.17214 -0.13093,-0.27948c-0.00035,-0.00762 -0.00053,-0.01525 -0.00053,-0.02287c-0.00165,-0.11674 0.0443,-0.22913 0.12725,-0.31129c0.00139,-0.00141 0.0028,-0.00281 0.00421,-0.00421c0.08109,-0.08408 0.1929,-0.13154 0.30971,-0.13146c0.00193,-0.00001 0.00386,-0.00001 0.00578,0h5.0742v-5.54745c-0.00065,-0.05649 0.00833,-0.11268 0.02655,-0.16616c0.02395,-0.06754 0.06455,-0.12795 0.11805,-0.17563c0.04579,-0.04253 0.09899,-0.0763 0.15696,-0.09964c0.0547,-0.02135 0.11296,-0.03215 0.17168,-0.03181c0.05336,-0.00044 0.10651,0.00691 0.15775,0.02182c0.06959,0.02048 0.13289,0.05819 0.18404,0.10963c0.07133,0.07155 0.11605,0.16534 0.12672,0.2658c0.00316,0.0252 0.00474,0.05058 0.00473,0.07598v5.54745h3.91739c0.05404,-0.00061 0.10769,0.00921 0.15801,0.02892c0.05539,0.02257 0.10479,0.05767 0.14434,0.10254c0.07887,0.08764 0.11831,0.1928 0.11831,0.31549c0.00074,0.05618 -0.00633,0.11219 -0.02103,0.16642c-0.03558,0.12445 -0.11691,0.20323 -0.24398,0.23636c-0.05092,0.01252 -0.10322,0.01853 -0.15564,0.01788h-3.91739v2.28734c0.26291,0.33302 0.59155,0.73177 0.98592,1.19625c0.39437,0.46448 0.80188,0.93772 1.22254,1.41973c0.42066,0.48201 0.82379,0.93334 1.2094,1.354c0.3856,0.42066 0.70986,0.75368 0.97277,0.99907c0.09262,0.07438 0.14937,0.18454 0.15617,0.30314c0.00099,0.01286 0.00152,0.02575 0.00158,0.03865c0.00047,0.05345 -0.00688,0.10669 -0.02182,0.15801c-0.02052,0.0695 -0.05823,0.1327 -0.10963,0.18378c-0.04674,0.04777 -0.1018,0.08661 -0.16248,0.11463c-0.06465,0.02895 -0.13477,0.04365 -0.2056,0.04312c-0.13424,0.00061 -0.26312,-0.05261 -0.35782,-0.14776c-0.00345,-0.00329 -0.00687,-0.00662 -0.01025,-0.00999c-0.12791,-0.13506 -0.2549,-0.27099 -0.38096,-0.40778c-0.22593,-0.24521 -0.47578,-0.52118 -0.74956,-0.82791c-0.43819,-0.49077 -0.88076,-1.01221 -1.32771,-1.56433c-0.44695,-0.55212 -0.85446,-1.07356 -1.22254,-1.56433v12.59349c0.00024,0.11768 -0.04345,0.23122 -0.12252,0.31839c-0.00294,0.00345 -0.00592,0.00687 -0.00894,0.01025c-0.08764,0.0964 -0.20157,0.1446 -0.34179,0.1446c-0.10516,0.00003 -0.20684,-0.03765 -0.28657,-0.10622c-0.01463,-0.01212 -0.02866,-0.02493 -0.04207,-0.03839c-0.03853,-0.03782 -0.07098,-0.08136 -0.09623,-0.12909c-0.0321,-0.0616 -0.0487,-0.13009 -0.04838,-0.19955zM299.10488,156.09262v-11.56813c-0.63099,1.13929 -1.37152,2.28295 -2.22161,3.431c-0.85008,1.14805 -1.75713,2.23913 -2.72114,3.27326c-0.6981,0.7516 -1.43704,1.4642 -2.21346,2.13458c-0.2483,0.21368 -0.50083,0.42239 -0.75745,0.62599c-0.08593,0.05667 -0.18319,0.0939 -0.285,0.10911c-0.02753,0.00439 -0.05526,0.00746 -0.08308,0.0092c-0.01068,0.00069 -0.02137,0.00104 -0.03208,0.00105c-0.06678,0 -0.12716,-0.01367 -0.18115,-0.04101c-0.0496,-0.02567 -0.09336,-0.06129 -0.12856,-0.10464c-0.09027,-0.09009 -0.1354,-0.19307 -0.1354,-0.30892c0.00008,-0.01978 0.0014,-0.03954 0.00394,-0.05916c0.0058,-0.05073 0.01928,-0.10028 0.03996,-0.14697c0.03101,-0.06874 0.08099,-0.12721 0.14408,-0.16853c0.47476,-0.35259 0.9329,-0.72703 1.37293,-1.12211c0.37222,-0.33345 0.73415,-0.6782 1.0853,-1.03377c0.83255,-0.84132 1.63444,-1.7396 2.40565,-2.69485c0.77121,-0.95525 1.47231,-1.92364 2.1033,-2.90518c0.63099,-0.98154 1.15681,-1.91049 1.57747,-2.78687h-5.75778c-0.10516,0.00003 -0.20684,-0.03765 -0.28657,-0.10622c-0.01463,-0.01212 -0.02866,-0.02493 -0.04207,-0.03839c-0.03853,-0.03782 -0.07098,-0.08136 -0.09623,-0.12909c-0.0321,-0.0616 -0.0487,-0.13009 -0.04838,-0.19955c-0.00065,-0.05649 0.00833,-0.11268 0.02655,-0.16616c0.02395,-0.06754 0.06455,-0.12795 0.11805,-0.17563c0.04579,-0.04253 0.09899,-0.0763 0.15696,-0.09964c0.0547,-0.02135 0.11296,-0.03215 0.17168,-0.03181h5.78407v-5.52115c-0.00065,-0.05649 0.00833,-0.11268 0.02655,-0.16616c0.02395,-0.06754 0.06455,-0.12795 0.11805,-0.17563c0.04579,-0.04253 0.09899,-0.0763 0.15696,-0.09964c0.0547,-0.02135 0.11296,-0.03215 0.17168,-0.03181c0.05336,-0.00044 0.10651,0.00691 0.15775,0.02182c0.06959,0.02048 0.13289,0.05819 0.18404,0.10963c0.07133,0.07155 0.11605,0.16534 0.12672,0.2658c0.00316,0.0252 0.00474,0.05058 0.00473,0.07598v5.52115h3.99626c0.05336,-0.00044 0.10651,0.00691 0.15775,0.02182c0.06959,0.02048 0.13289,0.05819 0.18404,0.10963c0.07133,0.07155 0.11605,0.16534 0.12672,0.2658c0.00316,0.0252 0.00474,0.05058 0.00473,0.07598c0.00024,0.11768 -0.04345,0.23122 -0.12252,0.31839c-0.00294,0.00345 -0.00592,0.00687 -0.00894,0.01025c-0.08764,0.0964 -0.20157,0.1446 -0.34179,0.1446h-3.99626v13.35593c0,1.17434 -0.28482,2.0069 -0.85446,2.49766c-0.20096,0.16635 -0.42897,0.29698 -0.67411,0.38622c-0.43941,0.16949 -1.00301,0.27746 -1.69079,0.32391c-0.27613,0.01795 -0.55278,0.02663 -0.82949,0.02603c-0.10516,0.00003 -0.20684,-0.03765 -0.28657,-0.10622c-0.01463,-0.01212 -0.02866,-0.02493 -0.04207,-0.03839c-0.03853,-0.03782 -0.07098,-0.08136 -0.09623,-0.12909c-0.0321,-0.0616 -0.0487,-0.13009 -0.04838,-0.19955c-0.00065,-0.05649 0.00833,-0.11268 0.02655,-0.16616c0.02395,-0.06754 0.06455,-0.12795 0.11805,-0.17563c0.04579,-0.04253 0.09899,-0.0763 0.15696,-0.09964c0.0547,-0.02135 0.11296,-0.03215 0.17168,-0.03181c0.23244,0.00044 0.46485,-0.00534 0.69698,-0.01735c0.50935,-0.02752 0.92116,-0.08746 1.23542,-0.17983c0.40541,-0.11919 0.69549,-0.32137 0.87024,-0.60654c0.01794,-0.02933 0.0346,-0.05942 0.04995,-0.09018c0.06388,-0.13085 0.11325,-0.26829 0.14723,-0.40988c0.06836,-0.27395 0.10254,-0.60181 0.10254,-0.98355zM212.97487,143.60429v-7.33525c-0.00065,-0.05649 0.00833,-0.11268 0.02655,-0.16616c0.02395,-0.06754 0.06455,-0.12795 0.11805,-0.17563c0.04579,-0.04253 0.09899,-0.0763 0.15696,-0.09964c0.0547,-0.02135 0.11296,-0.03215 0.17168,-0.03181c0.05336,-0.00044 0.10651,0.00691 0.15775,0.02182c0.06959,0.02048 0.13289,0.05819 0.18404,0.10963c0.07133,0.07155 0.11605,0.16534 0.12672,0.2658c0.00316,0.0252 0.00474,0.05058 0.00473,0.07598v7.33525c0,0.1928 -0.00438,0.3856 -0.01315,0.57841c-0.00876,0.1928 -0.01315,0.3856 -0.01315,0.57841c0.1928,3.01473 1.20501,5.65261 3.03663,7.91365c1.01583,1.23474 2.2155,2.30591 3.55694,3.17598c1.08513,0.7174 2.30407,1.3611 3.65684,1.93109c0.25367,0.10674 0.50889,0.20972 0.7656,0.30892c0.04488,0.01072 0.08787,0.02819 0.12751,0.05179c0.06977,0.04215 0.12239,0.10762 0.14855,0.18483c0.0171,0.04706 0.02702,0.09643 0.02945,0.14644c0.0028,0.06345 -0.00727,0.1269 -0.03023,0.19035c-0.00382,0.01055 -0.00794,0.02098 -0.01236,0.03129c-0.07011,0.15775 -0.17089,0.25853 -0.30235,0.30235c-0.10376,0.03453 -0.21015,0.03365 -0.31918,-0.00263c-0.03028,-0.01015 -0.0598,-0.02245 -0.08834,-0.03681c-1.26476,-0.5245 -2.48845,-1.14302 -3.66079,-1.85038c-1.2888,-0.78523 -2.42274,-1.64784 -3.40182,-2.58784c-0.10087,-0.09681 -0.20052,-0.19489 -0.29893,-0.2942c-1.85791,-1.87544 -3.05854,-4.09266 -3.6019,-6.65168c-0.57841,2.54148 -1.77904,4.78062 -3.6019,6.7174c-0.9616,1.00779 -2.04458,1.89233 -3.22409,2.63333c-1.26478,0.80731 -2.70528,1.52892 -4.32149,2.16482c-0.0659,0.02852 -0.13695,0.04319 -0.20875,0.04312c-0.06012,0 -0.12199,-0.00999 -0.18562,-0.02997c-0.14022,-0.04382 -0.24539,-0.12707 -0.31549,-0.24977c-0.01329,-0.03192 -0.02419,-0.06479 -0.0326,-0.09833c-0.06117,-0.24836 0.06362,-0.43468 0.37439,-0.55895c1.89717,-0.72126 3.51382,-1.54066 4.84994,-2.45823c0.15558,-0.10679 0.30923,-0.21635 0.46088,-0.32864c0.71506,-0.52519 1.38445,-1.10989 2.00102,-1.74784c0.509,-0.52777 0.96996,-1.09985 1.3774,-1.70945c0.83255,-1.25321 1.42411,-2.58092 1.77466,-3.98312c0.35055,-1.4022 0.52582,-2.85698 0.52582,-4.36434zM187.7616,155.14613v-11.43668c-0.00065,-0.05649 0.00833,-0.11268 0.02655,-0.16616c0.02395,-0.06754 0.06455,-0.12795 0.11805,-0.17563c0.04579,-0.04253 0.09899,-0.0763 0.15696,-0.09964c0.0547,-0.02135 0.11296,-0.03215 0.17168,-0.03181c0.05336,-0.00044 0.10651,0.00691 0.15775,0.02182c0.06959,0.02048 0.13289,0.05819 0.18404,0.10963c0.07133,0.07155 0.11605,0.16534 0.12672,0.2658c0.00316,0.0252 0.00474,0.05058 0.00473,0.07598v6.02069c0.77121,-0.31549 1.61691,-0.71863 2.5371,-1.2094c0.82631,-0.44186 1.63536,-0.91528 2.42536,-1.4192c0.1165,-0.07407 0.23262,-0.14874 0.34836,-0.224c0.56039,-0.364 1.11036,-0.7438 1.64925,-1.13894c0.30469,-0.22367 0.60508,-0.45315 0.901,-0.6883c0.08332,-0.07149 0.18968,-0.11043 0.29946,-0.10963c0.02294,0.00007 0.04586,0.00156 0.06862,0.00447c0.14022,0.01753 0.25415,0.07887 0.34179,0.18404c0.02813,0.0388 0.05135,0.08092 0.06915,0.12541c0.0326,0.08343 0.04023,0.1687 0.02287,0.25581c-0.02629,0.13146 -0.09202,0.241 -0.19718,0.32864c-0.52568,0.41015 -1.06587,0.80135 -1.61954,1.17285c-0.35404,0.23802 -0.71254,0.46934 -1.07531,0.69383c-0.9903,0.61346 -1.9806,1.17434 -2.97091,1.68264c-0.53261,0.2741 -1.07183,0.53516 -1.61717,0.78295c-0.39046,0.17725 -0.78484,0.34573 -1.18284,0.50532v4.46951c-0.00109,0.21991 0.01323,0.43963 0.04285,0.65754c0.05679,0.4012 0.16958,0.73852 0.33837,1.01195c0.21419,0.34722 0.56842,0.61346 1.06269,0.79873c0.09576,0.0357 0.19294,0.06745 0.29131,0.09517c0.22599,0.06252 0.45559,0.11116 0.68752,0.14565c0.48341,0.07467 1.06173,0.11726 1.73496,0.12778c0.11269,0.00176 0.2254,0.00263 0.3381,0.00263c0.31216,0.00087 0.62423,-0.01088 0.93544,-0.03523c0.29709,-0.02419 0.57148,-0.06073 0.82318,-0.10963c0.23311,-0.04393 0.46258,-0.10536 0.68646,-0.18378c0.30483,-0.10554 0.58833,-0.26474 0.83711,-0.47009c0.21729,-0.18257 0.40109,-0.40161 0.54318,-0.64729c0.12224,-0.21349 0.22232,-0.43893 0.29867,-0.67279c0.1404,-0.41908 0.23802,-0.91344 0.29288,-1.48309c0.00556,-0.06103 0.01918,-0.12106 0.04049,-0.17852c0.07905,-0.20332 0.25835,-0.28403 0.53792,-0.24214c0.06221,0.00627 0.12292,0.02298 0.17957,0.04943c0.17019,0.08291 0.24179,0.25923 0.2148,0.52898c-0.03809,0.35507 -0.09638,0.70768 -0.17457,1.05612c-0.07922,0.34634 -0.17677,0.66149 -0.29262,0.94543c-0.08569,0.21295 -0.18884,0.41846 -0.3084,0.61443c-0.38692,0.62847 -0.97684,1.10597 -1.67212,1.35347c-0.01225,0.00462 -0.02452,0.00917 -0.03681,0.01367c-0.54125,0.19736 -1.20046,0.32303 -1.97762,0.37702c-0.30874,0.02086 -0.61811,0.03104 -0.92755,0.0305c-0.40733,0.00085 -0.81459,-0.01063 -1.22123,-0.03444c-0.74579,-0.0454 -1.37529,-0.13566 -1.8885,-0.2708c-0.05917,-0.01556 -0.11807,-0.03213 -0.17668,-0.04969c-0.25356,-0.07409 -0.49863,-0.17464 -0.73116,-0.29998c-0.41277,-0.22646 -0.72555,-0.52083 -0.93833,-0.88312c-0.32426,-0.55212 -0.48639,-1.30141 -0.48639,-2.2479zM182.87144,142.34231v-2.52396h-6.91459c-0.10516,0.00003 -0.20684,-0.03765 -0.28657,-0.10622c-0.01463,-0.01212 -0.02866,-0.02493 -0.04207,-0.03839c-0.03853,-0.03782 -0.07098,-0.08136 -0.09623,-0.12909c-0.0321,-0.0616 -0.0487,-0.13009 -0.04838,-0.19955c-0.00065,-0.05649 0.00833,-0.11268 0.02655,-0.16616c0.02395,-0.06754 0.06455,-0.12795 0.11805,-0.17563c0.04579,-0.04253 0.09899,-0.0763 0.15696,-0.09964c0.0547,-0.02135 0.11296,-0.03215 0.17168,-0.03181h6.91459v-2.65541c-0.00065,-0.05649 0.00833,-0.11268 0.02655,-0.16616c0.02395,-0.06754 0.06455,-0.12795 0.11805,-0.17563c0.04579,-0.04253 0.09899,-0.0763 0.15696,-0.09964c0.0547,-0.02135 0.11296,-0.03215 0.17168,-0.03181c0.05336,-0.00044 0.10651,0.00691 0.15775,0.02182c0.06959,0.02048 0.13289,0.05819 0.18404,0.10963c0.07133,0.07155 0.11605,0.16534 0.12672,0.2658c0.00316,0.0252 0.00474,0.05058 0.00473,0.07598v2.65541h6.23102v-2.65541c-0.00065,-0.05649 0.00833,-0.11268 0.02655,-0.16616c0.02395,-0.06754 0.06455,-0.12795 0.11805,-0.17563c0.04579,-0.04253 0.09899,-0.0763 0.15696,-0.09964c0.0547,-0.02135 0.11296,-0.03215 0.17168,-0.03181c0.05336,-0.00044 0.10651,0.00691 0.15775,0.02182c0.06959,0.02048 0.13289,0.05819 0.18404,0.10963c0.07133,0.07155 0.11605,0.16534 0.12672,0.2658c0.00316,0.0252 0.00474,0.05058 0.00473,0.07598v2.65541h6.94088c0.05336,-0.00044 0.10651,0.00691 0.15775,0.02182c0.06959,0.02048 0.13289,0.05819 0.18404,0.10963c0.07133,0.07155 0.11605,0.16534 0.12672,0.2658c0.00316,0.0252 0.00474,0.05058 0.00473,0.07598c0.00024,0.11768 -0.04345,0.23122 -0.12252,0.31839c-0.00294,0.00345 -0.00592,0.00687 -0.00894,0.01025c-0.08764,0.0964 -0.20157,0.1446 -0.34179,0.1446h-6.94088v2.52396c0.00024,0.11768 -0.04345,0.23122 -0.12252,0.31839c-0.00294,0.00345 -0.00592,0.00687 -0.00894,0.01025c-0.08764,0.0964 -0.20157,0.1446 -0.34179,0.1446c-0.10516,0.00003 -0.20684,-0.03765 -0.28657,-0.10622c-0.01463,-0.01212 -0.02866,-0.02493 -0.04207,-0.03839c-0.03853,-0.03782 -0.07098,-0.08136 -0.09623,-0.12909c-0.0321,-0.0616 -0.0487,-0.13009 -0.04838,-0.19955v-2.52396h-6.23102v2.52396c0.00024,0.11768 -0.04345,0.23122 -0.12252,0.31839c-0.00294,0.00345 -0.00592,0.00687 -0.00894,0.01025c-0.08764,0.0964 -0.20157,0.1446 -0.34179,0.1446c-0.10516,0.00003 -0.20684,-0.03765 -0.28657,-0.10622c-0.01463,-0.01212 -0.02866,-0.02493 -0.04207,-0.03839c-0.03853,-0.03782 -0.07098,-0.08136 -0.09623,-0.12909c-0.0321,-0.0616 -0.0487,-0.13009 -0.04838,-0.19955zM180.71556,159.08981v-10.72681c-0.63099,0.77121 -1.31894,1.52489 -2.06386,2.26104c-0.74492,0.73615 -1.52927,1.42849 -2.35306,2.07701c-0.09202,0.07843 -0.20931,0.12092 -0.33022,0.11963c-0.01263,-0.00004 -0.02526,-0.00048 -0.03786,-0.00131c-0.0683,-0.00342 -0.13512,-0.02115 -0.19613,-0.05206c-0.05605,-0.02941 -0.10559,-0.06983 -0.14565,-0.11884c-0.07149,-0.08332 -0.11043,-0.18968 -0.10963,-0.29946c0.00007,-0.02294 0.00156,-0.04586 0.00447,-0.06862c0.0058,-0.05073 0.01928,-0.10028 0.03996,-0.14697c0.03101,-0.06874 0.08099,-0.12721 0.14408,-0.16853c1.01659,-0.77121 1.98499,-1.64758 2.90518,-2.62912c0.92019,-0.98154 1.74837,-1.99375 2.48452,-3.03663c0.73615,-1.04288 1.32332,-2.0288 1.76151,-2.95776c0.07011,-0.14022 0.17527,-0.23662 0.31549,-0.2892c0.03385,-0.01287 0.0689,-0.02229 0.10464,-0.02813c0.09658,-0.01525 0.18877,0.00044 0.27658,0.04706c0.00442,0.00239 0.0088,0.00484 0.01315,0.00736c0.0536,0.02608 0.10255,0.06081 0.14486,0.1028c0.05803,0.05879 0.09885,0.13235 0.11805,0.2127c0.00927,0.03669 0.01491,0.07421 0.01683,0.112c0.00035,0.00841 0.00053,0.01683 0.00053,0.02524c-0.00015,0.09039 -0.02429,0.17912 -0.06993,0.25713c-0.23578,0.45567 -0.48692,0.90322 -0.75298,1.3419c-0.06374,0.10528 -0.12825,0.2101 -0.1935,0.31444c-0.35055,0.56088 -0.72739,1.12176 -1.13052,1.68264v11.9625c0.00024,0.11768 -0.04345,0.23122 -0.12252,0.31839c-0.00294,0.00345 -0.00592,0.00687 -0.00894,0.01025c-0.08764,0.0964 -0.20157,0.1446 -0.34179,0.1446c-0.10516,0.00003 -0.20684,-0.03765 -0.28657,-0.10622c-0.01463,-0.01212 -0.02866,-0.02493 -0.04207,-0.03839c-0.03853,-0.03782 -0.07098,-0.08136 -0.09623,-0.12909c-0.0321,-0.0616 -0.0487,-0.13009 -0.04838,-0.19955zM217.70466,148.44582c0.02768,0.04884 0.06424,0.09208 0.10779,0.12751c0.01155,0.00826 0.02329,0.01624 0.03523,0.02393c0.23206,0.14916 0.44818,0.12366 0.64834,-0.07651c0.52582,-0.63099 1.09109,-1.38467 1.69578,-2.26104c0.6047,-0.87637 1.18749,-1.76151 1.74837,-2.65541c0.12705,-0.20238 0.25273,-0.40561 0.37702,-0.60969c0.19981,-0.32829 0.38359,-0.63923 0.55133,-0.93281c0.15085,-0.26326 0.29714,-0.5291 0.4388,-0.79741c0.07011,-0.12269 0.08326,-0.24977 0.03944,-0.38122c-0.02434,-0.076 -0.06996,-0.14343 -0.13146,-0.19429c-0.04332,-0.0351 -0.09219,-0.06273 -0.1446,-0.08177c-0.0228,-0.0131 -0.04653,-0.02452 -0.07099,-0.03418c-0.09903,-0.03891 -0.19806,-0.04066 -0.29709,-0.00526c-0.06122,0.02159 -0.11778,0.0546 -0.16669,0.09728c-0.04909,0.04361 -0.0905,0.09516 -0.12252,0.15249c-0.05603,0.11623 -0.11353,0.23174 -0.17247,0.34652c-0.10271,0.20016 -0.21673,0.41295 -0.34205,0.63835c-0.128,0.22982 -0.25886,0.45805 -0.39253,0.68462c-0.37684,0.63975 -0.78435,1.30141 -1.22254,1.98499c-0.43819,0.68357 -0.87637,1.32771 -1.31456,1.9324c-0.27395,0.37789 -0.53415,0.71644 -0.78059,1.01563c-0.13872,0.16897 -0.2817,0.3344 -0.42881,0.49612c-0.07011,0.08764 -0.10516,0.19718 -0.10516,0.32864c-0.00095,0.07023 0.01626,0.13951 0.04995,0.20113zM255.46147,158.35366c-0.3856,0.15775 -0.64852,0.07011 -0.78874,-0.26291c-0.01473,-0.03864 -0.02488,-0.07888 -0.03023,-0.11989c-0.01227,-0.09815 0.00657,-0.19403 0.05653,-0.28763c0.07011,-0.13146 0.17527,-0.22348 0.31549,-0.27606c0.78874,-0.24539 1.63444,-0.56964 2.5371,-0.97277c0.90267,-0.40313 1.77466,-0.84132 2.61598,-1.31456c0.67691,-0.38087 1.27442,-0.74466 1.79253,-1.09135c0.12214,-0.08166 0.24327,-0.16484 0.36334,-0.2495c0.24539,-0.1928 0.46448,-0.16651 0.65728,0.07887c0.02002,0.03312 0.03759,0.06765 0.05258,0.10332c0.08624,0.207 0.03286,0.37754 -0.16011,0.51163c-0.00788,0.00549 -0.01585,0.01084 -0.02393,0.01604c-0.5127,0.35549 -1.03753,0.69319 -1.57353,1.01247c-0.54738,0.32759 -1.1335,0.65605 -1.75836,0.98539c-0.04177,0.02206 -0.08357,0.04406 -0.12541,0.06599c-1.11233,0.58392 -2.25127,1.11567 -3.41312,1.59351c-0.17194,0.07046 -0.34441,0.13961 -0.51741,0.20744zM273.74043,157.21104c0.86097,0.4105 1.73566,0.79159 2.62255,1.14262c0.07449,0.02834 0.1535,0.04295 0.2332,0.04312c0.0659,0 0.13277,-0.00999 0.2006,-0.02997c0.01818,-0.00531 0.03608,-0.01154 0.05363,-0.01867c0.11646,-0.04544 0.20729,-0.13944 0.24871,-0.25739c0.0119,-0.02364 0.02218,-0.04806 0.03076,-0.07309c0.03874,-0.11445 0.03286,-0.22593 -0.01762,-0.33442c-0.02757,-0.06118 -0.06833,-0.11549 -0.11936,-0.15906c-0.05324,-0.04386 -0.11585,-0.07489 -0.18299,-0.0907c-0.36544,-0.11951 -0.7276,-0.24883 -1.08609,-0.3878c-0.49847,-0.19356 -0.99112,-0.40179 -1.4773,-0.62442c-0.90267,-0.4119 -1.77028,-0.85008 -2.60283,-1.31456c-0.11532,-0.06425 -0.2303,-0.1291 -0.34494,-0.19455c-0.3381,-0.19333 -0.65684,-0.3828 -0.95621,-0.56842c-0.29357,-0.18158 -0.58294,-0.36987 -0.86787,-0.56474c-0.01667,-0.01193 -0.03377,-0.02325 -0.05127,-0.03392c-0.2247,-0.13671 -0.42671,-0.09912 -0.60601,0.11279c-0.0624,0.078 -0.0936,0.16975 -0.0936,0.27527c0.00005,0.01342 0.00057,0.02684 0.00158,0.04023c0.00876,0.12269 0.06573,0.21909 0.17089,0.2892c0.41657,0.28857 0.84089,0.56578 1.27249,0.83133c0.76293,0.4684 1.54442,0.90588 2.34255,1.31141c0.40687,0.20761 0.81662,0.40955 1.22911,0.60575zM203.98486,149.23639c0.03975,0.03752 0.08327,0.07083 0.12988,0.09938c0.01284,0.00741 0.026,0.01425 0.03944,0.02051c0.0773,0.03558 0.15634,0.04724 0.23715,0.03497c0.03588,-0.00569 0.07099,-0.01548 0.10464,-0.02918c0.13146,-0.05258 0.23224,-0.14022 0.30235,-0.26291c0.04122,-0.07507 0.08188,-0.15044 0.12199,-0.2261c0.17668,-0.33267 0.35432,-0.6919 0.53292,-1.07768c0.17988,-0.38995 0.3516,-0.78362 0.51504,-1.18074c0.39437,-0.95525 0.75806,-1.91049 1.09109,-2.86574c0.20805,-0.59699 0.38534,-1.13753 0.53187,-1.62164c0.08177,-0.26868 0.15864,-0.53882 0.23057,-0.8103c0.006,-0.02702 0.01073,-0.0543 0.0142,-0.08177c0.02612,-0.20577 -0.03733,-0.35616 -0.19035,-0.45116c-0.05173,-0.03126 -0.10745,-0.0554 -0.16563,-0.07178c-0.14022,-0.03506 -0.26729,-0.02191 -0.38122,0.03944c-0.0671,0.03557 -0.12333,0.08862 -0.16274,0.15354c-0.02769,0.04623 -0.04817,0.09641 -0.06073,0.14881c-0.06573,0.29586 -0.15372,0.62932 -0.26396,1.00038c-0.07072,0.23724 -0.14487,0.47345 -0.22242,0.70855c-0.06973,0.21172 -0.14125,0.42284 -0.21454,0.63336c-0.17016,0.48853 -0.34843,0.9742 -0.53476,1.4568c-0.03495,0.09055 -0.07018,0.18099 -0.10569,0.27133c-0.23986,0.61209 -0.4939,1.21853 -0.76192,1.81883c-0.06768,0.15137 -0.13656,0.3022 -0.20665,0.45247c-0.11323,0.24258 -0.22374,0.47035 -0.33153,0.68331c-0.09736,0.19298 -0.19842,0.38406 -0.30314,0.57315c-0.00783,0.0139 -0.01529,0.02802 -0.02235,0.04233c-0.10429,0.21173 -0.07879,0.39235 0.07651,0.54186z"/></g></g></svg>