<svg version="1.1" xmlns="http://www.w3.org/2000/svg" xmlns:xlink="http://www.w3.org/1999/xlink" width="188.26412" height="59.2345" viewBox="0,0,188.26412,59.2345"><g transform="translate(-145.38761,-133.98161)"><g data-paper-data="{&quot;isPaintingLayer&quot;:true}" fill="#000000" fill-rule="evenodd" stroke="#000000" stroke-width="2" stroke-linecap="round" stroke-linejoin="miter" stroke-miterlimit="10" stroke-dasharray="" stroke-dashoffset="0" style="mix-blend-mode: normal"><path d="M188.1853,174.92373c-0.69063,-0.35683 -1.48486,-0.53524 -2.38269,-0.53524c-1.24314,0 -2.35967,0.37409 -3.34957,1.12228c-0.5334,0.40519 -1.00005,0.89142 -1.38299,1.44101c-0.36386,0.52419 -0.66464,1.08947 -0.8961,1.68411c-0.0665,0.1725 -0.12913,0.34647 -0.18785,0.52177c-0.31263,0.93535 -0.46468,1.78932 -0.45616,2.56191c0.00224,0.27438 0.02707,0.5481 0.07424,0.8184c0.03863,0.22116 0.09181,0.43953 0.15919,0.65368c0.22561,0.75556 0.68339,1.42091 1.30841,1.90166c0.45169,0.34393 0.96828,0.59295 1.5187,0.73207c0.45177,0.11359 0.91614,0.16928 1.38196,0.16575c0.03833,0.00003 0.07666,-0.0002 0.11499,-0.00069c0.57254,-0.00783 1.09834,-0.07286 1.57741,-0.1951c0.92214,-0.21559 1.74739,-0.72939 2.34781,-1.46173c0.26958,0.86329 0.97494,1.38932 2.1161,1.5781c0.35085,0.05532 0.70564,0.08188 1.06081,0.07942c0.75164,0 1.44354,-0.07689 2.0757,-0.23067c1.14176,-0.2555 2.17726,-0.85613 2.96593,-1.72037c0.69655,-0.77134 1.20044,-1.69674 1.47036,-2.70038c0.19939,-0.74661 0.29719,-1.5167 0.29076,-2.28945c0,-1.58846 -0.31079,-3.07908 -0.93236,-4.47185c-0.62157,-1.39278 -1.47911,-2.62441 -2.57261,-3.69489c-1.0935,-1.07048 -2.34815,-1.905 -3.76395,-2.50355c-1.4158,-0.59855 -2.91793,-0.89782 -4.50639,-0.89782c-0.32044,-0.00015 -0.64082,0.00953 -0.96067,0.02901c-1.46653,0.08088 -2.90961,0.40361 -4.27088,0.95515c-1.59997,0.6561 -2.9985,1.57119 -4.1956,2.74527c-1.1971,1.17408 -2.1237,2.55534 -2.7798,4.1438c-0.19532,0.47318 -0.3615,0.95788 -0.4976,1.45137c-0.32972,1.21514 -0.49339,2.46933 -0.48655,3.72839c-0.00271,0.78173 0.05885,1.56236 0.18405,2.334c0.22537,1.44704 0.74443,2.83267 1.52526,4.07163c1.13955,1.78414 2.69347,3.15965 4.66178,4.12654c0.90451,0.44267 1.85535,0.78363 2.83505,1.01661c1.26072,0.29556 2.55195,0.44114 3.84683,0.43372c0.10763,-0.00001 0.21526,-0.00116 0.32287,-0.00345c1.52949,-0.02332 3.04371,-0.30829 4.47703,-0.84257c1.49637,-0.56402 2.80858,-1.37551 3.93661,-2.43448c0.03932,-0.03896 0.076,-0.08049 0.10981,-0.12431c0.17381,-0.22768 0.1867,-0.44339 0.03868,-0.64712c-0.03375,-0.04577 -0.07191,-0.0881 -0.11395,-0.12639c-0.00802,-0.00867 -0.01619,-0.01718 -0.02452,-0.02555c-0.27027,-0.27211 -0.57288,-0.24057 -0.90784,0.09462c-1.01293,0.92085 -2.18701,1.64026 -3.52223,2.15823c-1.33523,0.51798 -2.77405,0.77696 -4.31646,0.77696c-0.77073,0.00196 -1.54063,-0.05055 -2.30395,-0.15712c-1.3466,-0.18176 -2.65551,-0.57753 -3.87722,-1.17235c-1.79565,-0.88631 -3.19418,-2.14096 -4.1956,-3.76395c-0.52099,-0.84767 -0.9088,-1.77028 -1.14991,-2.7356c-0.2406,-0.97467 -0.35892,-1.97549 -0.35222,-2.97939c-0.0005,-0.43707 0.01955,-0.87391 0.06009,-1.3091c0.10663,-1.21503 0.40693,-2.40518 0.88954,-3.52534c0.63308,-1.45033 1.50213,-2.69923 2.60714,-3.74669c1.10501,-1.04746 2.38269,-1.8532 3.83302,-2.41722c1.45033,-0.56402 2.99275,-0.84603 4.62725,-0.84603c1.38127,0 2.70498,0.26474 3.97114,0.79423c1.26616,0.52949 2.3942,1.26616 3.38411,2.21003c0.98991,0.94387 1.77263,2.04312 2.34815,3.29778c0.57553,1.25465 0.86329,2.60714 0.86329,4.05747c0,0.70491 -0.07539,1.3495 -0.22618,1.93377c-0.20666,0.85546 -0.6348,1.64148 -1.24141,2.27909c-0.11241,0.11646 -0.2309,0.22688 -0.35499,0.33081c-0.94663,0.79239 -2.20381,1.18858 -3.77155,1.18858c-0.64758,0 -1.13575,-0.07114 -1.46449,-0.21341c-0.12377,-0.05006 -0.23634,-0.12424 -0.33116,-0.21824c-0.0351,-0.03668 -0.06623,-0.07696 -0.09289,-0.12017c-0.18831,-0.30342 -0.19188,-0.78709 -0.0107,-1.45102l1.93377,-7.28619c0.00528,-0.01786 0.01023,-0.03582 0.01485,-0.05387c0.05364,-0.20535 0.04869,-0.37156 -0.01485,-0.49864c-0.04619,-0.09663 -0.1339,-0.16693 -0.23827,-0.19096c-0.04633,-0.0113 -0.09389,-0.01675 -0.14158,-0.01623c-0.41438,0 -0.66761,0.19568 -0.7597,0.58704l-0.31079,1.10501c-0.36834,-0.64459 -0.89782,-1.1453 -1.58846,-1.50213zM205.95186,191.7752c-1.34674,-0.47193 -2.52657,-1.17983 -3.5395,-2.1237c-0.30434,-0.30411 -0.33173,-0.58773 -0.08219,-0.85086c0.01536,-0.01618 0.03125,-0.03184 0.04765,-0.04696c0.23804,-0.23804 0.49311,-0.25381 0.76522,-0.04731c0.0468,0.03573 0.0911,0.07461 0.1326,0.11637c1.84169,1.65752 4.21287,2.48628 7.11353,2.48628c1.08199,0 2.14672,-0.17841 3.19418,-0.53524c0.59495,-0.19823 1.15786,-0.48207 1.67099,-0.84257c0.33481,-0.23769 0.6429,-0.51093 0.91889,-0.81495c0.53916,-0.59765 0.87921,-1.34811 0.9731,-2.14753c0.0308,-0.2325 0.04602,-0.4668 0.04558,-0.70134c0,-0.96689 -0.19568,-1.81867 -0.58704,-2.55534c-0.39136,-0.73668 -1.13379,-1.37551 -2.22729,-1.91651c-0.98784,-0.48874 -2.39362,-0.88827 -4.21736,-1.19859c-0.19965,-0.03386 -0.3996,-0.06598 -0.59982,-0.09634c-0.94118,-0.14571 -1.86437,-0.39029 -2.75425,-0.72965c-2.76806,-1.09028 -4.15209,-3.04558 -4.15209,-5.8659c-0.00526,-0.66751 0.0933,-1.33177 0.29214,-1.969c0.15547,-0.48791 0.37666,-0.95237 0.65748,-1.38058c0.60189,-0.91405 1.42948,-1.65731 2.40271,-2.15789c0.06761,-0.03568 0.13576,-0.07033 0.20443,-0.10394c0.71825,-0.3467 1.48514,-0.58192 2.27426,-0.69754c0.51594,-0.07755 1.03703,-0.11564 1.55876,-0.11395c2.0639,0.00716 4.08765,0.57095 5.85796,1.63197c0.31056,0.1812 0.6142,0.37402 0.91026,0.57806c0.3909,0.29881 0.4717,0.59774 0.24241,0.89679c-0.00023,0.00035 -0.00046,0.00069 -0.00069,0.00104c-0.20765,0.26981 -0.4808,0.32437 -0.81944,0.16368c-0.03851,-0.01835 -0.07618,-0.0384 -0.11292,-0.06009c-0.98661,-0.70162 -2.08018,-1.23908 -3.23838,-1.59157c-0.92147,-0.27395 -1.87787,-0.41249 -2.8392,-0.41127c-1.74961,0 -3.21145,0.44891 -4.38552,1.34674c-1.17408,0.89782 -1.76112,2.18701 -1.76112,3.86755c-0.00442,0.50557 0.05428,1.00972 0.17473,1.50075c0.19462,0.81049 0.62676,1.54443 1.24107,2.10781c0.38693,0.34579 0.82137,0.63441 1.2901,0.85708c0.43487,0.21272 0.92591,0.39746 1.47312,0.55423c0.55589,0.15626 1.12071,0.27884 1.69136,0.36707c0.79952,0.12864 1.59311,0.29178 2.37854,0.48897c1.53505,0.39113 2.7615,0.87918 3.67935,1.46414c0.19191,0.12165 0.37715,0.25352 0.55492,0.39504c0.98435,0.78911 1.64402,1.91276 1.85332,3.15689c0.09052,0.48483 0.1348,0.97716 0.13226,1.47036c0.0055,0.62434 -0.09072,1.24541 -0.28489,1.83881c-0.18086,0.53981 -0.45237,1.04487 -0.80286,1.4935c-0.60485,0.77044 -1.37172,1.39843 -2.24629,1.8395c-0.21361,0.11001 -0.43194,0.2106 -0.65438,0.30146c-1.20861,0.49495 -2.53808,0.74243 -3.98841,0.74243c-0.91601,0.00373 -1.83028,-0.07987 -2.73042,-0.24966c-0.57942,-0.11074 -1.14992,-0.2639 -1.7069,-0.45824zM262.14251,192.1029c0.44385,-0.00737 0.66577,-0.21444 0.66577,-0.62123c0.00016,-0.04557 -0.00342,-0.09107 -0.0107,-0.13605c-0.04973,-0.30066 -0.27637,-0.45098 -0.67993,-0.45098h-12.98391l13.43283,-21.40965c0.02215,-0.04123 0.04322,-0.08302 0.06319,-0.12535c0.11902,-0.25139 0.17853,-0.48586 0.17853,-0.70341v-0.13813c0.00016,-0.04557 -0.00342,-0.09107 -0.0107,-0.13605c-0.04973,-0.30066 -0.27637,-0.45098 -0.67993,-0.45098h-13.22564c-0.02683,-0.00004 -0.05366,0.00065 -0.08046,0.00207c-0.40678,0.0221 -0.61017,0.21709 -0.61017,0.58497c-0.00028,0.04556 0.00319,0.09106 0.01036,0.13605c0.04996,0.30066 0.27671,0.45098 0.68027,0.45098h12.50047l-13.43283,21.40965c-0.02227,0.04122 -0.04346,0.08302 -0.06354,0.12535c-0.11879,0.25139 -0.17818,0.48586 -0.17818,0.70341v0.13813c0,0.41438 0.23021,0.62157 0.69063,0.62157h13.70908c0.00829,-0.00005 0.01658,-0.00016 0.02486,-0.00035zM266.78564,191.92058c0.06002,-0.06693 0.105,-0.14593 0.13191,-0.23171l3.21145,-7.87322h11.56812l3.17692,7.87322c0.06699,0.20097 0.19487,0.32886 0.38365,0.38365c0.07746,0.0214 0.15756,0.03174 0.23792,0.03073h0.20719c0.39136,0 0.50646,-0.2187 0.34532,-0.6561l-9.46168,-23.1017c-0.06699,-0.20097 -0.19499,-0.32886 -0.38399,-0.38365c-0.07735,-0.02137 -0.15733,-0.03171 -0.23758,-0.03073h-0.13813c-0.0338,-0.00011 -0.06759,0.00173 -0.10118,0.00553c-0.15631,0.01819 -0.28351,0.08011 -0.38158,0.18578c-0.05911,0.06556 -0.10611,0.14109 -0.13882,0.22307l-9.46168,23.1017c-0.00046,0.00127 -0.00092,0.00253 -0.00138,0.0038c-0.15908,0.43487 -0.032,0.6523 0.38123,0.6523h0.17266c0.21387,0 0.37709,-0.06089 0.48966,-0.18267zM227.5169,190.92917c-1.49663,-0.9553 -2.71996,-2.28238 -3.55055,-3.85166c-0.09241,-0.17011 -0.18084,-0.34235 -0.2652,-0.51659c-0.55552,-1.16409 -0.93914,-2.40264 -1.13886,-3.67693c-0.15358,-0.95941 -0.22888,-1.92973 -0.22515,-2.90135c-0.0056,-1.09487 0.0914,-2.18785 0.28972,-3.26463c0.20941,-1.14181 0.57071,-2.25045 1.07428,-3.29639c0.56051,-1.17338 1.32534,-2.23766 2.25872,-3.14307c0.47792,-0.45807 0.99941,-0.86841 1.55703,-1.22518c1.33057,-0.84435 2.84265,-1.36061 4.41177,-1.50627c0.42725,-0.04373 0.85648,-0.0654 1.28596,-0.06492c2.16399,0 4.06323,0.52373 5.69773,1.57119c1.54304,0.99527 2.79679,2.37932 3.63515,4.01293c0.06208,0.11748 0.12229,0.23594 0.1806,0.35533c0.55227,1.15071 0.93438,2.37557 1.13437,3.63619c0.1567,0.96699 0.23351,1.94524 0.22964,2.92483c0.00572,1.11316 -0.09453,2.22433 -0.29939,3.3185c-0.21085,1.12846 -0.56877,2.2244 -1.06461,3.25979c-0.52964,1.11545 -1.24443,2.13311 -2.11403,3.00978c-0.51587,0.51368 -1.08652,0.96923 -1.70172,1.35848c-1.30534,0.81921 -2.78238,1.32562 -4.31577,1.47968c-0.45894,0.05012 -0.92029,0.07491 -1.38196,0.07424c-1.07495,0.00784 -2.14567,-0.13548 -3.18071,-0.42578c-0.88865,-0.25373 -1.73629,-0.63365 -2.51701,-1.12815zM232.52468,191.28796c-1.52119,-0.07768 -2.99904,-0.5333 -4.29989,-1.32567c-1.46184,-0.89782 -2.6129,-2.19276 -3.45317,-3.88481c-0.84027,-1.69205 -1.26041,-3.72367 -1.26041,-6.09484c-0.00001,-0.1036 0.00079,-0.2072 0.00242,-0.31079c0.01565,-0.99428 0.10716,-1.92629 0.27453,-2.79603c0.19024,-1.03062 0.52115,-2.03021 0.98346,-2.97076c0.12891,-0.25832 0.26783,-0.51151 0.41645,-0.75901c0.74465,-1.26751 1.78695,-2.33447 3.03672,-3.10854c0.59079,-0.36331 1.22221,-0.65595 1.88129,-0.87193c1.00433,-0.3226 2.0537,-0.48288 3.10854,-0.47481c0.23003,-0.00008 0.46,0.00695 0.6896,0.02106c1.52131,0.07762 2.99928,0.53325 4.30023,1.32567c0.61978,0.38022 1.1892,0.83698 1.69482,1.35951c0.70778,0.73996 1.29526,1.58623 1.74109,2.50804c0.82876,1.68054 1.24314,3.7064 1.24314,6.07758c0,0.10348 -0.00081,0.20697 -0.00242,0.31044c-0.01565,0.99474 -0.1059,1.92813 -0.27073,2.80017c-0.18782,1.0338 -0.51409,2.03757 -0.97,2.98423c-0.12722,0.26004 -0.26465,0.51497 -0.41196,0.76419c-0.735,1.27383 -1.77387,2.34592 -3.02394,3.12063c-0.5909,0.36333 -1.22244,0.65598 -1.88163,0.87193c-1.00422,0.32256 -2.05347,0.48285 -3.1082,0.47481c-0.23014,0.00009 -0.46023,-0.00694 -0.68994,-0.02106zM290.29758,191.49273c0.02187,0.40701 0.21686,0.61052 0.58497,0.61052c0.04545,0.00014 0.09084,-0.00344 0.13571,-0.0107c0.30089,-0.04973 0.45133,-0.27637 0.45133,-0.67993v-22.79091c-0.00008,-0.02684 -0.00088,-0.05367 -0.00242,-0.08046c-0.02187,-0.40678 -0.21674,-0.61017 -0.58462,-0.61017c-0.04556,-0.00028 -0.09106,0.00319 -0.13605,0.01036c-0.30066,0.04996 -0.45098,0.27671 -0.45098,0.68027v22.79091c-0.00003,0.02672 0.00066,0.05343 0.00207,0.08011zM281.21367,182.64157h-10.63576l5.35241,-13.08751zM188.16769,182.22891c-0.28684,0.65817 -0.64931,1.16982 -1.0874,1.53493c-0.08922,0.07437 -0.18113,0.14543 -0.27556,0.21306c-0.38568,0.28036 -0.81872,0.48893 -1.27836,0.6157c-0.23232,0.06338 -0.46781,0.11456 -0.70548,0.15332c-0.28047,0.04628 -0.56419,0.07007 -0.84844,0.07114c-0.05491,-0.00005 -0.10982,-0.00085 -0.16472,-0.00242c-1.4257,-0.03937 -2.34919,-0.59682 -2.77048,-1.67237c-0.33519,-0.85547 -0.35959,-1.85619 -0.07321,-3.00218c0.09403,-0.37009 0.21074,-0.73405 0.34946,-1.08982c0.11783,-0.31014 0.25794,-0.61135 0.41921,-0.90128c0.3476,-0.63526 0.82197,-1.19237 1.3937,-1.6368c0.79423,-0.61006 1.6863,-0.91509 2.67621,-0.91509c0.15114,-0.00015 0.3022,0.00665 0.45271,0.02037c0.67943,0.05441 1.33284,0.28546 1.89544,0.67026c0.0615,0.04236 0.12162,0.0867 0.18026,0.13295c0.53578,0.40311 0.8925,0.99991 0.99382,1.6627l-1.07048,3.93661c-0.02764,0.07015 -0.05654,0.1398 -0.08667,0.20892zM306.80165,183.66025c0.00396,-0.00445 0.00788,-0.00893 0.01174,-0.01347c0.10385,-0.11449 0.16123,-0.26361 0.16092,-0.41818c0,-0.33841 -0.12397,-0.54595 -0.37191,-0.62261c-0.08108,-0.02356 -0.16524,-0.03485 -0.24966,-0.0335h-8.87464c-0.0566,-0.00033 -0.11311,0.00441 -0.16886,0.01416c-0.22469,0.04052 -0.36581,0.16944 -0.42336,0.38675c-0.02071,0.08345 -0.03057,0.16922 -0.02935,0.25519c-0.00053,0.0912 0.02116,0.18116 0.06319,0.2621c0.03326,0.06271 0.07601,0.1199 0.12673,0.16955c0.01749,0.01767 0.03581,0.03449 0.05491,0.05042c0.10482,0.09013 0.2385,0.13963 0.37674,0.13951h8.87464c0.18417,0 0.33381,-0.06331 0.44891,-0.18992z"/><path d="M293.33926,159.65304c0.02607,0.04929 0.05959,0.09426 0.09938,0.13333c0.01384,0.0139 0.02834,0.02713 0.04345,0.03964c0.08235,0.07081 0.18737,0.10974 0.29598,0.1097c0.14482,0 0.26249,-0.04978 0.353,-0.14935c0.00321,-0.00349 0.00638,-0.00702 0.0095,-0.01059c0.08156,-0.09007 0.12659,-0.20732 0.12627,-0.32883v-7.30436c1.61112,-0.07241 3.16341,-0.14482 4.65687,-0.21723c1.49346,-0.07241 2.76516,-0.14482 3.8151,-0.21723l0.81461,0.92323c0.06716,0.07608 0.13396,0.15247 0.20039,0.22918c0.19009,0.21938 0.37675,0.4417 0.55991,0.6669c0.19822,0.19822 0.39654,0.23588 0.59494,0.11296c0.03965,-0.02502 0.07684,-0.05375 0.11106,-0.08581c0.02709,-0.02304 0.05275,-0.0477 0.07685,-0.07386c0.1488,-0.16292 0.16772,-0.33082 0.05675,-0.5037c-0.02343,-0.036 -0.04996,-0.06989 -0.07929,-0.10128c-0.08071,-0.09105 -0.16172,-0.18184 -0.24303,-0.27235c-0.24909,-0.27751 -0.51665,-0.57032 -0.80267,-0.87842c-0.31436,-0.33818 -0.63107,-0.67417 -0.95011,-1.00795c-0.32532,-0.34111 -0.65766,-0.67544 -0.99681,-1.00279c-0.40262,-0.3891 -0.81728,-0.76554 -1.24337,-1.12878c-0.01457,-0.01127 -0.02951,-0.02204 -0.0448,-0.03231c-0.21814,-0.14554 -0.42043,-0.11658 -0.60689,0.08689c-0.04645,0.03594 -0.08321,0.08288 -0.10699,0.13658c-0.01966,0.04692 -0.02946,0.09739 -0.02878,0.14826c-0.0004,0.0635 0.01392,0.12624 0.04182,0.18329c0.02396,0.0479 0.0557,0.09149 0.09395,0.12898c0.28964,0.23533 0.58833,0.49782 0.89607,0.78746c0.30774,0.28964 0.60643,0.58833 0.89607,0.89607c-0.60082,0.04073 -1.2517,0.08001 -1.95263,0.11785c-0.57545,0.03097 -1.15102,0.05957 -1.72671,0.08581c-0.17387,0.00798 -0.34774,0.01586 -0.52162,0.02362c-1.26054,0.05596 -2.5213,0.10692 -3.78225,0.15288c0.21988,-0.18326 0.4383,-0.36827 0.65522,-0.55502c0.6817,-0.58777 1.35048,-1.19037 2.00585,-1.80736c0.90513,-0.85082 1.66543,-1.61112 2.28092,-2.28092c0.05767,-0.05788 0.09834,-0.13049 0.11758,-0.2099c0.01256,-0.05126 0.01867,-0.1039 0.01819,-0.15668c-0.00001,-0.00552 -0.0001,-0.01104 -0.00027,-0.01656c-0.00434,-0.14609 -0.06761,-0.26276 -0.1898,-0.35001c-0.09305,-0.09305 -0.20275,-0.13957 -0.3291,-0.13957c-0.0216,0 -0.04318,0.00127 -0.06463,0.0038c-0.078,0.00876 -0.15339,0.03334 -0.22157,0.07223c-0.0653,0.03806 -0.12354,0.08712 -0.17215,0.145c-0.09276,0.11038 -0.18654,0.2199 -0.28131,0.32856c-0.32204,0.36929 -0.69441,0.77569 -1.11711,1.2192c-0.55213,0.57928 -1.12236,1.15856 -1.71069,1.73784c-0.58833,0.57928 -1.15404,1.10425 -1.69711,1.57492c-0.15629,-0.13967 -0.31545,-0.2761 -0.47736,-0.40921c-0.22599,-0.18555 -0.45613,-0.36599 -0.69025,-0.54117c-0.43446,-0.32585 -0.87797,-0.66074 -1.33053,-1.00469c0.0649,-0.07009 0.12934,-0.14061 0.19333,-0.21153c0.3988,-0.44188 0.82765,-0.95065 1.28655,-1.52631c0.30032,-0.37671 0.57349,-0.73342 0.8195,-1.07013c0.1802,-0.24595 0.35511,-0.49573 0.52461,-0.74917h11.92051c0.23932,0 0.38558,-0.09296 0.4388,-0.27887c0.01605,-0.05956 0.02373,-0.12107 0.02281,-0.18274c0,-0.12672 -0.04073,-0.23533 -0.12219,-0.32585c-0.05204,-0.05785 -0.12008,-0.09896 -0.19551,-0.11812c-0.047,-0.01212 -0.09538,-0.01805 -0.14391,-0.01765h-11.26882v-2.36238h8.52628c0.03642,0.0002 0.07278,-0.00298 0.10862,-0.0095c0.08897,-0.01488 0.1703,-0.05937 0.23081,-0.12627c0.08146,-0.09051 0.12219,-0.19913 0.12219,-0.32585c0,-0.23913 -0.09296,-0.3854 -0.27887,-0.4388c-0.05956,-0.01605 -0.12107,-0.02373 -0.18274,-0.02281h-8.52628v-2.36238h9.99259c0.04251,0.00024 0.08496,-0.0034 0.12681,-0.01086c0.16618,-0.03059 0.27045,-0.12663 0.31281,-0.2881c0.01542,-0.06207 0.02281,-0.12586 0.02199,-0.1898c0,-0.12672 -0.04073,-0.23533 -0.12219,-0.32585c-0.05204,-0.05785 -0.12008,-0.09896 -0.19551,-0.11812c-0.047,-0.01212 -0.09538,-0.01805 -0.14391,-0.01765h-9.99259v-2.44384c0.00035,-0.06065 -0.0108,-0.12082 -0.03286,-0.17731c-0.02411,-0.05987 -0.05899,-0.11481 -0.10291,-0.16211c-0.04927,-0.05515 -0.11166,-0.09699 -0.18139,-0.12165c-0.05521,-0.01892 -0.11325,-0.02828 -0.17161,-0.0277c-0.07174,-0.00034 -0.14248,0.01681 -0.2061,0.04996c-0.04929,0.02607 -0.09426,0.05959 -0.13333,0.09938c-0.0139,0.01384 -0.02713,0.02834 -0.03964,0.04345c-0.07081,0.08235 -0.10974,0.18737 -0.1097,0.29598v2.44384h-9.93828c-0.00199,-0.00001 -0.00398,-0.00001 -0.00597,0c-0.12064,-0.00008 -0.23612,0.04893 -0.31987,0.13577c-0.00137,0.00144 -0.00272,0.00289 -0.00407,0.00434c-0.08578,0.08481 -0.13333,0.20089 -0.1317,0.3215c-0.00064,0.05983 0.00574,0.11952 0.01901,0.17786c0.0496,0.20727 0.19714,0.31091 0.44261,0.31091h9.93828v2.36238h-8.39052c-0.05983,-0.00064 -0.11952,0.00574 -0.17786,0.01901c-0.20727,0.0496 -0.31091,0.19714 -0.31091,0.44261c0,0.12672 0.04978,0.23533 0.14935,0.32585c0.00349,0.00321 0.00702,0.00638 0.01059,0.0095c0.09007,0.08156 0.20732,0.12659 0.32883,0.12627h8.39052v2.36238h-11.21451c-0.00199,-0.00001 -0.00398,-0.00001 -0.00597,0c-0.12064,-0.00008 -0.23612,0.04893 -0.31987,0.13577c-0.00137,0.00144 -0.00272,0.00289 -0.00407,0.00434c-0.08578,0.08481 -0.13333,0.20089 -0.1317,0.3215c0,0.23932 0.09296,0.38558 0.27887,0.4388c0.05956,0.01605 0.12107,0.02373 0.18274,0.02281h10.34559c-0.0752,0.11055 -0.15151,0.22035 -0.22891,0.32938c-0.13432,0.18917 -0.28041,0.38875 -0.43826,0.59874c-0.1601,0.21275 -0.32239,0.42384 -0.48687,0.63323c-0.46161,0.58833 -0.8644,1.07257 -1.20834,1.45273c-0.34395,-0.27154 -0.69695,-0.5295 -1.059,-0.77388c-0.36205,-0.24438 -0.706,-0.48424 -1.03184,-0.71957c-0.23316,-0.13106 -0.437,-0.12726 -0.6115,0.0114c-0.04525,0.03658 -0.08607,0.07832 -0.12165,0.12436c-0.01856,0.02587 -0.035,0.05321 -0.04915,0.08173c-0.03186,0.06445 -0.04779,0.13007 -0.04779,0.19686c0.00012,0.03889 0.00532,0.07759 0.01548,0.11513c0.03621,0.13577 0.10862,0.23986 0.21723,0.31227c0.10664,0.06505 0.21281,0.13086 0.31851,0.19741c0.65966,0.41509 1.3862,0.91047 2.17963,1.48613c0.92323,0.66979 1.79215,1.32148 2.60676,1.95507c-1.86456,0.05431 -3.64313,0.09956 -5.33572,0.13577c-1.69259,0.03621 -3.10006,0.05431 -4.22241,0.05431c-0.12672,0 -0.23986,0.03621 -0.33942,0.10862c-0.04128,0.03024 -0.07464,0.07002 -0.09721,0.11595c-0.03476,0.06915 -0.05214,0.15722 -0.05214,0.26421c0.00002,0.01777 0.00093,0.03554 0.00272,0.05322c0.00895,0.11425 0.0675,0.21884 0.16021,0.2862c0.00714,0.00539 0.01438,0.01064 0.02172,0.01575c0.09666,0.0691 0.21246,0.10631 0.33128,0.10644c0.81461,-0.02263 1.7335,-0.04879 2.75665,-0.07847c0.65151,-0.01893 1.30302,-0.03802 1.95453,-0.05729c1.8374,-0.05431 3.71554,-0.11767 5.63441,-0.19008v7.27721c-0.00034,0.07174 0.01681,0.14248 0.04996,0.2061zM160.88234,148.95038c-0.25592,1.23684 -0.69823,2.42763 -1.3118,3.53162c-0.58581,1.03564 -1.34628,1.9622 -2.24779,2.73873c-0.89913,0.76744 -1.90214,1.40406 -2.97931,1.89099c-0.01274,0.00714 -0.02533,0.01457 -0.03774,0.02227c-0.22393,0.13939 -0.30566,0.32213 -0.2452,0.54823c0.01012,0.03703 0.02301,0.07325 0.03856,0.10834c0.00252,0.00593 0.00515,0.01181 0.00787,0.01765c0.05075,0.11321 0.14625,0.20025 0.26366,0.24031c0.00226,0.00083 0.00452,0.00165 0.00679,0.00244c0.12454,0.04236 0.249,0.02797 0.37336,-0.04317c3.38441,-1.46688 5.90741,-4.40714 6.84329,-7.97506c0.43282,-1.62311 0.64275,-3.29757 0.62399,-4.97729v-0.706h6.57121c0.14482,0 0.26249,-0.04978 0.353,-0.14935c0.00321,-0.00349 0.00638,-0.00702 0.0095,-0.01059c0.08156,-0.09007 0.12659,-0.20732 0.12627,-0.32883c0.0001,-0.02623 -0.00144,-0.05244 -0.00462,-0.07847c-0.0111,-0.1038 -0.05738,-0.20067 -0.13115,-0.27452c-0.05275,-0.05309 -0.11803,-0.09204 -0.1898,-0.11323c-0.05301,-0.01543 -0.10799,-0.02302 -0.16319,-0.02254h-6.57121c-0.0181,-1.01374 -0.03621,-2.04106 -0.05431,-3.08195c-0.00085,-0.05141 -0.00176,-0.10282 -0.00272,-0.15423c-0.01901,-0.97229 -0.05431,-1.78527 -0.1059,-2.43895c-0.00405,-0.03279 -0.01031,-0.06527 -0.01874,-0.09721c-0.02425,-0.09665 -0.07406,-0.185 -0.14419,-0.25579c-0.09051,-0.09051 -0.20818,-0.12672 -0.353,-0.10862c-0.06185,0.00877 -0.12179,0.02787 -0.17731,0.05648c-0.05996,0.03131 -0.11466,0.07181 -0.16211,0.12002c-0.00064,0.00063 -0.00127,0.00127 -0.0019,0.0019c-0.09812,0.0992 -0.13821,0.22076 -0.12029,0.36468c0.01797,0.23553 0.03363,0.47124 0.04698,0.70708c0.0315,0.5514 0.05657,1.17558 0.07522,1.87252c0.02715,1.01374 0.04978,2.01843 0.06788,3.01407h-6.62552c-0.00893,-0.22857 -0.01853,-0.45712 -0.02878,-0.68563c-0.02948,-0.6588 -0.06515,-1.31731 -0.10699,-1.97544c-0.0036,-0.05612 -0.00732,-0.11224 -0.01113,-0.16835c-0.02625,-0.38993 -0.05648,-0.76021 -0.09069,-1.11086c-0.03227,-0.33459 -0.07075,-0.66854 -0.1154,-1.0017c-0.00115,-0.00926 -0.00251,-0.0185 -0.00407,-0.0277c-0.01813,-0.12449 -0.08506,-0.23665 -0.186,-0.31173c-0.07219,-0.05534 -0.16076,-0.08506 -0.25172,-0.08445c-0.04109,0 -0.08391,0.00552 -0.12844,0.01656c-0.06412,0.00872 -0.12561,0.03113 -0.1803,0.06571c-0.05118,0.0331 -0.09589,0.07524 -0.13197,0.12436c-0.06607,0.0871 -0.10123,0.19372 -0.09993,0.30304c0,0.02516 0.00163,0.05087 0.00489,0.07712c0.00027,0.00163 0.00054,0.00326 0.00081,0.00489c0.06752,0.41998 0.13007,0.91563 0.18763,1.48694c0.01999,0.19954 0.03864,0.39922 0.05594,0.59901c0.07241,0.83272 0.11767,1.72879 0.13577,2.68822h-6.89706c-0.06065,-0.00035 -0.12082,0.0108 -0.17731,0.03286c-0.05987,0.02411 -0.11481,0.05899 -0.16211,0.10291c-0.05515,0.04927 -0.09699,0.11166 -0.12165,0.18139c-0.01892,0.05521 -0.02828,0.11325 -0.0277,0.17161c-0.00034,0.07174 0.01681,0.14248 0.04996,0.2061c0.02607,0.04929 0.05959,0.09426 0.09938,0.13333c0.01384,0.0139 0.02834,0.02713 0.04345,0.03964c0.08235,0.07081 0.18737,0.10974 0.29598,0.1097h6.95137c0.0181,0.90513 0.02715,1.79215 0.02715,2.66107c0,0.1202 -0.00036,0.2404 -0.00109,0.3606c-0.00217,0.35481 -0.00751,0.69188 -0.01602,1.01121c-0.00818,0.31224 -0.02058,0.62436 -0.0372,0.93626c-0.0181,0.12672 0.02263,0.24438 0.12219,0.353c0.02386,0.02623 0.04963,0.05064 0.07712,0.07304c0.07503,0.06236 0.16578,0.10285 0.26231,0.11703c0.14482,0 0.26701,-0.04526 0.36658,-0.13577c0.00544,-0.00487 0.01078,-0.00985 0.01602,-0.01493c0.08594,-0.08045 0.13429,-0.1932 0.13333,-0.31091c0.03621,-0.706 0.04978,-1.49798 0.04073,-2.37596c-0.00905,-0.87797 -0.03168,-1.76952 -0.06788,-2.67465h6.59837v0.706c0,1.4062 -0.12844,2.70452 -0.38531,3.89494zM314.57351,159.3815c0.02607,0.04929 0.05959,0.09426 0.09938,0.13333c0.01384,0.0139 0.02834,0.02713 0.04345,0.03964c0.08235,0.07081 0.18737,0.10974 0.29598,0.1097c0.14482,0 0.26249,-0.04978 0.353,-0.14935c0.00321,-0.00349 0.00638,-0.00702 0.0095,-0.01059c0.08156,-0.09007 0.12659,-0.20732 0.12627,-0.32883v-13.00666c0.38015,0.50687 0.80104,1.04542 1.26265,1.61565c0.46161,0.57023 0.9187,1.10878 1.37127,1.61565c0.28294,0.31679 0.54108,0.60182 0.77443,0.85507c0.13011,0.14127 0.26117,0.28166 0.39319,0.42116c0.00349,0.00348 0.00702,0.00692 0.01059,0.01032c0.09781,0.09827 0.23092,0.15323 0.36956,0.1526c0.07325,0.00059 0.14576,-0.0146 0.21261,-0.04453c0.06257,-0.02896 0.11934,-0.06908 0.16754,-0.11839c0.05319,-0.05272 0.09223,-0.118 0.1135,-0.1898c0.01534,-0.05302 0.02284,-0.108 0.02227,-0.16319c0.00003,-0.01332 -0.00042,-0.02663 -0.00136,-0.03992c-0.00709,-0.12253 -0.06581,-0.23631 -0.16156,-0.31308c-0.27154,-0.25344 -0.60643,-0.59738 -1.00469,-1.03184c-0.39825,-0.43446 -0.81461,-0.9006 -1.24907,-1.39842c-0.43446,-0.49782 -0.85534,-0.98659 -1.26265,-1.4663c-0.40731,-0.47972 -0.74673,-0.89155 -1.01827,-1.2355v-2.36238h4.04591c0.05424,0.00069 0.10835,-0.00551 0.16102,-0.01846c0.13106,-0.03421 0.21506,-0.11558 0.25199,-0.24411c0.01509,-0.05602 0.02231,-0.11387 0.02145,-0.17188c0,-0.12672 -0.04073,-0.23533 -0.12219,-0.32585c-0.04085,-0.04634 -0.09187,-0.08258 -0.14907,-0.1059c-0.05197,-0.02036 -0.10738,-0.0305 -0.16319,-0.02987h-4.04591v-5.72945c0.0001,-0.02623 -0.00144,-0.05244 -0.00462,-0.07847c-0.0111,-0.1038 -0.05738,-0.20067 -0.13115,-0.27452c-0.05275,-0.05309 -0.11803,-0.09204 -0.1898,-0.11323c-0.05301,-0.01543 -0.10799,-0.02302 -0.16319,-0.02254c-0.06065,-0.00035 -0.12082,0.0108 -0.17731,0.03286c-0.05987,0.02411 -0.11481,0.05899 -0.16211,0.10291c-0.05515,0.04927 -0.09699,0.11166 -0.12165,0.18139c-0.01892,0.05521 -0.02828,0.11325 -0.0277,0.17161v5.72945h-5.24068c-0.00199,-0.00001 -0.00398,-0.00001 -0.00597,0c-0.12064,-0.00008 -0.23612,0.04893 -0.31987,0.13577c-0.00137,0.00144 -0.00272,0.00289 -0.00407,0.00434c-0.08578,0.08481 -0.13333,0.20089 -0.1317,0.3215c0,0.00788 0.00018,0.01575 0.00054,0.02362c0.00287,0.11086 0.05189,0.21548 0.13523,0.28864c0.09051,0.08146 0.19913,0.12219 0.32585,0.12219h5.24068v0.24438c-0.06765,0.15751 -0.13781,0.31394 -0.21044,0.46922c-0.12454,0.26665 -0.26475,0.55041 -0.42061,0.85127c-0.16057,0.30908 -0.32586,0.61568 -0.49583,0.9197c-0.47972,0.85987 -1.00469,1.74689 -1.57492,2.66107c-0.57023,0.91418 -1.14498,1.76952 -1.72426,2.56603c-0.17229,0.23731 -0.34799,0.47213 -0.52705,0.70437c-0.3749,0.48533 -0.72419,0.90223 -1.04786,1.2507c-0.04526,0.05666 -0.07639,0.12382 -0.09341,0.20148c-0.01049,0.04981 -0.01558,0.10061 -0.01521,0.15152c-0.00002,0.02633 0.00161,0.05263 0.00489,0.07875c0.01109,0.10366 0.05727,0.20043 0.13088,0.27425c0.08605,0.07383 0.1959,0.11405 0.30928,0.11323c0.0237,-0.00007 0.04737,-0.00161 0.07087,-0.00462c0.14482,-0.0181 0.26249,-0.08146 0.353,-0.19008c0.30774,-0.35589 0.62445,-0.74619 0.95011,-1.17087c0.3025,-0.39559 0.59682,-0.79737 0.88277,-1.20508c0.64264,-0.91418 1.26265,-1.87814 1.86003,-2.89188c0.22736,-0.38543 0.44833,-0.7746 0.66282,-1.16734c0.31215,-0.57047 0.60726,-1.1501 0.88494,-1.73811v14.58158c-0.00034,0.07174 0.01681,0.14248 0.04996,0.2061zM327.99453,157.28577c-0.0351,0.14623 -0.08609,0.28819 -0.15206,0.42333c-0.01585,0.03177 -0.03307,0.06285 -0.05159,0.09314c-0.18048,0.29453 -0.48008,0.50334 -0.89879,0.62644c-0.32458,0.0954 -0.74981,0.15731 -1.27568,0.18573c-0.23984,0.01241 -0.47996,0.01839 -0.72012,0.01792c-0.06065,-0.00035 -0.12082,0.0108 -0.17731,0.03286c-0.05987,0.02411 -0.11481,0.05899 -0.16211,0.10291c-0.05515,0.04927 -0.09699,0.11166 -0.12165,0.18139c-0.01892,0.05521 -0.02828,0.11325 -0.0277,0.17161c-0.00034,0.07174 0.01681,0.14248 0.04996,0.2061c0.02607,0.04929 0.05959,0.09426 0.09938,0.13333c0.01384,0.0139 0.02834,0.02713 0.04345,0.03964c0.08235,0.07081 0.18737,0.10974 0.29598,0.1097c0.28579,0.00062 0.57151,-0.00834 0.8567,-0.02688c0.71052,-0.04797 1.2927,-0.15948 1.74653,-0.33453c0.25309,-0.09219 0.48848,-0.22711 0.69595,-0.39889c0.58833,-0.50687 0.8825,-1.36674 0.8825,-2.57961v-13.79412h4.12737c0.14482,0 0.26249,-0.04978 0.353,-0.14935c0.00321,-0.00349 0.00638,-0.00702 0.0095,-0.01059c0.08156,-0.09007 0.12659,-0.20732 0.12627,-0.32883c0.0001,-0.02623 -0.00144,-0.05244 -0.00462,-0.07847c-0.0111,-0.1038 -0.05738,-0.20067 -0.13115,-0.27452c-0.05275,-0.05309 -0.11803,-0.09204 -0.1898,-0.11323c-0.05301,-0.01543 -0.10799,-0.02302 -0.16319,-0.02254h-4.12737v-5.70229c0.0001,-0.02623 -0.00144,-0.05244 -0.00462,-0.07847c-0.0111,-0.1038 -0.05738,-0.20067 -0.13115,-0.27452c-0.05275,-0.05309 -0.11803,-0.09204 -0.1898,-0.11323c-0.05301,-0.01543 -0.10799,-0.02302 -0.16319,-0.02254c-0.06065,-0.00035 -0.12082,0.0108 -0.17731,0.03286c-0.05987,0.02411 -0.11481,0.05899 -0.16211,0.10291c-0.05515,0.04927 -0.09699,0.11166 -0.12165,0.18139c-0.01892,0.05521 -0.02828,0.11325 -0.0277,0.17161v5.70229h-5.97383c-0.06065,-0.00035 -0.12082,0.0108 -0.17731,0.03286c-0.05987,0.02411 -0.11481,0.05899 -0.16211,0.10291c-0.05515,0.04927 -0.09699,0.11166 -0.12165,0.18139c-0.01892,0.05521 -0.02828,0.11325 -0.0277,0.17161c-0.00034,0.07174 0.01681,0.14248 0.04996,0.2061c0.02607,0.04929 0.05959,0.09426 0.09938,0.13333c0.01384,0.0139 0.02834,0.02713 0.04345,0.03964c0.08235,0.07081 0.18737,0.10974 0.29598,0.1097h5.94668c-0.43446,0.90513 -0.97754,1.86456 -1.62923,2.8783c-0.65169,1.01374 -1.37579,2.0139 -2.1723,3.00049c-0.79651,0.98659 -1.6247,1.91434 -2.48457,2.78326c-0.36258,0.36723 -0.7363,0.72329 -1.12064,1.06769c-0.45456,0.40805 -0.92781,0.79477 -1.41824,1.15892c-0.06515,0.04267 -0.11678,0.10306 -0.1488,0.17406c-0.02136,0.04822 -0.03528,0.0994 -0.04127,0.15179c-0.00254,0.02027 -0.00381,0.04067 -0.0038,0.0611c0,0.11966 0.04652,0.22601 0.13957,0.31906c0.03636,0.04477 0.08156,0.08156 0.13278,0.10807c0.05594,0.02824 0.11839,0.04236 0.18736,0.04236c0.01096,-0.00002 0.02192,-0.00038 0.03286,-0.00109c0.02883,-0.00179 0.05755,-0.00496 0.08608,-0.0095c0.10505,-0.01574 0.20541,-0.0542 0.29408,-0.11269c0.26504,-0.21029 0.52586,-0.42584 0.7823,-0.64653c0.80189,-0.69238 1.56507,-1.42836 2.28608,-2.20461c0.99564,-1.06805 1.93244,-2.19493 2.81042,-3.38064c0.87797,-1.18571 1.6428,-2.3669 2.29449,-3.54357v11.94766c0,0.39427 -0.0353,0.73288 -0.1059,1.01582zM214.34486,153.9073c1.01446,-0.00471 1.88637,-0.08255 2.61572,-0.23352c0.36119,-0.0719 0.71537,-0.17539 1.05845,-0.30928c0.02993,-0.01195 0.05971,-0.02426 0.08934,-0.03693c0.83528,-0.34448 1.49091,-1.01907 1.81143,-1.86383c0.01747,-0.04356 0.03431,-0.08737 0.05051,-0.13142c0.22338,-0.60933 0.37074,-1.37425 0.44206,-2.29477c0.03487,-0.46667 0.05172,-0.93452 0.05051,-1.40249c-0.00001,-0.07187 -0.00037,-0.14374 -0.00109,-0.2156c-0.01521,-1.54342 -0.19587,-2.74778 -0.54199,-3.61308c-0.01195,-0.02993 -0.02426,-0.05971 -0.03693,-0.08934c-0.34448,-0.83528 -1.01907,-1.49091 -1.86383,-1.81143c-0.02112,-0.00848 -0.0423,-0.0168 -0.06354,-0.02498c-0.61205,-0.23479 -1.37995,-0.38984 -2.30373,-0.46514c-0.46813,-0.03662 -0.93755,-0.05428 -1.40711,-0.05295h-9.47667c-0.06065,-0.00035 -0.12082,0.0108 -0.17731,0.03286c-0.05987,0.02411 -0.11481,0.05899 -0.16211,0.10291c-0.05515,0.04927 -0.09699,0.11166 -0.12165,0.18139c-0.01892,0.05521 -0.02828,0.11325 -0.0277,0.17161c0,0.12672 0.04978,0.24438 0.14935,0.353c0.02151,0.02361 0.04484,0.04549 0.06979,0.06544c0.07581,0.06285 0.17116,0.09732 0.26964,0.09748h9.47667c0.13515,0.00002 0.27029,0.00147 0.40541,0.00434c1.23242,0.02607 2.18796,0.17396 2.86662,0.44369c0.31281,0.12084 0.60045,0.29872 0.84828,0.52461c0.31212,0.29327 0.54762,0.65855 0.6859,1.06388c0.02036,0.05708 0.03955,0.11457 0.05757,0.17243c0.15659,0.5018 0.26059,1.12616 0.312,1.87307c0.02612,0.39472 0.03871,0.79022 0.03774,1.18581c-0.00002,0.06915 -0.00038,0.13831 -0.00109,0.20745c-0.01285,1.29415 -0.14826,2.30662 -0.40622,3.03742c-0.01885,0.05348 -0.03913,0.10646 -0.06082,0.15885c-0.26601,0.66706 -0.80095,1.19105 -1.47336,1.44322c-0.06783,0.02692 -0.13637,0.052 -0.20555,0.07522c-0.73967,0.24855 -1.76183,0.37282 -3.06648,0.37282h-9.77536c-0.06065,-0.00035 -0.12082,0.0108 -0.17731,0.03286c-0.05987,0.02411 -0.11481,0.05899 -0.16211,0.10291c-0.05515,0.04927 -0.09699,0.11166 -0.12165,0.18139c-0.01892,0.05521 -0.02828,0.11325 -0.0277,0.17161c-0.00034,0.07174 0.01681,0.14248 0.04996,0.2061c0.02607,0.04929 0.05959,0.09426 0.09938,0.13333c0.01384,0.0139 0.02834,0.02713 0.04345,0.03964c0.08235,0.07081 0.18737,0.10974 0.29598,0.1097h9.77536c0.0334,-0.00001 0.0668,-0.0001 0.1002,-0.00027zM186.16332,157.69797c0.02607,0.04929 0.05959,0.09426 0.09938,0.13333c0.01384,0.0139 0.02834,0.02713 0.04345,0.03964c0.08235,0.07081 0.18737,0.10974 0.29598,0.1097c0.14482,0 0.26249,-0.04978 0.353,-0.14935c0.00321,-0.00349 0.00638,-0.00702 0.0095,-0.01059c0.08156,-0.09007 0.12659,-0.20732 0.12627,-0.32883v-14.88027c0.7422,-0.76031 1.4301,-1.51609 2.06369,-2.26734c0.23199,-0.27477 0.45948,-0.55332 0.68237,-0.83552c0.34767,-0.43961 0.68155,-0.88995 1.00116,-1.35036c0.0056,-0.00868 0.01103,-0.01746 0.01629,-0.02634c0.11712,-0.19859 0.10463,-0.38024 -0.03747,-0.54498c-0.03466,-0.03943 -0.07303,-0.07544 -0.11459,-0.10753c-0.08707,-0.07259 -0.18284,-0.10735 -0.28729,-0.10427c-0.02664,0.00084 -0.05317,0.00393 -0.07929,0.00923c-0.07313,0.01378 -0.1416,0.04581 -0.19904,0.09314c-0.04573,0.03869 -0.08409,0.08533 -0.11323,0.13767c-0.99564,1.4301 -2.22661,2.90093 -3.69291,4.41249c-1.4663,1.51156 -3.06385,2.95976 -4.79264,4.3446c-1.72879,1.38484 -3.49831,2.62034 -5.30856,3.70649c-0.05363,0.03542 -0.09999,0.08077 -0.13658,0.1336c-0.03701,0.05444 -0.0643,0.1149 -0.08065,0.17867c-0.03621,0.13577 -0.0181,0.25796 0.05431,0.36658c0.07241,0.12672 0.1765,0.20365 0.31227,0.23081c0.00686,0.00139 0.01374,0.00265 0.02064,0.0038c0.02987,0.00489 0.05901,0.00733 0.08744,0.00733c0.09217,0.00035 0.18228,-0.0272 0.2585,-0.07902c0.45426,-0.27377 0.90346,-0.55585 1.34737,-0.84611c1.19224,-0.78176 2.35076,-1.61378 3.47242,-2.4938c1.62017,-1.26718 3.13626,-2.58866 4.54826,-3.96445v13.87558c-0.00034,0.07174 0.01681,0.14248 0.04996,0.2061zM236.41599,154.86528c-0.32353,-0.04398 -0.6452,-0.10077 -0.96423,-0.17025c-0.37663,-0.08111 -0.7464,-0.19132 -1.10597,-0.32965c-0.56154,-0.21922 -1.03465,-0.49854 -1.41933,-0.83797c-0.42325,-0.37806 -0.76239,-0.84079 -0.99546,-1.35823c-0.1264,-0.27581 -0.2294,-0.56175 -0.30792,-0.8548c-0.19153,-0.70473 -0.31064,-1.53609 -0.35734,-2.49407c-0.01546,-0.32244 -0.02307,-0.64522 -0.02281,-0.96803c-0.00111,-0.48056 0.01601,-0.96098 0.05132,-1.44024c0.05883,-0.7728 0.16844,-1.45128 0.32883,-2.03545c0.10597,-0.39623 0.25913,-0.7783 0.45618,-1.13801c0.21953,-0.39972 0.5061,-0.75875 0.8472,-1.06144c0.30629,-0.26623 0.64774,-0.48907 1.01474,-0.66228c0.32639,-0.15731 0.6879,-0.29064 1.08452,-0.39998c0.14107,-0.03882 0.28314,-0.07395 0.42604,-0.10536c0.4348,-0.09376 0.87408,-0.16536 1.31614,-0.21451c0.79995,-0.09232 1.70987,-0.13848 2.72977,-0.13848c0.54956,-0.001 1.09903,0.01421 1.64769,0.04562c0.51447,0.03041 0.99247,0.07621 1.43399,0.1374c0.32353,0.04389 0.64519,0.1006 0.96423,0.16998c0.37672,0.0811 0.74658,0.19131 1.10624,0.32965c0.56136,0.21922 1.03438,0.49854 1.41906,0.83797c0.43754,0.39077 0.78585,0.87114 1.02125,1.40847c0.1144,0.25595 0.20873,0.52041 0.28213,0.79099c0.25344,0.92323 0.38015,2.08179 0.38015,3.47568c0,1.37579 -0.12672,2.52983 -0.38015,3.46211c-0.10476,0.39603 -0.25616,0.77822 -0.45102,1.13856c-0.21949,0.40499 -0.50793,0.76859 -0.85236,1.07447c-0.30629,0.26623 -0.64774,0.48907 -1.01474,0.66228c-0.32621,0.15731 -0.68771,0.29064 -1.08452,0.39998c-0.14107,0.03882 -0.28314,0.07395 -0.42604,0.10536c-0.43479,0.09386 -0.87407,0.16554 -1.31614,0.21479c-0.79995,0.09214 -1.70987,0.13821 -2.72977,0.13821c-0.54956,0.001 -1.09903,-0.01421 -1.64769,-0.04562c-0.51447,-0.03041 -0.99247,-0.07612 -1.43399,-0.13713zM237.12606,153.96975c-0.38817,-0.03607 -0.77464,-0.08853 -1.15838,-0.15722c-0.13708,-0.02491 -0.27345,-0.05361 -0.40894,-0.08608c-0.75125,-0.18084 -1.36167,-0.45989 -1.83125,-0.83715c-0.32488,-0.26321 -0.59477,-0.5878 -0.79425,-0.95527c-0.16045,-0.29498 -0.28576,-0.60775 -0.37336,-0.93192c-0.14844,-0.53457 -0.24819,-1.17051 -0.29923,-1.90782c-0.02766,-0.41342 -0.04106,-0.82767 -0.04019,-1.24201c0,-0.8233 0.04643,-1.54822 0.1393,-2.17475c0.04642,-0.3244 0.11326,-0.64554 0.20012,-0.96152c0.06832,-0.24669 0.1579,-0.487 0.26774,-0.71822c0.20867,-0.44826 0.51635,-0.84332 0.89988,-1.15539c0.55213,-0.44351 1.29886,-0.75125 2.24019,-0.92323c0.27728,-0.05005 0.55612,-0.09108 0.83606,-0.12301c0.38142,-0.04435 0.79271,-0.07775 1.23387,-0.1002c0.48631,-0.02394 0.97316,-0.03553 1.46006,-0.03476c0.8825,0 1.67303,0.03358 2.37161,0.10074c0.38817,0.03607 0.77464,0.08853 1.15838,0.15722c0.13708,0.02491 0.27345,0.05361 0.40894,0.08608c0.75125,0.18084 1.36167,0.45989 1.83125,0.83715c0.31732,0.25658 0.58259,0.57153 0.78149,0.92784c0.16643,0.2985 0.29608,0.61607 0.38613,0.94577c0.14844,0.52859 0.24819,1.16055 0.29923,1.89588c0.02768,0.41288 0.04108,0.82658 0.04019,1.24038c0.00071,0.3834 -0.0106,0.76673 -0.03394,1.14942c-0.04888,0.77678 -0.1507,1.44359 -0.30548,2.00042c-0.22628,0.81461 -0.61549,1.44368 -1.16761,1.88719c-0.55213,0.44351 -1.29886,0.75125 -2.24019,0.92323c-0.27719,0.05005 -0.55594,0.09107 -0.83579,0.12301c-0.3816,0.04435 -0.79289,0.07775 -1.23387,0.1002c-0.4864,0.02394 -0.97334,0.03553 -1.46033,0.03476c-0.8825,0 -1.67303,-0.03358 -2.37161,-0.10074zM283.55955,158.39093c1.19997,-0.49352 2.37628,-1.04271 3.5251,-1.64579c0.04321,-0.02265 0.08639,-0.04537 0.12952,-0.06816c0.64535,-0.34015 1.2507,-0.67939 1.81604,-1.01772c0.55359,-0.32976 1.09563,-0.67853 1.62515,-1.04569c0.00834,-0.00537 0.01657,-0.01089 0.02471,-0.01656c0.19931,-0.13848 0.25452,-0.31462 0.16564,-0.52841c-0.01557,-0.03685 -0.03381,-0.07252 -0.05458,-0.10671c-0.19913,-0.25344 -0.42541,-0.28059 -0.67884,-0.08146c-0.12393,0.08744 -0.24893,0.17335 -0.37499,0.25769c-0.53511,0.35807 -1.15232,0.73379 -1.85162,1.12715c-0.86892,0.48877 -1.76952,0.94133 -2.7018,1.35769c-0.93228,0.41636 -1.80573,0.75125 -2.62034,1.00469c-0.14482,0.05431 -0.25344,0.14935 -0.32585,0.28511c-0.05159,0.09667 -0.07105,0.19569 -0.05838,0.29706c0.00553,0.04235 0.01601,0.08391 0.03123,0.12382c0.14482,0.34395 0.41636,0.43446 0.81461,0.27154c0.17867,-0.07005 0.35681,-0.14147 0.53439,-0.21424zM300.63439,156.79945c-0.82432,-0.41883 -1.63144,-0.87067 -2.4194,-1.35443c-0.44576,-0.27426 -0.88401,-0.56057 -1.31424,-0.8586c-0.10862,-0.07241 -0.16745,-0.17197 -0.1765,-0.29869c-0.00095,-0.01383 -0.0014,-0.02768 -0.00136,-0.04155c0,-0.10898 0.03213,-0.20374 0.0964,-0.2843c0.18519,-0.21886 0.39382,-0.25769 0.62589,-0.11649c0.01807,0.01102 0.03574,0.0227 0.05295,0.03503c0.29437,0.20126 0.59332,0.39573 0.89662,0.58326c0.30901,0.19171 0.6382,0.38739 0.98758,0.58706c0.11831,0.0676 0.23698,0.13458 0.35599,0.20094c0.85987,0.47972 1.75594,0.93228 2.68822,1.35769c0.50222,0.22994 1.01113,0.445 1.52604,0.6449c0.37016,0.14353 0.74411,0.27708 1.12145,0.40052c0.06944,0.01629 0.1342,0.04835 0.18926,0.09368c0.05261,0.04503 0.09461,0.10112 0.12301,0.16428c0.05232,0.11205 0.05838,0.22719 0.01819,0.3454c-0.00887,0.02585 -0.01948,0.05107 -0.03177,0.07549c-0.04278,0.12182 -0.13659,0.2189 -0.25687,0.26584c-0.01813,0.00736 -0.03662,0.01379 -0.05539,0.01928c-0.06988,0.02064 -0.13885,0.03096 -0.20691,0.03096c-0.08241,-0.00015 -0.1641,-0.01523 -0.24113,-0.04453c-0.91598,-0.36254 -1.81937,-0.75614 -2.70859,-1.1801c-0.42603,-0.20264 -0.84922,-0.4112 -1.26944,-0.62562z"/></g></g></svg>