<svg version="1.1" xmlns="http://www.w3.org/2000/svg" xmlns:xlink="http://www.w3.org/1999/xlink" width="356.85436" height="55.05255" viewBox="0,0,356.85436,55.05255"><g transform="translate(-61.57285,-152.47376)"><g data-paper-data="{&quot;isPaintingLayer&quot;:true}" stroke-linejoin="miter" stroke-miterlimit="10" stroke-dasharray="" stroke-dashoffset="0" style="mix-blend-mode: normal"><path d="M417.17722,159.7624v40.47527c0,3.34558 -7.08649,6.03864 -15.89018,6.03864h-322.574c-8.80362,0 -15.89018,-2.69306 -15.89018,-6.03864v-40.47527c0,-3.34558 7.08649,-6.03864 15.89018,-6.03864h322.574c8.80362,0 15.89018,2.69306 15.89018,6.03864z" fill="#f557ff" fill-rule="nonzero" stroke="#f100ff" stroke-width="2.5" stroke-linecap="butt"/><path d="M209.36889,183.10567v0.73434c0.00821,0.26237 0.01447,0.5248 0.01883,0.78728c0.02139,1.28979 -0.01112,2.39028 -0.09753,3.30148c-0.02044,0.21847 -0.04564,0.43648 -0.07562,0.65387c-0.11337,0.81492 -0.28527,1.50877 -0.51571,2.08155c-0.09643,0.24338 -0.21296,0.47846 -0.34844,0.70282c-0.18868,0.2863 -0.43995,0.52682 -0.73515,0.70374c-0.07198,0.04407 -0.14592,0.0849 -0.22159,0.12239c-0.72012,0.36717 -1.57399,0.63235 -2.5616,0.79554c-0.9876,0.16318 -2.02664,0.22948 -3.11712,0.19889c-1.09047,-0.0306 -2.14494,-0.15809 -3.16341,-0.38247c-1.01847,-0.22438 -1.90833,-0.54056 -2.66962,-0.94852l-0.21605,0.12239c-0.14672,0.14238 -0.31023,0.26669 -0.48701,0.37023c-0.34134,0.2046 -0.77568,0.38207 -1.30302,0.5324c-0.4736,0.13336 -0.95547,0.23597 -1.44252,0.3072c-0.44276,0.06522 -0.88825,0.11076 -1.33512,0.13647c-1.02874,0.0612 -2.0678,0.03569 -3.11712,-0.07649c-1.04933,-0.11219 -1.98549,-0.32128 -2.8085,-0.62725c-0.80863,-0.24204 -1.50482,-0.75991 -1.96533,-1.46195c-0.25008,-0.36975 -0.45538,-0.7674 -0.61169,-1.18474c-0.1849,-0.4939 -0.32909,-1.00185 -0.43115,-1.51887c-0.2578,-1.25287 -0.3867,-2.81191 -0.3867,-4.67714v-0.67314v-0.58135c-0.00005,-0.01908 0.00036,-0.03816 0.00123,-0.05722c0.00329,-0.06792 0.01317,-0.11004 0.02962,-0.12637l0.09259,-4.43665c0.00012,-0.15902 0.00218,-0.31804 0.00617,-0.47702c0.00243,-0.10109 0.00552,-0.20217 0.00926,-0.30323c0.00722,-0.19647 0.01186,-0.39303 0.01389,-0.58962c0.00102,-0.09413 0.00153,-0.18827 0.00154,-0.28241v-0.38247c0.00009,-0.01186 -0.00053,-0.02371 -0.00185,-0.0355c-0.00309,-0.02611 -0.00998,-0.04661 -0.02068,-0.0615c-0.00247,-0.0036 -0.00526,-0.00698 -0.00833,-0.0101c-0.00292,-0.02279 -0.00529,-0.04564 -0.00709,-0.06854c-0.00987,-0.1279 0.00277,-0.22234 0.03796,-0.28333c0.04115,-0.0714 0.06173,-0.14788 0.06173,-0.22948c0,-0.21806 0.20174,-0.34647 0.60522,-0.38523c0.09634,-0.00877 0.19306,-0.01296 0.2898,-0.01255h0.46294c0.18518,0 0.3395,-0.02039 0.46294,-0.0612l3.85782,0.0612l0.03087,0.0306l0.06173,0.0612l0.18518,-0.09179c0.17314,-0.00047 0.34626,0.00433 0.51911,0.01438c0.56746,0.03488 0.93966,0.13208 1.11661,0.29159c0.12371,0.10379 0.22161,0.23446 0.2861,0.38186c0.1076,0.23132 0.17345,0.5325 0.19752,0.90355c0.007,0.11195 0.01039,0.2241 0.01019,0.33626c0.00012,0.04958 0.00115,0.09916 0.00309,0.1487c0.00432,0.12014 0.01359,0.26436 0.02778,0.43265c0.02057,0.24478 0.04115,0.47936 0.06173,0.70374c0.01563,0.04671 0.02531,0.11739 0.02902,0.21204c0.00123,0.0313 0.00184,0.06261 0.00185,0.09394v0.91793v0.27538c-0.00014,0.0308 -0.00054,0.06161 -0.00123,0.0924c-0.00309,0.16788 -0.01296,0.48385 -0.02962,0.94791c-0.02057,0.57116 -0.0463,1.2188 -0.07715,1.94295c-0.03087,0.72414 -0.05659,1.40748 -0.07715,2.05004c-0.00485,0.15012 -0.00938,0.30026 -0.01359,0.4504c-0.01153,0.41877 -0.01728,0.74291 -0.01728,0.97239c0.02057,0.50996 0.02572,0.91793 0.01543,1.22391c-0.00069,0.02131 -0.0012,0.04263 -0.00154,0.06395c-0.00494,0.27068 0.0213,0.45335 0.0787,0.548c0.05903,0.21946 0.21737,0.39938 0.42868,0.48712c0.06083,0.02669 0.12393,0.04799 0.18857,0.06364c0.3292,0.08159 0.64812,0.0612 0.95674,-0.0612c0.09643,-0.03691 0.18617,-0.08909 0.26572,-0.15452c0.14197,-0.11933 0.22755,-0.27732 0.25678,-0.47395c0.00075,-0.00468 0.00148,-0.00938 0.00217,-0.01407l0.06173,-0.55075c0.10288,-0.57116 0.13373,-1.2341 0.09259,-1.98884c-0.04115,-0.75473 -0.06173,-1.40748 -0.06173,-1.95825l0.12345,-1.49928v-0.18359c0.01419,-0.19623 0.02592,-0.41664 0.03518,-0.66121c0.00437,-0.11615 0.00807,-0.23231 0.01112,-0.34851c0.01029,-0.38757 0.01543,-0.78533 0.01543,-1.19331l0.21605,-3.33513c0,-0.12851 0.01513,-0.22448 0.04537,-0.28793c0.01084,-0.02448 0.02696,-0.04631 0.04723,-0.06395c0.0194,-0.01518 0.04119,-0.02707 0.0645,-0.03519c0.06686,-0.02509 0.16594,-0.03876 0.29721,-0.041c0.01317,-0.00022 0.02634,-0.00031 0.03951,-0.0003h0.37035c0.05356,-0.00012 0.10708,-0.00216 0.16049,-0.00612c0.034,-0.00242 0.06795,-0.00547 0.10184,-0.00918c0.08518,-0.00939 0.22714,-0.02305 0.42591,-0.041c0.01749,-0.00164 0.03498,-0.00327 0.05247,-0.0049l2.25297,0.0612l0.03087,0.0306c0.0044,0.00432 0.00871,0.0087 0.01296,0.01315c0.03024,0.03202 0.03621,0.04804 0.0179,0.04804l0.21605,-0.09179c0.4938,0 0.85386,0.02039 1.0802,0.0612c0.06259,0.01099 0.12443,0.02581 0.18518,0.04437c0.06213,0.01938 0.11758,0.04192 0.16635,0.06762c0.05225,0.02691 0.1002,0.06135 0.14227,0.1022c0.24176,0.23968 0.38208,0.66601 0.42097,1.27898c0.00764,0.12429 0.01134,0.24878 0.01112,0.37329c0,0.16318 0.00514,0.33658 0.01543,0.52015c0.01029,0.18359 0.01543,0.41817 0.01543,0.70374c0,0.07813 0.00299,0.18011 0.00895,0.30598c0.00199,0.04081 0.00416,0.0816 0.00649,0.12239c0.00885,0.15768 0.01389,0.30037 0.01513,0.42806c0.00021,0.0205 0.0003,0.041 0.0003,0.0615v0.24478c0,0.14279 0.00514,0.43347 0.01543,0.87203c0.00533,0.22562 0.0115,0.45124 0.01851,0.67682c0.00782,0.25416 0.01708,0.52322 0.02778,0.80716c0.01893,0.50279 0.03375,1.00574 0.04445,1.50877c0.00064,0.03253 0.00125,0.06507 0.00185,0.0976c0.01029,0.52015 0.01543,0.93323 0.01543,1.23919v0.82613c-0.02057,0.102 -0.01543,0.24988 0.01543,0.44366c0.03087,0.19378 0.05659,0.40287 0.07715,0.62725c0.00314,0.00999 0.0054,0.02023 0.00679,0.0306c0.00987,0.06446 0.00649,0.18419 -0.01019,0.35921c-0.0037,0.03838 -0.00771,0.07673 -0.01203,0.11505c-0.00344,0.03059 -0.0054,0.06132 -0.00587,0.0921c-0.00349,0.23213 0.0856,0.42041 0.26728,0.56483c0.0003,0.0003 0.00063,0.00062 0.00093,0.00092c0.11686,0.174 0.27077,0.26099 0.46169,0.26099c0.01071,-0.00004 0.0214,-0.00035 0.0321,-0.00092c0.20575,-0.0102 0.40636,-0.0561 0.60182,-0.13769c0.02302,-0.00965 0.04606,-0.01924 0.06913,-0.02877c0.15205,-0.06242 0.23703,-0.09363 0.25493,-0.09363c0.01976,-0.00077 0.03882,-0.00749 0.05462,-0.01928c0.04856,-0.03305 0.10236,-0.10821 0.16141,-0.22551c0.0092,-0.05486 0.01886,-0.10962 0.02902,-0.16431c0.02798,-0.15033 0.05329,-0.26058 0.07592,-0.33076c0.00101,-0.00327 0.00204,-0.00654 0.00309,-0.00979c0.01303,-0.0394 0.02141,-0.08016 0.02499,-0.12147c0.00576,-0.0612 0.00257,-0.12779 -0.00956,-0.19981v-0.88733c-0.00004,-0.12188 -0.00077,-0.24376 -0.00217,-0.36564c-0.00123,-0.1077 -0.00299,-0.22031 -0.00525,-0.3378c-0.00229,-0.1225 -0.00496,-0.24499 -0.00802,-0.36748c-0.01008,-0.39655 -0.02489,-0.63887 -0.04445,-0.72699c-0.00059,-0.00246 -0.0012,-0.00491 -0.00185,-0.00735v-0.97912l-0.03087,-0.85673c-0.01419,-0.44877 -0.02592,-0.85418 -0.03518,-1.21626c-0.00399,-0.15553 -0.0077,-0.31107 -0.01112,-0.46661c-0.01029,-0.46916 -0.02572,-0.84653 -0.0463,-1.13211v-0.27538h0.03087l-0.03087,-3.27394c-0.01622,-0.05951 -0.02899,-0.11989 -0.03827,-0.18084c-0.02284,-0.15441 -0.01708,-0.29394 0.01728,-0.41858c0.01576,-0.05762 0.03834,-0.11318 0.06728,-0.16554c0.03386,-0.06341 0.08101,-0.11891 0.13826,-0.16277c0.09959,-0.07424 0.22735,-0.10362 0.38332,-0.08812c0.01651,0.00161 0.03297,0.00365 0.04937,0.00612h0.77157c0.03387,0.0001 0.06772,-0.00082 0.10154,-0.00275c0.03107,-0.00204 0.06028,-0.0049 0.08765,-0.00857c0.00897,-0.0012 0.01792,-0.00252 0.02685,-0.00398c0.06173,-0.0102 0.12345,-0.0255 0.18518,-0.0459l3.91954,0.0612l0.03087,0.0306l0.03087,0.0612l0.21605,-0.09179c0.18291,-0.0004 0.3658,0.0045 0.54843,0.01468c0.53434,0.03121 0.91343,0.11199 1.13729,0.24233c0.02548,0.0148 0.05001,0.03115 0.07345,0.04895c0.31089,0.20542 0.49134,0.64091 0.54133,1.30651c0.00979,0.13543 0.01452,0.27117 0.01419,0.40695c0,0.24478 0.00514,0.61195 0.01543,1.10151c0.01029,0.48956 0.02057,1.01991 0.03087,1.59107c0.01029,0.57116 0.02057,1.11681 0.03087,1.63697c0.00782,0.39818 0.01266,0.72772 0.0145,0.9886c0.00056,0.07333 0.00087,0.14667 0.00093,0.21999l0.03087,0.0306c0.00805,0.00826 0.01435,0.01804 0.01851,0.02877c0.0072,0.01713 0.01121,0.03896 0.01203,0.06548c0.00018,0.00428 0.00028,0.00857 0.0003,0.01285zM240.29318,193.11107h-1.51227c-0.51438,0 -1.02361,-0.0051 -1.5277,-0.0153c-0.50409,-0.0102 -1.01331,-0.0255 -1.5277,-0.0459c-0.93102,-0.01448 -1.62039,-0.14616 -2.0681,-0.39501c-0.16996,-0.08982 -0.31749,-0.21623 -0.43177,-0.36993c-0.02057,-0.102 -0.04115,-0.27028 -0.06173,-0.50486c-0.00814,-0.09431 -0.01442,-0.18878 -0.01883,-0.28333c-0.00494,-0.10505 -0.00833,-0.21714 -0.01019,-0.33626c-0.0012,-0.07394 -0.00182,-0.14788 -0.00185,-0.22183c0,-0.77514 0.00514,-1.36669 0.01543,-1.77466c0.00987,-0.39492 0.01502,-0.83746 0.01543,-1.32763c0,-0.01642 0,-0.03284 0,-0.04927v-0.58135v-0.71904c0,-0.28108 0.00926,-0.63122 0.02778,-1.05042c0.00101,-0.02213 0.00204,-0.04427 0.00309,-0.0664c0.01768,-0.33008 0.02776,-0.66052 0.03024,-0.99105c0.00267,-0.36737 -0.00504,-0.72332 -0.02315,-1.06785c-0.0022,-0.04294 -0.00456,-0.08589 -0.00709,-0.12882c-0.03188,-0.52954 -0.03292,-1.01931 -0.00309,-1.4693c0.00843,-0.12752 0.01975,-0.25484 0.03394,-0.38186c0.10288,-0.83634 -0.03087,-1.42789 -0.40122,-1.77466c-0.09561,-0.09171 -0.20945,-0.16268 -0.33425,-0.20837c-0.26152,-0.09322 -0.56416,-0.06008 -0.90798,0.09944c-0.0711,0.0331 -0.14061,0.06945 -0.20833,0.10892c-0.07805,0.03036 -0.1529,0.06828 -0.22344,0.11321c-0.09814,0.06364 -0.17798,0.1381 -0.2395,0.22336c-0.10288,0.14279 -0.17488,0.29578 -0.21605,0.45896v0.27538c-0.00003,-0.01073 0.00038,-0.02144 0.00123,-0.03213c0.00206,-0.02509 0.00679,-0.04498 0.01419,-0.05967c0.00553,-0.01088 0.00967,-0.02239 0.01235,-0.03427c0.00202,-0.00884 0.00305,-0.01787 0.00309,-0.02692v0.48956h-0.03087v11.53527c-0.00699,0.01419 -0.01248,0.02906 -0.01636,0.04437c-0.00967,0.03672 -0.0145,0.08312 -0.0145,0.13922c-0.01146,0.03377 -0.03764,0.06063 -0.07129,0.07313c-0.01625,0.00694 -0.03498,0.01193 -0.05617,0.015c-0.01912,0.0026 -0.03841,0.00383 -0.05772,0.00367c-0.02757,0 -0.05051,0.00459 -0.06882,0.01377c-0.00879,0.00431 -0.0168,0.00999 -0.02376,0.01683c-0.00579,0.00585 -0.01209,0.01117 -0.01883,0.01591c-0.01419,0.00979 -0.02849,0.01468 -0.0429,0.01468c-0.02057,0 -0.05143,0.0102 -0.09259,0.0306c-0.34977,0 -0.6944,0.0102 -1.0339,0.0306c-0.3395,0.02039 -0.66354,0.05099 -0.97217,0.09179h-2.0678c-0.2779,0.00025 -0.55578,-0.00302 -0.8336,-0.00979c-0.46315,-0.01183 -0.8694,-0.03406 -1.21876,-0.0667c-0.54524,-0.05099 -1.05447,-0.15809 -1.5277,-0.32128c-0.04607,-0.00037 -0.09058,-0.01659 -0.12592,-0.0459c-0.01996,-0.01571 -0.03919,-0.0356 -0.05772,-0.05967c-0.01168,-0.0152 -0.0225,-0.03103 -0.03241,-0.04742c-0.02188,-0.05179 -0.03891,-0.10546 -0.05093,-0.16034c-0.02551,-0.11281 -0.0393,-0.24876 -0.04136,-0.40786c-0.00019,-0.01459 -0.0003,-0.02916 -0.0003,-0.04375c-0.01449,-0.42774 -0.03137,-0.8554 -0.05061,-1.28296c-0.01522,-0.33658 -0.03148,-0.65683 -0.04877,-0.96076c-0.01627,-0.28744 -0.03458,-0.57475 -0.05494,-0.86193c-0.022,-0.30861 -0.0437,-0.61724 -0.06513,-0.92588c-0.03375,-0.48671 -0.06348,-0.92772 -0.08919,-1.32304c-0.0609,-0.76596 -0.10184,-1.71611 -0.12282,-2.85046c-0.00021,-0.01367 -0.00041,-0.02733 -0.00063,-0.041c-0.02057,-1.15251 -0.03087,-2.31011 -0.03087,-3.47282v-0.85673l0.03087,-1.34629l0.06173,-1.22391l0.06173,-0.82613v-0.27538c0,-0.10342 0.00741,-0.18501 0.02222,-0.24478c0.00246,-0.01032 0.00535,-0.02052 0.00864,-0.0306c-0.00017,-0.01229 0.00138,-0.02455 0.00463,-0.03642c0.00782,-0.02713 0.02572,-0.04426 0.0537,-0.0514c0.0112,-0.00276 0.02272,-0.00409 0.03426,-0.00398c0.11133,-0.00063 0.22144,-0.02298 0.32406,-0.06579c0.05897,-0.02426 0.11575,-0.05343 0.16975,-0.0872h0.10802c0.05143,0 0.10802,-0.0102 0.16975,-0.0306c0.1109,0 0.19731,0.00602 0.25925,0.01805c0.01671,0.00314 0.03321,0.00733 0.04937,0.01255h4.99974h0.4475c0.03932,-0.00004 0.07864,0.00098 0.1179,0.00306c0.04033,0.00204 0.07757,0.00541 0.11173,0.0101c0.03178,0.00408 0.0633,0.00991 0.09444,0.01744l0.86415,0.0306c0.1024,0.00504 0.2033,0.02654 0.29875,0.06364c0.17181,0.06915 0.30214,0.19266 0.39103,0.37053c0.00155,0.00315 0.00311,0.00631 0.00463,0.00948c0.13373,0.27538 0.20061,0.58646 0.20061,0.93323l0.03087,0.09179v0.39777c0.69956,-0.77514 1.53284,-1.31059 2.49987,-1.60637c0.78357,-0.24333 1.59477,-0.38857 2.41469,-0.43235c0.15172,-0.00755 0.30362,-0.01133 0.45553,-0.01132c0.44768,-0.00282 0.89474,0.03332 1.33603,0.10801c0.48351,0.08506 0.91477,0.22061 1.29376,0.40665c0.36679,0.17701 0.69897,0.41715 0.98113,0.70926c0.75819,0.79199 1.23993,1.80435 1.37431,2.8881c0.00517,0.03677 0.01001,0.0736 0.0145,0.11045c0.06173,0.46916 0.11832,1.06071 0.16975,1.77466c0.03457,0.47977 0.0575,1.05154 0.06882,1.71529c0.00573,0.34613 0.0085,0.6923 0.00833,1.03848c0,0.67314 -0.01029,1.36159 -0.03087,2.06534c-0.02057,0.70374 -0.05143,1.44319 -0.09259,2.21832c0,0.08526 -0.01439,0.19889 -0.04321,0.34086c-0.00587,0.02923 -0.01203,0.05841 -0.01851,0.08751c-0.02398,0.10852 -0.04068,0.21851 -0.05,0.32923c-0.008,0.09403 -0.01191,0.18836 -0.01173,0.28272c0,0.36717 -0.00514,0.76494 -0.01543,1.19331c-0.01029,0.42836 -0.01543,0.89753 -0.01543,1.40748v0.33658c0,0.07833 0.00607,0.13861 0.01821,0.18084c0.00317,0.01148 0.0074,0.02265 0.01266,0.03335c0,0.102 0.00514,0.20398 0.01543,0.30598c0.00465,0.04551 0.00835,0.09111 0.01112,0.13677c0.00247,0.04284 0.0039,0.08353 0.00432,0.12209c0.00002,0.0055 0.00002,0.01102 0,0.01652c0,0.24478 -0.27777,0.36717 -0.83329,0.36717zM261.68096,193.11107h-1.51227c-0.51438,0 -1.02361,-0.0051 -1.5277,-0.0153c-0.50409,-0.0102 -1.01331,-0.0255 -1.5277,-0.0459c-0.93102,-0.01448 -1.62039,-0.14616 -2.0681,-0.39501c-0.16996,-0.08982 -0.31749,-0.21623 -0.43177,-0.36993c-0.02057,-0.102 -0.04115,-0.27028 -0.06173,-0.50486c-0.00814,-0.09431 -0.01442,-0.18878 -0.01883,-0.28333c-0.00494,-0.10505 -0.00833,-0.21714 -0.01019,-0.33626c-0.0012,-0.07394 -0.00182,-0.14788 -0.00185,-0.22183c0,-0.77514 0.00514,-1.36669 0.01543,-1.77466c0.00987,-0.39492 0.01502,-0.83746 0.01543,-1.32763c0,-0.01642 0,-0.03284 0,-0.04927v-0.58135v-0.71904c0,-0.28108 0.00926,-0.63122 0.02778,-1.05042c0.00101,-0.02213 0.00204,-0.04427 0.00309,-0.0664c0.01768,-0.33008 0.02776,-0.66052 0.03024,-0.99105c0.00267,-0.36737 -0.00504,-0.72332 -0.02315,-1.06785c-0.0022,-0.04294 -0.00456,-0.08589 -0.00709,-0.12882c-0.03188,-0.52954 -0.03292,-1.01931 -0.00309,-1.4693c0.00843,-0.12752 0.01975,-0.25484 0.03394,-0.38186c0.10288,-0.83634 -0.03087,-1.42789 -0.40122,-1.77466c-0.09561,-0.09171 -0.20945,-0.16268 -0.33425,-0.20837c-0.26152,-0.09322 -0.56416,-0.06008 -0.90798,0.09944c-0.0711,0.0331 -0.14061,0.06945 -0.20833,0.10892c-0.07805,0.03036 -0.1529,0.06828 -0.22344,0.11321c-0.09814,0.06364 -0.17798,0.1381 -0.2395,0.22336c-0.10288,0.14279 -0.17488,0.29578 -0.21605,0.45896v0.27538c-0.00003,-0.01073 0.00038,-0.02144 0.00123,-0.03213c0.00206,-0.02509 0.00679,-0.04498 0.01419,-0.05967c0.00553,-0.01088 0.00967,-0.02239 0.01235,-0.03427c0.00202,-0.00884 0.00305,-0.01787 0.00309,-0.02692v0.48956h-0.03087v11.53527c-0.00699,0.01419 -0.01248,0.02906 -0.01636,0.04437c-0.00967,0.03672 -0.0145,0.08312 -0.0145,0.13922c-0.01146,0.03377 -0.03764,0.06063 -0.07129,0.07313c-0.01625,0.00694 -0.03498,0.01193 -0.05617,0.015c-0.01912,0.0026 -0.03841,0.00383 -0.05772,0.00367c-0.02757,0 -0.05051,0.00459 -0.06882,0.01377c-0.00879,0.00431 -0.0168,0.00999 -0.02376,0.01683c-0.00579,0.00585 -0.01209,0.01117 -0.01883,0.01591c-0.01419,0.00979 -0.02849,0.01468 -0.0429,0.01468c-0.02057,0 -0.05143,0.0102 -0.09259,0.0306c-0.34977,0 -0.6944,0.0102 -1.0339,0.0306c-0.3395,0.02039 -0.66354,0.05099 -0.97217,0.09179h-2.0678c-0.2779,0.00025 -0.55578,-0.00302 -0.8336,-0.00979c-0.46315,-0.01183 -0.8694,-0.03406 -1.21876,-0.0667c-0.54524,-0.05099 -1.05447,-0.15809 -1.5277,-0.32128c-0.04607,-0.00037 -0.09058,-0.01659 -0.12592,-0.0459c-0.01996,-0.01571 -0.03919,-0.0356 -0.05772,-0.05967c-0.01168,-0.0152 -0.0225,-0.03103 -0.03241,-0.04742c-0.02188,-0.05179 -0.03891,-0.10546 -0.05093,-0.16034c-0.02551,-0.11281 -0.0393,-0.24876 -0.04136,-0.40786c-0.00019,-0.01459 -0.0003,-0.02916 -0.0003,-0.04375c-0.01449,-0.42774 -0.03137,-0.8554 -0.05061,-1.28296c-0.01522,-0.33658 -0.03148,-0.65683 -0.04877,-0.96076c-0.01627,-0.28744 -0.03458,-0.57475 -0.05494,-0.86193c-0.022,-0.30861 -0.0437,-0.61724 -0.06513,-0.92588c-0.03375,-0.48671 -0.06348,-0.92772 -0.08919,-1.32304c-0.0609,-0.76596 -0.10184,-1.71611 -0.12282,-2.85046c-0.00021,-0.01367 -0.00041,-0.02733 -0.00063,-0.041c-0.02057,-1.15251 -0.03087,-2.31011 -0.03087,-3.47282v-0.85673l0.03087,-1.34629l0.06173,-1.22391l0.06173,-0.82613v-0.27538c0,-0.10342 0.00741,-0.18501 0.02222,-0.24478c0.00246,-0.01032 0.00535,-0.02052 0.00864,-0.0306c-0.00017,-0.01229 0.00138,-0.02455 0.00463,-0.03642c0.00782,-0.02713 0.02572,-0.04426 0.0537,-0.0514c0.0112,-0.00276 0.02272,-0.00409 0.03426,-0.00398c0.11133,-0.00063 0.22144,-0.02298 0.32406,-0.06579c0.05897,-0.02426 0.11575,-0.05343 0.16975,-0.0872h0.10802c0.05143,0 0.10802,-0.0102 0.16975,-0.0306c0.1109,0 0.19731,0.00602 0.25925,0.01805c0.01671,0.00314 0.03321,0.00733 0.04937,0.01255h4.99974h0.4475c0.03932,-0.00004 0.07864,0.00098 0.1179,0.00306c0.04033,0.00204 0.07757,0.00541 0.11173,0.0101c0.03178,0.00408 0.0633,0.00991 0.09444,0.01744l0.86415,0.0306c0.1024,0.00504 0.2033,0.02654 0.29875,0.06364c0.17181,0.06915 0.30214,0.19266 0.39103,0.37053c0.00155,0.00315 0.00311,0.00631 0.00463,0.00948c0.13373,0.27538 0.20061,0.58646 0.20061,0.93323l0.03087,0.09179v0.39777c0.69956,-0.77514 1.53284,-1.31059 2.49987,-1.60637c0.78357,-0.24333 1.59477,-0.38857 2.41469,-0.43235c0.15172,-0.00755 0.30362,-0.01133 0.45553,-0.01132c0.44768,-0.00282 0.89474,0.03332 1.33603,0.10801c0.48351,0.08506 0.91477,0.22061 1.29376,0.40665c0.36679,0.17701 0.69897,0.41715 0.98113,0.70926c0.75819,0.79199 1.23993,1.80435 1.37431,2.8881c0.00517,0.03677 0.01001,0.0736 0.0145,0.11045c0.06173,0.46916 0.11832,1.06071 0.16975,1.77466c0.03457,0.47977 0.0575,1.05154 0.06882,1.71529c0.00573,0.34613 0.0085,0.6923 0.00833,1.03848c0,0.67314 -0.01029,1.36159 -0.03087,2.06534c-0.02057,0.70374 -0.05143,1.44319 -0.09259,2.21832c0,0.08526 -0.01439,0.19889 -0.04321,0.34086c-0.00587,0.02923 -0.01203,0.05841 -0.01851,0.08751c-0.02398,0.10852 -0.04068,0.21851 -0.05,0.32923c-0.008,0.09403 -0.01191,0.18836 -0.01173,0.28272c0,0.36717 -0.00514,0.76494 -0.01543,1.19331c-0.01029,0.42836 -0.01543,0.89753 -0.01543,1.40748v0.33658c0,0.07833 0.00607,0.13861 0.01821,0.18084c0.00317,0.01148 0.0074,0.02265 0.01266,0.03335c0,0.102 0.00514,0.20398 0.01543,0.30598c0.00465,0.04551 0.00835,0.09111 0.01112,0.13677c0.00247,0.04284 0.0039,0.08353 0.00432,0.12209c0.00002,0.0055 0.00002,0.01102 0,0.01652c0,0.24478 -0.27777,0.36717 -0.83329,0.36717zM277.01964,175.11971h0.18518c0.10164,0 0.18795,0.0153 0.25893,0.0459c0.02857,0.01212 0.0556,0.02752 0.08055,0.0459c0.01023,0.0102 0.01992,0.02092 0.02902,0.03213c0.00947,0.01163 0.01892,0.02428 0.02839,0.03794c0.00145,0.00214 0.00289,0.00427 0.00432,0.00643c0.01666,0.02468 0.03323,0.03937 0.0497,0.04407c0.0039,0.00118 0.00796,0.0018 0.01203,0.00183c0.02066,-0.00018 0.04129,0.00125 0.06173,0.00428c0.02119,0.00346 0.03981,0.00877 0.05586,0.01591c0.03197,0.01296 0.05666,0.0391 0.06758,0.0716l0.58639,0.48956c0.64892,0.5585 1.19127,1.22812 1.60115,1.9769c0.27275,0.49308 0.5012,1.00901 0.68268,1.5418c0.47322,1.36669 0.70984,2.79457 0.70984,4.28366l-0.2469,0.58135l-8.27117,0.15299l-0.89502,0.0306l0.03087,0.79554l0.12345,0.73434l0.27777,0.73434l0.80243,0.70374c0.09225,0.07369 0.19136,0.13855 0.29597,0.19369c0.10535,0.05651 0.22272,0.10913 0.35213,0.15789c0.10654,0.04002 0.21465,0.07585 0.32406,0.1074c0.42179,0.12239 0.85902,0.18359 1.31165,0.18359h0.15432c0.13683,-0.00081 0.27344,-0.01073 0.40893,-0.02968c0.26192,-0.03529 0.55769,-0.10189 0.8873,-0.19981c0.3838,-0.11384 0.76953,-0.22116 1.15704,-0.32189c0.15931,-0.04155 0.31887,-0.08214 0.47868,-0.12177l1.7283,-0.42836l0.37035,0.45896l0.55552,3.88588l-0.3395,0.55075c-0.39193,0.1865 -0.78842,0.3634 -1.18913,0.53057c-0.48681,0.20215 -0.9443,0.37206 -1.37247,0.50975c-0.76127,0.24478 -1.47112,0.40797 -2.12953,0.48956c-0.39607,0.04203 -0.75572,0.0817 -1.07896,0.11902c-0.13934,0.01603 -0.27863,0.03246 -0.41788,0.04927c-0.42179,0.05099 -0.81785,0.07649 -1.18821,0.07649c-0.61725,0 -1.17278,-0.0612 -1.66658,-0.18359c-0.49149,-0.12094 -0.99019,-0.21097 -1.49313,-0.26956c-0.01666,-0.00196 -0.03333,-0.00391 -0.05,-0.00582c-0.76127,-0.08159 -1.4814,-0.33658 -2.16037,-0.76494c-0.63087,-0.47745 -1.21528,-1.01238 -1.74558,-1.5978c-0.56303,-0.6205 -1.03985,-1.31284 -1.41783,-2.0586c-0.66869,-1.33609 -1.02361,-2.93226 -1.06476,-4.78851c-0.00185,-0.09494 -0.00278,-0.1899 -0.00277,-0.28486c0,-0.98361 0.10154,-1.90765 0.30462,-2.77214c0.19732,-0.85501 0.51109,-1.67943 0.93267,-2.45055l0.15432,-0.52015c0.01632,-0.00806 0.03238,-0.01663 0.04814,-0.0257c0.04609,-0.02652 0.07499,-0.05069 0.08672,-0.07252c0.00159,-0.00284 0.00294,-0.0058 0.00401,-0.00887c0.00201,-0.0061 0.00447,-0.01203 0.00741,-0.01775c0.00329,-0.00612 0.00679,-0.01122 0.01049,-0.0153c0.00712,-0.00819 0.01749,-0.01288 0.02839,-0.01285l0.06173,-0.12239l0.18518,-0.12239c0.63631,-1.19484 1.69691,-2.11333 2.97669,-2.57784c0.16802,-0.06482 0.33841,-0.12351 0.51078,-0.17594c0.33118,-0.06801 0.66538,-0.1208 1.00149,-0.15819c0.65162,-0.07547 1.42277,-0.12198 2.31346,-0.13952c0.2838,-0.00557 0.56764,-0.00832 0.85149,-0.00826c0.0823,0 0.17488,0.0051 0.27777,0.0153c0.0415,0.0042 0.08296,0.00878 0.12438,0.01377c0.03704,0.00428 0.07603,0.00907 0.11697,0.01438c0.04303,0.0057 0.08603,0.01161 0.12901,0.01775c0.01214,0.00004 0.02429,0.00035 0.03641,0.00092c0.04259,0.00183 0.10247,0.00662 0.17961,0.01438c0.10288,0.0102 0.21605,0.0153 0.3395,0.0153c0.39998,0 1.10838,0.1485 2.1252,0.4455c0.08384,0.02455 0.16758,0.04944 0.25122,0.07465zM288.96347,193.14166h-1.14192c-0.243,0.00009 -0.486,-0.00186 -0.72897,-0.00582c-0.6868,-0.01143 -1.24623,-0.04008 -1.6783,-0.08598c-0.23959,-0.02495 -0.47804,-0.05956 -0.71478,-0.10372c-0.24361,-0.0459 -0.47086,-0.10108 -0.68175,-0.16554c-0.03872,-0.01179 -0.0773,-0.02403 -0.11573,-0.03672c-0.03189,0.00033 -0.0637,-0.00379 -0.09444,-0.01224c-0.07088,-0.01955 -0.12775,-0.07204 -0.15246,-0.14075c-0.0823,-0.18359 -0.12345,-0.38757 -0.12345,-0.61195l-0.3395,-5.17099c-0.04115,-0.57116 -0.07202,-1.10151 -0.09259,-1.59107c-0.02057,-0.48956 -0.036,-1.02502 -0.0463,-1.60637c-0.00401,-0.23304 -0.00709,-0.46609 -0.00926,-0.69916c-0.00206,-0.20684 -0.0036,-0.42408 -0.00463,-0.65172c-0.00104,-0.23815 -0.00155,-0.4763 -0.00154,-0.71446v-0.88733l0.03087,-1.28509l0.06173,-1.52988l0.06173,-1.13211v-0.65784c-0.00009,-0.03218 0.00135,-0.06434 0.00432,-0.09639c0.00288,-0.03121 0.00741,-0.06017 0.01359,-0.0869c0.00356,-0.0156 0.00788,-0.03102 0.01296,-0.0462c-0.00037,-0.01454 0.00258,-0.02897 0.00864,-0.04222c0.01317,-0.02713 0.04146,-0.04314 0.08487,-0.04804c0.00995,-0.00106 0.01994,-0.00156 0.02994,-0.00153c0.1541,-0.00062 0.30692,-0.02795 0.45153,-0.08077c0.03516,-0.01263 0.06985,-0.02651 0.10401,-0.04162h0.12345c0.0132,-0.00011 0.0264,-0.00093 0.03951,-0.00245c0.02613,-0.00286 0.0572,-0.00816 0.0932,-0.01591c0.01755,-0.00382 0.03504,-0.0079 0.05247,-0.01224h0.16975c0.02103,-0.00004 0.04204,0.00097 0.06296,0.00306c0.02119,0.00204 0.04053,0.00531 0.05802,0.00979c0.01683,0.0042 0.03318,0.01014 0.04877,0.01775h4.35162h0.61725c0.10288,0 0.19546,0.0102 0.27777,0.0306l0.95674,0.0306c0.23765,0.01958 0.41336,0.03926 0.52713,0.05905c0.00432,0.0007 0.00864,0.00141 0.01296,0.00215c0.11316,0.02039 0.20061,0.09179 0.26233,0.21419l0.2469,0.85673v2.01944c0.47322,-0.78187 1.31495,-1.60127 2.52518,-2.4582c0.05309,-0.0376 0.10638,-0.07493 0.15986,-0.11199c0.20433,-0.14948 0.42068,-0.28211 0.64688,-0.39655c0.26253,-0.13137 0.5226,-0.22459 0.78021,-0.27966c0.04872,-0.0105 0.0977,-0.01968 0.1469,-0.02754c0.51438,-0.08159 0.94645,-0.16318 1.29622,-0.24478c0.04184,-0.01044 0.08431,-0.01821 0.12715,-0.02325c0.0323,-0.00387 0.06379,-0.00582 0.09444,-0.00582c0.14399,-0.00245 0.28417,0.04579 0.39566,0.13616c0.1611,0.12974 0.2434,0.32291 0.2469,0.57952c0.00004,0.00571 0.00004,0.01143 0,0.01713c0.0003,0.58515 -0.0035,1.17029 -0.01142,1.75538c-0.02202,1.55558 -0.07582,2.71461 -0.16141,3.4771c-0.00394,0.03562 -0.00805,0.07121 -0.01235,0.10679c-0.01871,0.15626 -0.04248,0.31187 -0.07129,0.46661c-0.13147,0.69517 -0.33404,1.0343 -0.60769,1.01737c-0.23012,-0.01319 -0.45941,-0.0379 -0.687,-0.07405c-0.16797,-0.02649 -0.33512,-0.05792 -0.5012,-0.09424c-0.42179,-0.09179 -0.91045,-0.13769 -1.46597,-0.13769c-0.33482,-0.00248 -0.66859,0.03689 -0.99346,0.11719c-0.40745,0.10087 -0.78914,0.28503 -1.12062,0.54065c-0.20378,0.15444 -0.38113,0.34041 -0.52528,0.55075c-0.21566,0.32152 -0.3284,0.70012 -0.32344,1.08622v7.64939c0.00008,0.01972 -0.00086,0.03943 -0.00277,0.05905c-0.0039,0.03917 -0.01225,0.06956 -0.02499,0.09118c-0.00773,0.01421 -0.01955,0.02582 -0.03394,0.03335c-0.00605,0.00647 -0.01076,0.01407 -0.01389,0.02233c-0.01132,0.02692 -0.01698,0.07048 -0.01698,0.13065c-0.01832,0.07303 -0.06132,0.11341 -0.12901,0.12117c-0.0084,0.0009 -0.01685,0.00129 -0.02531,0.00122c0.00114,0 0.00228,0.0001 0.0034,0.0003c0.01153,0.00224 -0.01296,0.01876 -0.07345,0.04957c-0.00748,0.00381 -0.015,0.00759 -0.02252,0.01132l-0.15432,0.0612c-0.53248,-0.00051 -1.06487,0.01398 -1.59652,0.04345c-0.22932,0.01286 -0.45846,0.02897 -0.68731,0.04835zM218.68938,193.04987l-0.70984,0.12239l-0.7407,-0.09179l-1.41967,-0.15299l-0.43207,0.0306h-1.0802c-0.01996,-0.07955 -0.07911,-0.12035 -0.17746,-0.12239c-0.00257,-0.00002 -0.00514,-0.00002 -0.00772,0l-0.43207,0.0306c-0.14403,0.02039 -0.28291,0.0408 -0.41664,0.0612c-0.13373,0.02039 -0.23147,0.0306 -0.2932,0.0306c-0.04115,-0.0408 -0.11316,-0.0714 -0.21605,-0.09179h-0.15432c0,-0.01816 -0.01625,-0.02825 -0.04877,-0.03029c-0.00432,-0.00024 -0.00864,-0.00033 -0.01296,-0.0003l-0.09259,0.0306l-0.03087,0.0306c-0.0694,0.00047 -0.13869,-0.00516 -0.20709,-0.01683c-0.17695,-0.03141 -0.30339,-0.1074 -0.37931,-0.22796c-0.03187,-0.05619 -0.05893,-0.11494 -0.08086,-0.17563c-0.04321,-0.1173 -0.07798,-0.25763 -0.10432,-0.42102c-0.0128,-0.08143 -0.02279,-0.16328 -0.02994,-0.24539c-0.01625,-0.17971 -0.02623,-0.39808 -0.02994,-0.65509c-0.00123,-0.0823 -0.00184,-0.16461 -0.00185,-0.24692c0.01892,-0.13096 0.02479,-0.27895 0.01759,-0.44397c-0.00063,-0.0152 -0.00134,-0.03039 -0.00217,-0.04559c-0.01029,-0.18359 -0.036,-0.47936 -0.07715,-0.88733l-0.09259,-1.25449v-8.65911c0.00012,-0.31623 -0.00441,-0.63243 -0.01359,-0.94852c-0.0006,-0.0204 -0.00121,-0.0408 -0.00185,-0.0612c-0.007,-0.22438 -0.02139,-0.48252 -0.04321,-0.77443c-0.01038,-0.1397 -0.0217,-0.27933 -0.03394,-0.41888c-0.00928,-0.08456 -0.02164,-0.16875 -0.03704,-0.25243c-0.01522,-0.0818 -0.03312,-0.15849 -0.0537,-0.23009c-0.00061,-0.00235 -0.00123,-0.00469 -0.00185,-0.00703c-0.00543,-0.00602 -0.00953,-0.01311 -0.01203,-0.0208c-0.01255,-0.03325 -0.01883,-0.09771 -0.01883,-0.19337c0.04115,-0.81593 0.22118,-1.36159 0.54009,-1.63697c0.31891,-0.27538 0.93102,-0.41306 1.83633,-0.41306l0.18518,-0.0612c0.06173,-0.02039 0.13373,-0.0306 0.21605,-0.0306h0.03087c0.01708,0 0.03415,0.00703 0.05123,0.02112c0.00364,0.003 0.00714,0.00616 0.01049,0.00948c0.18518,0 0.29834,0.02039 0.3395,0.0612h0.12345c0.07885,0.0004 0.15456,-0.03058 0.21017,-0.08598c0.00197,-0.00192 0.00393,-0.00385 0.00587,-0.00582l2.31469,0.0306c0.0823,0 0.17488,-0.0051 0.27777,-0.0153c0.0415,-0.0042 0.08296,-0.00878 0.12438,-0.01377c0.03704,-0.00428 0.07603,-0.00907 0.11697,-0.01438c0.04303,-0.0057 0.08603,-0.01161 0.12901,-0.01775c0.03368,-0.00527 0.06755,-0.00925 0.10154,-0.01193c0.14588,-0.01244 0.37951,-0.01867 0.70089,-0.01867c0.94645,0 1.41967,0.16318 1.41967,0.48956v4.71202c0,0.69355 -0.01029,1.46868 -0.03087,2.32541c-0.02057,0.85673 -0.04115,1.66247 -0.06173,2.4172c-0.00479,0.17852 -0.01055,0.357 -0.01728,0.53545c-0.01481,0.38655 -0.03302,0.71925 -0.05462,0.99809c-0.00615,0.08043 -0.01304,0.1608 -0.02068,0.24111l-0.09259,1.25449c-0.01471,0.24709 -0.0287,0.49421 -0.04198,0.74138c-0.02078,0.39063 -0.03765,0.74525 -0.05061,1.06387c-0.01832,0.45611 -0.03674,0.83879 -0.05524,1.14802c-0.0021,0.0355 -0.00426,0.07099 -0.00649,0.10648c-0.01996,0.01979 -0.03024,0.06354 -0.03087,0.13127c-0.00001,0.00215 -0.00001,0.00428 0,0.00643v0.53545c0,0.55075 -0.07202,0.99442 -0.21605,1.33099c-0.14403,0.33658 -0.3395,0.50486 -0.58639,0.50486zM215.10933,172.33533h-0.46294l-0.18518,-0.09179c0,-0.0408 -0.02057,-0.0612 -0.06173,-0.0612c-0.0134,0 -0.02678,0.00062 -0.04012,0.00183c-0.02613,0.00224 -0.04711,0.00714 -0.06296,0.01468c-0.00753,0.00353 -0.01442,0.00829 -0.02037,0.01407c-0.01666,0.01652 -0.0469,0.02632 -0.09073,0.02937c-0.01088,0.0008 -0.0218,0.0012 -0.03271,0.00122l-0.27777,0.0612l-0.21605,-0.0612c-0.01338,0.0001 -0.02677,-0.00041 -0.04012,-0.00153c-0.02613,-0.00245 -0.04711,-0.00744 -0.06296,-0.015c-0.00753,-0.00353 -0.01442,-0.00829 -0.02037,-0.01407c-0.01666,-0.01652 -0.0469,-0.02632 -0.09073,-0.02937c-0.01088,-0.0008 -0.0218,-0.0012 -0.03271,-0.00122l-0.70984,-0.09179l-0.21605,-0.09179h-0.15432c0,0.0408 -0.02057,0.0612 -0.06173,0.0612c-0.02902,0.00002 -0.05803,-0.0005 -0.08704,-0.00153c-0.08024,-0.00286 -0.13806,-0.0102 -0.17345,-0.02203c-0.00592,-0.00195 -0.01169,-0.00431 -0.01728,-0.00703c-0.00653,-0.006 -0.01419,-0.01067 -0.02252,-0.01377c-0.02715,-0.01122 -0.07109,-0.01683 -0.13178,-0.01683c-0.11384,-0.07141 -0.20542,-0.17279 -0.26449,-0.29282c-0.03165,-0.06289 -0.05678,-0.12882 -0.07499,-0.19674c-0.01598,-0.03221 -0.02581,-0.06706 -0.02902,-0.1028c-0.00119,-0.01159 -0.00181,-0.02323 -0.00185,-0.03488c0.00009,-0.01186 -0.00053,-0.02371 -0.00185,-0.0355c-0.00309,-0.02611 -0.00998,-0.04661 -0.02068,-0.0615c-0.00247,-0.0036 -0.00526,-0.00698 -0.00833,-0.0101c-0.01979,-0.0194 -0.0309,-0.04585 -0.03087,-0.07344c-0.00001,-0.00103 -0.00001,-0.00204 0,-0.00306c0.00013,-0.01378 -0.00228,-0.02747 -0.00709,-0.04039c-0.00522,-0.01358 -0.01333,-0.0259 -0.02376,-0.0361v-2.90677c0.02057,-0.08159 0.03087,-0.20398 0.03087,-0.36717v-0.79554c0.00011,-0.06029 -0.00112,-0.12059 -0.0037,-0.18084c-0.00761,-0.16788 -0.02664,-0.29037 -0.05709,-0.36748c-0.0003,-0.00082 -0.00061,-0.00163 -0.00093,-0.00245v-0.0612c0,-0.01734 0.06625,-0.03457 0.19875,-0.0517c0.02631,-0.00342 0.05264,-0.00658 0.07901,-0.00948c0.1114,-0.01242 0.22319,-0.02119 0.33517,-0.02632c0.06312,-0.00283 0.12631,-0.00425 0.1895,-0.00428h0.32406c0.01196,-0.00009 0.02392,0.00053 0.03581,0.00183c0.02634,0.00306 0.04701,0.00989 0.06203,0.0205c0.00363,0.00245 0.00704,0.00521 0.01019,0.00826h0.43207l0.61725,0.0612l0.58639,0.18359c0.1181,0.01672 0.31942,0.04029 0.60398,0.07068c0.06614,0.00713 0.13229,0.01417 0.19844,0.02112c0.39093,0.0408 0.62754,0.0612 0.70984,0.0612c0.0272,0.00022 0.0544,0.00164 0.08147,0.00428c0.11379,0.01061 0.28723,0.03978 0.52034,0.08751c0.28991,0.05935 0.47775,0.08027 0.56356,0.06272c0.00248,-0.00046 0.00495,-0.00097 0.00741,-0.00153c0.10288,-0.02039 0.20575,0.0153 0.30863,0.10709c0.02594,0.02333 0.05337,0.04499 0.0821,0.06487c0.06337,0.04366 0.12242,0.06773 0.17715,0.07221c0.00616,0.00045 0.01235,0.00066 0.01851,0.00062c0.37035,-0.0612 0.75099,-0.0102 1.14192,0.15299c0.08035,0.029 0.16091,0.05746 0.24166,0.08537c0.06337,0.02183 0.12386,0.04222 0.18147,0.0612c0.05427,0.01792 0.10869,0.03536 0.16326,0.05232c0.04843,0.01433 0.09412,0.03657 0.13518,0.06579c0.07284,0.05303 0.11862,0.12718 0.13734,0.22244c0.00212,0.01095 0.00387,0.02198 0.00525,0.03305l0.03087,0.94852c0.02057,0.59155 0.06686,1.07601 0.13888,1.45338c0.01653,0.08849 0.02859,0.17774 0.03611,0.26742c0.0251,0.28721 0.01698,0.63367 -0.02438,1.0394c-0.00811,0.07955 -0.01717,0.15901 -0.02715,0.23836l-0.21605,0.21419l-2.62332,0.24478c-0.12592,0 -0.28507,0.00296 -0.47745,0.00887c-0.06204,0.00196 -0.12407,0.00411 -0.18611,0.00643c-0.27777,0.0102 -0.4475,0.0255 -0.50923,0.0459c-0.0823,0.02039 -0.16459,0.0306 -0.2469,0.0306zM272.51372,181.02504l2.03693,-0.0306l-0.09259,-0.91793l-0.09259,-0.58135l-0.12345,-0.64255c0.00008,-0.02137 -0.00116,-0.04273 -0.0037,-0.06395c-0.00596,-0.04875 -0.01945,-0.08761 -0.04043,-0.11657c-0.00071,-0.00103 -0.00142,-0.00205 -0.00217,-0.00306c-0.03024,-0.03998 -0.05555,-0.09944 -0.07592,-0.17839c-0.00041,-0.00174 -0.00083,-0.00346 -0.00123,-0.0052l-0.30863,-0.21419c-0.11744,-0.03948 -0.24049,-0.06014 -0.36449,-0.0612c-0.00196,0 -0.0039,0 -0.00587,0c-0.04732,0 -0.10061,0.00296 -0.15986,0.00887c-0.01875,0.00193 -0.03747,0.00407 -0.05617,0.00643c-0.05278,0.00664 -0.10062,0.03411 -0.13271,0.07619c-0.01585,0.01938 -0.02994,0.04233 -0.04228,0.06885c-0.0036,0.00766 -0.007,0.01541 -0.01019,0.02325c-0.03288,0.09971 -0.10842,0.17997 -0.20646,0.21939c-0.02315,0.01008 -0.04697,0.01857 -0.07129,0.0254c-0.04505,0.01497 -0.08388,0.04421 -0.11049,0.08322c-0.07181,0.09465 -0.12911,0.26467 -0.1719,0.51007c-0.00996,0.05702 -0.0187,0.11426 -0.02623,0.17165c-0.05083,0.42041 -0.09824,0.76453 -0.14227,1.03237c-0.00872,0.05372 -0.01789,0.10737 -0.02747,0.16094c-0.05143,0.28557 0.02572,0.42836 0.23147,0.42836z" fill="#000000" fill-rule="evenodd" stroke="#000000" stroke-width="0.25" stroke-linecap="round"/><g fill-rule="nonzero" stroke="none" stroke-width="0" stroke-linecap="butt"><path d="M81.49306,199.88697v-35.32904l9.359,20.78978l10.9931,-20.78978v35.32904z" fill="#fff36b"/><path d="M101.73949,199.9262v-35.32904l9.359,20.78978l10.9931,-20.78978v35.32904z" fill="#ffee2f"/><path d="M86.98961,166.18851c0,2.55153 -2.06183,4.61995 -4.60522,4.61995c-2.54339,0 -4.60522,-2.06842 -4.60522,-4.61995c0,-2.55153 2.06183,-4.61995 4.60522,-4.61995c2.54339,0 4.60522,2.06842 4.60522,4.61995z" fill="#ffee2f"/><path d="M105.85616,164.21823c0,2.28887 -1.82904,4.14437 -4.08528,4.14437c-2.25624,0 -4.08528,-1.85549 -4.08528,-4.14437c0,-2.28887 1.82904,-4.14437 4.08528,-4.14437c2.25624,0 4.08528,1.85549 4.08528,4.14437z" fill="#ffee2f"/><path d="M125.49249,166.52821c0,2.43896 -1.76857,4.41613 -3.95022,4.41613c-2.18165,0 -3.95022,-1.97717 -3.95022,-4.41613c0,-2.43896 1.76857,-4.41613 3.95022,-4.41613c2.18165,0 3.95022,1.97717 3.95022,4.41613z" fill="#ffee2f"/></g></g></g></svg>