<svg version="1.1" xmlns="http://www.w3.org/2000/svg" xmlns:xlink="http://www.w3.org/1999/xlink" width="42.12635" height="75.92022" viewBox="-0.72909,-0.72497,42.12635,75.92022"><g transform="translate(-219.86347,-142.91884)"><g data-paper-data="{&quot;isPaintingLayer&quot;:true}" fill="#000000" fill-rule="evenodd" stroke="#000000" stroke-width="5" stroke-linecap="round" stroke-linejoin="miter" stroke-miterlimit="10" stroke-dasharray="" stroke-dashoffset="0" style="mix-blend-mode: normal"><path d="M230.27668,213.82043c-2.9,-1.7 -5.18333,-4.05 -6.85,-7.05c-1.2701,-2.31338 -2.06692,-4.85648 -2.344,-7.481c-0.1054,-0.93595 -0.15748,-1.87714 -0.156,-2.819c-0.01344,-1.86442 0.20081,-3.72351 0.638,-5.536c0.51817,-2.1418 1.43848,-4.16568 2.712,-5.964c2.23333,-3.13333 5.15,-5.43333 8.75,-6.9c-3.06667,-1.46667 -5.51667,-3.6 -7.35,-6.4c-1.55968,-2.40011 -2.48298,-5.15763 -2.683,-8.013c-0.04509,-0.5612 -0.06744,-1.12399 -0.067,-1.687c0,-3.53333 0.73333,-6.65 2.2,-9.35c1.46667,-2.7 3.51667,-4.81667 6.15,-6.35c2.10768,-1.21373 4.45161,-1.96026 6.873,-2.189c0.72327,-0.07453 1.4499,-0.11157 2.177,-0.111c1.70261,-0.01145 3.39918,0.20378 5.045,0.64c1.38687,0.37331 2.71715,0.93165 3.955,1.66c2.6,1.53333 4.63333,3.65 6.1,6.35c1.02791,1.91675 1.70042,4.00372 1.985,6.16c0.1456,1.05706 0.21744,2.12297 0.215,3.19c0.0149,1.93308 -0.27084,3.85672 -0.847,5.702c-0.4499,1.41287 -1.09012,2.7579 -1.903,3.998c-1.83333,2.8 -4.31667,4.93333 -7.45,6.4c3.6,1.46667 6.51667,3.76667 8.75,6.9c1.56271,2.22163 2.59642,4.77135 3.022,7.454c0.2231,1.33702 0.33282,2.6905 0.328,4.046c0.01205,1.9533 -0.22043,3.90044 -0.692,5.796c-0.39576,1.56881 -0.98635,3.08191 -1.758,4.504c-1.63333,3 -3.88333,5.35 -6.75,7.05c-2.86667,1.7 -6.2,2.55 -10,2.55c-1.8615,0.01225 -3.7168,-0.21563 -5.52,-0.678c-1.58864,-0.41351 -3.1129,-1.0434 -4.53,-1.872zM229.02668,208.62043c-2.03565,-1.94315 -3.44778,-4.44753 -4.057,-7.195c-0.37438,-1.62471 -0.55663,-3.28777 -0.543,-4.955c-0.00004,-0.02833 -0.00004,-0.05667 0,-0.085c0.00533,-1.798 0.19067,-3.45733 0.556,-4.978c0.60702,-2.74309 2.01444,-5.24435 4.044,-7.187c3.06667,-2.9 6.83333,-4.35 11.3,-4.35c0.20771,0.00013 0.4154,0.00346 0.623,0.01c3.96659,0.03647 7.76889,1.5893 10.627,4.34c0.30979,0.29625 0.60545,0.60693 0.886,0.931c1.50933,1.74333 2.55233,3.85033 3.129,6.321c0.36882,1.64007 0.54832,3.31703 0.535,4.998c0.01322,1.66693 -0.16732,3.32975 -0.538,4.955c-0.59896,2.74134 -1.99476,5.24451 -4.012,7.195c-1.50736,1.45973 -3.29926,2.59329 -5.264,3.33c-1.9181,0.69592 -3.94567,1.04141 -5.986,1.02c-4.46667,0 -8.23333,-1.45 -11.3,-4.35zM237.46668,176.25043c-2.7884,-0.39669 -5.35907,-1.72963 -7.29,-3.78c-1.54036,-1.64771 -2.63788,-3.65903 -3.19,-5.846c-0.38522,-1.52095 -0.57343,-3.08509 -0.56,-4.654c-0.00822,-1.32836 0.12046,-2.65402 0.384,-3.956c0.47572,-2.47213 1.64289,-4.75862 3.366,-6.594c1.55997,-1.64652 3.54916,-2.82417 5.743,-3.4c1.43804,-0.37833 2.92009,-0.56329 4.407,-0.55c4.13333,0 7.46667,1.31667 10,3.95c1.59831,1.67133 2.72581,3.7359 3.268,5.984c0.36585,1.49408 0.54455,3.02784 0.532,4.566c0.00466,1.11358 -0.08769,2.22545 -0.276,3.323c-0.42741,2.6919 -1.65537,5.19276 -3.524,7.177c-1.47606,1.57036 -3.33792,2.72644 -5.4,3.353c-1.49242,0.44415 -3.04296,0.66224 -4.6,0.647c-0.9577,0.00367 -1.91413,-0.0699 -2.86,-0.22z"/></g></g></svg>