<svg version="1.1" xmlns="http://www.w3.org/2000/svg" xmlns:xlink="http://www.w3.org/1999/xlink" width="11.65669" height="12.29304" viewBox="0,0,11.65669,12.29304"><g transform="translate(-234.17166,-173.85347)"><g data-paper-data="{&quot;isPaintingLayer&quot;:true}" fill="#1c2f5a" fill-rule="nonzero" stroke="#ffffff" stroke-width="0" stroke-linecap="butt" stroke-linejoin="miter" stroke-miterlimit="10" stroke-dasharray="" stroke-dashoffset="0" style="mix-blend-mode: normal"><path d="M240.35348,181.77273c0,-0.70852 0.57437,-1.28289 1.28289,-1.28289c0.70852,0 1.28289,0.57437 1.28289,1.28289c0,0.70852 -0.57437,1.28289 -1.28289,1.28289c-0.70852,0 -1.28289,-0.57437 -1.28289,-1.28289z"/><path d="M243.26258,184.86363c0,-0.70852 0.57437,-1.28289 1.28289,-1.28289c0.70852,0 1.28289,0.57437 1.28289,1.28289c0,0.70852 -0.57437,1.28289 -1.28289,1.28289c-0.70852,0 -1.28289,-0.57437 -1.28289,-1.28289z"/><path d="M237.26257,178.59091c0,-0.70852 0.57437,-1.28289 1.28289,-1.28289c0.70852,0 1.28289,0.57437 1.28289,1.28289c0,0.70852 -0.57437,1.28289 -1.28289,1.28289c-0.70852,0 -1.28289,-0.57437 -1.28289,-1.28289z"/><path d="M234.17167,175.13637c0,-0.70852 0.57437,-1.28289 1.28289,-1.28289c0.70852,0 1.28289,0.57437 1.28289,1.28289c0,0.70852 -0.57437,1.28289 -1.28289,1.28289c-0.70852,0 -1.28289,-0.57437 -1.28289,-1.28289z"/></g></g></svg>