<svg version="1.1" xmlns="http://www.w3.org/2000/svg" xmlns:xlink="http://www.w3.org/1999/xlink" width="42.22783" height="77.31319" viewBox="0,0,42.22783,77.31319"><g transform="translate(-218.4975,-141.30048)"><g data-paper-data="{&quot;isPaintingLayer&quot;:true}" fill="#000000" fill-rule="evenodd" stroke="#000000" stroke-width="5" stroke-linecap="round" stroke-linejoin="miter" stroke-miterlimit="10" stroke-dasharray="" stroke-dashoffset="0" style="mix-blend-mode: normal"><path d="M227.6975,212.5005c-3.13333,-2.46667 -5.36667,-5.63333 -6.7,-9.5c-0.45733,-1.17667 -0.11367,-2.00067 1.031,-2.472c0.02291,-0.00956 0.04591,-0.0189 0.069,-0.028c0.10555,-0.04 0.21383,-0.07242 0.324,-0.097c0.89267,-0.196 1.518,0.303 1.876,1.497c1.13333,3.2 2.96667,5.81667 5.5,7.85c2.16207,1.72518 4.79224,2.76157 7.55,2.975c0.54855,0.0504 1.09914,0.07542 1.65,0.075c1.62845,0.0114 3.25403,-0.13833 4.853,-0.447c3.094,-0.62067 5.60967,-1.88833 7.547,-3.803c2.86667,-2.83333 4.3,-6.88333 4.3,-12.15c0.01061,-1.54624 -0.17146,-3.08778 -0.542,-4.589c-0.37606,-1.50617 -0.98614,-2.94399 -1.808,-4.261c-1.56667,-2.5 -3.68333,-4.43333 -6.35,-5.8c-2.66667,-1.36667 -5.7,-2.05 -9.1,-2.05c-1.16867,0 -1.825,-0.43533 -1.969,-1.306c-0.0211,-0.13026 -0.03147,-0.26204 -0.031,-0.394c0,-1.06533 0.58933,-1.63 1.768,-1.694c0.07727,-0.00409 0.15463,-0.00609 0.232,-0.006c4.78467,0 8.59733,-1.28567 11.438,-3.857c0.08838,-0.07986 0.17572,-0.16087 0.262,-0.243c2.28982,-2.18799 3.74741,-5.10424 4.123,-8.249c0.12029,-0.8785 0.17944,-1.7643 0.177,-2.651c0.00627,-1.10017 -0.08441,-2.19875 -0.271,-3.283c-0.32267,-1.80867 -0.93233,-3.36433 -1.829,-4.667c-1.4,-2.03333 -3.23333,-3.55 -5.5,-4.55c-2.26667,-1 -4.7,-1.5 -7.3,-1.5c-1.4514,-0.01329 -2.89612,0.19787 -4.283,0.626c-1.57719,0.49844 -3.03128,1.32448 -4.267,2.424c-2.3,2.03333 -4.08333,4.55 -5.35,7.55c-0.47467,1.06867 -1.13467,1.50267 -1.98,1.302c-0.10903,-0.02608 -0.21599,-0.06017 -0.32,-0.102c-0.1904,-0.06151 -0.37323,-0.14437 -0.545,-0.247c-0.744,-0.45467 -0.89567,-1.20567 -0.455,-2.253c0.67975,-1.63783 1.52266,-3.20305 2.516,-4.672c1.29254,-1.92761 2.93164,-3.59858 4.834,-4.928c1.64704,-1.1541 3.47324,-2.02852 5.405,-2.588c1.44632,-0.40816 2.94219,-0.61411 4.445,-0.612c2.03485,-0.01695 4.06282,0.23831 6.03,0.759c2.64182,0.70397 5.0809,2.01977 7.12,3.841c2.48525,2.23456 4.1543,5.23414 4.743,8.524c0.27908,1.44176 0.41541,2.90751 0.407,4.376c0.01706,2.09703 -0.30683,4.18289 -0.959,6.176c-0.48139,1.43974 -1.15085,2.80959 -1.991,4.074c-1.90714,2.87017 -4.66158,5.07442 -7.88,6.306c-0.12286,0.0492 -0.2462,0.09721 -0.37,0.144c3.86667,1.26667 7.01667,3.53333 9.45,6.8c2.10335,2.83981 3.3454,6.22474 3.578,9.751c0.04848,0.61514 0.0725,1.23196 0.072,1.849c0.01317,2.26319 -0.28392,4.5175 -0.883,6.7c-0.30574,1.09521 -0.69591,2.16508 -1.167,3.2c-1.3638,2.98525 -3.60732,5.48244 -6.43,7.157c-0.0233,0.01438 -0.04664,0.02872 -0.07,0.043c-1.43174,0.85172 -2.98051,1.48915 -4.597,1.892c-1.42,0.368 -2.968,0.61033 -4.644,0.727c-0.80182,0.05483 -1.60531,0.08184 -2.409,0.081c-2.01543,0.01716 -4.02152,-0.2756 -5.948,-0.868c-1.94152,-0.61034 -3.75526,-1.57008 -5.352,-2.832z"/></g></g></svg>