<svg version="1.1" xmlns="http://www.w3.org/2000/svg" xmlns:xlink="http://www.w3.org/1999/xlink" width="33.16674" height="33.16669" viewBox="0,0,33.16674,33.16669"><g transform="translate(-223.41663,-163.41666)"><g data-paper-data="{&quot;isPaintingLayer&quot;:true}" fill-rule="nonzero" stroke-linecap="butt" stroke-linejoin="miter" stroke-miterlimit="10" stroke-dasharray="" stroke-dashoffset="0" style="mix-blend-mode: normal"><g><path d="M224.66663,189.22947c0,-7.78097 0,-14.86472 0,-19.05396c0,-2.58374 2.71714,-5.50885 5.16751,-5.50885c4.22151,0 12.01347,0 19.84318,0c3.36645,0 5.65605,3.27388 5.65605,6.07258c0,4.29452 0,11.1398 0,18.71571c0,3.48096 -2.94622,5.87841 -5.54332,5.87841c-4.28218,0 -11.79944,0 -19.50493,0c-3.3434,0 -5.61847,-2.49693 -5.61847,-6.1039z" fill="#f0f6ff" stroke-opacity="0.25482" stroke="#2e4770" stroke-width="2.5"/><path d="M224.66663,189.22947c0,-7.78097 0,-14.86472 0,-19.05396c0,-2.58374 2.71714,-5.50885 5.16751,-5.50885c4.22151,0 12.01347,0 19.84318,0c3.36645,0 5.65605,3.27388 5.65605,6.07258c0,4.29452 0,11.1398 0,18.71571c0,3.48096 -2.94622,5.87841 -5.54332,5.87841c-4.28218,0 -11.79944,0 -19.50493,0c-3.3434,0 -5.61847,-2.49693 -5.61847,-6.1039z" fill="#f0f6ff" stroke="#2e4770" stroke-width="1"/><path d="M229.71048,172.5351c0,-1.67138 1.35493,-3.02631 3.02631,-3.02631c1.67138,0 3.02631,1.35493 3.02631,3.02631c0,1.67138 -1.35493,3.02631 -3.02631,3.02631c-1.67138,0 -3.02631,-1.35493 -3.02631,-3.02631z" fill="#1c2f5a" stroke="#ffffff" stroke-width="0"/><path d="M244.03507,187.86845c0,-1.67138 1.35493,-3.02631 3.02631,-3.02631c1.67138,0 3.02631,1.35493 3.02631,3.02631c0,1.67138 -1.35493,3.02631 -3.02631,3.02631c-1.67138,0 -3.02631,-1.35493 -3.02631,-3.02631z" fill="#1c2f5a" stroke="#ffffff" stroke-width="0"/><path d="M244.03507,172.73684c0,-1.67138 1.35493,-3.02631 3.02631,-3.02631c1.67138,0 3.02631,1.35493 3.02631,3.02631c0,1.67138 -1.35493,3.02631 -3.02631,3.02631c-1.67138,0 -3.02631,-1.35493 -3.02631,-3.02631z" fill="#1c2f5a" stroke="#ffffff" stroke-width="0"/><path d="M229.91224,187.66669c0,-1.67138 1.35493,-3.02631 3.02631,-3.02631c1.67138,0 3.02631,1.35493 3.02631,3.02631c0,1.67138 -1.35493,3.02631 -3.02631,3.02631c-1.67138,0 -3.02631,-1.35493 -3.02631,-3.02631z" fill="#1c2f5a" stroke="#ffffff" stroke-width="0"/></g></g></g></svg>