<svg version="1.1" xmlns="http://www.w3.org/2000/svg" xmlns:xlink="http://www.w3.org/1999/xlink" width="42.75895" height="76.34165" viewBox="-0.75,-0.75,42.75895,76.34165"><g transform="translate(-219.37232,-142.7495)"><g data-paper-data="{&quot;isPaintingLayer&quot;:true}" fill="#000000" fill-rule="evenodd" stroke="#000000" stroke-width="5" stroke-linecap="round" stroke-linejoin="miter" stroke-miterlimit="10" stroke-dasharray="" stroke-dashoffset="0" style="mix-blend-mode: normal"><path d="M229.78235,213.3995c-1.38107,-1.12795 -2.56577,-2.47687 -3.506,-3.992c-1.31867,-2.072 -2.4,-4.608 -3.244,-7.608c-1.44333,-5.132 -2.06867,-11.9 -1.876,-20.304c0.00748,-0.33203 0.01614,-0.66403 0.026,-0.996c0.07598,-3.23506 0.30189,-6.46486 0.677,-9.679c0.76933,-6.38333 2.14967,-11.557 4.141,-15.521c0.35936,-0.71894 0.75383,-1.41979 1.182,-2.1c1.30551,-2.12771 3.00811,-3.98444 5.015,-5.469c2.67733,-1.93533 5.82433,-3.001 9.441,-3.197c0.41428,-0.02258 0.8291,-0.03392 1.244,-0.034c2.90333,0 5.40867,0.48033 7.516,1.441c0.21407,0.09729 0.42548,0.20033 0.634,0.309c0.01768,0.00931 0.03535,0.01864 0.053,0.028c2.24452,1.19008 4.24501,2.79196 5.897,4.722c0.86067,0.86067 0.928,1.66433 0.202,2.411c-0.06442,0.06604 -0.13183,0.1291 -0.202,0.189c-0.13671,0.10686 -0.28537,0.19747 -0.443,0.27c-0.616,0.278 -1.249,0.16133 -1.899,-0.35c-0.12555,-0.09951 -0.24509,-0.20636 -0.358,-0.32c-1.2362,-1.43106 -2.72027,-2.62753 -4.381,-3.532c-0.13852,-0.07485 -0.2782,-0.14753 -0.419,-0.218c-1.72067,-0.86 -3.77667,-1.309 -6.168,-1.347c-0.11066,-0.00188 -0.22133,-0.00288 -0.332,-0.003c-1.42428,-0.01105 -2.84485,0.14672 -4.232,0.47c-2.07036,0.47185 -3.98653,1.46297 -5.568,2.88c-2.46667,2.23333 -4.31667,5.23333 -5.55,9c-0.71858,2.21944 -1.28161,4.48627 -1.685,6.784c-0.34434,1.94264 -0.5996,3.90002 -0.765,5.866c-0.34549,4.06448 -0.51698,8.14187 -0.514,12.221c-0.00008,0.69302 0.00459,1.38604 0.014,2.079c0.64731,-1.67093 1.53171,-3.24001 2.626,-4.659c1.04523,-1.34254 2.3032,-2.50491 3.724,-3.441c2.1788,-1.41868 4.65519,-2.31624 7.237,-2.623c0.93288,-0.11952 1.8725,-0.17864 2.813,-0.177c3.2,0 6.15,0.78333 8.85,2.35c2.47408,1.4462 4.54622,3.48946 6.027,5.943c0.16375,0.26539 0.32146,0.53446 0.473,0.807c0.93576,1.7085 1.59876,3.55276 1.965,5.466c0.30333,1.518 0.46467,3.14633 0.484,4.885c0.00097,0.11633 0.0013,0.23267 0.001,0.349c0.01056,1.89947 -0.18017,3.79472 -0.569,5.654c-0.37236,1.7681 -0.97096,3.48086 -1.781,5.096c-1.08254,2.18848 -2.58507,4.14258 -4.422,5.751c-0.65408,0.56618 -1.34859,1.08389 -2.078,1.549c-2.37526,1.50444 -5.088,2.39322 -7.893,2.586c-0.55127,0.04326 -1.10404,0.06461 -1.657,0.064c-2.07929,0.01949 -4.14601,-0.32435 -6.107,-1.016c-1.66315,-0.60186 -3.21515,-1.47501 -4.593,-2.584zM239.20935,213.5575c-7.43533,-0.504 -11.911,-5.52333 -13.427,-15.058c-0.152,-0.97133 -0.228,-1.91667 -0.228,-2.836c-0.01833,-2.21882 0.47007,-4.41254 1.428,-6.414c1.33333,-2.76667 3.28333,-4.98333 5.85,-6.65c2.56667,-1.66667 5.31667,-2.5 8.25,-2.5c4.33333,0 7.78333,1.51667 10.35,4.55c1.5589,1.85378 2.6675,4.04327 3.239,6.397c0.4196,1.71909 0.62483,3.4835 0.611,5.253c0,2.86667 -0.55,5.63333 -1.65,8.3c-0.01685,0.04173 -0.03385,0.0834 -0.051,0.125c-1.02721,2.51466 -2.69986,4.7137 -4.849,6.375c-1.34423,1.02162 -2.89428,1.73916 -4.543,2.103c-1.21658,0.27267 -2.46027,0.40587 -3.707,0.397c-0.42469,0.00037 -0.84926,-0.01364 -1.273,-0.042z"/></g></g></svg>