<svg version="1.1" xmlns="http://www.w3.org/2000/svg" xmlns:xlink="http://www.w3.org/1999/xlink" width="93.89357" height="53.91222" viewBox="0,0,93.89357,53.91222"><g transform="translate(-188.46906,-138.50366)"><g data-paper-data="{&quot;isPaintingLayer&quot;:true}" fill="#000000" fill-rule="evenodd" stroke="#000000" stroke-width="2" stroke-linecap="round" stroke-linejoin="miter" stroke-miterlimit="10" stroke-dasharray="" stroke-dashoffset="0" style="mix-blend-mode: normal"><path d="M203.94795,177.05651l0.27739,-0.98626c0.08219,-0.3493 0.30821,-0.52395 0.67806,-0.52395c0.04257,-0.00036 0.08503,0.00461 0.12637,0.01479c0.09309,0.02138 0.17137,0.08401 0.21266,0.17013c0.05671,0.11363 0.06113,0.26198 0.01325,0.44505c-0.00413,0.01611 -0.00854,0.03214 -0.01325,0.04808l-1.72596,6.50318c-0.16171,0.59258 -0.15852,1.02438 0.00955,1.2954c0.02381,0.03846 0.0516,0.0743 0.08291,0.10695c0.08463,0.08389 0.1851,0.15011 0.29557,0.19479c0.29341,0.12698 0.72912,0.19047 1.30711,0.19047c1.39926,0 2.52134,-0.35362 3.36624,-1.06085c0.11075,-0.09276 0.21651,-0.19132 0.31684,-0.29526c0.54142,-0.56909 0.92355,-1.27064 1.10801,-2.03417c0.13458,-0.52149 0.20188,-1.09681 0.20188,-1.72596c0,-1.29447 -0.25684,-2.50162 -0.77052,-3.62144c-0.51368,-1.11982 -1.21228,-2.10095 -2.09581,-2.94338c-0.88353,-0.84243 -1.89034,-1.49994 -3.02043,-1.97253c-1.13009,-0.47258 -2.31156,-0.70888 -3.54439,-0.70888c-1.45885,0 -2.83551,0.2517 -4.12998,0.75511c-1.29447,0.50341 -2.43484,1.22256 -3.4211,2.15745c-0.98626,0.9349 -1.76192,2.04958 -2.32697,3.34405c-0.43074,0.99978 -0.69877,2.06203 -0.79394,3.14649c-0.03618,0.38842 -0.05408,0.77832 -0.05363,1.16841c-0.00597,0.89602 0.09963,1.78929 0.31437,2.65921c0.21519,0.86158 0.56133,1.68504 1.02633,2.44162c0.8938,1.44858 2.14204,2.5684 3.74472,3.35946c1.09042,0.5309 2.25866,0.88414 3.46055,1.04636c0.6813,0.09512 1.36846,0.14198 2.05636,0.14023c1.37666,0 2.66086,-0.23116 3.85259,-0.69347c1.19174,-0.46231 2.23964,-1.10441 3.14372,-1.9263c0.29896,-0.29917 0.56905,-0.32732 0.81028,-0.08445c0.00743,0.00747 0.01473,0.01507 0.02188,0.02281c0.03752,0.03417 0.07159,0.07196 0.10171,0.1128c0.13212,0.18184 0.12061,0.37437 -0.03452,0.57758c-0.03018,0.03911 -0.06292,0.07618 -0.09801,0.11095c-1.00681,0.94517 -2.178,1.66946 -3.51357,2.17286c-1.2793,0.47687 -2.63079,0.73122 -3.99591,0.75203c-0.09604,0.00204 -0.19211,0.00307 -0.28817,0.00308c-1.15573,0.00662 -2.30819,-0.12331 -3.43343,-0.38711c-0.87442,-0.20795 -1.72307,-0.51226 -2.53038,-0.90736c-1.75678,-0.86298 -3.14372,-2.09067 -4.1608,-3.68308c-0.69692,-1.10582 -1.16021,-2.34254 -1.36135,-3.63408c-0.11175,-0.68872 -0.16669,-1.38546 -0.16427,-2.08318c-0.0061,-1.12375 0.13998,-2.24316 0.43426,-3.32772c0.12147,-0.44046 0.26979,-0.87306 0.44413,-1.2954c0.58559,-1.41775 1.41262,-2.65059 2.48107,-3.69849c1.06845,-1.04791 2.31669,-1.86466 3.74472,-2.45025c1.21498,-0.49227 2.50298,-0.78032 3.81191,-0.8525c0.28548,-0.01739 0.57142,-0.02602 0.85743,-0.02589c1.41775,0 2.75846,0.26711 4.02211,0.80134c1.26365,0.53423 2.38347,1.27906 3.35946,2.2345c0.97599,0.95544 1.74137,2.05472 2.29615,3.29782c0.55477,1.2431 0.83216,2.57353 0.83216,3.99129c0.00574,0.68971 -0.08155,1.37704 -0.25951,2.04342c-0.24092,0.89578 -0.69065,1.72174 -1.31235,2.41018c-0.70391,0.77136 -1.62813,1.30745 -2.64719,1.53549c-0.56423,0.13726 -1.18177,0.20588 -1.85264,0.20588c-0.31701,0.00219 -0.63367,-0.02151 -0.94681,-0.07089c-1.01852,-0.16849 -1.64809,-0.63799 -1.8887,-1.40851c-0.53589,0.65364 -1.27246,1.11222 -2.0955,1.30464c-0.42759,0.10931 -0.89688,0.16736 -1.40789,0.17414c-0.03421,0.00043 -0.06842,0.00064 -0.10263,0.00062c-0.41576,0.00315 -0.83023,-0.04656 -1.23345,-0.14794c-0.49127,-0.12417 -0.95235,-0.34643 -1.3555,-0.6534c-0.55785,-0.42909 -0.96644,-1.02293 -1.1678,-1.6973c-0.06014,-0.19114 -0.1076,-0.38605 -0.14208,-0.58344c-0.04208,-0.24115 -0.06425,-0.48536 -0.06626,-0.73014c-0.0076,-0.68956 0.12811,-1.45186 0.40714,-2.2869c0.05241,-0.15646 0.10831,-0.31174 0.16766,-0.4657c0.20658,-0.53074 0.47504,-1.03527 0.7998,-1.50313c0.34179,-0.49053 0.75829,-0.92451 1.23437,-1.28615c0.88353,-0.66778 1.88007,-1.00167 2.98961,-1.00167c0.80134,0 1.51022,0.15924 2.12663,0.47772c0.61642,0.31848 1.089,0.76538 1.41775,1.3407zM227.43337,190.30943l6.84221,-10.6948l-6.04087,-9.40033c-0.0288,-0.04296 -0.05584,-0.08707 -0.08106,-0.13222c-0.22027,-0.39718 -0.09986,-0.59957 0.36122,-0.60717c0.00935,-0.00018 0.0187,-0.00028 0.02805,-0.00031c0.10963,-0.00134 0.21868,0.01617 0.32239,0.05178c0.16602,0.05918 0.30091,0.1689 0.40468,0.32917c0.00429,0.00653 0.0085,0.0131 0.01264,0.01973l5.60938,8.7531l5.67102,-8.7531c0.06474,-0.09604 0.14579,-0.18001 0.23948,-0.24811c0.14631,-0.10268 0.32151,-0.15611 0.50022,-0.15256c0.22602,0 0.36471,0.07192 0.41608,0.21575c0.01354,0.03851 0.02032,0.07907 0.02003,0.11989c0,0.11753 -0.0525,0.2515 -0.15749,0.4019c-0.00041,0.00072 -0.00082,0.00144 -0.00123,0.00216l-6.04087,9.40033l6.87303,10.6948c0.03194,0.03971 0.06147,0.08129 0.08846,0.12452c0.06616,0.10664 0.09924,0.20383 0.09924,0.29156c0.0002,0.03674 -0.00595,0.07323 -0.01818,0.10787c-0.02417,0.06494 -0.07271,0.1179 -0.1353,0.14763c-0.0713,0.03719 -0.16777,0.05918 -0.28941,0.06596c-0.02792,0.00149 -0.05587,0.00221 -0.08383,0.00216c-0.24777,0.00554 -0.48529,-0.09884 -0.64878,-0.28509c-0.03279,-0.03651 -0.06316,-0.07511 -0.09092,-0.11558l-6.44154,-10.01675l-6.41072,10.01675c-0.06776,0.11411 -0.1618,0.21038 -0.2743,0.28078c-0.13047,0.07993 -0.28561,0.11989 -0.46539,0.11989c-0.11589,0 -0.20948,-0.01541 -0.28078,-0.04623c-0.08694,-0.03266 -0.15012,-0.10886 -0.16612,-0.20033c-0.03082,-0.16438 0.01541,-0.32875 0.13869,-0.49313zM255.66518,183.99118v-3.1129c0,-0.97126 -0.11887,-1.72607 -0.3566,-2.2644c-0.02314,-0.05254 -0.04812,-0.10424 -0.07489,-0.15503c-0.27712,-0.52973 -0.75132,-0.92933 -1.32036,-1.11263c-0.01189,-0.00419 -0.02381,-0.0083 -0.03575,-0.01233c-0.43149,-0.14383 -0.95842,-0.23732 -1.5808,-0.28047c-0.28428,-0.01908 -0.56913,-0.02833 -0.85404,-0.02774c-0.71669,0 -1.50559,0.11085 -2.36673,0.33256c-0.02786,0.0072 -0.05571,0.0145 -0.08352,0.02188c-0.50941,0.13333 -1.01025,0.2975 -1.49974,0.49159c-0.313,0.12456 -0.61991,0.26393 -0.91969,0.41762c-0.32567,0.14465 -0.57173,0.11424 -0.73816,-0.09123c-0.02354,-0.02948 -0.04467,-0.06082 -0.06318,-0.0937c-0.20342,-0.30513 -0.11486,-0.54984 0.26567,-0.73415c0.0039,-0.00187 0.0078,-0.00372 0.01171,-0.00555c0.48558,-0.2536 0.98837,-0.47276 1.50467,-0.65587c0.38201,-0.13624 0.76944,-0.25674 1.16133,-0.36122c0.41444,-0.11222 0.83423,-0.20367 1.2578,-0.274c0.51758,-0.08445 1.00753,-0.12667 1.46984,-0.12667c0.47652,-0.00223 0.95272,0.02546 1.42577,0.08291c1.00907,0.1278 1.80949,0.40334 2.40125,0.82661c0.06152,0.04397 0.12146,0.09013 0.17969,0.13839c0.3465,0.29663 0.61854,0.67044 0.79425,1.09136c0.31293,0.70949 0.4694,1.64018 0.4694,2.79205v8.81474c-0.00041,0.06829 0.0035,0.13654 0.01171,0.20434c0.0187,0.14547 0.05918,0.25581 0.12143,0.33101c0.027,0.03322 0.06031,0.06077 0.09801,0.08106c0.13232,0.07068 0.37478,0.08825 0.72737,0.0527c0.06074,-0.00624 0.12136,-0.01353 0.18184,-0.02188c0.03013,-0.00393 0.06034,-0.00722 0.09061,-0.00986c0.41218,-0.03596 0.61826,0.08034 0.61826,0.34889c0,0.32875 -0.17465,0.52395 -0.52395,0.58559c-0.30821,0.06164 -0.60614,0.09246 -0.8938,0.09246c-0.38711,0 -0.68556,-0.04109 -0.89534,-0.12328c-0.05332,-0.02047 -0.10444,-0.04629 -0.15256,-0.07705c-0.10929,-0.0726 -0.19659,-0.17376 -0.25242,-0.29249c-0.03781,-0.07705 -0.0676,-0.16458 -0.08938,-0.26259c-0.01218,-0.0559 -0.02154,-0.11237 -0.02805,-0.16921c-0.04109,-0.3493 -0.06164,-0.83216 -0.06164,-1.44858c-0.39577,0.46044 -0.86811,0.84905 -1.39618,1.14869c-0.12799,0.07373 -0.25855,0.14292 -0.39142,0.20742c-0.71915,0.3493 -1.48453,0.60614 -2.29615,0.77052c-0.51209,0.10506 -1.03029,0.17774 -1.55152,0.21759c-0.25804,0.01919 -0.5167,0.02885 -0.77545,0.02897c-1.11181,0 -2.04414,-0.214 -2.79698,-0.642c-0.16391,-0.0932 -0.32098,-0.19794 -0.47002,-0.31345c-0.82189,-0.63696 -1.23283,-1.57186 -1.23283,-2.80469c-0.00344,-0.92207 0.3496,-1.8098 0.98534,-2.47768c0.01052,-0.01146 0.02111,-0.02286 0.03175,-0.03421c0.48371,-0.51501 1.04686,-0.94914 1.66802,-1.28584c0.30265,-0.16604 0.61537,-0.31303 0.93633,-0.44012c1.05818,-0.42122 2.15232,-0.63183 3.28241,-0.63183c1.19112,0 2.18622,0.1914 2.9853,0.57419c0.37358,0.17648 0.71802,0.40898 1.0214,0.68946zM264.01761,190.43272v-13.03718h-2.55812c-0.41094,0 -0.61642,-0.18492 -0.61642,-0.55477c0,-0.32834 0.18153,-0.50238 0.5446,-0.5221c0.02392,-0.00127 0.04786,-0.00188 0.07181,-0.00185h2.55812v-3.08208c-0.0015,-0.34835 0.01961,-0.69643 0.06318,-1.04205c0.04767,-0.36553 0.12256,-0.69881 0.22468,-0.99983c0.08877,-0.26776 0.20943,-0.52387 0.35937,-0.76281c0.19222,-0.30695 0.42438,-0.58699 0.69038,-0.83278c0.27327,-0.25088 0.5869,-0.45386 0.9277,-0.60039c0.38642,-0.16801 0.79196,-0.28808 1.20756,-0.35752c0.23762,-0.0388 0.47798,-0.05839 0.71874,-0.05856c0.18196,-0.00046 0.36386,0.00674 0.54522,0.02157c0.18698,0.01582 0.36101,0.04027 0.5221,0.07335c0.08157,0.01666 0.16248,0.0364 0.24256,0.05918c0.35259,0.10068 0.51255,0.29043 0.47988,0.56926c-0.00065,0.00545 -0.00137,0.0109 -0.00216,0.01634c-0.0187,0.16705 -0.10017,0.27965 -0.24441,0.3378c-0.01585,0.00632 -0.032,0.01187 -0.04839,0.01664c-0.14568,0.04274 -0.30913,0.05342 -0.49036,0.03205c-0.03705,-0.0044 -0.07395,-0.00995 -0.11065,-0.01664c-0.05966,-0.01337 -0.11968,-0.02509 -0.17999,-0.03514c-0.05712,-0.00945 -0.11044,-0.01634 -0.15996,-0.02065c-0.04068,-0.00375 -0.08151,-0.0057 -0.12236,-0.00586h-0.43149c-0.86298,0 -1.60268,0.27739 -2.21909,0.83216c-0.28133,0.25983 -0.49784,0.582 -0.63213,0.94065c-0.10664,0.2702 -0.18421,0.57532 -0.2327,0.91538c-0.04144,0.30417 -0.06142,0.61087 -0.05979,0.91784v3.08208h4.31491c0.36019,0 0.56248,0.13417 0.60686,0.40252c0.0065,0.04015 0.0097,0.08076 0.00955,0.12143c0,0.36307 -0.19807,0.54789 -0.59422,0.55447c-0.0074,0.00016 -0.01479,0.00027 -0.02219,0.00031h-4.31491v13.03718c0,0.36019 -0.13428,0.56258 -0.40283,0.60717c-0.04006,0.00638 -0.08057,0.00948 -0.12113,0.00925c-0.32855,0 -0.50258,-0.18164 -0.5221,-0.54491c-0.00126,-0.02381 -0.00188,-0.04766 -0.00185,-0.0715zM249.40857,190.30943c0.78423,0.00359 1.56597,-0.08852 2.32789,-0.2743c0.26522,-0.06566 0.52718,-0.14382 0.785,-0.23424c0.96572,-0.33903 1.74651,-0.82702 2.34238,-1.46399c0.59587,-0.63696 0.86298,-1.41775 0.80134,-2.34238c-0.04189,-0.57474 -0.34172,-1.09961 -0.81552,-1.42762c-0.11298,-0.08237 -0.23186,-0.15633 -0.35567,-0.22129c-0.33139,-0.17158 -0.68304,-0.30081 -1.04667,-0.38464c-0.32239,-0.07726 -0.6722,-0.13037 -1.04945,-0.15934c-0.23577,-0.01778 -0.47213,-0.02651 -0.70857,-0.0262c-0.92462,0 -1.83384,0.15924 -2.72764,0.47772c-0.4534,0.159 -0.88866,0.36562 -1.29848,0.61642c-0.33702,0.20725 -0.65083,0.45007 -0.93603,0.72429c-0.26447,0.24972 -0.48128,0.54549 -0.63984,0.87284c-0.17053,0.36321 -0.25732,0.76009 -0.25396,1.16133c-0.00305,0.27753 0.03285,0.55412 0.10664,0.82168c0.13951,0.50462 0.46476,0.93777 0.91045,1.21249c0.67806,0.43149 1.53076,0.64724 2.55812,0.64724zM202.59184,182.04947l0.95544,-3.51357c-0.09051,-0.59145 -0.40889,-1.12399 -0.88702,-1.48371c-0.05233,-0.04138 -0.10599,-0.08106 -0.16088,-0.11897c-0.50214,-0.34344 -1.08533,-0.54967 -1.69175,-0.59823c-0.13434,-0.01225 -0.26917,-0.01832 -0.40406,-0.01818c-0.88353,0 -1.67973,0.27225 -2.38861,0.81675c-0.51029,0.39667 -0.93368,0.89391 -1.24393,1.4609c-0.14395,0.25877 -0.26899,0.52761 -0.37416,0.80442c-0.12382,0.31763 -0.22799,0.64258 -0.31191,0.97301c-0.25561,1.02263 -0.23383,1.91572 0.06534,2.67925c0.37601,0.95996 1.20026,1.45762 2.47275,1.49296c0.04899,0.00129 0.098,0.00191 0.14702,0.00185c0.25371,-0.00095 0.50694,-0.02219 0.75727,-0.06349c0.21213,-0.0346 0.42231,-0.08027 0.62967,-0.13684c0.41023,-0.11306 0.79673,-0.2991 1.14098,-0.54923c0.08429,-0.06046 0.16633,-0.12399 0.24595,-0.19047c0.39101,-0.32588 0.71453,-0.78254 0.97055,-1.36998c0.0269,-0.06169 0.05269,-0.12385 0.07736,-0.18647zM223.36503,183.68297h-7.92093c-0.12338,0.00011 -0.2427,-0.04407 -0.33625,-0.12452c-0.01704,-0.01421 -0.03339,-0.02923 -0.04901,-0.045c-0.04528,-0.04431 -0.08343,-0.09536 -0.11311,-0.15133c-0.03752,-0.07224 -0.05688,-0.15253 -0.0564,-0.23393c-0.00109,-0.07673 0.00771,-0.15328 0.0262,-0.22777c0.05137,-0.19376 0.17732,-0.30882 0.37786,-0.34519c0.04976,-0.0087 0.1002,-0.01293 0.15071,-0.01264h7.92093c0.07537,-0.00111 0.15048,0.00907 0.22283,0.0302c0.22129,0.06842 0.33194,0.25355 0.33194,0.55539c0.00028,0.13796 -0.05094,0.27106 -0.14362,0.37324c-0.00345,0.00405 -0.00694,0.00805 -0.01048,0.01202c-0.10274,0.11301 -0.23629,0.16951 -0.40067,0.16951zM281.21559,183.68297h-7.92093c-0.12338,0.00011 -0.2427,-0.04407 -0.33625,-0.12452c-0.01704,-0.01421 -0.03339,-0.02923 -0.04901,-0.045c-0.04528,-0.04431 -0.08343,-0.09536 -0.11311,-0.15133c-0.03752,-0.07224 -0.05688,-0.15253 -0.0564,-0.23393c-0.00109,-0.07673 0.00771,-0.15328 0.0262,-0.22777c0.05137,-0.19376 0.17732,-0.30882 0.37786,-0.34519c0.04976,-0.0087 0.1002,-0.01293 0.15071,-0.01264h7.92093c0.07537,-0.00111 0.15048,0.00907 0.22283,0.0302c0.22129,0.06842 0.33194,0.25355 0.33194,0.55539c0.00028,0.13796 -0.05094,0.27106 -0.14362,0.37324c-0.00345,0.00405 -0.00694,0.00805 -0.01048,0.01202c-0.10274,0.11301 -0.23629,0.16951 -0.40067,0.16951z"/><path d="M243.13322,155.19427v-14.34442c0,-0.24777 0.10056,-0.38962 0.30167,-0.42555c0.03675,-0.00632 0.07399,-0.00937 0.11128,-0.00913c0.17464,-0.00384 0.34204,0.06976 0.45728,0.20104c0.0232,0.02574 0.04469,0.05296 0.06433,0.0815l5.45523,7.82423l5.43349,-7.82423c0.12316,-0.17778 0.29138,-0.27167 0.50466,-0.28167c0.01289,-0.00059 0.02579,-0.00088 0.03869,-0.00087c0.0581,-0.00086 0.11603,0.00639 0.17213,0.02152c0.17503,0.05013 0.26255,0.18785 0.26255,0.41316v14.34442c0,0.28979 -0.1304,0.43468 -0.39121,0.43468c-0.25603,0 -0.38636,-0.13968 -0.39099,-0.41903c-0.00012,-0.00522 -0.00019,-0.01043 -0.00022,-0.01565v-13.47506l-5.23789,7.60689c-0.09896,0.14301 -0.19379,0.23168 -0.2845,0.26602c-0.02708,0.01065 -0.05588,0.01625 -0.08498,0.01652c-0.0562,-0.00096 -0.1111,-0.01711 -0.15888,-0.04673c-0.06839,-0.04014 -0.13678,-0.10613 -0.20517,-0.198c-0.00927,-0.01245 -0.01833,-0.02506 -0.02717,-0.03782l-5.28135,-7.60689v13.47506c0,0.254 -0.09462,0.39664 -0.28385,0.42794c-0.02831,0.00459 -0.05695,0.00684 -0.08563,0.00674c-0.23154,0 -0.35426,-0.12809 -0.36817,-0.38426c-0.00089,-0.01679 -0.00132,-0.03361 -0.0013,-0.05042zM238.80816,154.0641v-5.15095h-3.19489c-0.28979,0 -0.43468,-0.1304 -0.43468,-0.39121c0,-0.23168 0.12809,-0.35441 0.38426,-0.36817c0.01679,-0.00089 0.03361,-0.00132 0.05042,-0.0013h3.5209c0.0581,-0.00086 0.11603,0.00639 0.17213,0.02152c0.17503,0.05013 0.26255,0.18785 0.26255,0.41316v5.5639c0,0.18474 -0.02094,0.30667 -0.06281,0.36578c-0.00667,0.00968 -0.01481,0.01826 -0.02412,0.02543c-0.16547,0.11678 -0.3702,0.24009 -0.6142,0.36991c-0.12723,0.06758 -0.25577,0.13265 -0.38556,0.19517c-0.18333,0.08764 -0.37099,0.16591 -0.56226,0.23451c-0.18648,0.06767 -0.38694,0.13185 -0.60138,0.19256c-0.13309,0.03755 -0.26685,0.07269 -0.40121,0.10541c-0.62304,0.15214 -1.37648,0.22821 -2.26033,0.22821c-0.82354,0.00682 -1.64166,-0.13369 -2.41573,-0.4149c-0.42078,-0.15583 -0.82399,-0.35551 -1.20297,-0.59573c-1.04002,-0.66178 -1.8862,-1.58722 -2.45246,-2.68219c-0.01955,-0.03673 -0.03882,-0.07361 -0.05781,-0.11063c-0.60855,-1.18812 -0.91283,-2.55012 -0.91283,-4.08599c-0.00444,-0.75693 0.07952,-1.51179 0.25016,-2.24925c0.14667,-0.6261 0.3692,-1.23196 0.66267,-1.80414c0.44649,-0.88566 1.07262,-1.66856 1.83848,-2.2988c0.21409,-0.17432 0.43842,-0.33565 0.6718,-0.48315c1.06496,-0.67375 2.2712,-1.01063 3.61871,-1.01063c0.74619,-0.00717 1.489,0.10111 2.20209,0.32101c0.91744,0.28998 1.75051,0.79894 2.42725,1.48291c0.02582,0.02947 0.04957,0.0607 0.07107,0.09346c0.11562,0.17822 0.09918,0.33543 -0.04934,0.47163c-0.02528,0.02567 -0.05343,0.04835 -0.08389,0.06759c-0.14852,0.09215 -0.31167,0.05223 -0.48945,-0.11975c-0.00453,-0.00431 -0.00902,-0.00866 -0.01348,-0.01304c-0.80394,-0.7999 -1.84797,-1.31417 -2.97212,-1.464c-0.36153,-0.05381 -0.72662,-0.08026 -1.09213,-0.07911c-0.63793,-0.00481 -1.27316,0.08342 -1.88564,0.26189c-0.49627,0.14751 -0.96977,0.3629 -1.40706,0.64007c-0.92583,0.58955 -1.67458,1.41897 -2.16666,2.40008c-0.01699,0.03298 -0.03373,0.06609 -0.05021,0.09932c-0.52886,1.06496 -0.79329,2.29293 -0.79329,3.68391c-0.00355,0.65625 0.06084,1.31111 0.19213,1.9541c0.12535,0.61045 0.32734,1.2026 0.60116,1.76241c0.34966,0.7241 0.83405,1.37497 1.42727,1.91781c0.24606,0.2226 0.51017,0.4244 0.78959,0.60333c0.80175,0.50921 1.71646,0.81337 2.6635,0.88566c0.20924,0.01821 0.41917,0.02727 0.6292,0.02717c0.35451,0.00091 0.70885,-0.01578 1.0617,-0.04999c0.42917,-0.04274 0.82509,-0.11302 1.18776,-0.21082c0.55875,-0.15257 1.09848,-0.36772 1.60897,-0.64137c0.09861,-0.05239 0.19622,-0.10666 0.29276,-0.16279zM220.37776,155.62895h-5.19442c-0.04644,0.00062 -0.09275,-0.00524 -0.13758,-0.01739c-0.10287,-0.02941 -0.168,-0.09664 -0.19539,-0.20169c-0.01035,-0.04209 -0.01532,-0.08532 -0.01478,-0.12867v-14.51829c-0.00064,-0.04652 0.00522,-0.09289 0.01739,-0.13779c0.02941,-0.10287 0.09664,-0.16793 0.20169,-0.19517c0.04209,-0.01035 0.08532,-0.01532 0.12867,-0.01478h4.78147c0.39562,-0.00216 0.79091,0.02333 1.18298,0.07629c0.95847,0.13533 1.67982,0.4504 2.16405,0.94521c0.42412,0.43952 0.72098,0.98593 0.85893,1.58093c0.0881,0.35441 0.1349,0.74113 0.1404,1.16016c0.00033,0.02811 0.00047,0.05622 0.00043,0.08433c0,0.78242 -0.19561,1.4598 -0.58682,2.03213c-0.39121,0.57233 -0.91283,1.00338 -1.56485,1.29317c0.46507,0.15558 0.903,0.38283 1.29795,0.67354c0.3358,0.25045 0.63107,0.55107 0.87544,0.89131c0.52162,0.72447 0.78242,1.53587 0.78242,2.4342c0.00329,0.40852 -0.04018,0.81607 -0.12953,1.21471c-0.16518,0.70925 -0.48785,1.29687 -0.96803,1.76284c-0.7036,0.68259 -1.85268,1.037 -3.44722,1.06323c-0.0644,0.00111 -0.12881,0.00169 -0.19321,0.00174zM215.57455,148.00032v6.86793h4.80321c1.41995,0 2.43783,-0.27167 3.05362,-0.81502c0.54972,-0.4851 0.85407,-1.19233 0.91304,-2.12167c0.0072,-0.1149 0.01075,-0.23001 0.01065,-0.34514c0.00467,-0.4239 -0.06265,-0.84551 -0.19908,-1.24688c-0.18425,-0.5224 -0.5014,-0.98779 -0.92022,-1.35033c-0.7462,-0.65926 -1.72785,-0.9889 -2.94495,-0.9889zM215.57455,141.15413v6.10724h4.71627c0.32948,0.00255 0.65821,-0.03193 0.97998,-0.1028c0.46047,-0.10519 0.85726,-0.29124 1.19037,-0.55813c0.08106,-0.06493 0.15828,-0.13452 0.23125,-0.20843c0.56086,-0.5577 0.87077,-1.31952 0.85849,-2.11037c0.00002,-0.00652 0.00002,-0.01304 0,-0.01956c0,-1.07221 -0.28254,-1.85825 -0.84762,-2.35814c-0.23623,-0.20302 -0.50809,-0.36043 -0.80177,-0.46424c-0.51307,-0.19039 -1.15864,-0.28558 -1.93671,-0.28558z"/></g></g></svg>