<svg version="1.1" xmlns="http://www.w3.org/2000/svg" xmlns:xlink="http://www.w3.org/1999/xlink" width="218.35479" height="57.7634" viewBox="0,0,218.35479,57.7634"><g transform="translate(-130.78035,-133.59209)"><g data-paper-data="{&quot;isPaintingLayer&quot;:true}" fill="#000000" fill-rule="evenodd" stroke="#000000" stroke-width="1.5" stroke-linecap="round" stroke-linejoin="miter" stroke-miterlimit="10" stroke-dasharray="" stroke-dashoffset="0" style="mix-blend-mode: normal"><path d="M134.76736,151.23323c0.01817,0.03418 0.0415,0.06535 0.06916,0.09242c0.00961,0.0097 0.01968,0.01893 0.03018,0.02766c0.05721,0.04916 0.13017,0.07615 0.2056,0.07608c0.0065,-0.00006 0.013,-0.00027 0.01949,-0.00063c0.08626,-0.00167 0.16798,-0.039 0.22572,-0.10311c0.00212,-0.00249 0.00422,-0.00501 0.00629,-0.00754c0.05673,-0.06247 0.08812,-0.14385 0.08802,-0.22823v-8.18621c0.40239,-0.03772 0.78907,-0.07545 1.16003,-0.11317c0.37096,-0.03772 0.69476,-0.07545 0.97141,-0.11317l0.29236,0.58473c0.02359,0.04741 0.04686,0.09499 0.06979,0.14272c0.06463,0.13336 0.12626,0.26816 0.18485,0.40428c0.02096,0.04862 0.0503,0.0876 0.08802,0.11695c0.03275,0.02482 0.07017,0.04279 0.11003,0.05281c0.00873,0.00239 0.01754,0.00449 0.02641,0.00629c0.08383,0.01635 0.15991,0.00168 0.22823,-0.04401c0.01702,-0.0095 0.0336,-0.01978 0.04967,-0.03081c0.15802,-0.1094 0.18548,-0.25003 0.08237,-0.42189c-0.03253,-0.0685 -0.06544,-0.13683 -0.09871,-0.20497c-0.10144,-0.20832 -0.21168,-0.42671 -0.33072,-0.65515c-0.13055,-0.2493 -0.26407,-0.49704 -0.40051,-0.74317c-0.32695,-0.59102 -0.62874,-1.08144 -0.90539,-1.47126c-0.00876,-0.0125 -0.01799,-0.02466 -0.02766,-0.03647c-0.10186,-0.12156 -0.21922,-0.15383 -0.3521,-0.09683c-0.02535,0.01095 -0.04974,0.02399 -0.07293,0.03898c-0.00619,0.00403 -0.01227,0.00822 -0.01823,0.01257c-0.06233,0.04472 -0.10616,0.11069 -0.12323,0.18548c-0.00119,0.00542 -0.00224,0.01087 -0.00314,0.01635c-0.00713,0.03982 -0.00587,0.07713 0.00377,0.11192c0.00931,0.03241 0.02515,0.06258 0.04653,0.08865c0.07118,0.10189 0.14056,0.20502 0.20811,0.30934c0.10395,0.16054 0.21251,0.33596 0.32569,0.52626c0.12068,0.2038 0.23827,0.40943 0.35272,0.6168c-0.00545,0.00063 -0.0109,0.00126 -0.01635,0.00189c-0.46275,0.04946 -1.03575,0.09913 -1.71898,0.14901c-0.69162,0.0503 -1.37066,0.08802 -2.03712,0.11317c0.22443,-0.28439 0.44368,-0.57282 0.65766,-0.86515c0.23519,-0.32116 0.46555,-0.64584 0.69099,-0.97392c0.47156,-0.68533 0.92425,-1.3738 1.35808,-2.06542c0.24395,-0.38898 0.46506,-0.75805 0.66332,-1.10721c0.14608,-0.25657 0.28654,-0.5163 0.42126,-0.77901c0.00359,-0.00808 0.00694,-0.01625 0.01006,-0.02452c0.0285,-0.08006 0.03144,-0.15991 0.0088,-0.23955c-0.01296,-0.04769 -0.03834,-0.09108 -0.07356,-0.12575c-0.0279,-0.02672 -0.06052,-0.04804 -0.0962,-0.06287c-0.01147,-0.0077 -0.02345,-0.01463 -0.03584,-0.02075c-0.04527,-0.02222 -0.09159,-0.02997 -0.13895,-0.02326c-0.02087,0.00286 -0.04134,0.00813 -0.06099,0.01572c-0.08174,0.03144 -0.14147,0.08488 -0.17919,0.16033c-0.17605,0.33952 -0.41183,0.76392 -0.70733,1.2732c-0.09404,0.16203 -0.18919,0.32341 -0.28545,0.48413c-0.22362,0.373 -0.45229,0.74294 -0.68596,1.10973c-0.2012,-0.17605 -0.42126,-0.3741 -0.66018,-0.59416c-0.23892,-0.22006 -0.48413,-0.43698 -0.73563,-0.65075c0.17218,-0.23911 0.33802,-0.48273 0.49733,-0.7306c0.17658,-0.27461 0.34722,-0.553 0.5118,-0.83497c0.19449,-0.33239 0.36802,-0.64697 0.5206,-0.94374c0.11225,-0.2169 0.21855,-0.43684 0.31877,-0.65955c0.01074,-0.01864 0.01979,-0.03821 0.02704,-0.05847c0.01341,-0.03772 0.01844,-0.07482 0.01509,-0.11129c-0.00282,-0.02942 -0.01069,-0.05813 -0.02326,-0.08488c-0.01797,-0.03914 -0.04313,-0.07454 -0.07419,-0.10437c-0.03329,-0.03168 -0.07206,-0.05703 -0.11443,-0.07482c-0.03821,-0.01113 -0.07778,-0.01684 -0.11757,-0.01698c-0.04862,0 -0.09745,0.0088 -0.1465,0.02641c-0.04101,0.01421 -0.07867,0.03668 -0.11066,0.06602c-0.03368,0.0318 -0.06025,0.07037 -0.07796,0.11317c-0.07084,0.16515 -0.1576,0.34853 -0.2603,0.55015c-0.06551,0.12877 -0.13279,0.25662 -0.20183,0.38353c-0.19491,0.35838 -0.40239,0.71991 -0.62245,1.08458c-0.22006,0.36467 -0.4244,0.69162 -0.61302,0.98084c-0.05792,-0.05029 -0.11618,-0.10017 -0.17479,-0.14964c-0.12234,-0.10313 -0.24643,-0.20416 -0.37221,-0.30305c-0.17605,-0.13832 -0.34581,-0.27036 -0.50928,-0.39611c-0.00639,-0.00496 -0.01289,-0.00978 -0.01949,-0.01446c-0.12784,-0.09012 -0.25192,-0.09494 -0.37221,-0.01446c-0.02873,0.01956 -0.05547,0.04188 -0.07985,0.06665c-0.02761,0.02765 -0.04736,0.06216 -0.05722,0.09997c-0.00671,0.02473 -0.01006,0.05156 -0.01006,0.08048c0.00012,0.00902 0.00054,0.01804 0.00126,0.02704c0.00629,0.08802 0.04087,0.16347 0.10374,0.22635c0.16976,0.1203 0.34937,0.25548 0.53883,0.40554c0.15562,0.12328 0.30926,0.24905 0.46087,0.37724c0.36467,0.30808 0.7262,0.62245 1.08458,0.94311c0.22383,0.20036 0.42692,0.3873 0.60925,0.56084c0.10308,0.09787 0.20494,0.197 0.30557,0.29739c-0.02113,0.03293 -0.0423,0.06583 -0.0635,0.09871c-0.30936,0.47922 -0.62777,0.95254 -0.95506,1.4197c-0.33952,0.48413 -0.6476,0.88967 -0.92425,1.21661c-0.09826,0.0061 -0.19655,0.01155 -0.29488,0.01635c-0.09344,0.00467 -0.18692,0.00865 -0.28042,0.01195c-0.05597,0.00196 -0.11193,0.00427 -0.16787,0.00692c-0.11705,0.00537 -0.23401,0.0125 -0.35084,0.02138c-0.04716,0.00013 -0.09342,0.01294 -0.13392,0.0371c-0.02689,0.01581 -0.05162,0.03504 -0.07356,0.05722c-0.01553,0.01529 -0.02943,0.03215 -0.0415,0.0503c-0.03186,0.04904 -0.04317,0.10144 -0.03395,0.15719c-0.00055,0.05334 0.01477,0.10565 0.04401,0.15027c0.01912,0.02868 0.04243,0.05432 0.06916,0.07608c0.01373,0.01145 0.02823,0.02195 0.04338,0.03144c0.0503,0.03144 0.10311,0.04716 0.15844,0.04716c0.01452,-0.00002 0.02901,-0.00107 0.04338,-0.00314c0.36467,-0.02515 0.81422,-0.05344 1.34865,-0.08488c0.03353,-0.00188 0.06707,-0.00376 0.1006,-0.00566c0.51673,-0.03081 1.03335,-0.06351 1.54985,-0.09808v8.12963c-0.0003,0.04989 0.01157,0.09909 0.03458,0.14335zM343.38693,134.86835c0.0197,-0.15886 -0.035,-0.2668 -0.1641,-0.3238c-0.03809,-0.01623 -0.07798,-0.02784 -0.11883,-0.03458c-0.15551,-0.01928 -0.26596,0.02892 -0.33135,0.14461c-0.02058,0.03759 -0.03602,0.07776 -0.0459,0.11946c-0.11317,0.85509 -0.30808,1.75419 -0.58473,2.6973c-0.27665,0.94311 -0.61617,1.85479 -1.01856,2.73503c-0.13488,0.29564 -0.28,0.58651 -0.43509,0.87206c-0.27653,0.51199 -0.59138,1.00234 -0.94185,1.46685c-0.0503,0.06287 -0.06916,0.13832 -0.05659,0.22635c0.01257,0.08802 0.0503,0.15719 0.11317,0.20748c0.01875,0.01124 0.03805,0.02152 0.05784,0.03081c0.1291,0.06078 0.23536,0.04988 0.31877,-0.03269c0.02194,-0.02215 0.04115,-0.04685 0.05722,-0.07356c0.3018,-0.40239 0.58473,-0.83937 0.8488,-1.31093c0.26407,-0.47156 0.51557,-0.96512 0.75449,-1.48069c0.01168,0.16597 0.02573,0.33176 0.04213,0.49733c0.09915,1.04042 0.30305,2.06817 0.60862,3.06763c0.34581,1.11916 0.83308,2.16916 1.46182,3.14999c-0.54072,0.81736 -1.21347,1.5467 -2.01826,2.18802c-0.36232,0.28761 -0.74427,0.54959 -1.14305,0.78404c-0.55216,0.32349 -1.12855,0.6037 -1.72401,0.83811c-0.0104,0.00454 -0.02067,0.00937 -0.03081,0.01446c-0.09557,0.04904 -0.1576,0.11338 -0.18611,0.19302c-0.01425,0.04024 -0.02138,0.07901 -0.02138,0.11632c-0.00001,0.04479 0.01055,0.08895 0.03081,0.12889c0.08802,0.16515 0.22425,0.22425 0.40868,0.17731c0.02776,-0.00713 0.05505,-0.01595 0.08174,-0.02641c0.467,-0.206 0.92455,-0.43278 1.37129,-0.67967c0.5296,-0.29191 1.03879,-0.6194 1.52407,-0.98021c0.82365,-0.61617 1.5247,-1.33922 2.10314,-2.16916c0.47784,0.65389 1.0217,1.2732 1.63158,1.85793c0.1176,0.11265 0.23707,0.22333 0.35838,0.33198c0.53324,0.47599 1.09717,0.91643 1.68817,1.31847c0.08802,0.06287 0.18234,0.08802 0.28293,0.07545c0.06424,-0.00773 0.12435,-0.0357 0.17165,-0.07985c0.02849,-0.02649 0.05324,-0.05674 0.07356,-0.08991c0.00042,-0.00042 0.00084,-0.00084 0.00126,-0.00126c0.06204,-0.06245 0.08362,-0.14063 0.06476,-0.23452c-0.00958,-0.05083 -0.03186,-0.09841 -0.06476,-0.13832c-0.02686,-0.03174 -0.05924,-0.05837 -0.09557,-0.07859c-0.28383,-0.18353 -0.56146,-0.37645 -0.83245,-0.57844c-1.121,-0.82639 -2.10106,-1.82853 -2.90227,-2.96766c0.2478,-0.41862 0.46628,-0.85392 0.65389,-1.30275c0.25847,-0.62064 0.46867,-1.26029 0.62874,-1.91326c0.04313,-0.1739 0.08337,-0.34851 0.12072,-0.52374c0.11485,-0.53653 0.21063,-1.1091 0.28733,-1.71772c0.08261,-0.66836 0.14154,-1.33944 0.17668,-2.01197h1.58443c0.08802,0 0.16347,-0.03144 0.22635,-0.09431c0.00105,-0.00104 0.0021,-0.00209 0.00314,-0.00314c0.05945,-0.05893 0.09236,-0.13951 0.09117,-0.2232c0,-0.08802 -0.03144,-0.16347 -0.09431,-0.22635c-0.00104,-0.00105 -0.00209,-0.0021 -0.00314,-0.00314c-0.05893,-0.05945 -0.13951,-0.09236 -0.2232,-0.09117h-5.79071c0.45269,-1.23233 0.78593,-2.51497 0.9997,-3.8479zM281.72563,138.42765c0.22187,0.09518 0.40725,0.25918 0.52877,0.46778c0.20329,0.36048 0.19323,0.82554 -0.03018,1.39518c-0.0576,0.14514 -0.12309,0.28703 -0.19617,0.42503c-0.99341,1.8988 -2.28548,3.56811 -3.87619,5.00793c-0.68689,0.61966 -1.41864,1.1877 -2.18928,1.69949c-1.13164,0.74814 -2.32736,1.3945 -3.57314,1.93149c-0.00401,0.00182 -0.008,0.00371 -0.01195,0.00566c-0.07872,0.03514 -0.1393,0.10141 -0.16725,0.18296c-0.00064,0.00188 -0.00127,0.00377 -0.00189,0.00566c-0.01802,0.05323 -0.02347,0.10647 -0.01635,0.1597c0.0047,0.03401 0.01401,0.06722 0.02766,0.09871c0.03772,0.08802 0.1006,0.1509 0.18862,0.18862c0.05784,0.02473 0.11569,0.03332 0.17353,0.02578c0.03121,-0.00444 0.06167,-0.01311 0.09054,-0.02578c0.57394,-0.25045 1.13812,-0.52268 1.69131,-0.81611c1.5396,-0.80828 2.97085,-1.80794 4.25972,-2.9752c1.66616,-1.52155 3.00224,-3.24431 4.00823,-5.16826c0.05881,-0.11081 0.11376,-0.22363 0.16473,-0.33826c0.20329,-0.45982 0.30494,-0.88233 0.30494,-1.26754c-0.00003,-0.05897 -0.00255,-0.11792 -0.00754,-0.17668c-0.04401,-0.52186 -0.27665,-0.93682 -0.6979,-1.24491c-0.15539,-0.11181 -0.32579,-0.20113 -0.50614,-0.26533c-0.1882,-0.06874 -0.39799,-0.11946 -0.62937,-0.15216c-0.22691,-0.03085 -0.4557,-0.04577 -0.6847,-0.04464h-2.60299c0.17605,-0.26407 0.33638,-0.52814 0.48099,-0.79221c0.05711,-0.10415 0.11224,-0.20938 0.16536,-0.31563c0.07218,-0.14408 0.1397,-0.29044 0.20245,-0.43886c0.02263,-0.05281 0.0329,-0.10584 0.03081,-0.15907c-0.00182,-0.03587 -0.00903,-0.07127 -0.02138,-0.105c-0.01421,-0.04101 -0.03668,-0.07867 -0.06602,-0.11066c-0.0318,-0.03368 -0.07037,-0.06025 -0.11317,-0.07796c-0.05281,-0.02263 -0.10584,-0.0329 -0.15907,-0.03081c-0.03587,0.00182 -0.07127,0.00903 -0.105,0.02138c-0.04101,0.01421 -0.07867,0.03668 -0.11066,0.06602c-0.03368,0.0318 -0.06025,0.07037 -0.07796,0.11317c-0.17224,0.39427 -0.36836,0.77767 -0.58724,1.14808c-0.24001,0.4067 -0.50043,0.80101 -0.78027,1.18141c-0.58473,0.7985 -1.24176,1.55928 -1.9711,2.28233c-0.72934,0.72305 -1.48383,1.36123 -2.26347,1.91452c-0.08802,0.0503 -0.13832,0.1226 -0.1509,0.21692c-0.01257,0.09431 0.00629,0.17919 0.05659,0.25464c0.00856,0.01046 0.01758,0.02053 0.02704,0.03018c0.05325,0.05519 0.12339,0.09103 0.19931,0.10186c0.04192,0.00587 0.08237,0.00482 0.12135,-0.00314c0.04433,-0.00971 0.08638,-0.02785 0.12386,-0.05344c0.29046,-0.20259 0.57377,-0.41523 0.84943,-0.63754c0.55612,-0.45045 1.08498,-0.93355 1.5838,-1.44673c0.19599,-0.20049 0.38862,-0.40423 0.57781,-0.61114c0.54512,-0.59477 1.05747,-1.21878 1.53476,-1.86925h3.05568c0.47617,0 0.85949,0.06728 1.14997,0.20183zM219.57453,138.46538c0.22187,0.09518 0.40725,0.25918 0.52877,0.46778c0.20329,0.36048 0.19323,0.82554 -0.03018,1.39518c-0.0576,0.14514 -0.12309,0.28703 -0.19617,0.42503c-0.99341,1.8988 -2.28548,3.56811 -3.87619,5.00793c-0.68689,0.61966 -1.41864,1.1877 -2.18928,1.69949c-1.13164,0.74814 -2.32736,1.3945 -3.57314,1.93149c-0.00401,0.00182 -0.008,0.00371 -0.01195,0.00566c-0.07872,0.03514 -0.1393,0.10141 -0.16725,0.18296c-0.00064,0.00188 -0.00127,0.00377 -0.00189,0.00566c-0.01802,0.05323 -0.02347,0.10647 -0.01635,0.1597c0.0047,0.03401 0.01401,0.06722 0.02766,0.09871c0.00182,0.00401 0.00371,0.008 0.00566,0.01195c0.03514,0.07872 0.10141,0.1393 0.18296,0.16725c0.00188,0.00064 0.00377,0.00127 0.00566,0.00189c0.05323,0.01802 0.10647,0.02347 0.1597,0.01635c0.03401,-0.0047 0.06722,-0.01401 0.09871,-0.02766c0.57394,-0.25045 1.13812,-0.52268 1.69131,-0.81611c1.5396,-0.80828 2.97085,-1.80794 4.25972,-2.9752c1.66616,-1.52155 3.00224,-3.24431 4.00823,-5.16826c0.3521,-0.65389 0.50614,-1.24491 0.46212,-1.77305c-0.04401,-0.52814 -0.27665,-0.94626 -0.6979,-1.25434c-0.15539,-0.11181 -0.32579,-0.20113 -0.50614,-0.26533c-0.1882,-0.06874 -0.39799,-0.11946 -0.62937,-0.15216c-0.22691,-0.03085 -0.4557,-0.04577 -0.6847,-0.04464h-2.60299c0.16392,-0.23628 0.31707,-0.47985 0.45898,-0.72997c0.14635,-0.25762 0.27655,-0.52409 0.38982,-0.79787c0.02263,-0.05281 0.0329,-0.10584 0.03081,-0.15907c-0.00182,-0.03587 -0.00903,-0.07127 -0.02138,-0.105c-0.01421,-0.04101 -0.03668,-0.07867 -0.06602,-0.11066c-0.0318,-0.03368 -0.07037,-0.06025 -0.11317,-0.07796c-0.05281,-0.02263 -0.10584,-0.0329 -0.15907,-0.03081c-0.03587,0.00182 -0.07127,0.00903 -0.105,0.02138c-0.04101,0.01421 -0.07867,0.03668 -0.11066,0.06602c-0.03368,0.0318 -0.06025,0.07037 -0.07796,0.11317c-0.17303,0.38942 -0.36912,0.76818 -0.58724,1.13425c-0.24081,0.40458 -0.50121,0.79717 -0.78027,1.17638c-0.58473,0.7985 -1.24176,1.55928 -1.9711,2.28233c-0.72934,0.72305 -1.48383,1.36123 -2.26347,1.91452c-0.08802,0.0503 -0.13832,0.1226 -0.1509,0.21692c-0.01257,0.09431 0.00629,0.17919 0.05659,0.25464c0.10856,0.16263 0.245,0.20832 0.40931,0.13707c0.02807,-0.0122 0.05518,-0.02649 0.08111,-0.04275c0.81736,-0.57844 1.6253,-1.2732 2.4238,-2.08428c0.19712,-0.20019 0.39059,-0.40394 0.58033,-0.61114c0.54445,-0.59214 1.05296,-1.21634 1.52281,-1.86925h3.05568c0.47617,0 0.85949,0.06728 1.14997,0.20183zM321.90849,148.5856c0.07178,-0.04513 0.12627,-0.11313 0.15467,-0.19302c0.00043,-0.00105 0.00084,-0.00209 0.00126,-0.00314c0.0218,-0.06371 0.01907,-0.12722 -0.00817,-0.19051c-0.01085,-0.02485 -0.02434,-0.04846 -0.04024,-0.07042c-0.02351,-0.03951 -0.04719,-0.07891 -0.07105,-0.1182c-0.16892,-0.2779 -0.35629,-0.56671 -0.56209,-0.86641c-0.21888,-0.31814 -0.44486,-0.63133 -0.67778,-0.93934c-0.52186,-0.69162 -1.06886,-1.38009 -1.64102,-2.06542c-0.57215,-0.68533 -1.11602,-1.30464 -1.63158,-1.85793c-0.03061,-0.04781 -0.07717,-0.08322 -0.13141,-0.09997c-0.0308,-0.00917 -0.06281,-0.01362 -0.09494,-0.0132c-0.1006,0 -0.18234,0.03144 -0.24521,0.09431c-0.00929,0.00851 -0.01831,0.01732 -0.02704,0.02641c-0.13665,0.14335 -0.13392,0.29802 0.00817,0.46401c0.38982,0.40239 0.7985,0.8488 1.22605,1.33922c0.42754,0.49042 0.83623,0.99341 1.22605,1.50898c-0.70419,0.12575 -1.53099,0.2515 -2.48039,0.37724c-0.9494,0.12575 -1.93652,0.24521 -2.96137,0.35838c-1.02485,0.11317 -1.99625,0.21377 -2.91422,0.3018c0.17389,-0.24169 0.34367,-0.4863 0.50928,-0.73374c0.29399,-0.43994 0.57702,-0.88711 0.8488,-1.34111c0.45269,-0.75449 0.89281,-1.52155 1.32036,-2.30119c0.11861,-0.21633 0.23535,-0.43367 0.35021,-0.652c0.27982,-0.53059 0.5467,-1.0679 0.80039,-1.61146c0.19114,-0.41036 0.36425,-0.79683 0.51934,-1.1594c0.11401,-0.26569 0.22384,-0.53314 0.32946,-0.80227c0.02473,-0.05784 0.03332,-0.11569 0.02578,-0.17353c-0.00444,-0.03121 -0.01311,-0.06167 -0.02578,-0.09054c-0.00366,-0.00853 -0.00765,-0.01692 -0.01195,-0.02515c-0.03546,-0.07129 -0.09979,-0.12394 -0.17668,-0.14461c-0.05784,-0.02473 -0.11569,-0.03332 -0.17353,-0.02578c-0.03121,0.00444 -0.06167,0.01311 -0.09054,0.02578c-0.08802,0.03772 -0.1509,0.1006 -0.18862,0.18862c-0.03246,0.0868 -0.06558,0.17336 -0.09934,0.25967c-0.10395,0.26407 -0.22006,0.54281 -0.34832,0.83623c-0.14124,0.32231 -0.28755,0.64238 -0.43886,0.96009c-0.09307,0.19572 -0.18738,0.39084 -0.28293,0.58536c-0.29778,0.60547 -0.60591,1.2058 -0.92425,1.80072c-0.44012,0.82365 -0.89596,1.62215 -1.36751,2.39551c-0.1994,0.32742 -0.40525,0.65086 -0.61742,0.97015c-0.25149,0.37912 -0.51421,0.75066 -0.78781,1.11413c-0.32695,0.02515 -0.64132,0.0503 -0.94311,0.07545c-0.3018,0.02515 -0.57844,0.04401 -0.82994,0.05659c-0.03065,0.00346 -0.06094,0.00956 -0.09054,0.01823c-0.10898,0.03228 -0.17919,0.09871 -0.21063,0.19931c-0.01362,0.04568 -0.02019,0.09317 -0.01949,0.14084c0.0072,0.05031 0.02499,0.09853 0.05219,0.14147c0.02226,0.03488 0.04911,0.06661 0.07985,0.09431c0.01784,0.01666 0.03721,0.03161 0.05784,0.04464c0.04695,0.02892 0.09599,0.04338 0.14713,0.04338c0.01347,-0.00009 0.02692,-0.00114 0.04024,-0.00314c0.34581,-0.02347 0.72976,-0.05323 1.15185,-0.08928c0.26688,-0.0227 0.53368,-0.04638 0.80039,-0.07105c0.7482,-0.06916 1.54356,-0.1509 2.38607,-0.24521c0.84251,-0.09431 1.69131,-0.19491 2.5464,-0.3018c0.85509,-0.10689 1.66616,-0.21692 2.43323,-0.33009c0.10607,-0.01557 0.21212,-0.03129 0.31814,-0.04716c0.63629,-0.09599 1.20299,-0.18716 1.70012,-0.2735c0.15823,0.20691 0.31458,0.41524 0.46904,0.62497c0.14434,0.19574 0.28666,0.39296 0.42692,0.59165c0.13581,0.19239 0.26114,0.37787 0.37599,0.55644c0.10839,0.16713 0.21258,0.33694 0.31248,0.50928c0.11317,0.18862 0.27036,0.23892 0.47156,0.1509c0.00831,-0.00458 0.01649,-0.0094 0.02452,-0.01446zM335.75527,142.35037c0.02138,0.11527 0.08802,0.18778 0.19994,0.21754c0.04318,0.01066 0.08756,0.01574 0.13204,0.01509c0.08802,0 0.16347,-0.03144 0.22635,-0.09431c0.00105,-0.00104 0.0021,-0.00209 0.00314,-0.00314c0.05945,-0.05893 0.09236,-0.13951 0.09117,-0.2232v-3.11227c0.07832,0.10197 0.15839,0.20258 0.24018,0.3018c0.36826,0.44524 0.767,0.86436 1.19335,1.25434c0.54072,0.49671 1.04371,0.92739 1.50898,1.29206c0.06245,0.0415 0.13329,0.06162 0.21251,0.06036c0.01724,-0.00033 0.03445,-0.00159 0.05156,-0.00377c0.1006,-0.01257 0.18234,-0.05659 0.24521,-0.13204c0.0503,-0.06036 0.0744,-0.1268 0.07231,-0.19931c-0.00053,-0.01859 -0.00263,-0.0371 -0.00629,-0.05533c-0.0006,-0.00294 -0.00123,-0.00587 -0.00189,-0.0088c-0.01678,-0.08527 -0.06706,-0.16024 -0.13958,-0.20811c-0.36467,-0.23892 -0.7482,-0.52814 -1.1506,-0.86766c-0.40239,-0.33952 -0.78278,-0.69162 -1.14117,-1.05629c-0.20162,-0.20497 -0.38437,-0.40218 -0.54826,-0.59165c-0.12038,-0.13859 -0.23634,-0.28097 -0.34769,-0.42692h3.67814c0.03769,0.00057 0.07529,-0.00366 0.11192,-0.01257c0.09096,-0.02389 0.14922,-0.08048 0.17479,-0.16976c0.01055,-0.03893 0.01563,-0.07913 0.01509,-0.11946c0.00057,-0.03769 -0.00366,-0.07529 -0.01257,-0.11192c-0.02389,-0.09096 -0.08048,-0.14922 -0.16976,-0.17479c-0.03893,-0.01055 -0.07913,-0.01563 -0.11946,-0.01509h-3.86676v-3.28203c0,-0.08802 -0.03144,-0.16347 -0.09431,-0.22635c-0.00104,-0.00105 -0.00209,-0.0021 -0.00314,-0.00314c-0.05893,-0.05945 -0.13951,-0.09236 -0.2232,-0.09117c-0.04214,-0.00032 -0.08396,0.00737 -0.12323,0.02263c-0.04158,0.01682 -0.07972,0.04111 -0.11254,0.07168c-0.00384,0.00349 -0.00762,0.00705 -0.01132,0.01069c-0.05957,0.05583 -0.09308,0.13402 -0.09242,0.21566v3.28203h-3.9988c-0.04195,-0.00005 -0.08339,0.00918 -0.12135,0.02704c-0.03143,0.01489 -0.06046,0.03439 -0.08614,0.05784c-0.03221,0.02843 -0.05739,0.06394 -0.07356,0.10374c-0.01413,0.03604 -0.02117,0.07447 -0.02075,0.11317c0.00008,0.00545 0.00029,0.0109 0.00063,0.01635c0.00195,0.07698 0.0359,0.14966 0.09368,0.20057c0.0106,0.00962 0.02173,0.01864 0.03332,0.02704c0.05034,0.03747 0.1114,0.05775 0.17416,0.05784h3.81017c-0.03965,0.05409 -0.0799,0.10775 -0.12072,0.16096c-0.12533,0.16347 -0.26365,0.33302 -0.41497,0.50865c-0.16604,0.19251 -0.33647,0.38118 -0.51117,0.56587c-0.42126,0.44641 -0.86766,0.87395 -1.33922,1.28263c-0.00733,0.00629 -0.01466,0.01258 -0.02201,0.01886c-0.46359,0.4003 -0.90581,0.73039 -1.32664,0.99027c-0.00468,0.00304 -0.0093,0.00618 -0.01383,0.00943c-0.06539,0.04656 -0.10827,0.1184 -0.1182,0.19805c-0.00587,0.04192 -0.00482,0.08237 0.00314,0.12135c0.00971,0.04433 0.02785,0.08638 0.05344,0.12386c0.02868,0.03523 0.06418,0.06432 0.10437,0.08551c0.04383,0.0221 0.09181,0.03474 0.14084,0.0371c0.1006,0.00629 0.18862,-0.01572 0.26407,-0.06602c0.03701,-0.02687 0.07389,-0.05391 0.11066,-0.08111c0.25988,-0.19281 0.52856,-0.40428 0.80605,-0.6344c0.29426,-0.24535 0.58293,-0.49733 0.86578,-0.75575c0.63503,-0.57844 1.20404,-1.19461 1.70703,-1.8485v3.03682c-0.00016,0.02951 0.00236,0.05897 0.00754,0.08802zM162.7998,138.6408c0.0202,0.01212 0.04011,0.02469 0.05973,0.03772c0.33868,0.22509 0.51997,0.54575 0.54386,0.96197c0.00221,0.04083 0.00326,0.08171 0.00314,0.1226c0,0.41665 -0.11422,0.9165 -0.34266,1.49955c-0.1668,0.4311 -0.36562,0.84913 -0.59479,1.25057c-0.35715,0.62177 -0.77387,1.20736 -1.24428,1.74853c-0.28785,0.33349 -0.59102,0.65344 -0.90853,0.95883c-0.64175,0.61442 -1.33134,1.17682 -2.06227,1.68188c-0.25482,0.17732 -0.51394,0.34839 -0.77712,0.51305c-0.97928,0.60885 -2.00622,1.13746 -3.07077,1.58066c-0.03431,0.01462 -0.06681,0.03319 -0.09683,0.05533c-0.1203,0.09054 -0.14461,0.22299 -0.07293,0.39736c0.01462,0.03431 0.03319,0.06681 0.05533,0.09683c0.09054,0.1203 0.22299,0.14461 0.39736,0.07293c0.74358,-0.32179 1.47068,-0.68041 2.17859,-1.07452c1.23835,-0.68376 2.39887,-1.49981 3.46122,-2.43386c1.55928,-1.38323 2.67844,-2.91107 3.35748,-4.58353c0.06557,-0.15852 0.12534,-0.31937 0.17919,-0.48224c0.32736,-0.99299 0.31165,-1.79107 -0.04716,-2.39425c-0.08549,-0.14303 -0.19283,-0.27181 -0.31814,-0.38165c-0.35377,-0.31311 -0.875,-0.51557 -1.56368,-0.60736c-0.31422,-0.04016 -0.63075,-0.05948 -0.94751,-0.05784h-7.07334c-0.04214,-0.00032 -0.08396,0.00737 -0.12323,0.02263c-0.04158,0.01682 -0.07972,0.04111 -0.11254,0.07168c-0.03841,0.03411 -0.06761,0.07736 -0.08488,0.12575c-0.01305,0.03846 -0.01942,0.07886 -0.01886,0.11946c0,0.08802 0.03458,0.16976 0.10374,0.24521c0.06916,0.07545 0.14775,0.11317 0.23578,0.11317h7.07334c0.82994,0 1.43353,0.11317 1.81078,0.33952zM243.86973,138.6408c0.0202,0.01212 0.04011,0.02469 0.05973,0.03772c0.33868,0.22509 0.51997,0.54575 0.54386,0.96197c0.00221,0.04083 0.00326,0.08171 0.00314,0.1226c0,0.41665 -0.11422,0.9165 -0.34266,1.49955c-0.1668,0.4311 -0.36562,0.84913 -0.59479,1.25057c-0.35715,0.62177 -0.77387,1.20736 -1.24428,1.74853c-0.28785,0.33349 -0.59102,0.65344 -0.90853,0.95883c-0.64175,0.61442 -1.33134,1.17682 -2.06227,1.68188c-0.25482,0.17732 -0.51394,0.34839 -0.77712,0.51305c-0.97928,0.60885 -2.00622,1.13746 -3.07077,1.58066c-0.03431,0.01462 -0.06681,0.03319 -0.09683,0.05533c-0.1203,0.09054 -0.14461,0.22299 -0.07293,0.39736c0.01462,0.03431 0.03319,0.06681 0.05533,0.09683c0.09054,0.1203 0.22299,0.14461 0.39736,0.07293c0.74358,-0.32179 1.47068,-0.68041 2.17859,-1.07452c1.23835,-0.68376 2.39887,-1.49981 3.46122,-2.43386c1.55928,-1.38323 2.67844,-2.91107 3.35748,-4.58353c0.06557,-0.15852 0.12534,-0.31937 0.17919,-0.48224c0.32736,-0.99299 0.31165,-1.79107 -0.04716,-2.39425c-0.08549,-0.14303 -0.19283,-0.27181 -0.31814,-0.38165c-0.35377,-0.31311 -0.875,-0.51557 -1.56368,-0.60736c-0.31422,-0.04016 -0.63075,-0.05948 -0.94751,-0.05784h-7.07334c-0.04214,-0.00032 -0.08396,0.00737 -0.12323,0.02263c-0.04158,0.01682 -0.07972,0.04111 -0.11254,0.07168c-0.03841,0.03411 -0.06761,0.07736 -0.08488,0.12575c-0.01305,0.03846 -0.01942,0.07886 -0.01886,0.11946c0,0.08802 0.03458,0.16976 0.10374,0.24521c0.06916,0.07545 0.14775,0.11317 0.23578,0.11317h7.07334c0.82994,0 1.43353,0.11317 1.81078,0.33952zM298.77269,140.5113c0.45353,0.01551 0.82135,0.09033 1.10344,0.22446c0.22184,0.09823 0.40802,0.26245 0.53317,0.4703c0.04785,0.08265 0.08524,0.17093 0.11129,0.26281c0.09683,0.33868 0.05722,0.75407 -0.11883,1.24617c-0.05582,0.15402 -0.11941,0.30511 -0.19051,0.45269c-0.14017,0.28848 -0.29743,0.56835 -0.47093,0.83811c-0.34986,0.54052 -0.75461,1.04346 -1.20781,1.50081c-0.18066,0.18378 -0.36728,0.3616 -0.55958,0.53317c-0.60195,0.53394 -1.25117,1.01208 -1.93967,1.4285c-0.1191,0.07251 -0.2392,0.14336 -0.36027,0.21251c-0.87411,0.49676 -1.79219,0.91182 -2.74257,1.23988c-0.03636,0.01034 -0.07139,0.0249 -0.10437,0.04338c-0.11653,0.06665 -0.16201,0.17521 -0.13644,0.32569c0.0037,0.02182 0.00853,0.04344 0.01446,0.06476c0.01595,0.03776 0.03643,0.07344 0.06099,0.10626c0.07796,0.10102 0.18548,0.14021 0.32254,0.11757c0.02336,-0.00406 0.04646,-0.00952 0.06916,-0.01635c0.07288,-0.02596 0.14561,-0.05237 0.21817,-0.07922c1.05687,-0.38613 2.07354,-0.87446 3.03556,-1.45805c0.15493,-0.0945 0.30816,-0.19176 0.45961,-0.29174c0.78763,-0.51614 1.5187,-1.1138 2.1811,-1.78311c0.76078,-0.77335 1.35494,-1.60015 1.78248,-2.48039c0.32233,-0.68365 0.46778,-1.28515 0.43635,-1.80449c-0.01479,-0.29747 -0.09967,-0.58723 -0.24772,-0.84566c-0.29257,-0.50509 -0.82281,-0.82051 -1.59072,-0.94626c-0.27868,-0.04366 -0.56044,-0.06468 -0.84251,-0.06287h-7.01676c-0.00147,-0.00001 -0.00293,-0.00001 -0.0044,0c-0.09405,-0.00089 -0.18441,0.03657 -0.25024,0.10374c-0.03053,0.03025 -0.05525,0.06584 -0.07293,0.105c-0.02081,0.04712 -0.03132,0.09814 -0.03081,0.14964c-0.00025,0.03097 0.00227,0.0619 0.00754,0.09242c0.02976,0.16473 0.14671,0.2471 0.35084,0.2471h7.01676c0.06121,0 0.12242,0.00104 0.18359,0.00314zM334.135,145.50665c-0.06916,0.11317 -0.13518,0.22635 -0.19805,0.33952c-0.04125,0.06891 -0.07943,0.13961 -0.11443,0.21189c-0.18066,0.37683 -0.21796,0.70859 -0.11192,0.9953c0.01484,0.03997 0.03249,0.07884 0.05281,0.11632c0.11066,0.20497 0.30934,0.39296 0.59605,0.56398c0.13129,0.07732 0.26737,0.14621 0.40742,0.20623c0.2012,0.08802 0.40554,0.17919 0.61302,0.2735c0.20748,0.09431 0.41183,0.19177 0.61302,0.29236c-0.08464,0.0807 -0.17144,0.15912 -0.2603,0.23515c-0.49449,0.41998 -1.04485,0.76933 -1.63536,1.03805c-0.37861,0.17304 -0.76848,0.32029 -1.16694,0.44075c-0.43772,0.13252 -0.88252,0.24041 -1.3323,0.32317c-0.2515,0.03772 -0.34581,0.16976 -0.28293,0.39611c0.00321,0.0185 0.00762,0.03677 0.0132,0.0547c0.04862,0.15425 0.17689,0.21608 0.38479,0.18548c0.02469,-0.00366 0.04923,-0.00827 0.07356,-0.01383c0.16501,-0.03888 0.32954,-0.07975 0.49356,-0.1226c0.44389,-0.11611 0.85781,-0.24102 1.24176,-0.37473c0.37541,-0.12905 0.74374,-0.27785 1.10344,-0.44578c0.10189,-0.04809 0.20273,-0.09841 0.30242,-0.1509c0.62433,-0.32388 1.19381,-0.74399 1.68754,-1.24491c0.74191,0.41497 1.45868,0.88653 2.1503,1.41467c0.01395,0.01196 0.02842,0.02329 0.04338,0.03395c0.13162,0.09389 0.25611,0.09389 0.37347,0c0.02671,-0.02154 0.05134,-0.04554 0.07356,-0.07168c0.00191,-0.00229 0.0038,-0.00459 0.00566,-0.00692c0.05323,-0.06665 0.07985,-0.14063 0.07985,-0.22195c0.00008,-0.0086 -0.00013,-0.0172 -0.00063,-0.02578c-0.00076,-0.01074 -0.00202,-0.02144 -0.00377,-0.03207c-0.01079,-0.07598 -0.05419,-0.14348 -0.11883,-0.18485c-0.01026,-0.00777 -0.02053,-0.01552 -0.03081,-0.02326c-0.32674,-0.24966 -0.6625,-0.48727 -1.00662,-0.71236c-0.36467,-0.23892 -0.73563,-0.45898 -1.11287,-0.66018c0.39317,-0.49503 0.7591,-1.09569 1.09778,-1.80197c0.2154,-0.45249 0.40927,-0.91493 0.58096,-1.38575h1.65988c0.03769,0.00057 0.07529,-0.00366 0.11192,-0.01257c0.09096,-0.02389 0.14922,-0.08048 0.17479,-0.16976c0.01055,-0.03893 0.01563,-0.07913 0.01509,-0.11946c0.00057,-0.03769 -0.00366,-0.07529 -0.01257,-0.11192c-0.02389,-0.09096 -0.08048,-0.14922 -0.16976,-0.17479c-0.03893,-0.01055 -0.07913,-0.01563 -0.11946,-0.01509h-4.99849c0.01732,-0.03137 0.0345,-0.0628 0.05156,-0.09431c0.11527,-0.21349 0.22388,-0.43052 0.32569,-0.65075c0.11317,-0.24521 0.22006,-0.48727 0.32066,-0.7262c0.00331,-0.00769 0.00645,-0.01544 0.00943,-0.02326c0.07335,-0.18904 0.00734,-0.3259 -0.19805,-0.41057c-0.05784,-0.02473 -0.11569,-0.03332 -0.17353,-0.02578c-0.03121,0.00444 -0.06167,0.01311 -0.09054,0.02578c-0.08802,0.03772 -0.1509,0.1006 -0.18862,0.18862c-0.1006,0.23892 -0.22006,0.50299 -0.35838,0.79221c-0.13832,0.28922 -0.28922,0.5973 -0.45269,0.92425h-3.07455c-0.03771,-0.00036 -0.07532,0.00407 -0.11192,0.0132c-0.09096,0.02347 -0.14922,0.07985 -0.17479,0.16913c-0.01055,0.03893 -0.01563,0.07913 -0.01509,0.11946c-0.00057,0.03769 0.00366,0.07529 0.01257,0.11192c0.02389,0.09096 0.08048,0.14922 0.16976,0.17479c0.03893,0.01055 0.07913,0.01563 0.11946,0.01509h2.73503c-0.0503,0.12575 -0.11003,0.24521 -0.17919,0.35838zM229.68784,152.58188c0.01497,-0.03334 0.02371,-0.06914 0.02578,-0.10563c0.00076,-0.01025 0.00118,-0.02053 0.00126,-0.03081c0.00072,-0.0797 -0.02274,-0.15774 -0.06728,-0.22383c-0.23322,-0.33505 -0.44998,-0.68127 -0.64949,-1.03742c-0.49082,-0.88297 -0.88642,-1.8156 -1.18015,-2.78218c-0.44012,-1.42724 -0.66018,-2.88278 -0.66018,-4.36661c0,-1.47126 0.22006,-2.92365 0.66018,-4.35718c0.10805,-0.35238 0.22884,-0.70072 0.36216,-1.04434c0.37471,-0.97826 0.86752,-1.90708 1.46748,-2.76583c0.01802,-0.027 0.03259,-0.05615 0.04338,-0.08677c0.01928,-0.05407 0.02683,-0.11317 0.02263,-0.17731c-0.00066,-0.01242 -0.00192,-0.0248 -0.00377,-0.0371c-0.01015,-0.07738 -0.05354,-0.14649 -0.11883,-0.18925c-0.17269,-0.10186 -0.31668,-0.10479 -0.43195,-0.0088c-0.0293,0.02464 -0.05529,0.05295 -0.07734,0.08425c-0.23133,0.33492 -0.44721,0.68025 -0.64697,1.03491c-0.52893,0.94559 -0.95392,1.94566 -1.26754,2.98275c-0.45898,1.4964 -0.68847,3.01796 -0.68847,4.56466c0,1.5467 0.22949,3.0714 0.68847,4.57409c0.0884,0.28996 0.18485,0.5774 0.28922,0.862c0.40552,1.11961 0.95166,2.18315 1.6253,3.16508c0.13832,0.17605 0.30808,0.19491 0.50928,0.05659c0.04212,-0.02722 0.07569,-0.0658 0.09683,-0.11129zM325.59041,152.47625c-0.00076,-0.01025 -0.00118,-0.02053 -0.00126,-0.03081c-0.00072,-0.0797 0.02274,-0.15774 0.06728,-0.22383c0.64233,-0.92964 1.16198,-1.9383 1.54608,-3.00098c0.09906,-0.27024 0.19047,-0.54322 0.27413,-0.81862c0.43383,-1.42724 0.65075,-2.88278 0.65075,-4.36661c0,-1.47126 -0.21692,-2.92365 -0.65075,-4.35718c-0.2698,-0.90466 -0.63087,-1.77955 -1.07766,-2.61116c-0.22389,-0.41382 -0.47183,-0.81418 -0.74254,-1.19901c-0.0503,-0.07545 -0.07231,-0.16347 -0.06602,-0.26407c0.00174,-0.0344 0.00873,-0.06832 0.02075,-0.1006c0.01977,-0.05165 0.05544,-0.09569 0.10186,-0.12575c0.08802,-0.06287 0.17919,-0.08488 0.2735,-0.06602c0.04253,0.00806 0.08323,0.02383 0.12009,0.04653c0.0387,0.02435 0.07172,0.05673 0.09683,0.09494c0.67982,0.99097 1.23201,2.06367 1.64353,3.19275c0.10069,0.27246 0.19419,0.54753 0.28042,0.82491c0.46527,1.4964 0.6979,3.01796 0.6979,4.56466c0,1.5467 -0.23263,3.0714 -0.6979,4.57409c-0.31403,1.02903 -0.73617,2.0219 -1.25937,2.962c-0.20481,0.36519 -0.42657,0.72061 -0.66458,1.06509c-0.0503,0.07545 -0.1226,0.11946 -0.21692,0.13204c-0.09431,0.01257 -0.18548,-0.01257 -0.2735,-0.07545c-0.06465,-0.04137 -0.10804,-0.10887 -0.11883,-0.18485c-0.00175,-0.01062 -0.00301,-0.02132 -0.00377,-0.03207zM174.90936,147.80785c-0.26164,-0.0563 -0.51852,-0.13282 -0.76832,-0.22886c-0.38982,-0.15216 -0.71844,-0.34623 -0.98587,-0.58221c-0.29401,-0.2625 -0.52963,-0.5838 -0.69162,-0.94311c-0.08778,-0.19171 -0.15929,-0.39047 -0.21377,-0.59416c-0.06973,-0.26097 -0.12348,-0.52596 -0.16096,-0.79347c-0.04192,-0.29048 -0.07105,-0.60338 -0.0874,-0.93871c-0.0107,-0.22409 -0.01595,-0.44841 -0.01572,-0.67275c0,-0.96826 0.08802,-1.77305 0.26407,-2.41437c0.07362,-0.27517 0.18001,-0.54051 0.31689,-0.79033c0.15248,-0.27773 0.35154,-0.5272 0.5885,-0.73751c0.21273,-0.185 0.44989,-0.33986 0.70482,-0.46024c0.30557,-0.14713 0.65536,-0.26407 1.04937,-0.35084c0.53862,-0.11862 1.18015,-0.19428 1.92458,-0.22698c0.29513,-0.01251 0.5905,-0.01859 0.8859,-0.01823c0.38187,-0.00079 0.76368,0.0097 1.14494,0.03144c0.63503,0.03772 1.19021,0.10898 1.66554,0.21377c0.26164,0.0563 0.51852,0.13282 0.76832,0.22886c0.39024,0.15257 0.71886,0.34665 0.98587,0.58221c0.30386,0.27144 0.54575,0.60511 0.70922,0.97832c0.07954,0.17781 0.14512,0.36154 0.19617,0.54952c0.07,0.25985 0.12375,0.5238 0.16096,0.79033c0.06874,0.47742 0.10311,1.01877 0.10311,1.62404c0,0.73144 -0.05156,1.37254 -0.15467,1.92332c-0.03,0.16194 -0.0665,0.32261 -0.1094,0.48162c-0.07271,0.27511 -0.17781,0.54062 -0.31311,0.79096c-0.15253,0.28132 -0.35296,0.53387 -0.59227,0.74632c-0.21273,0.185 -0.44989,0.33986 -0.70482,0.46024c-0.30557,0.14713 -0.65536,0.26407 -1.04937,0.35084c-0.53862,0.11862 -1.18015,0.19428 -1.92458,0.22698c-0.29513,0.01251 -0.5905,0.01859 -0.8859,0.01823c-0.38187,0.00079 -0.76368,-0.0097 -1.14494,-0.03144c-0.63503,-0.03772 -1.19021,-0.10898 -1.66554,-0.21377zM255.97929,147.80785c-0.26164,-0.0563 -0.51852,-0.13282 -0.76832,-0.22886c-0.38982,-0.15216 -0.71844,-0.34623 -0.98587,-0.58221c-0.29401,-0.2625 -0.52963,-0.5838 -0.69162,-0.94311c-0.08778,-0.19171 -0.15929,-0.39047 -0.21377,-0.59416c-0.06973,-0.26097 -0.12348,-0.52596 -0.16096,-0.79347c-0.04192,-0.29048 -0.07105,-0.60338 -0.0874,-0.93871c-0.0107,-0.22409 -0.01595,-0.44841 -0.01572,-0.67275c0,-0.96826 0.08802,-1.77305 0.26407,-2.41437c0.07362,-0.27517 0.18001,-0.54051 0.31689,-0.79033c0.15248,-0.27773 0.35154,-0.5272 0.5885,-0.73751c0.21273,-0.185 0.44989,-0.33986 0.70482,-0.46024c0.30557,-0.14713 0.65536,-0.26407 1.04937,-0.35084c0.53862,-0.11862 1.18015,-0.19428 1.92458,-0.22698c0.29513,-0.01251 0.5905,-0.01859 0.8859,-0.01823c0.38187,-0.00079 0.76368,0.0097 1.14494,0.03144c0.63503,0.03772 1.19021,0.10898 1.66554,0.21377c0.26164,0.0563 0.51852,0.13282 0.76832,0.22886c0.39024,0.15257 0.71886,0.34665 0.98587,0.58221c0.30386,0.27144 0.54575,0.60511 0.70922,0.97832c0.07954,0.17781 0.14512,0.36154 0.19617,0.54952c0.07,0.25985 0.12375,0.5238 0.16096,0.79033c0.06874,0.47742 0.10311,1.01877 0.10311,1.62404c0,0.73144 -0.05156,1.37254 -0.15467,1.92332c-0.03,0.16194 -0.0665,0.32261 -0.1094,0.48162c-0.07271,0.27511 -0.17781,0.54062 -0.31311,0.79096c-0.15253,0.28132 -0.35296,0.53387 -0.59227,0.74632c-0.21273,0.185 -0.44989,0.33986 -0.70482,0.46024c-0.30557,0.14713 -0.65536,0.26407 -1.04937,0.35084c-0.53862,0.11862 -1.18015,0.19428 -1.92458,0.22698c-0.29513,0.01251 -0.5905,0.01859 -0.8859,0.01823c-0.38187,0.00079 -0.76368,-0.0097 -1.14494,-0.03144c-0.63503,-0.03772 -1.19021,-0.10898 -1.66554,-0.21377zM147.50252,143.52612c0.01677,-0.0591 0.01656,-0.1182 -0.00063,-0.17731c-0.00889,-0.03029 -0.02134,-0.05941 -0.0371,-0.08677c-0.02708,-0.04516 -0.05433,-0.09022 -0.08174,-0.13518c-0.08425,-0.1379 -0.175,-0.28356 -0.27225,-0.43698c-0.1071,-0.16847 -0.21545,-0.33614 -0.32506,-0.50299c-0.26407,-0.40239 -0.53757,-0.80793 -0.82051,-1.21661c-0.03907,-0.05646 -0.07827,-0.11284 -0.11757,-0.16913c-0.23641,-0.33826 -0.45186,-0.63712 -0.64635,-0.89659c-0.02922,-0.04415 -0.06927,-0.08009 -0.11632,-0.10437c-0.03464,-0.01774 -0.07172,-0.03024 -0.11003,-0.0371c-0.00668,-0.00119 -0.01339,-0.00224 -0.02012,-0.00314c-0.02054,-0.00293 -0.04024,-0.0044 -0.0591,-0.0044c-0.06573,-0.00088 -0.13018,0.0182 -0.18485,0.0547c-0.00468,0.00304 -0.0093,0.00618 -0.01383,0.00943c-0.06539,0.04656 -0.10827,0.1184 -0.1182,0.19805c-0.00045,0.00272 -0.00087,0.00544 -0.00126,0.00817c-0.01006,0.08467 0.00922,0.15739 0.05784,0.21817c0.06754,0.0773 0.13357,0.15591 0.19805,0.23578c0.11415,0.14143 0.22422,0.2861 0.33009,0.43383c0.17605,0.24521 0.3521,0.49985 0.52814,0.76392c-0.32988,0.0394 -0.69811,0.07985 -1.1047,0.12135c-0.25727,0.02648 -0.51464,0.05204 -0.77209,0.07671c-0.72305,0.06916 -1.43667,0.13518 -2.14086,0.19805c0.02878,-0.05602 0.05729,-0.11219 0.08551,-0.1685c0.08677,-0.17228 0.17647,-0.35629 0.2691,-0.55204c0.10101,-0.2146 0.19973,-0.43027 0.29614,-0.64697c0.23263,-0.52186 0.45584,-1.04685 0.66961,-1.575c0.06394,-0.15789 0.12702,-0.31613 0.18925,-0.4747c0.05952,-0.15174 0.11527,-0.29656 0.16725,-0.43446c0.05875,-0.15536 0.11597,-0.3113 0.17165,-0.46778c0.00239,-0.00958 0.00448,-0.01922 0.00629,-0.02892c0.00503,-0.02641 0.00754,-0.05219 0.00754,-0.07734c0.00023,-0.0584 -0.01426,-0.11592 -0.04213,-0.16725c-0.02547,-0.04818 -0.06349,-0.08859 -0.11003,-0.11695c-0.03322,-0.01981 -0.06926,-0.03444 -0.10689,-0.04338c-0.01002,-0.00171 -0.02009,-0.00318 -0.03018,-0.0044c-0.21,-0.02473 -0.35713,0.07105 -0.44138,0.28733c-0.02533,0.08619 -0.05153,0.17212 -0.07859,0.25778c-0.11527,0.36383 -0.25883,0.76832 -0.43069,1.21347c-0.21377,0.55329 -0.44012,1.1003 -0.67904,1.64102c-0.13455,0.30431 -0.26491,0.58662 -0.39108,0.84691c-0.09255,0.19097 -0.18856,0.38026 -0.28796,0.56775c-0.2515,0.01257 -0.49671,0.02515 -0.73563,0.03772c-0.23892,0.01257 -0.45898,0.02515 -0.66018,0.03772c-0.02291,0.00286 -0.04559,0.00727 -0.0679,0.0132c-0.06698,0.01686 -0.12821,0.05139 -0.17731,0.09997c-0.05491,0.05491 -0.08111,0.12428 -0.07859,0.20811c0.00048,0.01241 0.00153,0.02479 0.00314,0.0371c0.00758,0.05352 0.0288,0.10418 0.06162,0.14713c0.02293,0.02988 0.04979,0.05653 0.07985,0.07922c0.02049,0.01598 0.04237,0.03008 0.06539,0.04213c0.0612,0.03144 0.12428,0.04254 0.18925,0.03332c0.13019,-0.00836 0.26034,-0.01738 0.39045,-0.02704c0.13832,-0.01048 0.28503,-0.02201 0.44012,-0.03458c0.19791,-0.01645 0.39575,-0.03364 0.59353,-0.05156c0.28707,-0.02579 0.57399,-0.05325 0.86075,-0.08237c0.30113,-0.03069 0.60209,-0.06297 0.90287,-0.09683c0.61617,-0.06916 1.21033,-0.13832 1.78248,-0.20748c0.35754,-0.04317 0.67946,-0.08278 0.96575,-0.11883c0.15911,-0.01982 0.31818,-0.03994 0.47721,-0.06036c0.16347,0.23892 0.31751,0.48099 0.46212,0.7262c0.03581,0.06067 0.07144,0.12145 0.10689,0.18234c0.10127,0.17401 0.20083,0.34902 0.29865,0.525c0.0503,0.07545 0.11946,0.12575 0.20748,0.1509c0.08802,0.02515 0.16976,0.01257 0.24521,-0.03772c0.07545,-0.0503 0.12575,-0.11946 0.1509,-0.20748zM176.95214,147.36081c-0.31353,-0.01174 -0.60674,-0.0306 -0.87961,-0.05659c-0.26968,-0.02512 -0.53819,-0.06162 -0.80479,-0.1094c-0.09526,-0.01728 -0.19003,-0.0372 -0.28419,-0.05973c-0.52186,-0.12575 -0.94584,-0.31961 -1.27194,-0.58159c-0.22554,-0.18279 -0.4129,-0.40818 -0.55141,-0.66332c-0.11158,-0.20497 -0.19873,-0.42233 -0.25967,-0.6476c-0.05114,-0.1871 -0.09207,-0.37684 -0.1226,-0.56838c-0.03814,-0.23263 -0.06665,-0.48497 -0.08551,-0.757c-0.01913,-0.28714 -0.02835,-0.57486 -0.02766,-0.86263c0,-0.57174 0.03228,-1.07536 0.09683,-1.51087c0.03223,-0.22527 0.07864,-0.44829 0.13895,-0.66772c0.04748,-0.17148 0.10975,-0.33851 0.18611,-0.49922c0.14494,-0.31126 0.35863,-0.58558 0.62497,-0.80227c0.07754,-0.06211 0.1588,-0.11944 0.24332,-0.17165c0.35084,-0.21713 0.78844,-0.37368 1.31281,-0.46967c0.65389,-0.11946 1.47126,-0.17919 2.45209,-0.17919c0.25596,-0.00028 0.5119,0.00413 0.76769,0.0132c0.31353,0.01174 0.60674,0.0306 0.87961,0.05659c0.26968,0.02512 0.53819,0.06162 0.80479,0.1094c0.09526,0.01728 0.19003,0.0372 0.28419,0.05973c0.52186,0.12575 0.94584,0.31961 1.27194,0.58159c0.22032,0.17824 0.4045,0.39699 0.5426,0.64446c0.1157,0.20736 0.20585,0.42798 0.26847,0.65703c0.05124,0.18559 0.09217,0.37387 0.1226,0.56398c0.03814,0.23054 0.06665,0.48162 0.08551,0.75323c0.01914,0.28672 0.02836,0.57402 0.02766,0.86138c0.00039,0.26635 -0.00757,0.53265 -0.02389,0.7985c-0.01551,0.24982 -0.03898,0.48308 -0.07042,0.69979c-0.03257,0.23266 -0.07982,0.46303 -0.14147,0.68973c-0.05057,0.18532 -0.11835,0.3655 -0.20245,0.5382c-0.14335,0.29934 -0.3512,0.56323 -0.60862,0.77272c-0.07754,0.06211 -0.1588,0.11944 -0.24332,0.17165c-0.35084,0.21713 -0.78844,0.37368 -1.31281,0.46967c-0.65389,0.11946 -1.47126,0.17919 -2.45209,0.17919c-0.25596,0.00028 -0.5119,-0.00413 -0.76769,-0.0132zM258.02207,147.36081c-0.31353,-0.01174 -0.60674,-0.0306 -0.87961,-0.05659c-0.26968,-0.02512 -0.53819,-0.06162 -0.80479,-0.1094c-0.09526,-0.01728 -0.19003,-0.0372 -0.28419,-0.05973c-0.52186,-0.12575 -0.94584,-0.31961 -1.27194,-0.58159c-0.22554,-0.18279 -0.4129,-0.40818 -0.55141,-0.66332c-0.11158,-0.20497 -0.19873,-0.42233 -0.25967,-0.6476c-0.05114,-0.1871 -0.09207,-0.37684 -0.1226,-0.56838c-0.03814,-0.23263 -0.06665,-0.48497 -0.08551,-0.757c-0.01913,-0.28714 -0.02835,-0.57486 -0.02766,-0.86263c0,-0.57174 0.03228,-1.07536 0.09683,-1.51087c0.03223,-0.22527 0.07864,-0.44829 0.13895,-0.66772c0.04748,-0.17148 0.10975,-0.33851 0.18611,-0.49922c0.14494,-0.31126 0.35863,-0.58558 0.62497,-0.80227c0.07754,-0.06211 0.1588,-0.11944 0.24332,-0.17165c0.35084,-0.21713 0.78844,-0.37368 1.31281,-0.46967c0.65389,-0.11946 1.47126,-0.17919 2.45209,-0.17919c0.25596,-0.00028 0.5119,0.00413 0.76769,0.0132c0.31353,0.01174 0.60674,0.0306 0.87961,0.05659c0.26968,0.02512 0.53819,0.06162 0.80479,0.1094c0.09526,0.01728 0.19003,0.0372 0.28419,0.05973c0.52186,0.12575 0.94584,0.31961 1.27194,0.58159c0.22032,0.17824 0.4045,0.39699 0.5426,0.64446c0.1157,0.20736 0.20585,0.42798 0.26847,0.65703c0.05124,0.18559 0.09217,0.37387 0.1226,0.56398c0.03814,0.23054 0.06665,0.48162 0.08551,0.75323c0.01914,0.28672 0.02836,0.57402 0.02766,0.86138c0.00039,0.26635 -0.00757,0.53265 -0.02389,0.7985c-0.01551,0.24982 -0.03898,0.48308 -0.07042,0.69979c-0.03257,0.23266 -0.07982,0.46303 -0.14147,0.68973c-0.05057,0.18532 -0.11835,0.3655 -0.20245,0.5382c-0.14335,0.29934 -0.3512,0.56323 -0.60862,0.77272c-0.07754,0.06211 -0.1588,0.11944 -0.24332,0.17165c-0.35084,0.21713 -0.78844,0.37368 -1.31281,0.46967c-0.65389,0.11946 -1.47126,0.17919 -2.45209,0.17919c-0.25596,0.00028 -0.5119,-0.00413 -0.76769,-0.0132zM193.66787,150.26937c-0.08174,-0.03144 -0.14147,-0.08488 -0.17919,-0.16033c-0.01682,-0.03305 -0.02768,-0.06881 -0.03207,-0.10563c-0.00419,-0.03772 -0.00126,-0.07608 0.0088,-0.11506c0.00136,-0.00506 0.00283,-0.01009 0.0044,-0.01509c0.02515,-0.08174 0.07545,-0.14147 0.1509,-0.17919c0.57344,-0.27445 1.13287,-0.57725 1.67622,-0.90727c0.65892,-0.40281 1.24135,-0.82344 1.74727,-1.26188c0.8991,-0.77964 1.60958,-1.67874 2.13143,-2.6973c0.52186,-1.01856 0.89596,-2.21317 1.1223,-3.58383c0.00901,-0.03745 0.02231,-0.07373 0.03961,-0.10814c0.06245,-0.12156 0.16871,-0.16725 0.31877,-0.13707c0.04168,0.00546 0.08185,0.01913 0.1182,0.04024c0.03511,0.02102 0.0655,0.04906 0.08928,0.08237c0.04988,0.06874 0.06874,0.14671 0.05659,0.23389c0,0.00063 0,0.00126 0,0.00189c-0.12483,0.72002 -0.3024,1.4299 -0.53129,2.12389c-0.18627,0.56307 -0.41538,1.11105 -0.68533,1.63913c-0.55958,1.08772 -1.31093,2.04655 -2.25404,2.87649c-0.88401,0.77796 -1.97823,1.4897 -3.28266,2.13521c-0.08752,0.04336 -0.17534,0.08611 -0.26344,0.12826c-0.02895,0.0148 -0.0602,0.02458 -0.09242,0.02892c-0.04653,0.00587 -0.09431,-0.00063 -0.14335,-0.01949zM141.82499,148.76731c0.00126,0.53317 0.06728,0.95212 0.19805,1.25685c0.13204,0.30808 0.37096,0.525 0.71677,0.65075c0.01918,0.007 0.03846,0.01371 0.05784,0.02012c0.22802,0.07503 0.51033,0.12512 0.84691,0.15027c0.17912,0.01267 0.35864,0.01875 0.5382,0.01823c0.79221,0 1.3738,-0.15719 1.74476,-0.47156c0.02644,-0.02229 0.05203,-0.04557 0.07671,-0.06979c0.23054,-0.2276 0.4091,-0.55958 0.53569,-0.99593c0.05711,-0.20134 0.10142,-0.40609 0.13266,-0.61302c0.00261,-0.01438 0.0047,-0.02885 0.00629,-0.04338c0.01509,-0.14419 -0.0306,-0.24689 -0.13707,-0.30808c-0.0359,-0.0201 -0.07441,-0.03512 -0.11443,-0.04464c-0.06036,-0.01719 -0.11925,-0.01509 -0.17668,0.00629c-0.0276,0.0103 -0.05379,0.02403 -0.07796,0.04087c-0.00509,0.00347 -0.01012,0.00704 -0.01509,0.01069c-0.07251,0.05407 -0.11464,0.11653 -0.12638,0.18736c-0.06916,0.44976 -0.17395,0.79536 -0.31437,1.03679c-0.05575,0.0997 -0.12804,0.18921 -0.21377,0.2647c-0.04878,0.04097 -0.10167,0.07679 -0.15781,0.10689c-0.26198,0.14251 -0.64949,0.21377 -1.16254,0.21377c-0.05114,0.00008 -0.10228,-0.00034 -0.15341,-0.00126c-0.25611,-0.00503 -0.47386,-0.02284 -0.65326,-0.05344c-0.08443,-0.01381 -0.16783,-0.03335 -0.24961,-0.05847c-0.0309,-0.00965 -0.06133,-0.02077 -0.09117,-0.03332c-0.18032,-0.07127 -0.32426,-0.21227 -0.39925,-0.39108c-0.06204,-0.14587 -0.10207,-0.3368 -0.12009,-0.57278c-0.00815,-0.10753 -0.01214,-0.21533 -0.01195,-0.32317v-3.33862c0,-0.1006 -0.03144,-0.18234 -0.09431,-0.24521c-0.0367,-0.03689 -0.08211,-0.06392 -0.13204,-0.07859c-0.03676,-0.01073 -0.07488,-0.01602 -0.11317,-0.01572c-0.04214,-0.00032 -0.08396,0.00737 -0.12323,0.02263c-0.04158,0.01682 -0.07972,0.04111 -0.11254,0.07168c-0.03841,0.03411 -0.06761,0.07736 -0.08488,0.12575c-0.01305,0.03846 -0.01942,0.07886 -0.01886,0.11946v3.33862c-0.00001,0.00545 -0.00001,0.0109 0,0.01635zM345.90379,140.44214c-0.07303,0.87554 -0.20494,1.74518 -0.39485,2.60299c-0.01616,0.07161 -0.03293,0.14308 -0.0503,0.2144c-0.24555,1.03566 -0.63161,2.03287 -1.14745,2.96389c-1.21976,-1.9491 -1.87365,-4.23772 -1.96167,-6.86586h3.62155c-0.01387,0.36201 -0.0363,0.72363 -0.06728,1.08458zM300.04212,137.05574c0.08626,-0.00167 0.16798,-0.039 0.22572,-0.10311c0.00212,-0.00249 0.00422,-0.00501 0.00629,-0.00754c0.05673,-0.06247 0.08812,-0.14385 0.08802,-0.22823c0,-0.1006 -0.03144,-0.18234 -0.09431,-0.24521c-0.0367,-0.03689 -0.08211,-0.06392 -0.13204,-0.07859c-0.03676,-0.01073 -0.07488,-0.01602 -0.11317,-0.01572h-7.22424c-0.04214,-0.00032 -0.08396,0.00737 -0.12323,0.02263c-0.04158,0.01682 -0.07972,0.04111 -0.11254,0.07168c-0.03841,0.03411 -0.06761,0.07736 -0.08488,0.12575c-0.01305,0.03846 -0.01942,0.07886 -0.01886,0.11946c-0.0003,0.04989 0.01157,0.09909 0.03458,0.14335c0.01817,0.03418 0.0415,0.06535 0.06916,0.09242c0.00961,0.0097 0.01968,0.01893 0.03018,0.02766c0.05721,0.04916 0.13017,0.07615 0.2056,0.07608h7.22424c0.0065,-0.00006 0.013,-0.00027 0.01949,-0.00063zM147.68926,139.60214c0.03856,0.0197 0.08195,0.02955 0.13015,0.02955c0.00755,0.00002 0.0151,-0.00019 0.02263,-0.00063c0.01984,-0.00126 0.03958,-0.00378 0.0591,-0.00754c0.07041,-0.01229 0.13536,-0.04586 0.18611,-0.0962c0.03103,-0.02533 0.05651,-0.0568 0.07482,-0.09242c0.0197,-0.03856 0.02955,-0.08195 0.02955,-0.13015c0.00002,-0.00755 -0.00019,-0.0151 -0.00063,-0.02263c-0.00126,-0.01984 -0.00378,-0.03958 -0.00754,-0.0591c-0.01229,-0.07041 -0.04586,-0.13536 -0.0962,-0.18611c-0.0487,-0.04686 -0.09691,-0.09422 -0.14461,-0.1421c-0.14629,-0.14713 -0.29698,-0.30745 -0.45207,-0.48099c-0.1701,-0.19098 -0.33592,-0.38573 -0.49733,-0.5841c-0.38982,-0.47784 -0.75135,-0.97141 -1.08458,-1.48069c-0.33323,-0.50928 -0.60045,-0.95254 -0.80165,-1.32979c-0.0876,-0.15299 -0.20832,-0.20623 -0.36216,-0.1597c-0.02452,0.0075 -0.04847,0.01675 -0.07168,0.02766c-0.08802,0.03772 -0.14775,0.09745 -0.17919,0.17919c-0.02305,0.05994 -0.0241,0.12135 -0.00314,0.18422c0.00808,0.02447 0.01861,0.04807 0.03144,0.07042c0.14168,0.26742 0.30892,0.5556 0.50174,0.86452c0.12201,0.19482 0.24714,0.38765 0.37536,0.57844c0.35838,0.53443 0.73248,1.04685 1.1223,1.53727c0.38982,0.49042 0.7482,0.8991 1.07515,1.22605c0.02533,0.03103 0.0568,0.05651 0.09242,0.07482zM138.93152,139.60843c0.05407,0.01928 0.11317,0.02683 0.17731,0.02263c0.01242,-0.00066 0.0248,-0.00192 0.0371,-0.00377c0.07738,-0.01015 0.14649,-0.05354 0.18925,-0.11883c0.03363,-0.0364 0.06695,-0.07308 0.09997,-0.11003c0.14503,-0.1618 0.29341,-0.33889 0.44515,-0.53129c0.15308,-0.19449 0.30151,-0.3926 0.44515,-0.59416c0.34581,-0.48413 0.67275,-0.98712 0.98084,-1.50898c0.30808,-0.52186 0.56272,-0.99656 0.76392,-1.4241c0.00691,-0.01831 0.01279,-0.03699 0.0176,-0.05596c0.02012,-0.07964 0.0174,-0.1553 -0.00817,-0.22698c-0.01918,-0.05484 -0.05446,-0.10261 -0.10123,-0.13707c-0.02967,-0.02168 -0.06228,-0.03904 -0.09683,-0.05156c-0.05281,-0.02263 -0.10584,-0.0329 -0.15907,-0.03081c-0.03587,0.00182 -0.07127,0.00903 -0.105,0.02138c-0.04101,0.01421 -0.07867,0.03668 -0.11066,0.06602c-0.03368,0.0318 -0.06025,0.07037 -0.07796,0.11317c-0.03992,0.09809 -0.08185,0.19536 -0.12575,0.29174c-0.07587,0.16683 -0.16201,0.34204 -0.25841,0.52563c-0.0975,0.18553 -0.19896,0.36896 -0.30431,0.55015c-0.29551,0.50928 -0.61302,1.00599 -0.95254,1.49012c-0.19114,0.27245 -0.37808,0.51997 -0.56084,0.74254c-0.13383,0.16339 -0.27393,0.32153 -0.42,0.47407c-0.12575,0.1509 -0.11317,0.3018 0.03772,0.45269c0.027,0.01802 0.05615,0.03259 0.08677,0.04338zM131.60165,148.60006c0.2012,-0.36467 0.40868,-0.79536 0.62245,-1.29206c0.21377,-0.49671 0.40868,-1.00913 0.58473,-1.53727c0.07857,-0.23501 0.15278,-0.47146 0.22257,-0.70922c0.07503,-0.25569 0.13916,-0.49712 0.19239,-0.72431c0.00631,-0.03538 0.01708,-0.06982 0.03207,-0.10248c0.05784,-0.12323 0.1729,-0.16452 0.34518,-0.12386c0.03538,0.00631 0.06982,0.01708 0.10248,0.03207c0.12323,0.05784 0.16452,0.1729 0.12386,0.34518c-0.11506,0.47359 -0.24972,0.94219 -0.40365,1.40461c-0.09791,0.29484 -0.20231,0.58748 -0.31311,0.87772c-0.3018,0.79221 -0.61617,1.4964 -0.94311,2.11257c-0.01967,0.0334 -0.04285,0.06459 -0.06916,0.09305c-0.10311,0.10982 -0.23096,0.1291 -0.38353,0.05784c-0.02899,-0.015 -0.05637,-0.0329 -0.08174,-0.05344c-0.11527,-0.09641 -0.12575,-0.2232 -0.03144,-0.38039zM248.11939,138.97466c0.24344,-0.08998 0.4638,-0.23302 0.64509,-0.41874c0.34581,-0.34581 0.51871,-0.75763 0.51871,-1.23548c0.00007,-0.00964 0.00007,-0.01928 0,-0.02892c0.00121,-0.45932 -0.18634,-0.89896 -0.51871,-1.21599c-0.00126,-0.00126 -0.00251,-0.00252 -0.00377,-0.00377c-0.3249,-0.32876 -0.76953,-0.51124 -1.2317,-0.50551c-0.47784,0 -0.88967,0.16976 -1.23548,0.50928c-0.13554,0.13138 -0.24892,0.28383 -0.33575,0.45144c-0.1238,0.24597 -0.18655,0.51813 -0.18296,0.79347c-0.00134,0.20112 0.03249,0.40092 0.09997,0.59039c0.08998,0.24344 0.23302,0.4638 0.41874,0.64509c0.34581,0.34581 0.75763,0.51871 1.23548,0.51871c0.20112,0.00134 0.40092,-0.03249 0.59039,-0.09997zM137.91673,148.58686c-0.00527,-0.00802 -0.0103,-0.0162 -0.01509,-0.02452c-0.11234,-0.23347 -0.23368,-0.50698 -0.36404,-0.82051c-0.06229,-0.15037 -0.12328,-0.30127 -0.18296,-0.45269c-0.2012,-0.50928 -0.39296,-1.0217 -0.5753,-1.53727c-0.04364,-0.1235 -0.08744,-0.24694 -0.13141,-0.37033c-0.11778,-0.32988 -0.22174,-0.6168 -0.31186,-0.86075c-0.00628,-0.01719 -0.01257,-0.03437 -0.01886,-0.05156c-0.02012,-0.05994 -0.02033,-0.12177 -0.00063,-0.18548c0.00536,-0.01718 0.01187,-0.03399 0.01949,-0.0503c0.03191,-0.07283 0.09311,-0.12878 0.1685,-0.15404c0.00664,-0.0023 0.01335,-0.00439 0.02012,-0.00629c0.05994,-0.02012 0.12177,-0.02033 0.18548,-0.00063c0.01718,0.00536 0.03399,0.01187 0.0503,0.01949c0.07283,0.03191 0.12878,0.09311 0.15404,0.1685c0.0023,0.00664 0.00439,0.01335 0.00629,0.02012c0.04615,0.14312 0.09352,0.28585 0.1421,0.42817c0.04317,0.12742 0.08991,0.26239 0.14021,0.40491c0.05299,0.15008 0.10665,0.29994 0.16096,0.44955c0.18234,0.50299 0.37724,0.99656 0.58473,1.48069c0.04972,0.11603 0.10023,0.23172 0.15153,0.34707c0.14754,0.33156 0.28251,0.61512 0.40491,0.85069c0.01576,0.02735 0.02821,0.05648 0.0371,0.08677c0.01719,0.0591 0.0174,0.1182 0.00063,0.17731c-0.02156,0.07576 -0.06922,0.14146 -0.13455,0.18548c-0.01139,0.00787 -0.02314,0.01522 -0.03521,0.02201c-0.08635,0.04946 -0.17269,0.05952 -0.25904,0.03018c-0.00168,-0.00062 -0.00336,-0.00124 -0.00503,-0.00189c-0.07966,-0.02852 -0.14742,-0.083 -0.19239,-0.15467zM138.76364,150.03171c0.02721,0.00001 0.05436,-0.00252 0.08111,-0.00754c0.0078,-0.00144 0.01556,-0.00312 0.02326,-0.00503c0.08667,-0.02059 0.16051,-0.07705 0.20308,-0.1553c0.36467,-0.54072 0.6979,-1.17575 0.9997,-1.90509c0.00462,-0.01131 0.00923,-0.02263 0.01383,-0.03395c0.29509,-0.71635 0.51683,-1.37778 0.66521,-1.98431c0.00203,-0.01168 0.00371,-0.02343 0.00503,-0.03521c0.02222,-0.19365 -0.06748,-0.32024 -0.2691,-0.37976c-0.03186,-0.00922 -0.06308,-0.01383 -0.09368,-0.01383c-0.05338,0.00016 -0.10573,0.01471 -0.15153,0.04213c-0.07545,0.04401 -0.12575,0.11632 -0.1509,0.21692c-0.043,0.18282 -0.09038,0.36457 -0.1421,0.54512c-0.13987,0.48421 -0.30654,0.96027 -0.49922,1.42599c-0.11583,0.28306 -0.24551,0.56025 -0.38856,0.83057c-0.16787,0.31872 -0.35955,0.62432 -0.57341,0.91419c-0.13832,0.2012 -0.11317,0.36467 0.07545,0.49042c0.06126,0.03576 0.1309,0.05463 0.20183,0.0547zM337.95083,145.36519c-0.40156,1.07138 -0.897,1.95476 -1.48634,2.65015c-0.22635,-0.11317 -0.45584,-0.2232 -0.68847,-0.33009c-0.23263,-0.10689 -0.46212,-0.20434 -0.68847,-0.29236c-0.05158,-0.02113 -0.10253,-0.04377 -0.15278,-0.0679c-0.16641,-0.0809 -0.2953,-0.16683 -0.38668,-0.25778c-0.05464,-0.05239 -0.0988,-0.11469 -0.13015,-0.18359c-0.06581,-0.15174 -0.04422,-0.3521 0.06476,-0.60108c0.02883,-0.06518 0.06072,-0.12897 0.09557,-0.19114c0.08802,-0.1509 0.1729,-0.30494 0.25464,-0.46212c0.08174,-0.15719 0.16662,-0.31751 0.25464,-0.48099h2.94251c-0.02577,0.07254 -0.05218,0.14485 -0.07922,0.21692zM148.69084,148.97731c-0.03966,-0.07388 -0.0799,-0.14744 -0.12072,-0.22069c-0.12491,-0.22425 -0.26219,-0.45856 -0.41183,-0.70293c-0.16377,-0.26714 -0.33209,-0.53146 -0.50488,-0.79284c-0.22048,-0.33407 -0.43383,-0.64509 -0.64006,-0.93305c-0.17138,-0.23975 -0.34788,-0.47579 -0.5294,-0.70796c-0.12575,-0.1509 -0.27036,-0.16976 -0.43383,-0.05659c-0.00818,0.00535 -0.01615,0.01101 -0.02389,0.01698c-0.05849,0.04376 -0.09736,0.10883 -0.10814,0.18108c-0.00021,0.00105 -0.00042,0.00209 -0.00063,0.00314c-0.01132,0.08048 0.00775,0.15174 0.05722,0.21377c0.12701,0.15383 0.25841,0.32171 0.39422,0.50362c0.12618,0.16951 0.24943,0.34118 0.3697,0.51494c0.27036,0.38982 0.53129,0.78907 0.78278,1.19775c0.2515,0.40868 0.46527,0.78278 0.64132,1.1223c0.03772,0.07545 0.1006,0.11946 0.18862,0.13204c0.08802,0.01257 0.17605,-0.00629 0.26407,-0.05659c0.1509,-0.11317 0.17605,-0.2515 0.07545,-0.41497zM144.56504,146.25234c-0.00797,0.00008 -0.01594,-0.00013 -0.02389,-0.00063c-0.08802,-0.00629 -0.16347,-0.04716 -0.22635,-0.1226c-0.13984,-0.19903 -0.28535,-0.39402 -0.43635,-0.58473c-0.16722,-0.21146 -0.33933,-0.419 -0.5162,-0.62245c-0.15366,-0.1778 -0.31302,-0.35058 -0.47784,-0.51808c-0.16305,-0.16515 -0.32296,-0.31458 -0.47973,-0.44829c-0.03571,-0.03038 -0.07176,-0.06035 -0.10814,-0.08991c-0.06287,-0.06287 -0.09431,-0.13832 -0.09431,-0.22635c-0.00017,-0.02877 0.003,-0.05747 0.00943,-0.08551c0.01001,-0.04609 0.0329,-0.08839 0.06602,-0.12198c0.0221,-0.0223 0.04585,-0.0429 0.07105,-0.06162c0.13623,-0.10018 0.26344,-0.08593 0.38165,0.04275c0.17519,0.15689 0.34586,0.31875 0.5118,0.48539c0.17437,0.17521 0.3544,0.36446 0.54009,0.56775c0.0267,0.02927 0.05332,0.05861 0.07985,0.08802c0.13888,0.15396 0.27554,0.3099 0.40994,0.46778c0.12198,0.14335 0.23347,0.27895 0.33449,0.4068c0.07427,0.0938 0.1468,0.18896 0.21754,0.28545c0.01836,0.02303 0.03496,0.04741 0.04967,0.07293c0.07754,0.13707 0.05596,0.25757 -0.06476,0.36153c-0.00738,0.00628 -0.01492,0.01236 -0.02263,0.01823c-0.02865,0.02415 -0.06063,0.04405 -0.09494,0.0591c-0.04066,0.0176 -0.08278,0.02641 -0.12638,0.02641zM193.41323,144.67672c-0.18862,-0.45269 -0.40239,-0.89281 -0.64132,-1.32036c-0.23892,-0.42754 -0.47156,-0.7985 -0.6979,-1.11287c-0.04862,-0.06078 -0.0679,-0.1335 -0.05784,-0.21817c0.00039,-0.00273 0.00081,-0.00545 0.00126,-0.00817c0.00994,-0.07965 0.05281,-0.15149 0.1182,-0.19805c0.00454,-0.00325 0.00915,-0.00639 0.01383,-0.00943c0.06078,-0.04862 0.1335,-0.0679 0.21817,-0.05784c0.00273,0.00039 0.00545,0.00081 0.00817,0.00126c0.07965,0.00994 0.15149,0.05281 0.19805,0.1182c0.00325,0.00454 0.00639,0.00915 0.00943,0.01383c0.23892,0.3521 0.48413,0.75449 0.73563,1.20718c0.21401,0.38436 0.4149,0.77587 0.60233,1.17386c0.02585,0.05499 0.05142,0.11011 0.07671,0.16536c0.00864,0.02149 0.01578,0.04355 0.02138,0.06602c0.03856,0.15509 -0.02515,0.27141 -0.19114,0.34895c-0.02149,0.00864 -0.04355,0.01578 -0.06602,0.02138c-0.15509,0.03856 -0.27141,-0.02515 -0.34895,-0.19114zM196.95178,143.73486c-0.00277,-0.01946 -0.00655,-0.03877 -0.01132,-0.05784c-0.0023,-0.0065 -0.0046,-0.013 -0.00692,-0.01949c-0.06832,-0.20497 -0.14671,-0.41979 -0.23515,-0.64446c-0.0936,-0.23655 -0.19213,-0.47112 -0.29551,-0.70356c-0.12365,-0.27958 -0.24647,-0.53799 -0.36844,-0.77524c-0.08922,-0.1749 -0.18336,-0.34724 -0.2823,-0.51683c-0.03772,-0.07545 -0.1006,-0.12575 -0.18862,-0.1509c-0.02934,-0.00838 -0.05722,-0.01257 -0.08362,-0.01257c-0.052,-0.00047 -0.10251,0.01733 -0.14272,0.0503c-0.01709,0.01007 -0.03366,0.02098 -0.04967,0.03269c-0.14503,0.10814 -0.1662,0.24186 -0.0635,0.40114c0.106,0.17295 0.2052,0.34997 0.29739,0.53066c0.10219,0.20042 0.19802,0.40403 0.28733,0.61051c0.07217,0.16632 0.14114,0.33402 0.20686,0.50299c0.1157,0.29762 0.22284,0.59849 0.32129,0.90224c0.01248,0.03831 0.03307,0.07348 0.06036,0.10311c0.02589,0.02752 0.05657,0.0501 0.09054,0.06665c0.07545,0.03772 0.15719,0.04401 0.24521,0.01886c0.17018,-0.05659 0.24311,-0.16934 0.2188,-0.33826zM337.46419,137.25442c-0.00754,-0.0482 -0.00398,-0.09075 0.01069,-0.12763c0.01015,-0.02645 0.0258,-0.05045 0.0459,-0.07042c0.0611,-0.0713 0.12126,-0.1434 0.18045,-0.21629c0.05281,-0.06539 0.10835,-0.13518 0.16662,-0.20937c0.0609,-0.07776 0.12126,-0.15593 0.18108,-0.23452c0.2012,-0.26407 0.39611,-0.53757 0.58473,-0.82051c0.18736,-0.28126 0.33763,-0.52207 0.45081,-0.72242c0.00063,-0.00126 0.00126,-0.00251 0.00189,-0.00377c0.01747,-0.02774 0.03769,-0.05365 0.06036,-0.07734c0.09389,-0.09599 0.2056,-0.10919 0.33512,-0.03961c0.01308,0.00704 0.02587,0.01459 0.03835,0.02263c0.07545,0.03772 0.12575,0.1006 0.1509,0.18862c0.00454,0.01587 0.0079,0.03205 0.01006,0.04841c0.00922,0.06748 -0.00671,0.1268 -0.04778,0.17793c-0.08205,0.12797 -0.16589,0.25477 -0.2515,0.38039c-0.07671,0.11275 -0.15949,0.2318 -0.24835,0.35713c-0.09337,0.13208 -0.18768,0.26349 -0.28293,0.39422c-0.1135,0.15593 -0.22899,0.3104 -0.34644,0.46338c-0.11485,0.14964 -0.22467,0.28796 -0.32946,0.41497c-0.05984,0.07267 -0.12062,0.14457 -0.18234,0.21566c-0.0236,0.02406 -0.0495,0.04575 -0.07734,0.06476c-0.11485,0.07671 -0.23368,0.07398 -0.3565,-0.00817c-0.03677,-0.03715 -0.06395,-0.08268 -0.07922,-0.13266c-0.00672,-0.02137 -0.01177,-0.04323 -0.01509,-0.06539zM247.08826,138.4025c-0.14229,-0.06185 -0.27125,-0.15067 -0.37976,-0.26156c-0.00358,-0.00354 -0.00714,-0.00711 -0.01069,-0.01069c-0.21818,-0.21271 -0.34032,-0.50511 -0.33826,-0.80982c-0.00003,-0.00503 -0.00003,-0.01006 0,-0.01509c-0.00057,-0.31077 0.12542,-0.60838 0.34895,-0.82428c0.00354,-0.00358 0.00711,-0.00714 0.01069,-0.01069c0.21271,-0.21818 0.50511,-0.34032 0.80982,-0.33826c0.00754,-0.00006 0.01509,-0.00006 0.02263,0c0.30565,0.00032 0.59766,0.12654 0.8073,0.34895c0.22635,0.23263 0.33952,0.51242 0.33952,0.83937c0,0.31437 -0.11317,0.58787 -0.33952,0.82051c-0.00519,0.00549 -0.01043,0.01094 -0.01572,0.01635c-0.21414,0.21809 -0.50863,0.33839 -0.81422,0.3326c-0.15132,0.00109 -0.30129,-0.02865 -0.44075,-0.0874zM166.21953,139.02873c-0.00189,-0.0004 -0.00378,-0.00082 -0.00566,-0.00126c-0.07822,-0.01698 -0.14934,-0.05758 -0.20371,-0.11632c-0.00783,-0.00812 -0.01538,-0.01651 -0.02263,-0.02515c-0.03484,-0.05198 -0.0709,-0.10313 -0.10814,-0.15341c-0.08341,-0.11317 -0.18632,-0.24332 -0.30871,-0.39045c-0.00879,-0.01049 -0.01759,-0.02097 -0.02641,-0.03144c-0.19491,-0.23263 -0.39925,-0.46212 -0.61302,-0.68847c-0.21377,-0.22635 -0.38982,-0.39611 -0.52814,-0.50928c-0.0603,-0.05995 -0.09692,-0.13966 -0.10311,-0.22446c-0.00026,-0.00377 -0.00047,-0.00754 -0.00063,-0.01132c-0.00049,-0.00837 -0.0007,-0.01676 -0.00063,-0.02515c0,-0.04569 0.00838,-0.0874 0.02515,-0.12512c0.01478,-0.03192 0.03523,-0.0609 0.06036,-0.08551c0.02126,-0.02542 0.04507,-0.04859 0.07105,-0.06916c0.10731,-0.08383 0.22488,-0.08467 0.35272,-0.00251c0.01646,0.01055 0.0324,0.02188 0.04778,0.03395c0.03775,0.03451 0.07485,0.06973 0.11129,0.10563c0.08174,0.08006 0.17458,0.17605 0.27853,0.28796c0.04966,0.05391 0.09891,0.10819 0.14775,0.16284c0.22006,0.24521 0.44012,0.49356 0.66018,0.74506c0.06439,0.07364 0.1279,0.14804 0.19051,0.2232c0.12826,0.15383 0.23138,0.28692 0.30934,0.39925c0.02148,0.03158 0.03723,0.0667 0.04653,0.10374c0.01048,0.04359 0.01111,0.08886 0.00189,0.13581c-0.0004,0.00189 -0.00082,0.00378 -0.00126,0.00566c-0.01886,0.08802 -0.06602,0.15719 -0.14147,0.20748c-0.03158,0.02148 -0.0667,0.03723 -0.10374,0.04653c-0.04359,0.01048 -0.08886,0.01111 -0.13581,0.00189zM286.58957,137.42481c-0.00839,0.00007 -0.01678,-0.00014 -0.02515,-0.00063c-0.09431,-0.00629 -0.1729,-0.04716 -0.23578,-0.1226c-0.10228,-0.12491 -0.24814,-0.27811 -0.4376,-0.45961c-0.02067,-0.01978 -0.04142,-0.03948 -0.06225,-0.0591c-0.22006,-0.20748 -0.44955,-0.41497 -0.68847,-0.62245c-0.19701,-0.17102 -0.36404,-0.30578 -0.50111,-0.40428c-0.02754,-0.01976 -0.05542,-0.03904 -0.08362,-0.05784c-0.04382,-0.03557 -0.07763,-0.08195 -0.09808,-0.13455c-0.01075,-0.02662 -0.01896,-0.0542 -0.02452,-0.08237c-0.00321,-0.01536 -0.00552,-0.0309 -0.00692,-0.04653c-0.00587,-0.07419 0.01216,-0.13728 0.05407,-0.18925c0.02235,-0.02874 0.0474,-0.05527 0.07482,-0.07922c0.11443,-0.09892 0.2406,-0.10772 0.3785,-0.02641c0.00615,0.00366 0.01223,0.00743 0.01823,0.01132c0.0562,0.03917 0.11134,0.07984 0.16536,0.12198c0.12114,0.09389 0.25925,0.21 0.41434,0.34832c0.01113,0.00983 0.02223,0.01968 0.03332,0.02955c0.24521,0.22006 0.48727,0.44326 0.7262,0.66961c0.07,0.0662 0.13916,0.13327 0.20748,0.2012c0.14,0.13958 0.25317,0.26114 0.33952,0.36467c0.02846,0.02786 0.05092,0.06123 0.06602,0.09808c0.01299,0.03269 0.01949,0.06748 0.01949,0.10437c0.00008,0.00797 -0.00013,0.01594 -0.00063,0.02389c-0.00629,0.08802 -0.04716,0.16347 -0.1226,0.22635c-0.05444,0.05548 -0.12914,0.08636 -0.20686,0.08551c-0.00126,0 -0.00251,0 -0.00377,0zM284.88442,138.78415c-0.00946,-0.00965 -0.01848,-0.01972 -0.02704,-0.03018c-0.1006,-0.1509 -0.25464,-0.33952 -0.46212,-0.56587c-0.20748,-0.22635 -0.42126,-0.44641 -0.64132,-0.66018c-0.06453,-0.06273 -0.12993,-0.12456 -0.19617,-0.18548c-0.13623,-0.12533 -0.25632,-0.22698 -0.36027,-0.30494c-0.03559,-0.02891 -0.06508,-0.0646 -0.08677,-0.105c-0.02102,-0.04058 -0.03324,-0.08515 -0.03584,-0.13078c-0.00049,-0.00837 -0.0007,-0.01676 -0.00063,-0.02515c0,-0.04569 0.00838,-0.0874 0.02515,-0.12512c0.01478,-0.03192 0.03523,-0.0609 0.06036,-0.08551c0.02649,-0.03235 0.05789,-0.06036 0.09305,-0.08299c0.04042,-0.02568 0.08587,-0.04241 0.13329,-0.04904c0.01312,-0.00191 0.02635,-0.00296 0.03961,-0.00314c0.07126,-0.00084 0.1335,0.02536 0.18674,0.07859c0.14419,0.11988 0.32548,0.28859 0.54386,0.50614c0.01049,0.01047 0.02097,0.02094 0.03144,0.03144c0.23263,0.23263 0.46212,0.47156 0.68847,0.71677c0.22635,0.24521 0.39611,0.44326 0.50928,0.59416c0.01943,0.02288 0.03571,0.04826 0.04841,0.07545c0.02431,0.05323 0.03039,0.10919 0.01823,0.16787c-0.00021,0.00063 -0.00042,0.00126 -0.00063,0.00189c-0.01698,0.07822 -0.05758,0.14934 -0.11632,0.20371c-0.00812,0.00783 -0.01651,0.01538 -0.02515,0.02263c-0.06078,0.04862 -0.1335,0.0679 -0.21817,0.05784c-0.00273,-0.00039 -0.00545,-0.00081 -0.00817,-0.00126c-0.07592,-0.01082 -0.14606,-0.04667 -0.19931,-0.10186zM167.78949,137.63292c-0.00965,-0.00007 -0.0193,-0.00049 -0.02892,-0.00126c-0.08802,-0.00629 -0.16347,-0.04716 -0.22635,-0.1226c-0.11317,-0.13832 -0.27665,-0.31751 -0.49042,-0.53757c-0.21377,-0.22006 -0.43383,-0.43698 -0.66018,-0.65075c-0.06631,-0.06264 -0.13338,-0.12447 -0.2012,-0.18548c-0.12994,-0.11695 -0.24458,-0.21335 -0.34392,-0.28922c-0.00689,-0.00527 -0.01381,-0.01051 -0.02075,-0.01572c-0.06287,-0.06287 -0.1006,-0.13832 -0.11317,-0.22635c-0.01257,-0.08802 0.00629,-0.16347 0.05659,-0.22635c0.02649,-0.03235 0.05789,-0.06036 0.09305,-0.08299c0.04042,-0.02568 0.08587,-0.04241 0.13329,-0.04904c0.01437,-0.00207 0.02887,-0.00312 0.04338,-0.00314c0.05533,0 0.10814,0.01572 0.15844,0.04716c0.01516,0.00948 0.02965,0.01999 0.04338,0.03144c0.1509,0.11317 0.34581,0.28293 0.58473,0.50928c0.23892,0.22635 0.4747,0.45898 0.70733,0.6979c0.23263,0.23892 0.41183,0.43383 0.53757,0.58473c0.02085,0.02041 0.03807,0.04423 0.05093,0.07042c0.02054,0.04234 0.02662,0.08928 0.01823,0.14084c-0.00092,0.00505 -0.00197,0.01009 -0.00314,0.01509c-0.01698,0.07822 -0.05758,0.14934 -0.11632,0.20371c-0.00812,0.00783 -0.01651,0.01538 -0.02515,0.02263c-0.05401,0.04342 -0.12121,0.06715 -0.19051,0.06728c-0.0021,0 -0.0044,0 -0.00692,0zM334.18216,137.41475c-0.08802,-0.01257 -0.1509,-0.05659 -0.18862,-0.13204c-0.17605,-0.26407 -0.40554,-0.58787 -0.68847,-0.97141c-0.19323,-0.26198 -0.37054,-0.49042 -0.53192,-0.68533c-0.06946,-0.08414 -0.14052,-0.16694 -0.21314,-0.24835c-0.04392,-0.05349 -0.06773,-0.12067 -0.06728,-0.18988c0.00007,-0.00902 0.00049,-0.01804 0.00126,-0.02704c0.00263,-0.04099 0.01422,-0.08091 0.03395,-0.11695c0.01775,-0.03133 0.04146,-0.05888 0.06979,-0.08111c0.05349,-0.04392 0.12067,-0.06773 0.18988,-0.06728c0.00902,0.00007 0.01804,0.00049 0.02704,0.00126c0.04099,0.00263 0.08091,0.01422 0.11695,0.03395c0.03133,0.01775 0.05888,0.04146 0.08111,0.06979c0.09171,0.1022 0.18143,0.20617 0.2691,0.31186c0.0788,0.09515 0.16096,0.1968 0.24647,0.30494c0.09023,0.11416 0.1793,0.22923 0.26722,0.34518c0.09555,0.12604 0.18924,0.25348 0.28105,0.38227c0.08216,0.11485 0.15719,0.22383 0.22509,0.32695c0.06313,0.09533 0.12393,0.19218 0.18234,0.29048c0.11317,0.1509 0.09431,0.28293 -0.05659,0.39611c-0.03748,0.02559 -0.07953,0.04373 -0.12386,0.05344c-0.03898,0.00796 -0.07943,0.00901 -0.12135,0.00314z"/><path d="M312.79555,173.93113c0.31283,0.13474 0.57405,0.36648 0.74511,0.66102c0.28669,0.5081 0.2725,1.16415 -0.04258,1.96816c-0.08128,0.20465 -0.17367,0.40471 -0.27676,0.59928c-1.40152,2.67885 -3.22421,5.03412 -5.46806,7.06579c-0.96921,0.87406 -2.0017,1.67528 -3.08902,2.39713c-1.59658,1.0555 -3.28359,1.9674 -5.04122,2.72498c-0.12418,0.05322 -0.20827,0.14193 -0.25227,0.26611c-0.00109,0.00283 -0.00215,0.00567 -0.00319,0.00852c-0.04116,0.12135 -0.03583,0.24269 0.01597,0.36404c0.05322,0.12418 0.14193,0.20863 0.26611,0.25334c0.00248,0.00073 0.00496,0.00144 0.00745,0.00213c0.12205,0.04187 0.24376,0.03655 0.36511,-0.01597c0.80984,-0.35344 1.60592,-0.73763 2.38649,-1.15173c2.17214,-1.14021 4.19143,-2.55043 6.00986,-4.19711c2.3503,-2.14663 4.23508,-4.57712 5.65434,-7.29146c0.49674,-0.92252 0.71424,-1.75634 0.65251,-2.50145c-0.00504,-0.05732 -0.01178,-0.11447 -0.02022,-0.17138c-0.0832,-0.64425 -0.4331,-1.22395 -0.96439,-1.59773c-0.21927,-0.15788 -0.45972,-0.28402 -0.71424,-0.37469c-0.26611,-0.09722 -0.56238,-0.16889 -0.88881,-0.21502c-0.31996,-0.04344 -0.64256,-0.06443 -0.96545,-0.0628h-3.67234c0.23116,-0.33353 0.4471,-0.67734 0.64718,-1.03038c0.20658,-0.36327 0.39038,-0.73904 0.55032,-1.12512c0.03193,-0.07451 0.04613,-0.14938 0.04258,-0.2246c-0.00213,-0.05048 -0.01182,-0.10035 -0.02874,-0.14796c-0.0203,-0.05765 -0.05218,-0.11054 -0.09367,-0.15541c-0.04479,-0.04778 -0.09922,-0.08551 -0.15967,-0.1107c-0.07451,-0.03193 -0.14938,-0.04613 -0.2246,-0.04258c-0.05053,0.00247 -0.10041,0.01252 -0.14796,0.0298c-0.05794,0.01985 -0.11119,0.05137 -0.15647,0.09261c-0.04739,0.0449 -0.08476,0.09931 -0.10964,0.15967c-0.24401,0.54927 -0.52055,1.08351 -0.82814,1.59986c-0.33965,0.57108 -0.70697,1.12525 -1.10064,1.66054c-0.8253,1.12618 -1.75244,2.1995 -2.7814,3.21995c-0.13177,0.13082 -0.26483,0.26033 -0.39917,0.38852c-0.8746,0.83683 -1.80841,1.6095 -2.79417,2.31198c-0.12418,0.07096 -0.19515,0.17315 -0.21289,0.30656c-0.01774,0.1327 0.00887,0.25227 0.07983,0.35872c0.00721,0.01081 0.01466,0.02146 0.02235,0.03193c0.14902,0.20367 0.33424,0.2576 0.55564,0.1618c0.03943,-0.01735 0.0775,-0.03763 0.1139,-0.06067c0.44243,-0.31333 0.87345,-0.64246 1.29224,-0.98674c0.74311,-0.61324 1.45337,-1.26523 2.12783,-1.95326c0.27804,-0.28243 0.55094,-0.56988 0.81856,-0.8622c0.76801,-0.83558 1.48531,-1.71639 2.14805,-2.6377h4.31101c0.67202,0 1.21311,0.09474 1.62328,0.28421zM167.09947,189.42734c-0.83382,-0.65641 -1.42813,-1.4991 -1.78295,-2.52806c-0.12418,-0.31933 -0.02661,-0.5411 0.29272,-0.66528c0.0281,-0.01055 0.05691,-0.01909 0.08622,-0.02555c0.23773,-0.05251 0.40413,0.08019 0.49923,0.3981c0.30159,0.85156 0.78946,1.54806 1.46361,2.08951c0.57545,0.45931 1.27558,0.73521 2.00967,0.79195c0.14581,0.01313 0.29215,0.01952 0.43855,0.01916c0.43327,0.00293 0.86577,-0.03701 1.29117,-0.11922c0.82388,-0.16463 1.49342,-0.50171 2.00861,-1.01122c0.76285,-0.75434 1.14428,-1.83227 1.14428,-3.23379c0.00263,-0.4114 -0.046,-0.82153 -0.14476,-1.22092c-0.09978,-0.40065 -0.26176,-0.78318 -0.48007,-1.13364c-0.41726,-0.66564 -0.98071,-1.18011 -1.69034,-1.54345c-0.52621,-0.26629 -1.09577,-0.43643 -1.68183,-0.50242c-0.2455,-0.0293 -0.49255,-0.04388 -0.73979,-0.04364c-0.06685,0.00092 -0.1336,-0.00551 -0.19905,-0.01916c-0.18734,-0.04258 -0.29556,-0.15186 -0.32466,-0.32785c-0.00573,-0.03483 -0.00858,-0.07008 -0.00852,-0.10538c0,-0.30159 0.17741,-0.45239 0.53222,-0.45239c0.43784,0.00335 0.87462,-0.04344 1.30182,-0.13944c0.68408,-0.15896 1.26492,-0.45452 1.7425,-0.88668c0.02334,-0.02134 0.04641,-0.04299 0.06919,-0.06493c0.60939,-0.58214 0.99736,-1.35809 1.09744,-2.19489c0.03193,-0.23387 0.04759,-0.46969 0.04684,-0.70573c0,-0.8693 -0.18628,-1.57432 -0.55883,-2.11505c-0.37256,-0.54145 -0.86043,-0.94523 -1.46361,-1.21134c-0.60318,-0.26611 -1.25072,-0.39917 -1.94261,-0.39917c-0.38635,-0.00339 -0.7709,0.05298 -1.14002,0.16712c-0.41943,0.13273 -0.8061,0.35254 -1.1347,0.64505c-0.59557,0.53001 -1.06789,1.18399 -1.38378,1.916c-0.01373,0.03076 -0.02721,0.06163 -0.04045,0.09261c-0.12631,0.28456 -0.30195,0.40023 -0.5269,0.34701c-0.02903,-0.00711 -0.05749,-0.01636 -0.08516,-0.02768c-0.29734,-0.09935 -0.39455,-0.2984 -0.29166,-0.59715c0.00774,-0.02299 0.01626,-0.04571 0.02555,-0.06812c0.18089,-0.43584 0.4052,-0.85237 0.66954,-1.24327c0.34412,-0.513 0.78049,-0.95767 1.28692,-1.3114c0.43821,-0.3071 0.92409,-0.53979 1.43807,-0.6887c0.3848,-0.10858 0.78277,-0.16339 1.1826,-0.16286c0.54133,-0.00437 1.08082,0.06364 1.60412,0.20224c0.70337,0.18711 1.35282,0.53717 1.89578,1.02187c0.66107,0.59475 1.10494,1.39296 1.26137,2.26833c0.07436,0.38366 0.11072,0.77371 0.10857,1.1645c0.00446,0.55806 -0.08182,1.11313 -0.25547,1.64351c-0.12781,0.38328 -0.30569,0.74799 -0.52903,1.08467c-0.50787,0.76376 -1.24125,1.35016 -2.09802,1.67757c-0.03252,0.01309 -0.06516,0.02587 -0.09793,0.03832c1.02896,0.33707 1.8674,0.94026 2.51529,1.80956c0.55958,0.75584 0.88992,1.6567 0.95161,2.59512c0.0129,0.16361 0.01929,0.32766 0.01916,0.49177c0.00342,0.60227 -0.07574,1.20217 -0.23524,1.78295c-0.08111,0.29142 -0.18467,0.57613 -0.30975,0.85156c-0.36291,0.79479 -0.96015,1.45963 -1.71163,1.90536c-0.00602,0.00356 -0.01205,0.00711 -0.0181,0.01064c-0.38125,0.22673 -0.79367,0.39636 -1.22411,0.50348c-0.5528,0.14334 -1.17834,0.21502 -1.87662,0.21502c-0.53633,0.00456 -1.07017,-0.07335 -1.58283,-0.23098c-0.51666,-0.16241 -0.99932,-0.41781 -1.42423,-0.75363zM187.69651,189.64023c0.00001,-0.03495 -0.00284,-0.06983 -0.00852,-0.10432c-0.0291,-0.1767 -0.13731,-0.28598 -0.32466,-0.32785c-0.06541,-0.01401 -0.13216,-0.02079 -0.19905,-0.02022h-7.90351c0.03068,-0.25686 0.08121,-0.51096 0.15115,-0.76001c0.14155,-0.49557 0.35035,-0.9694 0.62057,-1.40826c0.14907,-0.2452 0.30707,-0.48486 0.47368,-0.7185c0.33705,-0.47057 0.70323,-0.91958 1.09638,-1.3444c0.62093,-0.67415 1.2596,-1.3483 1.916,-2.02245c0.69189,-0.70963 1.36178,-1.41926 2.00967,-2.12889c0.1983,-0.21741 0.38964,-0.44105 0.57374,-0.6706c0.3843,-0.47593 0.7306,-0.98132 1.03571,-1.51151c0.03943,-0.06909 0.07741,-0.13901 0.1139,-0.2097c0.34364,-0.64994 0.53235,-1.37053 0.55138,-2.10547c0.00293,-0.08974 0.00435,-0.17952 0.00426,-0.2693c0,-0.52087 -0.05287,-1.00164 -0.1586,-1.44232c-0.16618,-0.7445 -0.53664,-1.42791 -1.06977,-1.97348c-0.57766,-0.57743 -1.30807,-0.97808 -2.10547,-1.15492c-0.48762,-0.11214 -0.98669,-0.1668 -1.48703,-0.16286c-0.07809,0.00014 -0.15616,0.00192 -0.23418,0.00532c-1.09129,0.02109 -2.1323,0.46266 -2.90594,1.23263c-0.47043,0.46448 -0.83434,1.02561 -1.06658,1.64457c-0.18923,0.51043 -0.305,1.04516 -0.34382,1.58815c-0.01348,0.29024 0.07487,0.46729 0.26505,0.53116c0.06053,0.01933 0.12381,0.02868 0.18734,0.02768c0.01776,0.00004 0.03552,-0.00067 0.05322,-0.00213c0.2505,-0.02129 0.39242,-0.19799 0.42578,-0.53009c0.00418,-0.05719 0.00914,-0.11432 0.0149,-0.17138c0.11283,-1.08644 0.49816,-1.91636 1.15599,-2.48974c0.69189,-0.60318 1.50796,-0.90478 2.44823,-0.90478c0.06068,-0.00012 0.12136,0.00059 0.18202,0.00213c1.15528,0.03193 2.06609,0.3683 2.73243,1.0091c0.19441,0.18744 0.3614,0.40138 0.49603,0.63547c0.35978,0.62306 0.5269,1.42246 0.50135,2.3982c-0.00771,0.29254 -0.04877,0.58324 -0.12241,0.86646c-0.10749,0.40663 -0.27236,0.79587 -0.48965,1.15599c-0.17699,0.29664 -0.36846,0.58439 -0.57374,0.8622c-0.2853,0.38528 -0.59124,0.75483 -0.91649,1.10702c-0.15229,0.16594 -0.30521,0.33128 -0.45878,0.49603c-0.48027,0.51401 -0.96604,1.02284 -1.45723,1.52642c-0.74511,0.74511 -1.46787,1.50796 -2.16828,2.28856c-0.70111,0.7806 -1.27769,1.58354 -1.72973,2.40884c-0.45275,0.82459 -0.67912,1.70702 -0.67912,2.64728c-0.00006,0.0353 0.00278,0.07055 0.00852,0.10538c0.0291,0.17599 0.13731,0.28527 0.32466,0.32785c0.06545,0.01365 0.1322,0.02008 0.19905,0.01916h8.32929c0.35482,0 0.53222,-0.15079 0.53222,-0.45239zM212.57794,189.64023c0.00001,-0.03495 -0.00284,-0.06983 -0.00852,-0.10432c-0.0291,-0.1767 -0.13731,-0.28598 -0.32466,-0.32785c-0.06541,-0.01401 -0.13216,-0.02079 -0.19905,-0.02022h-7.90351c0.03068,-0.25686 0.08121,-0.51096 0.15115,-0.76001c0.14155,-0.49557 0.35035,-0.9694 0.62057,-1.40826c0.14907,-0.2452 0.30707,-0.48486 0.47368,-0.7185c0.33705,-0.47057 0.70323,-0.91958 1.09638,-1.3444c0.62093,-0.67415 1.2596,-1.3483 1.916,-2.02245c0.69189,-0.70963 1.36178,-1.41926 2.00967,-2.12889c0.1983,-0.21741 0.38964,-0.44105 0.57374,-0.6706c0.3843,-0.47593 0.7306,-0.98132 1.03571,-1.51151c0.03943,-0.06909 0.07741,-0.13901 0.1139,-0.2097c0.34364,-0.64994 0.53235,-1.37053 0.55138,-2.10547c0.00293,-0.08974 0.00435,-0.17952 0.00426,-0.2693c0,-0.52087 -0.05287,-1.00164 -0.1586,-1.44232c-0.16618,-0.7445 -0.53664,-1.42791 -1.06977,-1.97348c-0.57766,-0.57743 -1.30807,-0.97808 -2.10547,-1.15492c-0.48762,-0.11214 -0.98669,-0.1668 -1.48703,-0.16286c-0.07809,0.00014 -0.15616,0.00192 -0.23418,0.00532c-1.09129,0.02109 -2.1323,0.46266 -2.90594,1.23263c-0.47043,0.46448 -0.83434,1.02561 -1.06658,1.64457c-0.18923,0.51043 -0.305,1.04516 -0.34382,1.58815c-0.01348,0.29024 0.07487,0.46729 0.26505,0.53116c0.06053,0.01933 0.12381,0.02868 0.18734,0.02768c0.01776,0.00004 0.03552,-0.00067 0.05322,-0.00213c0.2505,-0.02129 0.39242,-0.19799 0.42578,-0.53009c0.00418,-0.05719 0.00914,-0.11432 0.0149,-0.17138c0.11283,-1.08644 0.49816,-1.91636 1.15599,-2.48974c0.69189,-0.60318 1.50796,-0.90478 2.44823,-0.90478c0.06068,-0.00012 0.12136,0.00059 0.18202,0.00213c1.15528,0.03193 2.06609,0.3683 2.73243,1.0091c0.19441,0.18744 0.3614,0.40138 0.49603,0.63547c0.35978,0.62306 0.5269,1.42246 0.50135,2.3982c-0.00771,0.29254 -0.04877,0.58324 -0.12241,0.86646c-0.10749,0.40663 -0.27236,0.79587 -0.48965,1.15599c-0.17699,0.29664 -0.36846,0.58439 -0.57374,0.8622c-0.2853,0.38528 -0.59124,0.75483 -0.91649,1.10702c-0.15229,0.16594 -0.30521,0.33128 -0.45878,0.49603c-0.48027,0.51401 -0.96604,1.02284 -1.45723,1.52642c-0.74511,0.74511 -1.46787,1.50796 -2.16828,2.28856c-0.70111,0.7806 -1.27769,1.58354 -1.72973,2.40884c-0.45275,0.82459 -0.67912,1.70702 -0.67912,2.64728c-0.00006,0.0353 0.00278,0.07055 0.00852,0.10538c0.0291,0.17599 0.13731,0.28527 0.32466,0.32785c0.06545,0.01365 0.1322,0.02008 0.19905,0.01916h8.32929c0.35482,0 0.53222,-0.15079 0.53222,-0.45239zM230.65649,173.71186c0.57338,0.02625 1.05557,0.09793 1.44658,0.21502c0.20731,0.05923 0.40647,0.14397 0.5929,0.25227c0.30798,0.18451 0.53258,0.41975 0.67379,0.70573c0.10652,0.22037 0.16701,0.46014 0.17776,0.70466c0.02484,0.42933 -0.044,0.92642 -0.2065,1.49129c-0.07826,0.26989 -0.1692,0.53594 -0.2725,0.79727c-0.23524,0.60802 -0.51561,1.19759 -0.83878,1.76379c-0.50378,0.87738 -1.09164,1.70373 -1.75527,2.46739c-0.40639,0.47057 -0.8344,0.92203 -1.28266,1.35291c-0.90528,0.86676 -1.87806,1.66014 -2.90913,2.37265c-0.35951,0.25017 -0.72508,0.49151 -1.09638,0.72382c-1.38158,0.85898 -2.83041,1.60475 -4.3323,2.23001c-0.04827,0.02053 -0.094,0.04661 -0.13625,0.0777c-0.14619,0.10999 -0.19196,0.26363 -0.13731,0.46091c0.00932,0.03401 0.02069,0.06743 0.03406,0.10006c0.02053,0.04827 0.04661,0.094 0.0777,0.13625c0.10999,0.14619 0.26363,0.19231 0.46091,0.13838c0.03404,-0.00967 0.06745,-0.0214 0.10006,-0.03513c1.04923,-0.45392 2.07521,-0.9598 3.07412,-1.51577c1.7469,-0.96474 3.38401,-2.11611 4.88262,-3.4339c0.68269,-0.60318 1.32488,-1.2507 1.92239,-1.93836c1.18102,-1.34416 2.13195,-2.87412 2.8144,-4.52815c0.09268,-0.22358 0.17718,-0.45045 0.25334,-0.68018c0.28031,-0.85156 0.38214,-1.60128 0.3055,-2.24917c-0.04305,-0.39821 -0.17002,-0.78277 -0.37256,-1.12831c-0.44849,-0.75434 -1.33339,-1.21986 -2.65473,-1.39655c-0.44337,-0.05642 -0.89,-0.08345 -1.33694,-0.0809h-9.97918c-0.12418,0 -0.23489,0.04435 -0.33211,0.13306c-0.05444,0.04817 -0.09582,0.10931 -0.12028,0.17776c-0.01836,0.05414 -0.02735,0.11102 -0.02661,0.16818c0.00002,0.07412 0.0179,0.14715 0.05216,0.21289c0.02546,0.04841 0.05733,0.09316 0.09474,0.13306c0.021,0.02304 0.04378,0.04439 0.06812,0.06387c0.07419,0.06163 0.16753,0.0955 0.26398,0.0958h9.97918c0.1718,0 0.34357,0.0039 0.51519,0.01171zM192.91229,189.45395c-0.36771,-0.30012 -0.68315,-0.65908 -0.93352,-1.06232c-0.35056,-0.55138 -0.63796,-1.22624 -0.8622,-2.02458c-0.39952,-1.41926 -0.5638,-3.30866 -0.49284,-5.66818c0.02012,-0.86097 0.08015,-1.72055 0.17989,-2.57596c0.2434,-2.01677 0.71566,-3.57973 1.41678,-4.68889c0.34752,-0.56614 0.80069,-1.06015 1.33482,-1.4551c0.79266,-0.57338 1.74037,-0.86007 2.84314,-0.86007c0.85156,0 1.57467,0.15541 2.16934,0.46623c0.59396,0.31011 1.12157,0.73127 1.58283,1.2635c0.03277,0.03241 0.06303,0.06729 0.09048,0.10432c0.13909,0.19018 0.12667,0.36936 -0.03726,0.53755c-0.01698,0.01747 -0.03474,0.03416 -0.05322,0.05003c-0.03644,0.02864 -0.07609,0.05293 -0.11815,0.07238c-0.19373,0.08728 -0.39385,0.02768 -0.60035,-0.17883c-0.32888,-0.3808 -0.72372,-0.69919 -1.16557,-0.93991c-0.03695,-0.01975 -0.07421,-0.03891 -0.11177,-0.05748c-0.26789,-0.13196 -0.55262,-0.22651 -0.84623,-0.28101c-0.27321,-0.05251 -0.56771,-0.07877 -0.88349,-0.07877c-0.37904,-0.00277 -0.75707,0.0394 -1.12618,0.1256c-0.55095,0.12555 -1.06087,0.38931 -1.48171,0.7664c-0.65641,0.59396 -1.14854,1.3923 -1.47639,2.395c-0.19149,0.5906 -0.34159,1.19383 -0.4492,1.8053c-0.09153,0.51679 -0.15937,1.03749 -0.20331,1.56048c-0.09211,1.08151 -0.13793,2.16646 -0.13731,3.25188c0.00015,0.18451 0.00158,0.36902 0.00426,0.55351c0.17206,-0.44472 0.40723,-0.86236 0.69828,-1.24008c0.27849,-0.35726 0.61361,-0.6665 0.99206,-0.91542c0.57971,-0.37756 1.23861,-0.61651 1.92558,-0.69828c0.24817,-0.0317 0.49812,-0.04735 0.74831,-0.04684c0.85156,0 1.63676,0.20863 2.35562,0.62589c0.65801,0.38471 1.20914,0.92816 1.60306,1.5807c0.04385,0.0707 0.08608,0.1424 0.12667,0.21502c0.24897,0.45483 0.42532,0.94579 0.52264,1.4551c0.08019,0.40378 0.12312,0.83701 0.1288,1.29969c0.00017,0.03087 0.00017,0.06174 0,0.09261c0.00001,0.00852 0.00001,0.01703 0,0.02555c-0.00142,0.53577 -0.05429,1.03996 -0.1586,1.51258c-0.0992,0.45887 -0.25584,0.90342 -0.46623,1.32311c-0.28832,0.58214 -0.68833,1.10188 -1.17728,1.52961c-0.17386,0.15092 -0.3585,0.28895 -0.55245,0.41301c-0.63237,0.40028 -1.35455,0.63661 -2.10122,0.68763c-0.14661,0.01151 -0.29362,0.01719 -0.44068,0.01703c-0.55342,0.00522 -1.10348,-0.08628 -1.62541,-0.27037c-0.44249,-0.16019 -0.8554,-0.39255 -1.22198,-0.68763zM249.78034,187.11217c-1.04671,-0.23063 -1.87165,-0.61206 -2.47484,-1.14428c-0.41453,-0.37041 -0.7467,-0.8237 -0.97503,-1.33056c-0.12406,-0.27028 -0.22518,-0.5505 -0.3023,-0.83772c-0.09827,-0.36831 -0.17398,-0.74227 -0.22673,-1.1198c-0.09722,-0.67273 -0.14583,-1.43062 -0.14583,-2.27366c0,-1.01477 0.06848,-1.90217 0.20544,-2.66218c0.04458,-0.25038 0.10035,-0.49865 0.16712,-0.74405c0.10383,-0.3884 0.25393,-0.76293 0.44707,-1.11554c0.21517,-0.39164 0.49601,-0.7434 0.83027,-1.03996c0.60318,-0.53222 1.42813,-0.91365 2.47484,-1.14428c0.76001,-0.16747 1.66515,-0.27392 2.7154,-0.31933c0.41631,-0.01794 0.83296,-0.02682 1.24966,-0.02661c0.53858,-0.00098 1.07707,0.01393 1.61476,0.04471c0.89626,0.05322 1.6797,0.15364 2.3503,0.30124c1.04671,0.23063 1.87165,0.61206 2.47484,1.14428c0.42872,0.38307 0.76997,0.85393 1.00058,1.38059c0.11219,0.25074 0.20472,0.50983 0.27676,0.77492c0.09865,0.36678 0.17438,0.73935 0.22673,1.11554c0.09722,0.67344 0.14583,1.437 0.14583,2.29069c0.0012,0.47559 -0.0162,0.95106 -0.05216,1.42529c-0.05819,0.74085 -0.16499,1.39691 -0.3204,1.96816c-0.1026,0.38801 -0.25089,0.76247 -0.44175,1.11554c-0.2152,0.39683 -0.49797,0.75308 -0.83559,1.05274c-0.60318,0.53222 -1.42813,0.91365 -2.47484,1.14428c-0.76001,0.16747 -1.66515,0.27427 -2.7154,0.3204c-0.41632,0.01759 -0.83297,0.02611 -1.24966,0.02555c-0.53858,0.00098 -1.07707,-0.01393 -1.61476,-0.04471c-0.89626,-0.05322 -1.6797,-0.15364 -2.3503,-0.30124zM251.42065,186.40112c-0.38022,-0.0351 -0.75879,-0.08624 -1.1347,-0.15328c-0.49035,-0.09012 -0.92678,-0.2175 -1.30927,-0.38214c-0.31744,-0.13344 -0.61535,-0.30926 -0.88562,-0.52264c-0.54145,-0.435 -0.92287,-1.05167 -1.14428,-1.85001c-0.07231,-0.26383 -0.13024,-0.5314 -0.1735,-0.80153c-0.05393,-0.32785 -0.09403,-0.68373 -0.12028,-1.06764c-0.02712,-0.40534 -0.04026,-0.81149 -0.03938,-1.21773c0,-0.80685 0.04541,-1.51719 0.13625,-2.13102c0.04576,-0.31784 0.11153,-0.63248 0.19692,-0.94203c0.06674,-0.24202 0.15435,-0.47779 0.26185,-0.70466c0.20475,-0.43907 0.50647,-0.82595 0.88243,-1.13151c0.54074,-0.435 1.27237,-0.7366 2.19489,-0.90478c0.27182,-0.04933 0.54517,-0.0898 0.81962,-0.12135c0.37326,-0.04329 0.77634,-0.07593 1.20921,-0.09793c0.4765,-0.02346 0.95353,-0.03481 1.43062,-0.03406c0.86504,0 1.63996,0.033 2.32475,0.09899c0.38024,0.03545 0.75881,0.08695 1.1347,0.15434c0.49035,0.08941 0.92678,0.21644 1.30927,0.38107c0.31787,0.13369 0.61615,0.30987 0.88668,0.52371c0.31075,0.25143 0.57054,0.55998 0.76534,0.90904c0.16331,0.2926 0.29055,0.60391 0.37894,0.92713c0.14547,0.51803 0.24305,1.13719 0.29272,1.85746c0.02713,0.40462 0.04026,0.81006 0.03938,1.2156c0.00078,0.37565 -0.01022,0.75123 -0.033,1.12618c-0.04826,0.76144 -0.14796,1.41501 -0.29911,1.96071c-0.07125,0.26132 -0.16676,0.5154 -0.28527,0.75895c-0.20224,0.42267 -0.49561,0.79528 -0.85901,1.09106c-0.54145,0.43429 -1.27343,0.73589 -2.19595,0.90478c-0.27183,0.04897 -0.54518,0.08908 -0.81962,0.12028c-0.37326,0.04329 -0.77634,0.07593 -1.20921,0.09793c-0.4765,0.02346 -0.95353,0.03481 -1.43062,0.03406c-0.86504,0 -1.63996,-0.033 -2.32475,-0.09899zM276.28398,190.59823c-0.01294,-0.00373 -0.02573,-0.00799 -0.03832,-0.01277c-0.11567,-0.04471 -0.20012,-0.12028 -0.25334,-0.22673c-0.02356,-0.04665 -0.03869,-0.0971 -0.04471,-0.14902c-0.00639,-0.05322 -0.00249,-0.10715 0.01171,-0.1618c0.00197,-0.00714 0.0041,-0.01424 0.00639,-0.02129c0.01811,-0.06148 0.05016,-0.11794 0.09367,-0.16499c0.03416,-0.03632 0.07453,-0.06624 0.11922,-0.08835c0.80912,-0.38702 1.59849,-0.81404 2.3652,-1.27946c0.92962,-0.56841 1.75137,-1.16202 2.46526,-1.78082c1.26811,-1.09993 2.27046,-2.36839 3.00706,-3.8054c0.4189,-0.82685 0.76062,-1.69058 1.0208,-2.58022c0.23891,-0.81274 0.42662,-1.63966 0.56203,-2.4759c0.01258,-0.05268 0.03115,-0.10376 0.05535,-0.15222c0.0809,-0.15754 0.21431,-0.22495 0.40023,-0.20224c0.01678,0.00222 0.03346,0.00507 0.05003,0.00852c0.05853,0.00769 0.11496,0.02686 0.16605,0.05642c0.04988,0.02983 0.09302,0.06971 0.12667,0.11709c0.07096,0.09722 0.09757,0.20792 0.07983,0.33211c-0.17605,1.01582 -0.42651,2.01732 -0.74937,2.99642c-0.26265,0.79456 -0.58577,1.56783 -0.96652,2.31304c-0.78982,1.53422 -1.85001,2.88678 -3.18057,4.05767c-1.24753,1.0978 -2.79133,2.10192 -4.63141,3.01238c-0.12341,0.06117 -0.24725,0.12149 -0.37149,0.18096c-0.0407,0.0207 -0.08461,0.03437 -0.12986,0.04045c-0.05322,0.00709 -0.10787,0.00249 -0.16392,-0.01384zM195.42119,189.49653c-1.50583,-0.10219 -2.55538,-0.89981 -3.14863,-2.39288c-0.20038,-0.52105 -0.34281,-1.06256 -0.42471,-1.61476c-0.00491,-0.03225 -0.00952,-0.06454 -0.01384,-0.09686c-0.03123,-0.22424 -0.04684,-0.44352 -0.04684,-0.65783c-0.00482,-0.59027 0.12515,-1.17386 0.38001,-1.70631c0.35482,-0.7366 0.87391,-1.32666 1.55728,-1.77017c0.68267,-0.44352 1.41429,-0.66528 2.19489,-0.66528c0.10618,-0.00007 0.21233,0.00348 0.31827,0.01064c0.94512,0.03887 1.82992,0.47489 2.43652,1.2007c0.41452,0.49331 0.70925,1.07586 0.86114,1.70205c0.11172,0.45737 0.16643,0.92681 0.16286,1.39762c0,0.76285 -0.14619,1.4991 -0.43855,2.20873c-0.00457,0.01102 -0.00919,0.02202 -0.01384,0.033c-0.27325,0.66924 -0.71827,1.25452 -1.29011,1.69673c-0.35777,0.272 -0.77035,0.46304 -1.20921,0.5599c-0.32384,0.07249 -0.6549,0.10785 -0.98674,0.10538c-0.11292,0.00027 -0.22582,-0.00328 -0.33849,-0.01064zM274.9811,180.83194c-0.14988,-0.26867 -0.30604,-0.53379 -0.46836,-0.79514c-0.15257,-0.24553 -0.30337,-0.47404 -0.45239,-0.6855c-0.02115,-0.02991 -0.04244,-0.05971 -0.06387,-0.08941c-0.06883,-0.08586 -0.0958,-0.18841 -0.0809,-0.30762c0.00031,-0.00391 0.00067,-0.00781 0.00106,-0.01171c0.01425,-0.11225 0.07486,-0.21339 0.16712,-0.27888c0.00628,-0.00476 0.01267,-0.00937 0.01916,-0.01384c0.08586,-0.06883 0.18841,-0.0958 0.30762,-0.0809c0.00391,0.00031 0.00781,0.00067 0.01171,0.00106c0.11225,0.01425 0.21339,0.07486 0.27888,0.16712c0.00476,0.00628 0.00937,0.01267 0.01384,0.01916c0.17713,0.26191 0.34786,0.5281 0.512,0.79833c0.18131,0.29804 0.35663,0.5997 0.52584,0.90478c0.30181,0.54232 0.58512,1.09473 0.84943,1.65628c0.0366,0.07752 0.07279,0.15522 0.10857,0.23311c0.10432,0.26115 0.0298,0.45381 -0.22353,0.57799c-0.0053,0.00254 -0.01062,0.00502 -0.01597,0.00745c-0.26043,0.10432 -0.4531,0.0298 -0.57799,-0.22353c-0.00254,-0.0053 -0.00502,-0.01062 -0.00745,-0.01597c-0.26611,-0.63867 -0.56771,-1.2596 -0.90478,-1.86278zM280.69505,181.78675c0.14973,-0.08941 0.21076,-0.22992 0.18308,-0.42152c-0.00393,-0.02722 -0.00926,-0.05422 -0.01597,-0.0809c-0.19515,-0.58545 -0.44778,-1.22837 -0.75789,-1.92878c-0.04302,-0.09714 -0.08667,-0.19401 -0.13093,-0.29059c-0.13057,-0.28456 -0.26043,-0.55245 -0.38959,-0.80366c-0.12581,-0.24674 -0.25856,-0.48989 -0.3981,-0.72915c-0.0292,-0.05974 -0.07316,-0.11103 -0.12773,-0.14902c-0.04229,-0.02877 -0.08905,-0.05035 -0.13838,-0.06387c-0.12418,-0.03548 -0.23063,-0.01774 -0.31933,0.05322c-0.02382,0.01446 -0.04691,0.03009 -0.06919,0.04684c-0.20508,0.15186 -0.23524,0.34027 -0.09048,0.56522c0.1495,0.24424 0.2894,0.49422 0.41939,0.74937c0.14423,0.2827 0.27948,0.56989 0.40555,0.86114c0.10176,0.23442 0.19899,0.47077 0.29166,0.70892c0.16329,0.41993 0.3145,0.84447 0.45345,1.27308c0.03548,0.10644 0.10644,0.18628 0.21289,0.2395c0.10644,0.05322 0.22176,0.06209 0.34595,0.02661c0.04378,-0.01422 0.0859,-0.03313 0.1256,-0.05642zM237.51259,174.72521c-0.11032,-0.02393 -0.21064,-0.08115 -0.2874,-0.16392c-0.01106,-0.01169 -0.02171,-0.02376 -0.03193,-0.03619c-0.04904,-0.07321 -0.0998,-0.14525 -0.15222,-0.21608c-0.1178,-0.15967 -0.26292,-0.34311 -0.43536,-0.55032c-0.0124,-0.01492 -0.02481,-0.02983 -0.03726,-0.04471c-0.27533,-0.32856 -0.5638,-0.65251 -0.86539,-0.97184c-0.07126,-0.0756 -0.14329,-0.15047 -0.21608,-0.2246c-0.15825,-0.16037 -0.29875,-0.2945 -0.42152,-0.40236c-0.03531,-0.03113 -0.07115,-0.06165 -0.10751,-0.09154c-0.08871,-0.08871 -0.13731,-0.19941 -0.14583,-0.33211c-0.00112,-0.01204 -0.00183,-0.0241 -0.00213,-0.03619c0,-0.06387 0.01207,-0.12241 0.03619,-0.17563c0.02077,-0.04529 0.04963,-0.08641 0.08516,-0.12135c0.02992,-0.03598 0.06345,-0.06879 0.10006,-0.09793c0.15115,-0.1178 0.3172,-0.11886 0.49816,-0.00319c0.0231,0.0149 0.04548,0.03088 0.06706,0.0479c0.14973,0.13625 0.33282,0.32146 0.54925,0.55564c0.07047,0.07611 0.14037,0.15275 0.2097,0.22992c0.31011,0.34559 0.62057,0.69579 0.93139,1.05061c0.29592,0.33849 0.52335,0.62057 0.68231,0.84623c0.00749,0.01061 0.01494,0.02126 0.02235,0.03193c0.03049,0.04469 0.05283,0.09442 0.066,0.14689c0.0149,0.06387 0.01526,0.13022 0.00106,0.19905c-0.02697,0.12418 -0.09367,0.22176 -0.20012,0.29272c-0.04469,0.03049 -0.09442,0.05283 -0.14689,0.066c-0.06387,0.01561 -0.13022,0.01597 -0.19905,0.00106zM239.73516,172.75705c-0.01349,0.00012 -0.02698,-0.00023 -0.04045,-0.00106c-0.10624,-0.00774 -0.2059,-0.05435 -0.27995,-0.13093c-0.01381,-0.01355 -0.02696,-0.02775 -0.03938,-0.04258c-0.15967,-0.19515 -0.3903,-0.44778 -0.69189,-0.75789c-0.30159,-0.31082 -0.61206,-0.61702 -0.93139,-0.91862c-0.31933,-0.30159 -0.58545,-0.53222 -0.79833,-0.69189c-0.08871,-0.08871 -0.14193,-0.19515 -0.15967,-0.31933c-0.00287,-0.0194 -0.00465,-0.03894 -0.00532,-0.05854c-0.00284,-0.09935 0.02555,-0.18628 0.08516,-0.26079c0.0376,-0.0457 0.08214,-0.08521 0.13199,-0.11709c0.0568,-0.03614 0.12068,-0.05973 0.18734,-0.06919c0.12418,-0.01774 0.2395,0.01774 0.34595,0.10644c0.19231,0.14406 0.43536,0.3534 0.72915,0.62802c0.03203,0.03005 0.06397,0.06022 0.0958,0.09048c0.33707,0.31933 0.66989,0.64754 0.99845,0.98461c0.32785,0.33707 0.58048,0.61206 0.75789,0.82495c0.0292,0.02872 0.05332,0.0622 0.07132,0.09899c0.0291,0.06032 0.03761,0.12667 0.02555,0.19905c-0.00089,0.00712 -0.00196,0.01422 -0.00319,0.02129c-0.02393,0.11032 -0.08115,0.21064 -0.16392,0.2874c-0.01169,0.01106 -0.02376,0.02171 -0.03619,0.03193c-0.07612,0.06102 -0.17068,0.09442 -0.26824,0.09474c-0.00355,0 -0.00709,0 -0.01064,0z"/></g></g></svg>