<svg version="1.1" xmlns="http://www.w3.org/2000/svg" xmlns:xlink="http://www.w3.org/1999/xlink" width="86.50001" height="86.5" viewBox="0,0,86.50001,86.5"><g transform="translate(-196.75001,-136.75)"><g data-paper-data="{&quot;isPaintingLayer&quot;:true}" fill="#f0f6ff" fill-rule="nonzero" stroke-linecap="butt" stroke-linejoin="miter" stroke-miterlimit="10" stroke-dasharray="" stroke-dashoffset="0" style="mix-blend-mode: normal"><g><path d="M202.00002,202.87296c0,-19.28325 0,-36.83861 0,-47.22059c0,-6.4032 6.73378,-13.65237 12.80638,-13.65237c10.46197,0 29.77245,0 49.17647,0c8.34291,0 14.01715,8.11353 14.01715,15.04943c0,10.64295 0,27.60731 0,46.38235c0,8.62668 -7.30152,14.56822 -13.73774,14.56822c-10.61236,0 -29.24205,0 -48.33824,0c-8.28581,0 -13.92403,-6.18805 -13.92403,-15.12704z" stroke-opacity="0.25482" stroke="#2e4770" stroke-width="10.5"/><path d="M202.00001,202.87296c0,-19.28325 0,-36.83861 0,-47.22059c0,-6.4032 6.73378,-13.65237 12.80638,-13.65237c10.46197,0 29.77245,0 49.17647,0c8.34291,0 14.01715,8.11353 14.01715,15.04943c0,10.64295 0,27.60731 0,46.38235c0,8.62668 -7.30152,14.56822 -13.73774,14.56822c-10.61236,0 -29.24205,0 -48.33824,0c-8.28581,0 -13.92403,-6.18805 -13.92403,-15.12704z" stroke="#2e4770" stroke-width="3"/></g></g></g></svg>