<svg version="1.1" xmlns="http://www.w3.org/2000/svg" xmlns:xlink="http://www.w3.org/1999/xlink" width="152.83668" height="36.4988" viewBox="0,0,152.83668,36.4988"><g transform="translate(-163.58169,-161.7506)"><g data-paper-data="{&quot;isPaintingLayer&quot;:true}" stroke-linejoin="miter" stroke-miterlimit="10" stroke-dasharray="" stroke-dashoffset="0" style="mix-blend-mode: normal"><path d="M315.16837,166.90729v26.18541c0,2.16442 -3.00648,3.90669 -6.74149,3.90669h-136.85369c-3.73498,0 -6.74149,-1.74227 -6.74149,-3.90669v-26.18541c0,-2.16442 3.00648,-3.90669 6.74149,-3.90669h136.85369c3.73498,0 6.74149,1.74227 6.74149,3.90669z" fill="#5793ff" fill-rule="nonzero" stroke="#0059ff" stroke-width="2.5" stroke-linecap="butt"/><path d="M274.49136,186.58015c-0.31812,0.07814 -0.58323,0.13953 -0.79531,0.18418c-0.04598,0.00625 -0.08946,0.02469 -0.12591,0.05341c-0.02572,0.02057 -0.04818,0.04489 -0.06664,0.07216c-0.03387,0.04751 -0.05208,0.1044 -0.05207,0.16275c0,0.00726 0.00022,0.01462 0.00067,0.0221c0.00152,0.01955 0.00471,0.03893 0.00954,0.05793c0.00071,0.00268 0.00143,0.00536 0.00218,0.00804c0.05179,0.18697 0.16632,0.26639 0.34357,0.23826c0.01888,-0.00303 0.0376,-0.00699 0.05609,-0.01189c0.44649,-0.11162 0.94321,-0.23999 1.49016,-0.3851c0.54695,-0.14511 1.09669,-0.2958 1.64922,-0.45207c0.03645,-0.0103 0.0729,-0.02063 0.10933,-0.03098c0.25316,-0.072 0.49371,-0.14154 0.72164,-0.20862c0.21733,-0.06394 0.43427,-0.12918 0.65081,-0.19573c0.03275,-0.00929 0.06433,-0.02232 0.0941,-0.03884c0.10481,-0.05961 0.14918,-0.15655 0.13311,-0.29083c-0.00226,-0.01862 -0.00544,-0.03712 -0.00954,-0.05542c-0.00697,-0.04427 -0.02997,-0.08444 -0.06463,-0.11285c-0.01853,-0.01528 -0.03903,-0.02801 -0.06095,-0.03784c-0.01445,-0.00668 -0.02933,-0.01239 -0.04454,-0.01708c-0.0567,-0.01752 -0.11162,-0.01741 -0.16475,0.00033c-0.00653,0.0019 -0.01306,0.0038 -0.01959,0.00569c-0.19679,0.05726 -0.42885,0.1234 -0.69619,0.19841c-0.09624,0.02696 -0.19252,0.0538 -0.28882,0.08054c-0.40184,0.11162 -0.81484,0.22325 -1.23901,0.33487v-6.29551h1.08832c0.1191,0.60086 0.25829,1.16216 0.41758,1.68388c0.14442,0.47863 0.31809,0.94794 0.52005,1.40527c0.00306,0.00687 0.00613,0.01373 0.00921,0.02059c0.3734,0.84298 0.86965,1.62597 1.47258,2.32348c0.27032,0.30965 0.5571,0.60454 0.8591,0.88338c0.42019,0.38718 0.86293,0.74913 1.32591,1.08397c0.14645,0.10068 0.28536,0.10381 0.41674,0.00938c0.03095,-0.02258 0.05961,-0.04816 0.08556,-0.07635c0.04243,-0.05003 0.06532,-0.11373 0.06446,-0.17932c0,-0.02043 -0.00195,-0.04158 -0.00586,-0.06346c-0.00154,-0.00871 -0.00338,-0.01737 -0.00553,-0.02595c-0.01743,-0.07779 -0.06718,-0.14448 -0.13679,-0.18334c-0.26912,-0.18311 -0.53182,-0.37549 -0.78761,-0.57681c-0.39854,-0.31255 -0.77587,-0.65123 -1.12951,-1.01381c-0.54137,-0.55811 -1.00739,-1.18878 -1.39807,-1.892c0.13819,-0.05648 0.28693,-0.12005 0.44621,-0.19071c0.13083,-0.05809 0.26115,-0.1173 0.39096,-0.17765l0.93763,-0.43533c0.19534,-0.09064 0.37327,-0.1748 0.53378,-0.25249c0.09026,-0.04361 0.18023,-0.08782 0.2699,-0.13261c0.0893,-0.04465 0.14511,-0.10604 0.16743,-0.18418c0.00737,-0.02541 0.01115,-0.05173 0.01122,-0.07819c0,-0.05202 -0.0149,-0.10409 -0.0447,-0.15622c-0.04465,-0.07814 -0.10604,-0.12837 -0.18418,-0.15069c-0.02541,-0.00737 -0.05173,-0.01115 -0.07819,-0.01122c-0.05202,0 -0.10409,0.0149 -0.15622,0.0447c-0.07068,0.04087 -0.14184,0.08089 -0.21348,0.12005c-0.07613,0.04163 -0.15711,0.08489 -0.24295,0.12976c-0.10966,0.05725 -0.21984,0.11351 -0.33051,0.16877c-0.31254,0.15627 -0.62509,0.30696 -0.93763,0.45207c-0.09325,0.04333 -0.18657,0.08653 -0.27995,0.12959c-0.08896,0.04097 -0.17352,0.07975 -0.25366,0.11637c-0.08991,0.04104 -0.17994,0.08184 -0.27007,0.12239c-0.02678,-0.05656 -0.05302,-0.11338 -0.07869,-0.17045c-0.17292,-0.38602 -0.32275,-0.78198 -0.44872,-1.18577c-0.05782,-0.18448 -0.11235,-0.36997 -0.16358,-0.55638c-0.09088,-0.33139 -0.17312,-0.66508 -0.24663,-1.00075h4.0519c0.0893,0 0.16185,-0.0307 0.21766,-0.09209c0.00198,-0.00215 0.00393,-0.00433 0.00586,-0.00653c0.05029,-0.05554 0.07806,-0.12784 0.07786,-0.20276c0.00006,-0.01617 -0.00089,-0.03233 -0.00285,-0.04839c-0.00684,-0.064 -0.03538,-0.12374 -0.08087,-0.16928c-0.03252,-0.03274 -0.07278,-0.05675 -0.11704,-0.06982c-0.03269,-0.00951 -0.06659,-0.0142 -0.10063,-0.0139h-8.08705c0.00143,-0.02098 0.00277,-0.04196 0.00402,-0.06296c0.00863,-0.15188 0.01288,-0.30397 0.01272,-0.45609v-0.53579v-2.15989c-0.00002,-0.04521 0.0006,-0.09043 0.00184,-0.13562c0.01909,-0.68625 0.18591,-1.16567 0.50046,-1.43826c0.07143,-0.06109 0.14963,-0.11378 0.23307,-0.15705c0.35172,-0.18552 0.87121,-0.27827 1.55847,-0.27827h5.45834c0.0893,0 0.16185,-0.0307 0.21766,-0.09209c0.00198,-0.00215 0.00393,-0.00433 0.00586,-0.00653c0.05029,-0.05554 0.07806,-0.12784 0.07786,-0.20276c0.00006,-0.01617 -0.00089,-0.03233 -0.00285,-0.04839c-0.00684,-0.064 -0.03538,-0.12374 -0.08087,-0.16928c-0.03252,-0.03274 -0.07278,-0.05675 -0.11704,-0.06982c-0.03269,-0.00951 -0.06659,-0.0142 -0.10063,-0.0139h-5.45834c-0.09982,-0.00005 -0.19962,0.0018 -0.29937,0.00553c-0.90303,0.03416 -1.55111,0.22765 -1.94424,0.58049c-0.31969,0.28687 -0.522,0.72728 -0.60695,1.32122c-0.03196,0.23353 -0.04734,0.46903 -0.04604,0.70473v2.15989c0,1.11645 -0.05313,2.13958 -0.1594,3.06939c-0.07014,0.63439 -0.17624,1.26428 -0.31779,1.88664c-0.03447,0.14885 -0.07232,0.2969 -0.11352,0.44403c-0.31126,1.14597 -0.857,2.21487 -1.60268,3.13905c-0.05581,0.05581 -0.08093,0.12837 -0.07535,0.21766c0.00023,0.00346 0.00051,0.00693 0.00084,0.01038c0.00583,0.08104 0.04492,0.15607 0.10799,0.20728c0.14801,0.1018 0.28067,0.10007 0.39799,-0.00519c0.02612,-0.0238 0.04984,-0.0501 0.07082,-0.07853c0.72555,-0.93763 1.26412,-1.9813 1.61574,-3.13101c0.05177,-0.16963 0.09972,-0.3404 0.14383,-0.51218c0.267,-1.03731 0.43393,-2.23396 0.50079,-3.58995h1.82503v6.4462c-0.36835,0.10046 -0.71159,0.18976 -1.02972,0.26789zM257.43823,186.7727c-1.0238,-0.09923 -1.79338,-0.33046 -2.30874,-0.69368c-0.03482,-0.02453 -0.06893,-0.05005 -0.1023,-0.07652c-0.24365,-0.18775 -0.44112,-0.42875 -0.57731,-0.70456c-0.12457,-0.25829 -0.18881,-0.54617 -0.19272,-0.86362c-0.00012,-0.01027 -0.00017,-0.02054 -0.00017,-0.03081c0.00297,-0.53702 0.16756,-1.06071 0.47233,-1.50288c0.179,-0.26498 0.38856,-0.50798 0.62436,-0.72398c0.56838,-0.52931 1.3239,-1.00466 2.26655,-1.42603c0.28155,-0.12539 0.56707,-0.24171 0.85609,-0.34876c-0.12854,-0.26479 -0.29487,-0.50951 -0.49376,-0.72649c-0.41532,-0.44915 -1.0044,-0.69703 -1.6159,-0.67995c-0.58044,0 -1.13018,0.13674 -1.64922,0.41021c-0.22606,0.12074 -0.44262,0.25848 -0.6478,0.41205c-0.20181,0.14946 -0.40792,0.3208 -0.61833,0.51402c-0.13088,0.12052 -0.25862,0.24441 -0.38309,0.37154c-0.0232,0.02358 -0.04898,0.04447 -0.07685,0.06229c-0.05012,0.03137 -0.1023,0.04705 -0.15655,0.04705c-0.00592,0.00002 -0.01184,-0.00015 -0.01775,-0.0005c-0.0361,-0.00194 -0.07173,-0.00905 -0.10582,-0.0211c-0.04208,-0.01508 -0.08029,-0.03933 -0.11185,-0.07099c-0.05581,-0.05581 -0.08093,-0.12837 -0.07535,-0.21766c0.00194,-0.0361 0.00905,-0.07173 0.0211,-0.10582c0.01508,-0.04208 0.03933,-0.08029 0.07099,-0.11185c0.62971,-0.51326 1.19325,-1.10273 1.67769,-1.75487c0.07305,-0.09755 0.1445,-0.1963 0.21432,-0.29619c0.4926,-0.69982 0.91343,-1.44751 1.25609,-2.23172c0.03424,-0.07894 0.06762,-0.15825 0.10013,-0.23792c-0.63625,0.01116 -1.26412,0.01953 -1.88363,0.02512c-0.6195,0.00558 -1.19157,0.00279 -1.7162,-0.00837c-0.06697,0.00002 -0.13172,-0.02398 -0.1825,-0.06764c-0.00931,-0.00772 -0.01825,-0.01588 -0.02679,-0.02445c-0.06139,-0.06139 -0.08651,-0.13116 -0.07535,-0.20929c0,-0.0893 0.03349,-0.16185 0.10046,-0.21766c0.02887,-0.02452 0.06127,-0.04456 0.09611,-0.05944c0.03849,-0.01613 0.07982,-0.02438 0.12156,-0.02428c1.17204,0.05581 2.43337,0.05581 3.784,0c0.11162,-0.32371 0.20371,-0.6502 0.27627,-0.97949c0.06195,-0.27994 0.11477,-0.56183 0.15839,-0.84521c0.006,-0.03915 0.0118,-0.07833 0.01741,-0.11754c0.00433,-0.03774 0.01515,-0.07445 0.03198,-0.1085c0.02016,-0.03978 0.04935,-0.0743 0.08522,-0.1008c0.02618,-0.01998 0.05534,-0.03575 0.0864,-0.04671c0.04186,-0.0144 0.08561,-0.01836 0.13127,-0.01189c0.03477,0.00402 0.06878,0.01304 0.10096,0.02679c0.04217,0.01825 0.07933,0.04639 0.10833,0.08204c0.03974,0.04851 0.06151,0.10925 0.06162,0.17195c0.00033,0.01529 -0.00039,0.03103 -0.00218,0.04722c-0.00026,0.00229 -0.00054,0.00458 -0.00084,0.00686c-0.04465,0.31254 -0.10046,0.62509 -0.16743,0.93763c-0.06697,0.31254 -0.15069,0.6195 -0.25115,0.92089c0.5916,-0.02232 1.17762,-0.05581 1.75805,-0.10046c0.58044,-0.04465 1.12739,-0.0893 1.64085,-0.13395c0.0893,-0.01116 0.16464,0.00837 0.22604,0.0586c0.04965,0.04079 0.08458,0.09672 0.09946,0.15923c0.00418,0.01647 0.00731,0.03319 0.00938,0.05006c0.00982,0.06887 -0.00419,0.13344 -0.04203,0.19372c-0.0052,0.0082 -0.01073,0.01619 -0.01658,0.02394c-0.04629,0.06224 -0.11545,0.10351 -0.19221,0.11469c-0.00567,0.00096 -0.01137,0.0018 -0.01708,0.00251c-0.52463,0.04465 -1.10506,0.08651 -1.74131,0.12558c-0.63625,0.03907 -1.28366,0.06976 -1.94223,0.09209c-0.43533,1.10506 -1.02693,2.14315 -1.7748,3.11427c0.23644,-0.12382 0.48378,-0.2256 0.73888,-0.30406c0.03541,-0.01076 0.07096,-0.02103 0.10666,-0.03081c0.2627,-0.07321 0.53369,-0.11249 0.80636,-0.11687c0.01306,-0.0002 0.02612,-0.00031 0.03918,-0.00033c0.30259,-0.00258 0.60358,0.04424 0.89108,0.13864c0.23507,0.07897 0.45682,0.19312 0.65768,0.33855c0.29767,0.21734 0.5559,0.48407 0.7635,0.78861c0.11893,0.17264 0.22471,0.35398 0.31645,0.54249c0.40791,-0.13767 0.82068,-0.26048 1.2375,-0.36819c0.26715,-0.06935 0.53559,-0.1336 0.80519,-0.19272c0.52719,-0.11515 1.05769,-0.2146 1.59079,-0.2982c0.25622,-0.04044 0.51291,-0.07778 0.77003,-0.11201c0.0163,-0.00201 0.03215,-0.00301 0.04755,-0.00301c0.0674,-0.0008 0.13315,0.02088 0.18686,0.06162c0.03029,0.02224 0.05628,0.04982 0.07668,0.08137c0.02133,0.03372 0.03514,0.07164 0.04052,0.11118c0.00882,0.06162 -0.00151,0.12156 -0.03098,0.17982c-0.00814,0.01602 -0.01737,0.03146 -0.02763,0.04621c-0.04421,0.06615 -0.1141,0.11078 -0.19272,0.12306c-0.00551,0.00097 -0.01103,0.0018 -0.01658,0.00251c-0.5338,0.06617 -1.06548,0.14847 -1.5943,0.2468c-0.22829,0.04263 -0.45591,0.08874 -0.68279,0.1383c-0.40687,0.08855 -0.81146,0.18726 -1.21339,0.29602c-0.25555,0.0693 -0.50971,0.14366 -0.76233,0.22302c0.13844,0.40485 0.23883,0.82172 0.29987,1.2452c0.0595,0.39816 0.09298,0.82238 0.10046,1.27266c0.00104,0.06485 0.00154,0.1297 0.00151,0.19456c-0.00017,0.0653 -0.0202,0.12901 -0.05743,0.18267c-0.00815,0.01211 -0.01693,0.02379 -0.02629,0.03499c-0.04734,0.05905 -0.1175,0.09525 -0.19305,0.09962c-0.00819,0.00058 -0.0164,0.00086 -0.02461,0.00084c-0.06072,-0.0001 -0.11951,-0.02136 -0.16626,-0.06011c-0.01538,-0.0123 -0.02977,-0.02579 -0.04303,-0.04035c-0.06139,-0.06697 -0.09209,-0.13953 -0.09209,-0.21766c0,-0.49114 -0.0307,-0.946 -0.09209,-1.36458c-0.03436,-0.23815 -0.0817,-0.47425 -0.14182,-0.70724c-0.03849,-0.14842 -0.08335,-0.29512 -0.13445,-0.43968c-0.41068,0.14922 -0.81349,0.31928 -1.20686,0.5095c-0.38878,0.18965 -0.73838,0.38979 -1.0488,0.60042c-0.20311,0.13697 -0.39759,0.28633 -0.58233,0.44722c-0.19579,0.16893 -0.37386,0.35737 -0.53143,0.56241c-0.18563,0.24557 -0.31757,0.49728 -0.39581,0.75513c-0.05684,0.18619 -0.08573,0.37979 -0.08573,0.57446c0.0002,0.32859 0.12247,0.64538 0.34307,0.88891c0.08842,0.10104 0.18662,0.19307 0.29318,0.27476c0.42417,0.32929 1.12739,0.53858 2.10966,0.62788c0.17473,0.01559 0.34989,0.02603 0.52524,0.03131c0.69619,0.0221 1.53313,-0.02059 2.51084,-0.12809c0.32242,-0.03569 0.64432,-0.07598 0.96559,-0.12089c0.02746,-0.00681 0.05363,-0.01021 0.07853,-0.01021c0.0538,-0.00074 0.1061,0.01772 0.14751,0.05207c0.04965,0.04079 0.08458,0.09672 0.09946,0.15923c0.00418,0.01647 0.00731,0.03319 0.00938,0.05006c0.01931,0.06753 0.0115,0.13093 -0.02344,0.1902c-0.00563,0.00949 -0.01178,0.01865 -0.01842,0.02746c-0.04357,0.05786 -0.1039,0.10088 -0.17279,0.12323c-0.01201,0.00408 -0.02419,0.00766 -0.0365,0.01072c-0.42697,0.05792 -0.85507,0.1071 -1.28405,0.14751c-1.16768,0.10872 -2.15727,0.12373 -2.96877,0.04504zM290.0195,186.27325c-0.14794,-0.06918 -0.28785,-0.15436 -0.41724,-0.254c-0.20833,-0.15669 -0.3805,-0.35638 -0.50481,-0.58552c-0.12792,-0.24144 -0.194,-0.51307 -0.19824,-0.8149c-0.00013,-0.01038 -0.00018,-0.02076 -0.00017,-0.03114c-0.00282,-0.22741 0.03617,-0.4534 0.11503,-0.66672c0.1124,-0.29479 0.30741,-0.54338 0.58501,-0.74575c0.00106,-0.00078 0.00212,-0.00156 0.00318,-0.00234c0.44448,-0.3227 0.98423,-0.45235 1.61925,-0.38895c0.03517,0.00353 0.07028,0.00761 0.10532,0.01222c0.18144,0.01993 0.36016,0.05968 0.53294,0.11854c0.30942,0.10816 0.55594,0.27794 0.73955,0.50933c0.27059,0.33599 0.41569,0.75574 0.41038,1.1871c0,0.00893 -0.00006,0.01786 -0.00017,0.02679c-0.00619,0.38989 -0.11487,0.7713 -0.31511,1.1059c-0.04,0.06849 -0.0829,0.13525 -0.12859,0.20008c0.30879,-0.04343 0.61287,-0.11546 0.90833,-0.21515c0.6031,-0.20818 1.06772,-0.52714 1.39389,-0.95688c0.4136,-0.54791 0.65673,-1.20547 0.69904,-1.89066c0.00844,-0.11187 0.01263,-0.22402 0.01256,-0.33621c0.00211,-0.27495 -0.03395,-0.54886 -0.10716,-0.8139c-0.07467,-0.26602 -0.19414,-0.51737 -0.35329,-0.74324c-0.30696,-0.43533 -0.7088,-0.7674 -1.20552,-0.99623c-0.49672,-0.22883 -1.02414,-0.34324 -1.58225,-0.34324c-0.69206,0 -1.3311,0.0893 -1.91712,0.26789c-0.56169,0.17303 -1.09843,0.41855 -1.59665,0.73035c-0.03444,0.02138 -0.06871,0.04303 -0.1028,0.06496c-0.3054,0.19726 -0.60252,0.40706 -0.89058,0.62888c-0.2791,0.21461 -0.55164,0.43762 -0.81724,0.66873c-0.06697,0.04465 -0.14511,0.06697 -0.23441,0.06697c-0.0893,0 -0.16185,-0.03349 -0.21766,-0.10046c-0.04989,-0.05863 -0.07688,-0.13332 -0.07601,-0.2103c-0.00003,-0.00804 0.0002,-0.01608 0.00067,-0.02411c0.00558,-0.0893 0.04186,-0.15627 0.10883,-0.20092c0.51346,-0.35719 1.05762,-0.77019 1.63248,-1.23901c0.57486,-0.46881 1.14413,-0.95158 1.70782,-1.4483c0.56369,-0.49672 1.08553,-0.97112 1.5655,-1.42319c0.16928,-0.15943 0.33828,-0.31916 0.50699,-0.4792c0.13171,-0.12491 0.25578,-0.243 0.37221,-0.35429c0.10903,-0.10421 0.21781,-0.20869 0.32633,-0.31344c0.413,-0.413 0.64741,-0.78973 0.70322,-1.13018c0.00647,-0.03896 0.01066,-0.07826 0.01256,-0.11771c0.01306,-0.28441 -0.10833,-0.51028 -0.36417,-0.6776c-0.25718,-0.16821 -0.65472,-0.23993 -1.19263,-0.21515c-0.07136,0.00332 -0.14264,0.00806 -0.21381,0.01423c-0.42417,0.04465 -0.88461,0.10046 -1.38133,0.16743c-0.49672,0.06697 -0.96833,0.13395 -1.41481,0.20092c-0.01275,0.00186 -0.02562,0.00281 -0.03851,0.00285c-0.06362,0 -0.12334,-0.02327 -0.17915,-0.06982c-0.02879,-0.02354 -0.05371,-0.05145 -0.07384,-0.08271c-0.02273,-0.03586 -0.03751,-0.07616 -0.04337,-0.11821c-0.01116,-0.0893 0.00837,-0.16464 0.0586,-0.22604c0.04761,-0.05992 0.11666,-0.09895 0.19255,-0.10883c0.21785,-0.02866 0.43573,-0.05701 0.65366,-0.08506c0.22994,-0.02958 0.47222,-0.06044 0.72683,-0.09259c0.01702,-0.00218 0.03404,-0.00435 0.05107,-0.00653c0.23659,-0.02997 0.47346,-0.05765 0.71059,-0.08305c0.22347,-0.02389 0.43538,-0.04415 0.63575,-0.06078c0.0284,-0.00234 0.05681,-0.00463 0.08522,-0.00686c0.09791,-0.00809 0.196,-0.01378 0.29418,-0.01708c0.42305,-0.01395 0.78085,0.02389 1.07342,0.11352c0.07905,0.02392 0.15636,0.05323 0.23139,0.08774c0.12391,0.05631 0.24089,0.12676 0.3486,0.20996c0.18263,0.13833 0.32052,0.32734 0.39648,0.54349c0.08595,0.24936 0.09577,0.51698 0.02947,0.80284c-0.0208,0.08845 -0.04743,0.17542 -0.0797,0.26036c-0.13663,0.36255 -0.38203,0.7078 -0.73621,1.03574c-0.02227,0.02056 -0.04476,0.04088 -0.06748,0.06095c-0.47998,0.43533 -1.01576,0.91251 -1.60736,1.43156c-0.5916,0.51904 -1.17204,1.02972 -1.74131,1.53202c0.40184,-0.1786 0.81763,-0.32091 1.24738,-0.42696c0.42975,-0.10604 0.86786,-0.15906 1.31435,-0.15906c0.48462,-0.00338 0.9664,0.07409 1.42553,0.22922c0.17414,0.05982 0.34397,0.13148 0.50833,0.21448c0.58602,0.2958 1.05204,0.70601 1.39807,1.23064c0.31027,0.47361 0.48742,1.02198 0.51285,1.58761c0.00416,0.07349 0.00623,0.14707 0.0062,0.22068c0,1.22785 -0.38789,2.20454 -1.16366,2.93009c-0.38395,0.35102 -0.83854,0.61586 -1.33327,0.77672c-0.37539,0.12814 -0.79302,0.21677 -1.25291,0.26588c-0.30058,0.03125 -0.60261,0.0465 -0.90481,0.04571c-0.25551,0.00148 -0.51068,-0.01907 -0.76266,-0.06145c-0.27537,-0.048 -0.5239,-0.12424 -0.74558,-0.22871zM192.80565,180.91152c-0.1578,0.76265 -0.43054,1.49691 -0.80887,2.17764c-0.36122,0.63859 -0.83013,1.20992 -1.38602,1.68874c-0.55441,0.47322 -1.17288,0.86576 -1.83708,1.16601c-0.00786,0.0044 -0.01562,0.00898 -0.02327,0.01373c-0.13808,0.08595 -0.18847,0.19863 -0.15119,0.33805c0.00624,0.02283 0.01419,0.04517 0.02378,0.06681c0.00156,0.00366 0.00318,0.00728 0.00486,0.01088c0.03129,0.0698 0.09018,0.12347 0.16258,0.14818c0.00139,0.00051 0.00279,0.00101 0.00419,0.00151c0.0768,0.02612 0.15354,0.01725 0.23022,-0.02662c2.08687,-0.9045 3.64258,-2.7175 4.21966,-4.91753c0.26688,-1.00083 0.39633,-2.03332 0.38476,-3.06906v-0.43533h4.0519c0.0893,0 0.16185,-0.0307 0.21766,-0.09209c0.00198,-0.00215 0.00393,-0.00433 0.00586,-0.00653c0.05029,-0.05554 0.07806,-0.12784 0.07786,-0.20276c0.00006,-0.01617 -0.00089,-0.03233 -0.00285,-0.04839c-0.00684,-0.064 -0.03538,-0.12374 -0.08087,-0.16928c-0.03252,-0.03274 -0.07278,-0.05675 -0.11704,-0.06982c-0.03269,-0.00951 -0.06659,-0.0142 -0.10063,-0.0139h-4.0519c-0.01116,-0.62509 -0.02232,-1.25854 -0.03349,-1.90037c-0.00053,-0.0317 -0.00108,-0.0634 -0.00167,-0.0951c-0.01172,-0.59952 -0.03349,-1.10082 -0.0653,-1.50389c-0.0025,-0.02022 -0.00636,-0.04024 -0.01155,-0.05994c-0.01496,-0.0596 -0.04566,-0.11407 -0.08891,-0.15772c-0.05581,-0.05581 -0.12837,-0.07814 -0.21766,-0.06697c-0.03814,0.00541 -0.07509,0.01718 -0.10933,0.03483c-0.03697,0.01931 -0.0707,0.04428 -0.09996,0.07401c-0.00039,0.00039 -0.00078,0.00078 -0.00117,0.00117c-0.0605,0.06117 -0.08522,0.13612 -0.07417,0.22486c0.01108,0.14523 0.02074,0.29057 0.02897,0.436c0.01942,0.34 0.03488,0.72488 0.04638,1.15462c0.01674,0.62509 0.0307,1.24459 0.04186,1.85851h-4.08538c-0.00551,-0.14094 -0.01142,-0.28186 -0.01775,-0.42277c-0.01818,-0.40622 -0.04017,-0.81227 -0.06597,-1.21808c-0.00222,-0.03461 -0.00451,-0.06921 -0.00686,-0.10381c-0.01618,-0.24043 -0.03483,-0.46876 -0.05592,-0.68497c-0.0199,-0.20631 -0.04362,-0.41223 -0.07116,-0.61766c-0.00071,-0.00571 -0.00155,-0.0114 -0.00251,-0.01708c-0.01118,-0.07676 -0.05245,-0.14592 -0.11469,-0.19221c-0.04451,-0.03413 -0.09912,-0.05245 -0.15521,-0.05207c-0.02534,0 -0.05174,0.0034 -0.0792,0.01021c-0.03954,0.00537 -0.07745,0.01919 -0.11118,0.04052c-0.03156,0.02041 -0.05913,0.04639 -0.08137,0.07668c-0.04074,0.05371 -0.06242,0.11945 -0.06162,0.18686c0,0.01552 0.001,0.03137 0.00301,0.04755c0.00017,0.001 0.00033,0.00201 0.0005,0.00301c0.04163,0.25896 0.0802,0.56459 0.1157,0.91687c0.01233,0.12304 0.02382,0.24616 0.03449,0.36936c0.04465,0.51346 0.07255,1.06599 0.08372,1.65759h-4.25282c-0.0374,-0.00021 -0.0745,0.00666 -0.10933,0.02026c-0.03692,0.01487 -0.0708,0.03637 -0.09996,0.06346c-0.03401,0.03038 -0.05981,0.06885 -0.07501,0.11185c-0.01167,0.03405 -0.01744,0.06983 -0.01708,0.10582c-0.00021,0.04423 0.01037,0.08785 0.03081,0.12708c0.01607,0.03039 0.03674,0.05812 0.06128,0.08221c0.00854,0.00857 0.01748,0.01673 0.02679,0.02445c0.05078,0.04366 0.11553,0.06766 0.1825,0.06764h4.2863c0.01116,0.55811 0.01674,1.10506 0.01674,1.64085c0,0.07412 -0.00022,0.14824 -0.00067,0.22235c-0.00134,0.21878 -0.00463,0.42662 -0.00988,0.62352c-0.00504,0.19253 -0.01269,0.38499 -0.02294,0.57731c-0.01116,0.07814 0.01395,0.15069 0.07535,0.21766c0.01471,0.01617 0.0306,0.03123 0.04755,0.04504c0.04626,0.03845 0.10222,0.06342 0.16174,0.07216c0.0893,0 0.16464,-0.02791 0.22604,-0.08372c0.00335,-0.00301 0.00665,-0.00608 0.00988,-0.00921c0.05299,-0.04961 0.0828,-0.11913 0.08221,-0.19171c0.02232,-0.43533 0.0307,-0.92368 0.02512,-1.46504c-0.00558,-0.54137 -0.01953,-1.09111 -0.04186,-1.64922h4.06864v0.43533c0,0.86708 -0.0792,1.66764 -0.23759,2.40167zM269.69422,186.05525c-0.00346,0.27984 -0.03968,0.49666 -0.10866,0.65048c-0.01849,0.04139 -0.04243,0.08013 -0.07116,0.11519c-0.08271,0.10091 -0.20689,0.17413 -0.37254,0.21967c-0.05107,0.01382 -0.10275,0.02527 -0.15488,0.03432c-0.21733,0.03851 -0.51173,0.05776 -0.88321,0.05776c-0.0374,-0.00021 -0.0745,0.00666 -0.10933,0.02026c-0.03692,0.01487 -0.0708,0.03637 -0.09996,0.06346c-0.03401,0.03038 -0.05981,0.06885 -0.07501,0.11185c-0.01167,0.03405 -0.01744,0.06983 -0.01708,0.10582c-0.00021,0.04423 0.01037,0.08785 0.03081,0.12708c0.01607,0.03039 0.03674,0.05812 0.06128,0.08221c0.00854,0.00857 0.01748,0.01673 0.02679,0.02445c0.05078,0.04366 0.11553,0.06766 0.1825,0.06764c0.41557,0 0.76216,-0.02517 1.03976,-0.07551c0.11295,-0.01968 0.22432,-0.0476 0.33319,-0.08355c0.07237,-0.02422 0.14259,-0.0544 0.20996,-0.09025c0.19168,-0.0983 0.34476,-0.25816 0.43466,-0.45391c0.0778,-0.17045 0.12982,-0.37784 0.15605,-0.62218c0.01366,-0.13261 0.02025,-0.26585 0.01976,-0.39916v-5.08998c0.77019,-0.36835 1.4176,-0.69206 1.94223,-0.97112c0.00557,-0.00276 0.0111,-0.0056 0.01658,-0.00854c0.14399,-0.07791 0.1964,-0.18758 0.15722,-0.32901c-0.00617,-0.02195 -0.01389,-0.04344 -0.02311,-0.06429c-0.06842,-0.13696 -0.16263,-0.1796 -0.28263,-0.12792c-0.01805,0.00788 -0.03551,0.01706 -0.05224,0.02746c-0.1325,0.06284 -0.28358,0.13434 -0.45324,0.21448c-0.10844,0.0513 -0.21688,0.10259 -0.32532,0.15387c-0.30696,0.14511 -0.63346,0.2958 -0.97949,0.45207v-3.73377h1.7748c0.0893,0 0.16185,-0.0307 0.21766,-0.09209c0.00198,-0.00215 0.00393,-0.00433 0.00586,-0.00653c0.05029,-0.05554 0.07806,-0.12784 0.07786,-0.20276c0.00006,-0.01617 -0.00089,-0.03233 -0.00285,-0.04839c-0.00684,-0.064 -0.03538,-0.12374 -0.08087,-0.16928c-0.03252,-0.03274 -0.07278,-0.05675 -0.11704,-0.06982c-0.03269,-0.00951 -0.06659,-0.0142 -0.10063,-0.0139h-1.7748v-3.36542c0.00021,-0.0374 -0.00666,-0.0745 -0.02026,-0.10933c-0.01487,-0.03692 -0.03637,-0.0708 -0.06346,-0.09996c-0.03038,-0.03401 -0.06885,-0.05981 -0.11185,-0.07501c-0.03405,-0.01167 -0.06983,-0.01744 -0.10582,-0.01708c-0.04423,-0.00021 -0.08785,0.01037 -0.12708,0.03081c-0.03039,0.01607 -0.05812,0.03674 -0.08221,0.06128c-0.00857,0.00854 -0.01673,0.01748 -0.02445,0.02679c-0.04366,0.05078 -0.06766,0.11553 -0.06764,0.1825v3.36542h-2.24361c-0.0374,-0.00021 -0.0745,0.00666 -0.10933,0.02026c-0.03692,0.01487 -0.0708,0.03637 -0.09996,0.06346c-0.03401,0.03038 -0.05981,0.06885 -0.07501,0.11185c-0.01167,0.03405 -0.01744,0.06983 -0.01708,0.10582c-0.00021,0.04423 0.01037,0.08785 0.03081,0.12708c0.01607,0.03039 0.03674,0.05812 0.06128,0.08221c0.00854,0.00857 0.01748,0.01673 0.02679,0.02445c0.05078,0.04366 0.11553,0.06766 0.1825,0.06764h2.24361v4.00167c-0.05558,0.02503 -0.11116,0.05003 -0.16676,0.07501c-0.37633,0.16893 -0.75328,0.33648 -1.13085,0.50264c-0.12442,0.05479 -0.24894,0.10938 -0.37354,0.16375c-0.11832,0.05157 -0.23033,0.10013 -0.33604,0.14567c-0.11771,0.05073 -0.23558,0.10107 -0.35362,0.15103c-0.07814,0.03349 -0.13674,0.0893 -0.17581,0.16743c-0.03907,0.07814 -0.03628,0.16185 0.00837,0.25115c0.03349,0.0893 0.09488,0.15069 0.18418,0.18418c0.0893,0.03349 0.1786,0.03349 0.26789,0c0.29022,-0.13395 0.61392,-0.28185 0.97112,-0.4437c0.35719,-0.16185 0.72555,-0.33208 1.10506,-0.51067v4.7886c0.00003,0.01479 -0.00002,0.02958 -0.00017,0.04437zM225.77133,183.96802c0.62553,-0.0029 1.16316,-0.0509 1.61289,-0.14399c0.22272,-0.04433 0.44111,-0.10815 0.65266,-0.19071c0.01845,-0.00737 0.03682,-0.01496 0.05509,-0.02277c0.51505,-0.21241 0.91931,-0.62837 1.11695,-1.14926c0.01077,-0.02686 0.02115,-0.05388 0.03114,-0.08104c0.13774,-0.37572 0.2286,-0.84738 0.27258,-1.41498c0.0215,-0.28776 0.03189,-0.57624 0.03114,-0.86479c0,-0.04431 -0.00023,-0.08863 -0.00067,-0.13294c-0.00938,-0.95169 -0.12078,-1.69432 -0.3342,-2.22787c-0.00737,-0.01845 -0.01496,-0.03682 -0.02277,-0.05509c-0.21241,-0.51505 -0.62837,-0.91931 -1.14926,-1.11695c-0.01302,-0.00523 -0.02608,-0.01036 -0.03918,-0.0154c-0.3774,-0.14477 -0.8509,-0.24038 -1.42051,-0.28681c-0.28865,-0.02258 -0.57811,-0.03347 -0.86764,-0.03265h-5.84344c-0.0374,-0.00021 -0.0745,0.00666 -0.10933,0.02026c-0.03692,0.01487 -0.0708,0.03637 -0.09996,0.06346c-0.03401,0.03038 -0.05981,0.06885 -0.07501,0.11185c-0.01167,0.03405 -0.01744,0.06983 -0.01708,0.10582c0,0.07814 0.0307,0.15069 0.09209,0.21766c0.01326,0.01456 0.02765,0.02805 0.04303,0.04035c0.04675,0.03875 0.10554,0.06001 0.16626,0.06011h5.84344c0.08333,0.00001 0.16666,0.0009 0.24998,0.00268c0.75993,0.01607 1.34912,0.10727 1.7676,0.27359c0.19288,0.07451 0.37024,0.1842 0.52306,0.32348c0.19246,0.18083 0.33767,0.40607 0.42294,0.65601c0.01255,0.0352 0.02439,0.07064 0.0355,0.10632c0.09655,0.30942 0.16068,0.6944 0.19238,1.15496c0.01611,0.24339 0.02387,0.48726 0.02327,0.73118c-0.00001,0.04264 -0.00023,0.08528 -0.00067,0.12792c-0.00793,0.79799 -0.09142,1.42229 -0.25048,1.87291c-0.01162,0.03298 -0.02413,0.06564 -0.03751,0.09795c-0.16403,0.41132 -0.49387,0.73442 -0.9085,0.88991c-0.04182,0.0166 -0.08409,0.03207 -0.12675,0.04638c-0.45609,0.15326 -1.08637,0.22989 -1.89083,0.22989h-6.02761c-0.0374,-0.00021 -0.0745,0.00666 -0.10933,0.02026c-0.03692,0.01487 -0.0708,0.03637 -0.09996,0.06346c-0.03401,0.03038 -0.05981,0.06885 -0.07501,0.11185c-0.01167,0.03405 -0.01744,0.06983 -0.01708,0.10582c-0.00021,0.04423 0.01037,0.08785 0.03081,0.12708c0.01607,0.03039 0.03674,0.05812 0.06128,0.08221c0.00854,0.00857 0.01748,0.01673 0.02679,0.02445c0.05078,0.04366 0.11553,0.06766 0.1825,0.06764h6.02761c0.02059,-0.00001 0.04119,-0.00006 0.06178,-0.00017zM208.39423,186.30539c0.01607,0.03039 0.03674,0.05812 0.06128,0.08221c0.00854,0.00857 0.01748,0.01673 0.02679,0.02445c0.05078,0.04366 0.11553,0.06766 0.1825,0.06764c0.0893,0 0.16185,-0.0307 0.21766,-0.09209c0.00198,-0.00215 0.00393,-0.00433 0.00586,-0.00653c0.05029,-0.05554 0.07806,-0.12784 0.07786,-0.20276v-9.17537c0.45765,-0.46881 0.88182,-0.93484 1.2725,-1.39807c0.14305,-0.16943 0.28332,-0.34118 0.42076,-0.51519c0.21438,-0.27107 0.42025,-0.54875 0.61733,-0.83265c0.00345,-0.00535 0.0068,-0.01076 0.01005,-0.01624c0.07222,-0.12245 0.06452,-0.23446 -0.02311,-0.33604c-0.02137,-0.02432 -0.04503,-0.04652 -0.07066,-0.0663c-0.05369,-0.04476 -0.11274,-0.06619 -0.17714,-0.06429c-0.01643,0.00052 -0.03278,0.00242 -0.04889,0.00569c-0.0451,0.00849 -0.08731,0.02825 -0.12273,0.05743c-0.0282,0.02386 -0.05185,0.05262 -0.06982,0.08489c-0.61392,0.88182 -1.37296,1.78875 -2.2771,2.7208c-0.90414,0.93205 -1.88921,1.82503 -2.9552,2.67894c-1.06599,0.85391 -2.1571,1.61574 -3.27333,2.28547c-0.03307,0.02184 -0.06165,0.0498 -0.08422,0.08238c-0.02282,0.03357 -0.03965,0.07085 -0.04973,0.11017c-0.02232,0.08372 -0.01116,0.15906 0.03349,0.22604c0.04465,0.07814 0.10883,0.12558 0.19255,0.14232c0.00423,0.00085 0.00847,0.00164 0.01272,0.00234c0.01842,0.00301 0.03639,0.00452 0.05391,0.00452c0.05683,0.00021 0.1124,-0.01677 0.1594,-0.04872c0.2801,-0.16881 0.55709,-0.34275 0.83081,-0.52172c0.73515,-0.48204 1.44951,-0.99508 2.14114,-1.53771c0.99902,-0.78136 1.93386,-1.5962 2.80451,-2.44453v8.55586c-0.00021,0.04423 0.01037,0.08785 0.03081,0.12708zM239.38068,184.55872c-0.1995,-0.02712 -0.39784,-0.06214 -0.59456,-0.10498c-0.23223,-0.05001 -0.46024,-0.11797 -0.68196,-0.20326c-0.34625,-0.13518 -0.63798,-0.30741 -0.87518,-0.5167c-0.26098,-0.23311 -0.4701,-0.51844 -0.61381,-0.8375c-0.07794,-0.17007 -0.14145,-0.34638 -0.18987,-0.52708c-0.1181,-0.43455 -0.19154,-0.94717 -0.22034,-1.53788c-0.00954,-0.19882 -0.01422,-0.39785 -0.01406,-0.5969c-0.00068,-0.29632 0.00987,-0.59255 0.03164,-0.88807c0.03628,-0.47652 0.10386,-0.89488 0.20276,-1.25508c0.06534,-0.24432 0.15978,-0.47991 0.28129,-0.70171c0.13537,-0.24647 0.31207,-0.46786 0.52239,-0.6545c0.18886,-0.16416 0.3994,-0.30157 0.6257,-0.40837c0.20126,-0.097 0.42417,-0.17921 0.66873,-0.24663c0.08699,-0.02394 0.17458,-0.0456 0.2627,-0.06496c0.2681,-0.05782 0.53897,-0.10196 0.81155,-0.13227c0.49326,-0.05693 1.05433,-0.08539 1.68321,-0.08539c0.33887,-0.00062 0.67768,0.00876 1.01599,0.02813c0.31723,0.01875 0.61197,0.04699 0.88422,0.08472c0.19949,0.02706 0.39783,0.06203 0.59456,0.10481c0.23229,0.05001 0.46035,0.11796 0.68212,0.20326c0.34614,0.13518 0.63781,0.30741 0.87501,0.5167c0.26979,0.24095 0.48456,0.53715 0.62972,0.86848c0.07054,0.15782 0.12871,0.32089 0.17396,0.48773c0.15627,0.56927 0.23441,1.28366 0.23441,2.14315c0,0.84833 -0.07814,1.55992 -0.23441,2.13478c-0.06459,0.2442 -0.15795,0.47986 -0.27811,0.70205c-0.13534,0.24972 -0.3132,0.47392 -0.52557,0.66254c-0.18886,0.16416 -0.3994,0.30157 -0.6257,0.40837c-0.20114,0.097 -0.42405,0.17921 -0.66873,0.24663c-0.08699,0.02394 -0.17458,0.0456 -0.2627,0.06496c-0.2681,0.05787 -0.53896,0.10208 -0.81155,0.13244c-0.49326,0.05682 -1.05433,0.08522 -1.68321,0.08522c-0.33887,0.00062 -0.67768,-0.00876 -1.01599,-0.02813c-0.31723,-0.01875 -0.61197,-0.04694 -0.88422,-0.08455zM239.81851,184.00653c-0.23935,-0.02224 -0.47765,-0.05459 -0.71427,-0.09694c-0.08453,-0.01536 -0.16861,-0.03306 -0.25216,-0.05308c-0.46323,-0.11151 -0.83962,-0.28358 -1.12917,-0.5162c-0.20033,-0.1623 -0.36674,-0.36245 -0.48974,-0.58903c-0.09893,-0.18189 -0.1762,-0.37475 -0.23022,-0.57463c-0.09153,-0.32962 -0.15303,-0.72175 -0.18451,-1.17639c-0.01706,-0.25492 -0.02532,-0.51035 -0.02478,-0.76584c0,-0.50766 0.02863,-0.95465 0.08589,-1.34098c0.02862,-0.20003 0.06984,-0.39805 0.1234,-0.59288c0.04213,-0.15211 0.09736,-0.30029 0.16509,-0.44286c0.12867,-0.2764 0.31839,-0.52 0.55488,-0.71243c0.34045,-0.27348 0.80089,-0.46323 1.38133,-0.56927c0.17098,-0.03086 0.34291,-0.05616 0.51553,-0.07585c0.23519,-0.02735 0.4888,-0.04794 0.76082,-0.06178c0.29987,-0.01476 0.60006,-0.02191 0.90029,-0.02143c0.54416,0 1.03162,0.02071 1.46237,0.06212c0.23935,0.02224 0.47765,0.05459 0.71427,0.09694c0.08453,0.01536 0.16861,0.03306 0.25216,0.05308c0.46323,0.11151 0.83962,0.28358 1.12917,0.5162c0.19566,0.15821 0.35923,0.35241 0.48187,0.57212c0.10262,0.18406 0.18257,0.37988 0.23809,0.58317c0.09153,0.32594 0.15303,0.71561 0.18451,1.16902c0.01707,0.25458 0.02533,0.50968 0.02478,0.76484c0.00044,0.23641 -0.00654,0.47277 -0.02093,0.70875c-0.03014,0.47897 -0.09293,0.89013 -0.18836,1.23348c-0.13953,0.5023 -0.37952,0.89019 -0.71996,1.16366c-0.34045,0.27348 -0.80089,0.46323 -1.38133,0.56927c-0.17092,0.03086 -0.3428,0.05615 -0.51536,0.07585c-0.2353,0.02735 -0.48891,0.04794 -0.76082,0.06178c-0.29992,0.01476 -0.60017,0.02191 -0.90046,0.02143c-0.54416,0 -1.03162,-0.02071 -1.46237,-0.06212zM280.92918,176.74342c0.00198,-0.00215 0.00393,-0.00433 0.00586,-0.00653c0.05029,-0.05554 0.07806,-0.12784 0.07786,-0.20276c0.00006,-0.01617 -0.00089,-0.03233 -0.00285,-0.04839c-0.00684,-0.064 -0.03538,-0.12374 -0.08087,-0.16928c-0.03252,-0.03274 -0.07278,-0.05675 -0.11704,-0.06982c-0.03269,-0.00951 -0.06659,-0.0142 -0.10063,-0.0139h-5.62577c-0.0374,-0.00021 -0.0745,0.00666 -0.10933,0.02026c-0.03692,0.01487 -0.0708,0.03637 -0.09996,0.06346c-0.03401,0.03038 -0.05981,0.06885 -0.07501,0.11185c-0.01167,0.03405 -0.01744,0.06983 -0.01708,0.10582c-0.00021,0.04423 0.01037,0.08785 0.03081,0.12708c0.01607,0.03039 0.03674,0.05812 0.06128,0.08221c0.00854,0.00857 0.01748,0.01673 0.02679,0.02445c0.05078,0.04366 0.11553,0.06766 0.1825,0.06764h5.62577c0.0893,0 0.16185,-0.0307 0.21766,-0.09209zM290.62879,185.90138c-0.21039,-0.05605 -0.41013,-0.14633 -0.59121,-0.26722c-0.21298,-0.14522 -0.36439,-0.32304 -0.45425,-0.53344c-0.0673,-0.16255 -0.10074,-0.33711 -0.09828,-0.51302c-0.00001,-0.02015 0.00038,-0.04031 0.00117,-0.06044c0.0077,-0.19166 0.05241,-0.36322 0.13411,-0.51469c0.08727,-0.15798 0.21005,-0.29354 0.35864,-0.39598c0.14208,-0.10064 0.30144,-0.17431 0.47015,-0.21733c0.17201,-0.04476 0.36037,-0.06273 0.56509,-0.05391c0.07655,0.00339 0.15291,0.01009 0.22888,0.02009c0.12729,0.01584 0.25245,0.04566 0.37321,0.08891c0.2274,0.07851 0.42469,0.22593 0.56442,0.42177c0.15711,0.22222 0.23971,0.48853 0.23591,0.76065c0,0.07892 -0.00608,0.16023 -0.01825,0.24395c-0.03494,0.24144 -0.12697,0.47959 -0.2761,0.71444c-0.09558,0.14854 -0.20495,0.28773 -0.32666,0.41574h-0.26789c-0.33699,0 -0.63664,-0.0365 -0.89895,-0.1095z" fill="#000000" fill-rule="evenodd" stroke="#000000" stroke-width="1" stroke-linecap="round"/></g></g></svg>