<svg version="1.1" xmlns="http://www.w3.org/2000/svg" xmlns:xlink="http://www.w3.org/1999/xlink" width="356.85436" height="55.05255" viewBox="0,0,356.85436,55.05255"><g transform="translate(-61.57285,-152.47375)"><g data-paper-data="{&quot;isPaintingLayer&quot;:true}" stroke-linejoin="miter" stroke-miterlimit="10" stroke-dasharray="" stroke-dashoffset="0" style="mix-blend-mode: normal"><path d="M417.17721,159.76239v40.47527c0,3.34558 -7.08649,6.03864 -15.89018,6.03864h-322.574c-8.80362,0 -15.89018,-2.69306 -15.89018,-6.03864v-40.47527c0,-3.34558 7.08649,-6.03864 15.89018,-6.03864h322.574c8.80362,0 15.89018,2.69306 15.89018,6.03864z" fill="#ff5757" fill-rule="nonzero" stroke="#ff0000" stroke-width="2.5" stroke-linecap="butt"/><path d="M191.59019,192.08331h-0.20793c-0.14888,-0.07458 -0.24772,-0.14902 -0.29651,-0.22331c-0.02264,-0.03206 -0.03523,-0.07013 -0.03618,-0.10937l-2.49518,-7.94297c-0.06588,-0.21289 -0.13075,-0.42609 -0.19462,-0.63959c-0.20294,-0.67564 -0.42917,-1.4605 -0.67869,-2.35462c-0.33269,-1.19214 -0.72083,-2.46745 -1.16441,-3.82593c-0.44358,-1.35849 -0.98421,-2.68924 -1.62186,-3.99227c-0.00732,-0.00819 -0.01285,-0.01782 -0.01622,-0.02828c-0.01691,-0.04519 -0.02537,-0.1328 -0.02537,-0.26283l-0.12476,-0.49903c-0.03063,-0.084 -0.05427,-0.17037 -0.0707,-0.25825c-0.03603,-0.18298 -0.05406,-0.40186 -0.05406,-0.65664c0,-0.15082 -0.02509,-0.32244 -0.07527,-0.51483c-0.01504,-0.05752 -0.03154,-0.11465 -0.04949,-0.17134c-0.0449,-0.14134 -0.06777,-0.28877 -0.06779,-0.43707c0,-0.12309 0.01566,-0.24772 0.047,-0.37386c0.03374,-0.12701 0.10247,-0.242 0.19836,-0.33185c0.12309,-0.1206 0.29803,-0.22581 0.52482,-0.31564c0.01534,-0.0061 0.03072,-0.01206 0.04616,-0.01788l0.79013,-0.33269l2.82787,-0.66538c0.00819,-0.00005 0.01638,-0.00047 0.02453,-0.00125c0.02855,-0.00249 0.06889,-0.00901 0.12102,-0.01954c0.05683,-0.01137 0.09966,-0.00873 0.1285,0.0079c0.00623,0.00353 0.01196,0.00786 0.01705,0.01289c0.05545,0.02772 0.08317,0 0.08317,-0.08317c-0.00004,-0.01304 0.00039,-0.02609 0.00125,-0.03909c0.00277,-0.03937 0.00998,-0.06515 0.02163,-0.07735c0.00476,-0.00532 0.01158,-0.00835 0.01871,-0.00832h0.12476l0.04159,-0.04159c0.0244,-0.00823 0.0491,-0.01558 0.07402,-0.02204c0.0513,-0.01303 0.09592,-0.01954 0.13391,-0.01954c0.03715,0 0.06806,-0.00624 0.09274,-0.01871c0.01184,-0.00585 0.02265,-0.01358 0.03202,-0.02287l0.20793,-0.08317l0.70696,-0.04159l2.16248,-0.41586c0.0833,-0.02658 0.16782,-0.0492 0.25326,-0.06779c0.40422,-0.0865 0.7218,-0.04311 0.95274,0.13017c0.271,0.20419 0.48753,0.472 0.63045,0.77974c0.00479,0.01037 0.0095,0.02076 0.01414,0.03119c0.15248,0.33269 0.27031,0.60993 0.35348,0.83172l0.5822,1.62186c0.18131,0.46576 0.36249,0.99806 0.54353,1.59691c0.01298,0.04294 0.02587,0.08592 0.03868,0.12892c0.08064,0.27018 0.16035,0.54063 0.23912,0.81134c0.07153,0.24675 0.13821,0.47991 0.20003,0.69948c0.02007,0.07164 0.04004,0.14331 0.05989,0.215c0.02039,0.073 0.04008,0.14619 0.05905,0.21957c0.09509,0.37012 0.13086,0.60189 0.10729,0.69532c0,0.01804 0.00083,0.03609 0.00249,0.05406c0.00332,0.03521 0.01013,0.06349 0.02038,0.08484c0.00466,0.01013 0.01099,0.0194 0.01871,0.02744c-0.00003,0.03369 0.00067,0.06739 0.00208,0.10106c0.00443,0.10147 0.0158,0.17466 0.0341,0.21957c0.00166,0.00409 0.00346,0.00811 0.00541,0.01206c0.07932,0.04845 0.14546,0.11573 0.19255,0.19587c0.03078,0.05101 0.05697,0.10896 0.0786,0.17383c0.00733,0.02211 0.01399,0.04444 0.01996,0.06695c0.05157,0.19269 0.10299,0.34377 0.15428,0.45329c0.00392,0.00837 0.00795,0.01669 0.01206,0.02495c0.019,0.01965 0.0351,0.04192 0.04783,0.06612c0.03216,0.05878 0.0578,0.1407 0.07694,0.24577c0.02772,0.15248 0.05545,0.29803 0.08317,0.43665l0.45745,0.99806l0.66538,2.20408l0.20793,0.49903l0.37427,0.62379c0,-0.02772 0.05545,-0.15248 0.16634,-0.37427c0.11089,-0.2218 0.2218,-0.45052 0.33269,-0.68617c0.01926,-0.04085 0.03812,-0.08188 0.05655,-0.12309c0.07319,-0.16385 0.10979,-0.26838 0.10979,-0.31356l0.41586,-1.66345l0.37427,-1.24758c0.02628,-0.06466 0.04701,-0.13143 0.06196,-0.19961c0.01392,-0.06422 0.02103,-0.12974 0.02121,-0.19545c0,-0.12476 0.01387,-0.24259 0.04159,-0.35348l0.12476,-0.54062l0.08317,-0.54062c0.05545,-0.27723 0.13863,-0.50597 0.24952,-0.68617c0.08872,-0.14388 0.17729,-0.37192 0.26573,-0.68409c0.02364,-0.08351 0.04596,-0.16738 0.06695,-0.2516c0.13667,-0.48766 0.2728,-0.97546 0.40838,-1.46342c0.26088,-0.93984 0.48115,-1.74343 0.6608,-2.41076c0.07414,-0.27481 0.14748,-0.54984 0.21999,-0.82507c0.04305,-0.16669 0.09468,-0.33103 0.1547,-0.49238c0.26033,-0.68894 0.60314,-0.98421 1.02842,-0.88578c0.00765,0.00183 0.01528,0.00377 0.02287,0.00583l1.49711,0.08317l2.66152,0.24952c0.04422,0.00049 0.08816,0.00707 0.13058,0.01954c0.07735,0.0219 0.1626,0.06196 0.25576,0.12018c0.00292,0.00193 0.00583,0.00387 0.00873,0.00583c0.15248,0.09704 0.27031,0.13168 0.35348,0.10396l1.08124,0.12476c0.33642,0.02171 0.65103,0.17408 0.87664,0.42459c0.05883,0.06259 0.1133,0.12915 0.16302,0.1992c0.06023,0.08318 0.11245,0.17188 0.15595,0.2649c0.1353,0.29415 0.13876,0.58013 0.0104,0.85792c-0.00051,0.07078 -0.00356,0.14153 -0.00915,0.21209c-0.01524,0.2071 -0.04949,0.49044 -0.10271,0.85002c-0.01749,0.11737 -0.03565,0.23466 -0.05448,0.35182c-0.01466,0.05963 -0.0347,0.11782 -0.05989,0.17383c-0.01843,0.04078 -0.04012,0.08 -0.06487,0.11727c-0.05545,0.08317 -0.08317,0.15248 -0.08317,0.20793c-0.00841,0.01757 -0.01497,0.03596 -0.01954,0.0549c-0.01469,0.05683 -0.02204,0.13557 -0.02204,0.23621c-0.1486,0.46687 -0.33366,1.06794 -0.55518,1.80317c-0.07171,0.2375 -0.14309,0.4751 -0.21417,0.71279c-0.31882,1.06738 -0.65845,2.21793 -1.01886,3.45166c-0.36041,1.23373 -0.70004,2.42586 -1.01886,3.57641c-0.11276,0.40711 -0.22546,0.81424 -0.3381,1.22139c-0.08816,0.31882 -0.17161,0.62074 -0.25035,0.90575c-0.07423,0.26822 -0.14839,0.53644 -0.22249,0.80469l-1.82979,7.11124c-0.00111,0.02565 -0.00916,0.05051 -0.02328,0.07195c-0.04325,0.07209 -0.14638,0.159 -0.3094,0.26074h-0.24952h-0.27031c-0.05646,0.00007 -0.11118,0.01944 -0.15512,0.0549c-0.01125,0.00875 -0.02195,0.01819 -0.03202,0.02828c-0.11089,0.11089 -0.26338,0.16634 -0.45745,0.16634c-0.13418,0 -0.28139,0.01954 -0.44165,0.05864c-0.00528,0.00123 -0.01053,0.00248 -0.0158,0.00374c-0.03833,0.00971 -0.07744,0.01611 -0.11686,0.01913c-0.12143,0.00888 -0.23497,-0.0183 -0.34059,-0.0815c-0.08071,-0.0116 -0.16153,-0.02241 -0.24245,-0.03244c-0.0743,-0.00915 -0.14486,-0.01705 -0.21167,-0.0237c-0.02189,-0.00218 -0.0438,-0.00426 -0.0657,-0.00624c-0.05414,-0.0049 -0.10834,-0.00906 -0.1626,-0.01248c-0.08566,-0.00555 -0.16316,-0.00832 -0.23246,-0.00832c-0.28294,0.02133 -0.56617,0.03853 -0.8496,0.05157c-0.27391,0.01303 -0.56709,0.02398 -0.87955,0.03285c-0.33153,0.00904 -0.66311,0.01554 -0.99474,0.01954c-1.0951,0.01387 -2.17634,0.01387 -3.24373,0c-1.06738,-0.01387 -1.94762,-0.02079 -2.64073,-0.02079c-0.16634,0 -0.32576,-0.02772 -0.47824,-0.08317c-0.09234,-0.03301 -0.188,-0.05588 -0.28528,-0.06821c-0.07776,-0.01013 -0.15612,-0.01514 -0.23455,-0.01497c-0.13863,0 -0.2911,0.01387 -0.45745,0.04159c-0.14638,0.02439 -0.28223,-0.00499 -0.40754,-0.08816c-0.01716,-0.01147 -0.03381,-0.02368 -0.0499,-0.03659c-0.00372,-0.00377 -0.00761,-0.00738 -0.01164,-0.01081c-0.01331,-0.01137 -0.02481,-0.01705 -0.03452,-0.01705c-0.00615,-0.00002 -0.01203,0.00255 -0.01622,0.00707zM228.64349,167.88013h0.24952c0.13723,0 0.25353,0.02079 0.34891,0.06238c0.0385,0.01647 0.07493,0.03741 0.10854,0.06238c0.01378,0.01387 0.02683,0.02844 0.03909,0.04367c0.01275,0.0158 0.02551,0.03299 0.03826,0.05157c0.00195,0.0029 0.0039,0.00582 0.00583,0.00873c0.02246,0.03354 0.04477,0.0535 0.06695,0.05989c0.00526,0.0016 0.01072,0.00245 0.01622,0.00249c0.02784,-0.00024 0.05564,0.0017 0.08317,0.00583c0.02855,0.00472 0.05364,0.01192 0.07527,0.02163c0.04309,0.01762 0.07635,0.05316 0.09107,0.09732l0.79013,0.66538c0.8744,0.75907 1.60519,1.66919 2.15749,2.68689c0.36753,0.67016 0.67535,1.37138 0.91988,2.09553c0.63766,1.85752 0.95648,3.79821 0.95648,5.82207l-0.33269,0.79013l-11.14511,0.20793l-1.20599,0.04159l0.04159,1.08124l0.16634,0.99806l0.37427,0.99806l1.08124,0.95648c0.12431,0.10016 0.25784,0.18831 0.39881,0.26324c0.14195,0.0768 0.30011,0.14832 0.4745,0.21458c0.14357,0.0544 0.28923,0.1031 0.43665,0.14597c0.56835,0.16634 1.15748,0.24952 1.76741,0.24952h0.20793c0.18451,-0.00108 0.36873,-0.01456 0.55144,-0.04034c0.35292,-0.04796 0.75132,-0.13848 1.19518,-0.27156c0.51715,-0.15474 1.03692,-0.30058 1.55907,-0.43749c0.21467,-0.05647 0.42967,-0.11165 0.645,-0.16551l2.32883,-0.5822l0.49903,0.62379l0.74855,5.28145l-0.45745,0.74855c-0.52797,0.25347 -1.0621,0.49391 -1.60189,0.7211c-0.65595,0.27474 -1.27253,0.50569 -1.84975,0.69283c-1.02579,0.33269 -1.98228,0.55449 -2.86945,0.66538c-0.53369,0.05711 -1.01817,0.11103 -1.45343,0.16177c-0.18789,0.0218 -0.37572,0.04411 -0.56349,0.06695c-0.56835,0.0693 -1.10203,0.10396 -1.60107,0.10396c-0.83172,0 -1.58028,-0.08317 -2.24566,-0.24952c-0.66212,-0.16437 -1.33397,-0.28673 -2.01152,-0.36637c-0.02259,-0.00268 -0.04519,-0.00531 -0.06779,-0.0079c-1.02579,-0.11089 -1.99614,-0.45745 -2.91104,-1.03965c-0.85007,-0.64892 -1.63754,-1.37596 -2.35212,-2.17163c-0.75865,-0.84335 -1.40116,-1.78432 -1.91046,-2.79792c-0.90103,-1.81593 -1.37928,-3.98535 -1.43473,-6.50823c-0.0025,-0.12904 -0.00375,-0.2581 -0.00374,-0.38717c0,-1.33686 0.13682,-2.59276 0.41045,-3.76771c0.26588,-1.16208 0.68868,-2.28258 1.25673,-3.33064l0.20793,-0.70696c0.02199,-0.01095 0.04363,-0.02261 0.06487,-0.03494c0.0621,-0.03603 0.1012,-0.06889 0.11727,-0.09856c0.002,-0.00387 0.00368,-0.00791 0.00499,-0.01206c0.00283,-0.0083 0.0063,-0.01637 0.0104,-0.02412c0.00416,-0.00832 0.00873,-0.01524 0.01373,-0.02079c0.00959,-0.01113 0.02357,-0.01751 0.03826,-0.01747l0.08317,-0.16634l0.24952,-0.16634c0.85751,-1.62403 2.28679,-2.87238 4.01141,-3.50364c0.22628,-0.08809 0.45571,-0.16786 0.68784,-0.23912c0.44627,-0.09244 0.89657,-0.16418 1.34947,-0.215c0.87802,-0.10257 1.91712,-0.16579 3.1173,-0.18963c0.38241,-0.00757 0.76488,-0.01131 1.14736,-0.01123c0.11089,0 0.23565,0.00692 0.37427,0.02079c0.05592,0.0057 0.11179,0.01193 0.16759,0.01871c0.0499,0.00583 0.10244,0.01233 0.15761,0.01954c0.05799,0.00774 0.11593,0.01578 0.17383,0.02412c0.0165,0.00005 0.033,0.00047 0.04949,0.00125c0.05711,0.00249 0.13765,0.00901 0.24162,0.01954c0.13863,0.01387 0.2911,0.02079 0.45745,0.02079c0.53896,0 1.4935,0.20184 2.86363,0.6055c0.11297,0.03336 0.22581,0.06718 0.33851,0.10147zM284.32743,191.75062h-8.94103c-0.94262,0 -1.82286,-0.02079 -2.64073,-0.06238c-0.29024,-0.01472 -0.58038,-0.03135 -0.8704,-0.0499c-0.22789,-0.01442 -0.44428,-0.02967 -0.64916,-0.04574c-0.19365,-0.01498 -0.38718,-0.03161 -0.58055,-0.0499c-0.13556,-0.02411 -0.27085,-0.04962 -0.40589,-0.07652c-0.41697,-0.08345 -0.72013,-0.16149 -0.90949,-0.23413c-0.04824,-0.01767 -0.09509,-0.03894 -0.14014,-0.06363c-0.19768,-0.09121 -0.34115,-0.1992 -0.43042,-0.32395c-0.07234,-0.09908 -0.11096,-0.21875 -0.11021,-0.34142v-1.35155v-1.37234v-0.68617c0,-0.47131 0.04851,-0.81786 0.14555,-1.03965c0.06903,-0.15775 0.1906,-0.31536 0.36471,-0.47283c0.07594,-0.06838 0.15548,-0.13266 0.23829,-0.19255c0.13037,-0.10097 0.26659,-0.19415 0.40796,-0.27904c0.30247,-0.18409 0.68215,-0.37718 1.13905,-0.5793c0.10766,-0.04763 0.21579,-0.09422 0.32437,-0.13972c0.85945,-0.36041 1.73276,-0.97035 2.61994,-1.82979c0.01583,-0.02283 0.03291,-0.04476 0.05115,-0.0657c0.0829,-0.09787 0.23912,-0.25617 0.46867,-0.47491c0.20017,-0.19046 0.38398,-0.36138 0.55144,-0.51276c0.07211,-0.06532 0.14475,-0.13006 0.21791,-0.1942c0.38814,-0.33269 0.64458,-0.60993 0.76934,-0.83172c0.03314,-0.05844 0.0674,-0.11625 0.10271,-0.17341c0.14722,-0.23953 0.38328,-0.5976 0.70821,-1.07417c0.05611,-0.09009 0.10466,-0.18467 0.14513,-0.28278c0.10286,-0.2534 0.12378,-0.49182 0.0628,-0.71528c-0.08317,-0.30497 -0.12476,-0.62379 -0.12476,-0.95648c0.00153,-0.1958 -0.01561,-0.39131 -0.05115,-0.58387c-0.04186,-0.21681 -0.10937,-0.40727 -0.20252,-0.5714c-0.10524,-0.18754 -0.25347,-0.34745 -0.43249,-0.4666c-0.45745,-0.30497 -1.25452,-0.45745 -2.39121,-0.45745c-0.21431,0 -0.45426,0.01026 -0.71985,0.03078c-0.04424,0.00339 -0.08847,0.007 -0.13266,0.01081c-0.24396,0.02135 -0.56515,0.05878 -0.96355,0.11228c-0.1294,0.01751 -0.25874,0.03553 -0.388,0.05406c-0.23229,0.05228 -0.45931,0.12564 -0.67827,0.21916c-0.02352,0.00991 -0.04694,0.02004 -0.07028,0.03036c-0.07211,0.03216 -0.14393,0.06501 -0.21541,0.09856c-0.24452,0.1145 -0.57472,0.27572 -0.99058,0.48365c-0.02581,0.01734 -0.05277,0.0329 -0.08068,0.04658c-0.13086,0.06377 -0.24259,0.05517 -0.33519,-0.02579c-0.0865,-0.07569 -0.13918,-0.18936 -0.15803,-0.34101c-0.00562,-0.04553 -0.0084,-0.09137 -0.00832,-0.13723c-0.05545,-0.41586 -0.09704,-0.82479 -0.12476,-1.22679c-0.02772,-0.402 -0.0693,-0.83865 -0.12476,-1.30996l-0.12476,-2.16248l-0.04159,-0.87331l-0.04159,-0.74855v-0.24952c0,-0.07375 0.09841,-0.13667 0.29526,-0.1888c0.02621,-0.0069 0.05255,-0.01327 0.07901,-0.01913l1.45552,-0.66538c3.07738,-0.97035 6.19634,-1.45552 9.35689,-1.45552c1.06751,-0.00338 2.13295,0.09395 3.18218,0.29068c0.25756,0.04898 0.51381,0.10459 0.76851,0.16676c0.55592,0.13391 1.10233,0.30465 1.63558,0.51109c0.54516,0.21026 1.0696,0.47074 1.56655,0.77807c1.03339,0.61569 1.88315,1.49675 2.46108,2.55173c0.45523,0.85058 0.72194,1.82037 0.80012,2.90937c0.01632,0.23086 0.02437,0.46223 0.02412,0.69365c-0.00559,1.10276 -0.27056,2.18872 -0.7735,3.17012c-0.19389,0.38621 -0.41485,0.75822 -0.66122,1.11326c-0.39127,0.55911 -0.82848,1.08464 -1.30705,1.57113c-0.85445,0.87941 -1.92281,1.76963 -3.20505,2.67067h3.45166c0.88717,0 1.53176,0.0901 1.93376,0.27031c0.10735,0.04661 0.20771,0.10791 0.29817,0.18214c0.20018,0.164 0.31281,0.4117 0.30483,0.67037c0,0.44358 -0.00692,0.88717 -0.02079,1.33075c-0.01249,0.39901 -0.02982,0.79785 -0.05199,1.19644c-0.00337,0.05865 -0.00684,0.11728 -0.0104,0.17591v2.16248c0,0.70447 -0.10715,1.23206 -0.32146,1.58277c-0.04472,0.07392 -0.09728,0.1428 -0.15678,0.20544c-0.29554,0.3083 -0.79943,0.47381 -1.51166,0.49654c-0.05751,0.00175 -0.11504,0.00258 -0.17259,0.00249c-0.02793,0.0265 -0.06069,0.04739 -0.09648,0.06155c-0.09897,0.04214 -0.24702,0.06321 -0.44414,0.06321c-0.1267,0.02107 -0.30594,0.0341 -0.53771,0.03909c-0.07721,0.00167 -0.15442,0.00249 -0.23163,0.00249zM244.73736,192.37442h-1.53869c-0.32744,0.00012 -0.65488,-0.00252 -0.98226,-0.0079c-0.92543,-0.01553 -1.67925,-0.05448 -2.26146,-0.11686c-0.32283,-0.03391 -0.64414,-0.08095 -0.96314,-0.14098c-0.32797,-0.06265 -0.63419,-0.13765 -0.91863,-0.22498c-0.05217,-0.01603 -0.10417,-0.03267 -0.15595,-0.0499c-0.043,0.00045 -0.08582,-0.00515 -0.12725,-0.01663c-0.09551,-0.02657 -0.17214,-0.09792 -0.20544,-0.1913c-0.11089,-0.24952 -0.16634,-0.52676 -0.16634,-0.83172l-0.45745,-7.02807c-0.05545,-0.77628 -0.09704,-1.49711 -0.12476,-2.16248c-0.02772,-0.66538 -0.04851,-1.39314 -0.06238,-2.18327c-0.00541,-0.31673 -0.00957,-0.63348 -0.01248,-0.95024c-0.00277,-0.28112 -0.00485,-0.57639 -0.00624,-0.88578c-0.0014,-0.32368 -0.00209,-0.64736 -0.00208,-0.97104v-1.20599l0.04159,-1.74662l0.08317,-2.07931l0.08317,-1.53869v-0.8941c-0.00012,-0.04373 0.00183,-0.08745 0.00583,-0.131c0.00416,-0.04242 0.01026,-0.08178 0.0183,-0.11811c0.00479,-0.02121 0.01062,-0.04216 0.01747,-0.0628c-0.00036,-0.01979 0.00376,-0.03941 0.01206,-0.05739c0.01774,-0.03687 0.05573,-0.05864 0.11395,-0.06529c0.0134,-0.00144 0.02687,-0.00214 0.04034,-0.00208c0.20765,-0.00083 0.41355,-0.038 0.60841,-0.10979c0.04738,-0.01718 0.09411,-0.03603 0.14014,-0.05655h0.16634c0.01793,-0.00014 0.03584,-0.00125 0.05364,-0.00332c0.03494,-0.00388 0.0768,-0.01108 0.12559,-0.02163c0.02352,-0.0052 0.04694,-0.01075 0.07028,-0.01663h0.22872c0.02833,-0.00007 0.05665,0.00132 0.08484,0.00416c0.02855,0.00277 0.05462,0.00721 0.07818,0.01331c0.02269,0.0057 0.04472,0.01379 0.0657,0.02412h5.86365h0.83172c0.13863,0 0.26338,0.01387 0.37427,0.04159l1.28917,0.04159c0.32049,0.02662 0.55725,0.05337 0.71029,0.08026c0.00583,0.00095 0.01165,0.00192 0.01747,0.00291c0.15248,0.02772 0.27031,0.12476 0.35348,0.2911l0.33269,1.16441v2.74469c0.63766,-1.06267 1.77186,-2.17634 3.40259,-3.34104c0.07154,-0.05112 0.14335,-0.10185 0.21541,-0.1522c0.27534,-0.20318 0.56686,-0.38342 0.87165,-0.53896c0.35404,-0.17854 0.70447,-0.30525 1.0513,-0.3801c0.06563,-0.01427 0.13165,-0.02675 0.19795,-0.03743c0.6931,-0.11089 1.27532,-0.2218 1.74662,-0.33269c0.05652,-0.01421 0.11388,-0.02477 0.17175,-0.0316c0.04325,-0.00527 0.08552,-0.0079 0.12684,-0.0079c0.19401,-0.00332 0.38292,0.06225 0.53313,0.18506c0.21708,0.17633 0.32797,0.43888 0.33269,0.78764c0.00005,0.00776 0.00005,0.01553 0,0.02328c0.00042,0.79529 -0.00472,1.59058 -0.01538,2.3858c-0.02939,2.11424 -0.10175,3.68953 -0.21708,4.72585c-0.00544,0.0484 -0.01113,0.09679 -0.01705,0.14513c-0.02508,0.21237 -0.05697,0.42387 -0.09565,0.63419c-0.17715,0.94484 -0.45024,1.40575 -0.81924,1.38274c-0.30994,-0.01794 -0.61875,-0.05153 -0.92529,-0.10064c-0.22648,-0.036 -0.45183,-0.07871 -0.67578,-0.12808c-0.56835,-0.12476 -1.22679,-0.18714 -1.97534,-0.18714c-0.45114,-0.00338 -0.90091,0.05014 -1.33866,0.15928c-0.54902,0.13711 -1.06333,0.38739 -1.50999,0.73483c-0.27457,0.20992 -0.51357,0.46266 -0.7078,0.74855c-0.29061,0.43701 -0.44251,0.95155 -0.43582,1.47631v10.39655c0.0001,0.0268 -0.00115,0.05359 -0.00374,0.08026c-0.00527,0.05323 -0.01649,0.09454 -0.03369,0.12392c-0.01041,0.01931 -0.02634,0.03509 -0.04574,0.04533c-0.00815,0.0088 -0.01451,0.01912 -0.01871,0.03036c-0.01524,0.03659 -0.02287,0.09579 -0.02287,0.17757c-0.02468,0.09925 -0.08261,0.15401 -0.17383,0.16427c-0.01132,0.00135 -0.02271,0.00205 -0.0341,0.00208c0.00154,-0.00001 0.00307,0.00013 0.00458,0.00042c0.0158,0.00305 -0.01719,0.02551 -0.09897,0.06737c-0.01009,0.00518 -0.02021,0.01031 -0.03036,0.01538l-0.20793,0.08317c-0.71751,-0.00068 -1.43487,0.01901 -2.15125,0.05905c-0.30901,0.01748 -0.61774,0.03938 -0.92613,0.0657zM302.00157,192.66552l-0.95648,-0.12476l-2.24566,-0.45745c-0.04794,-0.02404 -0.09604,-0.04774 -0.1443,-0.07111c-0.14499,-0.06986 -0.24937,-0.11547 -0.31315,-0.13682c-0.27723,-0.08317 -0.49903,-0.16634 -0.66538,-0.24952c-0.09897,-0.02468 -0.15373,-0.08261 -0.16427,-0.17383c-0.00135,-0.01132 -0.00205,-0.02271 -0.00208,-0.0341c-0.08982,-0.03609 -0.17911,-0.07352 -0.26782,-0.11228c-0.05648,-0.0245 -0.11276,-0.04945 -0.16884,-0.07485c-0.15248,-0.0693 -0.31189,-0.14555 -0.47824,-0.22872c-0.30497,-0.11089 -0.60993,-0.24952 -0.91489,-0.41586l-0.5822,-0.41586c-0.10107,-0.07603 -0.20512,-0.14804 -0.31189,-0.21583c-0.00692,-0.00432 -0.01385,-0.00862 -0.02079,-0.01289c-0.03238,-0.02016 -0.06428,-0.04111 -0.09565,-0.0628c-0.06432,-0.04464 -0.11561,-0.08608 -0.15387,-0.12434c-0.38368,-0.34204 -0.71966,-0.73411 -0.9989,-1.16566c-0.26283,-0.39978 -0.4982,-0.84988 -0.70613,-1.3503c-0.32215,-0.77544 -0.5858,-1.71557 -0.79097,-2.82038c-0.08069,-0.43724 -0.14975,-0.87654 -0.2071,-1.31745c-0.02782,-0.28382 -0.04973,-0.5682 -0.0657,-0.85293c-0.03937,-0.67896 -0.05905,-1.4759 -0.05905,-2.3908c0,-1.02579 0.02772,-1.89911 0.08317,-2.61994c0.05545,-0.72083 0.16634,-1.44858 0.33269,-2.18327c0.0673,-0.29521 0.13954,-0.58926 0.21666,-0.88204c0.1364,-0.52093 0.29984,-1.0933 0.4903,-1.71709c0.11089,-0.08317 0.42973,-0.62379 0.95648,-1.62186c0.10257,-0.10257 0.18145,-0.24064 0.23662,-0.4142c0.0045,-0.01436 0.0088,-0.02877 0.01289,-0.04325l0.08317,-0.16634c0.02772,-0.05545 0.0693,-0.12476 0.12476,-0.20793l0.16634,-0.24952c0.02495,-0.09925 0.08303,-0.15401 0.17424,-0.16427c0.01118,-0.00133 0.02242,-0.00203 0.03369,-0.00208c0.20626,0 0.49612,-0.17951 0.86956,-0.53854c0.02925,-0.02813 0.05823,-0.05655 0.08691,-0.08526c0.11089,-0.08317 0.21485,-0.16634 0.31189,-0.24952c0.09704,-0.08317 0.18714,-0.16634 0.27031,-0.24952c0.06261,-0.06286 0.12782,-0.12307 0.19545,-0.18049c0.06793,-0.05766 0.13418,-0.10771 0.19878,-0.15013c0.04706,-0.0313 0.09594,-0.05977 0.14638,-0.08526c0.45042,-0.26079 0.92715,-0.47323 1.42225,-0.63377c0.45273,-0.14943 0.94068,-0.26948 1.46384,-0.36014c0.00832,-0.0014 0.01663,-0.00278 0.02495,-0.00416c0.17355,-0.02468 0.39715,-0.05504 0.67078,-0.09107c0.03285,-0.00431 0.0657,-0.00861 0.09856,-0.01289c0.09341,-0.01225 0.18699,-0.0232 0.28071,-0.03285c0.17965,-0.0183 0.33352,-0.02813 0.4616,-0.02953c0.00901,-0.00004 0.01803,-0.00004 0.02703,0c0.12742,0.00013 0.25483,-0.00181 0.38217,-0.00583c0.12309,-0.00416 0.23787,-0.01026 0.34433,-0.0183c0.06289,-0.00475 0.1257,-0.01057 0.18839,-0.01747c0.24952,-0.02772 0.47131,-0.05545 0.66538,-0.08317c0.89161,0.02135 1.68964,0.05878 2.39412,0.11228c0.20715,0.01576 0.41412,0.03377 0.62088,0.05406c0.84559,0.08317 1.67038,0.18021 2.47438,0.2911c0.37411,0.05211 0.74721,0.11131 1.11908,0.17757c0.3801,0.0671 0.78002,0.14416 1.19976,0.23122c0.14208,0.02947 0.28403,0.05956 0.42584,0.09024c0.02446,0.00042 0.0488,0.00306 0.07278,0.0079c0.07957,0.01469 0.18741,0.05088 0.32354,0.10854c0.00652,0.00275 0.01304,0.00553 0.01954,0.00832c0.33443,0.10315 0.66523,0.21772 0.99183,0.3435c0.32298,0.12503 0.62282,0.2559 0.89951,0.39258c0.06304,0.03114 0.1257,0.06302 0.18797,0.09565c0.22346,0.11172 0.37192,0.22346 0.44539,0.33519c0.03372,0.04809 0.05239,0.10513 0.05364,0.16385v0.37427c0.63543,0 1.23303,0.44248 1.79278,1.32743c0.0267,0.04238 0.0529,0.08509 0.0786,0.12808c0.27723,0.36041 0.50597,0.76242 0.68617,1.20599c0.11977,0.2947 0.19975,0.55878 0.23995,0.79222c0.01947,0.10914 0.02962,0.21975 0.03036,0.33061c0.04312,0.00003 0.08623,0.00059 0.12933,0.00167c0.16524,0.00388 0.26643,0.01636 0.30358,0.03743c0.00128,0.00079 0.00253,0.00162 0.00374,0.00249c0.01141,0.00866 0.02019,0.02032 0.02537,0.03369c0.02384,0.0535 0.03618,0.16121 0.03701,0.32312c0.00002,0.00583 0.00002,0.01164 0,0.01747c0.02262,0.14794 0.04939,0.29521 0.08026,0.44165c0.03799,0.18021 0.08054,0.34489 0.12767,0.49404c0.08317,0.26338 0.15248,0.50597 0.20793,0.72775c0.04216,0.08354 0.07721,0.17049 0.1048,0.25992c0.00727,0.02408 0.01392,0.04836 0.01996,0.07278c0.02772,0.11089 0.05545,0.23565 0.08317,0.37427c0.01991,0.09909 0.04222,0.19768 0.06695,0.29568c0.01187,0.04712 0.02422,0.09411 0.03701,0.14098c0.04159,0.15248 0.07625,0.32576 0.10396,0.51982l0.04159,0.33269l0.08317,1.53869v1.03965c0.00143,0.70183 -0.01771,1.40356 -0.05739,2.10426c-0.08566,1.45607 -0.26754,2.65375 -0.54561,3.59305c-0.25641,0.89474 -0.68126,1.7323 -1.25174,2.46772c-0.25531,0.32499 -0.53924,0.62645 -0.84835,0.90076c-0.40129,0.34634 -0.82898,0.66086 -1.27919,0.94068c-0.03095,0.01928 -0.06202,0.03841 -0.09316,0.05739l-1.45552,0.95648c-0.41586,0.13863 -0.77628,0.26338 -1.08124,0.37427c-0.30497,0.11089 -0.55449,0.2218 -0.74855,0.33269l-1.78821,0.62379c-0.49903,0 -1.005,0.02079 -1.5179,0.06238c-0.5129,0.04159 -1.07431,0.0901 -1.68424,0.14555c-0.52676,0.05545 -1.06738,0.10396 -1.62186,0.14555c-0.55449,0.04159 -1.10897,0.06238 -1.66345,0.06238c-0.01929,-0.00009 -0.03857,-0.00078 -0.0578,-0.00208c-0.04714,-0.00305 -0.10411,-0.00929 -0.17092,-0.01871c-0.03931,-0.00574 -0.07854,-0.01198 -0.11769,-0.01871c-0.03521,-0.00583 -0.07251,-0.01233 -0.11187,-0.01954c-0.04136,-0.00777 -0.08268,-0.0158 -0.12392,-0.02412zM329.78115,192.66552l-0.95648,-0.12476l-2.24566,-0.45745c-0.04794,-0.02404 -0.09604,-0.04774 -0.1443,-0.07111c-0.14499,-0.06986 -0.24937,-0.11547 -0.31315,-0.13682c-0.27723,-0.08317 -0.49903,-0.16634 -0.66538,-0.24952c-0.09897,-0.02468 -0.15373,-0.08261 -0.16427,-0.17383c-0.00135,-0.01132 -0.00205,-0.02271 -0.00208,-0.0341c-0.08982,-0.03609 -0.17911,-0.07352 -0.26782,-0.11228c-0.05648,-0.0245 -0.11276,-0.04945 -0.16884,-0.07485c-0.15248,-0.0693 -0.31189,-0.14555 -0.47824,-0.22872c-0.30497,-0.11089 -0.60993,-0.24952 -0.91489,-0.41586l-0.5822,-0.41586c-0.10107,-0.07603 -0.20512,-0.14804 -0.31189,-0.21583c-0.00692,-0.00432 -0.01385,-0.00862 -0.02079,-0.01289c-0.03238,-0.02016 -0.06428,-0.04111 -0.09565,-0.0628c-0.06432,-0.04464 -0.11561,-0.08608 -0.15387,-0.12434c-0.38368,-0.34204 -0.71966,-0.73411 -0.9989,-1.16566c-0.26283,-0.39978 -0.4982,-0.84988 -0.70613,-1.3503c-0.32215,-0.77544 -0.5858,-1.71557 -0.79097,-2.82038c-0.08069,-0.43724 -0.14975,-0.87654 -0.2071,-1.31745c-0.02782,-0.28382 -0.04973,-0.5682 -0.0657,-0.85293c-0.03937,-0.67896 -0.05905,-1.4759 -0.05905,-2.3908c0,-1.02579 0.02772,-1.89911 0.08317,-2.61994c0.05545,-0.72083 0.16634,-1.44858 0.33269,-2.18327c0.0673,-0.29521 0.13954,-0.58926 0.21666,-0.88204c0.1364,-0.52093 0.29984,-1.0933 0.4903,-1.71709c0.11089,-0.08317 0.42973,-0.62379 0.95648,-1.62186c0.10257,-0.10257 0.18145,-0.24064 0.23662,-0.4142c0.0045,-0.01436 0.0088,-0.02877 0.01289,-0.04325l0.08317,-0.16634c0.02772,-0.05545 0.0693,-0.12476 0.12476,-0.20793l0.16634,-0.24952c0.02495,-0.09925 0.08303,-0.15401 0.17424,-0.16427c0.01118,-0.00133 0.02242,-0.00203 0.03369,-0.00208c0.20626,0 0.49612,-0.17951 0.86956,-0.53854c0.02925,-0.02813 0.05823,-0.05655 0.08691,-0.08526c0.11089,-0.08317 0.21485,-0.16634 0.31189,-0.24952c0.09704,-0.08317 0.18714,-0.16634 0.27031,-0.24952c0.06261,-0.06286 0.12782,-0.12307 0.19545,-0.18049c0.06793,-0.05766 0.13418,-0.10771 0.19878,-0.15013c0.04706,-0.0313 0.09594,-0.05977 0.14638,-0.08526c0.45042,-0.26079 0.92715,-0.47323 1.42225,-0.63377c0.45273,-0.14943 0.94068,-0.26948 1.46384,-0.36014c0.00832,-0.0014 0.01663,-0.00278 0.02495,-0.00416c0.17355,-0.02468 0.39715,-0.05504 0.67078,-0.09107c0.03285,-0.00431 0.0657,-0.00861 0.09856,-0.01289c0.09341,-0.01225 0.18699,-0.0232 0.28071,-0.03285c0.17965,-0.0183 0.33352,-0.02813 0.4616,-0.02953c0.00901,-0.00004 0.01803,-0.00004 0.02703,0c0.12742,0.00013 0.25483,-0.00181 0.38217,-0.00583c0.12309,-0.00416 0.23787,-0.01026 0.34433,-0.0183c0.06289,-0.00475 0.1257,-0.01057 0.18839,-0.01747c0.24952,-0.02772 0.47131,-0.05545 0.66538,-0.08317c0.89161,0.02135 1.68964,0.05878 2.39412,0.11228c0.20715,0.01576 0.41412,0.03377 0.62088,0.05406c0.84559,0.08317 1.67038,0.18021 2.47438,0.2911c0.37411,0.05211 0.74721,0.11131 1.11908,0.17757c0.3801,0.0671 0.78002,0.14416 1.19976,0.23122c0.14208,0.02947 0.28403,0.05956 0.42584,0.09024c0.02446,0.00042 0.0488,0.00306 0.07278,0.0079c0.07957,0.01469 0.18741,0.05088 0.32354,0.10854c0.00652,0.00275 0.01304,0.00553 0.01954,0.00832c0.33443,0.10315 0.66523,0.21772 0.99183,0.3435c0.32298,0.12503 0.62282,0.2559 0.89951,0.39258c0.06304,0.03114 0.1257,0.06302 0.18797,0.09565c0.22346,0.11172 0.37192,0.22346 0.44539,0.33519c0.03372,0.04809 0.05239,0.10513 0.05364,0.16385v0.37427c0.63543,0 1.23303,0.44248 1.79278,1.32743c0.0267,0.04238 0.0529,0.08509 0.0786,0.12808c0.27723,0.36041 0.50597,0.76242 0.68617,1.20599c0.11977,0.2947 0.19975,0.55878 0.23995,0.79222c0.01947,0.10914 0.02962,0.21975 0.03036,0.33061c0.04312,0.00003 0.08623,0.00059 0.12933,0.00167c0.16524,0.00388 0.26643,0.01636 0.30358,0.03743c0.00128,0.00079 0.00253,0.00162 0.00374,0.00249c0.01141,0.00866 0.02019,0.02032 0.02537,0.03369c0.02384,0.0535 0.03618,0.16121 0.03701,0.32312c0.00002,0.00583 0.00002,0.01164 0,0.01747c0.02262,0.14794 0.04939,0.29521 0.08026,0.44165c0.03799,0.18021 0.08054,0.34489 0.12767,0.49404c0.08317,0.26338 0.15248,0.50597 0.20793,0.72775c0.04216,0.08354 0.07721,0.17049 0.1048,0.25992c0.00727,0.02408 0.01392,0.04836 0.01996,0.07278c0.02772,0.11089 0.05545,0.23565 0.08317,0.37427c0.01991,0.09909 0.04222,0.19768 0.06695,0.29568c0.01187,0.04712 0.02422,0.09411 0.03701,0.14098c0.04159,0.15248 0.07625,0.32576 0.10396,0.51982l0.04159,0.33269l0.08317,1.53869v1.03965c0.00143,0.70183 -0.01771,1.40356 -0.05739,2.10426c-0.08566,1.45607 -0.26754,2.65375 -0.54561,3.59305c-0.25641,0.89474 -0.68126,1.7323 -1.25174,2.46772c-0.25531,0.32499 -0.53924,0.62645 -0.84835,0.90076c-0.40129,0.34634 -0.82898,0.66086 -1.27919,0.94068c-0.03095,0.01928 -0.06202,0.03841 -0.09316,0.05739l-1.45552,0.95648c-0.41586,0.13863 -0.77628,0.26338 -1.08124,0.37427c-0.30497,0.11089 -0.55449,0.2218 -0.74855,0.33269l-1.78821,0.62379c-0.49903,0 -1.005,0.02079 -1.5179,0.06238c-0.5129,0.04159 -1.07431,0.0901 -1.68424,0.14555c-0.52676,0.05545 -1.06738,0.10396 -1.62186,0.14555c-0.55449,0.04159 -1.10897,0.06238 -1.66345,0.06238c-0.01929,-0.00009 -0.03857,-0.00078 -0.0578,-0.00208c-0.04714,-0.00305 -0.10411,-0.00929 -0.17092,-0.01871c-0.03931,-0.00574 -0.07854,-0.01198 -0.11769,-0.01871c-0.03521,-0.00583 -0.07251,-0.01233 -0.11187,-0.01954c-0.04136,-0.00777 -0.08268,-0.0158 -0.12392,-0.02412zM172.87639,193.08138h-0.87331c-0.98826,-0.00154 -1.97571,-0.05652 -2.95803,-0.16468c-0.06754,-0.00726 -0.13504,-0.01475 -0.20252,-0.02246c-0.6509,-0.07446 -1.29973,-0.16598 -1.94582,-0.27447c-0.36451,-0.06145 -0.72789,-0.12939 -1.08997,-0.20377c-0.32208,-0.07978 -0.64077,-0.17274 -0.95524,-0.27863c-0.38203,-0.12948 -0.72901,-0.27225 -1.0409,-0.42834c-0.46149,-0.23304 -0.88482,-0.53494 -1.25549,-0.89535c-0.09027,-0.08691 -0.17779,-0.17664 -0.26241,-0.26906c-0.45745,-0.49903 -0.94955,-1.15056 -1.47631,-1.95455h-0.45745l-0.04159,-0.66538c-0.00781,-0.00001 -0.01561,-0.00071 -0.02328,-0.00208c-0.00859,-0.00139 -0.01622,-0.00374 -0.02287,-0.00707c-0.006,-0.00298 -0.01148,-0.00691 -0.01622,-0.01164c-0.00433,-0.00412 -0.00941,-0.00738 -0.01497,-0.00957c-0.01663,-0.00665 -0.04242,-0.0104 -0.07735,-0.01123c-0.00388,-0.00004 -0.00776,-0.00004 -0.01164,0l-0.33269,-0.74855c-1.08364,-2.05121 -1.64551,-4.3377 -1.636,-6.65754c0.00003,-0.22062 0.00474,-0.44122 0.01414,-0.66163c0.04667,-0.98907 0.16564,-1.97342 0.35598,-2.94514c0.20987,-1.04603 0.50444,-2.00182 0.88371,-2.86737c0.13452,-0.30775 0.28286,-0.60928 0.44455,-0.90367c0.54809,-0.97945 1.23142,-1.87682 2.02982,-2.66568c0.76297,-0.76574 1.6597,-1.49211 2.69021,-2.17912c0.26124,-0.15556 0.53257,-0.29352 0.81218,-0.41295c0.31994,-0.1353 0.63142,-0.2333 0.93444,-0.29401c0.55449,-0.11089 1.0951,-0.2218 1.62186,-0.33269c0.72083,0 1.51096,0.01387 2.37042,0.04159c0.85945,0.02772 1.71889,0.04159 2.57835,0.04159h0.16634c0.00931,-0.00011 0.0186,0.00032 0.02786,0.00125c0.01858,0.00222 0.03244,0.00665 0.04159,0.01331c0.00888,0.00609 0.01404,0.01627 0.01373,0.02703c0.0442,-0.00854 0.08874,-0.01521 0.13349,-0.01996c0.12781,-0.01442 0.29124,-0.02163 0.4903,-0.02163c0.27723,0 0.55449,0.01387 0.83172,0.04159c1.10873,0.07651 2.19635,0.34117 3.21628,0.78265c0.81134,0.3584 1.56372,0.83764 2.23152,1.42142c0.83745,0.74718 1.5648,1.60923 2.1604,2.56046c0.116,0.18348 0.22762,0.36971 0.33477,0.5585c0.66105,1.17122 1.16882,2.42254 1.51082,3.72321c0.02386,0.0895 0.04702,0.17919 0.06945,0.26906c0.31071,1.23578 0.46812,2.50512 0.46867,3.77936c-0.00005,0.19579 -0.0038,0.39155 -0.01123,0.5872c-0.02772,1.08124 -0.18714,2.09317 -0.47824,3.0358c-0.2911,0.94262 -0.58914,1.89911 -0.8941,2.86945c-0.25783,0.83938 -0.65819,1.62814 -1.18354,2.33174c-0.06148,0.0833 -0.12443,0.16552 -0.1888,0.24661c-0.51641,0.6575 -1.119,1.24247 -1.79153,1.73913c-0.12138,0.08889 -0.24507,0.17459 -0.37095,0.257l-0.91489,0.5822c-0.00214,0.00231 -0.00435,0.00452 -0.00665,0.00665c-0.02274,0.0194 -0.03438,0.01095 -0.03494,-0.02537c-0.00001,-0.00069 -0.00001,-0.00139 0,-0.00208c0.0002,-0.00297 -0.00022,-0.00595 -0.00125,-0.00873c-0.01081,-0.02384 -0.07971,0.02758 -0.20668,0.15428c-0.05277,0.05327 -0.12464,0.08323 -0.19961,0.08317c-0.00277,0.00004 -0.00555,0.00004 -0.00832,0c-0.10286,0.07707 -0.32493,0.11838 -0.66621,0.12392c-0.02744,0.00051 -0.0549,0.00078 -0.08234,0.00083h-0.24952c-0.6141,0.18726 -1.22416,0.38748 -1.82979,0.60051c-0.0416,0.01464 -0.08319,0.02933 -0.12476,0.04408c-0.66538,0.23565 -1.23373,0.24259 -1.70504,0.02079c-0.04918,-0.02499 -0.10073,-0.04504 -0.15387,-0.05989c-0.11145,-0.03022 -0.21957,-0.03105 -0.32437,-0.00249c-0.14,0.03826 -0.23912,0.05891 -0.29734,0.06196c-0.00485,0.00027 -0.0097,0.00041 -0.01456,0.00042zM172.75163,188.04944l0.70696,-1.53869c0.02772,-0.08317 0.05545,-0.17327 0.08317,-0.27031c0.02218,-0.07826 0.03557,-0.15874 0.03992,-0.23995c0.00123,-0.02396 0.00179,-0.04795 0.00167,-0.07195l0.2911,-0.49903v-0.91489c0.12256,-0.21827 0.21489,-0.45218 0.27447,-0.69532c0.00591,-0.0246 0.01146,-0.04927 0.01663,-0.07402c0.01626,-0.0779 0.03179,-0.15594 0.04658,-0.23413c0.04658,-0.24425 0.10563,-0.57915 0.17715,-1.00472c0.00864,-0.05143 0.01723,-0.10285 0.02579,-0.15428v-0.70696l0.04159,-0.74855l-0.74855,-5.65572c-0.02962,-0.2472 -0.07252,-0.49265 -0.1285,-0.73524c-0.11533,-0.48656 -0.2753,-0.85002 -0.47991,-1.09039c-0.13954,-0.17465 -0.3366,-0.29404 -0.55601,-0.33685c-0.06161,-0.01106 -0.12302,-0.02312 -0.18423,-0.03618c-0.16662,-0.03603 -0.28638,-0.07209 -0.35931,-0.10812c-0.01335,-0.00651 -0.02627,-0.01388 -0.03868,-0.02204c-0.02793,-0.01817 -0.0576,-0.03349 -0.08858,-0.04574c-0.06238,-0.02551 -0.14098,-0.04685 -0.23579,-0.06405c-0.0304,-0.00559 -0.0609,-0.01059 -0.09149,-0.01497c-0.07652,-0.02551 -0.20003,-0.0628 -0.37053,-0.11187c-0.0151,-0.00431 -0.03022,-0.00861 -0.04533,-0.01289c-0.17938,-0.0513 -0.35889,-0.00763 -0.53854,0.131c-0.01485,0.01141 -0.02942,0.0232 -0.04367,0.03535c-0.30497,0.49903 -0.56141,1.15056 -0.76934,1.95455c-0.11323,0.43305 -0.19742,0.87318 -0.25201,1.31745c-0.03928,0.32177 -0.05928,0.64562 -0.05989,0.96979v1.24758v1.45552c0,0.72083 0.02772,1.47631 0.08317,2.26645c0.01899,0.27708 0.04548,0.55359 0.07943,0.82923c0.03216,0.25756 0.07014,0.49696 0.11395,0.7182c0.02815,0.14361 0.06074,0.28633 0.09773,0.42792c0.0281,0.08957 0.05582,0.17926 0.08317,0.26906c0.06848,0.2254 0.117,0.39632 0.14555,0.51276c0.0076,0.03034 0.01453,0.06084 0.02079,0.09149c0.02551,0.12643 0.03937,0.24134 0.04159,0.34475c0.00011,0.00984 0.00011,0.01968 0,0.02953c0,1.05352 0.36041,1.85752 1.08124,2.41201c0,0.30497 0.23565,0.45745 0.70696,0.45745c0.12899,-0.00022 0.25784,-0.008 0.38592,-0.02328c0.04474,-0.0053 0.08939,-0.0114 0.13391,-0.0183c0.03119,-0.00479 0.06237,-0.00951 0.09357,-0.01414c0.12309,-0.0183 0.19587,-0.02744 0.21833,-0.02744zM307.15826,183.72448l0.04159,-1.16441c0.06893,-0.68003 0.10959,-1.36264 0.12185,-2.04604c0.00198,-0.12198 0.00295,-0.24396 0.00291,-0.36596c0.00646,-0.02824 0.01119,-0.05685 0.01414,-0.08566c0.01524,-0.13003 0.02412,-0.35916 0.02662,-0.68742c0.00059,-0.075 0.00086,-0.14998 0.00083,-0.22498c0,-0.88717 -0.2218,-2.12089 -0.66538,-3.70117l-0.33269,-1.08124c-0.04879,-0.46327 -0.15914,-0.82465 -0.33103,-1.08415c-0.20767,-0.32482 -0.57303,-0.514 -0.95814,-0.49612c-0.6177,0 -1.08817,0.26199 -1.41143,0.78597c-0.10385,0.17174 -0.18837,0.35445 -0.25201,0.54478c-0.07449,0.18466 -0.13727,0.37384 -0.18797,0.5664c-0.05212,0.20072 -0.08594,0.39409 -0.10147,0.58013c-0.00058,0.00597 -0.00114,0.01192 -0.00167,0.01788c0,0.16634 -0.04159,0.54062 -0.12476,1.12282l-0.2911,2.03772c-0.07133,0.18783 -0.12671,0.38134 -0.16551,0.57846c-0.08373,0.40894 -0.12559,0.89535 -0.12559,1.45926c0,0.70946 0.04186,1.32951 0.12559,1.86014c0.03903,0.25651 0.09432,0.51027 0.16551,0.75978c0.01463,0.18708 0.04736,0.37232 0.09773,0.55309c0.04741,0.17466 0.11103,0.35625 0.19088,0.54478c0.02733,0.06431 0.05589,0.12808 0.08566,0.1913c0.0297,0.07912 0.05896,0.15842 0.08775,0.23787c0.04547,0.12559 0.08552,0.24036 0.12018,0.34433c0.05267,0.15803 0.09288,0.2911 0.1206,0.39923c0.00141,0.00554 0.00278,0.01108 0.00416,0.01663c0.01307,0.10748 0.05281,0.20998 0.11561,0.29817c0.11977,0.17771 0.33076,0.35557 0.63294,0.53355c0.07526,0.06482 0.15222,0.12764 0.23081,0.18839c0.22651,0.1741 0.40408,0.27503 0.53272,0.30274c0.02239,0.00504 0.04526,0.00769 0.06821,0.0079c0.25579,0.00317 0.5105,-0.03387 0.75479,-0.10979c0.49682,-0.16079 0.869,-0.49847 1.11659,-1.01304c0.02845,-0.06734 0.05316,-0.13621 0.07402,-0.20626c0.0513,-0.16911 0.09592,-0.3776 0.13391,-0.62546c0.04068,-0.26047 0.06678,-0.52301 0.07818,-0.78639c0.0034,-0.08438 0.00505,-0.16882 0.00499,-0.25326zM334.93785,183.72448l0.04159,-1.16441c0.06893,-0.68003 0.10959,-1.36264 0.12185,-2.04604c0.00198,-0.12198 0.00295,-0.24396 0.00291,-0.36596c0.00646,-0.02824 0.01119,-0.05685 0.01414,-0.08566c0.01524,-0.13003 0.02412,-0.35916 0.02662,-0.68742c0.00059,-0.075 0.00086,-0.14998 0.00083,-0.22498c0,-0.88717 -0.2218,-2.12089 -0.66538,-3.70117l-0.33269,-1.08124c-0.04879,-0.46327 -0.15914,-0.82465 -0.33103,-1.08415c-0.20767,-0.32482 -0.57303,-0.514 -0.95814,-0.49612c-0.6177,0 -1.08817,0.26199 -1.41143,0.78597c-0.10385,0.17174 -0.18837,0.35445 -0.25201,0.54478c-0.07449,0.18466 -0.13727,0.37384 -0.18797,0.5664c-0.05212,0.20072 -0.08594,0.39409 -0.10147,0.58013c-0.00058,0.00597 -0.00114,0.01192 -0.00167,0.01788c0,0.16634 -0.04159,0.54062 -0.12476,1.12282l-0.2911,2.03772c-0.07133,0.18783 -0.12671,0.38134 -0.16551,0.57846c-0.08373,0.40894 -0.12559,0.89535 -0.12559,1.45926c0,0.70946 0.04186,1.32951 0.12559,1.86014c0.03903,0.25651 0.09432,0.51027 0.16551,0.75978c0.01463,0.18708 0.04736,0.37232 0.09773,0.55309c0.04741,0.17466 0.11103,0.35625 0.19088,0.54478c0.02733,0.06431 0.05589,0.12808 0.08566,0.1913c0.0297,0.07912 0.05896,0.15842 0.08775,0.23787c0.04547,0.12559 0.08552,0.24036 0.12018,0.34433c0.05267,0.15803 0.09288,0.2911 0.1206,0.39923c0.00141,0.00554 0.00278,0.01108 0.00416,0.01663c0.01307,0.10748 0.05281,0.20998 0.11561,0.29817c0.11977,0.17771 0.33076,0.35557 0.63294,0.53355c0.07526,0.06482 0.15222,0.12764 0.23081,0.18839c0.22651,0.1741 0.40408,0.27503 0.53272,0.30274c0.02239,0.00504 0.04526,0.00769 0.06821,0.0079c0.25579,0.00317 0.5105,-0.03387 0.75479,-0.10979c0.49682,-0.16079 0.869,-0.49847 1.11659,-1.01304c0.02845,-0.06734 0.05316,-0.13621 0.07402,-0.20626c0.0513,-0.16911 0.09592,-0.3776 0.13391,-0.62546c0.04068,-0.26047 0.06678,-0.52301 0.07818,-0.78639c0.0034,-0.08438 0.00505,-0.16882 0.00499,-0.25326zM222.57191,175.90627l2.74469,-0.04159l-0.12476,-1.24758l-0.12476,-0.79013l-0.16634,-0.87331c0.0001,-0.02904 -0.00156,-0.05807 -0.00499,-0.08691c-0.00804,-0.06626 -0.02606,-0.11907 -0.05406,-0.15844c-0.00109,-0.0014 -0.00221,-0.00278 -0.00332,-0.00416c-0.04075,-0.05434 -0.07471,-0.13516 -0.10189,-0.24245c-0.0007,-0.00235 -0.0014,-0.00472 -0.00208,-0.00707l-0.41586,-0.2911c-0.15825,-0.05366 -0.32404,-0.08174 -0.49113,-0.08317c-0.00263,-0.00001 -0.00527,-0.00001 -0.0079,0c-0.06349,0 -0.1353,0.00402 -0.21541,0.01206c-0.02526,0.00262 -0.0505,0.00553 -0.07569,0.00873c-0.07112,0.00903 -0.13559,0.04636 -0.17882,0.10355c-0.02107,0.02634 -0.04006,0.05753 -0.05697,0.09357c-0.00486,0.01041 -0.00944,0.02095 -0.01373,0.0316c-0.04431,0.13551 -0.14609,0.2446 -0.27821,0.29817c-0.03119,0.0137 -0.06328,0.02524 -0.09606,0.03452c-0.06055,0.02042 -0.11271,0.06016 -0.14846,0.11312c-0.09676,0.12864 -0.1741,0.35972 -0.23205,0.69325c-0.01342,0.07751 -0.0252,0.15529 -0.03535,0.2333c-0.06848,0.5714 -0.13224,1.0391 -0.1913,1.40311c-0.01191,0.07301 -0.02438,0.14592 -0.03743,0.21874c-0.0693,0.38814 0.03466,0.5822 0.31189,0.5822z" fill="#000000" fill-rule="evenodd" stroke="#000000" stroke-width="0.25" stroke-linecap="round"/><g fill-rule="nonzero" stroke-linecap="butt"><path d="M87.5,184.29184c0,-7.96487 6.4568,-14.42168 14.42168,-14.42168c7.96487,0 14.42168,6.4568 14.42168,14.42168c0,7.96487 -6.4568,14.42168 -14.42168,14.42168c-7.96487,0 -14.42168,-6.4568 -14.42168,-14.42168z" fill="#fff157" stroke="#000000" stroke-width="2"/><g stroke="none"><path d="M100.33628,183.21996c0,2.26176 -1.85049,4.09527 -4.1332,4.09527c-2.2827,0 -4.1332,-1.83352 -4.1332,-4.09527c0,-2.26176 1.85049,-4.09527 4.1332,-4.09527c2.2827,0 4.1332,1.83352 4.1332,4.09527z" fill="#000000" stroke-width="0"/><path d="M111.77345,183.46192c0,2.34553 -1.9184,4.24695 -4.28487,4.24695c-2.36647,0 -4.28487,-1.90143 -4.28487,-4.24695c0,-2.34553 1.9184,-4.24695 4.28487,-4.24695c2.36647,0 4.28487,1.90143 4.28487,4.24695z" fill="#000000" stroke-width="0"/><path d="M99.79854,181.4157c0,1.31966 -0.88715,2.38945 -1.9815,2.38945c-1.09435,0 -1.9815,-1.0698 -1.9815,-2.38945c0,-1.31966 0.88715,-2.38945 1.9815,-2.38945c1.09435,0 1.9815,1.06979 1.9815,2.38945z" fill="none" stroke-width="0"/><path d="M94.61168,181.03688c0,-0.30578 0.75668,-0.55365 1.6901,-0.55365c0.93341,0 1.6901,0.24788 1.6901,0.55365c0,0.30578 -0.75669,0.55365 -1.6901,0.55365c-0.93341,0 -1.6901,-0.24788 -1.6901,-0.55365z" fill="none" stroke-width="0"/><path d="M97.07584,181.83636c0,1.11044 -0.97847,2.01064 -2.18548,2.01064c-1.20701,0 -2.18548,-0.90019 -2.18548,-2.01064c0,-1.11044 0.97847,-2.01064 2.18548,-2.01064c1.20701,0 2.18548,0.90019 2.18548,2.01064z" fill="#ffffff" stroke-width="0"/><path d="M107.96133,182.00889c0,1.14839 -0.95238,2.07935 -2.12719,2.07935c-1.17482,0 -2.12719,-0.93096 -2.12719,-2.07935c0,-1.14839 0.95238,-2.07935 2.12719,-2.07935c1.17482,0 2.12719,0.93096 2.12719,2.07935z" fill="#ffffff" stroke-width="0"/><path d="M98.37672,186.573c0,0.15954 -1.04849,0.66778 -2.38081,0.66778c-1.33232,0 -2.22293,-0.53981 -2.22293,-0.69935c0,-0.15954 0.89061,0.12161 2.22293,0.12161c1.33232,0 2.38081,-0.24957 2.38081,-0.09003z" fill="#ffffff" stroke-width="0"/><path d="M110.02362,186.83951c0,0.18435 -1.27297,0.77585 -2.5706,0.77585c-1.29763,0 -2.50745,-0.78095 -2.50745,-0.96531c0,-0.18435 1.20981,0.29771 2.50745,0.29771c1.29763,0 2.5706,-0.29261 2.5706,-0.10825z" fill="#ffffff" stroke-width="0"/><path d="M98.97869,183.62628c0,0.35607 -0.27796,0.64472 -0.62084,0.64472c-0.34288,0 -0.62084,-0.28865 -0.62084,-0.64472c0,-0.35607 0.27796,-0.64472 0.62084,-0.64472c0.34288,0 0.62084,0.28865 0.62084,0.64472z" fill="#ffffff" stroke-width="0"/><path d="M110.51997,184.05186c0,0.37015 -0.30007,0.67022 -0.67022,0.67022c-0.37015,0 -0.67021,-0.30007 -0.67021,-0.67022c0,-0.37015 0.30006,-0.67021 0.67021,-0.67021c0.37015,0 0.67022,0.30006 0.67022,0.67021z" fill="#ffffff" stroke-width="0"/><path d="M95.03741,176.60438c0.078,-0.42836 0.38678,-0.35853 0.38678,-0.35853l0.2882,0.06518c0.97778,0.22125 2.26172,0.07081 3.21538,-0.55748c0,0 0.29661,-0.19216 0.41262,0.19701c0.11601,0.38916 -0.1806,0.58132 -0.1806,0.58132c-1.08715,0.69469 -2.48836,0.88793 -3.6034,0.63588l-0.2882,-0.06518c0,0 -0.30879,-0.06983 -0.23079,-0.4982z" fill="#000000" stroke-width="0.5"/><path d="M109.22361,177.79356l-0.30094,0.03911c-1.16433,0.15117 -2.59888,-0.16755 -3.68135,-0.95823c0,0 -0.29518,-0.21834 -0.15369,-0.59609c0.14149,-0.37776 0.43667,-0.15942 0.43667,-0.15942c0.9485,0.71244 2.26449,0.97793 3.28551,0.84515l0.30094,-0.0391c0,0 0.32244,-0.04189 0.37887,0.3924c0.05643,0.43429 -0.266,0.47619 -0.266,0.47619z" fill="#000000" stroke-width="0.5"/><path d="M103.63687,192.76363c-0.33316,0.28294 -0.6161,-0.05023 -0.6161,-0.05023l-0.36527,-0.43356c-0.75985,-0.61149 -1.75674,-0.5317 -2.29223,0.34629c0,0 -0.23523,0.3684 -0.60363,0.13318c-0.3684,-0.23523 -0.13318,-0.60363 -0.13318,-0.60363c0.58857,-0.89339 1.90262,-1.56565 2.97371,-1.01493c0.24734,0.12718 0.44079,0.33927 0.66119,0.50891l0.42573,0.49786c0,0 0.28294,0.33316 -0.05023,0.6161z" fill="#000000" stroke-width="0.5"/></g><path d="M111.77346,164.29095c0,1.65935 -4.41079,3.00452 -9.85178,3.00452c-5.44099,0 -9.85178,-1.34517 -9.85178,-3.00452c0,-1.65935 4.41079,-3.00452 9.85178,-3.00452c5.44099,0 9.85178,1.34517 9.85178,3.00452z" fill="none" stroke="#00ffff" stroke-width="4"/></g></g></g></svg>