<svg version="1.1" xmlns="http://www.w3.org/2000/svg" xmlns:xlink="http://www.w3.org/1999/xlink" width="204.16246" height="56.27719" viewBox="0,0,204.16246,56.27719"><g transform="translate(-138.07169,-138.54281)"><g data-paper-data="{&quot;isPaintingLayer&quot;:true}" fill="#000000" fill-rule="evenodd" stroke="#000000" stroke-width="1.5" stroke-linecap="round" stroke-linejoin="miter" stroke-miterlimit="10" stroke-dasharray="" stroke-dashoffset="0" style="mix-blend-mode: normal"><path d="M151.5425,172.395c-0.30605,-0.15729 -0.63104,-0.27458 -0.967,-0.349c-0.36225,-0.07928 -0.73218,-0.11818 -1.103,-0.116c-1.08,0 -2.05,0.325 -2.91,0.975c-0.46324,0.35208 -0.86848,0.77453 -1.201,1.252c-0.31628,0.45534 -0.57775,0.9464 -0.779,1.463c-0.0577,0.14977 -0.11205,0.3008 -0.163,0.453c-0.27133,0.81267 -0.40333,1.55467 -0.396,2.226c0.00178,0.23835 0.02319,0.47616 0.064,0.711c0.03379,0.19219 0.08022,0.38193 0.139,0.568c0.19586,0.65627 0.5933,1.23424 1.136,1.652c0.39259,0.29888 0.8416,0.51522 1.32,0.636c0.39229,0.09863 0.79552,0.14702 1.2,0.144c0.03334,-0.00011 0.06667,-0.00044 0.1,-0.001c1.51,-0.02 2.64667,-0.49967 3.41,-1.439c0.15144,0.49761 0.51163,0.90487 0.987,1.116c0.24333,0.11667 0.52733,0.20167 0.852,0.255c0.30461,0.04802 0.61263,0.0711 0.921,0.069c0.01033,0.00002 0.02067,0.00002 0.031,0c0.64133,-0.002 1.23233,-0.06867 1.773,-0.2c0.99173,-0.22218 1.89109,-0.74413 2.576,-1.495c0.60536,-0.67005 1.04333,-1.47402 1.278,-2.346c0.17303,-0.64866 0.25779,-1.31769 0.252,-1.989c0,-1.38 -0.27,-2.675 -0.81,-3.885c-0.54,-1.21 -1.285,-2.28 -2.235,-3.21c-0.95,-0.93 -2.04,-1.655 -3.27,-2.175c-1.23,-0.52 -2.535,-0.78 -3.915,-0.78c-1.64,0 -3.155,0.285 -4.545,0.855c-1.39,0.57 -2.605,1.365 -3.645,2.385c-1.04,1.02 -1.845,2.22 -2.415,3.6c-0.16959,0.41113 -0.31386,0.83225 -0.432,1.261c-0.28654,1.05563 -0.42883,2.14519 -0.423,3.239c0,2.16 0.495,4.015 1.485,5.565c0.99,1.55 2.34,2.745 4.05,3.585c0.78582,0.38451 1.61187,0.68066 2.463,0.883c1.09527,0.25683 2.21704,0.38338 3.342,0.377c0.09367,-0.00001 0.18735,-0.00101 0.281,-0.003c1.3286,-0.02032 2.64393,-0.26789 3.889,-0.732c1.3,-0.49 2.44,-1.195 3.42,-2.115c0.03436,-0.03383 0.06643,-0.06991 0.096,-0.108c0.15067,-0.198 0.16167,-0.38533 0.033,-0.562c-0.02931,-0.03983 -0.06247,-0.07667 -0.099,-0.11c-0.00687,-0.00746 -0.01387,-0.01479 -0.021,-0.022c-0.19933,-0.20067 -0.419,-0.21133 -0.659,-0.032c-0.04599,0.03486 -0.08943,0.07296 -0.13,0.114c-0.88,0.8 -1.9,1.425 -3.06,1.875c-0.29072,0.11262 -0.58674,0.21107 -0.887,0.295c-0.93245,0.25708 -1.89577,0.38494 -2.863,0.38c-0.66937,0.00184 -1.33803,-0.04361 -2.001,-0.136c-1.17012,-0.15801 -2.30746,-0.50201 -3.369,-1.019c-1.56,-0.77 -2.775,-1.86 -3.645,-3.27c-0.45256,-0.73625 -0.78948,-1.53757 -0.999,-2.376c-0.20907,-0.84695 -0.31187,-1.71664 -0.306,-2.589c-0.00016,-0.37962 0.01752,-0.75904 0.053,-1.137c0.09235,-1.05563 0.35298,-2.0897 0.772,-3.063c0.55,-1.26 1.305,-2.345 2.265,-3.255c0.96,-0.91 2.07,-1.61 3.33,-2.1c1.26,-0.49 2.6,-0.735 4.02,-0.735c1.2,0 2.35,0.23 3.45,0.69c1.1,0.46 2.08,1.1 2.94,1.92c0.86,0.82 1.54,1.775 2.04,2.865c0.5,1.09 0.75,2.265 0.75,3.525c0.00003,0.07568 -0.00097,0.15135 -0.003,0.227c-0.014,0.52467 -0.07833,1.009 -0.193,1.453c-0.17969,0.74325 -0.55182,1.42612 -1.079,1.98c-0.09751,0.10137 -0.20032,0.1975 -0.308,0.288c-0.504,0.42133 -1.109,0.71367 -1.815,0.877c-0.47988,0.10694 -0.97037,0.15895 -1.462,0.155c-0.56267,0 -0.98667,-0.06167 -1.272,-0.185c-0.10767,-0.04357 -0.20558,-0.10816 -0.288,-0.19c-0.03057,-0.03173 -0.05772,-0.06659 -0.081,-0.104c-0.13533,-0.21933 -0.16033,-0.547 -0.075,-0.983c0.01868,-0.09342 0.04069,-0.18615 0.066,-0.278l1.68,-6.33c0.06,-0.2 0.06,-0.36 0,-0.48c-0.04006,-0.08402 -0.11628,-0.14515 -0.207,-0.166c-0.04026,-0.00977 -0.08158,-0.01448 -0.123,-0.014c-0.26,0 -0.447,0.08867 -0.561,0.266c-0.04662,0.07512 -0.0801,0.15763 -0.099,0.244l-0.27,0.96c-0.32,-0.56 -0.78,-0.995 -1.38,-1.305zM341.4675,187.027c0.0246,-0.06964 0.03646,-0.14315 0.035,-0.217c0.00023,-0.03951 -0.00278,-0.07898 -0.009,-0.118c-0.03267,-0.19867 -0.15467,-0.322 -0.366,-0.37c-0.07396,-0.01557 -0.14942,-0.02295 -0.225,-0.022h-8.91c0.03477,-0.28966 0.09194,-0.57618 0.171,-0.857c0.15935,-0.55878 0.39454,-1.09309 0.699,-1.588c0.16808,-0.27609 0.3462,-0.54593 0.534,-0.809c0.37996,-0.53063 0.79277,-1.03696 1.236,-1.516c0.7,-0.76 1.42,-1.52 2.16,-2.28c0.78,-0.8 1.535,-1.6 2.265,-2.4c0.22395,-0.24507 0.44006,-0.4972 0.648,-0.756c0.43303,-0.53656 0.82323,-1.10631 1.167,-1.704c0.04467,-0.07808 0.08768,-0.1571 0.129,-0.237c0.3871,-0.73258 0.59963,-1.54471 0.621,-2.373c0.00337,-0.1013 0.00504,-0.20265 0.005,-0.304c0,-0.58733 -0.05967,-1.12933 -0.179,-1.626c-0.18731,-0.83937 -0.60495,-1.60989 -1.206,-2.225c-0.6512,-0.65048 -1.47438,-1.10179 -2.373,-1.301c-0.5499,-0.12661 -1.11273,-0.18837 -1.677,-0.184c-0.0877,0.00017 -0.17538,0.00217 -0.263,0.006c-1.23054,0.02328 -2.40455,0.5209 -3.277,1.389c-0.5303,0.52397 -0.94043,1.1569 -1.202,1.855c-0.21343,0.57529 -0.34407,1.17797 -0.388,1.79c-0.02,0.42 0.15,0.63 0.51,0.63c0.02002,0.00018 0.04004,-0.00048 0.06,-0.002c0.21667,-0.01867 0.36133,-0.14033 0.434,-0.365c0.02351,-0.07583 0.03893,-0.15393 0.046,-0.233c0.00478,-0.06441 0.01044,-0.12875 0.017,-0.193c0.04667,-0.44467 0.13333,-0.85133 0.26,-1.22c0.20055,-0.61224 0.56056,-1.16002 1.043,-1.587c0.78,-0.68 1.7,-1.02 2.76,-1.02c1.4,0 2.495,0.38 3.285,1.14c0.21942,0.21113 0.40795,0.45217 0.56,0.716c0.37867,0.65533 0.568,1.48433 0.568,2.487c-0.00005,0.07234 -0.00105,0.14468 -0.003,0.217c-0.00834,0.32982 -0.0543,0.65761 -0.137,0.977c-0.12151,0.4584 -0.30771,0.89714 -0.553,1.303c-0.19929,0.33406 -0.41488,0.65812 -0.646,0.971c-0.32186,0.4347 -0.66703,0.85164 -1.034,1.249c-0.17161,0.187 -0.34394,0.37334 -0.517,0.559c-0.54149,0.57953 -1.08919,1.15323 -1.643,1.721c-0.84,0.84 -1.655,1.7 -2.445,2.58c-0.21839,0.24333 -0.42948,0.4931 -0.633,0.749c-0.49411,0.61669 -0.9347,1.27441 -1.317,1.966c-0.51,0.93 -0.765,1.925 -0.765,2.985c-0.00023,0.03951 0.00278,0.07898 0.009,0.118c0.03333,0.19933 0.15567,0.32267 0.367,0.37c0.07364,0.0155 0.14875,0.02288 0.224,0.022h9.39c0.30333,0 0.49167,-0.09767 0.565,-0.293zM166.9825,190.757c-0.19667,0.50867 -0.41167,0.92333 -0.645,1.244c-0.12199,0.1716 -0.26474,0.32745 -0.425,0.464c-0.26867,0.224 -0.595,0.37633 -0.979,0.457c-0.23069,0.0468 -0.46561,0.06959 -0.701,0.068c-0.42,0 -0.83,-0.03 -1.23,-0.09c-0.00999,-0.00141 -0.01999,-0.00275 -0.03,-0.004c-0.32733,-0.03933 -0.527,0.026 -0.599,0.196c-0.02149,0.05336 -0.03203,0.11049 -0.031,0.168c0,0.36 0.17,0.57 0.51,0.63c0.46,0.12 0.92,0.18 1.38,0.18c0.9,0 1.66,-0.245 2.28,-0.735c0.19632,-0.15649 0.37504,-0.33386 0.533,-0.529c0.20133,-0.246 0.386,-0.532 0.554,-0.858c0.15993,-0.31271 0.29793,-0.63615 0.413,-0.968l6.54,-17.31c0.00067,-0.00133 0.00133,-0.00267 0.002,-0.004c0.13267,-0.38533 0.06767,-0.60833 -0.195,-0.669c-0.05485,-0.01191 -0.11087,-0.01761 -0.167,-0.017c-0.03911,-0.00003 -0.07818,0.00231 -0.117,0.007c-0.276,0.034 -0.467,0.19167 -0.573,0.473l-4.71,12.48l-4.86,-12.48c-0.01479,-0.03976 -0.03216,-0.07851 -0.052,-0.116c-0.08333,-0.156 -0.201,-0.262 -0.353,-0.318c-0.09156,-0.03196 -0.18803,-0.04754 -0.285,-0.046h-0.03c-0.32667,0 -0.439,0.19 -0.337,0.57c0.0109,0.04043 0.02324,0.08045 0.037,0.12l5.37,13.65l-1.26,3.33c-0.01311,0.03575 -0.02644,0.07142 -0.04,0.107zM289.6825,190.757c-0.19667,0.50867 -0.41167,0.92333 -0.645,1.244c-0.12199,0.1716 -0.26474,0.32745 -0.425,0.464c-0.26867,0.224 -0.595,0.37633 -0.979,0.457c-0.23069,0.0468 -0.46561,0.06959 -0.701,0.068c-0.42,0 -0.83,-0.03 -1.23,-0.09c-0.00999,-0.00141 -0.01999,-0.00275 -0.03,-0.004c-0.32733,-0.03933 -0.527,0.026 -0.599,0.196c-0.02149,0.05336 -0.03203,0.11049 -0.031,0.168c0,0.36 0.17,0.57 0.51,0.63c0.46,0.12 0.92,0.18 1.38,0.18c0.9,0 1.66,-0.245 2.28,-0.735c0.19632,-0.15649 0.37504,-0.33386 0.533,-0.529c0.20133,-0.246 0.386,-0.532 0.554,-0.858c0.15993,-0.31271 0.29793,-0.63615 0.413,-0.968l6.54,-17.31c0.00067,-0.00133 0.00133,-0.00267 0.002,-0.004c0.13267,-0.38533 0.06767,-0.60833 -0.195,-0.669c-0.05485,-0.01191 -0.11087,-0.01761 -0.167,-0.017c-0.03911,-0.00003 -0.07818,0.00231 -0.117,0.007c-0.276,0.034 -0.467,0.19167 -0.573,0.473l-4.71,12.48l-4.86,-12.48c-0.01479,-0.03976 -0.03216,-0.07851 -0.052,-0.116c-0.08333,-0.156 -0.201,-0.262 -0.353,-0.318c-0.09156,-0.03196 -0.18803,-0.04754 -0.285,-0.046h-0.03c-0.32667,0 -0.439,0.19 -0.337,0.57c0.0109,0.04043 0.02324,0.08045 0.037,0.12l5.37,13.65l-1.26,3.33c-0.01311,0.03575 -0.02644,0.07142 -0.04,0.107zM195.3575,187.005c-0.97,-0.43 -1.745,-1.045 -2.325,-1.845c-0.21733,-0.29 -0.19667,-0.53067 0.062,-0.722c0.0283,-0.02086 0.05767,-0.04022 0.088,-0.058c0.03797,-0.02666 0.07891,-0.04881 0.122,-0.066c0.21933,-0.086 0.43867,0.006 0.658,0.276c0.3826,0.50502 0.86577,0.9252 1.419,1.234c0.17225,0.09784 0.34949,0.18663 0.531,0.266c0.68359,0.2967 1.41334,0.47297 2.157,0.521c0.18072,0.01276 0.36183,0.01909 0.543,0.019c0.7,0 1.365,-0.115 1.995,-0.345c0.39627,-0.14107 0.76557,-0.34872 1.092,-0.614c0.16482,-0.13579 0.31649,-0.28679 0.453,-0.451c0.4,-0.48 0.6,-1.08 0.6,-1.8c0,-0.68 -0.175,-1.205 -0.525,-1.575c-0.18022,-0.18765 -0.38549,-0.34951 -0.61,-0.481c-0.19,-0.11333 -0.40167,-0.21467 -0.635,-0.304c-0.0793,-0.03026 -0.15933,-0.05861 -0.24,-0.085c-0.25623,-0.08359 -0.51466,-0.16028 -0.775,-0.23c-0.46067,-0.124 -0.97233,-0.24233 -1.535,-0.355c-0.78,-0.16 -1.56,-0.36 -2.34,-0.6c-0.39158,-0.11797 -0.76785,-0.28177 -1.121,-0.488c-0.29549,-0.17366 -0.56882,-0.38251 -0.814,-0.622c-0.30104,-0.3002 -0.51765,-0.67443 -0.628,-1.085c-0.074,-0.258 -0.118,-0.54167 -0.132,-0.851c-0.00337,-0.07462 -0.00504,-0.14931 -0.005,-0.224c-0.00257,-0.34107 0.03979,-0.68099 0.126,-1.011c0.10881,-0.41539 0.30634,-0.80227 0.579,-1.134c0.47,-0.57 1.085,-1.005 1.845,-1.305c0.76,-0.3 1.55,-0.45 2.37,-0.45c0.64273,-0.00633 1.28341,0.07338 1.905,0.237c1.16026,0.29982 2.16947,1.01642 2.835,2.013c0.02706,0.03897 0.05145,0.07973 0.073,0.122c0.12667,0.25067 0.07367,0.453 -0.159,0.607c-0.01117,0.00725 -0.02251,0.01426 -0.034,0.021c-0.0354,0.02314 -0.0729,0.04289 -0.112,0.059c-0.23467,0.09467 -0.44733,-0.005 -0.638,-0.299c-0.60041,-0.81257 -1.48278,-1.37145 -2.474,-1.567c-0.45871,-0.09852 -0.92684,-0.14647 -1.396,-0.143c-0.93867,0 -1.72667,0.177 -2.364,0.531c-0.14881,0.08216 -0.29122,0.17542 -0.426,0.279c-0.25688,0.1937 -0.4796,0.42894 -0.659,0.696c-0.26143,0.39899 -0.39759,0.86704 -0.391,1.344c-0.00141,0.18964 0.01635,0.37893 0.053,0.565c0.048,0.23333 0.128,0.439 0.24,0.617c0.05807,0.09287 0.12578,0.17934 0.202,0.258c0.33,0.34 0.805,0.61 1.425,0.81c0.24756,0.07953 0.49696,0.15322 0.748,0.221c0.27733,0.07533 0.573,0.149 0.887,0.221c0.19458,0.04457 0.38959,0.08724 0.585,0.128c0.62,0.14 1.235,0.29 1.845,0.45c0.44236,0.11451 0.87345,0.26881 1.288,0.461c0.13279,0.06207 0.26352,0.12844 0.392,0.199c0.51,0.28 0.915,0.655 1.215,1.125c0.14909,0.23809 0.25946,0.49832 0.327,0.771c0.082,0.318 0.123,0.676 0.123,1.074c0,1.2 -0.465,2.205 -1.395,3.015c-0.54557,0.46763 -1.19111,0.80392 -1.887,0.983c-0.46467,0.126 -0.97167,0.20067 -1.521,0.224c-0.12893,0.00544 -0.25796,0.00811 -0.387,0.008c-0.64426,0.00336 -1.28689,-0.06506 -1.916,-0.204c-0.45965,-0.10299 -0.90811,-0.25069 -1.339,-0.441zM257.7515,182.425c0.06933,1.582 0.54133,2.82867 1.416,3.74c0.53998,0.56988 1.21573,0.99343 1.964,1.231c0.56369,0.17426 1.15102,0.25995 1.741,0.254c0.07268,0.00022 0.14536,-0.00078 0.218,-0.003c0.91509,-0.02129 1.81003,-0.27306 2.602,-0.732c0.25406,-0.14736 0.49764,-0.31209 0.729,-0.493c0.47303,-0.36572 0.87644,-0.81351 1.191,-1.322v1.59c0,0.4 0.18,0.6 0.54,0.6c0.03951,0.00023 0.07898,-0.00278 0.118,-0.009c0.19933,-0.03267 0.32267,-0.15467 0.37,-0.366c0.01557,-0.07396 0.02295,-0.14942 0.022,-0.225v-13.11c0,-0.30333 -0.09767,-0.49167 -0.293,-0.565c-0.06964,-0.0246 -0.14315,-0.03646 -0.217,-0.035c-0.284,0 -0.456,0.12467 -0.516,0.374c-0.01682,0.07413 -0.02487,0.14999 -0.024,0.226v8.91c0.00046,0.24116 -0.02367,0.48173 -0.072,0.718c-0.09658,0.45433 -0.27553,0.88713 -0.528,1.277c-0.14956,0.23577 -0.32206,0.45618 -0.515,0.658c-0.33634,0.34792 -0.72422,0.64203 -1.15,0.872c-0.3678,0.20072 -0.7615,0.34979 -1.17,0.443c-0.42816,0.09693 -0.86601,0.14458 -1.305,0.142c-0.20449,0.00053 -0.40883,-0.01082 -0.612,-0.034c-0.89299,-0.08612 -1.72746,-0.48283 -2.358,-1.121c-0.24508,-0.24994 -0.45046,-0.53591 -0.609,-0.848c-0.19267,-0.37467 -0.333,-0.801 -0.421,-1.279c-0.07608,-0.43178 -0.1129,-0.86957 -0.11,-1.308v-8.43c0,-0.30333 -0.09767,-0.49167 -0.293,-0.565c-0.06964,-0.0246 -0.14315,-0.03646 -0.217,-0.035c-0.03951,-0.00023 -0.07898,0.00278 -0.118,0.009c-0.19867,0.03333 -0.322,0.15567 -0.37,0.367c-0.0155,0.07364 -0.02288,0.14875 -0.022,0.224v8.43c-0.00002,0.13838 0.00298,0.27675 0.009,0.415zM316.2815,182.425c0.06933,1.582 0.54133,2.82867 1.416,3.74c0.53998,0.56988 1.21573,0.99343 1.964,1.231c0.56369,0.17426 1.15102,0.25995 1.741,0.254c0.07268,0.00022 0.14536,-0.00078 0.218,-0.003c0.91509,-0.02129 1.81003,-0.27306 2.602,-0.732c0.25406,-0.14736 0.49764,-0.31209 0.729,-0.493c0.47303,-0.36572 0.87644,-0.81351 1.191,-1.322v1.59c0,0.4 0.18,0.6 0.54,0.6c0.03951,0.00023 0.07898,-0.00278 0.118,-0.009c0.19933,-0.03267 0.32267,-0.15467 0.37,-0.366c0.01557,-0.07396 0.02295,-0.14942 0.022,-0.225v-13.11c0,-0.30333 -0.09767,-0.49167 -0.293,-0.565c-0.06964,-0.0246 -0.14315,-0.03646 -0.217,-0.035c-0.284,0 -0.456,0.12467 -0.516,0.374c-0.01682,0.07413 -0.02487,0.14999 -0.024,0.226v8.91c0.00046,0.24116 -0.02367,0.48173 -0.072,0.718c-0.09658,0.45433 -0.27553,0.88713 -0.528,1.277c-0.14956,0.23577 -0.32206,0.45618 -0.515,0.658c-0.33634,0.34792 -0.72422,0.64203 -1.15,0.872c-0.3678,0.20072 -0.7615,0.34979 -1.17,0.443c-0.42816,0.09693 -0.86601,0.14458 -1.305,0.142c-0.20449,0.00053 -0.40883,-0.01082 -0.612,-0.034c-0.89299,-0.08612 -1.72746,-0.48283 -2.358,-1.121c-0.24508,-0.24994 -0.45046,-0.53591 -0.609,-0.848c-0.19267,-0.37467 -0.333,-0.801 -0.421,-1.279c-0.07608,-0.43178 -0.1129,-0.86957 -0.11,-1.308v-8.43c0,-0.30333 -0.09767,-0.49167 -0.293,-0.565c-0.06964,-0.0246 -0.14315,-0.03646 -0.217,-0.035c-0.03951,-0.00023 -0.07898,0.00278 -0.118,0.009c-0.19867,0.03333 -0.322,0.15567 -0.37,0.367c-0.0155,0.07364 -0.02288,0.14875 -0.022,0.224v8.43c-0.00002,0.13838 0.00298,0.27675 0.009,0.415zM283.0325,186.78c0.00029,-0.03985 -0.00272,-0.07965 -0.009,-0.119c-0.04333,-0.25867 -0.23733,-0.389 -0.582,-0.391c-0.003,-0.00001 -0.006,-0.00001 -0.009,0h-8.76l9.06,-11.91c0.16,-0.22 0.24,-0.47 0.24,-0.75v-0.12c0.00023,-0.03951 -0.00278,-0.07898 -0.009,-0.118c-0.03267,-0.19867 -0.15467,-0.322 -0.366,-0.37c-0.07396,-0.01557 -0.14942,-0.02295 -0.225,-0.022h-8.76c-0.30333,0 -0.49167,0.09767 -0.565,0.293c-0.0246,0.06964 -0.03646,0.14315 -0.035,0.217c0,0.284 0.12467,0.456 0.374,0.516c0.07413,0.01682 0.14999,0.02487 0.226,0.024h8.07l-9.06,11.91c-0.16,0.22 -0.24,0.47 -0.24,0.75v0.09c0,0.284 0.12467,0.456 0.374,0.516c0.07413,0.01682 0.14999,0.02487 0.226,0.024h9.45c0.4,0 0.6,-0.18 0.6,-0.54zM233.3525,186.84c0.23991,0.21913 0.51871,0.39143 0.822,0.508c0.26667,0.106 0.56667,0.184 0.9,0.234c0.32385,0.04698 0.65076,0.06971 0.978,0.068c0.54,0 1.015,-0.045 1.425,-0.135c0.0561,-0.01201 0.11151,-0.02703 0.166,-0.045c0.29933,-0.10067 0.449,-0.27067 0.449,-0.51c0.00028,-0.03271 -0.00105,-0.06542 -0.004,-0.098c-0.024,-0.236 -0.13767,-0.35833 -0.341,-0.367c-0.00567,-0.00035 -0.01133,-0.00068 -0.017,-0.001c-0.14533,-0.00533 -0.308,-0.001 -0.488,0.013c-0.10691,0.00852 -0.2136,0.01952 -0.32,0.033c-0.14,0.02 -0.285,0.04 -0.435,0.06c-0.02796,0.00366 -0.05596,0.00699 -0.084,0.01c-0.11655,0.01305 -0.23372,0.01973 -0.351,0.02c-0.22907,0.00105 -0.45794,-0.01366 -0.685,-0.044c-0.538,-0.07467 -0.95467,-0.245 -1.25,-0.511c-0.0692,-0.06291 -0.13155,-0.13296 -0.186,-0.209c-0.2,-0.27733 -0.33,-0.66233 -0.39,-1.155c-0.02688,-0.22934 -0.0399,-0.46009 -0.039,-0.691v-9.99h3.99c0.4,0 0.6,-0.18 0.6,-0.54c0.00023,-0.03951 -0.00278,-0.07898 -0.009,-0.118c-0.03267,-0.19867 -0.15467,-0.322 -0.366,-0.37c-0.07396,-0.01557 -0.14942,-0.02295 -0.225,-0.022h-3.99v-4.77c0,-0.30333 -0.09767,-0.49167 -0.293,-0.565c-0.06964,-0.0246 -0.14315,-0.03646 -0.217,-0.035c-0.03951,-0.00023 -0.07898,0.00278 -0.118,0.009c-0.19867,0.03333 -0.322,0.15567 -0.37,0.367c-0.0155,0.07364 -0.02288,0.14875 -0.022,0.224v4.77h-2.67c-0.30333,0 -0.49167,0.09767 -0.565,0.293c-0.0246,0.06964 -0.03646,0.14315 -0.035,0.217c0,0.284 0.12467,0.456 0.374,0.516c0.07413,0.01682 0.14999,0.02487 0.226,0.024h2.67v9.99c0,1.34 0.29,2.28 0.87,2.82zM179.9525,186.69c-0.98,-0.64 -1.75,-1.53 -2.31,-2.67c-0.39326,-0.81159 -0.64939,-1.68271 -0.758,-2.578c-0.05552,-0.43846 -0.08291,-0.88003 -0.082,-1.322c0,-1.46 0.28,-2.75 0.84,-3.87c0.37087,-0.75665 0.87684,-1.43918 1.493,-2.014c0.25479,-0.23512 0.528,-0.44947 0.817,-0.641c0.92063,-0.60723 1.99346,-0.94336 3.096,-0.97c0.08796,-0.00329 0.17598,-0.00496 0.264,-0.005c0.73169,-0.00625 1.45877,0.11629 2.148,0.362c0.42688,0.15554 0.83374,0.36132 1.212,0.613c0.92755,0.61887 1.685,1.46057 2.203,2.448c0.03668,0.06847 0.07235,0.13748 0.107,0.207c0.37622,0.76306 0.62646,1.58198 0.741,2.425c0.06726,0.47871 0.10034,0.96159 0.099,1.445c0.00409,0.72665 -0.07306,1.45149 -0.23,2.161c-0.13464,0.60152 -0.33937,1.18518 -0.61,1.739c-0.32052,0.66513 -0.7452,1.2748 -1.258,1.806c-0.31802,0.3256 -0.67079,0.61534 -1.052,0.864c-0.89851,0.58349 -1.93839,0.91249 -3.009,0.952c-0.11692,0.00551 -0.23395,0.00818 -0.351,0.008c-0.72194,0.00609 -1.43961,-0.11126 -2.122,-0.347c-0.43576,-0.15395 -0.85141,-0.35976 -1.238,-0.613zM216.7325,186.69c-0.98,-0.64 -1.75,-1.53 -2.31,-2.67c-0.39326,-0.81159 -0.64939,-1.68271 -0.758,-2.578c-0.05552,-0.43846 -0.08291,-0.88003 -0.082,-1.322c0,-1.46 0.28,-2.75 0.84,-3.87c0.37087,-0.75665 0.87684,-1.43918 1.493,-2.014c0.25479,-0.23512 0.528,-0.44947 0.817,-0.641c0.92063,-0.60723 1.99346,-0.94336 3.096,-0.97c0.08796,-0.00329 0.17598,-0.00496 0.264,-0.005c0.73169,-0.00625 1.45877,0.11629 2.148,0.362c0.42688,0.15554 0.83374,0.36132 1.212,0.613c0.92755,0.61887 1.685,1.46057 2.203,2.448c0.03668,0.06847 0.07235,0.13748 0.107,0.207c0.37622,0.76306 0.62646,1.58198 0.741,2.425c0.06726,0.47871 0.10034,0.96159 0.099,1.445c0.00409,0.72665 -0.07306,1.45149 -0.23,2.161c-0.13464,0.60152 -0.33937,1.18518 -0.61,1.739c-0.32052,0.66513 -0.7452,1.2748 -1.258,1.806c-0.31802,0.3256 -0.67079,0.61534 -1.052,0.864c-0.89851,0.58349 -1.93839,0.91249 -3.009,0.952c-0.11692,0.00551 -0.23395,0.00818 -0.351,0.008c-0.72194,0.00609 -1.43961,-0.11126 -2.122,-0.347c-0.43576,-0.15395 -0.85141,-0.35976 -1.238,-0.613zM244.1225,186.69c-0.98,-0.64 -1.75,-1.53 -2.31,-2.67c-0.39326,-0.81159 -0.64939,-1.68271 -0.758,-2.578c-0.05552,-0.43846 -0.08291,-0.88003 -0.082,-1.322c0,-1.46 0.28,-2.75 0.84,-3.87c0.37087,-0.75665 0.87684,-1.43918 1.493,-2.014c0.25479,-0.23512 0.528,-0.44947 0.817,-0.641c0.92063,-0.60723 1.99346,-0.94336 3.096,-0.97c0.08796,-0.00329 0.17598,-0.00496 0.264,-0.005c0.73169,-0.00625 1.45877,0.11629 2.148,0.362c0.42688,0.15554 0.83374,0.36132 1.212,0.613c0.92755,0.61887 1.685,1.46057 2.203,2.448c0.03668,0.06847 0.07235,0.13748 0.107,0.207c0.37622,0.76306 0.62646,1.58198 0.741,2.425c0.06726,0.47871 0.10034,0.96159 0.099,1.445c0.00409,0.72665 -0.07306,1.45149 -0.23,2.161c-0.13464,0.60152 -0.33937,1.18518 -0.61,1.739c-0.32052,0.66513 -0.7452,1.2748 -1.258,1.806c-0.31802,0.3256 -0.67079,0.61534 -1.052,0.864c-0.89851,0.58349 -1.93839,0.91249 -3.009,0.952c-0.11692,0.00551 -0.23395,0.00818 -0.351,0.008c-0.72194,0.00609 -1.43961,-0.11126 -2.122,-0.347c-0.43576,-0.15395 -0.85141,-0.35976 -1.238,-0.613zM302.6525,186.69c-0.98,-0.64 -1.75,-1.53 -2.31,-2.67c-0.39326,-0.81159 -0.64939,-1.68271 -0.758,-2.578c-0.05552,-0.43846 -0.08291,-0.88003 -0.082,-1.322c0,-1.46 0.28,-2.75 0.84,-3.87c0.37087,-0.75665 0.87684,-1.43918 1.493,-2.014c0.25479,-0.23512 0.528,-0.44947 0.817,-0.641c0.92063,-0.60723 1.99346,-0.94336 3.096,-0.97c0.08796,-0.00329 0.17598,-0.00496 0.264,-0.005c0.73169,-0.00625 1.45877,0.11629 2.148,0.362c0.42688,0.15554 0.83374,0.36132 1.212,0.613c0.92755,0.61887 1.685,1.46057 2.203,2.448c0.03668,0.06847 0.07235,0.13748 0.107,0.207c0.37622,0.76306 0.62646,1.58198 0.741,2.425c0.06726,0.47871 0.10034,0.96159 0.099,1.445c0.00409,0.72665 -0.07306,1.45149 -0.23,2.161c-0.13464,0.60152 -0.33937,1.18518 -0.61,1.739c-0.32052,0.66513 -0.7452,1.2748 -1.258,1.806c-0.31802,0.3256 -0.67079,0.61534 -1.052,0.864c-0.89851,0.58349 -1.93839,0.91249 -3.009,0.952c-0.11692,0.00551 -0.23395,0.00818 -0.351,0.008c-0.72194,0.00609 -1.43961,-0.11126 -2.122,-0.347c-0.43576,-0.15395 -0.85141,-0.35976 -1.238,-0.613zM183.0905,186.596c-0.92868,-0.02242 -1.83305,-0.30138 -2.613,-0.806c-0.35591,-0.23151 -0.68173,-0.50627 -0.97,-0.818c-0.39833,-0.43527 -0.72872,-0.92815 -0.98,-1.462c-0.24349,-0.51233 -0.42284,-1.05275 -0.534,-1.609c-0.11676,-0.5864 -0.17405,-1.18309 -0.171,-1.781c-0.00156,-0.46456 0.0322,-0.92856 0.101,-1.388c0.10049,-0.68889 0.3041,-1.35873 0.604,-1.987c0.0616,-0.12709 0.1273,-0.25216 0.197,-0.375c0.42228,-0.76294 1.02393,-1.41161 1.753,-1.89c0.83,-0.54 1.775,-0.81 2.835,-0.81c0.10238,0.00007 0.20475,0.00273 0.307,0.008c0.89489,0.03451 1.76356,0.31173 2.513,0.802c0.34577,0.22765 0.66303,0.49589 0.945,0.799c0.4016,0.4363 0.73532,0.93049 0.99,1.466c0.47,0.97 0.705,2.095 0.705,3.375c0,1.28 -0.235,2.41 -0.705,3.39c-0.08628,0.1802 -0.18072,0.35638 -0.283,0.528c-0.40978,0.7024 -0.97487,1.30169 -1.652,1.752c-0.33151,0.21873 -0.68891,0.39542 -1.064,0.526c-0.56518,0.19283 -1.15885,0.28884 -1.756,0.284c-0.07402,0.00001 -0.14803,-0.00132 -0.222,-0.004zM219.8705,186.596c-0.92868,-0.02242 -1.83305,-0.30138 -2.613,-0.806c-0.35591,-0.23151 -0.68173,-0.50627 -0.97,-0.818c-0.39833,-0.43527 -0.72872,-0.92815 -0.98,-1.462c-0.24349,-0.51233 -0.42284,-1.05275 -0.534,-1.609c-0.11676,-0.5864 -0.17405,-1.18309 -0.171,-1.781c-0.00156,-0.46456 0.0322,-0.92856 0.101,-1.388c0.10049,-0.68889 0.3041,-1.35873 0.604,-1.987c0.0616,-0.12709 0.1273,-0.25216 0.197,-0.375c0.42228,-0.76294 1.02393,-1.41161 1.753,-1.89c0.83,-0.54 1.775,-0.81 2.835,-0.81c0.10238,0.00007 0.20475,0.00273 0.307,0.008c0.89489,0.03451 1.76356,0.31173 2.513,0.802c0.34577,0.22765 0.66303,0.49589 0.945,0.799c0.4016,0.4363 0.73532,0.93049 0.99,1.466c0.47,0.97 0.705,2.095 0.705,3.375c0,1.28 -0.235,2.41 -0.705,3.39c-0.08628,0.1802 -0.18072,0.35638 -0.283,0.528c-0.40978,0.7024 -0.97487,1.30169 -1.652,1.752c-0.33151,0.21873 -0.68891,0.39542 -1.064,0.526c-0.56518,0.19283 -1.15885,0.28884 -1.756,0.284c-0.07402,0.00001 -0.14803,-0.00132 -0.222,-0.004zM247.2605,186.596c-0.92868,-0.02242 -1.83305,-0.30138 -2.613,-0.806c-0.35591,-0.23151 -0.68173,-0.50627 -0.97,-0.818c-0.39833,-0.43527 -0.72872,-0.92815 -0.98,-1.462c-0.24349,-0.51233 -0.42284,-1.05275 -0.534,-1.609c-0.11676,-0.5864 -0.17405,-1.18309 -0.171,-1.781c-0.00156,-0.46456 0.0322,-0.92856 0.101,-1.388c0.10049,-0.68889 0.3041,-1.35873 0.604,-1.987c0.0616,-0.12709 0.1273,-0.25216 0.197,-0.375c0.42228,-0.76294 1.02393,-1.41161 1.753,-1.89c0.83,-0.54 1.775,-0.81 2.835,-0.81c0.10238,0.00007 0.20475,0.00273 0.307,0.008c0.89489,0.03451 1.76356,0.31173 2.513,0.802c0.34577,0.22765 0.66303,0.49589 0.945,0.799c0.4016,0.4363 0.73532,0.93049 0.99,1.466c0.47,0.97 0.705,2.095 0.705,3.375c0,1.28 -0.235,2.41 -0.705,3.39c-0.08628,0.1802 -0.18072,0.35638 -0.283,0.528c-0.40978,0.7024 -0.97487,1.30169 -1.652,1.752c-0.33151,0.21873 -0.68891,0.39542 -1.064,0.526c-0.56518,0.19283 -1.15885,0.28884 -1.756,0.284c-0.07402,0.00001 -0.14803,-0.00132 -0.222,-0.004zM305.7905,186.596c-0.92868,-0.02242 -1.83305,-0.30138 -2.613,-0.806c-0.35591,-0.23151 -0.68173,-0.50627 -0.97,-0.818c-0.39833,-0.43527 -0.72872,-0.92815 -0.98,-1.462c-0.24349,-0.51233 -0.42284,-1.05275 -0.534,-1.609c-0.11676,-0.5864 -0.17405,-1.18309 -0.171,-1.781c-0.00156,-0.46456 0.0322,-0.92856 0.101,-1.388c0.10049,-0.68889 0.3041,-1.35873 0.604,-1.987c0.0616,-0.12709 0.1273,-0.25216 0.197,-0.375c0.42228,-0.76294 1.02393,-1.41161 1.753,-1.89c0.83,-0.54 1.775,-0.81 2.835,-0.81c0.10238,0.00007 0.20475,0.00273 0.307,0.008c0.89489,0.03451 1.76356,0.31173 2.513,0.802c0.34577,0.22765 0.66303,0.49589 0.945,0.799c0.4016,0.4363 0.73532,0.93049 0.99,1.466c0.47,0.97 0.705,2.095 0.705,3.375c0,1.28 -0.235,2.41 -0.705,3.39c-0.08628,0.1802 -0.18072,0.35638 -0.283,0.528c-0.40978,0.7024 -0.97487,1.30169 -1.652,1.752c-0.33151,0.21873 -0.68891,0.39542 -1.064,0.526c-0.56518,0.19283 -1.15885,0.28884 -1.756,0.284c-0.07402,0.00001 -0.14803,-0.00132 -0.222,-0.004zM208.3255,187.285c0.06964,0.0246 0.14315,0.03646 0.217,0.035c0.03951,0.00023 0.07898,-0.00278 0.118,-0.009c0.19933,-0.03267 0.32267,-0.15467 0.37,-0.366c0.01557,-0.07396 0.02295,-0.14942 0.022,-0.225v-13.14c0,-0.30333 -0.09767,-0.49167 -0.293,-0.565c-0.06964,-0.0246 -0.14315,-0.03646 -0.217,-0.035c-0.03985,-0.00029 -0.07965,0.00272 -0.119,0.009c-0.25867,0.04333 -0.389,0.23733 -0.391,0.582c-0.00001,0.003 -0.00001,0.006 0,0.009v13.14c0,0.30333 0.09767,0.49167 0.293,0.565zM151.5275,178.742c-0.24933,0.57133 -0.56433,1.01567 -0.945,1.333c-0.07738,0.06457 -0.1571,0.12627 -0.239,0.185c-0.33518,0.24364 -0.71153,0.42487 -1.111,0.535c-0.20187,0.055 -0.40649,0.09939 -0.613,0.133c-0.24362,0.04027 -0.49007,0.061 -0.737,0.062c-0.04767,-0.00001 -0.09534,-0.00068 -0.143,-0.002c-1.23867,-0.034 -2.041,-0.51833 -2.407,-1.453c-0.29133,-0.74333 -0.31233,-1.61267 -0.063,-2.608c0.08149,-0.32158 0.18268,-0.63784 0.303,-0.947c0.10231,-0.26943 0.22396,-0.53111 0.364,-0.783c0.30206,-0.55191 0.71424,-1.03591 1.211,-1.422c0.69,-0.53 1.465,-0.795 2.325,-0.795c0.78,0 1.46,0.2 2.04,0.6c0.05357,0.03696 0.10593,0.07565 0.157,0.116c0.46523,0.35014 0.77498,0.86842 0.863,1.444l-0.93,3.42c-0.02391,0.06111 -0.04892,0.12179 -0.075,0.182zM207.8375,169.2c-0.09997,-0.09309 -0.18022,-0.20531 -0.236,-0.33c-0.05323,-0.12307 -0.08013,-0.25591 -0.079,-0.39c0,-0.28 0.105,-0.515 0.315,-0.705c0.09209,-0.08467 0.1975,-0.1536 0.312,-0.204c0.12401,-0.05382 0.25782,-0.08139 0.393,-0.081c0.13427,-0.0014 0.26749,0.02375 0.392,0.074c0.11733,0.04881 0.22374,0.12054 0.313,0.211c0.19,0.19 0.285,0.425 0.285,0.705c0,0.28 -0.095,0.52 -0.285,0.72c-0.17394,0.1889 -0.41823,0.29747 -0.675,0.3c-0.01,0.00013 -0.02,0.00013 -0.03,0c-0.22004,-0.00002 -0.43348,-0.07517 -0.605,-0.213c-0.03479,-0.02728 -0.06817,-0.05632 -0.1,-0.087z"/><path d="M280.74869,146.51087c-0.0071,0.46898 -0.02519,0.91366 -0.05428,1.33404c-0.02762,0.41142 -0.06951,0.82176 -0.12558,1.23028c-0.05386,0.39285 -0.12775,0.7827 -0.22136,1.16802c-0.09559,0.39577 -0.219,0.7843 -0.3693,1.1627c-0.27138,0.6758 -0.64121,1.29573 -1.10948,1.85978c-0.02034,0.02537 -0.03552,0.05448 -0.0447,0.08567c-0.00816,0.02696 -0.01224,0.05623 -0.01224,0.0878c0.00007,0.0087 0.00042,0.0174 0.00106,0.02607c0.00064,0.00909 0.00171,0.01815 0.00319,0.02714c0.00914,0.06431 0.04586,0.12144 0.10057,0.15645c0.00837,0.00555 0.01688,0.01087 0.02554,0.01596c0.12026,0.07095 0.23112,0.07113 0.33258,0.00053c0.02657,-0.01875 0.05101,-0.04034 0.0729,-0.06439c0.03047,-0.03842 0.06063,-0.07709 0.09046,-0.116c0.43554,-0.56323 0.79431,-1.18183 1.06691,-1.83956c0.28203,-0.68644 0.48956,-1.47133 0.62259,-2.35466c0.02664,-0.17782 0.05006,-0.35611 0.07024,-0.53479c0.0862,-0.75739 0.12931,-1.61146 0.12931,-2.56219h2.0274c0.47891,0 0.80085,0.0745 0.96581,0.22349c0.15183,0.13729 0.22474,0.40566 0.2187,0.80511c-0.00052,0.03496 -0.00159,0.06991 -0.00319,0.10483c-0.00278,0.09955 -0.00668,0.19906 -0.01171,0.29852c-0.01568,0.31095 -0.04106,0.62133 -0.07609,0.93069c-0.02412,0.21463 -0.04896,0.41825 -0.0745,0.61088c-0.0236,0.1798 -0.04932,0.35932 -0.07716,0.53851c-0.04222,0.25294 -0.09951,0.46295 -0.17188,0.63004c-0.03315,0.07882 -0.07453,0.15391 -0.12345,0.22403c-0.02243,0.03141 -0.04715,0.06111 -0.07397,0.08887c-0.07769,0.08017 -0.17347,0.14527 -0.28735,0.19529c-0.08657,0.03708 -0.17683,0.06491 -0.26926,0.08301c-0.03041,0.0062 -0.06092,0.01187 -0.09153,0.01703c-0.28025,0.04718 -0.65948,0.07077 -1.13769,0.07077c-0.03566,-0.00027 -0.07105,0.00623 -0.1043,0.01916c-0.03519,0.01423 -0.06747,0.03479 -0.09525,0.06066c-0.03251,0.02887 -0.05722,0.06548 -0.07184,0.10643c-0.01104,0.03254 -0.01644,0.06674 -0.01596,0.1011c-0.0004,0.03978 0.00891,0.07905 0.02714,0.11441c0.01547,0.02912 0.03601,0.05525 0.06066,0.07716c0.00211,0.0018 0.00424,0.00357 0.00639,0.00532c0.05287,0.04801 0.12175,0.07458 0.19316,0.0745c0.06155,0.00008 0.1231,-0.00028 0.18465,-0.00106c0.36752,-0.00532 0.68698,-0.02643 0.95836,-0.06332c0.13097,-0.01707 0.26099,-0.04087 0.38952,-0.0713c0.11055,-0.02622 0.21835,-0.06293 0.32194,-0.10962c0.20608,-0.09071 0.38425,-0.23471 0.51616,-0.41719c0.00431,-0.00617 0.00857,-0.01238 0.01277,-0.01862c0.1795,-0.26039 0.30562,-0.64529 0.37834,-1.15471c0.01342,-0.09427 0.02619,-0.18864 0.03831,-0.28309c0.03802,-0.29611 0.07049,-0.59292 0.09738,-0.89025c0.03725,-0.40974 0.06652,-0.81681 0.0878,-1.22123c0.00216,-0.0335 0.00394,-0.06703 0.00532,-0.10057c0.01596,-0.37178 -0.02129,-0.67367 -0.11175,-0.90568c-0.04762,-0.12903 -0.12301,-0.24602 -0.22083,-0.34269c-0.05558,-0.05261 -0.11741,-0.09818 -0.18412,-0.13569c-0.27919,-0.15964 -0.69939,-0.23946 -1.26061,-0.23946h-2.0274v-0.79819c-0.0002,-0.0875 0.00229,-0.17499 0.00745,-0.26234c0.01809,-0.29019 0.06723,-0.52769 0.1474,-0.71252c0.04653,-0.11377 0.1161,-0.21668 0.20434,-0.30225c0.18163,-0.16922 0.48991,-0.2744 0.92484,-0.31555c0.15162,-0.01367 0.3038,-0.02024 0.45603,-0.01969h3.84727c0.12771,1.33032 0.31928,2.52228 0.5747,3.57589c0.00018,0.00106 0.00035,0.00213 0.00053,0.00319c0.25542,1.05219 0.55855,1.98235 0.9094,2.79047c-0.58534,0.69176 -1.22921,1.31701 -1.93162,1.87575c-0.05465,0.04353 -0.10964,0.08664 -0.16496,0.12931c-0.63036,0.48847 -1.30772,0.91307 -2.02208,1.26752c-0.0745,0.03193 -0.12771,0.08514 -0.15964,0.15964c-0.01364,0.03122 -0.02071,0.06491 -0.02075,0.09898c0,0.04505 0.01224,0.09188 0.03672,0.14048c0.00817,0.0114 0.01687,0.02241 0.02607,0.03299c0.04514,0.05377 0.10569,0.0924 0.17347,0.11068c0.04896,0.01312 0.09703,0.01419 0.14421,0.00319c0.03064,-0.00742 0.06003,-0.01925 0.08727,-0.03512c0.58873,-0.29515 1.15298,-0.63679 1.68737,-1.02168c0.87885,-0.63724 1.68365,-1.37082 2.39936,-2.18704c0.00601,0.01207 0.01204,0.02413 0.01809,0.03618c0.37816,0.76129 0.79251,1.40641 1.24305,1.93534c0.17938,0.21125 0.36812,0.41437 0.56565,0.60875c0.26607,0.26296 0.55195,0.50508 0.85513,0.72422c0.08465,0.06026 0.17297,0.11518 0.26447,0.16443c0.55235,0.2948 0.98603,0.19511 1.30105,-0.29905c0.06826,-0.10937 0.12666,-0.22458 0.17454,-0.34429c0.07485,-0.16354 0.15307,-0.3567 0.23467,-0.57949c0.04879,-0.1334 0.09562,-0.26751 0.14048,-0.40229c0.07485,-0.22456 0.14545,-0.43475 0.21179,-0.63057c0.04876,-0.1438 0.0979,-0.28748 0.1474,-0.43102c0.03193,-0.08514 0.02927,-0.1623 -0.00798,-0.23147c-0.02156,-0.04078 -0.05373,-0.07498 -0.09312,-0.09898c-0.02811,-0.01677 -0.05862,-0.02915 -0.09046,-0.03672c-0.00247,-0.00074 -0.00496,-0.00145 -0.00745,-0.00213c-0.04115,-0.01064 -0.08142,-0.01242 -0.12079,-0.00532c-0.03056,0.0058 -0.06001,0.0164 -0.08727,0.0314c-0.0016,0.00087 -0.0032,0.00176 -0.00479,0.00266c-0.06446,0.03464 -0.11181,0.09431 -0.1309,0.16496c-0.01301,0.04679 -0.02649,0.09344 -0.04044,0.13995c-0.04754,0.15822 -0.10589,0.33506 -0.17507,0.53053c-0.09046,0.25542 -0.17826,0.50818 -0.2634,0.75828c-0.02581,0.07591 -0.05259,0.15148 -0.08035,0.22669c-0.05534,0.15006 -0.10838,0.27937 -0.15911,0.38792c-0.01099,0.02455 -0.02288,0.04869 -0.03565,0.07237c-0.16035,0.29728 -0.39643,0.36415 -0.70826,0.20061c-0.04624,-0.02452 -0.09101,-0.0517 -0.1341,-0.08142c-0.22018,-0.15868 -0.43058,-0.33051 -0.63004,-0.51457c-0.27624,-0.2552 -0.53508,-0.52862 -0.77478,-0.81841c-0.44699,-0.53745 -0.8514,-1.19462 -1.21325,-1.97153c0.48956,-0.60662 0.9392,-1.25582 1.34894,-1.94758c0.40974,-0.69176 0.7636,-1.4261 1.06159,-2.203c0.03193,-0.08514 0.02927,-0.1623 -0.00798,-0.23147c-0.03725,-0.06918 -0.09312,-0.11973 -0.16762,-0.15166c-0.03305,-0.01454 -0.06872,-0.02215 -0.10483,-0.02235c-0.01951,0 -0.03902,0.00231 -0.05853,0.00692c-0.02349,0.0053 -0.04633,0.01315 -0.06811,0.02341c-0.07982,0.03725 -0.13569,0.09312 -0.16762,0.16762c-0.23414,0.65984 -0.52947,1.30903 -0.88599,1.94758c-0.35652,0.63855 -0.75828,1.24518 -1.20527,1.81987c-0.16166,-0.39852 -0.30548,-0.80405 -0.43102,-1.21538c-0.13907,-0.45497 -0.26155,-0.91486 -0.36717,-1.37874c-0.22349,-0.97379 -0.39377,-2.07263 -0.51084,-3.29652h5.25209c0.00568,-0.00004 0.01136,-0.00022 0.01703,-0.00053c0.07282,-0.00156 0.14176,-0.03314 0.1905,-0.08727c0.0018,-0.00211 0.00357,-0.00424 0.00532,-0.00639c0.04801,-0.05287 0.07458,-0.12175 0.0745,-0.19316c0,-0.08514 -0.02661,-0.15432 -0.07982,-0.20753c-0.03106,-0.03122 -0.0695,-0.0541 -0.11175,-0.06652c-0.03111,-0.00908 -0.06338,-0.01356 -0.09578,-0.0133h-5.29998c-0.01069,-0.12091 -0.02062,-0.24188 -0.0298,-0.36291c-0.02857,-0.37615 -0.05056,-0.75278 -0.06598,-1.1297c-0.00266,-0.06474 -0.00514,-0.12948 -0.00745,-0.19423c-0.01656,-0.46986 -0.02472,-0.93998 -0.02448,-1.41013c0,-0.08514 -0.02661,-0.15432 -0.07982,-0.20753c-0.03106,-0.03122 -0.0695,-0.0541 -0.11175,-0.06652c-0.03111,-0.00908 -0.06338,-0.01356 -0.09578,-0.0133c-0.03566,-0.00027 -0.07105,0.00623 -0.1043,0.01916c-0.03519,0.01423 -0.06747,0.03479 -0.09525,0.06066c-0.03251,0.02887 -0.05722,0.06548 -0.07184,0.10643c-0.01104,0.03254 -0.01644,0.06674 -0.01596,0.1011c0.00001,0.06882 0.00019,0.13765 0.00053,0.20647c0.002,0.46612 0.01246,0.93216 0.0314,1.3979c0.02129,0.51616 0.05321,1.0137 0.09578,1.49261h-3.79938c-0.87269,0 -1.47665,0.15964 -1.81189,0.47891c-0.04571,0.04381 -0.08772,0.09133 -0.12558,0.14208c-0.17667,0.23485 -0.29125,0.56228 -0.34375,0.98231c-0.02323,0.1937 -0.03443,0.38866 -0.03352,0.58374v1.21325c-0.00001,0.15894 -0.00125,0.31787 -0.00372,0.47679zM271.88985,153.81803c0.01538,0.02893 0.03512,0.05531 0.05853,0.07822c0.00814,0.00821 0.01666,0.01602 0.02554,0.02341c0.04842,0.0416 0.11017,0.06445 0.17401,0.06439c0.00568,-0.00004 0.01136,-0.00022 0.01703,-0.00053c0.07282,-0.00156 0.14176,-0.03314 0.1905,-0.08727c0.0018,-0.00211 0.00357,-0.00424 0.00532,-0.00639c0.04801,-0.05287 0.07458,-0.12175 0.0745,-0.19316v-3.36836h4.32619c0.00568,-0.00004 0.01136,-0.00022 0.01703,-0.00053c0.07282,-0.00156 0.14176,-0.03314 0.1905,-0.08727c0.0018,-0.00211 0.00357,-0.00424 0.00532,-0.00639c0.04801,-0.05287 0.07458,-0.12175 0.0745,-0.19316c0,-0.08514 -0.02661,-0.15432 -0.07982,-0.20753c-0.03106,-0.03122 -0.0695,-0.0541 -0.11175,-0.06652c-0.03111,-0.00908 -0.06338,-0.01356 -0.09578,-0.0133h-4.32619v-2.82559h4.18251c0.00568,-0.00004 0.01136,-0.00022 0.01703,-0.00053c0.07282,-0.00156 0.14176,-0.03314 0.1905,-0.08727c0.0018,-0.00211 0.00357,-0.00424 0.00532,-0.00639c0.04801,-0.05287 0.07458,-0.12175 0.0745,-0.19316c0,-0.08514 -0.02661,-0.15432 -0.07982,-0.20753c-0.03106,-0.03122 -0.0695,-0.0541 -0.11175,-0.06652c-0.03111,-0.00908 -0.06338,-0.01356 -0.09578,-0.0133h-4.18251v-2.82559h4.78914c0.00568,-0.00004 0.01136,-0.00022 0.01703,-0.00053c0.07282,-0.00156 0.14176,-0.03314 0.1905,-0.08727c0.0018,-0.00211 0.00357,-0.00424 0.00532,-0.00639c0.04801,-0.05287 0.07458,-0.12175 0.0745,-0.19316c0,-0.08514 -0.02661,-0.15432 -0.07982,-0.20753c-0.03106,-0.03122 -0.0695,-0.0541 -0.11175,-0.06652c-0.03111,-0.00908 -0.06338,-0.01356 -0.09578,-0.0133h-6.72076c0.28735,-0.52148 0.54809,-1.04031 0.78223,-1.55647c0.11312,-0.24904 0.22222,-0.49988 0.32726,-0.75243c0.09753,-0.23433 0.19066,-0.47046 0.27937,-0.70826c0.02129,-0.08514 0.01596,-0.16496 -0.01596,-0.23946c-0.01816,-0.0441 -0.04935,-0.0816 -0.0894,-0.10749c-0.02656,-0.0167 -0.05568,-0.02893 -0.0862,-0.03618c-0.05002,-0.01419 -0.10128,-0.01525 -0.15378,-0.00319c-0.02677,0.0063 -0.05281,0.0154 -0.07769,0.02714c-0.03704,0.01674 -0.06993,0.04145 -0.09631,0.07237c-0.02673,0.03234 -0.04567,0.07039 -0.05534,0.11121c-0.0367,0.11754 -0.07591,0.23428 -0.1176,0.35014c-0.07237,0.2015 -0.15645,0.41524 -0.25223,0.64121c-0.09805,0.23043 -0.20095,0.45876 -0.30863,0.68485c-0.09641,0.20301 -0.19558,0.40471 -0.29746,0.60503c-0.23707,0.46476 -0.48655,0.92308 -0.74817,1.37448c-0.04908,0.08485 -0.09857,0.16946 -0.14846,0.25382c-0.3373,0.57198 -0.69512,1.13161 -1.07277,1.67779c-0.05812,0.08391 -0.11701,0.16728 -0.17667,0.2501c-0.1756,0.24371 -0.3489,0.46951 -0.51989,0.6774c-0.16661,0.20358 -0.34165,0.4001 -0.52468,0.58906c-0.04257,0.05321 -0.06386,0.11973 -0.06386,0.19955c-0.00054,0.04255 0.00991,0.08452 0.03033,0.12186c0.01679,0.02975 0.03898,0.0561 0.06545,0.07769c0.149,0.10643 0.28735,0.09578 0.41506,-0.03193c0.22891,-0.25202 0.44864,-0.51222 0.65877,-0.7801c0.23102,-0.29467 0.45319,-0.59616 0.66622,-0.90408c0.44699,-0.64387 0.86737,-1.31701 1.26114,-2.01942h1.6762v10.16893c-0.00025,0.04222 0.00979,0.08386 0.02927,0.12132zM226.01204,142.98021c0.18777,0.08055 0.34467,0.21935 0.44752,0.3959c0.17206,0.30509 0.16354,0.69868 -0.02554,1.18079c-0.04875,0.12284 -0.10418,0.24292 -0.16602,0.35972c-0.84076,1.60702 -1.93428,3.01982 -3.28056,4.23839c-0.58134,0.52444 -1.20065,1.0052 -1.85286,1.43834c-0.95774,0.63318 -1.96973,1.18022 -3.02407,1.63469c-0.0034,0.00154 -0.00677,0.00314 -0.01011,0.00479c-0.06663,0.02974 -0.1179,0.08583 -0.14155,0.15485c-0.00054,0.00159 -0.00107,0.00319 -0.0016,0.00479c-0.01525,0.04505 -0.01987,0.09011 -0.01384,0.13516c0.00398,0.02878 0.01186,0.05689 0.02341,0.08354c0.03193,0.0745 0.08514,0.12771 0.15964,0.15964c0.04896,0.02093 0.09791,0.0282 0.14687,0.02182c0.02641,-0.00376 0.05219,-0.0111 0.07663,-0.02182c0.48574,-0.21196 0.96323,-0.44236 1.43142,-0.6907c1.30302,-0.68408 2.51434,-1.53013 3.60516,-2.51802c1.41013,-1.28775 2.5409,-2.74577 3.39231,-4.37408c0.04978,-0.09378 0.09627,-0.18927 0.13942,-0.28628c0.17206,-0.38916 0.25808,-0.74675 0.25808,-1.07277c-0.00003,-0.04991 -0.00216,-0.0998 -0.00639,-0.14953c-0.03725,-0.44166 -0.23414,-0.79287 -0.59066,-1.05361c-0.13152,-0.09463 -0.27572,-0.17022 -0.42836,-0.22456c-0.15928,-0.05818 -0.33684,-0.1011 -0.53266,-0.12877c-0.19204,-0.02611 -0.38568,-0.03873 -0.57949,-0.03778h-2.203c0.149,-0.22349 0.28469,-0.44699 0.40708,-0.67048c0.04834,-0.08815 0.095,-0.17721 0.13995,-0.26713c0.06109,-0.12194 0.11823,-0.24581 0.17134,-0.37142c0.01916,-0.0447 0.02785,-0.08958 0.02607,-0.13463c-0.00154,-0.03036 -0.00764,-0.06032 -0.01809,-0.08887c-0.01203,-0.03471 -0.03104,-0.06658 -0.05587,-0.09365c-0.02691,-0.02851 -0.05956,-0.05099 -0.09578,-0.06598c-0.0447,-0.01916 -0.08958,-0.02785 -0.13463,-0.02607c-0.03036,0.00154 -0.06032,0.00764 -0.08887,0.01809c-0.03471,0.01203 -0.06658,0.03104 -0.09365,0.05587c-0.02851,0.02691 -0.05099,0.05956 -0.06598,0.09578c-0.14578,0.33368 -0.31175,0.65817 -0.49701,0.97166c-0.20313,0.34421 -0.42353,0.67792 -0.66037,0.99987c-0.49488,0.6758 -1.05095,1.31967 -1.66822,1.93162c-0.61727,0.61195 -1.25582,1.15205 -1.91565,1.62032c-0.0745,0.04257 -0.11707,0.10376 -0.12771,0.18358c-0.01064,0.07982 0.00532,0.15166 0.04789,0.21551c0.00724,0.00885 0.01488,0.01737 0.02288,0.02554c0.04507,0.04671 0.10443,0.07704 0.16868,0.0862c0.03547,0.00497 0.06971,0.00408 0.1027,-0.00266c0.03752,-0.00822 0.07311,-0.02357 0.10483,-0.04523c0.24583,-0.17146 0.48561,-0.35142 0.7189,-0.53958c0.47066,-0.38123 0.91826,-0.7901 1.34043,-1.22442c0.16587,-0.16968 0.3289,-0.34211 0.48902,-0.51723c0.46136,-0.50338 0.89497,-1.03149 1.29892,-1.58201h2.58613c0.403,0 0.72742,0.05694 0.97326,0.17081zM260.02024,151.57671c0.06066,-0.03806 0.10677,-0.09541 0.1309,-0.16283c0.00036,-0.00089 0.00072,-0.00177 0.00106,-0.00266c0.01845,-0.05392 0.01614,-0.10767 -0.00692,-0.16123c-0.00918,-0.02103 -0.0206,-0.04101 -0.03406,-0.0596c-0.01989,-0.03344 -0.03994,-0.06678 -0.06013,-0.10004c-0.14296,-0.2352 -0.30154,-0.47962 -0.47572,-0.73327c-0.18524,-0.26925 -0.3765,-0.53432 -0.57363,-0.795c-0.44166,-0.58534 -0.90461,-1.16802 -1.38885,-1.74803c-0.48423,-0.58002 -0.94452,-1.10416 -1.38087,-1.57243c-0.02591,-0.04046 -0.06531,-0.07043 -0.11121,-0.08461c-0.02607,-0.00776 -0.05316,-0.01153 -0.08035,-0.01117c-0.08514,0 -0.15432,0.02661 -0.20753,0.07982c-0.00786,0.0072 -0.0155,0.01466 -0.02288,0.02235c-0.11565,0.12132 -0.11334,0.25223 0.00692,0.39271c0.32992,0.34056 0.6758,0.71837 1.03765,1.13343c0.36185,0.41506 0.70773,0.84076 1.03765,1.2771c-0.59598,0.10643 -1.29573,0.21285 -2.09924,0.31928c-0.80351,0.10643 -1.63895,0.20753 -2.50631,0.30331c-0.86737,0.09578 -1.6895,0.18092 -2.46641,0.25542c0.14717,-0.20455 0.29086,-0.41158 0.43102,-0.62099c0.24882,-0.37233 0.48835,-0.75079 0.71837,-1.13503c0.38313,-0.63855 0.75562,-1.28775 1.11747,-1.94758c0.10038,-0.18308 0.19918,-0.36703 0.29639,-0.55181c0.23682,-0.44905 0.46269,-0.9038 0.6774,-1.36384c0.16177,-0.3473 0.30828,-0.67438 0.43954,-0.98124c0.09649,-0.22486 0.18944,-0.45122 0.27883,-0.67899c0.02093,-0.04896 0.0282,-0.09791 0.02182,-0.14687c-0.00376,-0.02641 -0.0111,-0.05219 -0.02182,-0.07663c-0.0031,-0.00722 -0.00647,-0.01432 -0.01011,-0.02129c-0.03001,-0.06033 -0.08445,-0.1049 -0.14953,-0.12239c-0.04896,-0.02093 -0.09791,-0.0282 -0.14687,-0.02182c-0.02641,0.00376 -0.05219,0.0111 -0.07663,0.02182c-0.0745,0.03193 -0.12771,0.08514 -0.15964,0.15964c-0.02747,0.07347 -0.0555,0.14672 -0.08408,0.21977c-0.08798,0.22349 -0.18624,0.4594 -0.2948,0.70773c-0.11954,0.27278 -0.24336,0.54367 -0.37142,0.81256c-0.07877,0.16564 -0.15859,0.33078 -0.23946,0.49541c-0.25203,0.51243 -0.5128,1.02051 -0.78223,1.52401c-0.37249,0.69709 -0.75828,1.37289 -1.15737,2.0274c-0.16858,0.2771 -0.34262,0.55084 -0.52202,0.82107c-0.21302,0.32087 -0.43554,0.63531 -0.66729,0.94293c-0.27671,0.02129 -0.54277,0.04257 -0.79819,0.06386c-0.25542,0.02129 -0.48956,0.03725 -0.70241,0.04789c-0.02594,0.00293 -0.05158,0.00809 -0.07663,0.01543c-0.09224,0.02732 -0.15166,0.08354 -0.17826,0.16868c-0.01152,0.03866 -0.01709,0.07886 -0.0165,0.1192c0.0061,0.04258 0.02115,0.08339 0.04417,0.11973c0.01884,0.02952 0.04157,0.05637 0.06758,0.07982c0.0151,0.0141 0.03149,0.02675 0.04896,0.03778c0.03973,0.02448 0.08124,0.03672 0.12452,0.03672c0.0114,-0.00008 0.02278,-0.00097 0.03406,-0.00266c0.29267,-0.01987 0.61762,-0.04505 0.97486,-0.07556c0.22587,-0.01921 0.45167,-0.03925 0.6774,-0.06013c0.63323,-0.05853 1.30637,-0.12771 2.01942,-0.20753c0.71305,-0.07982 1.43142,-0.16496 2.15511,-0.25542c0.72369,-0.09046 1.41013,-0.18358 2.05933,-0.27937c0.08977,-0.01318 0.17952,-0.02648 0.26926,-0.03991c0.53851,-0.08124 1.01814,-0.1584 1.43887,-0.23147c0.13391,0.17511 0.26624,0.35143 0.39697,0.52893c0.12216,0.16566 0.24261,0.33258 0.36131,0.50073c0.11494,0.16283 0.22101,0.31981 0.31821,0.47093c0.09173,0.14145 0.17992,0.28517 0.26447,0.43102c0.09578,0.15964 0.22881,0.20221 0.39909,0.12771c0.00704,-0.00405 0.01396,-0.00831 0.02075,-0.01277zM193.97325,143.1606c0.01709,0.01025 0.03395,0.0209 0.05055,0.03193c0.28664,0.1905 0.44007,0.46189 0.46029,0.81415c0.00188,0.03456 0.00276,0.06916 0.00266,0.10376c0,0.35262 -0.09667,0.77566 -0.29001,1.26912c-0.14119,0.36468 -0.30946,0.71829 -0.50339,1.05787c-0.30224,0.52641 -0.65492,1.0222 -1.05308,1.48038c-0.24362,0.28224 -0.5002,0.55303 -0.76892,0.81149c-0.54313,0.52 -1.12676,0.99598 -1.74537,1.42344c-0.21567,0.15007 -0.43497,0.29485 -0.65771,0.43422c-0.8288,0.5153 -1.69794,0.96268 -2.5989,1.33777c-0.02904,0.01237 -0.05654,0.02809 -0.08195,0.04683c-0.10181,0.07663 -0.12239,0.18873 -0.06173,0.3363c0.01237,0.02904 0.02809,0.05654 0.04683,0.08195c0.07663,0.10181 0.18873,0.12239 0.3363,0.06173c0.6295,-0.27233 1.24505,-0.57584 1.84435,-0.9094c1.04787,-0.57872 2.02989,-1.26938 2.92882,-2.05986c1.31967,-1.17068 2.26686,-2.46374 2.84155,-3.8792c0.05549,-0.13416 0.10608,-0.2703 0.15166,-0.40814c0.27706,-0.84041 0.26376,-1.51585 -0.03991,-2.02634c-0.07235,-0.12106 -0.1632,-0.23004 -0.26926,-0.323c-0.29941,-0.265 -0.74054,-0.43652 -1.3234,-0.51457c-0.26594,-0.03381 -0.53383,-0.04999 -0.80191,-0.04842h-5.98642c-0.03566,-0.00027 -0.07105,0.00623 -0.1043,0.01916c-0.03519,0.01423 -0.06747,0.03479 -0.09525,0.06066c-0.03251,0.02887 -0.05722,0.06548 -0.07184,0.10643c-0.01104,0.03254 -0.01644,0.06674 -0.01596,0.1011c0,0.0745 0.02927,0.14367 0.0878,0.20753c0.05853,0.06386 0.12505,0.09578 0.19955,0.09578h5.98642c0.70241,0 1.21325,0.09578 1.53252,0.28735zM266.01517,153.83399c0.01538,0.02893 0.03512,0.05531 0.05853,0.07822c0.00814,0.00821 0.01666,0.01602 0.02554,0.02341c0.04842,0.0416 0.11017,0.06445 0.17401,0.06439c0.00568,-0.00004 0.01136,-0.00022 0.01703,-0.00053c0.07282,-0.00156 0.14176,-0.03314 0.1905,-0.08727c0.0018,-0.00211 0.00357,-0.00424 0.00532,-0.00639c0.04801,-0.05287 0.07458,-0.12175 0.0745,-0.19316v-10.75959c0.25234,-0.43165 0.49382,-0.86955 0.72422,-1.31329c0.27368,-0.52624 0.52733,-1.06265 0.76041,-1.60809c0.00879,-0.01763 0.01609,-0.03596 0.02182,-0.05481c0.01987,-0.06457 0.01525,-0.12611 -0.01384,-0.18465c-0.03725,-0.0745 -0.09844,-0.12239 -0.18358,-0.14367c-0.04896,-0.02093 -0.09791,-0.0282 -0.14687,-0.02182c-0.02641,0.00376 -0.05219,0.0111 -0.07663,0.02182c-0.04345,0.0184 -0.08139,0.04773 -0.11015,0.08514c-0.02095,0.02749 -0.03763,0.05799 -0.04949,0.09046c-0.10643,0.29267 -0.243,0.61762 -0.40974,0.97486c-0.10669,0.22782 -0.21757,0.45366 -0.33258,0.6774c-0.08736,0.17046 -0.17677,0.33987 -0.26819,0.50818c-0.26593,0.48813 -0.54649,0.96815 -0.84129,1.4394c-0.05159,0.08272 -0.10356,0.1652 -0.15591,0.24744c-0.35477,0.55818 -0.72872,1.10394 -1.12119,1.63629c-0.06023,0.08165 -0.12125,0.16271 -0.18305,0.24318c-0.18234,0.23662 -0.36167,0.45497 -0.53798,0.65505c-0.17161,0.1954 -0.35182,0.38308 -0.54011,0.56246c-0.02127,0.02083 -0.03858,0.04535 -0.05108,0.07237c-0.01419,0.03193 -0.02129,0.06723 -0.02129,0.10589c-0.00006,0.0071 0.00012,0.0142 0.00053,0.02129c0.00014,0.00302 0.00032,0.00603 0.00053,0.00905c0.00512,0.07196 0.03612,0.13963 0.08727,0.1905c0.00313,0.00256 0.00633,0.00504 0.00958,0.00745c0.05179,0.0376 0.11778,0.05641 0.19795,0.05641c0.08514,0 0.15432,-0.02661 0.20753,-0.07982c0.40442,-0.4257 0.81681,-0.92058 1.23719,-1.48463c0.42038,-0.56405 0.82746,-1.15471 1.22123,-1.77198v9.81773c-0.00025,0.04222 0.00979,0.08386 0.02927,0.12132zM240.43959,144.74368c0.38384,0.01312 0.69514,0.07645 0.93388,0.18997c0.18775,0.08314 0.34532,0.22212 0.45124,0.39803c0.0405,0.06995 0.07214,0.14467 0.09419,0.22243c0.08195,0.28664 0.04842,0.6382 -0.10057,1.05467c-0.04724,0.13035 -0.10106,0.25822 -0.16123,0.38313c-0.11863,0.24416 -0.25173,0.48102 -0.39856,0.70932c-0.2961,0.45746 -0.63865,0.88312 -1.02221,1.27019c-0.1529,0.15554 -0.31084,0.30604 -0.47359,0.45124c-0.50945,0.45189 -1.05891,0.85656 -1.64161,1.20899c-0.1008,0.06137 -0.20244,0.12133 -0.30491,0.17986c-0.73979,0.42043 -1.5168,0.7717 -2.32114,1.04935c-0.03078,0.00875 -0.06042,0.02107 -0.08833,0.03672c-0.09862,0.05641 -0.13711,0.14811 -0.11547,0.27511c0.00311,0.01865 0.0072,0.03712 0.01224,0.05534c0.0135,0.03196 0.03083,0.06215 0.05162,0.08993c0.06598,0.08549 0.15698,0.11866 0.27298,0.09951c0.01977,-0.00343 0.03932,-0.00805 0.05853,-0.01384c0.06168,-0.02197 0.12324,-0.04432 0.18465,-0.06705c0.89447,-0.32679 1.75491,-0.74009 2.56911,-1.234c0.13112,-0.07998 0.26081,-0.16229 0.38898,-0.24691c0.6666,-0.43683 1.28533,-0.94265 1.84595,-1.50911c0.64387,-0.65452 1.14673,-1.35426 1.50858,-2.09924c0.2728,-0.5786 0.3959,-1.08767 0.3693,-1.5272c-0.01252,-0.25176 -0.08436,-0.49699 -0.20966,-0.71571c-0.24762,-0.42748 -0.69638,-0.69442 -1.34628,-0.80085c-0.23586,-0.03695 -0.47432,-0.05474 -0.71305,-0.05321h-5.93853c-0.00124,-0.00001 -0.00248,-0.00001 -0.00372,0c-0.0796,-0.00075 -0.15607,0.03095 -0.21179,0.0878c-0.02583,0.0256 -0.04676,0.05572 -0.06173,0.08887c-0.01761,0.03987 -0.0265,0.08305 -0.02607,0.12665c-0.00021,0.02621 0.00192,0.05239 0.00639,0.07822c0.02519,0.13942 0.12416,0.20913 0.29693,0.20913h5.93853c0.05181,0 0.10361,0.00088 0.15538,0.00266zM204.222,150.919c-0.22144,-0.04765 -0.43884,-0.11241 -0.65026,-0.19369c-0.32992,-0.12877 -0.60804,-0.29302 -0.83437,-0.49275c-0.24889,-0.22231 -0.44831,-0.49443 -0.58534,-0.79872c-0.07426,-0.16208 -0.13478,-0.33012 -0.18092,-0.50233c-0.05901,-0.22087 -0.10451,-0.44513 -0.13622,-0.67154c-0.03547,-0.24584 -0.06013,-0.51084 -0.07397,-0.795c-0.00905,-0.18948 -0.01349,-0.37915 -0.0133,-0.56884c0,-0.81947 0.0745,-1.5006 0.22349,-2.04337c0.06231,-0.23289 0.15235,-0.45746 0.26819,-0.66888c0.12905,-0.23505 0.29752,-0.44619 0.49807,-0.62418c0.18004,-0.15657 0.38076,-0.28764 0.59651,-0.38952c0.25861,-0.12452 0.55465,-0.22349 0.88812,-0.29693c0.45585,-0.10039 0.9988,-0.16443 1.62884,-0.1921c0.24978,-0.01059 0.49976,-0.01573 0.74977,-0.01543c0.32319,-0.00067 0.64633,0.00821 0.969,0.02661c0.53745,0.03193 1.00732,0.09224 1.4096,0.18092c0.22144,0.04765 0.43884,0.11241 0.65026,0.19369c0.33027,0.12913 0.6084,0.29338 0.83437,0.49275c0.25717,0.22973 0.46188,0.51212 0.60024,0.82799c0.06731,0.15049 0.12282,0.30598 0.16602,0.46508c0.05924,0.21992 0.10474,0.44331 0.13622,0.66888c0.05818,0.40406 0.08727,0.86222 0.08727,1.37448c0,0.61904 -0.04363,1.16163 -0.1309,1.62777c-0.02539,0.13705 -0.05628,0.27303 -0.09259,0.40761c-0.06154,0.23284 -0.15049,0.45755 -0.265,0.66941c-0.12909,0.23809 -0.29872,0.45183 -0.50126,0.63163c-0.18004,0.15657 -0.38076,0.28764 -0.59651,0.38952c-0.25861,0.12452 -0.55465,0.22349 -0.88812,0.29693c-0.45585,0.10039 -0.9988,0.16443 -1.62884,0.1921c-0.24978,0.01059 -0.49976,0.01573 -0.74977,0.01543c-0.32301,0.00065 -0.64598,-0.00822 -0.96847,-0.02661c-0.5378,-0.03193 -1.00785,-0.09224 -1.41013,-0.18092zM205.95088,150.54066c-0.26535,-0.00993 -0.5135,-0.0259 -0.74444,-0.04789c-0.22824,-0.02126 -0.45549,-0.05215 -0.68112,-0.09259c-0.08063,-0.01462 -0.16083,-0.03148 -0.24052,-0.05055c-0.44166,-0.10643 -0.8005,-0.2705 -1.07649,-0.49222c-0.19088,-0.1547 -0.34945,-0.34546 -0.46667,-0.56139c-0.09443,-0.17348 -0.16819,-0.35743 -0.21977,-0.54809c-0.04328,-0.15835 -0.07792,-0.31893 -0.10376,-0.48104c-0.03228,-0.19689 -0.05641,-0.41045 -0.07237,-0.64068c-0.01619,-0.24302 -0.024,-0.48652 -0.02341,-0.73008c0,-0.48423 0.02732,-0.91047 0.08195,-1.2787c0.02728,-0.19066 0.06656,-0.37941 0.1176,-0.56512c0.04019,-0.14513 0.09289,-0.28649 0.15751,-0.42251c0.12267,-0.26343 0.30352,-0.4956 0.52893,-0.67899c0.06562,-0.05257 0.1344,-0.10108 0.20593,-0.14527c0.29693,-0.18376 0.66729,-0.31626 1.11108,-0.3975c0.55341,-0.1011 1.24518,-0.15166 2.07529,-0.15166c0.21663,-0.00023 0.43324,0.00349 0.64973,0.01117c0.26535,0.00993 0.5135,0.0259 0.74444,0.04789c0.22824,0.02126 0.45549,0.05215 0.68112,0.09259c0.08063,0.01462 0.16083,0.03148 0.24052,0.05055c0.44166,0.10643 0.8005,0.2705 1.07649,0.49222c0.18647,0.15085 0.34234,0.33599 0.45923,0.54543c0.09792,0.1755 0.17422,0.36222 0.22722,0.55607c0.04337,0.15707 0.07801,0.31642 0.10376,0.47732c0.03228,0.19511 0.05641,0.40761 0.07237,0.63749c0.0162,0.24266 0.024,0.48581 0.02341,0.72901c0.00033,0.22542 -0.00641,0.4508 -0.02022,0.6758c-0.01312,0.21143 -0.03299,0.40885 -0.0596,0.59226c-0.02756,0.19691 -0.06755,0.39188 -0.11973,0.58374c-0.04283,0.15666 -0.1002,0.30897 -0.17134,0.45497c-0.12126,0.25353 -0.29717,0.47706 -0.5151,0.65452c-0.06562,0.05257 -0.1344,0.10108 -0.20593,0.14527c-0.29657,0.18376 -0.66693,0.31626 -1.11108,0.3975c-0.55341,0.1011 -1.24518,0.15166 -2.07529,0.15166c-0.21663,0.00023 -0.43324,-0.00349 -0.64973,-0.01117zM241.51448,141.81911c0.07282,-0.00156 0.14176,-0.03314 0.1905,-0.08727c0.0018,-0.00211 0.00357,-0.00424 0.00532,-0.00639c0.04801,-0.05287 0.07458,-0.12175 0.0745,-0.19316c0,-0.08514 -0.02661,-0.15432 -0.07982,-0.20753c-0.03106,-0.03122 -0.0695,-0.0541 -0.11175,-0.06652c-0.03111,-0.00908 -0.06338,-0.01356 -0.09578,-0.0133h-6.11413c-0.03566,-0.00027 -0.07105,0.00623 -0.1043,0.01916c-0.03519,0.01423 -0.06747,0.03479 -0.09525,0.06066c-0.03251,0.02887 -0.05722,0.06548 -0.07184,0.10643c-0.01104,0.03254 -0.01644,0.06674 -0.01596,0.1011c-0.00025,0.04222 0.00979,0.08386 0.02927,0.12132c0.01538,0.02893 0.03512,0.05531 0.05853,0.07822c0.00814,0.00821 0.01666,0.01602 0.02554,0.02341c0.04842,0.0416 0.11017,0.06445 0.17401,0.06439h6.11413c0.00568,-0.00004 0.01136,-0.00022 0.01703,-0.00053zM197.56989,143.44316c0.20603,-0.07615 0.39253,-0.19721 0.54596,-0.3544c0.29267,-0.29267 0.439,-0.64121 0.439,-1.04563c0.00006,-0.00816 0.00006,-0.01632 0,-0.02448c0.00102,-0.38874 -0.1577,-0.76083 -0.439,-1.02913c-0.00106,-0.00107 -0.00213,-0.00213 -0.00319,-0.00319c-0.27497,-0.27824 -0.65128,-0.43268 -1.04244,-0.42783c-0.40442,0 -0.75296,0.14367 -1.04563,0.43102c-0.11471,0.11119 -0.21067,0.24021 -0.28416,0.38207c-0.10477,0.20817 -0.15789,0.43851 -0.15485,0.67154c-0.00114,0.17021 0.0275,0.33932 0.08461,0.49967c0.07615,0.20603 0.19721,0.39253 0.3544,0.54596c0.29267,0.29267 0.64121,0.439 1.04563,0.439c0.17021,0.00114 0.33932,-0.0275 0.49967,-0.08461zM291.35077,142.0591c0.05073,0.05286 0.11246,0.0768 0.18518,0.07184c0.00302,-0.00014 0.00603,-0.00032 0.00905,-0.00053c0.07196,-0.00512 0.13963,-0.03612 0.1905,-0.08727c0.03013,-0.03004 0.05321,-0.06639 0.06758,-0.10643c0.01155,-0.03256 0.01836,-0.06661 0.02022,-0.1011c0.00532,-0.08514 -0.02395,-0.15964 -0.0878,-0.22349c-0.04006,-0.04275 -0.08086,-0.08479 -0.12239,-0.12611c-0.06386,-0.06386 -0.13392,-0.1309 -0.21019,-0.20114c-0.08221,-0.07578 -0.16559,-0.15029 -0.2501,-0.22349c-0.23946,-0.20753 -0.4869,-0.41506 -0.74232,-0.62259c-0.058,-0.04709 -0.11636,-0.09374 -0.17507,-0.13995c-0.09507,-0.07485 -0.18589,-0.14438 -0.27245,-0.20859c-0.0786,-0.05821 -0.15825,-0.11498 -0.23892,-0.17028c-0.05321,-0.03796 -0.10643,-0.05694 -0.15964,-0.05694c-0.0216,0.00002 -0.0431,0.00307 -0.06386,0.00905c-0.0745,0.02129 -0.13835,0.05853 -0.19157,0.11175c-0.01568,0.01949 -0.02842,0.04119 -0.03778,0.06439c-0.01277,0.03157 -0.01916,0.06581 -0.01916,0.1027c0.00006,0.00817 0.00042,0.01633 0.00106,0.02448c0.00231,0.03956 0.01517,0.07778 0.03725,0.11068c0.01774,0.02576 0.04033,0.04781 0.06652,0.06492c0.18624,0.12629 0.3881,0.27653 0.60556,0.45071c0.13798,0.11083 0.27404,0.22401 0.40814,0.3395c0.37781,0.3246 0.69975,0.62525 0.96581,0.90195c0.0046,0.00549 0.00939,0.01081 0.01437,0.01596zM196.69721,142.95892c-0.12042,-0.05235 -0.22957,-0.12752 -0.3214,-0.22136c-0.00303,-0.003 -0.00605,-0.00602 -0.00905,-0.00905c-0.18466,-0.18003 -0.28803,-0.42749 -0.28628,-0.68538c-0.00002,-0.00426 -0.00002,-0.00851 0,-0.01277c-0.00048,-0.26302 0.10615,-0.51489 0.29533,-0.69762c0.003,-0.00303 0.00602,-0.00605 0.00905,-0.00905c0.18003,-0.18466 0.42749,-0.28803 0.68538,-0.28628c0.00639,-0.00005 0.01277,-0.00005 0.01916,0c0.25868,0.00027 0.50582,0.10709 0.68325,0.29533c0.19157,0.19689 0.28735,0.43368 0.28735,0.71039c0,0.26606 -0.09578,0.49754 -0.28735,0.69442c-0.0044,0.00465 -0.00883,0.00926 -0.0133,0.01384c-0.18123,0.18458 -0.43047,0.28639 -0.6891,0.28149c-0.12807,0.00092 -0.25499,-0.02425 -0.37302,-0.07397zM230.12857,142.13147c-0.0071,0.00006 -0.0142,-0.00012 -0.02129,-0.00053c-0.07982,-0.00532 -0.14633,-0.03991 -0.19955,-0.10376c-0.08656,-0.10571 -0.21001,-0.23538 -0.37036,-0.38898c-0.0175,-0.01674 -0.03506,-0.03341 -0.05268,-0.05002c-0.18624,-0.1756 -0.38047,-0.3512 -0.58268,-0.52681c-0.16673,-0.14474 -0.3081,-0.25879 -0.4241,-0.34216c-0.02331,-0.01672 -0.0469,-0.03304 -0.07077,-0.04896c-0.03709,-0.03011 -0.0657,-0.06935 -0.08301,-0.11388c-0.00909,-0.02253 -0.01604,-0.04587 -0.02075,-0.06971c-0.00272,-0.013 -0.00467,-0.02615 -0.00585,-0.03938c-0.00497,-0.06279 0.01029,-0.11618 0.04576,-0.16017c0.01891,-0.02432 0.04012,-0.04678 0.06332,-0.06705c0.09685,-0.08372 0.20363,-0.09117 0.32034,-0.02235c0.0052,0.00309 0.01035,0.00629 0.01543,0.00958c0.04757,0.03315 0.09423,0.06757 0.13995,0.10323c0.10252,0.07947 0.21941,0.17773 0.35067,0.2948c0.00942,0.00832 0.01882,0.01666 0.0282,0.02501c0.20753,0.18624 0.4124,0.37515 0.61461,0.56671c0.05924,0.05602 0.11778,0.11279 0.1756,0.17028c0.11849,0.11813 0.21427,0.22101 0.28735,0.30863c0.02408,0.02358 0.0431,0.05182 0.05587,0.08301c0.011,0.02767 0.0165,0.05712 0.0165,0.08833c0.00006,0.00674 -0.00011,0.01349 -0.00053,0.02022c-0.00532,0.0745 -0.03991,0.13835 -0.10376,0.19157c-0.04594,0.04682 -0.10894,0.07294 -0.17454,0.07237c-0.00142,0 -0.00266,0 -0.00372,0zM228.68545,143.28193c-0.008,-0.00817 -0.01564,-0.01669 -0.02288,-0.02554c-0.08514,-0.12771 -0.21551,-0.28735 -0.39111,-0.47891c-0.1756,-0.19157 -0.35652,-0.37781 -0.54277,-0.55873c-0.05461,-0.05309 -0.10996,-0.10542 -0.16602,-0.15698c-0.11529,-0.10607 -0.21693,-0.1921 -0.30491,-0.25808c-0.03012,-0.02447 -0.05508,-0.05468 -0.07343,-0.08887c-0.01779,-0.03435 -0.02813,-0.07206 -0.03033,-0.11068c-0.00041,-0.00709 -0.00059,-0.01419 -0.00053,-0.02129c0,-0.03867 0.0071,-0.07397 0.02129,-0.10589c0.0125,-0.02702 0.02982,-0.05154 0.05108,-0.07237c0.02242,-0.02738 0.049,-0.05108 0.07875,-0.07024c0.03421,-0.02174 0.07267,-0.03589 0.11281,-0.04151c0.01111,-0.00161 0.0223,-0.0025 0.03352,-0.00266c0.06031,-0.00071 0.11299,0.02146 0.15804,0.06652c0.12204,0.10146 0.27546,0.24425 0.46029,0.42836c0.00888,0.00886 0.01775,0.01773 0.02661,0.02661c0.19689,0.19689 0.39111,0.39909 0.58268,0.60662c0.19157,0.20753 0.33524,0.37515 0.43102,0.50286c0.01644,0.01937 0.03022,0.04084 0.04097,0.06386c0.02057,0.04505 0.02572,0.09241 0.01543,0.14208c-0.00018,0.00053 -0.00035,0.00106 -0.00053,0.0016c-0.01437,0.0662 -0.04873,0.12639 -0.09844,0.17241c-0.00688,0.00662 -0.01397,0.01302 -0.02129,0.01916c-0.05144,0.04115 -0.11299,0.05747 -0.18465,0.04896c-0.00231,-0.00033 -0.00462,-0.00069 -0.00692,-0.00106c-0.06425,-0.00916 -0.12362,-0.0395 -0.16868,-0.0862z"/></g></g></svg>