<svg version="1.1" xmlns="http://www.w3.org/2000/svg" xmlns:xlink="http://www.w3.org/1999/xlink" width="42.86983" height="77.5" viewBox="0,0,42.86983,77.5"><g transform="translate(-218.63044,-141.25)"><g data-paper-data="{&quot;isPaintingLayer&quot;:true}" fill="#000000" fill-rule="evenodd" stroke="#000000" stroke-width="5" stroke-linecap="round" stroke-linejoin="miter" stroke-miterlimit="10" stroke-dasharray="" stroke-dashoffset="0" style="mix-blend-mode: normal"><path d="M223.22519,201.684c-1.128,-4.176 -1.827,-9.368 -2.097,-15.576c-0.08719,-2.0515 -0.12987,-4.10465 -0.128,-6.158c-0.0083,-3.13716 0.09777,-6.27357 0.318,-9.403c0.58533,-7.97867 1.97933,-14.061 4.182,-18.247c3,-5.7 7.83333,-8.55 14.5,-8.55c6.25467,0 10.89533,2.508 13.922,7.524c0.20263,0.33629 0.39538,0.67844 0.578,1.026c0.97537,1.91303 1.73857,3.92701 2.276,6.006c1.128,4.166 1.827,9.338 2.097,15.516c0.08686,2.0415 0.1292,4.08465 0.127,6.128c0,12.8 -1.5,22.05 -4.5,27.75c-3,5.7 -7.83333,8.55 -14.5,8.55c-6.254,0 -10.89433,-2.50833 -13.921,-7.525c-0.20295,-0.33595 -0.39603,-0.67776 -0.579,-1.025c-0.97601,-1.91612 -1.73891,-3.93352 -2.275,-6.016zM238.41819,212.673c-2.63077,-0.21547 -5.11613,-1.29605 -7.068,-3.073c-2.3,-2.1 -4.01667,-5.55 -5.15,-10.35c-0.77867,-3.3 -1.29,-7.372 -1.534,-12.216c-0.11444,-2.35958 -0.16979,-4.72165 -0.166,-7.084c0.00014,-0.362 0.00147,-0.72401 0.004,-1.086c0.03333,-5.04 0.3,-9.414 0.8,-13.122c0.21704,-1.66109 0.51608,-3.31044 0.896,-4.942c0.29795,-1.27544 0.67059,-2.53228 1.116,-3.764c0.476,-1.29867 1.01333,-2.45667 1.612,-3.474c0.64961,-1.13608 1.46603,-2.16824 2.422,-3.062c1.27071,-1.168 2.78578,-2.03809 4.435,-2.547c1.36651,-0.41262 2.78762,-0.61592 4.215,-0.603c0.74526,-0.00214 1.48975,0.04798 2.228,0.15c2.41749,0.3003 4.68048,1.34928 6.472,3c0.8924,0.8447 1.66009,1.81206 2.28,2.873c0.60267,1.00533 1.145,2.15233 1.627,3.441c0.4797,1.30272 0.87814,2.63394 1.193,3.986c0.05252,0.22057 0.10319,0.44158 0.152,0.663c0.694,3.154 1.15467,6.974 1.382,11.46c0.11444,2.34056 0.16979,4.68364 0.166,7.027c0.00019,0.36467 -0.00081,0.72934 -0.003,1.094c-0.03333,5.082 -0.3,9.491 -0.8,13.227c-0.21723,1.67336 -0.51659,3.33504 -0.897,4.979c-0.708,3 -1.63767,5.47267 -2.789,7.418c-0.62462,1.08386 -1.40304,2.07146 -2.311,2.932c-1.3172,1.22436 -2.90602,2.11884 -4.636,2.61c-1.32249,0.37042 -2.69067,0.55221 -4.064,0.54c-0.52828,0.00061 -1.05627,-0.02509 -1.582,-0.077z"/></g></g></svg>