<svg version="1.1" xmlns="http://www.w3.org/2000/svg" xmlns:xlink="http://www.w3.org/1999/xlink" width="186.91021" height="62.14145" viewBox="0,0,186.91021,62.14145"><g transform="translate(-146.52979,-132.43855)"><g data-paper-data="{&quot;isPaintingLayer&quot;:true}" fill="#000000" fill-rule="evenodd" stroke="#000000" stroke-width="1.5" stroke-linecap="round" stroke-linejoin="miter" stroke-miterlimit="10" stroke-dasharray="" stroke-dashoffset="0" style="mix-blend-mode: normal"><path d="M282.4235,193.518c0.02889,0.05436 0.066,0.10394 0.11,0.147c0.01529,0.01542 0.03131,0.03011 0.048,0.044c0.091,0.07818 0.20703,0.12112 0.327,0.121c0.01067,-0.00008 0.02134,-0.00041 0.032,-0.001c0.13685,-0.00293 0.26641,-0.06228 0.358,-0.164c0.00371,-0.00396 0.00738,-0.00796 0.011,-0.012c0.08987,-0.0995 0.13943,-0.22892 0.139,-0.363v-13.8c0.48,0.76 1.015,1.51 1.605,2.25c0.17509,0.22003 0.35311,0.43772 0.534,0.653c0.378,0.44867 0.725,0.831 1.041,1.147c0.05837,0.05867 0.1306,0.10166 0.21,0.125c0.05846,0.01706 0.1191,0.02548 0.18,0.025c0.16,0 0.29,-0.05 0.39,-0.15c0.05867,-0.05837 0.10166,-0.1306 0.125,-0.21c0.01706,-0.05846 0.02548,-0.1191 0.025,-0.18c0,-0.16 -0.05,-0.29 -0.15,-0.39c-0.4,-0.36 -0.85,-0.815 -1.35,-1.365c-0.5,-0.55 -0.98,-1.125 -1.44,-1.725c-0.46,-0.6 -0.85,-1.14 -1.17,-1.62v-2.43h4.53c0.14,0 0.26,-0.05 0.36,-0.15c0.00168,-0.00166 0.00334,-0.00332 0.005,-0.005c0.09455,-0.09372 0.1469,-0.22188 0.145,-0.355c0.00039,-0.04022 -0.00296,-0.0804 -0.01,-0.12c-0.01656,-0.09836 -0.0659,-0.18823 -0.14,-0.255c-0.1,-0.09 -0.22,-0.135 -0.36,-0.135h-4.53v-5.31c0.21549,-0.05237 0.4305,-0.1067 0.645,-0.163c1.28733,-0.33867 2.41233,-0.71433 3.375,-1.127c0.264,-0.12333 0.35,-0.324 0.258,-0.602c-0.01364,-0.04025 -0.02967,-0.07966 -0.048,-0.118c-0.00914,-0.01814 -0.01915,-0.03583 -0.03,-0.053c-0.12733,-0.20267 -0.34,-0.26133 -0.638,-0.176c-0.04812,0.01395 -0.09552,0.0303 -0.142,0.049c-0.7,0.3 -1.58,0.605 -2.64,0.915c-1.06,0.31 -2.17,0.58 -3.33,0.81c-1.16,0.23 -2.24,0.395 -3.24,0.495c-0.05815,0.00627 -0.11546,0.01867 -0.171,0.037c-0.09532,0.03013 -0.18115,0.08458 -0.249,0.158c-0.1,0.11 -0.14,0.225 -0.12,0.345c0.00457,0.04766 0.01327,0.09484 0.026,0.141c0.07733,0.276 0.29833,0.402 0.663,0.378c0.03041,-0.00212 0.06076,-0.00512 0.091,-0.009c0.17709,-0.02535 0.3541,-0.05135 0.531,-0.078c0.55388,-0.08342 1.10691,-0.17243 1.659,-0.267c0.76,-0.13 1.52,-0.285 2.28,-0.465v5.04h-5.07c-0.14,0 -0.26,0.045 -0.36,0.135c-0.1,0.09 -0.15,0.215 -0.15,0.375c0,0.14 0.05,0.26 0.15,0.36c0.00166,0.00168 0.00332,0.00334 0.005,0.005c0.09372,0.09455 0.22188,0.1469 0.355,0.145h5.01c-0.32,0.86 -0.715,1.775 -1.185,2.745c-0.47,0.97 -0.98,1.935 -1.53,2.895c-0.06839,0.11935 -0.1374,0.23835 -0.207,0.357c-0.47083,0.80483 -0.97219,1.5914 -1.503,2.358c-0.28123,0.40596 -0.57265,0.80475 -0.874,1.196c-0.27296,0.35496 -0.55676,0.70146 -0.851,1.039c-0.03109,0.03884 -0.05513,0.08284 -0.071,0.13c-0.01867,0.05467 -0.02667,0.11433 -0.024,0.179c0.00059,0.02207 0.00226,0.04409 0.005,0.066c0.01,0.07267 0.02667,0.137 0.05,0.193c0.02314,0.05668 0.0571,0.10831 0.1,0.152c0.02635,0.02131 0.05372,0.04133 0.082,0.06c0.26733,0.174 0.51,0.134 0.728,-0.12c0.33494,-0.40941 0.65645,-0.82963 0.964,-1.26c0.33666,-0.47111 0.66045,-0.95129 0.971,-1.44c0.65,-1.02 1.27,-2.09 1.86,-3.21c0.1462,-0.27701 0.28921,-0.5557 0.429,-0.836c0.40265,-0.8071 0.77491,-1.62901 1.116,-2.464v15.63c-0.00047,0.07934 0.0184,0.1576 0.055,0.228zM302.8905,192.059c0.13685,-0.00293 0.26641,-0.06228 0.358,-0.164c0.00371,-0.00396 0.00738,-0.00796 0.011,-0.012c0.08987,-0.0995 0.13943,-0.22892 0.139,-0.363c0,-0.16 -0.05,-0.29 -0.15,-0.39c-0.05837,-0.05867 -0.1306,-0.10166 -0.21,-0.125c-0.05846,-0.01706 -0.1191,-0.02548 -0.18,-0.025h-6.69v-4.8h5.1c0.01067,-0.00008 0.02134,-0.00041 0.032,-0.001c0.13685,-0.00293 0.26641,-0.06228 0.358,-0.164c0.00371,-0.00396 0.00738,-0.00796 0.011,-0.012c0.08987,-0.0995 0.13943,-0.22892 0.139,-0.363c0,-0.16 -0.05,-0.29 -0.15,-0.39c-0.05837,-0.05867 -0.1306,-0.10166 -0.21,-0.125c-0.05846,-0.01706 -0.1191,-0.02548 -0.18,-0.025h-5.1v-4.41h5.79c0.01067,-0.00008 0.02134,-0.00041 0.032,-0.001c0.13685,-0.00293 0.26641,-0.06228 0.358,-0.164c0.00371,-0.00396 0.00738,-0.00796 0.011,-0.012c0.08987,-0.0995 0.13943,-0.22892 0.139,-0.363c0,-0.16 -0.05,-0.29 -0.15,-0.39c-0.05837,-0.05867 -0.1306,-0.10166 -0.21,-0.125c-0.05846,-0.01706 -0.1191,-0.02548 -0.18,-0.025h-13.2c-0.06702,-0.0005 -0.13353,0.01171 -0.196,0.036c-0.06613,0.02675 -0.1268,0.06539 -0.179,0.114c-0.06073,0.05437 -0.10681,0.12315 -0.134,0.2c-0.02109,0.0611 -0.03157,0.12536 -0.031,0.19c-0.00047,0.07934 0.0184,0.1576 0.055,0.228c0.02889,0.05436 0.066,0.10394 0.11,0.147c0.01529,0.01542 0.03131,0.03011 0.048,0.044c0.091,0.07818 0.20703,0.12112 0.327,0.121h6.33v4.41h-5.55c-0.06702,-0.0005 -0.13353,0.01171 -0.196,0.036c-0.06613,0.02675 -0.1268,0.06539 -0.179,0.114c-0.06073,0.05437 -0.10681,0.12315 -0.134,0.2c-0.02109,0.0611 -0.03157,0.12536 -0.031,0.19c-0.00047,0.07934 0.0184,0.1576 0.055,0.228c0.02889,0.05436 0.066,0.10394 0.11,0.147c0.01529,0.01542 0.03131,0.03011 0.048,0.044c0.091,0.07818 0.20703,0.12112 0.327,0.121h5.55v4.8h-7.5c-0.06702,-0.0005 -0.13353,0.01171 -0.196,0.036c-0.06613,0.02675 -0.1268,0.06539 -0.179,0.114c-0.06073,0.05437 -0.10681,0.12315 -0.134,0.2c-0.02109,0.0611 -0.03157,0.12536 -0.031,0.19c-0.00047,0.07934 0.0184,0.1576 0.055,0.228c0.02889,0.05436 0.066,0.10394 0.11,0.147c0.01529,0.01542 0.03131,0.03011 0.048,0.044c0.091,0.07818 0.20703,0.12112 0.327,0.121h15.27c0.01067,-0.00008 0.02134,-0.00041 0.032,-0.001zM309.0395,181.193c-0.05616,0.83507 -0.14155,1.66791 -0.256,2.497c-0.10353,0.74776 -0.2437,1.48998 -0.42,2.224c-0.20573,0.8629 -0.4765,1.70899 -0.81,2.531c-0.57,1.39 -1.355,2.675 -2.355,3.855c-0.08,0.096 -0.11833,0.202 -0.115,0.318c0.0009,0.02923 0.00424,0.05833 0.01,0.087c0.00095,0.00468 0.00195,0.00934 0.003,0.014c0.02668,0.13561 0.10666,0.25485 0.222,0.331c0.04295,0.02866 0.08931,0.05184 0.138,0.069c0.086,0.03067 0.18,0.04267 0.282,0.036c0.09533,-0.006 0.17633,-0.035 0.243,-0.087c0.04771,-0.03784 0.08748,-0.08474 0.117,-0.138c0.13176,-0.16384 0.26078,-0.32986 0.387,-0.498c0.85391,-1.12985 1.56058,-2.36376 2.103,-3.672c0.26934,-0.65893 0.49876,-1.33349 0.687,-2.02c0.26007,-0.95256 0.45651,-1.92137 0.588,-2.9c0.25,-1.82 0.375,-3.93 0.375,-6.33v-1.83c0.00009,-0.11701 0.00142,-0.23402 0.004,-0.351c0.01467,-0.69867 0.07467,-1.29233 0.18,-1.781c0.04879,-0.23482 0.11771,-0.46501 0.206,-0.688c0.1572,-0.3961 0.43227,-0.73435 0.788,-0.969c0.22469,-0.14679 0.4696,-0.25998 0.727,-0.336c0.10537,-0.03212 0.21176,-0.0608 0.319,-0.086c0.49267,-0.11667 1.10367,-0.194 1.833,-0.232c0.37737,-0.01876 0.75516,-0.02776 1.133,-0.027h16.86c0.01067,-0.00008 0.02134,-0.00041 0.032,-0.001c0.13685,-0.00293 0.26641,-0.06228 0.358,-0.164c0.00371,-0.00396 0.00738,-0.00796 0.011,-0.012c0.08987,-0.0995 0.13943,-0.22892 0.139,-0.363c0,-0.16 -0.05,-0.29 -0.15,-0.39c-0.05837,-0.05867 -0.1306,-0.10166 -0.21,-0.125c-0.05846,-0.01706 -0.1191,-0.02548 -0.18,-0.025h-10.92v-3.42c0,-0.16 -0.05,-0.29 -0.15,-0.39c-0.05837,-0.05867 -0.1306,-0.10166 -0.21,-0.125c-0.05846,-0.01706 -0.1191,-0.02548 -0.18,-0.025c-0.06702,-0.0005 -0.13353,0.01171 -0.196,0.036c-0.06613,0.02675 -0.1268,0.06539 -0.179,0.114c-0.06073,0.05437 -0.10681,0.12315 -0.134,0.2c-0.02109,0.0611 -0.03157,0.12536 -0.031,0.19v3.42h-4.86c-1.15467,0 -2.12533,0.07333 -2.912,0.22c-0.32489,0.05815 -0.64508,0.14003 -0.958,0.245c-0.08301,0.02864 -0.16505,0.05999 -0.246,0.094c-0.73069,0.28561 -1.3171,0.85114 -1.629,1.571c-0.24333,0.556 -0.402,1.27667 -0.476,2.162c-0.03379,0.41847 -0.05014,0.83817 -0.049,1.258v1.83c0,1.316 -0.03967,2.54367 -0.119,3.683zM209.7985,190.59c-0.94,-0.74 -1.61,-1.69 -2.01,-2.85c-0.13733,-0.35267 -0.03433,-0.6 0.309,-0.742c0.00697,-0.00274 0.01397,-0.0054 0.021,-0.008c0.0316,-0.01196 0.06402,-0.02165 0.097,-0.029c0.22933,-0.05 0.39967,0.052 0.511,0.306c0.02023,0.04656 0.0376,0.09432 0.052,0.143c0.34,0.96 0.89,1.745 1.65,2.355c0.64855,0.51774 1.43762,0.82884 2.265,0.893c0.16457,0.01495 0.32975,0.02229 0.495,0.022c0.48856,0.00346 0.97627,-0.04142 1.456,-0.134c0.928,-0.186 1.68267,-0.56633 2.264,-1.141c0.50833,-0.51012 0.87414,-1.14451 1.061,-1.84c0.124,-0.436 0.19767,-0.915 0.221,-1.437c0.0054,-0.12259 0.00807,-0.24529 0.008,-0.368c0,-1.02 -0.235,-1.905 -0.705,-2.655c-0.47,-0.75 -1.105,-1.33 -1.905,-1.74c-0.59294,-0.29996 -1.23468,-0.49163 -1.895,-0.566c-0.2771,-0.03301 -0.55594,-0.04937 -0.835,-0.049c-0.07525,0.00088 -0.15036,-0.0065 -0.224,-0.022c-0.21133,-0.04733 -0.33367,-0.17067 -0.367,-0.37c-0.00622,-0.03902 -0.00923,-0.07849 -0.009,-0.118c-0.00146,-0.07385 0.0104,-0.14736 0.035,-0.217c0.07333,-0.19533 0.26167,-0.293 0.565,-0.293c1.43533,0 2.57933,-0.38567 3.432,-1.157c0.02631,-0.024 0.05232,-0.04833 0.078,-0.073c0.68707,-0.65644 1.1244,-1.53144 1.237,-2.475c0.03604,-0.26345 0.05375,-0.52909 0.053,-0.795c0,-0.784 -0.13433,-1.44933 -0.403,-1.996c-0.06604,-0.13505 -0.14191,-0.26506 -0.227,-0.389c-0.42,-0.61 -0.97,-1.065 -1.65,-1.365c-0.68,-0.3 -1.41,-0.45 -2.19,-0.45c-0.43546,-0.00393 -0.86892,0.05948 -1.285,0.188c-0.4731,0.1495 -0.90929,0.39724 -1.28,0.727c-0.69,0.61 -1.225,1.365 -1.605,2.265c-0.02618,0.06 -0.05763,0.11756 -0.094,0.172c-0.13133,0.194 -0.298,0.267 -0.5,0.219c-0.03272,-0.00795 -0.06481,-0.01831 -0.096,-0.031c-0.36,-0.12 -0.46,-0.37 -0.3,-0.75c0.20396,-0.49149 0.45691,-0.9612 0.755,-1.402c0.38775,-0.57811 0.87941,-1.07926 1.45,-1.478c0.49429,-0.34614 1.04232,-0.60833 1.622,-0.776c0.43372,-0.12253 0.88231,-0.18445 1.333,-0.184c0.61047,-0.00499 1.21886,0.07169 1.809,0.228c0.79252,0.21111 1.52424,0.60574 2.136,1.152c0.74559,0.67029 1.24634,1.57009 1.423,2.557c0.0837,0.4326 0.12457,0.87239 0.122,1.313c0.00504,0.62919 -0.09223,1.25502 -0.288,1.853c-0.14434,0.43184 -0.34508,0.84272 -0.597,1.222c-0.57213,0.86111 -1.39846,1.52245 -2.364,1.892c-0.03686,0.01469 -0.07386,0.02903 -0.111,0.043c1.16,0.38 2.105,1.06 2.835,2.04c0.63081,0.8519 1.00328,1.86727 1.073,2.925c0.01469,0.18464 0.02203,0.36978 0.022,0.555c0.00392,0.67896 -0.08524,1.35526 -0.265,2.01c-0.09169,0.32856 -0.20871,0.64952 -0.35,0.96c-0.40914,0.89555 -1.0822,1.64467 -1.929,2.147c-0.00699,0.00435 -0.01399,0.00868 -0.021,0.013c-0.89,0.54 -2.055,0.81 -3.495,0.81c-0.60447,0.00524 -1.20616,-0.08245 -1.784,-0.26c-0.58263,-0.18318 -1.12689,-0.47124 -1.606,-0.85zM316.9375,185.448c1.0025,1.40782 2.20171,2.66461 3.561,3.732c-0.51463,0.29125 -1.03928,0.56442 -1.573,0.819c-0.94942,0.4515 -1.92136,0.85403 -2.912,1.206c-0.68901,0.24535 -1.38872,0.45957 -2.097,0.642c-1.11246,0.28515 -2.24029,0.50651 -3.378,0.663c-0.36867,0.05533 -0.542,0.247 -0.52,0.575c0.00209,0.02847 0.00543,0.05683 0.01,0.085c0.1,0.36 0.36,0.51 0.78,0.45c4.18,-0.78 7.72,-2.04 10.62,-3.78c0.26745,0.17685 0.53955,0.34657 0.816,0.509c1.24103,0.72478 2.55664,1.31352 3.924,1.756c0.78751,0.25672 1.58595,0.4786 2.393,0.665c1.1218,0.25814 2.25547,0.46171 3.397,0.61c0.02393,0.00328 0.04794,0.00595 0.072,0.008c0.39667,0.03333 0.63267,-0.12933 0.708,-0.488c0.026,-0.10267 0.023,-0.20133 -0.009,-0.296c-0.01928,-0.05504 -0.04657,-0.10693 -0.081,-0.154c-0.1,-0.14 -0.23,-0.21 -0.39,-0.21c-1.74,-0.14 -3.45,-0.455 -5.13,-0.945c-1.68,-0.49 -3.25,-1.185 -4.71,-2.085c1.2,-0.8 2.3,-1.67 3.3,-2.61c0.12472,-0.11599 0.24322,-0.23849 0.355,-0.367c0.41133,-0.478 0.633,-0.95567 0.665,-1.433c0.00319,-0.0456 0.00486,-0.09129 0.005,-0.137c0,-0.316 -0.076,-0.60267 -0.228,-0.86c-0.1156,-0.19159 -0.26344,-0.36176 -0.437,-0.503c-0.19097,-0.15593 -0.40659,-0.27895 -0.638,-0.364c-0.21733,-0.08267 -0.46067,-0.14367 -0.73,-0.183c-0.26239,-0.03665 -0.52707,-0.05436 -0.792,-0.053h-11.19c-0.06702,-0.0005 -0.13353,0.01171 -0.196,0.036c-0.06613,0.02675 -0.1268,0.06539 -0.179,0.114c-0.06073,0.05437 -0.10681,0.12315 -0.134,0.2c-0.02109,0.0611 -0.03157,0.12536 -0.031,0.19c-0.00047,0.07934 0.0184,0.1576 0.055,0.228c0.02889,0.05436 0.066,0.10394 0.11,0.147c0.01529,0.01542 0.03131,0.03011 0.048,0.044c0.091,0.07818 0.20703,0.12112 0.327,0.121h3.12c0.33753,0.57222 0.70091,1.12879 1.089,1.668zM197.2535,193.098c0.02889,0.05436 0.066,0.10394 0.11,0.147c0.01529,0.01542 0.03131,0.03011 0.048,0.044c0.091,0.07818 0.20703,0.12112 0.327,0.121c0.01067,-0.00008 0.02134,-0.00041 0.032,-0.001c0.13685,-0.00293 0.26641,-0.06228 0.358,-0.164c0.00371,-0.00396 0.00738,-0.00796 0.011,-0.012c0.08987,-0.0995 0.13943,-0.22892 0.139,-0.363v-15.48h5.97c0.01067,-0.00008 0.02134,-0.00041 0.032,-0.001c0.13685,-0.00293 0.26641,-0.06228 0.358,-0.164c0.00371,-0.00396 0.00738,-0.00796 0.011,-0.012c0.08987,-0.0995 0.13943,-0.22892 0.139,-0.363c0,-0.16 -0.05,-0.29 -0.15,-0.39c-0.05837,-0.05867 -0.1306,-0.10166 -0.21,-0.125c-0.05846,-0.01706 -0.1191,-0.02548 -0.18,-0.025h-5.97v-9.27c0,-0.16 -0.05,-0.29 -0.15,-0.39c-0.05837,-0.05867 -0.1306,-0.10166 -0.21,-0.125c-0.05846,-0.01706 -0.1191,-0.02548 -0.18,-0.025c-0.06702,-0.0005 -0.13353,0.01171 -0.196,0.036c-0.06613,0.02675 -0.1268,0.06539 -0.179,0.114c-0.06073,0.05437 -0.10681,0.12315 -0.134,0.2c-0.02109,0.0611 -0.03157,0.12536 -0.031,0.19v9.27h-6.27c-0.06702,-0.0005 -0.13353,0.01171 -0.196,0.036c-0.06613,0.02675 -0.1268,0.06539 -0.179,0.114c-0.06073,0.05437 -0.10681,0.12315 -0.134,0.2c-0.02109,0.0611 -0.03157,0.12536 -0.031,0.19c-0.00047,0.07934 0.0184,0.1576 0.055,0.228c0.02889,0.05436 0.066,0.10394 0.11,0.147c0.01529,0.01542 0.03131,0.03011 0.048,0.044c0.091,0.07818 0.20703,0.12112 0.327,0.121h6.27v15.48c-0.00047,0.07934 0.0184,0.1576 0.055,0.228zM147.6685,179.055c-0.0617,-0.00957 -0.12166,-0.0281 -0.178,-0.055c-0.08946,-0.04341 -0.16346,-0.11322 -0.212,-0.2c-0.02317,-0.03676 -0.04356,-0.0752 -0.061,-0.115c-0.10067,-0.23133 -0.037,-0.422 0.191,-0.572c0.0354,-0.02314 0.07213,-0.04418 0.11,-0.063c0.83463,-0.46031 1.64998,-0.95473 2.444,-1.482c0.66781,-0.443 1.32339,-0.90417 1.966,-1.383c1.52,-1.13 2.99,-2.35 4.41,-3.66c0.76584,-0.70433 1.50824,-1.43373 2.226,-2.187c0.51462,-0.54089 1.01285,-1.09714 1.494,-1.668c0.1234,-0.14689 0.26071,-0.28151 0.41,-0.402c0.32933,-0.262 0.67333,-0.393 1.032,-0.393c0.00933,-0.00009 0.01867,-0.00009 0.028,0c0.44133,0.00867 0.87533,0.20067 1.302,0.576c0.07901,0.0698 0.15507,0.14287 0.228,0.219c0.61549,0.66098 1.24838,1.30554 1.898,1.933c0.54821,0.53035 1.10563,1.05109 1.672,1.562c1.29313,1.1646 2.63887,2.26942 4.033,3.311c0.09546,0.07161 0.19113,0.14294 0.287,0.214c1.54,1.14 3.13,2.18 4.77,3.12c0.14,0.08 0.235,0.195 0.285,0.345c0.05,0.15 0.025,0.305 -0.075,0.465c-0.06473,0.11812 -0.17807,0.20185 -0.31,0.229c-0.02146,0.00481 -0.04315,0.00848 -0.065,0.011c-0.16133,0.01933 -0.31833,-0.00667 -0.471,-0.078c-0.00805,-0.00389 -0.01605,-0.00789 -0.024,-0.012c-2.42,-1.46 -4.73,-3.1 -6.93,-4.92c-1.1878,-0.97926 -2.33765,-2.00368 -3.447,-3.071c-0.79843,-0.76931 -1.5699,-1.56612 -2.313,-2.389c-0.06507,-0.07885 -0.13629,-0.15241 -0.213,-0.22c-0.44867,-0.38867 -0.89767,-0.31533 -1.347,0.22c-1.12,1.32 -2.39,2.63 -3.81,3.93c-1.42,1.3 -2.89,2.525 -4.41,3.675c-0.91008,0.69053 -1.84433,1.34861 -2.801,1.973c-0.53804,0.35059 -1.08453,0.68802 -1.639,1.012c-0.10267,0.05827 -0.21895,0.08829 -0.337,0.087c-0.046,0 -0.09367,-0.004 -0.143,-0.012zM255.1255,191.307c0.36815,-0.03826 0.73449,-0.09231 1.098,-0.162c0.09039,-0.01747 0.18041,-0.03681 0.27,-0.058c0.362,-0.08667 0.69133,-0.19933 0.988,-0.338c0.37229,-0.16877 0.71289,-0.40012 1.007,-0.684c0.12987,-0.12767 0.24863,-0.26617 0.355,-0.414c0.194,-0.26933 0.359,-0.58033 0.495,-0.933c0.11696,-0.30811 0.20892,-0.62513 0.275,-0.948c0.14467,-0.68733 0.23933,-1.51667 0.284,-2.488c0.02123,-0.47036 0.03156,-0.94116 0.031,-1.412v-7.86c0.00072,-0.49287 -0.01062,-0.98568 -0.034,-1.478c-0.046,-0.94267 -0.13967,-1.75 -0.281,-2.422c-0.02959,-0.14104 -0.0636,-0.2811 -0.102,-0.42c-0.09533,-0.34533 -0.21333,-0.65833 -0.354,-0.939c-0.16965,-0.34688 -0.39573,-0.66318 -0.669,-0.936c-0.33733,-0.33133 -0.75867,-0.59633 -1.264,-0.795c-0.32441,-0.12495 -0.65943,-0.22033 -1.001,-0.285c-0.32228,-0.06199 -0.64686,-0.11136 -0.973,-0.148c-0.39733,-0.046 -0.828,-0.08033 -1.292,-0.103c-0.48965,-0.02331 -0.9798,-0.03464 -1.47,-0.034h-2.37c-0.39544,-0.00032 -0.79085,0.00702 -1.186,0.022c-0.98067,0.038 -1.82533,0.12567 -2.534,0.263c-0.98,0.19 -1.74,0.55 -2.28,1.08c-0.12088,0.11909 -0.23222,0.24748 -0.333,0.384c-0.36667,0.494 -0.63567,1.131 -0.807,1.911c-0.08103,0.37607 -0.14377,0.75585 -0.188,1.138c-0.04933,0.41467 -0.086,0.86467 -0.11,1.35c-0.02208,0.47034 -0.03275,0.94114 -0.032,1.412v7.86c-0.00063,0.49289 0.01138,0.98572 0.036,1.478c0.048,0.94267 0.146,1.75 0.294,2.422c0.11333,0.51533 0.26933,0.96833 0.468,1.359c0.17153,0.34651 0.39852,0.66268 0.672,0.936c0.10027,0.09817 0.20683,0.1897 0.319,0.274c0.50667,0.382 1.16033,0.65067 1.961,0.806c0.31245,0.05964 0.627,0.10767 0.943,0.144c0.40733,0.048 0.848,0.08367 1.322,0.107c0.48465,0.02328 0.96979,0.03462 1.455,0.034h2.37c0.99733,0 1.87633,-0.041 2.637,-0.123zM316.2995,177.886c0.05333,0.582 0.173,1.06667 0.359,1.454c0.15874,0.33132 0.40405,0.6136 0.71,0.817c0.20758,0.13769 0.433,0.24636 0.67,0.323c0.04079,0.01364 0.0818,0.02664 0.123,0.039c0.43467,0.13 0.97233,0.21633 1.613,0.259c0.34088,0.02205 0.68241,0.03273 1.024,0.032c1.18,0 2.1,-0.11 2.76,-0.33c0.13887,-0.04577 0.27423,-0.10158 0.405,-0.167c0.42833,-0.2062 0.77641,-0.54831 0.99,-0.973c0.0927,-0.18831 0.16672,-0.38525 0.221,-0.588c0.06333,-0.22933 0.11033,-0.482 0.141,-0.758c0.02988,-0.28033 0.04424,-0.56209 0.043,-0.844v-0.75h5.7c0.01067,-0.00008 0.02134,-0.00041 0.032,-0.001c0.13685,-0.00293 0.26641,-0.06228 0.358,-0.164c0.00371,-0.00396 0.00738,-0.00796 0.011,-0.012c0.08987,-0.0995 0.13943,-0.22892 0.139,-0.363c0,-0.16 -0.05,-0.29 -0.15,-0.39c-0.05837,-0.05867 -0.1306,-0.10166 -0.21,-0.125c-0.05846,-0.01706 -0.1191,-0.02548 -0.18,-0.025h-5.7v-2.76c-0.0001,-0.01034 -0.00043,-0.02068 -0.001,-0.031c-0.00265,-0.1372 -0.06203,-0.26717 -0.164,-0.359c-0.00396,-0.00338 -0.00796,-0.00671 -0.012,-0.01c-0.09935,-0.09023 -0.22879,-0.14015 -0.363,-0.14c-0.06702,-0.0005 -0.13353,0.01171 -0.196,0.036c-0.06613,0.02675 -0.1268,0.06539 -0.179,0.114c-0.06073,0.05437 -0.10681,0.12315 -0.134,0.2c-0.02109,0.0611 -0.03157,0.12536 -0.031,0.19v2.76h-6.93v-2.76c0,-0.16 -0.05,-0.29 -0.15,-0.39c-0.05707,-0.05759 -0.12749,-0.10019 -0.205,-0.124c-0.05533,-0.01667 -0.11567,-0.02533 -0.181,-0.026c-0.00133,0 -0.00267,0 -0.004,0c-0.06702,-0.0005 -0.13353,0.01171 -0.196,0.036c-0.06613,0.02675 -0.1268,0.06539 -0.179,0.114c-0.06073,0.05437 -0.10681,0.12315 -0.134,0.2c-0.02109,0.0611 -0.03157,0.12536 -0.031,0.19v2.76h-5.07c-0.06702,-0.0005 -0.13353,0.01171 -0.196,0.036c-0.06613,0.02675 -0.1268,0.06539 -0.179,0.114c-0.06073,0.05437 -0.10681,0.12315 -0.134,0.2c-0.02109,0.0611 -0.03157,0.12536 -0.031,0.19c-0.00047,0.07934 0.0184,0.1576 0.055,0.228c0.02889,0.05436 0.066,0.10394 0.11,0.147c0.01529,0.01542 0.03131,0.03011 0.048,0.044c0.091,0.07818 0.20703,0.12112 0.327,0.121h5.07v0.75c-0.00074,0.24567 0.00961,0.49126 0.031,0.736zM224.5225,189.443c-0.061,-0.10095 -0.11902,-0.20366 -0.174,-0.308c-0.74867,-1.422 -1.186,-3.581 -1.312,-6.477c-0.02603,-0.61565 -0.0387,-1.2318 -0.038,-1.848c0,-3.82 0.45,-6.585 1.35,-8.295c0.31039,-0.61224 0.74496,-1.15307 1.276,-1.588c0.64933,-0.51933 1.432,-0.83167 2.348,-0.937c0.24104,-0.02719 0.48343,-0.04055 0.726,-0.04c0.62877,-0.00847 1.25429,0.09167 1.849,0.296c0.97267,0.348 1.74867,1.00167 2.328,1.961c0.06066,0.10096 0.11835,0.20367 0.173,0.308c0.74867,1.42267 1.186,3.575 1.312,6.457c0.02602,0.61232 0.03869,1.22513 0.038,1.838c0,3.84 -0.45,6.615 -1.35,8.325c-0.31009,0.61214 -0.74432,1.15297 -1.275,1.588c-0.65,0.51933 -1.433,0.83167 -2.349,0.937c-0.24104,0.02719 -0.48343,0.04055 -0.726,0.04c-0.62844,0.00835 -1.25361,-0.09178 -1.848,-0.296c-0.97333,-0.348 -1.74933,-1.00167 -2.328,-1.961zM228.2235,190.627c-0.78911,-0.06473 -1.53457,-0.38893 -2.12,-0.922c-0.27654,-0.25837 -0.51372,-0.55586 -0.704,-0.883c-0.18267,-0.30533 -0.34667,-0.65433 -0.492,-1.047c-0.14016,-0.38419 -0.25671,-0.77659 -0.349,-1.175c-0.23333,-0.99 -0.38667,-2.21167 -0.46,-3.665c-0.03439,-0.70781 -0.05107,-1.41636 -0.05,-2.125c0,-1.65 0.08033,-3.07067 0.241,-4.262c0.06517,-0.49847 0.15494,-0.9934 0.269,-1.483c0.08946,-0.38257 0.20132,-0.75955 0.335,-1.129c0.14267,-0.38933 0.30367,-0.73667 0.483,-1.042c0.19497,-0.34099 0.44004,-0.65078 0.727,-0.919c0.38136,-0.35043 0.83606,-0.61143 1.331,-0.764c0.40979,-0.12376 0.83595,-0.18479 1.264,-0.181c0.22344,-0.00063 0.44666,0.01441 0.668,0.045c0.7254,0.08998 1.40446,0.40468 1.942,0.9c0.47267,0.438 0.86333,1.06933 1.172,1.894c0.14395,0.39088 0.26352,0.79031 0.358,1.196c0.234,0.98333 0.38733,2.19567 0.46,3.637c0.0344,0.70213 0.05107,1.40502 0.05,2.108c0,1.664 -0.08033,3.096 -0.241,4.296c-0.06512,0.50211 -0.1549,1.00071 -0.269,1.494c-0.09376,0.40555 -0.21231,0.80497 -0.355,1.196c-0.14267,0.38533 -0.30333,0.72833 -0.482,1.029c-0.18726,0.32528 -0.42068,0.6217 -0.693,0.88c-0.39521,0.36734 -0.87193,0.63569 -1.391,0.783c-0.39668,0.11111 -0.80707,0.16565 -1.219,0.162c-0.15862,0.00023 -0.31715,-0.00745 -0.475,-0.023zM248.8985,190.326c-0.38067,-0.016 -0.73467,-0.04033 -1.062,-0.073c-0.31592,-0.03006 -0.6305,-0.07276 -0.943,-0.128c-0.08001,-0.0146 -0.1597,-0.03093 -0.239,-0.049c-0.716,-0.16133 -1.28133,-0.445 -1.696,-0.851c-0.11548,-0.11337 -0.22057,-0.23686 -0.314,-0.369c-0.16067,-0.226 -0.29767,-0.48667 -0.411,-0.782c-0.09995,-0.26462 -0.17853,-0.53683 -0.235,-0.814c-0.001,-0.00467 -0.002,-0.00933 -0.003,-0.014c-0.178,-0.858 -0.267,-1.98333 -0.267,-3.376v-3.6h15.12v3.6c0.00078,0.43048 -0.00822,0.86093 -0.027,1.291c-0.01867,0.40133 -0.04633,0.77333 -0.083,1.116c-0.03383,0.32964 -0.08221,0.65763 -0.145,0.983c-0.02383,0.12118 -0.05151,0.24158 -0.083,0.361c-0.18133,0.68467 -0.46867,1.21933 -0.862,1.604c-0.08213,0.08047 -0.16931,0.15562 -0.261,0.225c-0.43267,0.32667 -0.99067,0.55167 -1.674,0.675c-0.54467,0.09867 -1.19467,0.16467 -1.95,0.198c-0.42475,0.01848 -0.84985,0.02748 -1.275,0.027h-2.37c-0.40679,0.0006 -0.81355,-0.0074 -1.22,-0.024zM243.7295,175.817c0.00733,-1.33 0.097,-2.40067 0.269,-3.212c0.02525,-0.11988 0.05426,-0.23894 0.087,-0.357c0.18867,-0.67733 0.47967,-1.20833 0.873,-1.593c0.08245,-0.0805 0.16996,-0.15566 0.262,-0.225c0.432,-0.32667 0.98967,-0.55167 1.673,-0.675c0.54467,-0.09867 1.195,-0.16467 1.951,-0.198c0.42441,-0.01847 0.84919,-0.02747 1.274,-0.027h2.37c0.40679,-0.0006 0.81355,0.0074 1.22,0.024c0.38067,0.016 0.73467,0.04033 1.062,0.073c0.31592,0.03006 0.6305,0.07276 0.943,0.128c0.08035,0.01458 0.16037,0.03092 0.24,0.049c0.71533,0.16133 1.28033,0.445 1.695,0.851c0.1103,0.10843 0.21101,0.2262 0.301,0.352c0.16467,0.22867 0.30367,0.49267 0.417,0.792c0.09762,0.26199 0.17354,0.53157 0.227,0.806c0.17,0.85 0.255,1.985 0.255,3.405v3.18h-15.12v-3.18c0.00014,-0.06433 0.00048,-0.12867 0.001,-0.193zM167.1985,192.33c0.78,-0.3 1.35,-0.825 1.71,-1.575c0.36,-0.75 0.54,-1.775 0.54,-3.075c0,-0.00667 0,-0.01333 0,-0.02c-0.002,-1.31067 -0.182,-2.334 -0.54,-3.07c-0.36,-0.74 -0.93,-1.265 -1.71,-1.575c-0.26036,-0.10173 -0.52814,-0.18331 -0.801,-0.244c-0.33,-0.07533 -0.691,-0.13133 -1.083,-0.168c-0.40096,-0.03638 -0.8034,-0.05407 -1.206,-0.053h-5.01c-1.26,0 -2.285,0.155 -3.075,0.465c-0.79,0.31 -1.37,0.835 -1.74,1.575c-0.14421,0.29584 -0.25522,0.60673 -0.331,0.927c-0.14933,0.604 -0.224,1.325 -0.224,2.163c0,0.81267 0.07233,1.51767 0.217,2.115c0.07698,0.33147 0.19034,0.65342 0.338,0.96c0.37,0.75 0.95,1.275 1.74,1.575c0.79,0.3 1.815,0.45 3.075,0.45h5.01c1.28,0 2.31,-0.15 3.09,-0.45zM156.6385,191.37c-0.01002,-0.00328 -0.02002,-0.00661 -0.03,-0.01c-0.59949,-0.20011 -1.09208,-0.63496 -1.365,-1.205c-0.19933,-0.40533 -0.33,-0.922 -0.392,-1.55c-0.02953,-0.30744 -0.04388,-0.61615 -0.043,-0.925c0.00008,-0.04467 0.00041,-0.08934 0.001,-0.134c0.00733,-0.65067 0.06933,-1.20933 0.186,-1.676c0.05805,-0.23973 0.14118,-0.47268 0.248,-0.695c0.12499,-0.25908 0.29611,-0.49324 0.505,-0.691c0.2559,-0.23615 0.55935,-0.41481 0.89,-0.524c0.20321,-0.06889 0.41064,-0.12467 0.621,-0.167c0.27067,-0.05533 0.56567,-0.09667 0.885,-0.124c0.3273,-0.02686 0.6556,-0.03987 0.984,-0.039h4.95c0.68267,0 1.27467,0.04733 1.776,0.142c0.24247,0.04427 0.48117,0.10712 0.714,0.188c0.62,0.22 1.075,0.625 1.365,1.215c0.20067,0.408 0.332,0.933 0.394,1.575c0.0285,0.30917 0.04218,0.61952 0.041,0.93c0.00001,0.01067 0.00001,0.02133 0,0.032c-0.002,0.66533 -0.06133,1.23733 -0.178,1.716c-0.0592,0.25089 -0.14537,0.49464 -0.257,0.727c-0.29,0.59 -0.745,0.995 -1.365,1.215c-0.2367,0.08208 -0.47944,0.14561 -0.726,0.19c-0.49867,0.09333 -1.08667,0.14 -1.764,0.14h-4.95c-1.02,0 -1.85,-0.11 -2.49,-0.33zM298.5825,176.442c0.26616,-0.0517 0.52744,-0.12597 0.781,-0.222c0.67,-0.26 1.14,-0.705 1.41,-1.335c0.00303,-0.00732 0.00603,-0.01466 0.009,-0.022c0.18067,-0.42933 0.29967,-0.96633 0.357,-1.611c0.0271,-0.31994 0.04011,-0.64092 0.039,-0.962c0.00006,-0.02233 0.00006,-0.04467 0,-0.067c-0.00533,-1.068 -0.14033,-1.90567 -0.405,-2.513c-0.13619,-0.31934 -0.34104,-0.60477 -0.6,-0.836c-0.23885,-0.20853 -0.5132,-0.37246 -0.81,-0.484c-0.01529,-0.0061 -0.03063,-0.0121 -0.046,-0.018c-0.45333,-0.16867 -1.019,-0.28 -1.697,-0.334c-0.34336,-0.02629 -0.68763,-0.03896 -1.032,-0.038h-2.13c-0.774,0 -1.43867,0.056 -1.994,0.168c-0.26616,0.0517 -0.52744,0.12597 -0.781,0.222c-0.0258,0.01 -0.05147,0.02033 -0.077,0.031c-0.59889,0.23402 -1.07902,0.6983 -1.333,1.289c-0.18533,0.426 -0.307,0.96567 -0.365,1.619c-0.02747,0.31959 -0.04082,0.64023 -0.04,0.961c0,0.722 0.05833,1.34267 0.175,1.862c0.054,0.25088 0.131,0.49624 0.23,0.733c0.1313,0.31358 0.32802,0.59553 0.577,0.827c0.24314,0.22036 0.52577,0.39273 0.833,0.508c0.01529,0.0061 0.03063,0.0121 0.046,0.018c0.45333,0.16867 1.01933,0.28 1.698,0.334c0.34303,0.02626 0.68697,0.03894 1.031,0.038h2.13c0.77467,0 1.43933,-0.056 1.994,-0.168zM169.0635,178.239c0.05473,-0.02907 0.10383,-0.06768 0.145,-0.114c0.00371,-0.00396 0.00738,-0.00796 0.011,-0.012c0.08987,-0.0995 0.13943,-0.22892 0.139,-0.363c0,-0.16 -0.05,-0.29 -0.15,-0.39c-0.00166,-0.00168 -0.00332,-0.00334 -0.005,-0.005c-0.09372,-0.09455 -0.22188,-0.1469 -0.355,-0.145h-14.55c-0.06702,-0.0005 -0.13353,0.01171 -0.196,0.036c-0.06613,0.02675 -0.1268,0.06539 -0.179,0.114c-0.06073,0.05437 -0.10681,0.12315 -0.134,0.2c-0.02109,0.0611 -0.03157,0.12536 -0.031,0.19c-0.00047,0.07934 0.0184,0.1576 0.055,0.228c0.02889,0.05436 0.066,0.10394 0.11,0.147c0.01529,0.01542 0.03131,0.03011 0.048,0.044c0.091,0.07818 0.20703,0.12112 0.327,0.121h14.55c0.07475,0.00076 0.14856,-0.01675 0.215,-0.051zM180.8765,191.606c-0.1939,-0.19931 -0.35069,-0.43162 -0.463,-0.686c-0.09933,-0.22665 -0.17636,-0.46243 -0.23,-0.704c-0.11267,-0.486 -0.171,-1.069 -0.175,-1.749c-0.00006,-0.02233 -0.00006,-0.04467 0,-0.067c-0.0008,-0.30912 0.01255,-0.61811 0.04,-0.926c0.05667,-0.62 0.17533,-1.13433 0.356,-1.543c0.00297,-0.00701 0.00597,-0.01401 0.009,-0.021c0.27,-0.6 0.72,-1.025 1.35,-1.275c0.62333,-0.24733 1.477,-0.37233 2.561,-0.375c0.01133,-0.00001 0.02267,-0.00001 0.034,0c0.32137,-0.00077 0.64264,0.01158 0.963,0.037c0.65467,0.05333 1.19867,0.166 1.632,0.338c0.63,0.25 1.08,0.675 1.35,1.275c0.09932,0.22537 0.17667,0.45979 0.231,0.7c0.116,0.498 0.174,1.09467 0.174,1.79c0,1.05533 -0.129,1.88167 -0.387,2.479c-0.0059,0.01371 -0.0119,0.02738 -0.018,0.041c-0.27,0.6 -0.72,1.015 -1.35,1.245c-0.23868,0.08489 -0.4838,0.15043 -0.733,0.196c-0.50333,0.096 -1.10133,0.14567 -1.794,0.149c-0.02267,0.00005 -0.04533,0.00005 -0.068,0c-1.07467,0 -1.925,-0.10967 -2.551,-0.329c-0.0147,-0.00524 -0.02937,-0.01057 -0.044,-0.016c-0.33393,-0.11728 -0.63712,-0.30836 -0.887,-0.559zM294.1925,175.528c-0.812,-0.016 -1.44833,-0.10533 -1.909,-0.268c-0.0333,-0.01188 -0.06631,-0.02455 -0.099,-0.038c-0.43478,-0.16452 -0.78005,-0.50471 -0.951,-0.937c-0.00935,-0.0232 -0.01835,-0.04653 -0.027,-0.07c-0.172,-0.46533 -0.258,-1.107 -0.258,-1.925c0,-0.578 0.043,-1.06567 0.129,-1.463c0.03655,-0.17662 0.08876,-0.34964 0.156,-0.517c0.19,-0.46 0.54,-0.78 1.05,-0.96c0.35867,-0.12667 0.82367,-0.20867 1.395,-0.246c0.25967,-0.0165 0.51981,-0.02451 0.78,-0.024h2.13c0.09067,0.00014 0.18134,0.00114 0.272,0.003c0.82733,0.01533 1.46667,0.10433 1.918,0.267c0.03092,0.01099 0.0616,0.02266 0.092,0.035c0.42909,0.16409 0.77067,0.49915 0.943,0.925c0.01449,0.03501 0.02817,0.07035 0.041,0.106c0.16267,0.45333 0.244,1.078 0.244,1.874c-0.00009,0.04267 -0.00042,0.08534 -0.001,0.128c-0.00867,0.798 -0.10333,1.42033 -0.284,1.867c-0.0967,0.24677 -0.25139,0.46663 -0.451,0.641c-0.17231,0.14652 -0.37034,0.25978 -0.584,0.334c-0.06263,0.02247 -0.126,0.04281 -0.19,0.061c-0.48867,0.13933 -1.15533,0.209 -2,0.209h-2.13c-0.08867,0.00019 -0.17734,-0.00048 -0.266,-0.002zM189.7305,173.459c0.13685,-0.00293 0.26641,-0.06228 0.358,-0.164c0.00371,-0.00396 0.00738,-0.00796 0.011,-0.012c0.08987,-0.0995 0.13943,-0.22892 0.139,-0.363c0,-0.16 -0.05,-0.29 -0.15,-0.39c-0.05837,-0.05867 -0.1306,-0.10166 -0.21,-0.125c-0.05846,-0.01706 -0.1191,-0.02548 -0.18,-0.025h-11.01c-0.06702,-0.0005 -0.13353,0.01171 -0.196,0.036c-0.06613,0.02675 -0.1268,0.06539 -0.179,0.114c-0.06073,0.05437 -0.10681,0.12315 -0.134,0.2c-0.02109,0.0611 -0.03157,0.12536 -0.031,0.19c-0.00047,0.07934 0.0184,0.1576 0.055,0.228c0.02889,0.05436 0.066,0.10394 0.11,0.147c0.01529,0.01542 0.03131,0.03011 0.048,0.044c0.091,0.07818 0.20703,0.12112 0.327,0.121h11.01c0.01067,-0.00008 0.02134,-0.00041 0.032,-0.001zM184.1145,191.428c-0.486,-0.00867 -0.90367,-0.04333 -1.253,-0.104c-0.1685,-0.02836 -0.33488,-0.06811 -0.498,-0.119c-0.02991,-0.00963 -0.05958,-0.01997 -0.089,-0.031c-0.40496,-0.14051 -0.73202,-0.44507 -0.901,-0.839c-0.02356,-0.05377 -0.04491,-0.10848 -0.064,-0.164c-0.14733,-0.424 -0.221,-1.01433 -0.221,-1.771c0.00009,-0.07934 0.00109,-0.15868 0.003,-0.238c0.01067,-0.47333 0.05467,-0.877 0.132,-1.211c0.0358,-0.16117 0.086,-0.31881 0.15,-0.471c0.09208,-0.21898 0.2322,-0.41447 0.41,-0.572c0.16976,-0.14659 0.36689,-0.25807 0.58,-0.328c0.03544,-0.01203 0.07111,-0.02337 0.107,-0.034c0.31,-0.092 0.69533,-0.15333 1.156,-0.184c0.24369,-0.01532 0.48783,-0.02265 0.732,-0.022c0.08134,-0.0001 0.16267,0.00057 0.244,0.002c0.486,0.00933 0.90367,0.04633 1.253,0.111c0.16883,0.03035 0.33526,0.07279 0.498,0.127c0.02552,0.00883 0.05086,0.01816 0.076,0.028c0.41326,0.14998 0.74476,0.46625 0.914,0.872c0.19,0.44 0.285,1.08 0.285,1.92c0.00006,0.08734 -0.00094,0.17468 -0.003,0.262c-0.01133,0.47533 -0.05533,0.87767 -0.132,1.207c-0.03532,0.15968 -0.08554,0.3157 -0.15,0.466c-0.0967,0.22578 -0.24664,0.42479 -0.437,0.58c-0.16467,0.13026 -0.35222,0.22861 -0.553,0.29c-0.47,0.15 -1.135,0.225 -1.995,0.225c-0.08134,0.00005 -0.16267,-0.00062 -0.244,-0.002zM324.2675,183.798c0.35933,0.03067 0.642,0.103 0.848,0.217c0.16488,0.08331 0.29388,0.22368 0.363,0.395c0.03757,0.0973 0.0569,0.2007 0.057,0.305c0,0.33933 -0.199,0.70767 -0.597,1.105c-0.31676,0.31654 -0.64498,0.62141 -0.984,0.914c-0.78605,0.67515 -1.62026,1.29212 -2.496,1.846c-0.86,-0.64 -1.67,-1.355 -2.43,-2.145c-0.76,-0.79 -1.43,-1.675 -2.01,-2.655h6.81c0.14652,-0.00032 0.29299,0.00569 0.439,0.018zM188.3505,169.439c0.13685,-0.00293 0.26641,-0.06228 0.358,-0.164c0.00371,-0.00396 0.00738,-0.00796 0.011,-0.012c0.08987,-0.0995 0.13943,-0.22892 0.139,-0.363c0,-0.16 -0.05,-0.29 -0.15,-0.39c-0.05837,-0.05867 -0.1306,-0.10166 -0.21,-0.125c-0.05846,-0.01706 -0.1191,-0.02548 -0.18,-0.025h-8.19c-0.06702,-0.0005 -0.13353,0.01171 -0.196,0.036c-0.06613,0.02675 -0.1268,0.06539 -0.179,0.114c-0.06073,0.05437 -0.10681,0.12315 -0.134,0.2c-0.02109,0.0611 -0.03157,0.12536 -0.031,0.19c-0.00047,0.07934 0.0184,0.1576 0.055,0.228c0.02889,0.05436 0.066,0.10394 0.11,0.147c0.01529,0.01542 0.03131,0.03011 0.048,0.044c0.091,0.07818 0.20703,0.12112 0.327,0.121h8.19c0.01067,-0.00008 0.02134,-0.00041 0.032,-0.001zM188.3505,181.499c0.13685,-0.00293 0.26641,-0.06228 0.358,-0.164c0.00371,-0.00396 0.00738,-0.00796 0.011,-0.012c0.08987,-0.0995 0.13943,-0.22892 0.139,-0.363c0,-0.16 -0.05,-0.29 -0.15,-0.39c-0.05837,-0.05867 -0.1306,-0.10166 -0.21,-0.125c-0.05846,-0.01706 -0.1191,-0.02548 -0.18,-0.025h-8.19c-0.06702,-0.0005 -0.13353,0.01171 -0.196,0.036c-0.06613,0.02675 -0.1268,0.06539 -0.179,0.114c-0.06073,0.05437 -0.10681,0.12315 -0.134,0.2c-0.02109,0.0611 -0.03157,0.12536 -0.031,0.19c-0.00047,0.07934 0.0184,0.1576 0.055,0.228c0.02889,0.05436 0.066,0.10394 0.11,0.147c0.01529,0.01542 0.03131,0.03011 0.048,0.044c0.091,0.07818 0.20703,0.12112 0.327,0.121h8.19c0.01067,-0.00008 0.02134,-0.00041 0.032,-0.001zM188.3505,177.509c0.13685,-0.00293 0.26641,-0.06228 0.358,-0.164c0.00371,-0.00396 0.00738,-0.00796 0.011,-0.012c0.08987,-0.0995 0.13943,-0.22892 0.139,-0.363c0,-0.16 -0.05,-0.29 -0.15,-0.39c-0.05707,-0.05759 -0.12749,-0.10019 -0.205,-0.124c-0.05533,-0.01667 -0.11567,-0.02533 -0.181,-0.026c-0.00133,0 -0.00267,0 -0.004,0h-8.19c-0.06702,-0.0005 -0.13353,0.01171 -0.196,0.036c-0.06613,0.02675 -0.1268,0.06539 -0.179,0.114c-0.06073,0.05437 -0.10681,0.12315 -0.134,0.2c-0.02109,0.0611 -0.03157,0.12536 -0.031,0.19c-0.00047,0.07934 0.0184,0.1576 0.055,0.228c0.02889,0.05436 0.066,0.10394 0.11,0.147c0.01529,0.01542 0.03131,0.03011 0.048,0.044c0.091,0.07818 0.20703,0.12112 0.327,0.121h8.19c0.01067,-0.00008 0.02134,-0.00041 0.032,-0.001zM324.2775,177.252c-0.00533,0.418 -0.04433,0.77433 -0.117,1.069c-0.03532,0.14959 -0.08626,0.29506 -0.152,0.434c-0.0286,0.0588 -0.0617,0.1153 -0.099,0.169c-0.118,0.17067 -0.278,0.311 -0.48,0.421c-0.13992,0.07481 -0.28786,0.13351 -0.441,0.175c-0.35933,0.10067 -0.83733,0.165 -1.434,0.193c-0.25183,0.01162 -0.5039,0.01729 -0.756,0.017c-0.08934,0.00001 -0.17867,-0.00066 -0.268,-0.002c-0.53267,-0.008 -0.988,-0.04067 -1.366,-0.098c-0.17739,-0.02602 -0.35305,-0.06275 -0.526,-0.11c-0.5,-0.14 -0.84,-0.395 -1.02,-0.765c-0.01118,-0.02309 -0.02185,-0.04643 -0.032,-0.07c-0.10867,-0.25067 -0.18,-0.569 -0.214,-0.955c-0.01653,-0.19289 -0.02454,-0.38641 -0.024,-0.58v-0.75h6.93v0.75c-0.00011,0.034 -0.00045,0.068 -0.001,0.102z"/><path d="M221.77809,142.58734v-1.68941c-0.00126,-0.27165 0.01433,-0.54312 0.04668,-0.81284c0.07311,-0.58487 0.23266,-1.04081 0.47867,-1.36783c0.05272,-0.07066 0.11122,-0.13683 0.17487,-0.19784c0.46681,-0.44458 1.30781,-0.66687 2.523,-0.66687h5.29052c-0.05928,-0.66687 -0.10374,-1.35968 -0.13337,-2.07842c-0.02636,-0.64852 -0.04094,-1.29747 -0.04372,-1.94652c-0.00048,-0.09583 -0.00073,-0.19166 -0.00074,-0.2875c-0.00043,-0.04789 0.00734,-0.09551 0.02297,-0.14078c0.02014,-0.05694 0.05429,-0.1079 0.09929,-0.14819c0.0389,-0.0361 0.08411,-0.06473 0.13337,-0.08447c0.04605,-0.0179 0.09508,-0.02695 0.14449,-0.02667c0.04537,-0.00043 0.09056,0.00581 0.13412,0.01852c0.05857,0.01741 0.11182,0.04926 0.15486,0.09262c0.0741,0.0741 0.11115,0.17042 0.11115,0.28898c-0.00033,0.65467 0.01103,1.3093 0.03408,1.96357c0.00321,0.09016 0.00667,0.18031 0.01037,0.27045c0.02147,0.52485 0.0521,1.04929 0.09188,1.57308c0.01278,0.16853 0.02661,0.33698 0.04149,0.50534h7.38005c0.04537,-0.00043 0.09056,0.00581 0.13412,0.01852c0.05857,0.01741 0.11182,0.04926 0.15486,0.09262c0.0741,0.0741 0.11115,0.17042 0.11115,0.28898c0.00032,0.09935 -0.0364,0.19525 -0.10299,0.26897c-0.00268,0.003 -0.0054,0.00596 -0.00815,0.00889c-0.06787,0.07538 -0.16387,0.11935 -0.26527,0.12152c-0.0079,0.00043 -0.0158,0.00068 -0.02371,0.00074h-7.31336c0.16301,1.70423 0.40012,3.23433 0.71133,4.5903c0.14707,0.64594 0.31761,1.28631 0.51127,1.91985c0.17481,0.57276 0.37507,1.13745 0.60018,1.69237c0.62241,-0.80025 1.18184,-1.64495 1.67829,-2.53411c0.49645,-0.88916 0.90769,-1.79314 1.23371,-2.71195c0.04446,-0.10374 0.12226,-0.18154 0.23341,-0.23341c0.03034,-0.01429 0.06214,-0.02522 0.09484,-0.0326c0.02766,-0.00642 0.05483,-0.00963 0.08151,-0.00963c0.05027,0.00028 0.09995,0.01087 0.14597,0.03112c0.10374,0.04446 0.18154,0.11485 0.23341,0.21118c0.05187,0.09633 0.05557,0.20377 0.01111,0.32232c-0.41494,1.08181 -0.90769,2.10435 -1.47823,3.06761c-0.57055,0.96326 -1.19666,1.86724 -1.87836,2.71195c0.50386,1.08181 1.06699,1.99691 1.68941,2.74529c0.33377,0.40353 0.69419,0.78425 1.07885,1.13961c0.27774,0.25629 0.57071,0.49556 0.87731,0.71652c0.06023,0.0414 0.12283,0.07925 0.18747,0.11337c0.43371,0.22773 0.76246,0.13461 0.98623,-0.27935c0.01754,-0.03298 0.03385,-0.06659 0.0489,-0.10077c0.07064,-0.15116 0.14474,-0.33121 0.22229,-0.54017c0.03841,-0.10473 0.07546,-0.20996 0.11115,-0.31565c0.11855,-0.34826 0.24081,-0.70022 0.36678,-1.05588c0.09682,-0.27218 0.17808,-0.51843 0.24378,-0.73875c0.01943,-0.06476 0.0382,-0.12973 0.05631,-0.19487c0.02658,-0.09838 0.09251,-0.18146 0.18228,-0.2297c0.00221,-0.00125 0.00443,-0.00249 0.00667,-0.0037c0.03795,-0.02088 0.07896,-0.03564 0.12152,-0.04372c0.05483,-0.00988 0.1109,-0.00741 0.1682,0.00741c0.00347,0.00094 0.00693,0.00193 0.01037,0.00296c0.04434,0.01054 0.08682,0.02778 0.12596,0.05113c0.05485,0.03342 0.09965,0.08104 0.12967,0.13782c0.05187,0.09633 0.05557,0.20377 0.01111,0.32232c-0.06868,0.19989 -0.13685,0.39995 -0.20451,0.60018c-0.09287,0.27268 -0.19142,0.56536 -0.29565,0.87805c-0.06222,0.18767 -0.12718,0.37441 -0.19487,0.56017c-0.11362,0.31022 -0.22278,0.57919 -0.32751,0.80691c-0.06666,0.16668 -0.14799,0.32712 -0.24304,0.47941c-0.43816,0.68811 -1.04205,0.82692 -1.81167,0.41642c-0.1274,-0.06858 -0.2504,-0.14504 -0.36826,-0.22896c-0.42216,-0.30515 -0.82025,-0.64229 -1.19074,-1.00846c-0.27506,-0.27067 -0.53787,-0.55351 -0.78765,-0.84767c-0.62686,-0.73652 -1.20383,-1.63482 -1.7309,-2.6949c-0.00842,-0.01678 -0.01682,-0.03358 -0.02519,-0.05039c-0.99637,1.13652 -2.11677,2.158 -3.34029,3.04538c-0.74436,0.53598 -1.53031,1.01171 -2.35035,1.42266c-0.03793,0.0221 -0.07886,0.03857 -0.12152,0.0489c-0.06521,0.01531 -0.13214,0.01383 -0.2008,-0.00445c-0.09438,-0.02546 -0.1787,-0.07925 -0.24156,-0.15412c-0.01282,-0.01473 -0.02493,-0.03006 -0.03631,-0.04594c-0.03359,-0.06768 -0.05039,-0.13288 -0.05039,-0.19562c-0.00017,-0.04738 0.00941,-0.0943 0.02816,-0.13782c0.04446,-0.10374 0.11855,-0.17783 0.22229,-0.22229c0.99473,-0.49357 1.93793,-1.0848 2.81568,-1.76499c0.07703,-0.05942 0.15361,-0.11944 0.2297,-0.18006c0.97808,-0.77802 1.87465,-1.64866 2.68972,-2.61191c-0.48855,-1.12528 -0.9104,-2.4205 -1.26557,-3.88564c-0.00049,-0.00148 -0.00099,-0.00296 -0.00148,-0.00445c-0.35566,-1.46712 -0.62241,-3.12689 -0.80025,-4.97931h-5.3572c-0.21198,-0.00077 -0.42388,0.00838 -0.63501,0.02742c-0.60562,0.0573 -1.03488,0.20377 -1.2878,0.43939c-0.12286,0.11916 -0.21974,0.26245 -0.28453,0.42087c-0.11164,0.25736 -0.17981,0.58808 -0.20451,0.99216c-0.00744,0.12162 -0.01115,0.24345 -0.01111,0.3653v1.11145h2.82309c0.78197,0 1.36734,0.11115 1.7561,0.33344c0.09262,0.05229 0.17847,0.11574 0.25563,0.18895c0.13622,0.13461 0.2412,0.29752 0.3075,0.47718c0.12596,0.32306 0.17808,0.74344 0.15634,1.26113c-0.00218,0.04671 -0.00489,0.0934 -0.00815,0.14004c-0.02964,0.56314 -0.07039,1.12998 -0.12226,1.70052c-0.0372,0.41402 -0.08216,0.82731 -0.13486,1.23964c-0.01713,0.13152 -0.03516,0.26292 -0.05409,0.3942c-0.10126,0.70936 -0.27663,1.24532 -0.52609,1.6079c-0.0061,0.0087 -0.01227,0.01734 -0.01852,0.02593c-0.18368,0.25409 -0.43178,0.45461 -0.71874,0.58092c-0.14424,0.06501 -0.29435,0.11612 -0.44829,0.15264c-0.17897,0.04238 -0.36001,0.07552 -0.54239,0.09929c-0.3774,0.05138 -0.82223,0.08077 -1.33448,0.08818c-0.0857,0.0011 -0.17141,0.00159 -0.25712,0.00148c-0.09945,0.00011 -0.19536,-0.03688 -0.26897,-0.10374c-0.00299,-0.00244 -0.00596,-0.00491 -0.00889,-0.00741c-0.03432,-0.03051 -0.06293,-0.06689 -0.08447,-0.10744c-0.02538,-0.04923 -0.03835,-0.10392 -0.03779,-0.15931c-0.00043,-0.04789 0.00734,-0.09551 0.02297,-0.14078c0.02014,-0.05694 0.05429,-0.1079 0.09929,-0.14819c0.0389,-0.0361 0.08411,-0.06473 0.13337,-0.08447c0.04605,-0.0179 0.09508,-0.02695 0.14449,-0.02667c0.66588,0 1.19419,-0.03285 1.58493,-0.09855c0.04236,-0.00719 0.08461,-0.01509 0.12671,-0.02371c0.1287,-0.02521 0.25438,-0.06395 0.37493,-0.11559c0.15906,-0.06965 0.29243,-0.1603 0.40012,-0.27194c0.03734,-0.03865 0.07177,-0.08001 0.10299,-0.12374c0.06838,-0.0976 0.12626,-0.20217 0.17265,-0.31195c0.10077,-0.23266 0.1803,-0.5251 0.23859,-0.87731c0.03901,-0.24952 0.07507,-0.49949 0.10818,-0.74986c0.03507,-0.26823 0.0694,-0.55177 0.10299,-0.85063c0.04903,-0.43077 0.08461,-0.86297 0.1067,-1.29595c0.00675,-0.1385 0.01194,-0.27707 0.01556,-0.41568c0.00249,-0.04863 0.00421,-0.09729 0.00519,-0.14597c0.0084,-0.55622 -0.09336,-0.92992 -0.30528,-1.12109c-0.2297,-0.20747 -0.67799,-0.31121 -1.34486,-0.31121h-2.82309c0,1.32386 -0.05977,2.51312 -0.17931,3.56776c-0.02835,0.2488 -0.0612,0.49706 -0.09855,0.74467c-0.18524,1.23001 -0.47422,2.32294 -0.86693,3.27879c-0.37935,0.91583 -0.87869,1.77721 -1.4849,2.56153c-0.04179,0.05419 -0.08403,0.10804 -0.12671,0.16153c-0.03025,0.03344 -0.06403,0.0635 -0.10077,0.08966c-0.14177,0.0983 -0.29639,0.09806 -0.46385,-0.00074c-0.01206,-0.00709 -0.02391,-0.0145 -0.03557,-0.02223c-0.07618,-0.04875 -0.12732,-0.1283 -0.14004,-0.21784c-0.00207,-0.01252 -0.00355,-0.02513 -0.00445,-0.03779c-0.00065,-0.01209 -0.0009,-0.0242 -0.00074,-0.03631c0,-0.04397 0.00544,-0.08472 0.0163,-0.12226c0.01278,-0.04344 0.03392,-0.08397 0.06224,-0.1193c0.65205,-0.78543 1.16703,-1.64866 1.54492,-2.58969c0.20953,-0.52688 0.38162,-1.0679 0.51497,-1.61902c0.13011,-0.53656 0.23274,-1.07941 0.3075,-1.62643c0.07808,-0.56885 0.1364,-1.14023 0.17487,-1.71312c0.04051,-0.58537 0.06595,-1.20457 0.07632,-1.85761c0.00319,-0.22129 0.00468,-0.4426 0.00445,-0.66391zM209.3965,153.25729v-14.15991h-2.33405c-0.54832,0.97808 -1.13368,1.9154 -1.7561,2.81198c-0.29664,0.42877 -0.60601,0.84859 -0.92769,1.25891c-0.2926,0.37301 -0.59857,0.73533 -0.91732,1.08626c-0.17783,0.17783 -0.37048,0.19265 -0.57796,0.04446c-0.03686,-0.03006 -0.06777,-0.06676 -0.09114,-0.10818c-0.02843,-0.05199 -0.04298,-0.11043 -0.04224,-0.16968c0,-0.11115 0.02964,-0.20377 0.08892,-0.27786c0.25485,-0.26312 0.49859,-0.53678 0.7306,-0.82025c0.2381,-0.28947 0.47965,-0.60389 0.72467,-0.94325c0.08282,-0.11533 0.16458,-0.23142 0.24526,-0.34826c0.52611,-0.76053 1.02461,-1.5398 1.49453,-2.33627c0.06923,-0.11748 0.13789,-0.2353 0.20599,-0.35344c0.36429,-0.62856 0.71169,-1.26676 1.0418,-1.91392c0.14187,-0.27894 0.27995,-0.55979 0.4142,-0.84248c0.14995,-0.31482 0.29323,-0.63276 0.42976,-0.95363c0.13387,-0.31466 0.25119,-0.61229 0.35196,-0.89287c0.0578,-0.16134 0.11215,-0.3239 0.16301,-0.48756c0.01347,-0.05685 0.03983,-0.10983 0.07706,-0.15486c0.03674,-0.04305 0.08254,-0.07746 0.13412,-0.10077c0.03464,-0.01635 0.0709,-0.02901 0.10818,-0.03779c0.07311,-0.01679 0.14449,-0.01531 0.21414,0.00445c0.0425,0.0101 0.08306,0.02713 0.12004,0.05039c0.05577,0.03605 0.0992,0.08827 0.12448,0.14968c0.04446,0.10374 0.05187,0.21488 0.02223,0.33344c-0.12352,0.33114 -0.25321,0.65994 -0.38901,0.98623c-0.14627,0.35167 -0.29818,0.70096 -0.4557,1.04773c-0.32603,0.71874 -0.6891,1.44118 -1.08922,2.16733h9.35843c0.04537,-0.00043 0.09056,0.00581 0.13412,0.01852c0.05857,0.01741 0.11182,0.04926 0.15486,0.09262c0.0741,0.0741 0.11115,0.17042 0.11115,0.28898c0.00032,0.09935 -0.0364,0.19525 -0.10299,0.26897c-0.00268,0.003 -0.0054,0.00596 -0.00815,0.00889c-0.06787,0.07538 -0.16387,0.11935 -0.26527,0.12152c-0.0079,0.00043 -0.0158,0.00068 -0.02371,0.00074h-6.66872v3.93454h5.82401c0.04537,-0.00043 0.09056,0.00581 0.13412,0.01852c0.05857,0.01741 0.11182,0.04926 0.15486,0.09262c0.0741,0.0741 0.11115,0.17042 0.11115,0.28898c0.00032,0.09935 -0.0364,0.19525 -0.10299,0.26897c-0.00268,0.003 -0.0054,0.00596 -0.00815,0.00889c-0.06787,0.07538 -0.16387,0.11935 -0.26527,0.12152c-0.0079,0.00043 -0.0158,0.00068 -0.02371,0.00074h-5.82401v3.93454h6.02407c0.04537,-0.00043 0.09056,0.00581 0.13412,0.01852c0.05857,0.01741 0.11182,0.04926 0.15486,0.09262c0.0741,0.0741 0.11115,0.17042 0.11115,0.28898c0.00032,0.09935 -0.0364,0.19525 -0.10299,0.26897c-0.00268,0.003 -0.0054,0.00596 -0.00815,0.00889c-0.06787,0.07538 -0.16387,0.11935 -0.26527,0.12152c-0.0079,0.00043 -0.0158,0.00068 -0.02371,0.00074h-6.02407v4.69033c0.00032,0.09935 -0.0364,0.19525 -0.10299,0.26897c-0.00268,0.003 -0.0054,0.00596 -0.00815,0.00889c-0.06787,0.07538 -0.16387,0.11935 -0.26527,0.12152c-0.0079,0.00043 -0.0158,0.00068 -0.02371,0.00074c-0.08889,0.00009 -0.17487,-0.03172 -0.2423,-0.08966c-0.01237,-0.01029 -0.02424,-0.02117 -0.03557,-0.0326c-0.03234,-0.03196 -0.05958,-0.06869 -0.08077,-0.10892c-0.02738,-0.0521 -0.04162,-0.11009 -0.04149,-0.16894zM259.61194,151.05661v-5.91293h-4.3569c-0.01864,0.57498 -0.06067,1.14896 -0.12596,1.72053c-0.07163,0.61451 -0.17042,1.1895 -0.29639,1.72497c-0.13579,0.58859 -0.32784,1.16276 -0.57351,1.7146c-0.14947,0.33284 -0.32179,0.65494 -0.51571,0.964c-0.3355,0.52819 -0.73605,1.01213 -1.19222,1.44044c-0.25639,0.24253 -0.52629,0.47037 -0.8084,0.68243c-0.03073,0.02318 -0.06317,0.04399 -0.09707,0.06224c-0.1971,0.10571 -0.37221,0.06273 -0.52535,-0.12893c-0.05236,-0.0657 -0.07854,-0.14622 -0.07854,-0.24156c-0.00016,-0.01211 0.00009,-0.02421 0.00074,-0.03631c0.00244,-0.043 0.01274,-0.08519 0.03038,-0.12448c0.02491,-0.0536 0.06447,-0.09907 0.11411,-0.13115c0.46628,-0.32686 0.89451,-0.70488 1.27669,-1.12701c0.31322,-0.34814 0.58591,-0.7307 0.81284,-1.14035c0.28412,-0.52084 0.50905,-1.07184 0.67058,-1.64273c0.13008,-0.45663 0.22911,-0.92154 0.29639,-1.39154c0.07809,-0.54132 0.13642,-1.0853 0.17487,-1.63087c0.04051,-0.5577 0.06595,-1.14776 0.07632,-1.77017c0.0032,-0.21116 0.00468,-0.42234 0.00445,-0.63353v-6.55757c0,-1.03736 0.20747,-1.74498 0.62241,-2.12288c0.35122,-0.31961 0.95684,-0.50411 1.81686,-0.5535c0.16483,-0.00915 0.32988,-0.0136 0.49497,-0.01334c1.14109,0 1.92281,0.18895 2.34517,0.56684c0.42235,0.37789 0.63353,1.08552 0.63353,2.12288v14.15991c0.00084,0.19067 -0.01005,0.38121 -0.0326,0.57055c-0.04199,0.33739 -0.12374,0.62513 -0.24526,0.86323c-0.12841,0.24805 -0.32611,0.45347 -0.56906,0.59129c-0.13292,0.07718 -0.27378,0.13978 -0.42013,0.18672c-0.16535,0.05281 -0.33421,0.09391 -0.50534,0.123c-0.35665,0.06323 -0.78567,0.09929 -1.28706,0.10818c-0.08421,0.00149 -0.16844,0.00223 -0.25267,0.00222c-0.08889,0.00009 -0.17487,-0.03172 -0.2423,-0.08966c-0.01237,-0.01029 -0.02424,-0.02117 -0.03557,-0.0326c-0.03234,-0.03196 -0.05958,-0.06869 -0.08077,-0.10892c-0.02738,-0.0521 -0.04162,-0.11009 -0.04149,-0.16894c-0.00058,-0.09632 0.03919,-0.18849 0.10966,-0.25415c0.00412,-0.00428 0.00832,-0.00848 0.0126,-0.0126c0.0389,-0.0361 0.08411,-0.06473 0.13337,-0.08447c0.04605,-0.0179 0.09508,-0.02695 0.14449,-0.02667c0.5908,0 1.05934,-0.03606 1.40562,-0.10818c0.05048,-0.01064 0.10064,-0.02275 0.15042,-0.03631c0.35566,-0.09633 0.60389,-0.26675 0.74467,-0.51127c0.05845,-0.10346 0.10328,-0.21404 0.13337,-0.32899c0.05187,-0.19314 0.0778,-0.42062 0.0778,-0.68243zM253.18775,147.74448h-10.89224c-0.08889,0.00009 -0.17487,-0.03172 -0.2423,-0.08966c-0.01237,-0.01029 -0.02424,-0.02117 -0.03557,-0.0326c-0.03234,-0.03196 -0.05958,-0.06869 -0.08077,-0.10892c-0.02738,-0.0521 -0.04162,-0.11009 -0.04149,-0.16894c-0.00043,-0.04789 0.00734,-0.09551 0.02297,-0.14078c0.02014,-0.05694 0.05429,-0.1079 0.09929,-0.14819c0.0389,-0.0361 0.08411,-0.06473 0.13337,-0.08447c0.04605,-0.0179 0.09508,-0.02695 0.14449,-0.02667h2.55634v-9.46958h-2.22291c-0.08889,0.00009 -0.17487,-0.03172 -0.2423,-0.08966c-0.01237,-0.01029 -0.02424,-0.02117 -0.03557,-0.0326c-0.03234,-0.03196 -0.05958,-0.06869 -0.08077,-0.10892c-0.02738,-0.0521 -0.04162,-0.11009 -0.04149,-0.16894c-0.00043,-0.04789 0.00734,-0.09551 0.02297,-0.14078c0.02014,-0.05694 0.05429,-0.1079 0.09929,-0.14819c0.0389,-0.0361 0.08411,-0.06473 0.13337,-0.08447c0.04605,-0.0179 0.09508,-0.02695 0.14449,-0.02667h2.22291v-2.80086c-0.00043,-0.04789 0.00734,-0.09551 0.02297,-0.14078c0.02014,-0.05694 0.05429,-0.1079 0.09929,-0.14819c0.0389,-0.0361 0.08411,-0.06473 0.13337,-0.08447c0.04605,-0.0179 0.09508,-0.02695 0.14449,-0.02667c0.04537,-0.00043 0.09056,0.00581 0.13412,0.01852c0.05857,0.01741 0.11182,0.04926 0.15486,0.09262c0.0741,0.0741 0.11115,0.17042 0.11115,0.28898v2.80086h4.17906v-2.80086c-0.00043,-0.04789 0.00734,-0.09551 0.02297,-0.14078c0.02014,-0.05694 0.05429,-0.1079 0.09929,-0.14819c0.0389,-0.0361 0.08411,-0.06473 0.13337,-0.08447c0.04605,-0.0179 0.09508,-0.02695 0.14449,-0.02667c0.04537,-0.00043 0.09056,0.00581 0.13412,0.01852c0.05857,0.01741 0.11182,0.04926 0.15486,0.09262c0.0741,0.0741 0.11115,0.17042 0.11115,0.28898v2.80086h2.22291c0.04537,-0.00043 0.09056,0.00581 0.13412,0.01852c0.05857,0.01741 0.11182,0.04926 0.15486,0.09262c0.0741,0.0741 0.11115,0.17042 0.11115,0.28898c0.00032,0.09935 -0.0364,0.19525 -0.10299,0.26897c-0.00268,0.003 -0.0054,0.00596 -0.00815,0.00889c-0.06787,0.07538 -0.16387,0.11935 -0.26527,0.12152c-0.0079,0.00043 -0.0158,0.00068 -0.02371,0.00074h-2.22291v9.46958h2.55634c0.04537,-0.00043 0.09056,0.00581 0.13412,0.01852c0.05857,0.01741 0.11182,0.04926 0.15486,0.09262c0.0741,0.0741 0.11115,0.17042 0.11115,0.28898c0.00032,0.09935 -0.0364,0.19525 -0.10299,0.26897c-0.00268,0.003 -0.0054,0.00596 -0.00815,0.00889c-0.06787,0.07538 -0.16387,0.11935 -0.26527,0.12152c-0.0079,0.00043 -0.0158,0.00068 -0.02371,0.00074zM282.10775,150.87878v-9.91416h-3.48996c-0.28748,0.00123 -0.57477,-0.0151 -0.86026,-0.0489c-0.72714,-0.08941 -1.27027,-0.30281 -1.62939,-0.6402c-0.48904,-0.4594 -0.73356,-1.25224 -0.73356,-2.37851v-0.6891c-0.0014,-0.276 0.01593,-0.55178 0.05187,-0.82544c0.09534,-0.69602 0.32257,-1.21 0.68169,-1.54196c0.19311,-0.17292 0.41675,-0.30836 0.65946,-0.39938c0.47027,-0.18573 1.08033,-0.2786 1.83019,-0.2786h1.06699c0.27498,-0.00117 0.54981,0.01293 0.82322,0.04224c0.60117,0.06718 1.07737,0.21463 1.42859,0.44236c0.08861,0.05688 0.17194,0.1216 0.24897,0.19339c0.19891,0.19258 0.35385,0.42588 0.45421,0.68391c0.16104,0.39271 0.24971,0.88669 0.26601,1.48194c0.00164,0.06717 0.00239,0.13436 0.00222,0.20154v13.67087c0.00077,0.20293 -0.00938,0.40575 -0.03038,0.60759c-0.02075,0.19314 -0.05236,0.36999 -0.09484,0.53053c-0.04273,0.16828 -0.10515,0.33094 -0.18598,0.48459c-0.20747,0.3853 -0.55573,0.65205 -1.04477,0.80025c-0.18515,0.05484 -0.37379,0.09717 -0.56462,0.12671c-0.39469,0.06323 -0.8615,0.09509 -1.40043,0.09558c-0.00445,0 -0.00889,0 -0.01334,0c-0.07241,-0.00045 -0.14307,-0.02237 -0.20303,-0.06298c-0.03101,-0.02043 -0.05981,-0.04402 -0.08595,-0.07039c-0.03006,-0.02956 -0.05643,-0.06265 -0.07854,-0.09855c-0.03562,-0.05715 -0.05461,-0.12309 -0.05483,-0.19043c0,-0.11855 0.04446,-0.21859 0.13337,-0.30009c0.08892,-0.08151 0.18524,-0.12226 0.28898,-0.12226c0.18655,0.00022 0.37308,-0.00398 0.55943,-0.0126c0.34578,-0.0163 0.63649,-0.04915 0.87212,-0.09855c0.06052,-0.0127 0.12058,-0.02753 0.18006,-0.04446c0.10833,-0.03003 0.21315,-0.07151 0.31269,-0.12374c0.19512,-0.10423 0.33541,-0.24452 0.42087,-0.42087c0.12103,-0.24847 0.18401,-0.59574 0.18895,-1.0418c0.00011,-0.01951 0.00011,-0.03902 0,-0.05854zM201.21621,153.27952v-13.67087c-0.54832,0.85952 -1.11516,1.682 -1.70052,2.46743c-0.58537,0.78543 -1.15962,1.47453 -1.72275,2.0673c-0.0741,0.0741 -0.17042,0.11115 -0.28898,0.11115c-0.11164,0 -0.20352,-0.02618 -0.27564,-0.07854c-0.00452,-0.00335 -0.00897,-0.00681 -0.01334,-0.01037c-0.07096,-0.07095 -0.11385,-0.16517 -0.12078,-0.26527c-0.00054,-0.00419 -0.00104,-0.00839 -0.00148,-0.0126c-0.00057,-0.00987 -0.00082,-0.01975 -0.00074,-0.02964c0,-0.05384 0.01013,-0.10299 0.03038,-0.14745c0.01719,-0.03756 0.04104,-0.0717 0.07039,-0.10077c0.26218,-0.24978 0.51313,-0.51111 0.75208,-0.7832c0.246,-0.2786 0.49571,-0.58265 0.74912,-0.91213c0.08606,-0.11205 0.17102,-0.22493 0.25489,-0.33862c0.5465,-0.74128 1.06722,-1.50122 1.56122,-2.27848c0.0729,-0.11452 0.14527,-0.22937 0.2171,-0.34455c0.4105,-0.65621 0.80117,-1.32461 1.17147,-2.00432c0.12731,-0.23437 0.2518,-0.47027 0.37345,-0.70763c0.16015,-0.31155 0.31454,-0.62602 0.46311,-0.94325c0.23217,-0.49744 0.42235,-0.94992 0.57055,-1.35745c0.01651,-0.04521 0.03974,-0.08768 0.06891,-0.12596c0.04005,-0.05209 0.09288,-0.09293 0.15338,-0.11855c0.03425,-0.01499 0.07041,-0.02521 0.10744,-0.03038c0.06817,-0.00889 0.13609,0.00123 0.20377,0.03038c0.11855,0.02964 0.20377,0.09633 0.25563,0.20006c0.041,0.08151 0.04767,0.16721 0.02001,0.25712c-0.00821,0.02627 -0.01862,0.0518 -0.03112,0.07632c-0.32456,0.7595 -0.67776,1.50644 -1.05884,2.23921c-0.32083,0.61789 -0.65709,1.22766 -1.00846,1.82871v14.98239c0.00032,0.09935 -0.0364,0.19525 -0.10299,0.26897c-0.00268,0.003 -0.0054,0.00596 -0.00815,0.00889c-0.06787,0.07538 -0.16387,0.11935 -0.26527,0.12152c-0.0079,0.00043 -0.0158,0.00068 -0.02371,0.00074c-0.08889,0.00009 -0.17487,-0.03172 -0.2423,-0.08966c-0.01237,-0.01029 -0.02424,-0.02117 -0.03557,-0.0326c-0.03234,-0.03196 -0.05958,-0.06869 -0.08077,-0.10892c-0.02738,-0.0521 -0.04162,-0.11009 -0.04149,-0.16894zM265.34704,153.25729v-16.04938c-0.0014,-0.276 0.01593,-0.55178 0.05187,-0.82544c0.09534,-0.69602 0.32257,-1.21 0.68169,-1.54196c0.19311,-0.17292 0.41675,-0.30836 0.65946,-0.39938c0.47027,-0.18573 1.08033,-0.2786 1.83019,-0.2786h0.91139c0.27498,-0.00117 0.54981,0.01293 0.82322,0.04224c0.60117,0.06718 1.07737,0.21463 1.42859,0.44236c0.08861,0.05688 0.17194,0.1216 0.24897,0.19339c0.19891,0.19258 0.35385,0.42588 0.45421,0.68391c0.16104,0.39271 0.24971,0.88669 0.26601,1.48194c0.00164,0.06717 0.00239,0.13436 0.00222,0.20154v0.6891c0.00163,0.27646 -0.01521,0.55271 -0.05039,0.82692c-0.0825,0.61056 -0.26453,1.0833 -0.54609,1.41821c-0.03952,0.04672 -0.08158,0.09125 -0.12596,0.13337c-0.43915,0.41939 -1.17147,0.64736 -2.19697,0.68391c-0.10123,0.00354 -0.20251,0.00527 -0.3038,0.00519h-3.33436v12.29267c0.00032,0.09935 -0.0364,0.19525 -0.10299,0.26897c-0.00268,0.003 -0.0054,0.00596 -0.00815,0.00889c-0.06787,0.07538 -0.16387,0.11935 -0.26527,0.12152c-0.0079,0.00043 -0.0158,0.00068 -0.02371,0.00074c-0.08889,0.00009 -0.17487,-0.03172 -0.2423,-0.08966c-0.01237,-0.01029 -0.02424,-0.02117 -0.03557,-0.0326c-0.03234,-0.03196 -0.05958,-0.06869 -0.08077,-0.10892c-0.02738,-0.0521 -0.04162,-0.11009 -0.04149,-0.16894zM274.50541,150.90101h-0.86693c-0.28505,0.00142 -0.5699,-0.01517 -0.85285,-0.04964c-0.61599,-0.07854 -1.10083,-0.24971 -1.45452,-0.51349c-0.04376,-0.03268 -0.08603,-0.06729 -0.12671,-0.10374c-0.21839,-0.20155 -0.38728,-0.45082 -0.49349,-0.72837c-0.16202,-0.40062 -0.24551,-0.90201 -0.25045,-1.50417c-0.00033,-0.01902 -0.00057,-0.03803 -0.00074,-0.05705v-1.80055c0,-1.02007 0.21488,-1.75486 0.64464,-2.20438c0.03195,-0.03353 0.06532,-0.06566 0.10003,-0.09633c0.20366,-0.17391 0.43747,-0.30902 0.68984,-0.39864c0.45792,-0.17141 1.03933,-0.25712 1.74424,-0.25712h0.86693c0.2805,-0.00138 0.56084,0.01396 0.83952,0.04594c0.58487,0.07064 1.04872,0.22106 1.39154,0.45125c0.07144,0.04785 0.13929,0.10085 0.20303,0.15857c0.20254,0.1893 0.36025,0.42144 0.46162,0.67947c0.17388,0.42136 0.26082,0.96178 0.26082,1.62124v1.80055c0.0016,0.26562 -0.01524,0.53103 -0.05039,0.79432c-0.08595,0.61352 -0.28083,1.08305 -0.58462,1.40858c-0.02805,0.02998 -0.05722,0.0589 -0.08743,0.08669c-0.19419,0.17391 -0.41943,0.30966 -0.66391,0.40012c-0.41,0.15906 -0.92621,0.24699 -1.54862,0.26378c-0.07383,0.00197 -0.14769,0.00296 -0.22155,0.00296zM255.29951,140.00877v4.33467h4.31244v-4.33467zM255.29951,136.8967v2.31182h4.31244v-2.31182c0,-0.58388 -0.08274,-1.01661 -0.24822,-1.29818c-0.04861,-0.08477 -0.11124,-0.16069 -0.18524,-0.22451c-0.09374,-0.07588 -0.1994,-0.13572 -0.31269,-0.17709c-0.21933,-0.08496 -0.50682,-0.14128 -0.86249,-0.16894c-0.1896,-0.0143 -0.37967,-0.02122 -0.5698,-0.02075c-0.15174,-0.0002 -0.30346,0.004 -0.45495,0.0126c-0.29984,0.01729 -0.55054,0.05335 -0.75208,0.10818c-0.03889,0.01037 -0.07744,0.02198 -0.11559,0.03483c-0.11831,0.03916 -0.22962,0.09694 -0.32973,0.17116c-0.13273,0.09985 -0.23738,0.23233 -0.3038,0.38456c-0.03992,0.0925 -0.07117,0.18849 -0.09336,0.28675c-0.05631,0.2376 -0.08447,0.53473 -0.08447,0.89139zM278.61779,140.16438h3.48996v-2.24513h-5.91293c0.00272,0.19875 0.01706,0.39718 0.04298,0.59426c0.0573,0.42284 0.17141,0.75357 0.34233,0.99216c0.04669,0.06562 0.10008,0.12622 0.15931,0.1808c0.12739,0.11262 0.27395,0.20146 0.43273,0.2623c0.35665,0.14375 0.83853,0.21562 1.44563,0.21562zM266.14729,137.91924v2.24513h3.33436c0.21228,0.00092 0.42447,-0.00897 0.63575,-0.02964c0.42532,-0.04397 0.76517,-0.1356 1.01957,-0.2749c0.08838,-0.04781 0.17072,-0.10602 0.24526,-0.17339c0.13324,-0.12599 0.23829,-0.27877 0.30824,-0.44829c0.12053,-0.27663 0.19018,-0.63205 0.20895,-1.06625c0.00357,-0.08417 0.0053,-0.16842 0.00519,-0.25267zM273.63848,150.14522h0.86693c0.20244,0.00092 0.40478,-0.00923 0.60611,-0.03038c0.55573,-0.06125 0.96128,-0.21414 1.21667,-0.45866c0.13848,-0.1364 0.24655,-0.30053 0.31713,-0.48163c0.12942,-0.31713 0.19413,-0.72714 0.19413,-1.23001v-0.5335h-5.55726v0.5335c0,0.7464 0.14918,1.2878 0.44755,1.6242c0.02713,0.03061 0.05582,0.05979 0.08595,0.08743c0.14121,0.12521 0.30455,0.22296 0.48163,0.28824c0.34381,0.13387 0.79086,0.2008 1.34115,0.2008zM271.2822,146.14399v0.51127h5.55726v-0.51127c0,-0.82988 -0.17042,-1.40414 -0.51127,-1.72275c-0.13044,-0.11765 -0.28173,-0.20988 -0.44606,-0.27194c-0.28256,-0.11263 -0.64267,-0.17907 -1.08033,-0.19932c-0.09873,-0.00449 -0.19755,-0.00671 -0.29639,-0.00667h-0.86693c-0.19946,-0.00086 -0.39882,0.00904 -0.59722,0.02964c-0.55029,0.05977 -0.95881,0.2092 -1.22556,0.44829c-0.14552,0.13481 -0.25917,0.30036 -0.33269,0.48459c-0.12004,0.28354 -0.18623,0.64439 -0.19858,1.08256c-0.00148,0.05185 -0.00222,0.10373 -0.00222,0.1556zM276.19482,137.11899h5.91293c-0.01482,-0.82988 -0.20006,-1.39673 -0.55573,-1.70052c-0.35566,-0.3038 -0.97808,-0.4557 -1.86724,-0.4557h-1.06699c-0.20584,-0.00087 -0.41159,0.00853 -0.61649,0.02816c-0.56709,0.0573 -0.98401,0.19981 -1.25075,0.42754c-0.35566,0.3038 -0.54091,0.87064 -0.55573,1.70052zM266.14729,137.11899h5.75733c-0.00249,-0.1916 -0.01659,-0.38287 -0.04224,-0.57277c-0.0578,-0.41247 -0.17388,-0.73331 -0.34826,-0.96252c-0.04564,-0.06016 -0.09727,-0.11553 -0.15412,-0.16524c-0.29589,-0.25835 -0.79259,-0.40679 -1.49009,-0.44532c-0.1293,-0.00704 -0.25878,-0.0105 -0.38827,-0.01037h-0.91139c-0.20584,-0.00087 -0.41159,0.00853 -0.61649,0.02816c-0.56709,0.0573 -0.98401,0.19981 -1.25075,0.42754c-0.35566,0.3038 -0.54091,0.87064 -0.55573,1.70052zM242.29551,152.94608c-0.10374,0.05928 -0.20747,0.0778 -0.31121,0.05557c-0.10374,-0.02223 -0.18524,-0.0778 -0.24452,-0.16672c-0.04248,-0.05231 -0.06529,-0.11786 -0.06446,-0.18524c0,-0.01778 0.00148,-0.03631 0.00445,-0.05557c0.00122,-0.00869 0.0027,-0.01733 0.00445,-0.02593c0.02223,-0.10374 0.0778,-0.18524 0.16672,-0.24452c0.16674,-0.10168 0.32985,-0.20918 0.48904,-0.32232c0.17734,-0.12547 0.36258,-0.26527 0.55573,-0.41939c0.1199,-0.09567 0.23846,-0.19299 0.35566,-0.29194c0.51868,-0.43717 1.01883,-0.90028 1.50046,-1.38932c0.17049,-0.17249 0.33724,-0.34864 0.50015,-0.52831c0.2539,-0.28108 0.46878,-0.54214 0.64464,-0.7832c0.05928,-0.08892 0.14078,-0.14078 0.24452,-0.1556c0.10126,-0.01433 0.19537,0.00642 0.28231,0.06224c0.00223,0.00146 0.00446,0.00295 0.00667,0.00445c0.07374,0.04901 0.1278,0.12249 0.15264,0.20747c0.00585,0.01947 0.01055,0.03926 0.01408,0.05928c0.00397,0.02079 0.00645,0.04184 0.00741,0.06298c0.00049,0.00544 0.00074,0.01111 0.00074,0.01704c0.00017,0.0849 -0.03035,0.16701 -0.08595,0.23118c-0.14377,0.19745 -0.29606,0.38855 -0.45644,0.57277c-0.16647,0.19166 -0.35023,0.3895 -0.55128,0.59352c-0.07457,0.0751 -0.14991,0.14945 -0.226,0.22303c-0.51127,0.49645 -1.03365,0.96696 -1.56715,1.41155c-0.40803,0.34035 -0.78172,0.62859 -1.12109,0.86471c-0.09926,0.06929 -0.19981,0.13673 -0.30157,0.20228zM245.6521,144.29898v2.64526h4.17906v-2.64526zM245.6521,140.8757v2.62303h4.17906v-2.62303zM245.6521,137.47466v2.6008h4.17906v-2.6008zM236.51595,137.03008c-0.37048,-0.3853 -0.81877,-0.80395 -1.34486,-1.25594c-0.18673,-0.16081 -0.3762,-0.31842 -0.56832,-0.47274c-0.30281,-0.24254 -0.58388,-0.45174 -0.84322,-0.6276c-0.03646,-0.02383 -0.06792,-0.05453 -0.09262,-0.0904c-0.03074,-0.04582 -0.04865,-0.09904 -0.05187,-0.15412c-0.00065,-0.01135 -0.0009,-0.02272 -0.00074,-0.03408c0,-0.05138 0.00864,-0.09904 0.02593,-0.14301c0.01304,-0.03231 0.03077,-0.06252 0.05261,-0.08966c0.0741,-0.0741 0.16301,-0.12596 0.26675,-0.1556c0.02891,-0.00833 0.05884,-0.01257 0.08892,-0.0126c0.0741,0 0.14819,0.02643 0.22229,0.07928c0.11234,0.077 0.22325,0.15605 0.33269,0.23711c0.12103,0.08941 0.24748,0.18623 0.37938,0.29046c0.08175,0.06434 0.16302,0.1293 0.24378,0.19487c0.35566,0.28898 0.70022,0.57796 1.03365,0.86693c0.11793,0.10194 0.23427,0.20568 0.349,0.31121c0.10621,0.09781 0.20377,0.19117 0.29268,0.28009c0.05758,0.05755 0.11415,0.11609 0.16968,0.17561c0.08892,0.08892 0.12967,0.19265 0.12226,0.31121c-0.00236,0.048 -0.01159,0.09541 -0.02742,0.14078c-0.02023,0.05582 -0.05263,0.10644 -0.09484,0.14819c-0.07065,0.07107 -0.16459,0.11422 -0.26453,0.12152c-0.00444,0.0003 -0.00889,0.00055 -0.01334,0.00074c-0.10126,0.00692 -0.18722,-0.02643 -0.25786,-0.10003c-0.00693,-0.00717 -0.0136,-0.01459 -0.02001,-0.02223zM251.74286,151.79017c-0.08892,0.05928 -0.19265,0.08521 -0.31121,0.0778c-0.05753,-0.00288 -0.11381,-0.01778 -0.16524,-0.04372c-0.04763,-0.02489 -0.08972,-0.05917 -0.12374,-0.10077c-0.07167,-0.1015 -0.14504,-0.20179 -0.22007,-0.30083c-0.08348,-0.11016 -0.17438,-0.22674 -0.27268,-0.34974c-0.06125,-0.07623 -0.123,-0.15206 -0.18524,-0.22748c-0.27416,-0.33344 -0.55943,-0.65946 -0.85582,-0.97808c-0.29639,-0.31862 -0.56314,-0.58166 -0.80025,-0.78913c-0.06718,-0.06718 -0.10077,-0.14375 -0.10077,-0.2297c-0.00009,-0.00865 0.00016,-0.0173 0.00074,-0.02593c0.0031,-0.04831 0.01676,-0.09536 0.04001,-0.13782c0.02092,-0.03692 0.04886,-0.06939 0.08225,-0.09558c0.02564,-0.0315 0.05586,-0.05897 0.08966,-0.08151c0.05258,-0.03446 0.11422,-0.05252 0.17709,-0.05187c0.09889,-0.00161 0.19416,0.03719 0.26378,0.10744c0.00099,0.00123 0.00198,0.00246 0.00296,0.0037c0.09587,0.08424 0.19,0.17046 0.28231,0.2586c0.08299,0.07854 0.16943,0.16301 0.25934,0.25341c0.09464,0.09507 0.18826,0.19115 0.28083,0.28824c0.31121,0.32603 0.615,0.65576 0.91139,0.98919c0.28206,0.31664 0.51028,0.59006 0.68465,0.82025c0.00893,0.01183 0.01782,0.02369 0.02667,0.03557c0.0741,0.08892 0.10374,0.18895 0.08892,0.30009c-0.01482,0.11115 -0.06669,0.20377 -0.1556,0.27786z"/></g></g></svg>