<svg version="1.1" xmlns="http://www.w3.org/2000/svg" xmlns:xlink="http://www.w3.org/1999/xlink" width="152.83667" height="36.49879" viewBox="0,0,152.83667,36.49879"><g transform="translate(-163.58166,-161.75062)"><g data-paper-data="{&quot;isPaintingLayer&quot;:true}" stroke-linejoin="miter" stroke-miterlimit="10" stroke-dasharray="" stroke-dashoffset="0" style="mix-blend-mode: normal"><path d="M315.16833,166.90731v26.18541c0,2.16442 -3.00648,3.90669 -6.74149,3.90669h-136.85369c-3.73498,0 -6.74149,-1.74227 -6.74149,-3.90669v-26.18541c0,-2.16442 3.00648,-3.90669 6.74149,-3.90669h136.85369c3.73498,0 6.74149,1.74227 6.74149,3.90669z" fill="#5793ff" fill-rule="nonzero" stroke="#0059ff" stroke-width="2.5" stroke-linecap="butt"/><path d="M239.74426,184.81723v-4.91944h-1.39278c-0.05103,1.03483 -0.17842,1.94806 -0.38218,2.73968c-0.03366,0.1311 -0.07025,0.26142 -0.10976,0.39087c-0.26833,0.87741 -0.67935,1.67389 -1.23305,2.38944c-0.01602,0.02169 -0.03412,0.04177 -0.05405,0.05993c-0.08953,0.08033 -0.19077,0.08165 -0.30373,0.00396c-0.04819,-0.03906 -0.07807,-0.09632 -0.08254,-0.15819c-0.00021,-0.00264 -0.00038,-0.00528 -0.00051,-0.00792c-0.00426,-0.06815 0.01491,-0.12352 0.0575,-0.16611c0.56906,-0.70529 0.98555,-1.52102 1.22309,-2.39558c0.03144,-0.11228 0.06033,-0.22527 0.08663,-0.33887c0.10798,-0.47496 0.18891,-0.95567 0.24239,-1.4398c0.08118,-0.70959 0.12177,-1.4904 0.12177,-2.34242v-1.64833c-0.00099,-0.17988 0.01075,-0.3596 0.03514,-0.53782c0.06483,-0.45327 0.21922,-0.78937 0.46319,-1.00829c0.30002,-0.26927 0.79456,-0.41694 1.48363,-0.44301c0.07616,-0.00285 0.15238,-0.00425 0.22859,-0.00422h4.16555c0.02594,-0.00022 0.05176,0.00336 0.07667,0.01061c0.03382,0.00995 0.06459,0.02828 0.08944,0.05328c0.03467,0.03477 0.0564,0.08036 0.06159,0.12918c0.00154,0.01225 0.00231,0.02458 0.0023,0.03693c0.00012,0.0572 -0.02112,0.11238 -0.05954,0.15474c-0.00143,0.00168 -0.00288,0.00334 -0.00434,0.00498c-0.04259,0.04685 -0.09796,0.07028 -0.16611,0.07028h-4.16555c-0.52448,0 -0.92098,0.07079 -1.18948,0.21237c-0.06363,0.03303 -0.12327,0.07325 -0.17774,0.11986c-0.24005,0.20802 -0.36736,0.57389 -0.38193,1.09761c-0.00095,0.03449 -0.00142,0.06899 -0.00141,0.1035v1.64833v0.40889c0.00007,0.11609 -0.00321,0.23216 -0.00984,0.34807c-0.00091,0.01602 -0.00189,0.03203 -0.00294,0.04804h6.17166c0.02594,-0.00022 0.05176,0.00336 0.07667,0.01061c0.03382,0.00995 0.06459,0.02828 0.08944,0.05328c0.03467,0.03477 0.0564,0.08036 0.06159,0.12918c0.00154,0.01225 0.00231,0.02458 0.0023,0.03693c0.00012,0.0572 -0.02112,0.11238 -0.05954,0.15474c-0.00143,0.00168 -0.00288,0.00334 -0.00434,0.00498c-0.04259,0.04685 -0.09796,0.07028 -0.16611,0.07028h-3.09222c0.05606,0.25617 0.11877,0.51083 0.18809,0.76373c0.03914,0.14226 0.0808,0.28382 0.12497,0.42461c0.09609,0.30815 0.2104,0.61032 0.34232,0.90492c0.01964,0.04355 0.0397,0.08691 0.06018,0.13008c0.06874,-0.03095 0.1374,-0.06209 0.20598,-0.09341c0.06125,-0.02794 0.12582,-0.05754 0.19371,-0.08881c0.07126,-0.03286 0.14248,-0.06583 0.21364,-0.0989c0.23852,-0.11074 0.47704,-0.22574 0.71555,-0.345c0.08442,-0.04217 0.16846,-0.08511 0.25211,-0.1288c0.06559,-0.03424 0.12739,-0.06725 0.18541,-0.09903c0.05471,-0.02989 0.10906,-0.06043 0.16304,-0.09162c0.0397,-0.02274 0.07943,-0.03412 0.11922,-0.03412c0.02019,0.00005 0.04028,0.00293 0.05967,0.00856c0.05963,0.01704 0.10648,0.05537 0.14056,0.115c0.02266,0.03978 0.03399,0.07952 0.03399,0.11922c-0.00001,0.02019 -0.00285,0.04027 -0.00843,0.05967c-0.01704,0.05963 -0.05963,0.10648 -0.12778,0.14056c-0.06848,0.03418 -0.13718,0.06792 -0.20611,0.1012c-0.12241,0.05929 -0.25815,0.12352 -0.40723,0.19269l-0.71555,0.33222c-0.0991,0.04605 -0.1986,0.09124 -0.29849,0.13557c-0.12156,0.05392 -0.23503,0.10243 -0.3404,0.14554c0.29815,0.53667 0.6538,1.01796 1.06694,1.44389c0.26988,0.2767 0.55784,0.53517 0.86199,0.77369c0.19521,0.15363 0.39568,0.30045 0.60107,0.44019c0.05312,0.02966 0.09109,0.08055 0.10439,0.13992c0.00163,0.00655 0.00304,0.01316 0.00422,0.01981c0.0029,0.0167 0.00434,0.03284 0.00434,0.04843c0.00069,0.05004 -0.01673,0.09865 -0.04907,0.13685c-0.01984,0.02152 -0.04175,0.04104 -0.06542,0.05827c-0.10026,0.07207 -0.20623,0.06968 -0.31791,-0.00716c-0.35332,-0.25553 -0.6912,-0.53176 -1.01187,-0.82723c-0.23047,-0.2128 -0.44933,-0.43784 -0.65563,-0.67416c-0.46017,-0.5323 -0.83893,-1.12984 -1.12393,-1.77317c-0.00231,-0.00524 -0.00461,-0.01048 -0.0069,-0.01572c-0.15417,-0.34901 -0.28675,-0.70717 -0.39701,-1.07244c-0.12156,-0.39816 -0.22774,-0.82651 -0.31855,-1.28506h-0.83055v4.80444c0.3237,-0.08518 0.63889,-0.17037 0.94555,-0.25556c0.0735,-0.0204 0.14697,-0.04089 0.22042,-0.06146c0.20402,-0.05724 0.38112,-0.10772 0.5313,-0.15142c0.00498,-0.00145 0.00997,-0.0029 0.01495,-0.00434c0.04055,-0.01354 0.08246,-0.01363 0.12573,-0.00026c0.01161,0.00358 0.02296,0.00794 0.03399,0.01303c0.01668,0.00751 0.03228,0.01723 0.04638,0.02888c0.0265,0.02166 0.0441,0.05232 0.04945,0.08612c0.00313,0.01397 0.00556,0.02808 0.00728,0.04229c0.01218,0.10248 -0.02168,0.17646 -0.10158,0.22195c-0.02272,0.01261 -0.04681,0.02255 -0.07181,0.02964c-0.16526,0.05078 -0.33082,0.10058 -0.49667,0.14937c-0.17395,0.0512 -0.35756,0.10427 -0.55085,0.15921c-0.02777,0.0079 -0.05554,0.01578 -0.08331,0.02364c-0.42167,0.11926 -0.8412,0.23426 -1.25861,0.345c-0.41741,0.11074 -0.79648,0.2087 -1.13722,0.29389c-0.01411,0.00374 -0.02839,0.00676 -0.04281,0.00907c-0.13527,0.02147 -0.22267,-0.03914 -0.2622,-0.18183c-0.00057,-0.00204 -0.00112,-0.00409 -0.00166,-0.00613c-0.00369,-0.0145 -0.00613,-0.02929 -0.00728,-0.04421c-0.00043,-0.00571 -0.00064,-0.01133 -0.00064,-0.01687c0.00003,-0.04454 0.01397,-0.08796 0.03987,-0.1242c0.01409,-0.02081 0.03123,-0.03938 0.05086,-0.05507c0.02782,-0.02192 0.061,-0.03599 0.09609,-0.04076c0.16185,-0.03407 0.36417,-0.08093 0.60694,-0.14056c0.24278,-0.05963 0.50472,-0.12778 0.78583,-0.20444zM276.2759,180.95835v1.94222c0.00079,0.18229 -0.00954,0.36445 -0.03092,0.54548c-0.05247,0.42712 -0.17207,0.75853 -0.3588,0.99424c-0.25981,0.32796 -0.69639,0.49194 -1.30972,0.49194c-0.48556,0 -0.87741,-0.13417 -1.17555,-0.4025c-0.2377,-0.21393 -0.39,-0.50661 -0.42882,-0.82404c-0.01252,-0.08893 -0.01867,-0.17865 -0.0184,-0.26846c-0.00186,-0.57091 0.22318,-1.11917 0.6256,-1.52413c0.05339,-0.05634 0.10898,-0.11055 0.16662,-0.16253c0.52815,-0.47704 1.21389,-0.84759 2.05722,-1.11167v-2.95166c-0.45148,0.03407 -0.90296,0.06389 -1.35444,0.08944c-0.45148,0.02556 -0.86463,0.04259 -1.23944,0.05111c-0.05963,0.00852 -0.11287,-0.01065 -0.15972,-0.0575c-0.04547,-0.04453 -0.07084,-0.10566 -0.07028,-0.16931c-0.00001,-0.00107 -0.00001,-0.00213 0,-0.00319c-0.00032,-0.02746 0.00405,-0.05477 0.01291,-0.08076c0.01164,-0.03283 0.03137,-0.06218 0.05737,-0.08536c0.02226,-0.02067 0.04811,-0.03708 0.07628,-0.04843c0.02659,-0.01038 0.0549,-0.01562 0.08344,-0.01546c0.37481,0 0.7837,-0.01065 1.22667,-0.03194c0.42676,-0.02063 0.85327,-0.04619 1.27944,-0.07667c0.02926,-0.00211 0.05852,-0.00424 0.08778,-0.00639v-2.33833c-0.00032,-0.02746 0.00405,-0.05477 0.01291,-0.08076c0.01164,-0.03283 0.03137,-0.06218 0.05737,-0.08536c0.02226,-0.02067 0.04811,-0.03708 0.07628,-0.04843c0.02659,-0.01038 0.0549,-0.01562 0.08344,-0.01546c0.03113,-0.00032 0.06208,0.00474 0.09149,0.01495c0.03,0.01074 0.05754,0.02738 0.08101,0.04894c0.04685,0.04259 0.07028,0.09796 0.07028,0.16611v2.28722c0.33222,-0.03407 0.66231,-0.07028 0.99028,-0.10861c0.32796,-0.03833 0.64102,-0.08306 0.93917,-0.13417c0.02096,-0.0052 0.0411,-0.00779 0.06044,-0.00779c0.0428,-0.00029 0.08448,0.0137 0.11845,0.03974c0.0475,0.03533 0.07899,0.08811 0.08753,0.14669c0.00073,0.00433 0.00137,0.00868 0.00192,0.01303c0.0012,0.01031 0.00197,0.02067 0.0023,0.03105c0.00417,0.12658 -0.06474,0.20568 -0.20674,0.23728c-0.28963,0.04259 -0.60481,0.08306 -0.94555,0.12139c-0.34074,0.03833 -0.69,0.07454 -1.04778,0.10861v2.86222c0.37481,-0.0937 0.76667,-0.16398 1.17555,-0.21083c0.40889,-0.04685 0.8263,-0.07028 1.25222,-0.07028c0.31198,-0.00163 0.62366,0.01964 0.93252,0.06363c0.31501,0.04668 0.6003,0.119 0.85585,0.21697c0.24243,0.09077 0.47065,0.21572 0.67773,0.37107c0.56077,0.42695 0.84606,0.98546 0.85585,1.67555c0.00017,0.01222 0.00026,0.02445 0.00026,0.03667c0,0.7607 -0.29981,1.34648 -0.89943,1.75733c-0.03194,0.02189 -0.06436,0.04306 -0.09724,0.06351c-0.66444,0.41315 -1.60148,0.59843 -2.81111,0.55583c-0.0326,-0.00318 -0.06462,-0.01075 -0.09519,-0.02249c-0.07164,-0.02862 -0.11474,-0.08101 -0.12931,-0.15717c-0.00382,-0.02082 -0.00566,-0.04196 -0.00549,-0.06312c0.00318,-0.0326 0.01075,-0.06462 0.02249,-0.09519c0.02862,-0.07156 0.08101,-0.11462 0.15717,-0.12918c0.02082,-0.00386 0.04195,-0.00574 0.06312,-0.00562c0.10494,0.00426 0.20995,0.00669 0.31497,0.00728c0.62509,0.00332 1.15928,-0.06376 1.60259,-0.20125c0.18806,-0.05709 0.36974,-0.13339 0.54216,-0.2277c0.20023,-0.10741 0.3783,-0.25179 0.52478,-0.4255c0.20078,-0.24406 0.31527,-0.5385 0.34347,-0.88333c0.0047,-0.05768 0.00705,-0.11552 0.00703,-0.17339c0,-0.63037 -0.25981,-1.10954 -0.77944,-1.4375c-0.41161,-0.25973 -0.93269,-0.4166 -1.56323,-0.47061c-0.1728,-0.01451 -0.34614,-0.02163 -0.51954,-0.02134c-0.42596,-0.00127 -0.85162,0.02288 -1.27471,0.07232c-0.38929,0.04534 -0.77469,0.1194 -1.15307,0.22157zM186.68458,184.52973c0.12771,0.11616 0.26864,0.2169 0.41988,0.30015c0.43163,0.2386 0.97103,0.35791 1.61818,0.35791c0.21895,0.00087 0.43761,-0.0164 0.65371,-0.05162c0.30649,-0.04877 0.60335,-0.14562 0.87962,-0.28699c0.04367,-0.02268 0.08679,-0.04641 0.12931,-0.07117c0.35961,-0.20456 0.66391,-0.49372 0.88652,-0.84244c0.24278,-0.38333 0.36417,-0.81352 0.36417,-1.29055c-0.00267,-0.13834 -0.01557,-0.27629 -0.03859,-0.41272c-0.05389,-0.31046 -0.15507,-0.61083 -0.30002,-0.89061c-0.11398,-0.22143 -0.25187,-0.42971 -0.41119,-0.62113c-0.17132,-0.20572 -0.36086,-0.39556 -0.56631,-0.56721c-0.01676,-0.01695 -0.03646,-0.03072 -0.05814,-0.04063c-0.02547,-0.01158 -0.05362,-0.01738 -0.08446,-0.01738c-0.00571,-0.00002 -0.01142,0.00015 -0.01712,0.00051c-0.0309,0.00177 -0.06107,0.01004 -0.08855,0.02428c-0.02738,0.01469 -0.05157,0.03467 -0.07117,0.05878c-0.01699,0.01671 -0.0308,0.03637 -0.04076,0.05801c-0.01158,0.02556 -0.01738,0.05375 -0.01738,0.08459c0.00002,0.00571 0.00024,0.01142 0.00064,0.01712c0.00179,0.03085 0.01006,0.06098 0.02428,0.08842c0.01467,0.02743 0.03465,0.05166 0.05878,0.0713c0.03795,0.03333 0.07531,0.06732 0.11206,0.10197c0.28866,0.26901 0.53327,0.58171 0.72488,0.92664c0.07227,0.13025 0.13397,0.26609 0.18451,0.40621c0.08357,0.2281 0.12705,0.46893 0.12854,0.71185c-0.00004,0.00307 -0.00008,0.00613 -0.00013,0.0092c0.0035,0.37098 -0.10319,0.73466 -0.30654,1.04497c-0.20444,0.31093 -0.48981,0.55796 -0.85611,0.74111c-0.20516,0.1013 -0.42321,0.17409 -0.64809,0.21633c-0.2118,0.03995 -0.42694,0.05951 -0.64247,0.05839c-0.18939,0.00085 -0.37862,-0.01093 -0.56644,-0.03527c-0.52338,-0.07036 -0.92234,-0.24601 -1.19689,-0.52696c-0.23734,-0.24495 -0.40286,-0.55037 -0.47853,-0.88294c-0.04882,-0.20898 -0.07263,-0.42301 -0.07092,-0.63761c0.00002,-0.02573 0.00053,-0.05146 0.00153,-0.07718c0.00494,-0.12897 0.02147,-0.29704 0.04958,-0.50421c0.01122,-0.08255 0.0231,-0.16502 0.03565,-0.24738c0.01312,-0.08646 0.02752,-0.17684 0.04319,-0.27114c0.01978,-0.11905 0.04035,-0.23798 0.06172,-0.35676c0.27259,0.03407 0.54518,0.06602 0.81778,0.09583c0.0756,0.00828 0.15125,0.01615 0.22693,0.02364c0.18393,0.01827 0.36812,0.03382 0.55251,0.04664c0.06815,0.00852 0.12565,-0.01065 0.1725,-0.0575c0.0065,-0.00652 0.01268,-0.01334 0.01853,-0.02044c0.03337,-0.03873 0.05173,-0.08815 0.05175,-0.13928c0.00018,-0.0014 0.00035,-0.00281 0.00051,-0.00422c0.00724,-0.06627 -0.00997,-0.12237 -0.05162,-0.16828c-0.02319,-0.02595 -0.05254,-0.04564 -0.08536,-0.05724c-0.02598,-0.0089 -0.05329,-0.01331 -0.08076,-0.01303c-0.23852,-0.01704 -0.48768,-0.03833 -0.7475,-0.06389c-0.25981,-0.02556 -0.52602,-0.05537 -0.79861,-0.08944c0.07667,-0.40037 0.15972,-0.82417 0.24917,-1.27139c0.08944,-0.44722 0.17676,-0.90083 0.26194,-1.36083c0.22148,0.04259 0.44083,0.08093 0.65806,0.115c0.21722,0.03407 0.41954,0.06389 0.60694,0.08944c0.0014,0.00018 0.00281,0.00035 0.00422,0.00051c0.06627,0.00733 0.12237,-0.00988 0.16828,-0.05162c0.00034,-0.00034 0.00068,-0.00068 0.00102,-0.00102c0.0446,-0.03939 0.07369,-0.09339 0.08203,-0.15231c0.01704,-0.06815 0.00639,-0.12565 -0.03194,-0.1725c-0.02217,-0.02722 -0.05057,-0.0487 -0.0828,-0.06261c-0.02452,-0.01048 -0.05043,-0.01737 -0.07692,-0.02044c-0.31518,-0.04259 -0.73259,-0.10222 -1.25222,-0.17889c0.0937,-0.51111 0.17676,-1.00305 0.24917,-1.47583c0.01645,-0.1073 0.03212,-0.21473 0.04702,-0.32226c0.02402,-0.17335 0.04442,-0.33729 0.06121,-0.49182c0.01538,-0.13942 0.02829,-0.2791 0.03872,-0.41898c0.00011,-0.02113 -0.00177,-0.04222 -0.00562,-0.06299c-0.01457,-0.07616 -0.05763,-0.12859 -0.12918,-0.15729c-0.03058,-0.01174 -0.0626,-0.01931 -0.09519,-0.02249c-0.00973,-0.00142 -0.01955,-0.00215 -0.02939,-0.00217c-0.02615,0 -0.05103,0.00532 -0.07462,0.01597c-0.02042,0.00943 -0.03922,0.02202 -0.05571,0.03731c-0.02343,0.02111 -0.04263,0.04648 -0.05661,0.07475c-0.01387,0.02876 -0.02281,0.05964 -0.02645,0.09136c-0.00421,0.08321 -0.00949,0.16635 -0.01584,0.24942c-0.02147,0.2823 -0.05665,0.59953 -0.10554,0.95169c-0.01669,0.12014 -0.03416,0.24016 -0.05239,0.36008c-0.05528,0.36227 -0.11662,0.72359 -0.184,1.08381c-0.29815,-0.05111 -0.58991,-0.10861 -0.87528,-0.1725c-0.03947,-0.00883 -0.07891,-0.01777 -0.11832,-0.02683c-0.11611,-0.02666 -0.22574,-0.05298 -0.3289,-0.07897c-0.10044,-0.02516 -0.20054,-0.05165 -0.30028,-0.07948c-0.0351,-0.00997 -0.06938,-0.01188 -0.10286,-0.00575c-0.02438,0.0046 -0.04788,0.01301 -0.06964,0.02492c-0.05537,0.02982 -0.09157,0.07454 -0.10861,0.13417c-0.00563,0.01939 -0.00851,0.03948 -0.00856,0.05967c0,0.0397 0.01137,0.07943 0.03412,0.11922c0.03407,0.05963 0.08093,0.09796 0.14056,0.115c0.47704,0.11926 1.02648,0.23852 1.64833,0.35778l-0.25556,1.35444c-0.08518,0.45148 -0.16611,0.87741 -0.24278,1.27778c-0.3237,-0.05111 -0.63889,-0.10861 -0.94555,-0.1725c-0.0424,-0.00883 -0.08478,-0.01778 -0.12714,-0.02683c-0.1248,-0.02666 -0.24282,-0.05298 -0.35407,-0.07897c-0.10825,-0.02518 -0.21619,-0.05167 -0.32379,-0.07948c-0.12284,-0.03407 -0.21015,-0.00809 -0.26194,0.07794c-0.01381,0.02367 -0.02454,0.049 -0.03194,0.07539c-0.03416,0.12284 -0.00818,0.21011 0.07794,0.26182c0.02366,0.01385 0.049,0.02463 0.07539,0.03207c0.00021,0.00008 0.00043,0.00017 0.00064,0.00026c0.24687,0.06806 0.52563,0.134 0.8363,0.1978c0.31093,0.06389 0.63676,0.12139 0.9775,0.1725c-0.03356,0.19167 -0.06376,0.37056 -0.09059,0.53667c-0.0196,0.12126 -0.03839,0.24265 -0.05635,0.36417c-0.02641,0.17863 -0.0437,0.33209 -0.05188,0.46038c-0.00356,0.05304 -0.00544,0.10618 -0.00562,0.15934c-0.00003,0.02355 0.00014,0.04711 0.00051,0.07066c0.01346,0.7918 0.25394,1.40074 0.72143,1.82684zM290.74033,176.80557v-1.92944c-0.00043,-0.03495 0.00663,-0.06959 0.0207,-0.10158c0.01205,-0.02647 0.02886,-0.05051 0.04958,-0.07092c0.01834,-0.01871 0.03946,-0.03449 0.06261,-0.04677c0.02998,-0.01562 0.06331,-0.02369 0.09711,-0.02351c0.02746,-0.00028 0.05477,0.00413 0.08076,0.01303c0.03281,0.0116 0.06217,0.03129 0.08536,0.05724c0.04259,0.04685 0.06389,0.10435 0.06389,0.1725v1.90389c0.80926,-0.03407 1.59083,-0.0575 2.34472,-0.07028c0.23501,-0.00402 0.47004,-0.00657 0.70508,-0.00767c0.27847,-0.00128 0.54608,-0.00026 0.80283,0.00307c0.181,0.00233 0.36198,0.00599 0.54293,0.01099c0.02746,-0.00028 0.05477,0.00413 0.08076,0.01303c0.03281,0.0116 0.06217,0.03129 0.08536,0.05724c0.04166,0.04591 0.05886,0.10201 0.05162,0.16828c-0.00016,0.00141 -0.00033,0.00281 -0.00051,0.00422c0.00012,0.0572 -0.02112,0.11238 -0.05954,0.15474c-0.00143,0.00168 -0.00288,0.00334 -0.00434,0.00498c-0.04259,0.04685 -0.09796,0.07028 -0.16611,0.07028c-0.61333,-0.02556 -1.29481,-0.03407 -2.04444,-0.02556c-0.74963,0.00852 -1.52907,0.02556 -2.33833,0.05111c0.00852,0.42593 0.0213,0.8625 0.03833,1.30972c0.01454,0.37983 0.02617,0.75977 0.03488,1.13978c0.00121,0.05239 0.00236,0.10478 0.00345,0.15717c0.09226,0.15938 0.16594,0.34977 0.22106,0.57117c0.00086,0.00341 0.00171,0.00681 0.00256,0.01022c0.03388,0.14034 0.05703,0.28305 0.06926,0.42691c0.00932,0.10661 0.01393,0.21358 0.0138,0.32059c0,0.87741 -0.24065,1.70583 -0.72194,2.48528c-0.30734,0.49042 -0.70115,0.92098 -1.16227,1.27075c-0.32614,0.24954 -0.67496,0.46793 -1.0419,0.65231c-0.02136,0.00932 -0.04388,0.01568 -0.06696,0.01891c-0.03603,0.00486 -0.07211,0.00115 -0.10823,-0.01112c-0.00124,-0.00046 -0.00247,-0.00093 -0.00371,-0.00141c-0.05963,-0.0213 -0.10648,-0.0575 -0.14056,-0.10861c-0.02496,-0.0581 -0.02964,-0.11824 -0.01406,-0.18042c0.00041,-0.00162 0.00084,-0.00324 0.00128,-0.00486c0.01704,-0.06389 0.05537,-0.10861 0.115,-0.13417c0.36334,-0.17384 0.70763,-0.38495 1.02733,-0.62994c0.39461,-0.3008 0.73253,-0.66944 0.99794,-1.08867c0.27852,-0.43827 0.47686,-0.9226 0.58573,-1.43034c0.05388,-0.25881 0.08238,-0.52226 0.0851,-0.7866c-0.11926,0.28963 -0.30667,0.51537 -0.56222,0.67722c-0.24037,0.15135 -0.5172,0.23484 -0.80117,0.24163c-0.02257,0.00079 -0.04514,0.00117 -0.06772,0.00115c-0.16537,0.00118 -0.33045,-0.01432 -0.49271,-0.04626c-0.19448,-0.03978 -0.36634,-0.10525 -0.51558,-0.19639c-0.08863,-0.05403 -0.17051,-0.11842 -0.24393,-0.19179c-0.23147,-0.23235 -0.37813,-0.53575 -0.41643,-0.86148c-0.01225,-0.0914 -0.01827,-0.18353 -0.01802,-0.27574c-0.00236,-0.20939 0.03547,-0.41729 0.11142,-0.61244c0.07878,-0.19521 0.19751,-0.37179 0.34858,-0.51839c0.21536,-0.21029 0.48779,-0.35261 0.7834,-0.40927c0.15009,-0.03039 0.30291,-0.04525 0.45604,-0.04434c0.1821,-0.00139 0.36358,0.02156 0.53961,0.06823c0.19714,0.05287 0.38254,0.14243 0.54651,0.26399c-0.00852,-0.3237 -0.01917,-0.66231 -0.03194,-1.01583c-0.01278,-0.35352 -0.02343,-0.70065 -0.03194,-1.04139c-1.0137,0.03407 -2.02102,0.08731 -3.02194,0.15972c-1.00093,0.07241 -1.91028,0.15546 -2.72805,0.24917c-0.00992,0.00126 -0.0199,0.00208 -0.0299,0.00243c-0.11381,0.00375 -0.18762,-0.0592 -0.22144,-0.18886c-0.00151,-0.00598 -0.00292,-0.01199 -0.00422,-0.01802c-0.00852,-0.06772 0.01031,-0.12492 0.05648,-0.17161c0.00034,-0.0003 0.00068,-0.0006 0.00102,-0.00089c0.02233,-0.02269 0.04807,-0.04174 0.07628,-0.05648c0.02613,-0.01347 0.05433,-0.02245 0.08344,-0.02658c0.83481,-0.08518 1.75481,-0.16185 2.76,-0.23c1.00518,-0.06815 2.01463,-0.11926 3.02833,-0.15333zM221.9065,178.93946v-0.77944c-0.00054,-0.17884 0.00636,-0.35763 0.0207,-0.5359c0.02879,-0.34381 0.08757,-0.62935 0.17633,-0.85662c0.00843,-0.02156 0.01729,-0.04294 0.02658,-0.06414c0.13282,-0.30666 0.38259,-0.5476 0.69383,-0.6693c0.03448,-0.01443 0.06943,-0.02773 0.10478,-0.03987c0.38333,-0.13204 0.93278,-0.19806 1.64833,-0.19806h2.07v-1.45667c-0.00032,-0.02746 0.00405,-0.05477 0.01291,-0.08076c0.01164,-0.03283 0.03137,-0.06218 0.05737,-0.08536c0.02226,-0.02067 0.04811,-0.03708 0.07628,-0.04843c0.02659,-0.01038 0.0549,-0.01562 0.08344,-0.01546c0.02594,-0.00022 0.05176,0.00336 0.07667,0.01061c0.03382,0.00995 0.06459,0.02828 0.08944,0.05328c0.03467,0.03477 0.0564,0.08036 0.06159,0.12918c0.00154,0.01225 0.00231,0.02458 0.0023,0.03693v1.45667h4.65111c0.02594,-0.00022 0.05176,0.00336 0.07667,0.01061c0.03382,0.00995 0.06459,0.02828 0.08944,0.05328c0.03467,0.03477 0.0564,0.08036 0.06159,0.12918c0.00154,0.01225 0.00231,0.02458 0.0023,0.03693c0.00012,0.0572 -0.02112,0.11238 -0.05954,0.15474c-0.00143,0.00168 -0.00288,0.00334 -0.00434,0.00498c-0.04259,0.04685 -0.09796,0.07028 -0.16611,0.07028h-7.18111c-0.16095,-0.00028 -0.32187,0.0036 -0.48262,0.01163c-0.31067,0.0161 -0.571,0.04902 -0.78098,0.09877c-0.04557,0.01071 -0.09079,0.0229 -0.13557,0.03654c-0.10967,0.03241 -0.21401,0.08067 -0.30973,0.14324c-0.15147,0.09992 -0.2686,0.24394 -0.33554,0.41259c-0.03757,0.09497 -0.0669,0.19299 -0.08766,0.29299c-0.0523,0.24235 -0.07846,0.54506 -0.07846,0.90812v0.77944c0.00054,0.42377 -0.00968,0.84749 -0.03067,1.27075c-0.01959,0.38563 -0.04873,0.74929 -0.0874,1.09097c-0.01255,0.11163 -0.02643,0.2231 -0.04166,0.33439c-0.056,0.41688 -0.13966,0.82958 -0.25044,1.23535c-0.08018,0.29235 -0.1779,0.5796 -0.29261,0.8602c-0.23108,0.55718 -0.53211,1.08269 -0.89585,1.56387c-0.05372,0.07166 -0.10863,0.14241 -0.16471,0.21224c-0.01259,0.02279 -0.02957,0.04285 -0.04996,0.05903c-0.02845,0.02198 -0.06291,0.03424 -0.10337,0.0368c-0.00749,0.00049 -0.01499,0.00075 -0.02249,0.00077c-0.03493,0 -0.06751,-0.00537 -0.09775,-0.0161c-0.0207,-0.00732 -0.0404,-0.01719 -0.05865,-0.02939c-0.04909,-0.03239 -0.08315,-0.08311 -0.09456,-0.14081c-0.00045,-0.00204 -0.00087,-0.00408 -0.00128,-0.00613c-0.00249,-0.01225 -0.00394,-0.02469 -0.00434,-0.03718c-0.00145,-0.04924 0.01491,-0.09434 0.04907,-0.13532c0.42593,-0.50259 0.76028,-1.04991 1.00305,-1.64194c0.14204,-0.35009 0.25737,-0.71043 0.345,-1.07793c0.07509,-0.31266 0.13479,-0.62883 0.17889,-0.94734c0.09149,-0.6515 0.14366,-1.39112 0.15653,-2.21886c0.00214,-0.13778 0.0032,-0.27557 0.00319,-0.41336zM250.04314,180.44724v0.02556c0.01465,0.05145 0.00711,0.09818 -0.02262,0.14017c-0.00484,0.00683 -0.01009,0.01336 -0.01572,0.01955c-0.03864,0.04246 -0.09044,0.07068 -0.14707,0.08012c-0.00632,0.00117 -0.01267,0.00215 -0.01904,0.00294c-0.00977,0.00142 -0.01964,0.00215 -0.02952,0.00217c-0.04847,0 -0.094,-0.01776 -0.13659,-0.05328c-0.02197,-0.01796 -0.04099,-0.03926 -0.05635,-0.06312c-0.01734,-0.02736 -0.02863,-0.05812 -0.03309,-0.09021c-0.03295,-0.29389 -0.05745,-0.58867 -0.07347,-0.88397c-0.01032,-0.18865 -0.01778,-0.37744 -0.02236,-0.56631c-0.01278,-0.51537 -0.01278,-1.03287 0,-1.5525c0.01278,-0.51963 0.03407,-1.00944 0.06389,-1.46944c0.01049,-0.16298 0.02194,-0.3259 0.03437,-0.48875c0.0098,-0.12778 0.01985,-0.24891 0.03016,-0.3634c0.00959,-0.10788 0.02003,-0.21569 0.03131,-0.32341c0.00326,-0.02879 0.01148,-0.0568 0.02428,-0.0828c0.01543,-0.03037 0.03774,-0.05672 0.06517,-0.07692c0.01994,-0.01524 0.04215,-0.02727 0.06581,-0.03565c0.03194,-0.01099 0.06538,-0.01401 0.10031,-0.00907c0.02649,0.00308 0.0524,0.00996 0.07692,0.02044c0.03223,0.01391 0.06063,0.03539 0.0828,0.06261c0.03028,0.03703 0.04685,0.08339 0.04689,0.13123c0.00026,0.01167 -0.0003,0.02368 -0.00166,0.03603c-0.00016,0.00175 -0.00033,0.00349 -0.00051,0.00524c-0.01727,0.1597 -0.03354,0.31951 -0.04881,0.47942c-0.01388,0.14396 -0.0279,0.29683 -0.04204,0.45859c-0.01498,0.17071 -0.02942,0.34146 -0.04332,0.51226c-0.04685,0.575 -0.07028,1.16491 -0.07028,1.76972c0.18928,-0.70976 0.47891,-1.28446 0.86889,-1.7241c0.03116,-0.03509 0.06311,-0.06947 0.09583,-0.10312c0.15723,-0.16476 0.33655,-0.30693 0.53283,-0.42243c0.28595,-0.16758 0.61156,-0.25556 0.943,-0.25479c0.71555,0 1.265,0.25556 1.64833,0.76667c0.2915,0.38878 0.47218,0.90569 0.54203,1.55071c0.02259,0.21494 0.03359,0.43094 0.03297,0.64707c0,0.86037 -0.09796,1.69092 -0.29389,2.49166c-0.17415,0.7224 -0.4278,1.42327 -0.75632,2.0898c-0.02432,0.04898 -0.04906,0.09776 -0.07424,0.14631c-0.27881,0.54264 -0.61656,1.05292 -1.00714,1.52158c-0.08744,0.1043 -0.17768,0.20622 -0.27063,0.30564c-0.02325,0.02884 -0.05559,0.04893 -0.09174,0.05699c-0.0184,0.00452 -0.03859,0.00682 -0.06057,0.0069c-0.00034,0 -0.00068,0 -0.00102,0c-0.02597,0.00027 -0.05184,-0.00326 -0.07679,-0.01048c-0.03379,-0.01001 -0.06451,-0.02838 -0.08932,-0.05341c-0.02121,-0.01721 -0.03902,-0.03822 -0.05252,-0.06197c-0.01633,-0.02996 -0.02465,-0.06363 -0.02415,-0.09775c-0.00033,-0.02867 0.00456,-0.05716 0.01444,-0.08408c0.01086,-0.02847 0.02773,-0.05427 0.04945,-0.07564c0.57785,-0.60393 1.04959,-1.30108 1.39533,-2.06208c0.10457,-0.22644 0.19963,-0.45715 0.28494,-0.69153c0.3633,-1.00716 0.56215,-2.06622 0.58893,-3.13656c0.0035,-0.11509 0.00524,-0.23024 0.00524,-0.34538c0,-0.81011 -0.13975,-1.42008 -0.41924,-1.8299c-0.01712,-0.02518 -0.03498,-0.04985 -0.05354,-0.07398c-0.26255,-0.35236 -0.66534,-0.57314 -1.10362,-0.6049c-0.06215,-0.00568 -0.12453,-0.0085 -0.18694,-0.00843c-0.28183,0.00103 -0.55749,0.0827 -0.79439,0.23537c-0.06581,0.04123 -0.12909,0.08637 -0.18949,0.13519c-0.188,0.1532 -0.35545,0.33001 -0.49821,0.52606c-0.10947,0.14941 -0.20774,0.3067 -0.29402,0.47061c-0.16356,0.31111 -0.29167,0.63959 -0.38193,0.97929c-0.03792,0.14078 -0.07036,0.28297 -0.09724,0.42627c-0.05791,0.3075 -0.08695,0.61974 -0.08676,0.93265c0.00021,0.22218 0.01425,0.44413 0.04204,0.66457zM235.2976,184.58723v-3.65444c-0.28963,0.1363 -0.57074,0.2662 -0.84333,0.38972c-0.27259,0.12352 -0.51963,0.23639 -0.74111,0.33861c-0.06815,0.02556 -0.1363,0.02556 -0.20444,0c-0.06815,-0.02556 -0.115,-0.07241 -0.14056,-0.14056c-0.03407,-0.06815 -0.0362,-0.13204 -0.00639,-0.19167c0.02982,-0.05963 0.07454,-0.10222 0.13417,-0.12778c0.09004,-0.03812 0.17995,-0.07654 0.26974,-0.11526c0.08076,-0.03476 0.16624,-0.07181 0.25645,-0.11117c0.09514,-0.04149 0.1902,-0.08315 0.2852,-0.12497c0.28814,-0.1268 0.57581,-0.25467 0.86301,-0.38359c0.04243,-0.01906 0.08485,-0.03814 0.12727,-0.05724v-3.05389h-1.71222c-0.05111,0.00002 -0.10053,-0.0183 -0.13928,-0.05162c-0.00711,-0.00589 -0.01393,-0.01212 -0.02044,-0.01866c-0.01877,-0.01837 -0.03459,-0.03954 -0.04689,-0.06274c-0.01556,-0.02995 -0.02358,-0.06324 -0.02338,-0.09698c-0.00032,-0.02746 0.00405,-0.05477 0.01291,-0.08076c0.01164,-0.03283 0.03137,-0.06218 0.05737,-0.08536c0.02226,-0.02067 0.04811,-0.03708 0.07628,-0.04843c0.02659,-0.01038 0.0549,-0.01562 0.08344,-0.01546h1.71222v-2.56833c-0.00002,-0.05111 0.0183,-0.10053 0.05162,-0.13928c0.00589,-0.00711 0.01212,-0.01393 0.01866,-0.02044c0.01834,-0.01871 0.03946,-0.03449 0.06261,-0.04677c0.02998,-0.01562 0.06331,-0.02369 0.09711,-0.02351c0.02746,-0.00028 0.05477,0.00413 0.08076,0.01303c0.03281,0.0116 0.06217,0.03129 0.08536,0.05724c0.02067,0.02226 0.03708,0.04811 0.04843,0.07628c0.01038,0.02659 0.01562,0.0549 0.01546,0.08344v2.56833h1.35444c0.02594,-0.00022 0.05176,0.00336 0.07667,0.01061c0.03382,0.00995 0.06459,0.02828 0.08944,0.05328c0.03467,0.03477 0.0564,0.08036 0.06159,0.12918c0.00154,0.01225 0.00231,0.02458 0.0023,0.03693c0.00012,0.0572 -0.02112,0.11238 -0.05954,0.15474c-0.00143,0.00168 -0.00288,0.00334 -0.00434,0.00498c-0.04259,0.04685 -0.09796,0.07028 -0.16611,0.07028h-1.35444v2.84944c0.26407,-0.11926 0.51324,-0.23426 0.7475,-0.345c0.08276,-0.03913 0.16552,-0.07828 0.24827,-0.11743c0.1294,-0.06116 0.24469,-0.11572 0.34589,-0.16368c0.01277,-0.00794 0.02609,-0.01494 0.03987,-0.02096c0.09149,-0.03944 0.16338,-0.0069 0.21569,0.09762c0.00703,0.01592 0.01293,0.03231 0.01763,0.04907c0.0299,0.10793 -0.01009,0.19162 -0.11998,0.25108c-0.00418,0.00224 -0.0084,0.00441 -0.01265,0.00652c-0.40037,0.21296 -0.89444,0.46 -1.48222,0.74111v3.88444c0.00033,0.10174 -0.00474,0.20342 -0.01521,0.30462c-0.01993,0.18647 -0.05959,0.34474 -0.11896,0.47482c-0.06864,0.14941 -0.18551,0.27141 -0.33184,0.34641c-0.05137,0.02735 -0.10492,0.05039 -0.16011,0.06887c-0.08309,0.02743 -0.16808,0.04874 -0.25428,0.06376c-0.21186,0.03842 -0.47636,0.05763 -0.7935,0.05763c-0.05111,0.00002 -0.10053,-0.0183 -0.13928,-0.05162c-0.00711,-0.00589 -0.01393,-0.01212 -0.02044,-0.01866c-0.01877,-0.01837 -0.03459,-0.03954 -0.04689,-0.06274c-0.01556,-0.02995 -0.02358,-0.06324 -0.02338,-0.09698c-0.00032,-0.02746 0.00405,-0.05477 0.01291,-0.08076c0.01164,-0.03283 0.03137,-0.06218 0.05737,-0.08536c0.02226,-0.02067 0.04811,-0.03708 0.07628,-0.04843c0.02659,-0.01038 0.0549,-0.01562 0.08344,-0.01546c0.2835,0 0.50813,-0.01469 0.6739,-0.04408c0.03982,-0.00691 0.07931,-0.01565 0.11832,-0.02619c0.12641,-0.03476 0.22118,-0.09064 0.28431,-0.16764c0.02193,-0.02676 0.04019,-0.05632 0.05431,-0.08791c0.05256,-0.11738 0.08016,-0.28286 0.0828,-0.49642c0.00015,-0.01129 0.00024,-0.02257 0.00026,-0.03386zM224.75594,181.61001h-1.32889c-0.05111,0.00002 -0.10053,-0.0183 -0.13928,-0.05162c-0.00711,-0.00589 -0.01393,-0.01212 -0.02044,-0.01866c-0.01877,-0.01837 -0.03459,-0.03954 -0.04689,-0.06274c-0.01556,-0.02995 -0.02358,-0.06324 -0.02338,-0.09698c-0.00032,-0.02746 0.00405,-0.05477 0.01291,-0.08076c0.01164,-0.03283 0.03137,-0.06218 0.05737,-0.08536c0.02226,-0.02067 0.04811,-0.03708 0.07628,-0.04843c0.02659,-0.01038 0.0549,-0.01562 0.08344,-0.01546h4.76611c0.11275,-0.0006 0.2254,0.00692 0.33708,0.02249c0.11474,0.0167 0.21841,0.04263 0.31101,0.07782c0.09864,0.03627 0.19054,0.08874 0.27191,0.15525c0.07378,0.06012 0.13663,0.13253 0.18579,0.21403c0.07403,0.12539 0.1058,0.26701 0.09532,0.42486c-0.00984,0.12561 -0.04648,0.24765 -0.10746,0.35791c-0.04481,0.08408 -0.1035,0.16816 -0.17608,0.25223c-0.04751,0.0548 -0.09788,0.10705 -0.15091,0.15653c-0.42593,0.40037 -0.89444,0.77093 -1.40555,1.11167c0.62185,0.38333 1.29055,0.67935 2.00611,0.88805c0.71555,0.2087 1.44389,0.34287 2.185,0.4025c0.05635,-0.00091 0.1102,0.02318 0.14707,0.06581c0.00679,0.00751 0.01315,0.0154 0.01904,0.02364c0.01452,0.02006 0.02602,0.04215 0.03412,0.06555c0.0132,0.03859 0.01503,0.0788 0.00549,0.12062c-0.00041,0.00184 -0.00083,0.00367 -0.00128,0.00549c-0.03407,0.16185 -0.14481,0.23 -0.33222,0.20444c-0.90296,-0.11926 -1.725,-0.30028 -2.46611,-0.54306c-0.74111,-0.24278 -1.41407,-0.56435 -2.01889,-0.96472c-1.23518,0.74111 -2.74296,1.27778 -4.52333,1.61c-0.17889,0.02556 -0.28963,-0.03833 -0.33222,-0.19167c-0.02462,-0.15563 0.0414,-0.24827 0.19806,-0.27792c0.00637,-0.00119 0.01276,-0.00225 0.01917,-0.00319c0.48449,-0.06662 0.96478,-0.16086 1.43852,-0.28226c0.30176,-0.07774 0.59987,-0.16902 0.89342,-0.27357c0.70278,-0.2513 1.33954,-0.5388 1.91028,-0.8625c-0.76667,-0.5963 -1.42685,-1.36296 -1.98055,-2.3zM200.88426,185.60511c0.0188,-0.00997 0.03682,-0.02133 0.05392,-0.03399c0.75815,-0.70704 1.35657,-1.53546 1.79528,-2.48528c0.4387,-0.94981 0.65806,-1.92731 0.65806,-2.9325c0.00129,-0.23658 -0.02079,-0.47271 -0.06593,-0.70495c-0.08972,-0.49289 -0.32746,-0.94676 -0.68157,-1.30116c-0.49833,-0.49407 -1.16491,-0.74111 -1.99972,-0.74111c-0.23715,0.00054 -0.47366,0.02451 -0.7061,0.07156c-0.2833,0.05789 -0.56033,0.14305 -0.82723,0.25428c-0.52815,0.21722 -1.02222,0.52602 -1.48222,0.92639c-0.09336,0.09328 -0.11108,0.1866 -0.05316,0.27996c0.01177,0.01866 0.02529,0.03616 0.04038,0.05226c0.00392,0.0047 0.00802,0.00926 0.01227,0.01367c0.038,0.04095 0.0916,0.06385 0.14746,0.06299c0.01742,0.00008 0.03481,-0.00129 0.05201,-0.00409c0.03937,-0.00609 0.07649,-0.02229 0.10772,-0.04702c0.09821,-0.08653 0.19939,-0.16963 0.30334,-0.24917c0.32097,-0.2477 0.67199,-0.45378 1.04471,-0.61333c0.15706,-0.06689 0.31811,-0.12399 0.48223,-0.17097c0.28969,-0.08422 0.58969,-0.12774 0.89138,-0.12931c0.16955,-0.00068 0.33884,0.01326 0.506,0.04166c0.43533,0.06767 0.83773,0.27241 1.14872,0.58446c0.2591,0.26243 0.44303,0.58959 0.53258,0.94734c0.05994,0.23747 0.08922,0.48164 0.08714,0.72654c0,0.62185 -0.09157,1.24157 -0.27472,1.85917c-0.18315,0.61759 -0.44722,1.19898 -0.79222,1.74417c-0.345,0.54518 -0.76028,1.035 -1.24583,1.46944c-0.00439,0.0035 -0.00862,0.00721 -0.01265,0.01112c-0.02164,0.02113 -0.03727,0.04758 -0.04689,0.07935c-0.00599,0.02047 -0.00959,0.04157 -0.01073,0.06287c-0.00426,0.06815 0.01491,0.12352 0.0575,0.16611c0.00235,0.0028 0.00473,0.00557 0.00716,0.00831c0.07863,0.08774 0.16901,0.10482 0.27114,0.05124zM224.93483,178.78613v-0.31944h-2.15944c-0.05111,0.00002 -0.10053,-0.0183 -0.13928,-0.05162c-0.00711,-0.00589 -0.01393,-0.01212 -0.02044,-0.01866c-0.01877,-0.01837 -0.03459,-0.03954 -0.04689,-0.06274c-0.01556,-0.02995 -0.02358,-0.06324 -0.02338,-0.09698c-0.00032,-0.02746 0.00405,-0.05477 0.01291,-0.08076c0.01164,-0.03283 0.03137,-0.06218 0.05737,-0.08536c0.02226,-0.02067 0.04811,-0.03708 0.07628,-0.04843c0.02659,-0.01038 0.0549,-0.01562 0.08344,-0.01546h2.15944v-1.17555c-0.00032,-0.02746 0.00405,-0.05477 0.01291,-0.08076c0.01164,-0.03283 0.03137,-0.06218 0.05737,-0.08536c0.02226,-0.02067 0.04811,-0.03708 0.07628,-0.04843c0.02659,-0.01038 0.0549,-0.01562 0.08344,-0.01546c0.02594,-0.00022 0.05176,0.00336 0.07667,0.01061c0.03382,0.00995 0.06459,0.02828 0.08944,0.05328c0.03467,0.03477 0.0564,0.08036 0.06159,0.12918c0.00154,0.01225 0.00231,0.02458 0.0023,0.03693v1.17555h2.95166v-1.17555c-0.00032,-0.02746 0.00405,-0.05477 0.01291,-0.08076c0.01164,-0.03283 0.03137,-0.06218 0.05737,-0.08536c0.02226,-0.02067 0.04811,-0.03708 0.07628,-0.04843c0.02659,-0.01038 0.0549,-0.01562 0.08344,-0.01546c0.0572,-0.00012 0.11238,0.02112 0.15474,0.05954c0.00168,0.00143 0.00334,0.00288 0.00498,0.00434c0.04685,0.04259 0.07028,0.09796 0.07028,0.16611v1.17555h2.42778c0.02594,-0.00022 0.05176,0.00336 0.07667,0.01061c0.03382,0.00995 0.06459,0.02828 0.08944,0.05328c0.03467,0.03477 0.0564,0.08036 0.06159,0.12918c0.00154,0.01225 0.00231,0.02458 0.0023,0.03693c0.00012,0.0572 -0.02112,0.11238 -0.05954,0.15474c-0.00143,0.00168 -0.00288,0.00334 -0.00434,0.00498c-0.04259,0.04685 -0.09796,0.07028 -0.16611,0.07028h-2.42778v0.31944c0.00042,0.12011 -0.00581,0.24015 -0.01866,0.35957c-0.01303,0.11738 -0.03301,0.22506 -0.05993,0.32302c-0.02307,0.08626 -0.05452,0.17006 -0.09392,0.25019c-0.091,0.18083 -0.23925,0.32648 -0.42167,0.41426c-0.05569,0.02792 -0.11335,0.05175 -0.1725,0.0713c-0.26842,0.08944 -0.63774,0.13621 -1.10796,0.1403c-0.02253,0.00018 -0.04506,0.00027 -0.06759,0.00026c-0.14552,0.00034 -0.29101,-0.00418 -0.43623,-0.01354c-0.27285,-0.01832 -0.50187,-0.05516 -0.68706,-0.11053c-0.01751,-0.00522 -0.03493,-0.01072 -0.05226,-0.01648c-0.10098,-0.03265 -0.19702,-0.07895 -0.28546,-0.13762c-0.13027,-0.08664 -0.23472,-0.20685 -0.30232,-0.34794c-0.07939,-0.16483 -0.13033,-0.37128 -0.15282,-0.61934c-0.00914,-0.10423 -0.01357,-0.20881 -0.01329,-0.31344zM260.01197,181.64707c0.00525,0.0488 0.02703,0.09433 0.06172,0.12906c0.01086,0.00935 0.02216,0.01818 0.03386,0.02645c0.1064,0.07488 0.20585,0.06606 0.29836,-0.02645c0.69,-0.68148 1.27565,-1.43111 1.75694,-2.24889c0.4813,-0.81778 0.83694,-1.65259 1.06694,-2.50444c0.03077,-0.00528 0.06152,-0.01065 0.09226,-0.0161c0.20862,-0.03709 0.41643,-0.07859 0.6233,-0.12446c0.23,-0.05111 0.45148,-0.10222 0.66444,-0.15333c0.05963,-0.01704 0.10861,-0.05111 0.14694,-0.10222c0.00502,-0.00672 0.00967,-0.01372 0.01393,-0.02096c0.02675,-0.04523 0.03275,-0.09362 0.01802,-0.14516c-0.00093,-0.00729 -0.00217,-0.01454 -0.00371,-0.02172c-0.01048,-0.05502 -0.04401,-0.10293 -0.09213,-0.13161c-0.03576,-0.02241 -0.07714,-0.03424 -0.11934,-0.03412c-0.00664,0 -0.01337,0.0003 -0.02019,0.00089c-0.01543,0.00131 -0.03073,0.00387 -0.04574,0.00767c-0.17889,0.04259 -0.3663,0.08518 -0.56222,0.12778c-0.19593,0.04259 -0.39611,0.08518 -0.60056,0.12778c0.05963,-0.27259 0.10435,-0.54731 0.13417,-0.82417c0.02982,-0.27685 0.04472,-0.54731 0.04472,-0.81139c0.00001,-0.01235 -0.00076,-0.02468 -0.0023,-0.03693c-0.00519,-0.04883 -0.02692,-0.09441 -0.06159,-0.12918c-0.02486,-0.025 -0.05562,-0.04333 -0.08944,-0.05328c-0.0249,-0.00725 -0.05073,-0.01082 -0.07667,-0.01061c-0.02854,-0.00016 -0.05685,0.00508 -0.08344,0.01546c-0.02817,0.01135 -0.05403,0.02776 -0.07628,0.04843c-0.026,0.02317 -0.04573,0.05253 -0.05737,0.08536c-0.00886,0.02599 -0.01322,0.0533 -0.01291,0.08076c0,0.28963 -0.01704,0.57713 -0.05111,0.8625c-0.03407,0.28537 -0.08518,0.57287 -0.15333,0.8625c-0.41741,0.06815 -0.8263,0.12139 -1.22667,0.15972c-0.12006,0.01153 -0.24022,0.02205 -0.36046,0.03156c-0.11508,0.00912 -0.22523,0.01674 -0.33043,0.02287c-0.11888,0.00706 -0.23785,0.01234 -0.35688,0.01584c-0.0257,-0.00007 -0.05127,0.00363 -0.0759,0.01099c-0.03258,0.01005 -0.06313,0.02579 -0.09021,0.04651c-0.02994,0.0217 -0.05261,0.05194 -0.06504,0.08676c-0.008,0.02348 -0.01193,0.04816 -0.01163,0.07296c-0.00852,0.05963 0.01065,0.115 0.0575,0.16611c0.01012,0.01111 0.0211,0.02141 0.03284,0.03079c0.03568,0.02957 0.08054,0.04579 0.12688,0.04587c0.30667,-0.00852 0.64741,-0.03194 1.02222,-0.07028c0.37481,-0.03833 0.75815,-0.08731 1.15,-0.14694c-0.03472,0.12278 -0.07221,0.24475 -0.11244,0.36583c-0.22598,0.67318 -0.52913,1.31793 -0.90339,1.92139c-0.45574,0.74111 -0.9988,1.42685 -1.62917,2.05722c-0.05111,0.04259 -0.07667,0.09796 -0.07667,0.16611c-0.00005,0.01238 0.00067,0.02476 0.00217,0.03706zM265.6448,182.61946v-3.19444c-0.00032,-0.02746 0.00405,-0.05477 0.01291,-0.08076c0.01164,-0.03283 0.03137,-0.06218 0.05737,-0.08536c0.02226,-0.02067 0.04811,-0.03708 0.07628,-0.04843c0.02659,-0.01038 0.0549,-0.01562 0.08344,-0.01546c0.02594,-0.00022 0.05176,0.00336 0.07667,0.01061c0.03382,0.00995 0.06459,0.02828 0.08944,0.05328c0.03467,0.03477 0.0564,0.08036 0.06159,0.12918c0.00154,0.01225 0.00231,0.02458 0.0023,0.03693v3.32222c0.56222,0.16185 1.08398,0.3663 1.56528,0.61333c0.1411,0.07223 0.28091,0.14695 0.41937,0.22412c0.28418,0.15887 0.51707,0.30564 0.69869,0.44032c0.04909,0.03239 0.08315,0.08311 0.09456,0.14081c0.00045,0.00204 0.00087,0.00408 0.00128,0.00613c0.00249,0.01229 0.00395,0.02477 0.00434,0.03731c0.00136,0.04915 -0.01499,0.09421 -0.04907,0.13519c-0.03407,0.05963 -0.08306,0.0937 -0.14694,0.10222c-0.06389,0.00852 -0.12139,-0.00426 -0.1725,-0.03833c-0.24704,-0.17889 -0.58352,-0.38333 -1.00944,-0.61333c-0.32463,-0.17421 -0.66123,-0.32512 -1.00727,-0.45157c-0.13169,-0.04847 -0.26449,-0.09389 -0.39828,-0.13621v0.47278c0.00106,0.15287 -0.01182,0.30551 -0.03846,0.45604c-0.03067,0.16611 -0.07969,0.31314 -0.14707,0.44109c-0.07281,0.1407 -0.17515,0.264 -0.30002,0.36148c-0.3237,0.2513 -0.76667,0.37694 -1.32889,0.37694c-0.19137,0.00131 -0.38231,-0.0184 -0.56938,-0.05878c-0.25323,-0.05371 -0.49238,-0.15992 -0.70201,-0.31178c-0.28477,-0.20447 -0.46559,-0.52349 -0.49476,-0.87285c-0.00675,-0.06234 -0.01008,-0.125 -0.00997,-0.18771c0,-0.44296 0.15759,-0.79435 0.47278,-1.05417c0.27787,-0.22906 0.64523,-0.35714 1.10208,-0.38423c0.06276,-0.00369 0.12561,-0.00552 0.18847,-0.00549c0.30691,0.00106 0.61314,0.02872 0.91527,0.08267c0.15175,0.02665 0.3025,0.05874 0.45195,0.09622zM218.83983,180.23002h-10.46499c-0.05963,0 -0.115,-0.02343 -0.16611,-0.07028c-0.018,-0.01618 -0.03369,-0.03475 -0.04664,-0.0552c-0.01973,-0.03128 -0.03015,-0.06754 -0.03003,-0.10452c-0.001,-0.06228 0.02401,-0.12215 0.069,-0.16522c0.00251,-0.00248 0.00507,-0.0049 0.00767,-0.00728c0.05111,-0.04685 0.10648,-0.07028 0.16611,-0.07028h10.46499c0.02746,-0.00028 0.05477,0.00413 0.08076,0.01303c0.03281,0.0116 0.06217,0.03129 0.08536,0.05724c0.04259,0.04685 0.06389,0.10435 0.06389,0.1725c0.00012,0.0572 -0.02112,0.11238 -0.05954,0.15474c-0.00143,0.00168 -0.00288,0.00334 -0.00434,0.00498c-0.04259,0.04685 -0.09796,0.07028 -0.16611,0.07028zM243.70537,177.58502h-4.29333c-0.05111,0.00002 -0.10053,-0.0183 -0.13928,-0.05162c-0.00711,-0.00589 -0.01393,-0.01212 -0.02044,-0.01866c-0.01877,-0.01837 -0.03459,-0.03954 -0.04689,-0.06274c-0.01556,-0.02995 -0.02358,-0.06324 -0.02338,-0.09698c-0.00032,-0.02746 0.00405,-0.05477 0.01291,-0.08076c0.01164,-0.03283 0.03137,-0.06218 0.05737,-0.08536c0.02226,-0.02067 0.04811,-0.03708 0.07628,-0.04843c0.02659,-0.01038 0.0549,-0.01562 0.08344,-0.01546h4.29333c0.02594,-0.00022 0.05176,0.00336 0.07667,0.01061c0.03382,0.00995 0.06459,0.02828 0.08944,0.05328c0.03467,0.03477 0.0564,0.08036 0.06159,0.12918c0.00154,0.01225 0.00231,0.02458 0.0023,0.03693c0.00012,0.0572 -0.02112,0.11238 -0.05954,0.15474c-0.00143,0.00168 -0.00288,0.00334 -0.00434,0.00498c-0.04259,0.04685 -0.09796,0.07028 -0.16611,0.07028zM275.80312,182.90057v-1.81444c-0.26518,0.08614 -0.52389,0.19101 -0.7742,0.31382c-0.39168,0.19439 -0.71926,0.42201 -0.98274,0.68284c-0.14256,0.13878 -0.2678,0.29431 -0.37298,0.46319c-0.16834,0.26688 -0.25826,0.57571 -0.25952,0.89125c0,0.28963 0.09583,0.53454 0.2875,0.73472c0.10263,0.10497 0.22949,0.18312 0.36941,0.22757c0.09473,0.03177 0.19989,0.05316 0.31548,0.06414c0.06329,0.00584 0.12683,0.0087 0.19039,0.00856c0.11313,0.00071 0.22612,-0.00826 0.33772,-0.02683c0.1213,-0.02096 0.22928,-0.05435 0.32392,-0.10018c0.10636,-0.05023 0.20093,-0.12233 0.27753,-0.2116c0.06505,-0.07952 0.11627,-0.16941 0.15154,-0.26591c0.09064,-0.23477 0.13596,-0.55715 0.13596,-0.96715zM228.15483,181.61001h-2.90055c0.24704,0.41741 0.53241,0.79435 0.85611,1.13083c0.3237,0.33648 0.6687,0.64102 1.035,0.91361c0.37291,-0.23591 0.72814,-0.49868 1.06285,-0.78622c0.14448,-0.12463 0.28437,-0.25449 0.41937,-0.38934c0.22148,-0.22148 0.29815,-0.42167 0.23,-0.60056c-0.02952,-0.0729 -0.08451,-0.13261 -0.15474,-0.16803c-0.12062,-0.06687 -0.3033,-0.10031 -0.54804,-0.10031zM202.4204,176.06446c-0.63889,-0.17037 -1.25435,-0.35991 -1.84639,-0.56861c-0.59204,-0.2087 -1.10954,-0.4238 -1.5525,-0.64528c-0.02416,-0.01 -0.04625,-0.02438 -0.06517,-0.04242c-0.02388,-0.02353 -0.04108,-0.05299 -0.04983,-0.08536c-0.0155,-0.05401 -0.01346,-0.10806 0.00613,-0.16215c0.00205,-0.00564 0.00427,-0.01122 0.00664,-0.01674c0.07377,-0.13127 0.17126,-0.16773 0.29248,-0.10938c0.00478,0.00229 0.00951,0.00467 0.01418,0.00716c0.36604,0.18306 0.78869,0.36293 1.26794,0.53961c0.07974,0.02939 0.15969,0.05823 0.23984,0.08651c0.57926,0.20444 1.17981,0.38759 1.80167,0.54944c0.02547,0.00611 0.04986,0.01606 0.07232,0.02952c0.03155,0.01916 0.05733,0.04648 0.07462,0.07909c0.01191,0.02176 0.02031,0.04526 0.02492,0.06964c0.00613,0.03356 0.00422,0.06785 -0.00575,0.10286c-0.00713,0.05306 -0.03655,0.10057 -0.08088,0.13059c-0.00487,0.00349 -0.00985,0.00682 -0.01495,0.00997c-0.03576,0.02241 -0.07714,0.03424 -0.11934,0.03412c-0.01593,0 -0.03228,-0.00162 -0.04907,-0.00486c-0.00566,-0.00108 -0.01128,-0.00231 -0.01687,-0.00371zM228.34649,178.78613v-0.31944h-2.95166v0.31944c-0.00027,0.08244 0.0031,0.16485 0.01009,0.24699c0.01602,0.18025 0.05098,0.32579 0.10491,0.43662c0.05057,0.10249 0.13121,0.1871 0.23115,0.24252c0.05528,0.03194 0.11824,0.05835 0.18886,0.07922c0.0048,0.0014 0.00962,0.00276 0.01444,0.00409c0.19226,0.05384 0.46085,0.08335 0.80577,0.08855c0.03808,0.00059 0.07615,0.00089 0.11423,0.00089c0.10729,0.00019 0.21457,-0.00215 0.32174,-0.00703c0.25428,-0.0121 0.45796,-0.03957 0.61103,-0.08242c0.06514,-0.01767 0.12806,-0.04266 0.18758,-0.07449c0.08612,-0.04694 0.15436,-0.10674 0.2047,-0.1794c0.01589,-0.02286 0.02998,-0.04691 0.04217,-0.07194c0.02803,-0.05923 0.04974,-0.12125 0.06478,-0.18502c0.03348,-0.13553 0.05022,-0.30173 0.05022,-0.49859zM265.6448,183.68001v-0.60056c-0.22148,-0.05111 -0.44509,-0.0937 -0.67083,-0.12778c-0.22574,-0.03407 -0.45361,-0.05111 -0.68361,-0.05111c-0.11585,-0.00056 -0.23161,0.00653 -0.34653,0.02121c-0.26944,0.03586 -0.48057,0.11713 -0.63339,0.2438c-0.00132,0.0011 -0.00264,0.00221 -0.00396,0.00332c-0.19216,0.15835 -0.30755,0.39123 -0.31714,0.64004c-0.00157,0.02514 -0.00233,0.05033 -0.0023,0.07552c0,0.34926 0.12565,0.60056 0.37694,0.75389c0.2513,0.15333 0.56009,0.23 0.92639,0.23c0.44186,0 0.77041,-0.08037 0.98568,-0.24112c0.01697,-0.01267 0.03342,-0.02601 0.04932,-0.03999c0.21296,-0.18741 0.31944,-0.48981 0.31944,-0.90722zM289.70533,181.6739c0.14292,0.00146 0.28501,-0.0218 0.42001,-0.06874c0.14642,-0.05254 0.27987,-0.13585 0.39138,-0.24431c0.20061,-0.19277 0.30858,-0.46375 0.32392,-0.81292c0.00128,-0.02929 0.00192,-0.0586 0.00192,-0.08791c0,-0.08518 -0.00213,-0.1725 -0.00639,-0.26194c-0.00426,-0.08944 -0.00639,-0.17676 -0.00639,-0.26194c-0.18243,-0.26885 -0.46908,-0.44906 -0.79043,-0.49693c-0.10607,-0.01844 -0.21357,-0.02746 -0.32123,-0.02696c-0.37481,0 -0.67722,0.10009 -0.90722,0.30028c-0.17662,0.15415 -0.29229,0.3664 -0.32609,0.59838c-0.01291,0.07886 -0.01924,0.15865 -0.01891,0.23856c-0.00101,0.11712 0.01255,0.23391 0.04038,0.34768c0.04357,0.18159 0.13819,0.34692 0.27268,0.47648c0.2087,0.20018 0.5175,0.30028 0.92639,0.30028zM281.55759,178.58002c-0.063,-0.04241 -0.12625,-0.08445 -0.18975,-0.12612c-0.28537,-0.18741 -0.58352,-0.37056 -0.89444,-0.54944c-0.11041,-0.06364 -0.22193,-0.12532 -0.33452,-0.18502c-0.11091,-0.05869 -0.21624,-0.11151 -0.31599,-0.15844c-0.05743,-0.02707 -0.11532,-0.05314 -0.17365,-0.0782c-0.02875,-0.01197 -0.05507,-0.02907 -0.07769,-0.05047c-0.021,-0.02028 -0.038,-0.04434 -0.05009,-0.07092c-0.01055,-0.02238 -0.01692,-0.0465 -0.01878,-0.07117c-0.0023,-0.03305 0.00396,-0.06683 0.01878,-0.10133c0.02556,-0.06815 0.06815,-0.11287 0.12778,-0.13417c0.02283,-0.0083 0.04678,-0.01312 0.07104,-0.01431c0.03084,-0.00136 0.06167,0.00353 0.09251,0.01469c0.00517,0.00185 0.01028,0.00386 0.01533,0.00601c0.12138,0.04738 0.24082,0.0996 0.35803,0.15653c0.16628,0.08024 0.34296,0.17501 0.53002,0.28431c0.32796,0.19167 0.63676,0.38333 0.92639,0.575c0.23869,0.15802 0.42818,0.29142 0.56848,0.4002c0.02805,0.02165 0.05578,0.04372 0.08318,0.06619c0.04909,0.03239 0.08315,0.08311 0.09456,0.14081c0.00045,0.00204 0.00087,0.00408 0.00128,0.00613c0.00249,0.01229 0.00395,0.02477 0.00434,0.03731c0.00136,0.04915 -0.01499,0.09421 -0.04907,0.13519c-0.03031,0.04666 -0.07888,0.07839 -0.13378,0.0874c-0.00437,0.00079 -0.00876,0.00148 -0.01316,0.00204c-0.06389,0.00852 -0.12139,-0.00426 -0.1725,-0.03833c-0.11738,-0.09132 -0.27349,-0.20261 -0.46831,-0.33388zM268.6859,178.21113c-0.06126,-0.04165 -0.12373,-0.08149 -0.18732,-0.11947c-0.13221,-0.07939 -0.28912,-0.16522 -0.47073,-0.25747c-0.27685,-0.14056 -0.56222,-0.27472 -0.85611,-0.4025c-0.10243,-0.0447 -0.20596,-0.08684 -0.3105,-0.12637c-0.09856,-0.03714 -0.19145,-0.06891 -0.27868,-0.09532c-0.05657,-0.0172 -0.11362,-0.03275 -0.17109,-0.04664c-0.05963,-0.01704 -0.10648,-0.05324 -0.14056,-0.10861c-0.01437,-0.02292 -0.02535,-0.04779 -0.03258,-0.07386c-0.00869,-0.0322 -0.01061,-0.06508 -0.00575,-0.09864c0.00607,-0.02546 0.01598,-0.04985 0.02939,-0.07232c0.01919,-0.03157 0.04656,-0.05735 0.07922,-0.07462c0.02176,-0.01191 0.04526,-0.02031 0.06964,-0.02492c0.03348,-0.00613 0.06776,-0.00422 0.10286,0.00575c0.23852,0.05963 0.51324,0.15546 0.82417,0.2875c0.31093,0.13204 0.61333,0.27046 0.90722,0.41528c0.29389,0.14481 0.53028,0.28111 0.70917,0.40889c0.01951,0.01511 0.03752,0.03205 0.05379,0.0506c0.06687,0.07752 0.07279,0.163 0.01776,0.25645c-0.00248,0.00418 -0.00503,0.00831 -0.00767,0.01239c-0.08518,0.12778 -0.19593,0.14907 -0.33222,0.06389z" fill="#000000" fill-rule="evenodd" stroke="#000000" stroke-width="1" stroke-linecap="round"/></g></g></svg>