<svg version="1.1" xmlns="http://www.w3.org/2000/svg" xmlns:xlink="http://www.w3.org/1999/xlink" width="152.83667" height="36.49879" viewBox="0,0,152.83667,36.49879"><g transform="translate(-163.58166,-161.75062)"><g data-paper-data="{&quot;isPaintingLayer&quot;:true}" stroke-linejoin="miter" stroke-miterlimit="10" stroke-dasharray="" stroke-dashoffset="0" style="mix-blend-mode: normal"><path d="M315.16833,166.90731v26.18541c0,2.16442 -3.00648,3.90669 -6.74149,3.90669h-136.85369c-3.73498,0 -6.74149,-1.74227 -6.74149,-3.90669v-26.18541c0,-2.16442 3.00648,-3.90669 6.74149,-3.90669h136.85369c3.73498,0 6.74149,1.74227 6.74149,3.90669z" fill="#5793ff" fill-rule="nonzero" stroke="#0059ff" stroke-width="2.5" stroke-linecap="butt"/><path d="M235.41872,185.90882c0.37626,-0.03544 0.75175,-0.07858 1.12624,-0.12938c0.0108,-0.00268 0.02148,-0.00582 0.03201,-0.0094c0.06042,-0.0196 0.11334,-0.05734 0.15156,-0.10809c0.00582,-0.00772 0.01122,-0.01576 0.01615,-0.02408c0.03064,-0.05199 0.0375,-0.1076 0.02056,-0.16683c-0.00181,-0.0148 -0.00456,-0.02946 -0.00822,-0.04391c-0.01304,-0.05483 -0.04368,-0.10388 -0.08723,-0.13966c-0.03632,-0.03013 -0.08219,-0.04632 -0.12938,-0.04567c-0.02183,0 -0.04479,0.00299 -0.06888,0.00896c-0.28179,0.03938 -0.56412,0.07473 -0.84692,0.10603c-0.85754,0.09428 -1.59162,0.13173 -2.20225,0.11234c-0.1538,-0.00463 -0.30743,-0.01379 -0.46069,-0.02746c-0.86155,-0.07832 -1.47835,-0.26189 -1.85038,-0.55071c-0.09341,-0.07165 -0.17949,-0.15238 -0.257,-0.24099c-0.19354,-0.21357 -0.30084,-0.49143 -0.30105,-0.77966c-0.00001,-0.17075 0.02533,-0.34055 0.07519,-0.50386c0.06863,-0.22616 0.18435,-0.44693 0.34717,-0.66232c0.13821,-0.17984 0.29439,-0.34512 0.46612,-0.49329c0.16204,-0.14111 0.33262,-0.27211 0.51076,-0.39225c0.27227,-0.18474 0.5789,-0.36029 0.9199,-0.52662c0.34502,-0.16685 0.69833,-0.316 1.05854,-0.44688c0.04482,0.1268 0.08417,0.25546 0.11793,0.38564c0.05272,0.20435 0.09425,0.41144 0.12439,0.62032c0.05385,0.36714 0.08077,0.7661 0.08077,1.19687c0,0.06853 0.02692,0.13217 0.08077,0.19091c0.01163,0.01277 0.02425,0.0246 0.03774,0.03539c0.041,0.03399 0.09257,0.05263 0.14583,0.05272c0.00725,0.00002 0.0145,-0.00022 0.02173,-0.00073c0.06622,-0.00388 0.12769,-0.03563 0.16918,-0.08738c0.00821,-0.00983 0.01591,-0.02007 0.02306,-0.03069c0.03265,-0.04706 0.05022,-0.10294 0.05037,-0.16022c0.00003,-0.05688 -0.00041,-0.11377 -0.00132,-0.17065c-0.00656,-0.39494 -0.03593,-0.76703 -0.08811,-1.11625c-0.05354,-0.37144 -0.1416,-0.73707 -0.26302,-1.09217c0.22157,-0.06961 0.44449,-0.13483 0.66863,-0.19561c0.35254,-0.0954 0.7074,-0.18197 1.06426,-0.25964c0.199,-0.04347 0.39865,-0.08391 0.59888,-0.1213c0.46383,-0.08624 0.93016,-0.15843 1.39836,-0.21647c0.00486,-0.00062 0.00971,-0.00136 0.01454,-0.0022c0.06895,-0.01077 0.13025,-0.04991 0.16903,-0.10794c0.00905,-0.01294 0.01719,-0.02648 0.02438,-0.04053c0.02575,-0.05111 0.03476,-0.10368 0.02702,-0.15772c-0.00471,-0.03468 -0.01683,-0.06793 -0.03554,-0.09751c-0.0179,-0.02768 -0.04069,-0.05186 -0.06726,-0.07137c-0.0471,-0.03573 -0.10477,-0.05475 -0.16389,-0.05404c-0.01351,0 -0.02741,0.00088 -0.04171,0.00264c-0.22552,0.03003 -0.45066,0.06278 -0.67539,0.09825c-0.46758,0.07333 -0.93288,0.16055 -1.39528,0.26155c-0.23646,0.05185 -0.47191,0.1082 -0.70623,0.16903c-0.36559,0.09447 -0.72764,0.20219 -1.08541,0.32294c-0.08046,-0.16534 -0.17324,-0.32439 -0.27756,-0.47581c-0.18208,-0.26712 -0.40858,-0.50106 -0.66966,-0.69169c-0.17618,-0.12756 -0.37067,-0.22768 -0.57685,-0.29694c-0.25217,-0.08279 -0.51616,-0.12386 -0.78157,-0.1216c-0.01146,0.00002 -0.02291,0.00012 -0.03436,0.00029c-0.23916,0.00384 -0.47685,0.03829 -0.70726,0.10251c-0.03131,0.00857 -0.06249,0.01758 -0.09355,0.02702c-0.22375,0.06881 -0.44069,0.15809 -0.64807,0.26669c0.65595,-0.85176 1.17484,-1.76227 1.55667,-2.73151c0.57763,-0.01958 1.14547,-0.0465 1.70353,-0.08077c0.55805,-0.03427 1.06715,-0.07098 1.5273,-0.11014c0.00501,-0.00062 0.01,-0.00136 0.01498,-0.0022c0.06733,-0.00981 0.12799,-0.046 0.16859,-0.1006c0.00513,-0.0068 0.00998,-0.0138 0.01454,-0.021c0.03319,-0.05287 0.04548,-0.10951 0.03686,-0.16991c-0.00181,-0.0148 -0.00456,-0.02946 -0.00822,-0.04391c-0.01304,-0.05483 -0.04368,-0.10388 -0.08723,-0.13966c-0.05385,-0.04406 -0.11993,-0.06119 -0.19826,-0.0514c-0.45036,0.03916 -0.93009,0.07832 -1.43919,0.11748c-0.5091,0.03916 -1.02309,0.06853 -1.54198,0.08811c0.08811,-0.26434 0.16154,-0.53358 0.22028,-0.80771c0.05874,-0.27413 0.10769,-0.54826 0.14686,-0.82239c0.00026,-0.00201 0.00051,-0.00401 0.00073,-0.00602c0.00157,-0.0142 0.0022,-0.028 0.00191,-0.04141c-0.0001,-0.055 -0.01919,-0.10828 -0.05404,-0.15082c-0.02543,-0.03127 -0.05802,-0.05595 -0.09502,-0.07196c-0.02823,-0.01206 -0.05806,-0.01997 -0.08855,-0.0235c-0.04004,-0.00568 -0.07842,-0.0022 -0.11513,0.01043c-0.02724,0.00962 -0.05281,0.02344 -0.07578,0.04097c-0.03147,0.02324 -0.05706,0.05352 -0.07475,0.08841c-0.01476,0.02987 -0.02425,0.06206 -0.02805,0.09516c-0.00492,0.03439 -0.01001,0.06875 -0.01527,0.10309c-0.03826,0.24855 -0.08459,0.49579 -0.13893,0.74133c-0.06364,0.28882 -0.14441,0.57518 -0.24231,0.85911c-1.18464,0.04895 -2.29095,0.04895 -3.31894,0c-0.03655,-0.00007 -0.07275,0.00717 -0.10647,0.02129c-0.03061,0.01304 -0.05907,0.03061 -0.08444,0.05213c-0.05874,0.04895 -0.08811,0.11259 -0.08811,0.19091c-0.00979,0.06853 0.01224,0.12972 0.06609,0.18357c0.00749,0.00752 0.01533,0.01467 0.0235,0.02144c0.04454,0.0383 0.10133,0.05935 0.16007,0.05933c0.46015,0.00979 0.9619,0.01224 1.50527,0.00734c0.54337,-0.0049 1.09407,-0.01224 1.65213,-0.02203c-0.02851,0.06988 -0.05778,0.13944 -0.08782,0.20868c-0.30055,0.68783 -0.66965,1.34363 -1.10171,1.95744c-0.06124,0.08762 -0.1239,0.17422 -0.18798,0.25979c-0.4249,0.57199 -0.91918,1.08901 -1.47149,1.53919c-0.02777,0.02768 -0.04904,0.06119 -0.06227,0.0981c-0.01057,0.02989 -0.0168,0.06115 -0.0185,0.09281c-0.0049,0.07832 0.01713,0.14196 0.06609,0.19091c0.02768,0.02777 0.06119,0.04904 0.0981,0.06227c0.02989,0.01057 0.06115,0.0168 0.09281,0.0185c0.00518,0.00031 0.01037,0.00046 0.01557,0.00044c0.04758,0 0.09335,-0.01376 0.13731,-0.04127c0.02445,-0.01562 0.04706,-0.03395 0.06741,-0.05463c0.10922,-0.11151 0.22131,-0.22017 0.33615,-0.32587c0.18445,-0.16947 0.36518,-0.31975 0.54219,-0.45085c0.17996,-0.1347 0.3699,-0.25551 0.56818,-0.36141c0.45525,-0.23986 0.93743,-0.3598 1.44653,-0.3598c0.53635,-0.01498 1.05303,0.20243 1.4173,0.59638c0.17445,0.19031 0.32033,0.40496 0.43308,0.63721c-0.2535,0.0939 -0.50392,0.19592 -0.75087,0.3059c-0.8268,0.36959 -1.48946,0.78651 -1.98798,1.25077c-0.20682,0.18946 -0.39062,0.40259 -0.54762,0.635c-0.26732,0.38783 -0.41167,0.84715 -0.41428,1.31818c-0.00001,0.00901 0.00004,0.01801 0.00015,0.02702c0.00343,0.27844 0.05977,0.53093 0.16903,0.75748c0.11945,0.24191 0.29265,0.45329 0.50636,0.61797c0.02927,0.02322 0.05919,0.0456 0.08973,0.06711c0.45202,0.31858 1.12702,0.52139 2.02499,0.60842c0.71176,0.06902 1.57973,0.05585 2.6039,-0.0395zM262.50903,185.05984v-6.09451h-4.0679c-0.05874,0.00002 -0.11553,-0.02103 -0.16007,-0.05933c-0.00817,-0.00677 -0.01601,-0.01392 -0.0235,-0.02144c-0.02152,-0.02113 -0.03965,-0.04545 -0.05375,-0.07211c-0.01793,-0.03441 -0.0272,-0.07267 -0.02702,-0.11146c-0.00032,-0.03156 0.00475,-0.06295 0.01498,-0.09281c0.01334,-0.03771 0.03596,-0.07145 0.06579,-0.0981c0.02558,-0.02375 0.05529,-0.04262 0.08767,-0.05566c0.03056,-0.01193 0.0631,-0.01796 0.0959,-0.01777h8.50294c0.02986,-0.00026 0.05959,0.00384 0.08826,0.01219c0.03882,0.01146 0.07412,0.03252 0.10265,0.06124c0.0399,0.03994 0.06493,0.09234 0.07093,0.14847c0.00172,0.01408 0.00255,0.02826 0.0025,0.04244c0.00017,0.06572 -0.02418,0.12913 -0.06829,0.17784c-0.00169,0.00193 -0.0034,0.00384 -0.00514,0.00573c-0.04895,0.05385 -0.11259,0.08077 -0.19091,0.08077h-3.90636v2.59934h3.73013c0.02986,-0.00026 0.05959,0.00384 0.08826,0.01219c0.03882,0.01146 0.07412,0.03252 0.10265,0.06124c0.0399,0.03994 0.06493,0.09234 0.07093,0.14847c0.00172,0.01408 0.00255,0.02826 0.0025,0.04244c0.00017,0.06572 -0.02418,0.12913 -0.06829,0.17784c-0.00169,0.00193 -0.0034,0.00384 -0.00514,0.00573c-0.04895,0.05385 -0.11259,0.08077 -0.19091,0.08077h-3.73013v3.18677c0.40141,0.13707 0.83218,0.23742 1.29233,0.30105c0.46015,0.06364 0.94477,0.09546 1.45387,0.09546c0.33779,-0.00022 0.67555,-0.00594 1.01316,-0.01718c0.21551,-0.0071 0.43096,-0.01605 0.64631,-0.02687c0.58742,-0.02937 1.13079,-0.05874 1.6301,-0.08811c0.07783,-0.00969 0.14358,0.01199 0.19723,0.06506c0.00034,0.00034 0.00069,0.00068 0.00103,0.00103c0.03309,0.03358 0.05656,0.07542 0.06799,0.12116c0.00744,0.0279 0.01165,0.05855 0.01263,0.09193c0.00012,0.00485 0.00017,0.00969 0.00015,0.01454c-0.00019,0.0521 -0.016,0.10295 -0.04538,0.14597c-0.01059,0.01589 -0.02242,0.03092 -0.03539,0.04494c-0.05385,0.05874 -0.12483,0.08811 -0.21294,0.08811c-0.33277,0.01753 -0.75567,0.03113 -1.26869,0.04083c-0.06173,0.00115 -0.12346,0.00223 -0.18518,0.00323c-0.59721,0.00979 -1.20422,0.01469 -1.82101,0.01469c-0.44125,0.00139 -0.88222,-0.02214 -1.32082,-0.07049c-0.54904,-0.06236 -1.05109,-0.16614 -1.50615,-0.31133c-0.44094,-0.13812 -0.86482,-0.32573 -1.26355,-0.55923c-0.2735,-0.16135 -0.53142,-0.34778 -0.7704,-0.55688c-0.45586,-0.40318 -0.85172,-0.86946 -1.17558,-1.3847c-0.08753,-0.1378 -0.17055,-0.27841 -0.24892,-0.42162c-0.40141,0.62658 -0.86645,1.2238 -1.39513,1.79164c-0.52868,0.56784 -1.09163,1.07694 -1.68884,1.5273c-0.02106,0.01596 -0.0433,0.03029 -0.06653,0.04288c-0.12923,0.06912 -0.24412,0.04504 -0.34467,-0.07225c-0.02012,-0.02366 -0.03597,-0.05065 -0.04685,-0.07974c-0.00959,-0.02624 -0.01439,-0.0537 -0.01439,-0.08239c0.00003,-0.01208 0.00087,-0.02415 0.0025,-0.03613c0.00378,-0.031 0.01329,-0.06103 0.02805,-0.08855c0.01797,-0.03249 0.04364,-0.06007 0.07475,-0.08033c0.607,-0.43078 1.1724,-0.93009 1.69618,-1.49793c0.52378,-0.56784 0.98393,-1.16995 1.38044,-1.80632c0.39651,-0.63637 0.70246,-1.26785 0.91785,-1.89444c0.00767,-0.03223 0.02116,-0.06278 0.0398,-0.09017c0.0236,-0.03367 0.05539,-0.06076 0.09237,-0.07871c0.03562,-0.01812 0.07502,-0.02758 0.11499,-0.02761c0.0234,0 0.04729,0.00318 0.07167,0.00955c0.01138,0.003 0.02261,0.00658 0.03363,0.01072c0.02927,0.00702 0.0573,0.01846 0.08312,0.03392c0.03626,0.02202 0.06589,0.05342 0.08576,0.0909c0.0281,0.05218 0.0348,0.10931 0.02012,0.17138c-0.00338,0.01411 -0.00765,0.02799 -0.01278,0.04156c-0.13385,0.39091 -0.29688,0.77121 -0.48771,1.13769c-0.09158,0.17682 -0.1885,0.35083 -0.29063,0.52178c0.17693,0.31806 0.37591,0.62334 0.5955,0.91359c0.18915,0.24986 0.39759,0.48452 0.6234,0.70182c0.45036,0.43078 0.94967,0.77344 1.49793,1.02799zM248.67523,180.58075h-3.7595c-0.05874,0.00002 -0.11553,-0.02103 -0.16007,-0.05933c-0.00817,-0.00677 -0.01601,-0.01392 -0.0235,-0.02144c-0.02152,-0.02113 -0.03965,-0.04545 -0.05375,-0.07211c-0.01793,-0.03441 -0.0272,-0.07267 -0.02702,-0.11146c-0.00032,-0.03156 0.00475,-0.06295 0.01498,-0.09281c0.01334,-0.03771 0.03596,-0.07145 0.06579,-0.0981c0.02558,-0.02375 0.05529,-0.04262 0.08767,-0.05566c0.03056,-0.01193 0.0631,-0.01796 0.0959,-0.01777h3.81825c0.02937,-0.35245 0.04406,-0.7147 0.04406,-1.08673v-2.23221h-2.9518c-0.05874,0.00002 -0.11553,-0.02103 -0.16007,-0.05933c-0.00817,-0.00677 -0.01601,-0.01392 -0.0235,-0.02144c-0.02152,-0.02113 -0.03965,-0.04545 -0.05375,-0.07211c-0.01793,-0.03441 -0.0272,-0.07267 -0.02702,-0.11146c-0.00032,-0.03156 0.00475,-0.06295 0.01498,-0.09281c0.01334,-0.03771 0.03596,-0.07145 0.06579,-0.0981c0.02558,-0.02375 0.05529,-0.04262 0.08767,-0.05566c0.03056,-0.01193 0.0631,-0.01796 0.0959,-0.01777h2.9518v-2.65809c-0.00032,-0.03156 0.00475,-0.06295 0.01498,-0.09281c0.01334,-0.03771 0.03596,-0.07145 0.06579,-0.0981c0.02558,-0.02375 0.05529,-0.04262 0.08767,-0.05566c0.03056,-0.01193 0.0631,-0.01796 0.0959,-0.01777c0.02986,-0.00026 0.05959,0.00384 0.08826,0.01219c0.03882,0.01146 0.07412,0.03252 0.10265,0.06124c0.0399,0.03994 0.06493,0.09234 0.07093,0.14847c0.00172,0.01408 0.00255,0.02826 0.0025,0.04244v2.65809h0.95456c0.17344,-0.00043 0.34685,0.0054 0.51987,0.01748c0.34022,0.02467 0.62326,0.07548 0.84912,0.15244c0.02605,0.00887 0.05191,0.01832 0.07754,0.02834c0.17528,0.06609 0.33376,0.17015 0.46406,0.30473c0.10575,0.11213 0.18989,0.24282 0.24819,0.3855c0.05049,0.12372 0.08967,0.25176 0.11704,0.38256c0.05904,0.27149 0.08855,0.59677 0.08855,0.97586v1.60073h1.77695c0.02986,-0.00026 0.05959,0.00384 0.08826,0.01219c0.03882,0.01146 0.07412,0.03252 0.10265,0.06124c0.0399,0.03994 0.06493,0.09234 0.07093,0.14847c0.00172,0.01408 0.00255,0.02826 0.0025,0.04244c0.00017,0.06572 -0.02418,0.12913 -0.06829,0.17784c-0.00169,0.00193 -0.0034,0.00384 -0.00514,0.00573c-0.04895,0.05385 -0.11259,0.08077 -0.19091,0.08077h-4.87561c0.42099,1.23359 1.01086,2.30563 1.76961,3.21614c0.47227,0.55987 1.02451,1.04704 1.63891,1.44579c0.46163,0.30173 0.94742,0.56476 1.4524,0.78641c0.03356,0.01635 0.06398,0.03847 0.08988,0.06535c0.02972,0.0315 0.05173,0.06945 0.06432,0.11088c0.00926,0.02921 0.01402,0.05967 0.0141,0.09032c0,0.03622 -0.00676,0.0724 -0.02027,0.10853c-0.00465,0.01231 -0.00995,0.02437 -0.01586,0.03613c-0.03283,0.05712 -0.08268,0.10256 -0.1426,0.12997c-0.01335,0.00635 -0.02703,0.01199 -0.04097,0.01689c-0.08322,0.02937 -0.16399,0.02448 -0.24231,-0.01469c-1.18464,-0.57763 -2.20773,-1.34618 -3.06928,-2.30563c-0.86155,-0.95946 -1.48324,-2.08045 -1.86507,-3.36299c-0.09303,0.60488 -0.24972,1.19824 -0.46744,1.7702c-0.23957,0.62991 -0.57476,1.21916 -0.99377,1.74699c-0.61485,0.76048 -1.36588,1.39986 -2.21473,1.88548c-0.22823,0.13259 -0.46189,0.25561 -0.70035,0.36875c-0.02811,0.01633 -0.0585,0.02836 -0.09017,0.03569c-0.02085,0.0047 -0.0419,0.00705 -0.06315,0.00705c-0.02002,-0.00003 -0.04,-0.00205 -0.05962,-0.00602c-0.07343,-0.01469 -0.12972,-0.05629 -0.16888,-0.12483c-0.03916,-0.05874 -0.04895,-0.12483 -0.02937,-0.19826c0.01566,-0.05859 0.05223,-0.10942 0.1028,-0.14289c0.01404,-0.00971 0.02877,-0.01839 0.04406,-0.02599c0.57252,-0.24753 1.11296,-0.56347 1.60954,-0.9409c0.47515,-0.363 0.89513,-0.79302 1.2468,-1.27662c0.4578,-0.63997 0.80284,-1.35349 1.02021,-2.10973c0.12581,-0.42974 0.21923,-0.8683 0.27947,-1.31201zM291.41682,185.71085c0.22101,0.03717 0.44482,0.0552 0.66893,0.0539c0.26506,0.0007 0.52997,-0.01269 0.79361,-0.04009c0.40336,-0.04308 0.76967,-0.12081 1.09892,-0.23321c0.43393,-0.1411 0.83265,-0.37338 1.16941,-0.68126c0.68043,-0.63637 1.02065,-1.49303 1.02065,-2.56997c0.00003,-0.06456 -0.00179,-0.1291 -0.00543,-0.19356c-0.02231,-0.49611 -0.17768,-0.97708 -0.44982,-1.39249c-0.3035,-0.46015 -0.71225,-0.81994 -1.22624,-1.07939c-0.14415,-0.0728 -0.29312,-0.13565 -0.44585,-0.18812c-0.4027,-0.13606 -0.82527,-0.20401 -1.25033,-0.20105c-0.39161,0 -0.77589,0.0465 -1.15282,0.13951c-0.37693,0.09301 -0.74162,0.21784 -1.09407,0.37448c0.49931,-0.44057 1.00841,-0.88848 1.5273,-1.34373c0.51889,-0.45525 0.98883,-0.87379 1.40981,-1.25562c0.01992,-0.0176 0.03965,-0.03542 0.05918,-0.05346c0.31065,-0.28764 0.52589,-0.59046 0.64572,-0.90845c0.02831,-0.0745 0.05166,-0.15078 0.0699,-0.22836c0.05825,-0.25073 0.04964,-0.48546 -0.02585,-0.70417c-0.06659,-0.18956 -0.18748,-0.35534 -0.34761,-0.47669c-0.09452,-0.07298 -0.19717,-0.13478 -0.3059,-0.18416c-0.06581,-0.03031 -0.13362,-0.05607 -0.20295,-0.0771c-0.25661,-0.07852 -0.57044,-0.11166 -0.94149,-0.09942c-0.08612,0.00289 -0.17215,0.00788 -0.25803,0.01498c-0.02492,0.00196 -0.04984,0.00397 -0.07475,0.00602c-0.17574,0.01459 -0.36156,0.03236 -0.55746,0.05331c-0.20803,0.02227 -0.41584,0.04656 -0.6234,0.07284c-0.01493,0.00191 -0.02986,0.00382 -0.04479,0.00573c-0.22332,0.0282 -0.43582,0.05527 -0.6375,0.08121c-0.19114,0.0246 -0.38225,0.04947 -0.57332,0.0746c-0.06656,0.00867 -0.12713,0.0429 -0.16888,0.09546c-0.04406,0.05385 -0.06119,0.11993 -0.0514,0.19826c0.00513,0.03688 0.0181,0.07223 0.03804,0.10368c0.01766,0.02742 0.03951,0.0519 0.06476,0.07255c0.04895,0.04083 0.10133,0.06124 0.15714,0.06124c0.0113,-0.00003 0.02259,-0.00087 0.03378,-0.0025c0.39161,-0.05874 0.80526,-0.11748 1.24093,-0.17623c0.43567,-0.05874 0.83952,-0.10769 1.21156,-0.14686c0.06242,-0.00541 0.12495,-0.00957 0.18753,-0.01248c0.4718,-0.02173 0.82048,0.04117 1.04605,0.18871c0.2244,0.14676 0.33087,0.34487 0.31941,0.59432c-0.00166,0.0346 -0.00534,0.06907 -0.01101,0.10324c-0.04895,0.29861 -0.25455,0.62903 -0.61679,0.99128c-0.09518,0.09187 -0.19059,0.18351 -0.28622,0.27491c-0.10211,0.09761 -0.21093,0.20119 -0.32646,0.31075c-0.14797,0.14037 -0.2962,0.28047 -0.44468,0.4203c-0.42099,0.39651 -0.87869,0.8126 -1.3731,1.24827c-0.49441,0.43567 -0.99372,0.85911 -1.49793,1.2703c-0.5042,0.4112 -0.98149,0.77344 -1.43184,1.08673c-0.05874,0.03916 -0.09056,0.0979 -0.09546,0.17623c-0.00042,0.00704 -0.00061,0.01409 -0.00059,0.02115c-0.00076,0.06751 0.02292,0.13303 0.06667,0.18445c0.04895,0.05874 0.11259,0.08811 0.19091,0.08811c0.07832,0 0.14686,-0.01958 0.2056,-0.05874c0.23296,-0.20271 0.472,-0.39831 0.7168,-0.58654c0.25266,-0.19455 0.51326,-0.37857 0.78113,-0.55159c0.0299,-0.01924 0.05996,-0.03823 0.09017,-0.05698c0.43699,-0.27347 0.90776,-0.48882 1.40042,-0.64058c0.51399,-0.15665 1.07449,-0.23497 1.6815,-0.23497c0.48952,0 0.95211,0.10035 1.38779,0.30105c0.43567,0.2007 0.78812,0.49197 1.05736,0.87379c0.13958,0.19811 0.24437,0.41856 0.30987,0.65189c0.06421,0.23246 0.09584,0.47271 0.09399,0.71387c0.00006,0.0984 -0.00361,0.19677 -0.01101,0.29489c-0.03711,0.60098 -0.25035,1.17772 -0.61312,1.65829c-0.28607,0.37693 -0.6936,0.65669 -1.22257,0.83928c-0.25915,0.08744 -0.52586,0.15062 -0.79669,0.18871c0.04007,-0.05687 0.0777,-0.11542 0.11279,-0.17549c0.17563,-0.29348 0.27095,-0.62801 0.27638,-0.96998c0.0001,-0.00783 0.00015,-0.01566 0.00015,-0.0235c0.00466,-0.37835 -0.12261,-0.74651 -0.35994,-1.04121c-0.16105,-0.20295 -0.37727,-0.35187 -0.64866,-0.44673c-0.15155,-0.05163 -0.3083,-0.08649 -0.46744,-0.10397c-0.03068,-0.00405 -0.06143,-0.00762 -0.09223,-0.01072c-0.55707,-0.05561 -1.03054,0.05811 -1.42039,0.34115c-0.00093,0.00068 -0.00186,0.00137 -0.00279,0.00206c-0.24349,0.1775 -0.41452,0.39553 -0.51311,0.65409c-0.06916,0.1871 -0.10336,0.38532 -0.10089,0.58478c-0.00001,0.00911 0.00003,0.01821 0.00015,0.02732c0.00382,0.26473 0.06183,0.50298 0.17402,0.71475c0.10899,0.20096 0.25995,0.37611 0.44262,0.51355c0.11349,0.08739 0.23621,0.1621 0.36596,0.22278c0.19444,0.09164 0.41242,0.15851 0.65395,0.2006zM277.91418,176.33662v-2.21752c-0.00049,-0.04017 0.00762,-0.07998 0.02379,-0.11675c0.01385,-0.03042 0.03316,-0.05805 0.05698,-0.0815c0.02113,-0.02152 0.04545,-0.03965 0.07211,-0.05375c0.03441,-0.01793 0.07267,-0.0272 0.11146,-0.02702c0.03156,-0.00032 0.06295,0.00475 0.09281,0.01498c0.03771,0.01334 0.07145,0.03596 0.0981,0.06579c0.04895,0.05385 0.07343,0.11993 0.07343,0.19826v2.18815c0.93009,-0.03916 1.82835,-0.06609 2.6948,-0.08077c0.27014,-0.00462 0.54031,-0.00755 0.8105,-0.00881c0.31995,-0.00147 0.62746,-0.00029 0.92255,0.00352c0.20802,0.00268 0.41603,0.00689 0.62399,0.01263c0.03156,-0.00032 0.06295,0.00475 0.09281,0.01498c0.03771,0.01334 0.07145,0.03596 0.0981,0.06579c0.04797,0.05277 0.06775,0.11724 0.05933,0.19341c-0.00018,0.00162 -0.00038,0.00323 -0.00059,0.00485c0.00017,0.06572 -0.02418,0.12913 -0.06829,0.17784c-0.00169,0.00193 -0.0034,0.00384 -0.00514,0.00573c-0.04895,0.05385 -0.11259,0.08077 -0.19091,0.08077c-0.70491,-0.02937 -1.48814,-0.03916 -2.34969,-0.02937c-0.86155,0.00979 -1.75737,0.02937 -2.68746,0.05874c0.00979,0.48952 0.02448,0.99128 0.04406,1.50527c0.01676,0.43654 0.03017,0.87321 0.04024,1.30995c0.00134,0.06021 0.00262,0.12042 0.00382,0.18063c0.10613,0.18318 0.19081,0.40199 0.25406,0.65644c0.00099,0.00391 0.00196,0.00783 0.00294,0.01175c0.03898,0.16129 0.06564,0.32531 0.07974,0.49064c0.01067,0.12253 0.01591,0.24547 0.01571,0.36846c0,1.00841 -0.27658,1.96052 -0.82973,2.85634c-0.35319,0.56363 -0.80574,1.05847 -1.33565,1.46048c-0.37488,0.28681 -0.77584,0.53781 -1.19761,0.7497c-0.0245,0.01069 -0.05034,0.01801 -0.07681,0.02173c-0.04151,0.00558 -0.08297,0.00127 -0.12439,-0.01292c-0.00147,-0.00048 -0.00294,-0.00097 -0.00441,-0.00147c-0.06853,-0.02448 -0.12238,-0.06609 -0.16154,-0.12483c-0.02859,-0.06677 -0.03397,-0.13589 -0.01615,-0.20736c0.00048,-0.00186 0.00096,-0.00372 0.00147,-0.00558c0.01958,-0.07343 0.06364,-0.12483 0.13217,-0.1542c0.41758,-0.19979 0.81328,-0.44243 1.18072,-0.724c0.45352,-0.34571 0.8419,-0.76939 1.14694,-1.25121c0.32016,-0.5037 0.54816,-1.06034 0.67333,-1.6439c0.06188,-0.29745 0.09458,-0.60024 0.09766,-0.90404c-0.13707,0.33287 -0.35245,0.59232 -0.64616,0.77833c-0.27621,0.17392 -0.59433,0.26988 -0.92064,0.2777c-0.02598,0.0009 -0.05198,0.00135 -0.07798,0.00132c-0.19007,0.00136 -0.37978,-0.01645 -0.56628,-0.05316c-0.22351,-0.04572 -0.42099,-0.12096 -0.59242,-0.22572c-0.10191,-0.06209 -0.19607,-0.13609 -0.28049,-0.22043c-0.26597,-0.26706 -0.43448,-0.61576 -0.47846,-0.9901c-0.01413,-0.10504 -0.0211,-0.21093 -0.02085,-0.31691c-0.00271,-0.24066 0.04076,-0.4796 0.12806,-0.70388c0.09054,-0.22436 0.227,-0.4273 0.40062,-0.59579c0.24755,-0.24171 0.56071,-0.40529 0.90052,-0.47038c0.17245,-0.03491 0.34803,-0.05199 0.52398,-0.05096c0.20929,-0.00159 0.41786,0.02478 0.62017,0.07842c0.22657,0.06077 0.43966,0.1637 0.6281,0.3034c-0.00979,-0.37203 -0.02203,-0.7612 -0.03671,-1.1675c-0.01469,-0.4063 -0.02692,-0.80526 -0.03671,-1.19687c-1.16505,0.03916 -2.32277,0.10035 -3.47314,0.18357c-1.15037,0.08322 -2.19549,0.17867 -3.13537,0.28637c-0.01136,0.00145 -0.02278,0.00238 -0.03422,0.00279c-0.1309,0.00431 -0.21573,-0.06804 -0.2545,-0.21705c-0.00179,-0.00687 -0.00345,-0.01378 -0.00499,-0.02071c-0.00969,-0.07783 0.01199,-0.14358 0.06506,-0.19723c0.00034,-0.00034 0.00068,-0.00069 0.00103,-0.00103c0.02566,-0.02608 0.05524,-0.04798 0.08767,-0.06491c0.03003,-0.01548 0.06245,-0.0258 0.0959,-0.03055c0.95946,-0.0979 2.01682,-0.18602 3.17208,-0.26434c1.15526,-0.07832 2.31542,-0.13707 3.48048,-0.17623zM221.60974,175.92542h-8.1358c-0.05874,0.00002 -0.11553,-0.02103 -0.16007,-0.05933c-0.00817,-0.00677 -0.01601,-0.01392 -0.0235,-0.02144c-0.02152,-0.02113 -0.03965,-0.04545 -0.05375,-0.07211c-0.01793,-0.03441 -0.0272,-0.07267 -0.02702,-0.11146c-0.00032,-0.03156 0.00475,-0.06295 0.01498,-0.09281c0.01334,-0.03771 0.03596,-0.07145 0.06579,-0.0981c0.02558,-0.02375 0.05529,-0.04262 0.08767,-0.05566c0.03056,-0.01193 0.0631,-0.01796 0.0959,-0.01777h8.1358c0.19236,-0.00078 0.38462,0.00873 0.57597,0.02849c0.38711,0.04171 0.69644,0.12933 0.92798,0.26287c0.08014,0.0456 0.15454,0.10062 0.22161,0.16389c0.21061,0.20338 0.35656,0.46436 0.41957,0.75029c0.03848,0.16095 0.05771,0.33674 0.05771,0.52736c0,0.65977 -0.38569,1.15849 -1.15708,1.49617c-0.03022,0.01324 -0.06063,0.02606 -0.0912,0.03848c-0.70187,0.2849 -1.71371,0.47753 -3.03551,0.57788c-0.25577,0.01923 -0.51182,0.03465 -0.76805,0.04626c0,0.87134 -0.12727,1.72555 -0.38182,2.56263c-0.25455,0.83708 -0.62169,1.60807 -1.10142,2.31298c-0.47973,0.70491 -1.05736,1.30702 -1.7329,1.80632c-0.05874,0.03916 -0.12483,0.05385 -0.19826,0.04406c-0.07343,-0.00979 -0.13462,-0.04406 -0.18357,-0.1028c-0.03916,-0.05874 -0.05385,-0.12483 -0.04406,-0.19826c0.00378,-0.031 0.01329,-0.06103 0.02805,-0.08855c0.01797,-0.03249 0.04364,-0.06007 0.07475,-0.08033c0.76365,-0.56784 1.39023,-1.26051 1.87975,-2.07801c0.48952,-0.8175 0.82484,-1.70597 1.00596,-2.66543c0.08921,-0.47166 0.1341,-0.95064 0.13408,-1.43067c-0.00068,-0.50057 -0.04803,-0.99998 -0.14142,-1.49176c-0.00773,-0.05404 0.00132,-0.10657 0.02717,-0.15758c0.00713,-0.0141 0.01523,-0.02769 0.02423,-0.04068c0.01619,-0.02392 0.03589,-0.04526 0.05845,-0.06329c0.03197,-0.02519 0.0701,-0.04137 0.11044,-0.04685c0.01128,-0.00126 0.02259,-0.00214 0.03392,-0.00264c0.12796,-0.00568 0.21255,0.04357 0.25377,0.14774c0.00942,0.0243 0.01636,0.04949 0.02071,0.07519c0.02937,0.16644 0.05385,0.33287 0.07343,0.49931c0.01958,0.16644 0.03427,0.33287 0.04406,0.49931c0.39071,-0.01733 0.78093,-0.04436 1.17029,-0.08106c0.75268,-0.07235 1.38206,-0.17823 1.88812,-0.31765c0.10989,-0.03013 0.21881,-0.06368 0.32661,-0.1006c0.15446,-0.05198 0.30465,-0.11586 0.44923,-0.19106c0.15028,-0.0795 0.27648,-0.16668 0.37859,-0.26155c0.20584,-0.17754 0.32443,-0.43572 0.32499,-0.70755c0.00091,-0.11564 -0.00991,-0.23107 -0.03231,-0.34452c-0.05111,-0.24799 -0.16272,-0.4391 -0.33483,-0.57332c-0.24476,-0.19091 -0.68043,-0.28637 -1.30702,-0.28637zM189.71269,176.24851h-4.2735c-0.05874,0.00002 -0.11553,-0.02103 -0.16007,-0.05933c-0.00817,-0.00677 -0.01601,-0.01392 -0.0235,-0.02144c-0.02152,-0.02113 -0.03965,-0.04545 -0.05375,-0.07211c-0.01793,-0.03441 -0.0272,-0.07267 -0.02702,-0.11146c-0.00032,-0.03156 0.00475,-0.06295 0.01498,-0.09281c0.01334,-0.03771 0.03596,-0.07145 0.06579,-0.0981c0.02558,-0.02375 0.05529,-0.04262 0.08767,-0.05566c0.03056,-0.01193 0.0631,-0.01796 0.0959,-0.01777h4.2735c0.64616,0 1.14058,0.11993 1.48324,0.3598c0.14665,0.1001 0.27326,0.22677 0.37331,0.37345c0.1151,0.17403 0.18607,0.37349 0.20677,0.58111c0.00612,0.0555 0.00916,0.11129 0.00911,0.16712c0,0.299 -0.08542,0.62032 -0.25626,0.96396c-0.03088,0.06202 -0.06354,0.12314 -0.09795,0.18328c-0.13993,0.24623 -0.2898,0.48669 -0.44923,0.72077c-0.03824,0.05624 -0.07696,0.11214 -0.11616,0.16771c-0.21049,0.29861 -0.43322,0.58987 -0.66819,0.87379c0.24192,0.19138 0.4793,0.38841 0.71196,0.59095c0.14858,0.12916 0.29554,0.26017 0.44086,0.39299c0.39651,0.36224 0.79057,0.72938 1.18219,1.10142c0.39161,0.37203 0.75875,0.73183 1.10142,1.07939c0.12256,0.12426 0.24489,0.24875 0.36699,0.37345c0.19346,0.19777 0.36973,0.37923 0.52883,0.54439c0.0399,0.03994 0.06493,0.09234 0.07093,0.14847c0.00172,0.01408 0.00255,0.02826 0.0025,0.04244c0.00031,0.02985 -0.00375,0.05958 -0.01204,0.08826c-0.0115,0.03883 -0.03262,0.07414 -0.06139,0.10265c-0.03991,0.03987 -0.09224,0.06489 -0.14832,0.07093c-0.01413,0.00172 -0.02835,0.00256 -0.04259,0.0025c-0.07832,0 -0.14196,-0.02937 -0.19091,-0.08811c-0.25455,-0.26434 -0.55316,-0.57029 -0.89582,-0.91785c-0.34266,-0.34756 -0.70735,-0.71225 -1.09407,-1.09407c-0.38672,-0.38182 -0.77833,-0.74896 -1.17484,-1.10142c-0.39651,-0.35245 -0.77099,-0.66575 -1.12345,-0.93988c-0.62493,0.71174 -1.30774,1.37048 -2.04144,1.96948c-0.17613,0.14454 -0.35478,0.28599 -0.53588,0.42427c-0.97414,0.74407 -1.99479,1.37555 -3.06194,1.89444c-0.06726,0.03848 -0.13457,0.04626 -0.20193,0.02335c-0.00123,-0.00043 -0.00245,-0.00087 -0.00367,-0.00132c-0.0635,-0.02167 -0.11515,-0.06874 -0.1426,-0.12997c-0.00147,-0.00316 -0.00289,-0.00634 -0.00426,-0.00955c-0.03848,-0.06726 -0.04626,-0.13457 -0.02335,-0.20193c0.00043,-0.00123 0.00087,-0.00245 0.00132,-0.00367c0.02226,-0.06212 0.06478,-0.11493 0.12072,-0.14994c0.00615,-0.00405 0.01242,-0.00792 0.0188,-0.0116c0.98883,-0.47973 1.92381,-1.04512 2.80494,-1.69618c0.88113,-0.65106 1.67905,-1.36331 2.39375,-2.13675c0.46869,-0.50426 0.89914,-1.04275 1.28778,-1.61101c0.17315,-0.25447 0.33634,-0.51558 0.48918,-0.78274c0.0548,-0.09163 0.10384,-0.18659 0.14686,-0.28431c0.17554,-0.40346 0.17554,-0.74681 0,-1.03005c-0.20198,-0.32582 -0.6234,-0.49892 -1.26428,-0.51928c-0.0436,-0.00138 -0.08722,-0.00206 -0.13085,-0.00206zM204.98568,183.48849h-5.2868c-0.05874,0.00002 -0.11553,-0.02103 -0.16007,-0.05933c-0.00817,-0.00677 -0.01601,-0.01392 -0.0235,-0.02144c-0.02152,-0.02113 -0.03965,-0.04545 -0.05375,-0.07211c-0.01793,-0.03441 -0.0272,-0.07267 -0.02702,-0.11146c-0.00032,-0.03156 0.00475,-0.06295 0.01498,-0.09281c0.01334,-0.03771 0.03596,-0.07145 0.06579,-0.0981c0.02558,-0.02375 0.05529,-0.04262 0.08767,-0.05566c0.03056,-0.01193 0.0631,-0.01796 0.0959,-0.01777h5.2868c0.70559,0 1.25841,-0.06721 1.65844,-0.20163c0.03742,-0.01255 0.07449,-0.02612 0.11117,-0.04068c0.36366,-0.13638 0.65297,-0.41977 0.79684,-0.78054c0.01173,-0.02834 0.0227,-0.05698 0.0329,-0.08591c0.13951,-0.39524 0.21274,-0.94281 0.2197,-1.64273c0.00038,-0.0374 0.00058,-0.0748 0.00059,-0.1122c0.00052,-0.21394 -0.00629,-0.42784 -0.02041,-0.64132c-0.0278,-0.40395 -0.08405,-0.74162 -0.16874,-1.01301c-0.00974,-0.03129 -0.02012,-0.06238 -0.03113,-0.09325c-0.07479,-0.21922 -0.20215,-0.41677 -0.37096,-0.57538c-0.13404,-0.12217 -0.2896,-0.21837 -0.45878,-0.28373c-0.36704,-0.14588 -0.88383,-0.22586 -1.55035,-0.23996c-0.07307,-0.00156 -0.14616,-0.00234 -0.21926,-0.00235h-5.12526c-0.05326,-0.00009 -0.10482,-0.01873 -0.14583,-0.05272c-0.01349,-0.01079 -0.02611,-0.02262 -0.03774,-0.03539c-0.05385,-0.05874 -0.08077,-0.12238 -0.08077,-0.19091c-0.00032,-0.03156 0.00475,-0.06295 0.01498,-0.09281c0.01334,-0.03771 0.03596,-0.07145 0.06579,-0.0981c0.02558,-0.02375 0.05529,-0.04262 0.08767,-0.05566c0.03056,-0.01193 0.0631,-0.01796 0.0959,-0.01777h5.12526c0.25395,-0.00072 0.50783,0.00883 0.76101,0.02864c0.4996,0.04073 0.91491,0.12458 1.24592,0.25156c0.01149,0.00442 0.02294,0.00893 0.03436,0.01351c0.45687,0.17335 0.82171,0.52793 1.00802,0.97967c0.00685,0.01602 0.01351,0.03213 0.01997,0.04832c0.18719,0.46798 0.2849,1.11928 0.29312,1.95391c0.00039,0.03892 0.00058,0.07783 0.00059,0.11675c0.00066,0.25309 -0.00845,0.50612 -0.02732,0.75851c-0.03857,0.49784 -0.11827,0.91153 -0.23908,1.24108c-0.00876,0.02382 -0.01787,0.04752 -0.02732,0.07108c-0.17335,0.45687 -0.52793,0.82171 -0.97967,1.00802c-0.01602,0.00685 -0.03213,0.01351 -0.04832,0.01997c-0.18555,0.07241 -0.3771,0.12838 -0.57244,0.16727c-0.39445,0.08165 -0.86601,0.12375 -1.41466,0.1263c-0.01806,0.00009 -0.03613,0.00014 -0.05419,0.00015zM256.67886,178.51008v-1.04267c0,-0.35911 0.05399,-0.65718 0.16198,-0.8942c0.06593,-0.1494 0.16348,-0.28273 0.28593,-0.39078c0.26277,-0.22831 0.69805,-0.35617 1.30584,-0.38359c0.086,-0.0038 0.17208,-0.00566 0.25817,-0.00558h3.73013v-2.12941c-0.00032,-0.03156 0.00475,-0.06295 0.01498,-0.09281c0.01334,-0.03771 0.03596,-0.07145 0.06579,-0.0981c0.02558,-0.02375 0.05529,-0.04262 0.08767,-0.05566c0.03056,-0.01193 0.0631,-0.01796 0.0959,-0.01777c0.02986,-0.00026 0.05959,0.00384 0.08826,0.01219c0.03882,0.01146 0.07412,0.03252 0.10265,0.06124c0.0399,0.03994 0.06493,0.09234 0.07093,0.14847c0.00172,0.01408 0.00255,0.02826 0.0025,0.04244v2.12941h3.7595c0.75386,0 1.28009,0.12972 1.5787,0.38917c0.14527,0.1294 0.25579,0.29313 0.32147,0.47625c0.04876,0.12825 0.08341,0.27247 0.10397,0.43264c0.01547,0.12476 0.02297,0.25038 0.02247,0.3761v1.04267c0.00017,0.06572 -0.02418,0.12913 -0.06829,0.17784c-0.00169,0.00193 -0.0034,0.00384 -0.00514,0.00573c-0.04895,0.05385 -0.11259,0.08077 -0.19091,0.08077c-0.05874,0.00002 -0.11553,-0.02103 -0.16007,-0.05933c-0.00817,-0.00677 -0.01601,-0.01392 -0.0235,-0.02144c-0.02152,-0.02113 -0.03965,-0.04545 -0.05375,-0.07211c-0.01793,-0.03441 -0.0272,-0.07267 -0.02702,-0.11146v-1.04267c0.0006,-0.10342 -0.00686,-0.20673 -0.02232,-0.30898c-0.01694,-0.10789 -0.04367,-0.20423 -0.08018,-0.28901c-0.04631,-0.11278 -0.11952,-0.2125 -0.21323,-0.29048c-0.21049,-0.17133 -0.60456,-0.257 -1.18219,-0.257h-8.01832c-0.13004,-0.00043 -0.26003,0.00486 -0.38961,0.01586c-0.25249,0.02242 -0.4554,0.06858 -0.60872,0.13848c-0.06053,0.02689 -0.11738,0.06138 -0.16918,0.10265c-0.15831,0.12884 -0.25709,0.32837 -0.29635,0.59858c-0.0134,0.09604 -0.01988,0.19292 -0.01938,0.28989v1.04267c0.00017,0.06572 -0.02418,0.12913 -0.06829,0.17784c-0.00169,0.00193 -0.0034,0.00384 -0.00514,0.00573c-0.04895,0.05385 -0.11259,0.08077 -0.19091,0.08077c-0.05874,0.00002 -0.11553,-0.02103 -0.16007,-0.05933c-0.00817,-0.00677 -0.01601,-0.01392 -0.0235,-0.02144c-0.02152,-0.02113 -0.03965,-0.04545 -0.05375,-0.07211c-0.01793,-0.03441 -0.0272,-0.07267 -0.02702,-0.11146zM241.32789,185.95875c0.0085,0.05912 0.04233,0.11161 0.09267,0.14377c0.14686,0.11748 0.27413,0.0979 0.38182,-0.05874c0.11631,-0.15909 0.2431,-0.34017 0.38036,-0.54322c0.08718,-0.12909 0.17333,-0.25887 0.25847,-0.38931c0.06846,-0.1048 0.1363,-0.21 0.20354,-0.31559c0.18073,-0.28404 0.35766,-0.57049 0.53074,-0.85925c0.24965,-0.41609 0.48952,-0.82973 0.71959,-1.24093c0.01516,-0.0271 0.03029,-0.05422 0.04538,-0.08136c0.10505,-0.18876 0.2032,-0.36905 0.29445,-0.54087c0.08699,-0.16358 0.17198,-0.32822 0.25494,-0.49388c0.00438,-0.00869 0.00849,-0.0175 0.01234,-0.02643c0.06119,-0.14343 0.01792,-0.2521 -0.12982,-0.32602c-0.03867,-0.0232 -0.08346,-0.03113 -0.13437,-0.02379c-0.01414,0.00209 -0.02812,0.00513 -0.04185,0.00911c-0.01152,0.00329 -0.02281,0.00736 -0.03378,0.01219c-0.04671,0.01888 -0.08272,0.05741 -0.09839,0.1053c-0.00332,0.00666 -0.00665,0.01332 -0.00999,0.01997c-0.13569,0.27051 -0.31104,0.60162 -0.52604,0.99333c-0.22028,0.40141 -0.46015,0.81505 -0.71959,1.24093c-0.06806,0.11173 -0.13664,0.22315 -0.20574,0.33424c-0.18183,0.29262 -0.36782,0.58264 -0.5579,0.86997c-0.24965,0.37693 -0.47239,0.68777 -0.66819,0.93253c-0.00429,0.00752 -0.00835,0.01516 -0.01219,0.02291c-0.02663,0.05375 -0.03994,0.10897 -0.03994,0.16565c-0.00003,0.00813 0.00022,0.01626 0.00073,0.02438c0.00054,0.00841 0.00147,0.01679 0.00279,0.02511zM249.26265,180.05207h2.83431v-1.60073c0.00032,-0.12744 -0.00399,-0.25485 -0.01292,-0.38197c-0.01831,-0.25014 -0.05595,-0.45863 -0.11293,-0.62546c-0.00657,-0.01924 -0.01358,-0.03834 -0.021,-0.05727c-0.08413,-0.22502 -0.2593,-0.40409 -0.48242,-0.49314c-0.01768,-0.00742 -0.03555,-0.01438 -0.0536,-0.02085c-0.08992,-0.03134 -0.18213,-0.05569 -0.27579,-0.07284c-0.23272,-0.04445 -0.52506,-0.06667 -0.87702,-0.06667h-0.95456v2.23221c0,0.37203 -0.01469,0.73428 -0.04406,1.08673zM276.72465,181.93182c0.1643,0.00169 0.32766,-0.02504 0.48286,-0.07901c0.16822,-0.06041 0.32156,-0.15615 0.44967,-0.28079c0.23066,-0.22156 0.35475,-0.53299 0.37228,-0.9343c0.00147,-0.03366 0.00221,-0.06735 0.0022,-0.10104c0,-0.0979 -0.00245,-0.19826 -0.00734,-0.30105c-0.0049,-0.1028 -0.00734,-0.20315 -0.00734,-0.30105c-0.20967,-0.30899 -0.53911,-0.51611 -0.90845,-0.57112c-0.12191,-0.02119 -0.24546,-0.03156 -0.3692,-0.03099c-0.43078,0 -0.77833,0.11504 -1.04267,0.34511c-0.20299,0.17717 -0.33592,0.4211 -0.37478,0.68772c-0.01484,0.09063 -0.02211,0.18234 -0.02173,0.27418c-0.00112,0.13461 0.01452,0.26884 0.04655,0.39959c0.05003,0.20869 0.15872,0.3987 0.31324,0.54762c0.23986,0.23007 0.59477,0.34511 1.0647,0.34511zM292.08575,185.28013h0.23497c0.10675,-0.11227 0.20268,-0.23436 0.28652,-0.36464c0.1308,-0.20599 0.21152,-0.41487 0.24216,-0.62663c0.01067,-0.07343 0.01601,-0.14475 0.01601,-0.21397c0.00333,-0.23868 -0.06912,-0.47226 -0.20692,-0.66717c-0.12256,-0.17177 -0.2956,-0.30107 -0.49505,-0.36993c-0.10592,-0.03793 -0.2157,-0.06408 -0.32734,-0.07798c-0.06663,-0.00877 -0.13361,-0.01465 -0.20075,-0.01762c-0.17956,-0.00773 -0.34477,0.00803 -0.49564,0.04729c-0.14798,0.03773 -0.28776,0.10235 -0.41237,0.19062c-0.13033,0.08985 -0.23802,0.20875 -0.31456,0.34731c-0.07167,0.13286 -0.11088,0.28333 -0.11763,0.45143c-0.0007,0.01766 -0.00104,0.03534 -0.00103,0.05301c-0.00215,0.15429 0.02718,0.3074 0.0862,0.44997c0.07881,0.18455 0.21162,0.34051 0.39842,0.46788c0.15882,0.10604 0.33401,0.18522 0.51855,0.23438c0.23007,0.06403 0.4929,0.09604 0.78847,0.09604zM243.52059,179.17093c-0.185,-0.16529 -0.37697,-0.32262 -0.57538,-0.47155c-0.12674,-0.09536 -0.25562,-0.18785 -0.38652,-0.27741c-0.35735,-0.24476 -0.73183,-0.47483 -1.12345,-0.69022c-0.02148,-0.01131 -0.04159,-0.02506 -0.05992,-0.04097c-0.0748,-0.06628 -0.0842,-0.15542 -0.0282,-0.26742c0.02937,-0.04895 0.07588,-0.08322 0.13951,-0.1028c0.01899,-0.00593 0.0386,-0.00968 0.05845,-0.01116c0.04053,-0.00284 0.08004,0.0047 0.11851,0.02262c0.00222,0.00105 0.00442,0.00213 0.00661,0.00323c0.27287,0.13358 0.53918,0.28017 0.79801,0.43925c0.12468,0.07637 0.24786,0.15515 0.36949,0.23629c0.39651,0.26434 0.74162,0.52378 1.03533,0.77833c0.05874,0.04895 0.08811,0.10769 0.08811,0.17623c0,0.06853 -0.01958,0.12727 -0.05874,0.17623c-0.02905,0.03594 -0.06825,0.06229 -0.11249,0.07563c-0.01839,0.00582 -0.03726,0.01 -0.05639,0.01248c-0.0562,0.00754 -0.11097,-0.00215 -0.16433,-0.02908c-0.01694,-0.00863 -0.03319,-0.01855 -0.04861,-0.02966zM244.47516,175.94011c-0.17658,-0.15165 -0.35912,-0.29622 -0.54718,-0.43337c-0.13837,-0.10114 -0.2791,-0.19903 -0.42206,-0.29356c-0.36224,-0.23986 -0.73917,-0.46749 -1.13079,-0.68288c-0.02148,-0.01131 -0.04159,-0.02506 -0.05992,-0.04097c-0.0748,-0.06628 -0.0842,-0.15542 -0.0282,-0.26742c0.02937,-0.04895 0.07588,-0.08322 0.13951,-0.1028c0.01899,-0.00593 0.0386,-0.00968 0.05845,-0.01116c0.04053,-0.00284 0.08004,0.0047 0.11851,0.02262c0.00222,0.00105 0.00442,0.00213 0.00661,0.00323c0.37203,0.18602 0.75875,0.40875 1.16016,0.66819c0.18499,0.11922 0.36685,0.24321 0.54542,0.37184c0.16879,0.12199 0.32504,0.24226 0.46876,0.36082c0.00952,0.00786 0.01901,0.01574 0.02849,0.02364c0.01904,0.01584 0.03655,0.03344 0.05228,0.05257c0.07519,0.09311 0.06755,0.19307 -0.02291,0.29988c-0.03257,0.04048 -0.07642,0.07038 -0.126,0.08591c-0.01167,0.00382 -0.02353,0.007 -0.03554,0.00955c-0.06305,0.01351 -0.1261,-0.00406 -0.18915,-0.05272c-0.0056,-0.00431 -0.01108,-0.00877 -0.01645,-0.01336z" fill="#000000" fill-rule="evenodd" stroke="#000000" stroke-width="1" stroke-linecap="round"/></g></g></svg>