<svg version="1.1" xmlns="http://www.w3.org/2000/svg" xmlns:xlink="http://www.w3.org/1999/xlink" width="291.30073" height="60.06866" viewBox="0,0,291.30073,60.06866"><g transform="translate(-94.86421,-132.86287)"><g data-paper-data="{&quot;isPaintingLayer&quot;:true}" fill="#000000" fill-rule="evenodd" stroke="#000000" stroke-width="2" stroke-linecap="round" stroke-linejoin="miter" stroke-miterlimit="10" stroke-dasharray="" stroke-dashoffset="0" style="mix-blend-mode: normal"><path d="M108.97122,176.20337c-0.61857,-0.3196 -1.32994,-0.4794 -2.13408,-0.4794c-1.11343,0 -2.11346,0.33506 -3.00009,1.00518c-0.47775,0.36291 -0.89571,0.79841 -1.2387,1.29066c-0.3259,0.4695 -0.59529,0.97579 -0.8026,1.5084c-0.05956,0.1545 -0.11566,0.31032 -0.16825,0.46733c-0.28001,0.83776 -0.4162,1.60262 -0.40857,2.2946c0.00201,0.24575 0.02425,0.49091 0.0665,0.73301c0.0346,0.19808 0.08223,0.39367 0.14258,0.58548c0.20207,0.67673 0.61208,1.27265 1.17189,1.70325c0.40456,0.30805 0.86726,0.53108 1.36025,0.65569c0.40463,0.10173 0.82056,0.15162 1.23777,0.14846c0.03433,0.00002 0.06866,-0.00018 0.10299,-0.00062c0.5128,-0.00701 0.98374,-0.06526 1.41283,-0.17475c0.82593,-0.1931 1.56508,-0.65328 2.10285,-1.30921c0.24145,0.77322 0.87322,1.24437 1.89531,1.41344c0.31424,0.04955 0.63201,0.07334 0.95013,0.07114c0.67322,0 1.29292,-0.06887 1.85913,-0.2066c1.02264,-0.22884 1.95009,-0.7668 2.65647,-1.54087c0.62388,-0.69086 1.07519,-1.51971 1.31695,-2.41863c0.17859,-0.66871 0.26619,-1.35845 0.26042,-2.05058c0,-1.42272 -0.27836,-2.75781 -0.83508,-4.00527c-0.55672,-1.24746 -1.32478,-2.35058 -2.30419,-3.30938c-0.97941,-0.95879 -2.10315,-1.70624 -3.37123,-2.24233c-1.26808,-0.5361 -2.61348,-0.80415 -4.0362,-0.80415c-0.28701,-0.00013 -0.57396,0.00853 -0.86044,0.02598c-1.31352,0.07244 -2.60603,0.3615 -3.82527,0.85549c-1.43303,0.58765 -2.68565,1.40726 -3.75784,2.45884c-1.0722,1.05158 -1.90212,2.28873 -2.48976,3.71145c-0.17494,0.42381 -0.32378,0.85794 -0.44568,1.29994c-0.29531,1.08836 -0.44191,2.21168 -0.43579,3.33938c-0.00242,0.70016 0.05271,1.39934 0.16485,2.09047c0.20185,1.29606 0.66676,2.53712 1.36612,3.64681c1.02065,1.59799 2.41244,2.82998 4.17538,3.69599c0.81014,0.39649 1.66176,0.70187 2.53925,0.91054c1.12918,0.26472 2.28568,0.39511 3.44546,0.38847c0.0964,-0.00001 0.1928,-0.00104 0.28918,-0.00309c1.36991,-0.02088 2.72613,-0.27612 4.00991,-0.75466c1.34025,-0.50517 2.51554,-1.232 3.52588,-2.18048c0.03521,-0.0349 0.06807,-0.07209 0.09835,-0.11134c0.15567,-0.20392 0.16722,-0.39713 0.03464,-0.5796c-0.03022,-0.04099 -0.06441,-0.07891 -0.10206,-0.1132c-0.00718,-0.00776 -0.0145,-0.01539 -0.02196,-0.02289c-0.24207,-0.24372 -0.51311,-0.21547 -0.81312,0.08474c-0.90724,0.82477 -1.95882,1.46912 -3.15473,1.93305c-1.19591,0.46393 -2.48461,0.6959 -3.86609,0.6959c-0.69031,0.00175 -1.37988,-0.04527 -2.06357,-0.14073c-1.2061,-0.16279 -2.37844,-0.51727 -3.47268,-1.05003c-1.60829,-0.79384 -2.86091,-1.91758 -3.75784,-3.37123c-0.46663,-0.75923 -0.81398,-1.58557 -1.02993,-2.45018c-0.21549,-0.87297 -0.32147,-1.76938 -0.31547,-2.66853c-0.00045,-0.39146 0.01751,-0.78273 0.05382,-1.17251c0.0955,-1.08826 0.36448,-2.15423 0.79672,-3.15752c0.56703,-1.29901 1.3454,-2.4176 2.33512,-3.35577c0.98972,-0.93817 2.13408,-1.65984 3.43309,-2.16501c1.29901,-0.50517 2.68049,-0.75775 4.14445,-0.75775c1.23715,0 2.42275,0.23712 3.55681,0.71136c1.13405,0.47424 2.14439,1.13405 3.03102,1.97944c0.88662,0.84539 1.58768,1.82995 2.10315,2.9537c0.51548,1.12374 0.77322,2.33512 0.77322,3.63413c0,0.63136 -0.06753,1.2087 -0.20258,1.73201c-0.1851,0.76621 -0.56857,1.47021 -1.11189,2.0413c-0.10068,0.1043 -0.20681,0.20321 -0.31795,0.2963c-0.84786,0.70971 -1.97387,1.06457 -3.37804,1.06457c-0.58002,0 -1.01725,-0.06371 -1.31169,-0.19114c-0.11086,-0.04483 -0.21168,-0.11128 -0.29661,-0.19547c-0.03144,-0.03286 -0.05932,-0.06893 -0.0832,-0.10763c-0.16866,-0.27176 -0.17186,-0.70497 -0.00959,-1.29963l1.73201,-6.52597c0.00473,-0.016 0.00916,-0.03209 0.0133,-0.04825c0.04804,-0.18392 0.04361,-0.33279 -0.0133,-0.44661c-0.04137,-0.08654 -0.11993,-0.14951 -0.21341,-0.17104c-0.0415,-0.01012 -0.0841,-0.015 -0.12681,-0.01454c-0.37114,0 -0.59796,0.17526 -0.68043,0.52579l-0.27836,0.98972c-0.32991,-0.57734 -0.80415,-1.0258 -1.42272,-1.3454zM185.86195,191.0436c0.01959,0.36455 0.19423,0.54682 0.52393,0.54682c0.04071,0.00013 0.08136,-0.00308 0.12155,-0.00959c0.26949,-0.04454 0.40424,-0.24753 0.40424,-0.60899v-19.17582l7.51569,10.82506c0.01258,0.01816 0.02547,0.0361 0.03866,0.05382c0.09732,0.13073 0.19454,0.22465 0.29166,0.28176c0.06808,0.0422 0.14631,0.06518 0.2264,0.0665c0.04128,-0.00032 0.08216,-0.00818 0.12062,-0.0232c0.12908,-0.04907 0.26413,-0.17537 0.40517,-0.37888l7.45383,-10.82506v19.17582c-0.00006,0.00742 -0.00006,0.01485 0,0.02227c0.0066,0.39754 0.19217,0.59631 0.55672,0.59631c0.37114,0 0.55672,-0.20619 0.55672,-0.61857v-20.41297c0,-0.32063 -0.12464,-0.51661 -0.37393,-0.58796c-0.07973,-0.0215 -0.16207,-0.03181 -0.24465,-0.03062c-0.01836,-0.00002 -0.03671,0.00039 -0.05505,0.00124c-0.30372,0.01423 -0.54311,0.14784 -0.71817,0.40084l-7.73219,11.13435l-7.76312,-11.13435c-0.02796,-0.04062 -0.05854,-0.07936 -0.09155,-0.11598c-0.16399,-0.18683 -0.40221,-0.29156 -0.65074,-0.28609c-0.05306,-0.00035 -0.10606,0.004 -0.15836,0.01299c-0.28619,0.05114 -0.42929,0.253 -0.42929,0.60558v20.41297c-0.00003,0.02393 0.00059,0.04786 0.00186,0.07175zM122.17966,191.0436c0.01959,0.36455 0.19423,0.54682 0.52393,0.54682c0.04071,0.00013 0.08136,-0.00308 0.12155,-0.00959c0.26949,-0.04454 0.40424,-0.24753 0.40424,-0.60899v-19.11397l12.92822,19.33047c0.02787,0.0405 0.05835,0.07914 0.09124,0.11567c0.164,0.18702 0.40236,0.29188 0.65105,0.2864h0.09279c0.04071,0.00013 0.08136,-0.00308 0.12155,-0.00959c0.26949,-0.04454 0.40424,-0.24753 0.40424,-0.60899v-20.41297c-0.00007,-0.02404 -0.00079,-0.04807 -0.00217,-0.07206c-0.01959,-0.36434 -0.19413,-0.54651 -0.52362,-0.54651c-0.37114,0 -0.55672,0.20619 -0.55672,0.61857v19.08304l-12.92822,-19.29954c-0.02796,-0.04062 -0.05854,-0.07936 -0.09155,-0.11598c-0.16399,-0.18683 -0.40221,-0.29156 -0.65074,-0.28609h-0.06186c-0.04081,-0.00025 -0.08156,0.00286 -0.12186,0.00928c-0.26929,0.04474 -0.40393,0.24784 -0.40393,0.6093v20.41297c-0.00003,0.02393 0.00059,0.04786 0.00186,0.07175zM258.41646,191.56939c0.14949,-0.03897 0.24516,-0.13165 0.28702,-0.27805c0.01729,-0.0638 0.02562,-0.12969 0.02474,-0.19578v-10.26834h13.2375v10.26834c-0.00076,0.06168 0.0063,0.1232 0.02103,0.1831c0.03876,0.14949 0.13134,0.24526 0.27774,0.28733c0.06391,0.01722 0.12991,0.02544 0.19609,0.02443h0.09279c0.06168,0.00076 0.1232,-0.0063 0.1831,-0.02103c0.14949,-0.03897 0.24516,-0.13165 0.28702,-0.27805c0.01729,-0.0638 0.02562,-0.12969 0.02474,-0.19578v-20.6604c0.00069,-0.06179 -0.00648,-0.12342 -0.02134,-0.18341c-0.03876,-0.14928 -0.13134,-0.24496 -0.27774,-0.28702c-0.06381,-0.01719 -0.1297,-0.02541 -0.19578,-0.02443h-0.09279c-0.06178,-0.00079 -0.12341,0.00628 -0.18341,0.02103c-0.14949,0.03897 -0.24516,0.13165 -0.28702,0.27805c-0.01719,0.06381 -0.02541,0.1297 -0.02443,0.19578v9.34048h-13.2375v-9.34048c0.00069,-0.06179 -0.00648,-0.12342 -0.02134,-0.18341c-0.03876,-0.14928 -0.13134,-0.24496 -0.27774,-0.28702c-0.06381,-0.01719 -0.1297,-0.02541 -0.19578,-0.02443h-0.06186c-0.06178,-0.00079 -0.12341,0.00628 -0.18341,0.02103c-0.14949,0.03897 -0.24516,0.13165 -0.28702,0.27805c-0.01719,0.06381 -0.02541,0.1297 -0.02443,0.19578v20.6604c-0.00076,0.06168 0.0063,0.1232 0.02103,0.1831c0.03876,0.14949 0.13134,0.24526 0.27774,0.28733c0.06391,0.01722 0.12991,0.02544 0.19609,0.02443h0.06186c0.06168,0.00076 0.1232,-0.0063 0.1831,-0.02103zM324.97512,191.56939c0.14949,-0.03897 0.24516,-0.13165 0.28702,-0.27805c0.01729,-0.0638 0.02562,-0.12969 0.02474,-0.19578v-10.26834h13.2375v10.26834c-0.00076,0.06168 0.0063,0.1232 0.02103,0.1831c0.03876,0.14949 0.13134,0.24526 0.27774,0.28733c0.06391,0.01722 0.12991,0.02544 0.19609,0.02443h0.09279c0.06168,0.00076 0.1232,-0.0063 0.1831,-0.02103c0.14949,-0.03897 0.24516,-0.13165 0.28702,-0.27805c0.01729,-0.0638 0.02562,-0.12969 0.02474,-0.19578v-20.6604c0.00069,-0.06179 -0.00648,-0.12342 -0.02134,-0.18341c-0.03876,-0.14928 -0.13134,-0.24496 -0.27774,-0.28702c-0.06381,-0.01719 -0.1297,-0.02541 -0.19578,-0.02443h-0.09279c-0.06178,-0.00079 -0.12341,0.00628 -0.18341,0.02103c-0.14949,0.03897 -0.24516,0.13165 -0.28702,0.27805c-0.01719,0.06381 -0.02541,0.1297 -0.02443,0.19578v9.34048h-13.2375v-9.34048c0.00069,-0.06179 -0.00648,-0.12342 -0.02134,-0.18341c-0.03876,-0.14928 -0.13134,-0.24496 -0.27774,-0.28702c-0.06381,-0.01719 -0.1297,-0.02541 -0.19578,-0.02443h-0.06186c-0.06178,-0.00079 -0.12341,0.00628 -0.18341,0.02103c-0.14949,0.03897 -0.24516,0.13165 -0.28702,0.27805c-0.01719,0.06381 -0.02541,0.1297 -0.02443,0.19578v20.6604c-0.00076,0.06168 0.0063,0.1232 0.02103,0.1831c0.03876,0.14949 0.13134,0.24526 0.27774,0.28733c0.06391,0.01722 0.12991,0.02544 0.19609,0.02443h0.06186c0.06168,0.00076 0.1232,-0.0063 0.1831,-0.02103zM219.09303,191.2966c-1.20622,-0.42269 -2.26295,-1.05673 -3.1702,-1.90212c-0.27259,-0.27238 -0.29712,-0.52641 -0.07361,-0.76208c0.01375,-0.01449 0.02799,-0.02852 0.04268,-0.04206c0.2132,-0.2132 0.44166,-0.22733 0.68538,-0.04237c0.04191,0.032 0.08159,0.06683 0.11877,0.10423c1.64953,1.48458 3.77331,2.22687 6.37132,2.22687c0.9691,0 1.92274,-0.1598 2.86091,-0.4794c0.53288,-0.17755 1.03705,-0.43177 1.49664,-0.75466c0.29988,-0.21289 0.57583,-0.45762 0.82301,-0.72992c0.4829,-0.53529 0.78748,-1.20745 0.87157,-1.92346c0.02758,-0.20824 0.04122,-0.4181 0.04083,-0.62816c0,-0.866 -0.17526,-1.62891 -0.52579,-2.28873c-0.35053,-0.65981 -1.01549,-1.232 -1.9949,-1.71655c-0.88477,-0.43774 -2.14388,-0.79559 -3.77733,-1.07354c-0.17882,-0.03033 -0.35791,-0.05909 -0.53723,-0.08629c-0.84298,-0.13051 -1.66985,-0.34956 -2.46688,-0.65352c-2.47925,-0.97652 -3.71887,-2.72781 -3.71887,-5.25387c-0.00471,-0.59786 0.08356,-1.19282 0.26166,-1.76356c0.13925,-0.437 0.33736,-0.853 0.58888,-1.23653c0.53909,-0.81868 1.28033,-1.48439 2.15202,-1.93274c0.06056,-0.03196 0.1216,-0.06299 0.1831,-0.0931c0.64331,-0.31053 1.33018,-0.5212 2.03697,-0.62476c0.4621,-0.06946 0.92883,-0.10358 1.39612,-0.10206c1.84856,0.00641 3.66115,0.51138 5.24675,1.46169c0.27816,0.16229 0.55011,0.335 0.81528,0.51775c0.35011,0.26764 0.42249,0.53538 0.21712,0.80322c-0.00021,0.00031 -0.00041,0.00062 -0.00062,0.00093c-0.18598,0.24166 -0.43063,0.29052 -0.73394,0.1466c-0.03449,-0.01644 -0.06824,-0.03439 -0.10114,-0.05382c-0.88367,-0.62841 -1.86314,-1.1098 -2.9005,-1.42551c-0.82532,-0.24537 -1.68194,-0.36945 -2.54296,-0.36836c-1.56706,0 -2.87637,0.40207 -3.92795,1.20622c-1.05158,0.80415 -1.57737,1.95882 -1.57737,3.46402c-0.00396,0.45282 0.04861,0.90436 0.1565,1.34416c0.17431,0.72593 0.56137,1.38329 1.11158,1.88789c0.34656,0.30971 0.73567,0.56822 1.1555,0.76765c0.3895,0.19052 0.8293,0.35599 1.31942,0.49641c0.49789,0.13995 1.00378,0.24974 1.51489,0.32877c0.7161,0.11522 1.42689,0.26134 2.13037,0.43795c1.37489,0.35032 2.47337,0.78745 3.29546,1.31138c0.17189,0.10896 0.3378,0.22707 0.49702,0.35382c0.88165,0.70678 1.47249,1.71319 1.65995,2.82751c0.08107,0.43424 0.12074,0.8752 0.11846,1.31695c0.00493,0.5592 -0.08125,1.11547 -0.25516,1.64696c-0.16199,0.48349 -0.40517,0.93585 -0.71909,1.33767c-0.54174,0.69005 -1.2286,1.25253 -2.01192,1.64757c-0.19132,0.09853 -0.38688,0.18862 -0.5861,0.27001c-1.08251,0.44331 -2.27326,0.66497 -3.57227,0.66497c-0.82043,0.00334 -1.63932,-0.07153 -2.44554,-0.22361c-0.51897,-0.09918 -1.02994,-0.23636 -1.52881,-0.41042zM167.53481,189.65737c0.84227,0.97849 1.96531,1.67402 3.21659,1.99212c0.75255,0.19362 1.52716,0.28813 2.30419,0.28114c2.3712,0 4.21146,-0.75775 5.52078,-2.27326c0.43235,-0.50484 0.78993,-1.06918 1.06178,-1.67572c0.32413,-0.71239 0.56084,-1.51489 0.71012,-2.40749c0.13261,-0.82299 0.19686,-1.65555 0.19207,-2.48915v-12.52614c-0.00007,-0.02404 -0.00079,-0.04807 -0.00217,-0.07206c-0.01959,-0.36434 -0.19413,-0.54651 -0.52362,-0.54651c-0.37114,0 -0.55672,0.20619 -0.55672,0.61857v12.52614c0.00025,0.30672 -0.00903,0.61337 -0.02784,0.91951c-0.12124,1.94583 -0.63775,3.53114 -1.54953,4.75591c-0.71501,0.96028 -1.74884,1.63433 -2.91596,1.90119c-0.62502,0.15025 -1.26612,0.22327 -1.90892,0.21743c-0.5425,0.0034 -1.08394,-0.0482 -1.61603,-0.15403c-1.27399,-0.22908 -2.41451,-0.93074 -3.19339,-1.96459c-0.24824,-0.33096 -0.46594,-0.68375 -0.65043,-1.05405c-0.34764,-0.69528 -0.59909,-1.47726 -0.75435,-2.34595c-0.1296,-0.75145 -0.19253,-1.51289 -0.18805,-2.27543v-12.52614c-0.00007,-0.02404 -0.00079,-0.04807 -0.00217,-0.07206c-0.01959,-0.36434 -0.19413,-0.54651 -0.52362,-0.54651c-0.37114,0 -0.55672,0.20619 -0.55672,0.61857v12.52614c0,2.86606 0.65466,5.05685 1.96398,6.57236zM308.07566,190.56297c-0.69472,0.2218 -1.42101,0.32857 -2.15017,0.31609c-3.31969,0 -5.0517,-1.71139 -5.19603,-5.13417c-0.00328,-0.03283 -0.00771,-0.06553 -0.0133,-0.09804c-0.04103,-0.23815 -0.13918,-0.39455 -0.29444,-0.46919c-0.07805,-0.03569 -0.16317,-0.05324 -0.24898,-0.05134c-0.04081,-0.00025 -0.08156,0.00286 -0.12186,0.00928c-0.26929,0.04474 -0.40393,0.24784 -0.40393,0.6093c0.0466,0.88807 0.18763,1.68603 0.42311,2.39389c0.25628,0.80675 0.68736,1.54704 1.26251,2.16811c0.70353,0.74641 1.64974,1.2355 2.83864,1.46726c0.57839,0.10828 1.16585,0.16069 1.75428,0.1565c0.25778,0.00034 0.51549,-0.00884 0.7726,-0.02753c1.75593,-0.13011 3.08092,-0.71889 3.97496,-1.76634c0.68559,-0.80353 1.14096,-1.82108 1.36612,-3.05267c0.11374,-0.64631 0.16892,-1.30156 0.16485,-1.95779v-14.56744c-0.00007,-0.02404 -0.00079,-0.04807 -0.00217,-0.07206c-0.01959,-0.36434 -0.19413,-0.54651 -0.52362,-0.54651c-0.37114,0 -0.55672,0.20619 -0.55672,0.61857v14.56744c0,2.93638 -1.01529,4.74859 -3.04586,5.43666zM374.63432,190.56297c-0.69472,0.2218 -1.42101,0.32857 -2.15017,0.31609c-3.31969,0 -5.0517,-1.71139 -5.19603,-5.13417c-0.00328,-0.03283 -0.00771,-0.06553 -0.0133,-0.09804c-0.04103,-0.23815 -0.13918,-0.39455 -0.29444,-0.46919c-0.07805,-0.03569 -0.16317,-0.05324 -0.24898,-0.05134c-0.04081,-0.00025 -0.08156,0.00286 -0.12186,0.00928c-0.26929,0.04474 -0.40393,0.24784 -0.40393,0.6093c0.0466,0.88807 0.18763,1.68603 0.42311,2.39389c0.25628,0.80675 0.68736,1.54704 1.26251,2.16811c0.70353,0.74641 1.64974,1.2355 2.83864,1.46726c0.57839,0.10828 1.16585,0.16069 1.75428,0.1565c0.25778,0.00034 0.51549,-0.00884 0.7726,-0.02753c1.75593,-0.13011 3.08092,-0.71889 3.97496,-1.76634c0.68559,-0.80353 1.14096,-1.82108 1.36612,-3.05267c0.11374,-0.64631 0.16892,-1.30156 0.16485,-1.95779v-14.56744c-0.00007,-0.02404 -0.00079,-0.04807 -0.00217,-0.07206c-0.01959,-0.36434 -0.19413,-0.54651 -0.52362,-0.54651c-0.37114,0 -0.55672,0.20619 -0.55672,0.61857v14.56744c0,2.93638 -1.01529,4.74859 -3.04586,5.43666zM146.61151,190.53884c-1.34048,-0.85563 -2.43617,-2.04425 -3.18009,-3.44979c-0.08277,-0.15236 -0.16197,-0.30663 -0.23753,-0.46269c-0.49756,-1.04263 -0.84115,-2.15196 -1.02003,-3.29329c-0.13756,-0.85931 -0.205,-1.72839 -0.20166,-2.59863c-0.00502,-0.98063 0.08186,-1.95958 0.25949,-2.924c0.18756,-1.02268 0.51117,-2.01564 0.96219,-2.95246c0.50203,-1.05095 1.18705,-2.00418 2.02305,-2.81513c0.42806,-0.41027 0.89513,-0.7778 1.39458,-1.09735c1.19174,-0.75625 2.54606,-1.21864 3.95146,-1.34911c0.38267,-0.03917 0.76711,-0.05858 1.15179,-0.05815c1.9382,0 3.63928,0.46909 5.10324,1.40726c1.38204,0.89143 2.50498,2.13107 3.25587,3.59423c0.0556,0.10522 0.10953,0.21132 0.16176,0.31826c0.49464,1.03065 0.83689,2.12771 1.01601,3.2568c0.14035,0.8661 0.20915,1.74228 0.20568,2.61966c0.00512,0.99701 -0.08467,1.99225 -0.26815,2.97225c-0.18885,1.01072 -0.50943,1.99232 -0.95353,2.91967c-0.47438,0.99907 -1.11459,1.91055 -1.89346,2.69575c-0.46204,0.46009 -0.97315,0.8681 -1.52417,1.21674c-1.16915,0.73374 -2.49207,1.18731 -3.86547,1.3253c-0.41105,0.04489 -0.82427,0.06709 -1.23777,0.0665c-0.9628,0.00703 -1.9218,-0.12135 -2.84885,-0.38135c-0.79593,-0.22725 -1.55513,-0.56753 -2.2544,-1.01044zM238.40803,190.53884c-1.34048,-0.85563 -2.43617,-2.04425 -3.18009,-3.44979c-0.08277,-0.15236 -0.16197,-0.30663 -0.23753,-0.46269c-0.49756,-1.04263 -0.84115,-2.15196 -1.02003,-3.29329c-0.13756,-0.85931 -0.205,-1.72839 -0.20166,-2.59863c-0.00502,-0.98063 0.08186,-1.95958 0.25949,-2.924c0.18756,-1.02268 0.51117,-2.01564 0.96219,-2.95246c0.50203,-1.05095 1.18705,-2.00418 2.02305,-2.81513c0.42806,-0.41027 0.89513,-0.7778 1.39458,-1.09735c1.19174,-0.75625 2.54606,-1.21864 3.95146,-1.34911c0.38267,-0.03917 0.76711,-0.05858 1.15179,-0.05815c1.9382,0 3.63928,0.46909 5.10324,1.40726c1.38204,0.89143 2.50498,2.13107 3.25587,3.59423c0.0556,0.10522 0.10953,0.21132 0.16176,0.31826c0.49464,1.03065 0.83689,2.12771 1.01601,3.2568c0.14035,0.8661 0.20915,1.74228 0.20568,2.61966c0.00512,0.99701 -0.08467,1.99225 -0.26815,2.97225c-0.18885,1.01072 -0.50943,1.99232 -0.95353,2.91967c-0.47438,0.99907 -1.11459,1.91055 -1.89346,2.69575c-0.46204,0.46009 -0.97315,0.8681 -1.52417,1.21674c-1.16915,0.73374 -2.49207,1.18731 -3.86547,1.3253c-0.41105,0.04489 -0.82427,0.06709 -1.23777,0.0665c-0.9628,0.00703 -1.9218,-0.12135 -2.84885,-0.38135c-0.79593,-0.22725 -1.55513,-0.56753 -2.2544,-1.01044zM282.14128,190.53884c-1.34048,-0.85563 -2.43617,-2.04425 -3.18009,-3.44979c-0.08277,-0.15236 -0.16197,-0.30663 -0.23753,-0.46269c-0.49756,-1.04263 -0.84115,-2.15196 -1.02003,-3.29329c-0.13756,-0.85931 -0.205,-1.72839 -0.20166,-2.59863c-0.00502,-0.98063 0.08186,-1.95958 0.25949,-2.924c0.18756,-1.02268 0.51117,-2.01564 0.96219,-2.95246c0.50203,-1.05095 1.18705,-2.00418 2.02305,-2.81513c0.42806,-0.41027 0.89513,-0.7778 1.39458,-1.09735c1.19174,-0.75625 2.54606,-1.21864 3.95146,-1.34911c0.38267,-0.03917 0.76711,-0.05858 1.15179,-0.05815c1.9382,0 3.63928,0.46909 5.10324,1.40726c1.38204,0.89143 2.50498,2.13107 3.25587,3.59423c0.0556,0.10522 0.10953,0.21132 0.16176,0.31826c0.49464,1.03065 0.83689,2.12771 1.01601,3.2568c0.14035,0.8661 0.20915,1.74228 0.20568,2.61966c0.00512,0.99701 -0.08467,1.99225 -0.26815,2.97225c-0.18885,1.01072 -0.50943,1.99232 -0.95353,2.91967c-0.47438,0.99907 -1.11459,1.91055 -1.89346,2.69575c-0.46204,0.46009 -0.97315,0.8681 -1.52417,1.21674c-1.16915,0.73374 -2.49207,1.18731 -3.86547,1.3253c-0.41105,0.04489 -0.82427,0.06709 -1.23777,0.0665c-0.9628,0.00703 -1.9218,-0.12135 -2.84885,-0.38135c-0.79593,-0.22725 -1.55513,-0.56753 -2.2544,-1.01044zM348.69995,190.53884c-1.34048,-0.85563 -2.43617,-2.04425 -3.18009,-3.44979c-0.08277,-0.15236 -0.16197,-0.30663 -0.23753,-0.46269c-0.49756,-1.04263 -0.84115,-2.15196 -1.02003,-3.29329c-0.13756,-0.85931 -0.205,-1.72839 -0.20166,-2.59863c-0.00502,-0.98063 0.08186,-1.95958 0.25949,-2.924c0.18756,-1.02268 0.51117,-2.01564 0.96219,-2.95246c0.50203,-1.05095 1.18705,-2.00418 2.02305,-2.81513c0.42806,-0.41027 0.89513,-0.7778 1.39458,-1.09735c1.19174,-0.75625 2.54606,-1.21864 3.95146,-1.34911c0.38267,-0.03917 0.76711,-0.05858 1.15179,-0.05815c1.9382,0 3.63928,0.46909 5.10324,1.40726c1.38204,0.89143 2.50498,2.13107 3.25587,3.59423c0.0556,0.10522 0.10953,0.21132 0.16176,0.31826c0.49464,1.03065 0.83689,2.12771 1.01601,3.2568c0.14035,0.8661 0.20915,1.74228 0.20568,2.61966c0.00512,0.99701 -0.08467,1.99225 -0.26815,2.97225c-0.18885,1.01072 -0.50943,1.99232 -0.95353,2.91967c-0.47438,0.99907 -1.11459,1.91055 -1.89346,2.69575c-0.46204,0.46009 -0.97315,0.8681 -1.52417,1.21674c-1.16915,0.73374 -2.49207,1.18731 -3.86547,1.3253c-0.41105,0.04489 -0.82427,0.06709 -1.23777,0.0665c-0.9628,0.00703 -1.9218,-0.12135 -2.84885,-0.38135c-0.79593,-0.22725 -1.55513,-0.56753 -2.2544,-1.01044zM151.0968,190.86019c-1.36248,-0.06957 -2.68612,-0.47766 -3.85125,-1.18735c-1.30932,-0.80415 -2.34028,-1.96398 -3.09287,-3.47948c-0.7526,-1.51551 -1.1289,-3.33515 -1.1289,-5.45892c-0.00001,-0.09279 0.00071,-0.18558 0.00217,-0.27836c0.01402,-0.89054 0.09598,-1.72531 0.24588,-2.5043c0.17039,-0.92308 0.46678,-1.81839 0.88085,-2.6608c0.11546,-0.23136 0.23988,-0.45814 0.373,-0.67981c0.66695,-1.13526 1.60051,-2.0909 2.71987,-2.78421c0.52915,-0.3254 1.09469,-0.58751 1.685,-0.78095c0.89954,-0.28894 1.83943,-0.4325 2.78421,-0.42527c0.20603,-0.00007 0.41201,0.00622 0.61765,0.01887c1.36258,0.06952 2.68634,0.47761 3.85156,1.18735c0.55511,0.34055 1.06512,0.74965 1.51798,1.21766c0.63393,0.66275 1.16012,1.42073 1.55943,2.24635c0.74229,1.5052 1.11343,3.31969 1.11343,5.44346c0,0.09269 -0.00072,0.18537 -0.00217,0.27805c-0.01402,0.89095 -0.09485,1.72696 -0.24248,2.50801c-0.16822,0.92593 -0.46045,1.82498 -0.86879,2.67286c-0.11395,0.23291 -0.23704,0.46124 -0.36898,0.68445c-0.65831,1.14092 -1.58879,2.10115 -2.70843,2.79503c-0.52925,0.32542 -1.09489,0.58753 -1.68531,0.78095c-0.89944,0.28891 -1.83922,0.43247 -2.7839,0.42527c-0.20613,0.00008 -0.41221,-0.00621 -0.61796,-0.01887zM242.89332,190.86019c-1.36248,-0.06957 -2.68612,-0.47766 -3.85125,-1.18735c-1.30932,-0.80415 -2.34028,-1.96398 -3.09287,-3.47948c-0.7526,-1.51551 -1.1289,-3.33515 -1.1289,-5.45892c-0.00001,-0.09279 0.00071,-0.18558 0.00217,-0.27836c0.01402,-0.89054 0.09598,-1.72531 0.24588,-2.5043c0.17039,-0.92308 0.46678,-1.81839 0.88085,-2.6608c0.11546,-0.23136 0.23988,-0.45814 0.373,-0.67981c0.66695,-1.13526 1.60051,-2.0909 2.71987,-2.78421c0.52915,-0.3254 1.09469,-0.58751 1.685,-0.78095c0.89954,-0.28894 1.83943,-0.4325 2.78421,-0.42527c0.20603,-0.00007 0.41201,0.00622 0.61765,0.01887c1.36258,0.06952 2.68634,0.47761 3.85156,1.18735c0.55511,0.34055 1.06512,0.74965 1.51798,1.21766c0.63393,0.66275 1.16012,1.42073 1.55943,2.24635c0.74229,1.5052 1.11343,3.31969 1.11343,5.44346c0,0.09269 -0.00072,0.18537 -0.00217,0.27805c-0.01402,0.89095 -0.09485,1.72696 -0.24248,2.50801c-0.16822,0.92593 -0.46045,1.82498 -0.86879,2.67286c-0.11395,0.23291 -0.23704,0.46124 -0.36898,0.68445c-0.65831,1.14092 -1.58879,2.10115 -2.70843,2.79503c-0.52925,0.32542 -1.09489,0.58753 -1.68531,0.78095c-0.89944,0.28891 -1.83922,0.43247 -2.7839,0.42527c-0.20613,0.00008 -0.41221,-0.00621 -0.61796,-0.01887zM286.62657,190.86019c-1.36248,-0.06957 -2.68612,-0.47766 -3.85125,-1.18735c-1.30932,-0.80415 -2.34028,-1.96398 -3.09287,-3.47948c-0.7526,-1.51551 -1.1289,-3.33515 -1.1289,-5.45892c-0.00001,-0.09279 0.00071,-0.18558 0.00217,-0.27836c0.01402,-0.89054 0.09598,-1.72531 0.24588,-2.5043c0.17039,-0.92308 0.46678,-1.81839 0.88085,-2.6608c0.11546,-0.23136 0.23988,-0.45814 0.373,-0.67981c0.66695,-1.13526 1.60051,-2.0909 2.71987,-2.78421c0.52915,-0.3254 1.09469,-0.58751 1.685,-0.78095c0.89954,-0.28894 1.83943,-0.4325 2.78421,-0.42527c0.20603,-0.00007 0.41201,0.00622 0.61765,0.01887c1.36258,0.06952 2.68634,0.47761 3.85156,1.18735c0.55511,0.34055 1.06512,0.74965 1.51798,1.21766c0.63393,0.66275 1.16012,1.42073 1.55943,2.24635c0.74229,1.5052 1.11343,3.31969 1.11343,5.44346c0,0.09269 -0.00072,0.18537 -0.00217,0.27805c-0.01402,0.89095 -0.09485,1.72696 -0.24248,2.50801c-0.16822,0.92593 -0.46045,1.82498 -0.86879,2.67286c-0.11395,0.23291 -0.23704,0.46124 -0.36898,0.68445c-0.65831,1.14092 -1.58879,2.10115 -2.70843,2.79503c-0.52925,0.32542 -1.09489,0.58753 -1.68531,0.78095c-0.89944,0.28891 -1.83922,0.43247 -2.7839,0.42527c-0.20613,0.00008 -0.41221,-0.00621 -0.61796,-0.01887zM353.18523,190.86019c-1.36248,-0.06957 -2.68612,-0.47766 -3.85125,-1.18735c-1.30932,-0.80415 -2.34028,-1.96398 -3.09287,-3.47948c-0.7526,-1.51551 -1.1289,-3.33515 -1.1289,-5.45892c-0.00001,-0.09279 0.00071,-0.18558 0.00217,-0.27836c0.01402,-0.89054 0.09598,-1.72531 0.24588,-2.5043c0.17039,-0.92308 0.46678,-1.81839 0.88085,-2.6608c0.11546,-0.23136 0.23988,-0.45814 0.373,-0.67981c0.66695,-1.13526 1.60051,-2.0909 2.71987,-2.78421c0.52915,-0.3254 1.09469,-0.58751 1.685,-0.78095c0.89954,-0.28894 1.83943,-0.4325 2.78421,-0.42527c0.20603,-0.00007 0.41201,0.00622 0.61765,0.01887c1.36258,0.06952 2.68634,0.47761 3.85156,1.18735c0.55511,0.34055 1.06512,0.74965 1.51798,1.21766c0.63393,0.66275 1.16012,1.42073 1.55943,2.24635c0.74229,1.5052 1.11343,3.31969 1.11343,5.44346c0,0.09269 -0.00072,0.18537 -0.00217,0.27805c-0.01402,0.89095 -0.09485,1.72696 -0.24248,2.50801c-0.16822,0.92593 -0.46045,1.82498 -0.86879,2.67286c-0.11395,0.23291 -0.23704,0.46124 -0.36898,0.68445c-0.65831,1.14092 -1.58879,2.10115 -2.70843,2.79503c-0.52925,0.32542 -1.09489,0.58753 -1.68531,0.78095c-0.89944,0.28891 -1.83922,0.43247 -2.7839,0.42527c-0.20613,0.00008 -0.41221,-0.00621 -0.61796,-0.01887zM209.70801,191.0436c0.01959,0.36455 0.19423,0.54682 0.52393,0.54682c0.04071,0.00013 0.08136,-0.00308 0.12155,-0.00959c0.26949,-0.04454 0.40424,-0.24753 0.40424,-0.60899v-20.41297c-0.00007,-0.02404 -0.00079,-0.04807 -0.00217,-0.07206c-0.01959,-0.36434 -0.19413,-0.54651 -0.52362,-0.54651c-0.04081,-0.00025 -0.08156,0.00286 -0.12186,0.00928c-0.26929,0.04474 -0.40393,0.24784 -0.40393,0.6093v20.41297c-0.00003,0.02393 0.00059,0.04786 0.00186,0.07175zM317.55655,191.0436c0.01959,0.36455 0.19423,0.54682 0.52393,0.54682c0.04071,0.00013 0.08136,-0.00308 0.12155,-0.00959c0.26949,-0.04454 0.40424,-0.24753 0.40424,-0.60899v-20.41297c-0.00007,-0.02404 -0.00079,-0.04807 -0.00217,-0.07206c-0.01959,-0.36434 -0.19413,-0.54651 -0.52362,-0.54651c-0.04081,-0.00025 -0.08156,0.00286 -0.12186,0.00928c-0.26929,0.04474 -0.40393,0.24784 -0.40393,0.6093v20.41297c-0.00003,0.02393 0.00059,0.04786 0.00186,0.07175zM384.11522,191.0436c0.01959,0.36455 0.19423,0.54682 0.52393,0.54682c0.04071,0.00013 0.08136,-0.00308 0.12155,-0.00959c0.26949,-0.04454 0.40424,-0.24753 0.40424,-0.60899v-20.41297c-0.00007,-0.02404 -0.00079,-0.04807 -0.00217,-0.07206c-0.01959,-0.36434 -0.19413,-0.54651 -0.52362,-0.54651c-0.04081,-0.00025 -0.08156,0.00286 -0.12186,0.00928c-0.26929,0.04474 -0.40393,0.24784 -0.40393,0.6093v20.41297c-0.00003,0.02393 0.00059,0.04786 0.00186,0.07175zM108.95545,182.74634c-0.25691,0.5895 -0.58156,1.04776 -0.97395,1.37478c-0.07991,0.06661 -0.16223,0.13026 -0.24681,0.19083c-0.34544,0.25111 -0.73329,0.43791 -1.14498,0.55146c-0.20808,0.05677 -0.419,0.10261 -0.63187,0.13732c-0.2512,0.04145 -0.50532,0.06276 -0.75992,0.06371c-0.04918,-0.00004 -0.09837,-0.00076 -0.14753,-0.00217c-1.27694,-0.03526 -2.10408,-0.53455 -2.48141,-1.49788c-0.30022,-0.76621 -0.32207,-1.66252 -0.06557,-2.68895c0.08422,-0.33148 0.18875,-0.65747 0.313,-0.97611c0.10554,-0.27778 0.23102,-0.54756 0.37547,-0.80724c0.31134,-0.56898 0.73621,-1.06796 1.24828,-1.46602c0.71136,-0.54641 1.51035,-0.81961 2.39698,-0.81961c0.13537,-0.00014 0.27067,0.00595 0.40548,0.01825c0.60854,0.04873 1.19378,0.25568 1.69768,0.60033c0.05508,0.03794 0.10893,0.07766 0.16145,0.11908c0.47988,0.36105 0.79937,0.89558 0.89013,1.48922l-0.95879,3.52588c-0.02476,0.06283 -0.05064,0.12521 -0.07763,0.18712z"/><path d="M298.18469,145.61945v-2.1136c-0.00168,-0.33998 0.01773,-0.67974 0.05812,-1.01731c0.09159,-0.73142 0.29118,-1.30181 0.59876,-1.71119c0.06609,-0.08832 0.13939,-0.17102 0.21915,-0.24724c0.22328,-0.20521 0.48346,-0.3662 0.76674,-0.47445c0.48724,-0.19653 1.10992,-0.31259 1.86804,-0.34819c0.17379,-0.00796 0.34775,-0.01186 0.52173,-0.01168h6.61892c-0.07416,-0.83432 -0.12978,-1.70108 -0.16686,-2.60029c-0.03708,-0.89921 -0.05562,-1.83086 -0.05562,-2.79496c-0.00069,-0.05976 0.00881,-0.1192 0.02809,-0.17576c0.02533,-0.07144 0.06828,-0.13534 0.12487,-0.18577c0.04844,-0.04498 0.10471,-0.08071 0.16603,-0.1054c0.05787,-0.02259 0.11949,-0.03401 0.1816,-0.03365c0.05645,-0.00047 0.11266,0.00731 0.16686,0.02308c0.07361,0.02166 0.14057,0.06155 0.19467,0.11597c0.07545,0.07568 0.12275,0.17489 0.13405,0.28116c0.00334,0.02666 0.00502,0.0535 0.00501,0.08037c0,0.9641 0.01854,1.89575 0.05562,2.79496c0.03708,0.89921 0.0927,1.76597 0.16686,2.60029h9.23311c0.05645,-0.00047 0.11266,0.00731 0.16686,0.02308c0.07361,0.02166 0.14057,0.06155 0.19467,0.11597c0.07545,0.07568 0.12275,0.17489 0.13405,0.28116c0.00334,0.02666 0.00502,0.0535 0.00501,0.08037c0.00025,0.12448 -0.04596,0.24458 -0.1296,0.33679c-0.00311,0.00365 -0.00626,0.00727 -0.00946,0.01085c-0.0927,0.10197 -0.21321,0.15296 -0.36154,0.15296h-9.14968c0.20394,2.13214 0.50059,4.04644 0.88994,5.74289c0.38935,1.69645 0.85286,3.20285 1.39053,4.51922c0.7787,-1.00118 1.4786,-2.05798 2.0997,-3.17041c0.6211,-1.11242 1.1356,-2.24339 1.54349,-3.39289c0.05015,-0.11707 0.13928,-0.21317 0.25224,-0.27199c0.01305,-0.00708 0.02631,-0.01376 0.03977,-0.02002c0.0378,-0.01788 0.07743,-0.03158 0.11819,-0.04088c0.09734,-0.02169 0.19236,-0.0127 0.28506,0.02698c0.12978,0.05562 0.22712,0.14369 0.29201,0.2642c0.05321,0.09882 0.06591,0.207 0.0381,0.32455c-0.0064,0.02672 -0.01448,0.05301 -0.0242,0.0787c-0.51913,1.35345 -1.1356,2.63273 -1.8494,3.83786c-0.7138,1.20513 -1.49714,2.33609 -2.34999,3.39289c0.28857,0.62419 0.61177,1.23178 0.96809,1.81992c0.34202,0.5654 0.72487,1.10506 1.14552,1.61468c0.41736,0.50496 0.86806,0.9814 1.34909,1.42613c0.3477,0.32054 0.71444,0.61977 1.09824,0.89606c0.66004,0.45164 1.14923,0.3824 1.46756,-0.20775c0.02222,-0.04122 0.0429,-0.08324 0.06202,-0.12598c0.05054,-0.10893 0.09839,-0.2191 0.1435,-0.33039c0.04357,-0.10716 0.08816,-0.22248 0.13377,-0.34596c0.04833,-0.13084 0.09496,-0.26231 0.13989,-0.39435c0.14832,-0.4357 0.30128,-0.87603 0.45887,-1.321c0.05619,-0.1585 0.1107,-0.31758 0.16353,-0.47723c0.0521,-0.15741 0.09919,-0.30638 0.14128,-0.44692c0.02438,-0.08106 0.04792,-0.16236 0.07064,-0.2439c0.03708,-0.12978 0.11588,-0.22712 0.23639,-0.29201c0.04737,-0.02591 0.09851,-0.04421 0.15157,-0.05423c0.07305,-0.01335 0.14767,-0.00918 0.22388,0.01251c0.05543,0.01329 0.10851,0.03495 0.15741,0.06424c0.06867,0.04169 0.12479,0.10117 0.16241,0.17215c0.05321,0.09882 0.06591,0.207 0.0381,0.32455c-0.0064,0.02672 -0.01448,0.05301 -0.0242,0.0787c-0.08621,0.25007 -0.17177,0.50037 -0.25669,0.75089c-0.08677,0.25604 -0.17771,0.52599 -0.27282,0.80984c-0.03213,0.09621 -0.06421,0.19243 -0.09622,0.28867c-0.07805,0.23488 -0.15955,0.46861 -0.24446,0.7011c-0.14221,0.38786 -0.27857,0.72428 -0.40909,1.00925c-0.08354,0.20858 -0.18545,0.40933 -0.30453,0.59987c-0.54842,0.86083 -1.30394,1.03455 -2.26656,0.52117c-0.15924,-0.0859 -0.31296,-0.18166 -0.46027,-0.28673c-0.52819,-0.38171 -1.02626,-0.80344 -1.48981,-1.26149c-0.34409,-0.3387 -0.67287,-0.69261 -0.98533,-1.0607c-0.79724,-0.93629 -1.52958,-2.08116 -2.19704,-3.43461c-1.24674,1.42202 -2.64868,2.70008 -4.17965,3.81033c-0.93107,0.67044 -1.91414,1.26553 -2.93986,1.7796c-0.12978,0.07416 -0.2642,0.0927 -0.40325,0.05562c-0.1182,-0.03177 -0.22381,-0.09904 -0.30258,-0.19273c-0.01591,-0.01847 -0.03095,-0.03768 -0.04505,-0.05757c-0.01844,-0.03624 -0.03344,-0.07414 -0.04478,-0.11319c-0.01261,-0.04487 -0.01891,-0.0889 -0.01891,-0.1321c0.00008,-0.05914 0.01229,-0.11764 0.03588,-0.17187c0.05562,-0.12978 0.14832,-0.22248 0.27811,-0.27811c1.31637,-0.64891 2.58638,-1.46006 3.81005,-2.43343c1.22367,-0.97337 2.34536,-2.06262 3.36508,-3.26774c-0.61128,-1.40759 -1.13931,-3.02811 -1.58409,-4.86157c-0.00037,-0.00176 -0.00074,-0.00352 -0.00111,-0.00528c-0.4446,-1.83364 -0.77814,-3.90785 -1.00062,-6.22262c-0.00018,-0.00232 -0.00037,-0.00463 -0.00056,-0.00695h-6.70235c-0.90347,0 -1.58391,0.11282 -2.0413,0.33845c-0.13279,0.06361 -0.25553,0.14635 -0.36432,0.24557c-0.35635,0.33243 -0.56048,0.92174 -0.61239,1.76792c-0.00912,0.15214 -0.01357,0.30452 -0.01335,0.45693v1.39053h3.53194c1.22367,0 2.06262,0.21785 2.51686,0.65355c0.17044,0.16853 0.30174,0.37247 0.38462,0.59737c0.15741,0.40399 0.22239,0.92961 0.19495,1.57686c-0.00247,0.05862 -0.00563,0.11721 -0.00946,0.17576c-0.03708,0.70454 -0.08807,1.41371 -0.15296,2.12751c-0.06489,0.7138 -0.14369,1.39516 -0.23639,2.04408c-0.03594,0.258 -0.08457,0.51408 -0.14573,0.76729c-0.13164,0.53545 -0.31018,0.96104 -0.53563,1.27678c-0.22986,0.31788 -0.54032,0.56873 -0.89939,0.72669c-0.18039,0.08136 -0.36813,0.14533 -0.56066,0.19106c-0.58625,0.14239 -1.36911,0.22044 -2.3486,0.23417c-0.10706,0.00149 -0.21414,0.00223 -0.32121,0.00222c-0.12445,0.00033 -0.24454,-0.04578 -0.33679,-0.12932c-0.00365,-0.0032 -0.00727,-0.00645 -0.01085,-0.00973c-0.10197,-0.0927 -0.15296,-0.20394 -0.15296,-0.33373c-0.00069,-0.05976 0.00881,-0.1192 0.02809,-0.17576c0.02533,-0.07144 0.06828,-0.13534 0.12487,-0.18577c0.04844,-0.04498 0.10471,-0.08071 0.16603,-0.1054c0.05787,-0.02259 0.11949,-0.03401 0.1816,-0.03365c0.25647,0.00038 0.51293,-0.00407 0.76924,-0.01335c0.48149,-0.01835 0.88577,-0.05506 1.21282,-0.11013c0.05328,-0.00892 0.10641,-0.01875 0.15935,-0.02948c0.16086,-0.03157 0.31793,-0.08005 0.46861,-0.14462c0.26772,-0.11699 0.47769,-0.282 0.62991,-0.49503c0.08529,-0.12212 0.15744,-0.25291 0.21525,-0.39018c0.11662,-0.26939 0.21071,-0.60275 0.28228,-1.00007c0.00587,-0.0325 0.01152,-0.06504 0.01696,-0.09762c0.04846,-0.31205 0.09324,-0.62466 0.13433,-0.93777c0.04301,-0.32557 0.08492,-0.66875 0.1257,-1.02955c0.00139,-0.01168 0.00278,-0.02336 0.00417,-0.03504c0.08343,-0.74162 0.13442,-1.45542 0.15296,-2.14141c0.03133,-0.67524 -0.05367,-1.15766 -0.25502,-1.44726c-0.03474,-0.05043 -0.07514,-0.09671 -0.12042,-0.13794c-0.09718,-0.08426 -0.20833,-0.15089 -0.32844,-0.1969c-0.31611,-0.1283 -0.76748,-0.19245 -1.3541,-0.19245h-3.53194c0.00079,0.7355 -0.01553,1.47092 -0.04895,2.20566c-0.03745,0.80076 -0.09622,1.5535 -0.17632,2.25822c-0.03516,0.31117 -0.07595,0.62168 -0.12237,0.93138c-0.23176,1.53885 -0.59329,2.90621 -1.08461,4.10206c-0.47488,1.1458 -1.09988,2.22343 -1.85858,3.20461c-0.05201,0.06782 -0.10457,0.13522 -0.15769,0.20218c-0.03808,0.04185 -0.0806,0.07943 -0.12682,0.11208c-0.17706,0.12329 -0.37034,0.12311 -0.57985,-0.00056c-0.01499,-0.00896 -0.02974,-0.01833 -0.04422,-0.02809c-0.09532,-0.06091 -0.15938,-0.1603 -0.17548,-0.27227c-0.0025,-0.01576 -0.00426,-0.03163 -0.00528,-0.04756c-0.00106,-0.01509 -0.00161,-0.03021 -0.00167,-0.04533c0,-0.11903 0.033,-0.2198 0.09901,-0.3023c0.81578,-0.98264 1.46006,-2.06262 1.93284,-3.23993c0.26189,-0.65917 0.47694,-1.336 0.64354,-2.02544c0.16303,-0.6713 0.29168,-1.35048 0.38545,-2.0349c0.09763,-0.71171 0.17054,-1.4266 0.21859,-2.14336c0.05062,-0.73253 0.08223,-1.50715 0.09483,-2.32385c0.00428,-0.27688 0.00641,-0.55379 0.0064,-0.8307zM282.69419,158.96852v-17.71534h-2.92011c-0.68599,1.22367 -1.41834,2.39634 -2.19704,3.51804c-0.7787,1.12169 -1.54812,2.0997 -2.30828,2.93402c-0.21192,0.21173 -0.44052,0.23871 -0.68581,0.08093c-0.01263,-0.00813 -0.02505,-0.01657 -0.03727,-0.02531c-0.04607,-0.03747 -0.08474,-0.08322 -0.11402,-0.13488c-0.03564,-0.06518 -0.05384,-0.13847 -0.05284,-0.21275c0,-0.13905 0.03708,-0.25493 0.11124,-0.34763c0.31868,-0.32911 0.62347,-0.67138 0.91358,-1.02593c0.29794,-0.36209 0.60006,-0.75561 0.90635,-1.18056c0.10386,-0.14422 0.20639,-0.2894 0.30759,-0.43551c0.73235,-1.0568 1.44152,-2.1785 2.12751,-3.36508c0.68599,-1.18658 1.29319,-2.33609 1.82159,-3.44851c0.18756,-0.39377 0.3668,-0.79146 0.53758,-1.1928c0.16705,-0.3938 0.31361,-0.76637 0.43969,-1.11771c0.07256,-0.20172 0.1408,-0.40497 0.20469,-0.60961c0.01673,-0.07102 0.04956,-0.13725 0.09595,-0.19356c0.04608,-0.05398 0.10354,-0.0971 0.16825,-0.12626c0.08844,-0.04134 0.17502,-0.06202 0.25975,-0.06202c0.04855,0.00003 0.09685,0.00686 0.1435,0.0203c0.05307,0.01261 0.10371,0.03384 0.1499,0.06285c0.06992,0.04509 0.12437,0.1105 0.15602,0.18744c0.05136,0.12014 0.06313,0.24816 0.03532,0.38406c-0.00227,0.01108 -0.00477,0.02212 -0.00751,0.03309c-0.29665,0.79724 -0.64891,1.64546 -1.0568,2.54467c-0.40789,0.89921 -0.86213,1.80305 -1.36272,2.71153h11.70825c0.05645,-0.00047 0.11266,0.00731 0.16686,0.02308c0.07361,0.02166 0.14057,0.06155 0.19467,0.11597c0.07545,0.07568 0.12275,0.17489 0.13405,0.28116c0.00334,0.02666 0.00502,0.0535 0.00501,0.08037c0.00025,0.12448 -0.04596,0.24458 -0.1296,0.33679c-0.00311,0.00365 -0.00626,0.00727 -0.00946,0.01085c-0.0927,0.10197 -0.21321,0.15296 -0.36154,0.15296h-8.34317v4.92247h7.28637c0.05645,-0.00047 0.11266,0.00731 0.16686,0.02308c0.07361,0.02166 0.14057,0.06155 0.19467,0.11597c0.07545,0.07568 0.12275,0.17489 0.13405,0.28116c0.00334,0.02666 0.00502,0.0535 0.00501,0.08037c0.00025,0.12448 -0.04596,0.24458 -0.1296,0.33679c-0.00311,0.00365 -0.00626,0.00727 -0.00946,0.01085c-0.0927,0.10197 -0.21321,0.15296 -0.36154,0.15296h-7.28637v4.92247h7.53667c0.05645,-0.00047 0.11266,0.00731 0.16686,0.02308c0.07361,0.02166 0.14057,0.06155 0.19467,0.11597c0.07545,0.07568 0.12275,0.17489 0.13405,0.28116c0.00334,0.02666 0.00502,0.0535 0.00501,0.08037c0.00025,0.12448 -0.04596,0.24458 -0.1296,0.33679c-0.00311,0.00365 -0.00626,0.00727 -0.00946,0.01085c-0.0927,0.10197 -0.21321,0.15296 -0.36154,0.15296h-7.53667v5.86803c0.00025,0.12448 -0.04596,0.24458 -0.1296,0.33679c-0.00311,0.00365 -0.00626,0.00727 -0.00946,0.01085c-0.0927,0.10197 -0.21321,0.15296 -0.36154,0.15296c-0.11124,0.00003 -0.21879,-0.03983 -0.30314,-0.11235c-0.01547,-0.01282 -0.03032,-0.02637 -0.0445,-0.0406c-0.04085,-0.03999 -0.07528,-0.08605 -0.10206,-0.13655c-0.03386,-0.06518 -0.05132,-0.13763 -0.05089,-0.21108zM225.46002,139.61236h-8.09288c-0.11124,0.00003 -0.21879,-0.03983 -0.30314,-0.11235c-0.01547,-0.01282 -0.03032,-0.02637 -0.0445,-0.0406c-0.04085,-0.03999 -0.07528,-0.08605 -0.10206,-0.13655c-0.03386,-0.06518 -0.05132,-0.13763 -0.05089,-0.21108c-0.00069,-0.05976 0.00881,-0.1192 0.02809,-0.17576c0.02533,-0.07144 0.06828,-0.13534 0.12487,-0.18577c0.04844,-0.04498 0.10471,-0.08071 0.16603,-0.1054c0.05787,-0.02259 0.11949,-0.03401 0.1816,-0.03365h8.09288c1.22367,0 2.15995,0.22712 2.80887,0.68136c0.27761,0.18959 0.51729,0.42946 0.70667,0.70722c0.21807,0.32954 0.35257,0.70726 0.39185,1.10046c0.01159,0.1051 0.01734,0.21075 0.01724,0.31648c0,0.56622 -0.16176,1.17472 -0.48529,1.82549c-0.05848,0.11745 -0.12033,0.23319 -0.1855,0.34708c-0.26509,0.46631 -0.54899,0.92166 -0.851,1.36494c-0.07232,0.1065 -0.14556,0.21237 -0.2197,0.3176c-0.39862,0.56548 -0.82041,1.11706 -1.26538,1.65473c0.45803,0.36242 0.90748,0.73555 1.34798,1.1191c0.28146,0.24459 0.55987,0.49268 0.83515,0.74421c0.75089,0.68599 1.49714,1.38126 2.23875,2.08579c0.74162,0.70454 1.43688,1.38589 2.08579,2.04408c0.232,0.23532 0.46357,0.47106 0.69471,0.70722c0.36654,0.37452 0.70046,0.71816 1.00174,1.03094c0.07545,0.07568 0.12275,0.17489 0.13405,0.28116c0.00334,0.02666 0.00502,0.0535 0.00501,0.08037c0.0005,0.05654 -0.00728,0.11285 -0.02308,0.16714c-0.02171,0.07351 -0.06159,0.14037 -0.11597,0.1944c-0.07564,0.07556 -0.17486,0.12296 -0.28116,0.13433c-0.02667,0.00325 -0.05351,0.00483 -0.08037,0.00473c-0.14832,0 -0.26884,-0.05562 -0.36154,-0.16686c-0.48205,-0.50059 -1.04753,-1.07998 -1.69645,-1.73816c-0.64891,-0.65818 -1.33954,-1.34881 -2.07189,-2.07189c-0.73235,-0.72308 -1.47396,-1.41834 -2.22485,-2.08579c-0.75089,-0.66745 -1.46006,-1.26075 -2.12751,-1.77988c-1.18354,1.34785 -2.47671,2.59534 -3.86623,3.72968c-0.33345,0.27373 -0.67168,0.54158 -1.01453,0.80345c-1.84477,1.40907 -3.7776,2.60492 -5.79851,3.58756c-0.12756,0.07286 -0.25502,0.0876 -0.3824,0.04422c-0.00232,-0.00082 -0.00464,-0.00165 -0.00695,-0.0025c-0.12026,-0.04103 -0.21806,-0.13018 -0.27004,-0.24612c-0.00279,-0.00598 -0.00548,-0.01201 -0.00807,-0.01808c-0.07286,-0.12737 -0.0876,-0.25484 -0.04422,-0.3824c0.00082,-0.00232 0.00165,-0.00464 0.0025,-0.00695c0.04209,-0.11759 0.12251,-0.2176 0.22832,-0.28395c0.01174,-0.00767 0.0237,-0.015 0.03588,-0.02197c1.87258,-0.90848 3.64319,-1.97919 5.31182,-3.21212c1.66863,-1.23294 3.17968,-2.58175 4.53312,-4.04644c0.88748,-0.95495 1.70255,-1.97471 2.43843,-3.05082c0.328,-0.48189 0.63712,-0.97636 0.92665,-1.4823c0.10377,-0.17353 0.19665,-0.35335 0.27811,-0.53841c0.33224,-0.76405 0.33224,-1.41426 0,-1.95063c-0.38249,-0.61702 -1.18056,-0.94482 -2.39421,-0.98338c-0.08257,-0.00261 -0.16518,-0.0039 -0.24779,-0.00389zM169.9501,156.99397v-14.21121c-1.44615,1.40907 -2.99891,2.76252 -4.65827,4.06034c-1.1488,0.90131 -2.33534,1.75345 -3.55642,2.55412c-0.45464,0.29728 -0.91471,0.58619 -1.37996,0.86658c-0.07806,0.05307 -0.17036,0.08128 -0.26476,0.08093c-0.02929,0 -0.05914,-0.0025 -0.08955,-0.00751c-0.00707,-0.00118 -0.01411,-0.00247 -0.02114,-0.00389c-0.13905,-0.02781 -0.24566,-0.10661 -0.31982,-0.23639c-0.07416,-0.11124 -0.0927,-0.23639 -0.05562,-0.37544c0.01674,-0.06532 0.04469,-0.12723 0.0826,-0.18299c0.03748,-0.05411 0.08496,-0.10055 0.13989,-0.13683c1.85404,-1.11242 3.66636,-2.3778 5.43697,-3.79614c1.77061,-1.41834 3.4068,-2.90157 4.90857,-4.44969c1.50177,-1.54812 2.76252,-3.05453 3.78224,-4.51922c0.02985,-0.0536 0.06913,-0.10137 0.11597,-0.141c0.05882,-0.04847 0.12895,-0.08128 0.20385,-0.09539c0.02666,-0.00541 0.05374,-0.00858 0.08093,-0.00946c0.10716,-0.00315 0.20534,0.03245 0.29451,0.10679c0.04246,0.03288 0.08167,0.06976 0.11708,0.11013c0.14573,0.16872 0.15861,0.35477 0.03866,0.55816c-0.00539,0.0091 -0.01095,0.01809 -0.01669,0.02698c-0.32743,0.47155 -0.66948,0.93278 -1.02565,1.38302c-0.22819,0.28903 -0.46109,0.57431 -0.6986,0.85573c-0.64891,0.76943 -1.35345,1.54349 -2.1136,2.32218v15.2402c0.00025,0.12448 -0.04596,0.24458 -0.1296,0.33679c-0.00311,0.00365 -0.00626,0.00727 -0.00946,0.01085c-0.0927,0.10197 -0.21321,0.15296 -0.36154,0.15296c-0.11124,0.00003 -0.21879,-0.03983 -0.30314,-0.11235c-0.01547,-0.01282 -0.03032,-0.02637 -0.0445,-0.0406c-0.04085,-0.03999 -0.07528,-0.08605 -0.10206,-0.13655c-0.03386,-0.06518 -0.05132,-0.13763 -0.05089,-0.21108zM272.4599,158.99633v-17.10351c-0.68599,1.07534 -1.39516,2.10433 -2.12751,3.08697c-0.73235,0.98264 -1.45078,1.84477 -2.15532,2.58638c-0.07564,0.07556 -0.17486,0.12296 -0.28116,0.13433c-0.02667,0.00325 -0.05351,0.00483 -0.08037,0.00473c-0.00121,0 -0.00241,0 -0.00362,0c-0.14665,-0.00056 -0.26596,-0.03764 -0.35792,-0.11124c-0.08894,-0.08857 -0.14287,-0.2063 -0.15185,-0.3315c-0.00044,-0.00537 -0.00081,-0.01075 -0.00111,-0.01613c-0.00088,-0.0124 -0.00134,-0.02483 -0.00139,-0.03727c0,-0.06712 0.01261,-0.12848 0.03782,-0.18411c0.02168,-0.04711 0.05174,-0.08989 0.08872,-0.12626c0.32789,-0.31248 0.64172,-0.63939 0.94055,-0.97977c0.30759,-0.34837 0.61999,-0.72892 0.93722,-1.14162c0.10779,-0.14006 0.21421,-0.28116 0.31927,-0.42328c0.76016,-1.02899 1.50177,-2.12287 2.22485,-3.28165c0.51349,-0.8211 1.00216,-1.65747 1.46534,-2.50796c0.15936,-0.2931 0.31521,-0.5881 0.4675,-0.88493c0.43144,-0.84192 0.78472,-1.60013 1.05986,-2.27463c0.08162,-0.19975 0.15941,-0.40104 0.23333,-0.60377c0.02056,-0.05658 0.04953,-0.10974 0.08593,-0.15769c0.05018,-0.06518 0.11638,-0.11625 0.19217,-0.14823c0.11959,-0.05117 0.23917,-0.05516 0.35876,-0.01196c0.01031,0.00369 0.02051,0.00768 0.03059,0.01196c0.06103,0.01453 0.1189,0.04007 0.17076,0.07537c0.06376,0.04468 0.11506,0.10489 0.14906,0.17493c0.06489,0.12978 0.06026,0.26884 -0.01391,0.41716c-0.40612,0.95008 -0.84807,1.88445 -1.3249,2.80108c-0.40132,0.77317 -0.82195,1.53616 -1.26149,2.28825v18.74433c0.00025,0.12448 -0.04596,0.24458 -0.1296,0.33679c-0.00311,0.00365 -0.00626,0.00727 -0.00946,0.01085c-0.0927,0.10197 -0.21321,0.15296 -0.36154,0.15296c-0.11124,0.00003 -0.21879,-0.03983 -0.30314,-0.11235c-0.01547,-0.01282 -0.03032,-0.02637 -0.0445,-0.0406c-0.04085,-0.03999 -0.07528,-0.08605 -0.10206,-0.13655c-0.03386,-0.06518 -0.05132,-0.13763 -0.05089,-0.21108zM199.87428,143.36679h-10.34554c-0.06925,0.00089 -0.13833,-0.00714 -0.20552,-0.02392c-0.17502,-0.04617 -0.27894,-0.15973 -0.31176,-0.34068c-0.00776,-0.04491 -0.01148,-0.09042 -0.01112,-0.13599c-0.00093,-0.07607 0.01443,-0.15146 0.04505,-0.22109c0.02623,-0.05761 0.0628,-0.10993 0.10791,-0.15435c0.09693,-0.09896 0.22997,-0.15418 0.36849,-0.15296c0.00232,-0.00001 0.00463,-0.00001 0.00695,0h10.34554c1.81696,0 3.01281,0.49596 3.58756,1.48787c0.49577,0.85564 0.49484,1.94238 -0.00278,3.26023c-0.08318,0.21927 -0.17503,0.43516 -0.27532,0.64715c-0.63037,1.29783 -1.50641,2.51686 -2.6281,3.65709c-0.97654,0.98678 -2.05431,1.86795 -3.21546,2.62893c-0.22342,0.14744 -0.44947,0.29087 -0.67802,0.43023c-1.41836,0.86064 -2.91731,1.58082 -4.47556,2.15031c-0.10702,0.0394 -0.21428,0.07815 -0.32177,0.11625c-0.25141,0.07398 -0.44386,0.0241 -0.57735,-0.14962c-0.03624,-0.04827 -0.0665,-0.10075 -0.09011,-0.1563c-0.00889,-0.03158 -0.01613,-0.06361 -0.02169,-0.09595c-0.04691,-0.27903 0.07157,-0.46027 0.35542,-0.5437c1.40133,-0.48365 2.75505,-1.09558 4.04394,-1.82799c0.17842,-0.102 0.3554,-0.20649 0.5309,-0.31343c1.3998,-0.85286 2.6281,-1.81696 3.6849,-2.8923c1.0568,-1.07534 1.88185,-2.22485 2.47514,-3.44851c0.10474,-0.21761 0.1984,-0.44038 0.28061,-0.66745c0.33169,-0.92535 0.33549,-1.66697 0.0114,-2.22485c-0.37229,-0.64038 -1.17676,-0.9819 -2.4134,-1.02454c-0.09007,-0.00303 -0.18019,-0.00451 -0.27032,-0.00445zM250.21143,157.04959v-19.77332c-0.00098,-0.06924 0.00696,-0.13831 0.02364,-0.20552c0.04635,-0.17484 0.16,-0.27866 0.34096,-0.31148c0.0449,-0.00785 0.09041,-0.01167 0.13599,-0.0114c0.07607,-0.00093 0.15146,0.01443 0.22109,0.04505c0.05761,0.02623 0.10993,0.0628 0.15435,0.10791c0.09896,0.09693 0.15418,0.22997 0.15296,0.36849c0.00001,0.00232 0.00001,0.00463 0,0.00695v19.77332c-0.00004,0.11127 -0.04001,0.21883 -0.11263,0.30314c-0.01273,0.01546 -0.02619,0.03031 -0.04033,0.0445c-0.09693,0.09896 -0.22997,0.15418 -0.36849,0.15296c-0.00232,0.00001 -0.00463,0.00001 -0.00695,0c-0.11124,0.00003 -0.21879,-0.03983 -0.30314,-0.11235c-0.01547,-0.01282 -0.03032,-0.02637 -0.0445,-0.0406c-0.04085,-0.03999 -0.07528,-0.08605 -0.10206,-0.13655c-0.03386,-0.06518 -0.05132,-0.13763 -0.05089,-0.21108zM201.98789,138.27745h-10.65145c-0.11124,0.00003 -0.21879,-0.03983 -0.30314,-0.11235c-0.01547,-0.01282 -0.03032,-0.02637 -0.0445,-0.0406c-0.04085,-0.03999 -0.07528,-0.08605 -0.10206,-0.13655c-0.03386,-0.06518 -0.05132,-0.13763 -0.05089,-0.21108c-0.00069,-0.05976 0.00881,-0.1192 0.02809,-0.17576c0.02533,-0.07144 0.06828,-0.13534 0.12487,-0.18577c0.04844,-0.04498 0.10471,-0.08071 0.16603,-0.1054c0.05787,-0.02259 0.11949,-0.03401 0.1816,-0.03365h10.65145c0.05645,-0.00047 0.11266,0.00731 0.16686,0.02308c0.07361,0.02166 0.14057,0.06155 0.19467,0.11597c0.07545,0.07568 0.12275,0.17489 0.13405,0.28116c0.00334,0.02666 0.00502,0.0535 0.00501,0.08037c0.00025,0.12448 -0.04596,0.24458 -0.1296,0.33679c-0.00311,0.00365 -0.00626,0.00727 -0.00946,0.01085c-0.0927,0.10197 -0.21321,0.15296 -0.36154,0.15296zM259.66703,149.7076c-0.21674,-0.17876 -0.43733,-0.3528 -0.66161,-0.522c-0.24937,-0.18874 -0.51932,-0.38527 -0.80984,-0.58958c-0.18053,-0.12698 -0.36214,-0.25241 -0.54481,-0.37628c-0.80651,-0.54694 -1.64082,-1.07998 -2.50295,-1.59911c-0.4085,-0.24641 -0.8207,-0.48663 -1.23646,-0.72057c-0.39769,-0.22323 -0.77786,-0.42782 -1.14051,-0.61378c-0.00028,-0.00018 -0.00056,-0.00037 -0.00083,-0.00056c-0.05275,-0.02941 -0.1006,-0.06684 -0.14183,-0.11096c-0.051,-0.05554 -0.08816,-0.12234 -0.10846,-0.19495c-0.01225,-0.04221 -0.01852,-0.08593 -0.01863,-0.12988c0,-0.05933 0.01168,-0.11875 0.03504,-0.17827c0.01109,-0.02798 0.0242,-0.05512 0.03921,-0.08121c0.0217,-0.05245 0.05291,-0.10044 0.09205,-0.14156c0.05126,-0.05213 0.11548,-0.08966 0.18605,-0.10874c0.11755,-0.03356 0.23509,-0.02911 0.35264,0.01335c0.01237,0.00446 0.02462,0.00929 0.03671,0.01446c0.38045,0.19088 0.7561,0.39118 1.12661,0.60071c0.39102,0.22063 0.79826,0.46175 1.22172,0.72335c0.02839,0.01749 0.05675,0.03501 0.0851,0.05256c0.88067,0.54694 1.73816,1.09852 2.57248,1.65473c0.29569,0.19672 0.58775,0.39884 0.87603,0.60627c0.45183,0.32594 0.84581,0.63371 1.18195,0.92331c0.04016,0.03401 0.07703,0.07172 0.11013,0.11263c0.14091,0.1765 0.14369,0.36404 0.00834,0.56261c-0.01114,0.01634 -0.02282,0.03229 -0.03504,0.04783c-0.20413,0.23824 -0.42393,0.27347 -0.65939,0.10568c-0.02196,-0.01573 -0.04321,-0.03243 -0.06369,-0.05006zM316.6231,138.6668c-0.46351,-0.48205 -1.02436,-1.00582 -1.68254,-1.5713c-0.23365,-0.20113 -0.47072,-0.39824 -0.71112,-0.59125c-0.23676,-0.18967 -0.46295,-0.36302 -0.67858,-0.52006c-0.12393,-0.09055 -0.24937,-0.179 -0.37628,-0.26531c-0.11124,-0.07416 -0.1715,-0.17613 -0.18077,-0.30592c-0.00106,-0.01416 -0.00162,-0.02835 -0.00167,-0.04255c0,-0.11161 0.033,-0.20867 0.09901,-0.29118c0.0927,-0.0927 0.20394,-0.15759 0.33373,-0.19467c0.03616,-0.01045 0.0736,-0.01579 0.11124,-0.01585c0.05636,0 0.11282,0.01233 0.16937,0.03699c0.03833,0.0169 0.07477,0.03778 0.10874,0.0623c0.14039,0.09628 0.279,0.19511 0.41577,0.29646c0.1511,0.11198 0.30935,0.23305 0.47473,0.36321c0.10241,0.08061 0.2042,0.16201 0.30536,0.24418c0.44497,0.36154 0.87603,0.72308 1.29319,1.08461c0.14735,0.12744 0.29272,0.25715 0.43607,0.38907c0.22378,0.20654 0.41679,0.39667 0.57902,0.5704c0.11124,0.11124 0.16223,0.24102 0.15296,0.38935c-0.00322,0.05996 -0.01502,0.11915 -0.03504,0.17576c-0.02505,0.0699 -0.06533,0.13336 -0.11792,0.18577c-0.08861,0.08884 -0.20634,0.14267 -0.3315,0.15157c-0.00537,0.00053 -0.01075,0.00099 -0.01613,0.00139c-0.01055,0.00072 -0.02113,0.00109 -0.0317,0.00111c-0.11347,0 -0.21062,-0.04218 -0.29145,-0.12654c-0.00848,-0.00889 -0.01664,-0.01807 -0.02447,-0.02753z"/></g></g></svg>